<svg width="27" height="27" viewBox="0 0 27 27" fill="none" xmlns="http://www.w3.org/2000/svg">
<path d="M19.7881 4.43828C19.7881 5.51088 21.3045 8.09992 22.5621 9.98622C23.8196 8.09992 25.336 5.51088 25.336 4.43828C25.336 2.92184 24.0785 1.66431 22.5621 1.66431C21.0086 1.66431 19.7881 2.92184 19.7881 4.43828Z" fill="url(#paint0_linear_1288_5717)"/>
<path d="M22.562 0.184814C20.1949 0.184814 18.3086 2.1081 18.3086 4.43824C18.3086 6.54646 21.6004 11.2067 21.9702 11.7245C22.2661 12.1314 22.8579 12.1314 23.1538 11.7245C23.5237 11.2067 26.8155 6.58344 26.8155 4.43824C26.8155 2.1081 24.8922 0.184814 22.562 0.184814ZM25.336 4.43824C25.336 5.51084 23.8196 8.09988 22.562 9.98618C21.3045 8.09988 19.788 5.51084 19.788 4.43824C19.788 2.9218 21.0456 1.66427 22.562 1.66427C24.0785 1.66427 25.336 2.9218 25.336 4.43824Z" fill="url(#paint1_linear_1288_5717)"/>
<path d="M22.5617 4.99312C23.0111 4.99312 23.3754 4.62882 23.3754 4.17942C23.3754 3.73003 23.0111 3.36572 22.5617 3.36572C22.1124 3.36572 21.748 3.73003 21.748 4.17942C21.748 4.62882 22.1124 4.99312 22.5617 4.99312Z" fill="url(#paint2_linear_1288_5717)"/>
<path d="M4.43804 16.459C2.9216 16.459 1.66406 17.7165 1.66406 19.233C1.66406 20.3056 3.1805 22.8946 4.43804 24.7809C5.69557 22.8946 7.21201 20.3056 7.21201 19.233C7.21201 17.6795 5.99146 16.459 4.43804 16.459Z" fill="url(#paint3_linear_1288_5717)"/>
<path d="M4.43799 14.9795C2.10786 14.9795 0.18457 16.8658 0.18457 19.2329C0.18457 21.3411 3.47635 26.0014 3.84621 26.5192C4.1421 26.9261 4.73388 26.963 5.02978 26.5192C5.39964 26.0014 8.69142 21.3781 8.69142 19.2329C8.69142 16.8658 6.80512 14.9795 4.43799 14.9795ZM1.66402 19.2329C1.66402 17.7165 2.92156 16.4589 4.43799 16.4589C5.95443 16.4589 7.21197 17.7165 7.21197 19.2329C7.21197 20.3055 5.69553 22.8946 4.43799 24.7809C3.18046 22.8946 1.66402 20.3055 1.66402 19.2329Z" fill="url(#paint4_linear_1288_5717)"/>
<path d="M4.4387 19.7507C4.88809 19.7507 5.2524 19.3864 5.2524 18.937C5.2524 18.4876 4.88809 18.1233 4.4387 18.1233C3.98931 18.1233 3.625 18.4876 3.625 18.937C3.625 19.3864 3.98931 19.7507 4.4387 19.7507Z" fill="url(#paint5_linear_1288_5717)"/>
<path d="M12.39 19.6767H23.6709C25.4092 19.6767 26.8147 18.2713 26.8147 16.5329C26.8147 14.7946 25.4092 13.3891 23.6709 13.3891H2.36676C1.9969 13.3891 1.66402 13.0932 1.66402 12.6863C1.66402 12.3165 1.95991 11.9836 2.36676 11.9836H18.7517C19.1585 11.9836 19.4914 11.6507 19.4914 11.2439C19.4914 10.837 19.1585 10.5042 18.7517 10.5042H2.36676C1.1832 10.5042 0.18457 11.4658 0.18457 12.6863C0.18457 13.8699 1.14621 14.8685 2.36676 14.8685H23.6709C24.5955 14.8685 25.3353 15.6083 25.3353 16.5329C25.3353 17.4576 24.5955 18.1973 23.6709 18.1973H12.39C11.0585 18.1973 10.0229 19.2699 10.0229 20.5644C10.0229 21.8959 11.0955 22.9315 12.39 22.9315H24.1517C24.8174 22.9315 25.3353 23.4493 25.3353 24.1151C25.3353 24.7809 24.8174 25.2987 24.1517 25.2987H8.24758C7.84073 25.2987 7.50786 25.6315 7.50786 26.0384C7.50786 26.4452 7.84073 26.7781 8.24758 26.7781H24.1517C25.6311 26.7781 26.8147 25.5946 26.8147 24.1151C26.8147 22.6356 25.6311 21.4521 24.1517 21.4521H12.39C11.9092 21.4521 11.5024 21.0452 11.5024 20.5644C11.4654 20.0836 11.8722 19.6767 12.39 19.6767Z" fill="url(#paint6_linear_1288_5717)"/>
<defs>
<linearGradient id="paint0_linear_1288_5717" x1="25.336" y1="1.66431" x2="17.6543" y2="6.78547" gradientUnits="userSpaceOnUse">
<stop offset="0.0677083" stop-color="#00B5DD"/>
<stop offset="0.510417" stop-color="#0091E2"/>
<stop offset="0.90625" stop-color="#0084E4"/>
</linearGradient>
<linearGradient id="paint1_linear_1288_5717" x1="26.8155" y1="0.184814" x2="15.5912" y2="8.24599" gradientUnits="userSpaceOnUse">
<stop offset="0.0677083" stop-color="#00B5DD"/>
<stop offset="0.510417" stop-color="#0091E2"/>
<stop offset="0.90625" stop-color="#0084E4"/>
</linearGradient>
<linearGradient id="paint2_linear_1288_5717" x1="23.3754" y1="3.36572" x2="21.748" y2="4.99312" gradientUnits="userSpaceOnUse">
<stop offset="0.0677083" stop-color="#00B5DD"/>
<stop offset="0.510417" stop-color="#0091E2"/>
<stop offset="0.90625" stop-color="#0084E4"/>
</linearGradient>
<linearGradient id="paint3_linear_1288_5717" x1="7.21201" y1="16.459" x2="-0.469758" y2="21.5802" gradientUnits="userSpaceOnUse">
<stop offset="0.0677083" stop-color="#00B5DD"/>
<stop offset="0.510417" stop-color="#0091E2"/>
<stop offset="0.90625" stop-color="#0084E4"/>
</linearGradient>
<linearGradient id="paint4_linear_1288_5717" x1="8.69142" y1="14.9795" x2="-2.54188" y2="23.0376" gradientUnits="userSpaceOnUse">
<stop offset="0.0677083" stop-color="#00B5DD"/>
<stop offset="0.510417" stop-color="#0091E2"/>
<stop offset="0.90625" stop-color="#0084E4"/>
</linearGradient>
<linearGradient id="paint5_linear_1288_5717" x1="5.2524" y1="18.1233" x2="3.625" y2="19.7507" gradientUnits="userSpaceOnUse">
<stop offset="0.0677083" stop-color="#00B5DD"/>
<stop offset="0.510417" stop-color="#0091E2"/>
<stop offset="0.90625" stop-color="#0084E4"/>
</linearGradient>
<linearGradient id="paint6_linear_1288_5717" x1="26.8147" y1="10.5042" x2="12.3327" y2="34.202" gradientUnits="userSpaceOnUse">
<stop offset="0.0677083" stop-color="#00B5DD"/>
<stop offset="0.510417" stop-color="#0091E2"/>
<stop offset="0.90625" stop-color="#0084E4"/>
</linearGradient>
</defs>
</svg>
