<svg width="24" height="24" viewBox="0 0 24 24" fill="none" xmlns="http://www.w3.org/2000/svg">
<path d="M17.7886 10.8935V19.4524C17.7886 19.6718 17.7014 19.8823 17.5462 20.0375C17.391 20.1928 17.1805 20.2799 16.961 20.2799H4.54721C4.32772 20.2799 4.11722 20.1928 3.96202 20.0375C3.80682 19.8823 3.71963 19.6718 3.71963 19.4524V9.52132H9.79659L14.7629 4.55581H4.54721C3.17838 4.55581 2.06445 5.66974 2.06445 7.03857V19.4524C2.06445 20.8212 3.17838 21.9351 4.54721 21.9351H16.961C18.3298 21.9351 19.4438 20.8212 19.4438 19.4524V9.23746L17.7886 10.8935ZM20.2796 6.06036L21.4498 4.89015C21.6079 4.73747 21.734 4.55483 21.8208 4.35289C21.9075 4.15095 21.9532 3.93376 21.9551 3.71399C21.957 3.49422 21.9151 3.27626 21.8319 3.07285C21.7487 2.86943 21.6258 2.68463 21.4703 2.52922C21.3149 2.37381 21.1301 2.25091 20.9267 2.16769C20.7233 2.08447 20.5054 2.04259 20.2856 2.0445C20.0658 2.04641 19.8486 2.09207 19.6467 2.17881C19.4447 2.26556 19.2621 2.39165 19.1094 2.54974L17.9392 3.71994L20.2796 6.06036Z" fill="url(#paint0_linear_1288_5761)"/>
<path d="M16.769 4.89014L10.918 10.742L10.332 13.6683L13.2584 13.0824L19.1102 7.23138L16.769 4.89014Z" fill="url(#paint1_linear_1288_5761)"/>
<defs>
<linearGradient id="paint0_linear_1288_5761" x1="21.9551" y1="2.04443" x2="2.06445" y2="21.9351" gradientUnits="userSpaceOnUse">
<stop offset="0.0677083" stop-color="#00B5DD"/>
<stop offset="0.510417" stop-color="#0091E2"/>
<stop offset="0.90625" stop-color="#0084E4"/>
</linearGradient>
<linearGradient id="paint1_linear_1288_5761" x1="19.1102" y1="4.89014" x2="10.332" y2="13.6683" gradientUnits="userSpaceOnUse">
<stop offset="0.0677083" stop-color="#00B5DD"/>
<stop offset="0.510417" stop-color="#0091E2"/>
<stop offset="0.90625" stop-color="#0084E4"/>
</linearGradient>
</defs>
</svg>
