<svg width="27" height="14" viewBox="0 0 27 14" fill="none" xmlns="http://www.w3.org/2000/svg">
<path d="M6.25219 6C6.01584 6 5.78481 6.05865 5.5883 6.16853C5.39179 6.27841 5.23862 6.43459 5.14818 6.61732C5.05773 6.80004 5.03407 7.00111 5.08018 7.19509C5.12629 7.38907 5.2401 7.56725 5.40722 7.70711C5.57434 7.84696 5.78726 7.9422 6.01906 7.98079C6.25086 8.01937 6.49113 7.99957 6.70948 7.92388C6.92783 7.84819 7.11446 7.72002 7.24577 7.55557C7.37707 7.39112 7.44715 7.19778 7.44715 7C7.44715 6.73478 7.32126 6.48043 7.09716 6.29289C6.87306 6.10536 6.56911 6 6.25219 6ZM20.5918 6C20.3555 6 20.1244 6.05865 19.9279 6.16853C19.7314 6.27841 19.5782 6.43459 19.4878 6.61732C19.3974 6.80004 19.3737 7.00111 19.4198 7.19509C19.4659 7.38907 19.5797 7.56725 19.7468 7.70711C19.914 7.84696 20.1269 7.9422 20.3587 7.98079C20.5905 8.01937 20.8308 7.99957 21.0491 7.92388C21.2675 7.84819 21.4541 7.72002 21.5854 7.55557C21.7167 7.39112 21.7868 7.19778 21.7868 7C21.7868 6.73478 21.6609 6.48043 21.4368 6.29289C21.2127 6.10536 20.9087 6 20.5918 6ZM22.9817 0H3.86225C2.91147 0 1.99964 0.316071 1.32734 0.87868C0.655038 1.44129 0.277344 2.20435 0.277344 3V11C0.277344 11.7956 0.655038 12.5587 1.32734 13.1213C1.99964 13.6839 2.91147 14 3.86225 14H22.9817C23.9325 14 24.8444 13.6839 25.5167 13.1213C26.189 12.5587 26.5667 11.7956 26.5667 11V3C26.5667 2.20435 26.189 1.44129 25.5167 0.87868C24.8444 0.316071 23.9325 0 22.9817 0ZM24.1767 11C24.1767 11.2652 24.0508 11.5196 23.8267 11.7071C23.6026 11.8946 23.2987 12 22.9817 12H3.86225C3.54532 12 3.24138 11.8946 3.01728 11.7071C2.79318 11.5196 2.66728 11.2652 2.66728 11V3C2.66728 2.73478 2.79318 2.48043 3.01728 2.29289C3.24138 2.10536 3.54532 2 3.86225 2H22.9817C23.2987 2 23.6026 2.10536 23.8267 2.29289C24.0508 2.48043 24.1767 2.73478 24.1767 3V11ZM13.422 4C12.713 4 12.0199 4.17595 11.4303 4.50559C10.8408 4.83524 10.3813 5.30377 10.11 5.85195C9.83864 6.40013 9.76765 7.00333 9.90598 7.58527C10.0443 8.16721 10.3857 8.70176 10.8871 9.12132C11.3884 9.54088 12.0272 9.8266 12.7226 9.94236C13.418 10.0581 14.1388 9.9987 14.7939 9.77164C15.4489 9.54458 16.0088 9.16006 16.4027 8.66671C16.7967 8.17336 17.0069 7.59334 17.0069 7C17.0069 6.20435 16.6292 5.44129 15.9569 4.87868C15.2846 4.31607 14.3728 4 13.422 4ZM13.422 8C13.1857 8 12.9546 7.94135 12.7581 7.83147C12.5616 7.72159 12.4084 7.56541 12.318 7.38268C12.2275 7.19996 12.2039 6.99889 12.25 6.80491C12.2961 6.61093 12.4099 6.43275 12.577 6.29289C12.7441 6.15304 12.9571 6.0578 13.1889 6.01921C13.4207 5.98063 13.6609 6.00043 13.8793 6.07612C14.0976 6.15181 14.2843 6.27998 14.4156 6.44443C14.5469 6.60888 14.617 6.80222 14.617 7C14.617 7.26522 14.4911 7.51957 14.267 7.70711C14.0429 7.89464 13.7389 8 13.422 8Z" fill="url(#paint0_linear_1288_5701)"/>
<defs>
<linearGradient id="paint0_linear_1288_5701" x1="26.5667" y1="0" x2="14.9501" y2="21.8137" gradientUnits="userSpaceOnUse">
<stop offset="0.0677083" stop-color="#00B5DD"/>
<stop offset="0.510417" stop-color="#0091E2"/>
<stop offset="0.90625" stop-color="#0084E4"/>
</linearGradient>
</defs>
</svg>
