<svg width="23" height="23" viewBox="0 0 23 23" fill="none" xmlns="http://www.w3.org/2000/svg">
<path fill-rule="evenodd" clip-rule="evenodd" d="M11.5 23C17.8512 23 23 17.8512 23 11.5C23 5.14872 17.8512 0 11.5 0C5.14872 0 0 5.14872 0 11.5C0 17.8512 5.14872 23 11.5 23ZM14.95 9.2C14.95 11.1054 13.4054 12.65 11.5 12.65C9.59456 12.65 8.05 11.1054 8.05 9.2C8.05 7.29462 9.59456 5.75 11.5 5.75C13.4054 5.75 14.95 7.29462 14.95 9.2ZM4.59916 17.25C6.17272 15.155 8.678 13.8 11.4998 13.8C14.3215 13.8 16.8269 15.155 18.4005 17.25C16.8269 19.345 14.3215 20.7 11.4998 20.7C8.678 20.7 6.17272 19.345 4.59916 17.25Z" fill="url(#paint0_linear_3584_3812)"/>
<defs>
<linearGradient id="paint0_linear_3584_3812" x1="11.5" y1="0" x2="11.5" y2="23" gradientUnits="userSpaceOnUse">
<stop stop-color="#7C7A7B"/>
<stop offset="1" stop-color="#4F4042"/>
</linearGradient>
</defs>
</svg>
