<svg width="19" height="23" viewBox="0 0 19 23" fill="none" xmlns="http://www.w3.org/2000/svg">
<path d="M14.95 2.3H13.57C13.11 0.92 11.845 0 10.35 0H8.05C6.555 0 5.29 0.92 4.83 2.3H3.45C1.495 2.3 0 3.795 0 5.75V19.55C0 21.505 1.495 23 3.45 23H14.95C16.905 23 18.4 21.505 18.4 19.55V5.75C18.4 3.795 16.905 2.3 14.95 2.3ZM6.9 3.45C6.9 2.76 7.36 2.3 8.05 2.3H10.35C11.04 2.3 11.5 2.76 11.5 3.45V4.6H6.9V3.45ZM10.35 16.1H5.75C5.06 16.1 4.6 15.64 4.6 14.95C4.6 14.26 5.06 13.8 5.75 13.8H10.35C11.04 13.8 11.5 14.26 11.5 14.95C11.5 15.64 11.04 16.1 10.35 16.1ZM12.65 11.5H5.75C5.06 11.5 4.6 11.04 4.6 10.35C4.6 9.66 5.06 9.2 5.75 9.2H12.65C13.34 9.2 13.8 9.66 13.8 10.35C13.8 11.04 13.34 11.5 12.65 11.5Z" fill="url(#paint0_linear_3584_3808)"/>
<defs>
<linearGradient id="paint0_linear_3584_3808" x1="18.4" y1="0" x2="-4.03902" y2="17.9512" gradientUnits="userSpaceOnUse">
<stop offset="0.0677083" stop-color="#00B5DD"/>
<stop offset="0.510417" stop-color="#0091E2"/>
<stop offset="0.90625" stop-color="#0084E4"/>
</linearGradient>
</defs>
</svg>
