<svg width="23" height="23" viewBox="0 0 23 23" fill="none" xmlns="http://www.w3.org/2000/svg">
<path fill-rule="evenodd" clip-rule="evenodd" d="M5.22726 0C3.4951 0 2.0909 1.4042 2.0909 3.13635V5.22726C2.0909 6.95941 3.4951 8.36361 5.22726 8.36361H19.3611L21.1381 10.5849C21.4154 10.9316 21.8816 11.0653 22.3005 10.9183C22.7195 10.7713 22.9999 10.3758 22.9999 9.93182V3.13635C22.9999 1.4042 21.5958 0 19.8636 0H5.22726ZM17.7727 12.0227C19.5049 12.0227 20.909 13.4269 20.909 15.1591V17.25C20.909 18.9821 19.5049 20.3863 17.7727 20.3863H3.63883L1.86181 22.6076C1.58445 22.9543 1.11836 23.088 0.699396 22.941C0.280442 22.794 0 22.3985 0 21.9545V15.1591C0 13.4269 1.4042 12.0227 3.13635 12.0227H17.7727Z" fill="url(#paint0_linear_3584_3799)"/>
<defs>
<linearGradient id="paint0_linear_3584_3799" x1="11.5" y1="0" x2="11.5" y2="23" gradientUnits="userSpaceOnUse">
<stop stop-color="#7C7A7B"/>
<stop offset="1" stop-color="#4F4042"/>
</linearGradient>
</defs>
</svg>
