<svg width="22" height="23" viewBox="0 0 22 23" fill="none" xmlns="http://www.w3.org/2000/svg">
<path d="M20.8461 9.40414L11.6198 0.34024C11.5086 0.232429 11.3762 0.146858 11.2304 0.0884615C11.0846 0.0300653 10.9281 0 10.7702 0C10.6122 0 10.4558 0.0300653 10.31 0.0884615C10.1641 0.146858 10.0318 0.232429 9.92054 0.34024L0.694207 9.41565C0.470952 9.63197 0.294632 9.88877 0.175484 10.1711C0.0563354 10.4535 -0.00326664 10.7558 0.000138053 11.0605V20.6995C-0.000789156 21.2883 0.233217 21.8551 0.653968 22.2831C1.07472 22.711 1.65018 22.9676 2.26184 23H5.98349V12.6478C5.98349 12.3428 6.10957 12.0502 6.33399 11.8345C6.55841 11.6188 6.86278 11.4976 7.18016 11.4976H14.3602C14.6776 11.4976 14.9819 11.6188 15.2064 11.8345C15.4308 12.0502 15.5569 12.3428 15.5569 12.6478V23H19.2785C19.8902 22.9676 20.4656 22.711 20.8864 22.2831C21.3071 21.8551 21.5411 21.2883 21.5402 20.6995V11.0605C21.5412 10.4427 21.2923 9.84881 20.8461 9.40414Z" fill="url(#paint0_linear_1127_6073)"/>
<defs>
<linearGradient id="paint0_linear_1127_6073" x1="21.5402" y1="0" x2="-1.41043" y2="21.494" gradientUnits="userSpaceOnUse">
<stop offset="0.0677083" stop-color="#00B5DD"/>
<stop offset="0.510417" stop-color="#0091E2"/>
<stop offset="0.90625" stop-color="#0084E4"/>
</linearGradient>
</defs>
</svg>
