<svg width="44" height="44" viewBox="0 0 44 44" fill="none" xmlns="http://www.w3.org/2000/svg">
<path d="M22 7C13.7294 7 7 13.7294 7 22C7 30.2706 13.7294 37 22 37C30.2706 37 37 30.2706 37 22C37 13.7294 30.2706 7 22 7ZM22 33.25C15.7956 33.25 10.75 28.2044 10.75 22C10.75 15.7956 15.7956 10.75 22 10.75C28.2044 10.75 33.25 15.7956 33.25 22C33.25 28.2044 28.2044 33.25 22 33.25Z" fill="white"/>
<path d="M22.7158 29.516C22.0905 29.516 21.4791 29.4413 20.8818 29.292C20.2938 29.1427 19.7618 28.9047 19.2858 28.578C18.8098 28.2607 18.4318 27.85 18.1518 27.346C17.8718 26.842 17.7318 26.2353 17.7318 25.526C17.7318 24.7607 17.8858 24.0607 18.1938 23.426C18.5018 22.782 18.9358 22.2127 19.4958 21.718C20.0558 21.2233 20.7185 20.8127 21.4838 20.486C22.2585 20.15 23.1031 19.912 24.0178 19.772L24.4798 21.62C23.6585 21.7693 22.9445 21.9653 22.3378 22.208C21.7405 22.4507 21.2458 22.7353 20.8538 23.062C20.4618 23.3887 20.1678 23.7387 19.9718 24.112C19.7851 24.4947 19.6918 24.896 19.6918 25.316C19.6918 25.652 19.7525 25.946 19.8738 26.198C20.0045 26.45 20.1771 26.66 20.3918 26.828C20.6065 27.0053 20.8445 27.1453 21.1058 27.248C21.3671 27.36 21.6378 27.4393 21.9178 27.486C22.1978 27.5327 22.4638 27.556 22.7158 27.556C23.3598 27.556 23.9571 27.4953 24.5078 27.374C25.0678 27.2527 25.5578 27.1033 25.9778 26.926L26.5378 28.732C26.3138 28.844 25.9965 28.9607 25.5858 29.082C25.1845 29.2033 24.7318 29.306 24.2278 29.39C23.7331 29.474 23.2291 29.516 22.7158 29.516ZM19.9298 21.76C19.6031 21.6293 19.2998 21.4427 19.0198 21.2C18.7491 20.9573 18.5298 20.6587 18.3618 20.304C18.2031 19.94 18.1238 19.5247 18.1238 19.058C18.1238 18.47 18.2778 17.9613 18.5858 17.532C18.8938 17.1027 19.3045 16.7713 19.8178 16.538C20.3311 16.3047 20.8911 16.188 21.4978 16.188C21.7965 16.188 22.0718 16.2067 22.3238 16.244C22.5851 16.2813 22.8511 16.3373 23.1218 16.412L22.8138 18.274C22.6178 18.2273 22.4171 18.19 22.2118 18.162C22.0065 18.134 21.8245 18.12 21.6658 18.12C21.3391 18.12 21.0545 18.1667 20.8118 18.26C20.5785 18.3533 20.3965 18.4887 20.2658 18.666C20.1445 18.834 20.0838 19.0347 20.0838 19.268C20.0838 19.4547 20.1398 19.632 20.2518 19.8C20.3731 19.968 20.5271 20.1173 20.7138 20.248C20.9005 20.3693 21.1058 20.472 21.3298 20.556C21.5538 20.6307 21.7731 20.6727 21.9878 20.682L19.9298 21.76Z" fill="white"/>
</svg>
