<svg width="25" height="29" viewBox="0 0 25 29" fill="none" xmlns="http://www.w3.org/2000/svg">
<path d="M12.1847 0.388439C7.09314 0.388439 2.9597 4.86641 2.9597 10.3817V18.838C2.9597 19.6864 2.47267 20.8625 1.87267 21.4625L0.42845 22.9067C0.12845 23.2067 0.229231 23.45 0.65345 23.45H23.7155C24.1397 23.45 24.2405 23.2067 23.9405 22.9067L22.4963 21.4625C21.8963 20.8625 21.4092 19.6864 21.4092 18.838V10.3817C21.4092 4.86641 17.2758 0.388439 12.1847 0.388439ZM9.1097 25.2055C9.1097 26.7823 10.4874 28.0625 12.1847 28.0625C13.8816 28.0625 15.2592 26.7823 15.2592 25.2055C15.2592 25.085 15.1542 24.9875 15.0249 24.9875H9.34407C9.2147 24.9875 9.1097 25.085 9.1097 25.2055Z" fill="white"/>
</svg>
