<svg width="27" height="27" viewBox="0 0 27 27" fill="none" xmlns="http://www.w3.org/2000/svg">
<path d="M13.5 0.583374C6.39584 0.583374 0.583336 6.39587 0.583336 13.5C0.583336 20.6042 6.39584 26.4167 13.5 26.4167C20.6042 26.4167 26.4167 20.6042 26.4167 13.5C26.4167 6.39587 20.6042 0.583374 13.5 0.583374ZM13.5 7.04171C15.6958 7.04171 17.375 8.72087 17.375 10.9167C17.375 13.1125 15.6958 14.7917 13.5 14.7917C11.3042 14.7917 9.625 13.1125 9.625 10.9167C9.625 8.72087 11.3042 7.04171 13.5 7.04171ZM13.5 23.8334C10.6583 23.8334 7.94584 22.6709 6.00834 20.6042C8.85 16.4709 14.4042 15.4375 18.5375 18.2792C19.4417 18.925 20.2167 19.7 20.8625 20.6042C19.0542 22.6709 16.3417 23.8334 13.5 23.8334Z" fill="url(#paint0_linear_2727_5398)"/>
<defs>
<linearGradient id="paint0_linear_2727_5398" x1="26.4167" y1="0.583374" x2="0.583336" y2="26.4167" gradientUnits="userSpaceOnUse">
<stop offset="0.0677083" stop-color="#00B5DD"/>
<stop offset="0.510417" stop-color="#0091E2"/>
<stop offset="0.90625" stop-color="#0084E4"/>
</linearGradient>
</defs>
</svg>
