<svg width="49" height="49" viewBox="0 0 49 49" fill="none" xmlns="http://www.w3.org/2000/svg">
<g clip-path="url(#clip0_4334_6178)">
<path d="M33.8 12.1818H32.7V11.0909C32.7 10.4909 32.205 10 31.6 10C30.995 10 30.5 10.4909 30.5 11.0909V12.1818H19.5V11.0909C19.5 10.4909 19.005 10 18.4 10C17.795 10 17.3 10.4909 17.3 11.0909V12.1818H16.2C14.99 12.1818 14 13.1636 14 14.3636V31.8182C14 33.0182 14.99 34 16.2 34H33.8C35.01 34 36 33.0182 36 31.8182V14.3636C36 13.1636 35.01 12.1818 33.8 12.1818ZM32.7 31.8182H17.3C16.695 31.8182 16.2 31.3273 16.2 30.7273V17.6364H33.8V30.7273C33.8 31.3273 33.305 31.8182 32.7 31.8182Z" fill="black"/>
<path d="M24.4735 21.2606C24.466 21.2702 24.463 21.283 24.4555 21.2926L19.2194 27.464C18.9269 27.8112 18.9269 28.3744 19.2194 28.7216C19.2224 28.7248 19.2254 28.7264 19.2284 28.728C19.2934 28.8121 19.3749 28.88 19.4672 28.9269C19.5594 28.9739 19.6601 28.9989 19.7623 29H30.2361C30.3402 28.9982 30.4426 28.9721 30.5362 28.9234C30.6297 28.8747 30.7121 28.8048 30.7776 28.7184L30.7806 28.7216C30.9221 28.5469 31 28.3237 31 28.0928C31 27.8619 30.9221 27.6387 30.7806 27.464L25.5324 21.2606C25.4671 21.1789 25.3859 21.1133 25.2945 21.0683C25.2031 21.0233 25.1036 21 25.003 21C24.9023 21 24.8028 21.0233 24.7114 21.0683C24.62 21.1133 24.5388 21.1789 24.4735 21.2606Z" fill="black"/>
</g>
<defs>
<clipPath id="clip0_4334_6178">
<rect width="49" height="49" fill="white"/>
</clipPath>
</defs>
</svg>
