<svg width="49" height="49" viewBox="0 0 49 49" fill="none" xmlns="http://www.w3.org/2000/svg">
<g clip-path="url(#clip0_4334_6181)">
<path d="M33.8 14.1818H32.7V13.0909C32.7 12.4909 32.205 12 31.6 12C30.995 12 30.5 12.4909 30.5 13.0909V14.1818H19.5V13.0909C19.5 12.4909 19.005 12 18.4 12C17.795 12 17.3 12.4909 17.3 13.0909V14.1818H16.2C14.99 14.1818 14 15.1636 14 16.3636V33.8182C14 35.0182 14.99 36 16.2 36H33.8C35.01 36 36 35.0182 36 33.8182V16.3636C36 15.1636 35.01 14.1818 33.8 14.1818ZM32.7 33.8182H17.3C16.695 33.8182 16.2 33.3273 16.2 32.7273V19.6364H33.8V32.7273C33.8 33.3273 33.305 33.8182 32.7 33.8182Z" fill="url(#paint0_linear_4334_6181)"/>
<path d="M25.5265 31.7394C25.534 31.7298 25.537 31.717 25.5445 31.7074L30.7806 25.536C31.0731 25.1888 31.0731 24.6256 30.7806 24.2784C30.7776 24.2752 30.7746 24.2736 30.7716 24.272C30.7066 24.1879 30.6251 24.12 30.5328 24.0731C30.4406 24.0261 30.3399 24.0011 30.2377 24H19.7639C19.6598 24.0018 19.5574 24.0279 19.4638 24.0766C19.3703 24.1253 19.2879 24.1952 19.2224 24.2816L19.2194 24.2784C19.0779 24.4531 19 24.6763 19 24.9072C19 25.1381 19.0779 25.3613 19.2194 25.536L24.4676 31.7394C24.5329 31.8211 24.6141 31.8867 24.7055 31.9317C24.7969 31.9767 24.8964 32 24.997 32C25.0977 32 25.1972 31.9767 25.2886 31.9317C25.38 31.8867 25.4612 31.8211 25.5265 31.7394Z" fill="url(#paint1_linear_4334_6181)"/>
</g>
<defs>
<linearGradient id="paint0_linear_4334_6181" x1="36" y1="12" x2="12.0906" y2="33.917" gradientUnits="userSpaceOnUse">
<stop offset="0.0677083" stop-color="#000000"/>
<stop offset="0.510417" stop-color="#000000"/>
<stop offset="0.90625" stop-color="#000000"/>
</linearGradient>
<linearGradient id="paint1_linear_4334_6181" x1="31" y1="24" x2="23.6154" y2="35.0769" gradientUnits="userSpaceOnUse">
<stop offset="0.0677083" stop-color="#000000"/>
<stop offset="0.510417" stop-color="#000000"/>
<stop offset="0.90625" stop-color="#000000"/>
</linearGradient>
<clipPath id="clip0_4334_6181">
<rect width="49" height="49" fill="white"/>
</clipPath>
</defs>
</svg>
