<svg width="49" height="49" viewBox="0 0 49 49" fill="none" xmlns="http://www.w3.org/2000/svg">
<g clip-path="url(#clip0_4334_6186)">
<g clip-path="url(#clip1_4334_6186)">
<path d="M25 35.3878C31.2816 35.3878 36.3878 30.2817 36.3878 24.0001C36.3878 17.7184 31.2816 12.6123 25 12.6123C18.7184 12.6123 13.6122 17.7184 13.6122 24.0001C13.6122 30.2817 18.7184 35.3878 25 35.3878ZM25 13.5797C30.7429 13.5797 35.4204 18.2572 35.4204 24.0001C35.4204 29.7429 30.7429 34.4205 25 34.4205C19.2571 34.4205 14.5796 29.7429 14.5796 24.0001C14.5796 18.2572 19.2571 13.5797 25 13.5797Z" fill="black"/>
<path d="M17.7388 26.8406C17.3592 25.9223 17.151 24.9182 17.151 23.8529C17.151 19.5182 20.6653 16.0039 25 16.0039C29.3347 16.0039 32.849 19.5182 32.849 23.8529C32.849 24.9059 32.6408 25.9223 32.2612 26.8406H17.7388Z" fill="black"/>
<path d="M21.498 28.8247H28.6122V31.2614H21.498V28.8247Z" fill="black"/>
<path d="M17.5429 26.841C17.151 25.8982 16.9429 24.8696 16.9429 23.7798C16.9429 19.3349 20.5551 15.7227 25 15.7227C29.4449 15.7227 33.0572 19.3349 33.0572 23.7798C33.0572 24.8573 32.8368 25.8982 32.4572 26.841H17.5429Z" fill="black"/>
<path d="M30.2408 27.9671C30.3755 27.9671 30.5102 27.9059 30.5959 27.7835L30.6327 27.7345C30.7674 27.5386 30.7184 27.2692 30.5225 27.1345C30.3265 26.9998 30.0571 27.0488 29.9225 27.2447L29.898 27.2814C29.7633 27.4774 29.8122 27.7467 30.0082 27.8814C30.0694 27.9427 30.1551 27.9671 30.2408 27.9671ZM31.3674 24.759C31.5878 24.759 31.7837 24.5876 31.7959 24.3549C31.7959 24.3182 31.7959 24.2692 31.8082 24.2325C31.8204 23.9876 31.6367 23.7916 31.4041 23.7794C31.1592 23.7671 30.9633 23.9508 30.951 24.1835C30.951 24.2202 30.951 24.2569 30.9388 24.2937C30.9265 24.5386 31.098 24.7345 31.3429 24.759C31.3551 24.759 31.3674 24.759 31.3674 24.759ZM18.449 24.5876C18.4612 24.5876 18.4612 24.5876 18.4735 24.5876C18.7184 24.5753 18.902 24.3794 18.8898 24.1345C18.8898 24.0978 18.8898 24.061 18.8898 24.0243C18.8776 23.7916 18.6939 23.608 18.4612 23.608H18.449C18.2041 23.6202 18.0204 23.8161 18.0327 24.0488C18.0327 24.0855 18.0327 24.1345 18.0327 24.1712C18.0204 24.4039 18.2163 24.5876 18.449 24.5876ZM30.6939 21.3671C30.7551 21.3671 30.8286 21.3549 30.8898 21.3182C31.098 21.208 31.1837 20.9508 31.0857 20.7304C31.0735 20.6937 31.049 20.6569 31.0245 20.6202C30.9143 20.412 30.6449 20.3263 30.4367 20.4365C30.2286 20.5467 30.1429 20.8161 30.2531 21.0243C30.2653 21.061 30.2898 21.0855 30.302 21.1222C30.3878 21.2814 30.5347 21.3671 30.6939 21.3671ZM19.2204 21.2202C19.3796 21.2202 19.5265 21.1345 19.6 20.9876C19.6122 20.9508 19.6367 20.9263 19.649 20.9018C19.7714 20.6937 19.698 20.4243 19.4898 20.3141C19.2816 20.1916 19.0122 20.2651 18.902 20.4733C18.8775 20.51 18.8653 20.5467 18.8408 20.5835C18.7306 20.7916 18.8041 21.061 19.0122 21.1712C19.0735 21.1957 19.1469 21.2202 19.2204 21.2202ZM28.3673 18.8202C28.5143 18.8202 28.649 18.7467 28.7347 18.612C28.8571 18.4039 28.8082 18.1467 28.6 18.012C28.5633 17.9876 28.5265 17.9631 28.502 17.9508C28.2939 17.8284 28.0245 17.8896 27.902 18.0978C27.7796 18.3059 27.8408 18.5753 28.049 18.6978C28.0735 18.71 28.1102 18.7345 28.1347 18.7467C28.2082 18.7957 28.2816 18.8202 28.3673 18.8202ZM21.6082 18.7222C21.6816 18.7222 21.7551 18.6978 21.8286 18.661C21.8531 18.6488 21.8898 18.6243 21.9143 18.612C22.1224 18.4896 22.1959 18.2325 22.0735 18.0243C21.951 17.8161 21.6939 17.7427 21.4857 17.8651C21.449 17.8896 21.4122 17.9018 21.3755 17.9263C21.1673 18.0488 21.1061 18.3182 21.2286 18.5263C21.3143 18.6488 21.4612 18.7222 21.6082 18.7222ZM25.0612 17.8284C25.2939 17.8284 25.4898 17.6447 25.4898 17.3998C25.4898 17.1549 25.3061 16.959 25.0612 16.959C25.0245 16.959 24.9755 16.959 24.9388 16.959C24.6939 16.959 24.5102 17.1549 24.5102 17.3876C24.5102 17.6325 24.7061 17.8161 24.9388 17.8284C24.9755 17.8161 25.0122 17.8161 25.0612 17.8284C25.049 17.8284 25.0612 17.8284 25.0612 17.8284ZM19.4898 27.8325C19.5755 27.8325 19.649 27.808 19.7224 27.759C19.9184 27.6243 19.9796 27.3549 19.8449 27.159L19.8204 27.11C19.6857 26.9141 19.4163 26.8529 19.2204 26.9753C19.0245 27.11 18.9633 27.3794 19.0857 27.5753L19.1224 27.6243C19.2082 27.759 19.3551 27.8325 19.4898 27.8325ZM24.1796 23.2651C24.1796 23.2651 24.1918 23.2529 24.1796 23.2651C24.2286 23.2039 27.2653 20.0569 27.2653 20.0569L26.0408 24.2814C26.0163 24.3549 25.9796 24.4406 25.9429 24.5141C25.6367 25.0284 24.9755 25.212 24.4612 24.9059C23.9469 24.5998 23.7633 23.9386 24.0694 23.4243C24.1061 23.3631 24.1429 23.3141 24.1796 23.2651ZM24.8286 24.2692C25 24.3671 25.2082 24.3059 25.3061 24.1467C25.4041 23.9753 25.3429 23.7671 25.1837 23.6692C25.0122 23.5712 24.8041 23.6325 24.7061 23.7916C24.6082 23.9631 24.6694 24.1712 24.8286 24.2692Z" fill="#FFFBFB"/>
</g>
</g>
<defs>
<clipPath id="clip0_4334_6186">
<rect width="49" height="49" fill="white"/>
</clipPath>
<clipPath id="clip1_4334_6186">
<rect width="24" height="24" fill="white" transform="matrix(-1 0 0 1 37 12)"/>
</clipPath>
</defs>
</svg>
