<svg width="49" height="49" viewBox="0 0 49 49" fill="none" xmlns="http://www.w3.org/2000/svg">
<g clip-path="url(#clip0_4334_6196)">
<g clip-path="url(#clip1_4334_6196)">
<path d="M25 35.3878C18.7184 35.3878 13.6122 30.2817 13.6122 24.0001C13.6122 17.7184 18.7184 12.6123 25 12.6123C31.2816 12.6123 36.3878 17.7184 36.3878 24.0001C36.3878 30.2817 31.2816 35.3878 25 35.3878ZM25 13.5797C19.2571 13.5797 14.5796 18.2572 14.5796 24.0001C14.5796 29.7429 19.2571 34.4205 25 34.4205C30.7429 34.4205 35.4204 29.7429 35.4204 24.0001C35.4204 18.2572 30.7429 13.5797 25 13.5797Z" fill="black"/>
<path d="M32.2612 26.8406C32.6408 25.9223 32.849 24.9182 32.849 23.8529C32.849 19.5182 29.3347 16.0039 25 16.0039C20.6653 16.0039 17.151 19.5182 17.151 23.8529C17.151 24.9059 17.3592 25.9223 17.7388 26.8406H32.2612Z" fill="black"/>
<path d="M28.502 28.8247H21.3878V31.2614H28.502V28.8247Z" fill="black"/>
<path d="M32.4571 26.841C32.849 25.8982 33.0571 24.8696 33.0571 23.7798C33.0571 19.3349 29.4449 15.7227 25 15.7227C20.5551 15.7227 16.9428 19.3349 16.9428 23.7798C16.9428 24.8573 17.1632 25.8982 17.5428 26.841H32.4571Z" fill="black"/>
<path d="M19.7592 27.9671C19.6245 27.9671 19.4898 27.9059 19.4041 27.7835L19.3673 27.7345C19.2326 27.5386 19.2816 27.2692 19.4775 27.1345C19.6735 26.9998 19.9429 27.0488 20.0775 27.2447L20.102 27.2814C20.2367 27.4774 20.1878 27.7467 19.9918 27.8814C19.9306 27.9427 19.8449 27.9671 19.7592 27.9671ZM18.6326 24.759C18.4122 24.759 18.2163 24.5876 18.2041 24.3549C18.2041 24.3182 18.2041 24.2692 18.1918 24.2325C18.1796 23.9876 18.3633 23.7916 18.5959 23.7794C18.8408 23.7671 19.0367 23.9508 19.049 24.1835C19.049 24.2202 19.049 24.2569 19.0612 24.2937C19.0735 24.5386 18.902 24.7345 18.6571 24.759C18.6449 24.759 18.6326 24.759 18.6326 24.759ZM31.551 24.5876C31.5388 24.5876 31.5388 24.5876 31.5265 24.5876C31.2816 24.5753 31.098 24.3794 31.1102 24.1345C31.1102 24.0978 31.1102 24.061 31.1102 24.0243C31.1224 23.7916 31.3061 23.608 31.5388 23.608H31.551C31.7959 23.6202 31.9796 23.8161 31.9673 24.0488C31.9673 24.0855 31.9673 24.1345 31.9673 24.1712C31.9796 24.4039 31.7837 24.5876 31.551 24.5876ZM19.3061 21.3671C19.2449 21.3671 19.1714 21.3549 19.1102 21.3182C18.902 21.208 18.8163 20.9508 18.9143 20.7304C18.9265 20.6937 18.951 20.6569 18.9755 20.6202C19.0857 20.412 19.3551 20.3263 19.5633 20.4365C19.7714 20.5467 19.8571 20.8161 19.7469 21.0243C19.7347 21.061 19.7102 21.0855 19.698 21.1222C19.6122 21.2814 19.4653 21.3671 19.3061 21.3671ZM30.7796 21.2202C30.6204 21.2202 30.4735 21.1345 30.4 20.9876C30.3878 20.9508 30.3633 20.9263 30.351 20.9018C30.2286 20.6937 30.302 20.4243 30.5102 20.3141C30.7184 20.1916 30.9878 20.2651 31.098 20.4733C31.1225 20.51 31.1347 20.5467 31.1592 20.5835C31.2694 20.7916 31.1959 21.061 30.9878 21.1712C30.9265 21.1957 30.8531 21.2202 30.7796 21.2202ZM21.6327 18.8202C21.4857 18.8202 21.351 18.7467 21.2653 18.612C21.1429 18.4039 21.1918 18.1467 21.4 18.012C21.4367 17.9876 21.4735 17.9631 21.498 17.9508C21.7061 17.8284 21.9755 17.8896 22.098 18.0978C22.2204 18.3059 22.1592 18.5753 21.951 18.6978C21.9265 18.71 21.8898 18.7345 21.8653 18.7467C21.7918 18.7957 21.7184 18.8202 21.6327 18.8202ZM28.3918 18.7222C28.3184 18.7222 28.2449 18.6978 28.1714 18.661C28.1469 18.6488 28.1102 18.6243 28.0857 18.612C27.8776 18.4896 27.8041 18.2325 27.9265 18.0243C28.049 17.8161 28.3061 17.7427 28.5143 17.8651C28.551 17.8896 28.5878 17.9018 28.6245 17.9263C28.8327 18.0488 28.8939 18.3182 28.7714 18.5263C28.6857 18.6488 28.5388 18.7222 28.3918 18.7222ZM24.9388 17.8284C24.7061 17.8284 24.5102 17.6447 24.5102 17.3998C24.5102 17.1549 24.6939 16.959 24.9388 16.959C24.9755 16.959 25.0245 16.959 25.0612 16.959C25.3061 16.959 25.4898 17.1549 25.4898 17.3876C25.4898 17.6325 25.2939 17.8161 25.0612 17.8284C25.0245 17.8161 24.9878 17.8161 24.9388 17.8284C24.951 17.8284 24.9388 17.8284 24.9388 17.8284ZM30.5102 27.8325C30.4245 27.8325 30.351 27.808 30.2776 27.759C30.0816 27.6243 30.0204 27.3549 30.1551 27.159L30.1796 27.11C30.3143 26.9141 30.5837 26.8529 30.7796 26.9753C30.9755 27.11 31.0367 27.3794 30.9143 27.5753L30.8776 27.6243C30.7918 27.759 30.6449 27.8325 30.5102 27.8325ZM25.8204 23.2651C25.8204 23.2651 25.8082 23.2529 25.8204 23.2651C25.7714 23.2039 22.7347 20.0569 22.7347 20.0569L23.9592 24.2814C23.9837 24.3549 24.0204 24.4406 24.0571 24.5141C24.3633 25.0284 25.0245 25.212 25.5388 24.9059C26.0531 24.5998 26.2367 23.9386 25.9306 23.4243C25.8939 23.3631 25.8571 23.3141 25.8204 23.2651ZM25.1714 24.2692C25 24.3671 24.7918 24.3059 24.6939 24.1467C24.5959 23.9753 24.6571 23.7671 24.8163 23.6692C24.9878 23.5712 25.1959 23.6325 25.2939 23.7916C25.3918 23.9631 25.3306 24.1712 25.1714 24.2692Z" fill="#FFFBFB"/>
</g>
</g>
<defs>
<clipPath id="clip0_4334_6196">
<rect width="49" height="49" fill="white"/>
</clipPath>
<clipPath id="clip1_4334_6196">
<rect width="24" height="24" fill="white" transform="translate(13 12)"/>
</clipPath>
</defs>
</svg>
