<svg width="49" height="49" viewBox="0 0 49 49" fill="none" xmlns="http://www.w3.org/2000/svg">
<g clip-path="url(#clip0_4334_6204)">
<path d="M35.6359 24.2128C35.504 24.0482 35.342 23.9122 35.1592 23.8125C34.9764 23.7128 34.7764 23.6513 34.5706 23.6317C34.3649 23.6121 34.1574 23.6346 33.96 23.6981C33.7627 23.7616 33.5794 23.8647 33.4206 24.0015L26.5707 29.9014V10.6253C26.5707 10.1942 26.4052 9.78084 26.1105 9.47604C25.8159 9.17124 25.4163 9 24.9996 9C24.5829 9 24.1833 9.17124 23.8887 9.47604C23.594 9.78084 23.4285 10.1942 23.4285 10.6253V29.9014L16.5786 24.0015C16.4197 23.8649 16.2364 23.762 16.0391 23.6987C15.8418 23.6354 15.6343 23.6129 15.4286 23.6325C15.2229 23.6522 15.023 23.7135 14.8402 23.8131C14.6574 23.9126 14.4954 24.0485 14.3633 24.2128C14.2313 24.3772 14.1318 24.5668 14.0706 24.7709C14.0094 24.975 13.9877 25.1896 14.0066 25.4024C14.0256 25.6152 14.0849 25.8221 14.1811 26.0112C14.2774 26.2002 14.4087 26.3679 14.5676 26.5045L23.9941 34.631L24.2298 34.7773L24.434 34.891C24.798 35.0363 25.2012 35.0363 25.5652 34.891L25.7694 34.7773L26.0051 34.631L35.4316 26.5045C35.5907 26.368 35.7222 26.2005 35.8186 26.0114C35.915 25.8223 35.9744 25.6154 35.9934 25.4025C36.0123 25.1896 35.9905 24.9749 35.9292 24.7708C35.8678 24.5667 35.7682 24.377 35.6359 24.2128Z" fill="black"/>
</g>
<defs>
<clipPath id="clip0_4334_6204">
<rect width="49" height="49" fill="white"/>
</clipPath>
</defs>
</svg>
