<svg width="49" height="49" viewBox="0 0 49 49" fill="none" xmlns="http://www.w3.org/2000/svg">
<g clip-path="url(#clip0_4334_6189)">
<path d="M14.3641 19.7872C14.496 19.9518 14.658 20.0878 14.8408 20.1875C15.0236 20.2872 15.2236 20.3487 15.4294 20.3683C15.6351 20.3879 15.8426 20.3654 16.04 20.3019C16.2373 20.2384 16.4206 20.1353 16.5794 19.9985L23.4293 14.0986V33.3747C23.4293 33.8058 23.5948 34.2192 23.8895 34.524C24.1841 34.8288 24.5837 35 25.0004 35C25.4171 35 25.8167 34.8288 26.1113 34.524C26.406 34.2192 26.5715 33.8058 26.5715 33.3747V14.0986L33.4214 19.9985C33.5803 20.1351 33.7636 20.238 33.9609 20.3013C34.1582 20.3646 34.3657 20.3871 34.5714 20.3675C34.7771 20.3478 34.977 20.2865 35.1598 20.1869C35.3426 20.0874 35.5046 19.9515 35.6367 19.7872C35.7687 19.6228 35.8682 19.4332 35.9294 19.2291C35.9906 19.025 36.0123 18.8104 35.9934 18.5976C35.9744 18.3848 35.9151 18.1779 35.8189 17.9888C35.7226 17.7998 35.5913 17.6321 35.4324 17.4955L26.0059 9.36902L25.7702 9.22274L25.566 9.10897C25.202 8.96368 24.7988 8.96368 24.4348 9.10897L24.2306 9.22274L23.9949 9.36902L14.5684 17.4955C14.4093 17.632 14.2778 17.7995 14.1814 17.9886C14.085 18.1777 14.0256 18.3846 14.0066 18.5975C13.9877 18.8104 14.0095 19.0251 14.0708 19.2292C14.1322 19.4333 14.2318 19.623 14.3641 19.7872Z" fill="black"/>
</g>
<defs>
<clipPath id="clip0_4334_6189">
<rect width="49" height="49" fill="white"/>
</clipPath>
</defs>
</svg>
