<svg width="49" height="49" viewBox="0 0 49 49" fill="none" xmlns="http://www.w3.org/2000/svg">
<g clip-path="url(#clip0_4334_6199)">
<path d="M25 13C22.8244 13 20.6977 13.6451 18.8887 14.8538C17.0798 16.0625 15.6699 17.7805 14.8373 19.7905C14.0048 21.8005 13.7869 24.0122 14.2114 26.146C14.6358 28.2798 15.6835 30.2398 17.2218 31.7782C18.7602 33.3165 20.7202 34.3642 22.854 34.7886C24.9878 35.2131 27.1995 34.9952 29.2095 34.1627C31.2195 33.3301 32.9375 31.9202 34.1462 30.1113C35.3549 28.3023 36 26.1756 36 24C35.9967 21.0836 34.8367 18.2877 32.7745 16.2255C30.7123 14.1633 27.9164 13.0033 25 13ZM25 32.8C23.2595 32.8 21.5581 32.2839 20.111 31.3169C18.6638 30.35 17.5359 28.9756 16.8699 27.3676C16.2038 25.7596 16.0295 23.9902 16.3691 22.2832C16.7086 20.5762 17.5468 19.0082 18.7775 17.7775C20.0082 16.5468 21.5762 15.7086 23.2832 15.3691C24.9902 15.0295 26.7596 15.2038 28.3676 15.8699C29.9756 16.5359 31.35 17.6638 32.3169 19.111C33.2839 20.5581 33.8 22.2595 33.8 24C33.7973 26.3331 32.8693 28.5698 31.2196 30.2196C29.5698 31.8693 27.3331 32.7973 25 32.8ZM26.1 23.7239V18.5C26.1 18.2083 25.9841 17.9285 25.7778 17.7222C25.5715 17.5159 25.2917 17.4 25 17.4C24.7083 17.4 24.4285 17.5159 24.2222 17.7222C24.0159 17.9285 23.9 18.2083 23.9 18.5V24C23.9002 24.1812 23.9448 24.3595 24.03 24.5194L25.68 27.5981C25.8177 27.8554 26.052 28.0474 26.3314 28.1319C26.6107 28.2164 26.9121 28.1865 27.1694 28.0487C27.4267 27.911 27.6187 27.6767 27.7032 27.3974C27.7877 27.118 27.7578 26.8166 27.62 26.5593L26.1 23.7239Z" fill="black"/>
</g>
<defs>
<clipPath id="clip0_4334_6199">
<rect width="49" height="49" fill="white"/>
</clipPath>
</defs>
</svg>
