<svg width="30" height="30" viewBox="0 0 30 30" fill="none" xmlns="http://www.w3.org/2000/svg">
<g clip-path="url(#clip0_6080_10464)">
<path d="M15 0C6.72938 0 0 6.72938 0 15C0 23.2706 6.72938 30 15 30C23.2706 30 30 23.2706 30 15C30 6.72938 23.2706 0 15 0ZM15 26.25C8.79562 26.25 3.75 21.2044 3.75 15C3.75 8.79562 8.79562 3.75 15 3.75C21.2044 3.75 26.25 8.79562 26.25 15C26.25 21.2044 21.2044 26.25 15 26.25Z" fill="white"/>
<path d="M11.3906 12.1484C11.3906 12.6484 11.4844 13.1068 11.6719 13.5234C11.8646 13.9349 12.1302 14.2786 12.4688 14.5547C12.8073 14.8255 13.1979 15 13.6406 15.0781L13.6328 14.6094C12.6276 15.0312 11.8646 15.6094 11.3438 16.3438C10.8229 17.0729 10.5625 17.8542 10.5625 18.6875C10.5625 19.5 10.7656 20.2188 11.1719 20.8438C11.5781 21.474 12.1536 21.9661 12.8984 22.3203C13.6432 22.6797 14.5182 22.8594 15.5234 22.8594C15.7786 22.8594 16.0807 22.8151 16.4297 22.7266C16.7786 22.6432 17.1458 22.5312 17.5312 22.3906C17.9219 22.25 18.3021 22.0964 18.6719 21.9297C19.0469 21.763 19.3802 21.599 19.6719 21.4375V19.8828C19.3646 19.9661 19.0078 20.0417 18.6016 20.1094C18.1953 20.1771 17.776 20.2292 17.3438 20.2656C16.9167 20.3021 16.5104 20.3203 16.125 20.3203C15.2344 20.3203 14.4714 20.2422 13.8359 20.0859C13.2005 19.9297 12.7135 19.7031 12.375 19.4062C12.0365 19.1146 11.8672 18.7708 11.8672 18.375C11.8672 17.7396 12.2422 17.2083 12.9922 16.7812C13.7474 16.3542 14.8958 15.9688 16.4375 15.625L18.0234 15.2578L18.2734 13.0312L15.7266 13.5469C15.3516 13.6146 14.9818 13.6432 14.6172 13.6328C14.2578 13.6224 13.9323 13.5729 13.6406 13.4844C13.349 13.3906 13.1172 13.2604 12.9453 13.0938C12.7734 12.9219 12.6875 12.7161 12.6875 12.4766C12.6875 12.2474 12.7812 12.0365 12.9688 11.8438C13.1615 11.6458 13.4297 11.4896 13.7734 11.375C14.1224 11.2552 14.5312 11.1953 15 11.1953C15.3802 11.1953 15.7578 11.2396 16.1328 11.3281C16.513 11.4115 16.849 11.513 17.1406 11.6328L17.1875 10.2812C16.8854 9.77604 16.5234 9.41406 16.1016 9.19531C15.6797 8.97656 15.2318 8.86719 14.7578 8.86719C14.1693 8.86719 13.6198 9.00521 13.1094 9.28125C12.599 9.55208 12.1849 9.9349 11.8672 10.4297C11.5495 10.9193 11.3906 11.4922 11.3906 12.1484Z" fill="white"/>
</g>
<defs>
<clipPath id="clip0_6080_10464">
<rect width="30" height="30" fill="white"/>
</clipPath>
</defs>
</svg>
