<svg width="30" height="30" viewBox="0 0 30 30" fill="none" xmlns="http://www.w3.org/2000/svg">
<g clip-path="url(#clip0_6074_10425)">
<path d="M15 30C23.2706 30 30 23.2706 30 15C30 6.72938 23.2706 0 15 0C6.72938 0 0 6.72938 0 15C0 23.2706 6.72938 30 15 30ZM15 3.75C21.2044 3.75 26.25 8.79562 26.25 15C26.25 21.2044 21.2044 26.25 15 26.25C8.79562 26.25 3.75 21.2044 3.75 15C3.75 8.79562 8.79562 3.75 15 3.75Z" fill="white"/>
<path d="M15.9375 20.625L22.5 15L15.9375 9.375L15.9375 13.125L7.5 13.125L7.5 16.875H15.9375V20.625Z" fill="white"/>
</g>
<defs>
<clipPath id="clip0_6074_10425">
<rect width="30" height="30" fill="white" transform="translate(30 30) rotate(-180)"/>
</clipPath>
</defs>
</svg>
