<svg width="30" height="30" viewBox="0 0 30 30" fill="none" xmlns="http://www.w3.org/2000/svg">
<path d="M22.5 13.125V16.875C22.5 17.0443 22.4382 17.1908 22.3145 17.3145C22.1908 17.4382 22.0443 17.5 21.875 17.5H15V21.25C15 21.4323 14.9414 21.582 14.8242 21.6992C14.707 21.8164 14.5573 21.875 14.375 21.875C14.2188 21.875 14.0625 21.8099 13.9062 21.6797L7.67578 15.4492C7.55859 15.332 7.5 15.1823 7.5 15C7.5 14.8177 7.55859 14.668 7.67578 14.5508L13.9258 8.30078C14.043 8.18359 14.1927 8.125 14.375 8.125C14.5443 8.125 14.6908 8.18685 14.8145 8.31055C14.9382 8.43424 15 8.58073 15 8.75V12.5H21.875C22.0443 12.5 22.1908 12.5618 22.3145 12.6855C22.4382 12.8092 22.5 12.9557 22.5 13.125ZM25.625 15C25.625 13.0729 25.1497 11.2956 24.1992 9.66797C23.2487 8.04036 21.9596 6.7513 20.332 5.80078C18.7044 4.85026 16.9271 4.375 15 4.375C13.0729 4.375 11.2956 4.85026 9.66797 5.80078C8.04036 6.7513 6.7513 8.04036 5.80078 9.66797C4.85026 11.2956 4.375 13.0729 4.375 15C4.375 16.9271 4.85026 18.7044 5.80078 20.332C6.7513 21.9596 8.04036 23.2487 9.66797 24.1992C11.2956 25.1497 13.0729 25.625 15 25.625C16.9271 25.625 18.7044 25.1497 20.332 24.1992C21.9596 23.2487 23.2487 21.9596 24.1992 20.332C25.1497 18.7044 25.625 16.9271 25.625 15ZM30 15C30 17.7214 29.3294 20.2311 27.9883 22.5293C26.6471 24.8275 24.8275 26.6471 22.5293 27.9883C20.2311 29.3294 17.7214 30 15 30C12.2786 30 9.76888 29.3294 7.4707 27.9883C5.17253 26.6471 3.35286 24.8275 2.01172 22.5293C0.670573 20.2311 0 17.7214 0 15C0 12.2786 0.670573 9.76888 2.01172 7.4707C3.35286 5.17253 5.17253 3.35286 7.4707 2.01172C9.76888 0.670573 12.2786 0 15 0C17.7214 0 20.2311 0.670573 22.5293 2.01172C24.8275 3.35286 26.6471 5.17253 27.9883 7.4707C29.3294 9.76888 30 12.2786 30 15Z" fill="white"/>
</svg>
