<svg width="30" height="30" viewBox="0 0 30 30" fill="none" xmlns="http://www.w3.org/2000/svg">
<g clip-path="url(#clip0_6077_10435)">
<path d="M15 0C6.72938 0 0 6.72938 0 15C0 23.2706 6.72938 30 15 30C23.2706 30 30 23.2706 30 15C30 6.72938 23.2706 0 15 0ZM15 26.25C8.79562 26.25 3.75 21.2044 3.75 15C3.75 8.79562 8.79562 3.75 15 3.75C21.2044 3.75 26.25 8.79562 26.25 15C26.25 21.2044 21.2044 26.25 15 26.25Z" fill="white"/>
<path d="M14.0625 9.375L7.5 15L14.0625 20.625V16.875H22.5V13.125H14.0625V9.375Z" fill="white"/>
</g>
<defs>
<clipPath id="clip0_6077_10435">
<rect width="30" height="30" fill="white"/>
</clipPath>
</defs>
</svg>
