<svg width="30" height="30" viewBox="0 0 30 30" fill="none" xmlns="http://www.w3.org/2000/svg">
<g clip-path="url(#clip0_6074_10424)">
<path d="M15 0C6.72938 0 0 6.72938 0 15C0 23.2706 6.72938 30 15 30C23.2706 30 30 23.2706 30 15C30 6.72938 23.2706 0 15 0ZM15 26.25C8.79562 26.25 3.75 21.2044 3.75 15C3.75 8.79562 8.79562 3.75 15 3.75C21.2044 3.75 26.25 8.79562 26.25 15C26.25 21.2044 21.2044 26.25 15 26.25Z" fill="white"/>
<path d="M11.8418 20H18.377V18.2979H13.9062V15.8027H18.124V14.2168H13.9062V11.8379H18.377V10.1357H11.8418V20Z" fill="white"/>
</g>
<defs>
<clipPath id="clip0_6074_10424">
<rect width="30" height="30" fill="white"/>
</clipPath>
</defs>
</svg>
