<svg width="32" height="25" viewBox="0 0 32 25" fill="none" xmlns="http://www.w3.org/2000/svg">
<path d="M31.1058 13.0921C31.262 12.7119 31.262 12.2855 31.1058 11.9053C31.0315 11.7136 30.92 11.5385 30.7778 11.39L19.8471 0.459234C19.7015 0.313639 19.5287 0.198147 19.3384 0.119352C19.1482 0.040556 18.9443 0 18.7384 0C18.3226 0 17.9238 0.165192 17.6297 0.459234C17.4841 0.60483 17.3686 0.777676 17.2898 0.967906C17.211 1.15813 17.1705 1.36202 17.1705 1.56792C17.1705 1.98376 17.3357 2.38257 17.6297 2.67661L25.9059 10.9371H1.56153C1.14739 10.9371 0.750207 11.1017 0.457363 11.3945C0.164518 11.6873 0 12.0845 0 12.4987C0 12.9128 0.164518 13.31 0.457363 13.6028C0.750207 13.8957 1.14739 14.0602 1.56153 14.0602H25.9059L17.6297 22.3207C17.4834 22.4659 17.3672 22.6386 17.2879 22.8289C17.2086 23.0192 17.1678 23.2233 17.1678 23.4294C17.1678 23.6356 17.2086 23.8397 17.2879 24.0299C17.3672 24.2202 17.4834 24.3929 17.6297 24.5381C17.7749 24.6845 17.9476 24.8006 18.1379 24.8799C18.3282 24.9592 18.5323 25 18.7384 25C18.9446 25 19.1487 24.9592 19.3389 24.8799C19.5292 24.8006 19.7019 24.6845 19.8471 24.5381L30.7778 13.6074C30.92 13.4588 31.0315 13.2837 31.1058 13.0921Z" fill="url(#paint0_linear_1127_7295)"/>
<defs>
<linearGradient id="paint0_linear_1127_7295" x1="31.2229" y1="0" x2="6.82803" y2="30.4672" gradientUnits="userSpaceOnUse">
<stop offset="0.0677083" stop-color="#00B5DD"/>
<stop offset="0.510417" stop-color="#0091E2"/>
<stop offset="0.90625" stop-color="#0084E4"/>
</linearGradient>
</defs>
</svg>
