<svg width="14" height="14" viewBox="0 0 14 14" fill="none" xmlns="http://www.w3.org/2000/svg">
<path d="M4.82759 1.44833V2.89661H9.17242V1.44833C9.17242 1.3203 9.12155 1.19751 9.03102 1.10697C8.94048 1.01644 8.81769 0.965576 8.68966 0.965576H5.31035C5.18231 0.965576 5.05952 1.01644 4.96898 1.10697C4.87845 1.19751 4.82759 1.3203 4.82759 1.44833Z" fill="url(#paint0_linear_1253_5693)"/>
<path d="M1.93103 2.41391V2.89667H12.069V2.41391C12.069 2.28588 12.0181 2.16308 11.9276 2.07255C11.837 1.98201 11.7142 1.93115 11.5862 1.93115H2.41379C2.28576 1.93115 2.16297 1.98201 2.07243 2.07255C1.9819 2.16308 1.93103 2.28588 1.93103 2.41391ZM2.89655 3.86219L3.77131 12.17C3.79624 12.4073 3.90816 12.6269 4.08546 12.7866C4.26277 12.9462 4.49292 13.0346 4.73152 13.0346H9.26897C9.50756 13.0346 9.73771 12.9462 9.91502 12.7866C10.0923 12.6269 10.2042 12.4073 10.2292 12.17L11.1034 3.86219H2.89655ZM5.10614 12.0676C5.04292 12.0726 4.97934 12.065 4.91906 12.0454C4.85877 12.0257 4.80294 11.9943 4.75479 11.9531C4.70663 11.9118 4.66708 11.8615 4.6384 11.8049C4.60972 11.7484 4.59248 11.6867 4.58765 11.6235L4.1049 5.34764C4.09504 5.21998 4.1363 5.09365 4.21959 4.99641C4.30288 4.89918 4.42138 4.83902 4.54903 4.82915C4.61238 4.82355 4.67621 4.83066 4.73678 4.85006C4.79734 4.86946 4.85342 4.90077 4.90171 4.94214C4.95001 4.98352 4.98956 5.03412 5.01803 5.09099C5.0465 5.14785 5.06333 5.20983 5.06752 5.27329L5.55028 11.5492C5.56013 11.6768 5.51887 11.8031 5.43558 11.9004C5.35229 11.9976 5.23379 12.0578 5.10614 12.0676ZM7.48276 11.5863C7.48276 11.7144 7.4319 11.8372 7.34136 11.9277C7.25083 12.0182 7.12804 12.0691 7 12.0691C6.87196 12.0691 6.74917 12.0182 6.65864 11.9277C6.5681 11.8372 6.51724 11.7144 6.51724 11.5863V5.31046C6.51724 5.18243 6.5681 5.05964 6.65864 4.9691C6.74917 4.87857 6.87196 4.8277 7 4.8277C7.12804 4.8277 7.25083 4.87857 7.34136 4.9691C7.4319 5.05964 7.48276 5.18243 7.48276 5.31046V11.5863ZM9.41234 11.6235C9.40746 11.6867 9.39018 11.7483 9.36148 11.8049C9.33278 11.8614 9.29323 11.9117 9.24509 11.9529C9.19694 11.9942 9.14114 12.0255 9.08088 12.0452C9.02062 12.0649 8.95707 12.0725 8.89386 12.0676C8.83066 12.0628 8.76903 12.0455 8.7125 12.0168C8.65597 11.9881 8.60565 11.9485 8.56441 11.9004C8.52317 11.8522 8.49181 11.7964 8.47214 11.7362C8.45246 11.6759 8.44484 11.6124 8.44972 11.5492L8.93248 5.27329C8.93641 5.20974 8.95306 5.14763 8.98145 5.09063C9.00984 5.03364 9.04939 4.98293 9.09774 4.94151C9.1461 4.90008 9.20228 4.8688 9.26295 4.8495C9.32363 4.8302 9.38756 4.82328 9.45096 4.82915C9.57861 4.83902 9.69712 4.89918 9.78041 4.99641C9.8637 5.09365 9.90496 5.21998 9.8951 5.34764L9.41234 11.6235Z" fill="url(#paint1_linear_1253_5693)"/>
<defs>
<linearGradient id="paint0_linear_1253_5693" x1="9.17242" y1="0.965576" x2="7.73907" y2="4.1906" gradientUnits="userSpaceOnUse">
<stop offset="0.0677083" stop-color="#00B5DD"/>
<stop offset="0.510417" stop-color="#0091E2"/>
<stop offset="0.90625" stop-color="#0084E4"/>
</linearGradient>
<linearGradient id="paint1_linear_1253_5693" x1="12.069" y1="1.93115" x2="1.0113" y2="12.0273" gradientUnits="userSpaceOnUse">
<stop offset="0.0677083" stop-color="#00B5DD"/>
<stop offset="0.510417" stop-color="#0091E2"/>
<stop offset="0.90625" stop-color="#0084E4"/>
</linearGradient>
</defs>
</svg>
