<svg width="50" height="42" viewBox="0 0 50 42" fill="none" xmlns="http://www.w3.org/2000/svg">
<path d="M9.63637 15.5C-5.67662 4.1534 9.47205 14.2508 9.34505 14.1988L8.8049 13.5C8.5673 13.3927 9.5451 18.4068 9.44979 18.1641C9.35448 17.9215 9.3577 17.6512 9.45875 17.4109C9.5598 17.1706 9.75071 16.9792 9.99078 16.8776C10.2309 16.776 8.78613 14.4053 9.029 14.5L9 14L8 15.5C8.21299 15.5894 -5.92526 6.82036 10.7723 16.1693C-3.08021 8.01918 7.72144 13.9724 7.67573 14.1988C7.63001 14.4253 9.37704 14.8538 9.19821 15C-4.74858 5.40891 -3.36998 3.94616 10.1184 13.5L9.63637 15.5ZM8 25.3689H3C2.73478 25.3689 2.48043 25.2636 2.29289 25.076C2.10536 24.8885 2 24.6341 2 24.3689C2 24.1037 2.10536 23.8493 2.29289 23.6618C2.48043 23.4743 2.73478 23.3689 3 23.3689H8C8.26522 23.3689 8.51957 23.4743 8.70711 23.6618C8.89464 23.8493 9 24.1037 9 24.3689C9 24.6341 8.89464 24.8885 8.70711 25.076C8.51957 25.2636 8.26522 25.3689 8 25.3689ZM13.272 12.6399C13.1407 12.6401 13.0106 12.6142 12.8893 12.564C12.7679 12.5137 12.6577 12.4399 12.565 12.3469L9.029 8.81192C8.93349 8.71967 8.85731 8.60933 8.8049 8.48732C8.75249 8.36532 8.7249 8.2341 8.72375 8.10132C8.72259 7.96854 8.7479 7.83686 8.79818 7.71397C8.84846 7.59107 8.92271 7.47942 9.0166 7.38552C9.1105 7.29163 9.22215 7.21738 9.34505 7.1671C9.46794 7.11682 9.59962 7.09152 9.7324 7.09267C9.86518 7.09382 9.9964 7.12141 10.1184 7.17382C10.2404 7.22623 10.3508 7.30241 10.443 7.39792L13.979 10.9329C14.1188 11.0728 14.214 11.2509 14.2526 11.4449C14.2911 11.6388 14.2713 11.8399 14.1957 12.0226C14.12 12.2053 13.9919 12.3614 13.8275 12.4713C13.663 12.5812 13.4697 12.6399 13.272 12.6399ZM26 7.36792C25.7348 7.36792 25.4804 7.26256 25.2929 7.07503C25.1054 6.88749 25 6.63314 25 6.36792V1.36792C25 1.1027 25.1054 0.84835 25.2929 0.660813C25.4804 0.473277 25.7348 0.36792 26 0.36792C26.2652 0.36792 26.5196 0.473277 26.7071 0.660813C26.8946 0.84835 27 1.1027 27 1.36792V6.36792C27 6.63314 26.8946 6.88749 26.7071 7.07503C26.5196 7.26256 26.2652 7.36792 26 7.36792ZM38.729 12.6399C38.5312 12.6399 38.3379 12.5812 38.1735 12.4713C38.0091 12.3614 37.881 12.2053 37.8053 12.0226C37.7296 11.8399 37.7098 11.6388 37.7484 11.4449C37.787 11.2509 37.8822 11.0728 38.022 10.9329L41.557 7.39792C41.6492 7.30241 41.7596 7.22623 41.8816 7.17382C42.0036 7.12141 42.1348 7.09382 42.2676 7.09267C42.4004 7.09152 42.5321 7.11682 42.6549 7.1671C42.7778 7.21738 42.8895 7.29163 42.9834 7.38552C43.0773 7.47942 43.1515 7.59107 43.2018 7.71397C43.2521 7.83686 43.2774 7.96854 43.2762 8.10132C43.2751 8.2341 43.2475 8.36532 43.1951 8.48732C43.1427 8.60933 43.0665 8.71967 42.971 8.81192L39.436 12.3469C39.3433 12.4399 39.2331 12.5137 39.1117 12.564C38.9904 12.6142 38.8603 12.6401 38.729 12.6399ZM49 25.3689H44C43.7348 25.3689 43.4804 25.2636 43.2929 25.076C43.1054 24.8885 43 24.6341 43 24.3689C43 24.1037 43.1054 23.8493 43.2929 23.6618C43.4804 23.4743 43.7348 23.3689 44 23.3689H49C49.2652 23.3689 49.5196 23.4743 49.7071 23.6618C49.8946 23.8493 50 24.1037 50 24.3689C50 24.6341 49.8946 24.8885 49.7071 25.076C49.5196 25.2636 49.2652 25.3689 49 25.3689ZM42.264 41.6319C42.1327 41.6321 42.0026 41.6062 41.8813 41.556C41.7599 41.5057 41.6497 41.4319 41.557 41.3389L38.021 37.8039C37.9282 37.711 37.8545 37.6007 37.8043 37.4794C37.7541 37.358 37.7282 37.2279 37.7283 37.0966C37.7283 36.9652 37.7543 36.8352 37.8046 36.7138C37.8549 36.5925 37.9286 36.4823 38.0215 36.3894C38.1144 36.2966 38.2247 36.2229 38.3461 36.1727C38.4674 36.1225 38.5975 36.0967 38.7289 36.0967C38.8602 36.0968 38.9902 36.1227 39.1116 36.173C39.2329 36.2233 39.3432 36.297 39.436 36.3899L42.971 39.9249C43.1108 40.0648 43.206 40.2429 43.2446 40.4369C43.2831 40.6308 43.2633 40.8319 43.1877 41.0146C43.112 41.1973 42.9839 41.3534 42.8195 41.4633C42.655 41.5732 42.4617 41.6319 42.264 41.6319ZM9.736 41.6319C9.53825 41.6319 9.34495 41.5732 9.18054 41.4633C9.01613 41.3534 8.88799 41.1973 8.81232 41.0146C8.73665 40.8319 8.71685 40.6308 8.75542 40.4369C8.79398 40.2429 8.88919 40.0648 9.029 39.9249L12.565 36.3899C12.6572 36.2944 12.7676 36.2182 12.8896 36.1658C13.0116 36.1134 13.1428 36.0858 13.2756 36.0847C13.4084 36.0835 13.5401 36.1088 13.663 36.1591C13.7859 36.2094 13.8975 36.2836 13.9914 36.3775C14.0853 36.4714 14.1595 36.5831 14.2098 36.706C14.2601 36.8289 14.2854 36.9605 14.2842 37.0933C14.2831 37.2261 14.2555 37.3573 14.2031 37.4793C14.1507 37.6013 14.0745 37.7117 13.979 37.8039L10.443 41.3389C10.3503 41.4319 10.2401 41.5057 10.1187 41.556C9.9974 41.6062 9.86733 41.6321 9.736 41.6319Z" fill="#0096E6"/>
</svg>
