<svg width="14" height="15" viewBox="0 0 14 15" fill="none" xmlns="http://www.w3.org/2000/svg">
<path d="M12.75 9H12V5.25C12 3.85761 11.4469 2.52226 10.4623 1.53769C9.47774 0.553123 8.14239 0 6.75 0C5.35761 0 4.02226 0.553123 3.03769 1.53769C2.05312 2.52226 1.5 3.85761 1.5 5.25V9H0.75C0.551088 9 0.360322 9.07902 0.21967 9.21967C0.0790176 9.36032 0 9.55109 0 9.75V12C0 12.1989 0.0790176 12.3897 0.21967 12.5303C0.360322 12.671 0.551088 12.75 0.75 12.75H4.5C4.5 13.3467 4.73705 13.919 5.15901 14.341C5.58097 14.7629 6.15326 15 6.75 15C7.34674 15 7.91903 14.7629 8.34099 14.341C8.76295 13.919 9 13.3467 9 12.75H12.75C12.9489 12.75 13.1397 12.671 13.2803 12.5303C13.421 12.3897 13.5 12.1989 13.5 12V9.75C13.5 9.55109 13.421 9.36032 13.2803 9.21967C13.1397 9.07902 12.9489 9 12.75 9ZM3 5.25C3 4.25544 3.39509 3.30161 4.09835 2.59835C4.80161 1.89509 5.75544 1.5 6.75 1.5C7.74456 1.5 8.69839 1.89509 9.40165 2.59835C10.1049 3.30161 10.5 4.25544 10.5 5.25V9H3V5.25ZM6.75 13.5C6.55109 13.5 6.36032 13.421 6.21967 13.2803C6.07902 13.1397 6 12.9489 6 12.75H7.5C7.5 12.9489 7.42098 13.1397 7.28033 13.2803C7.13968 13.421 6.94891 13.5 6.75 13.5ZM12 11.25H1.5V10.5H12V11.25Z" fill="url(#paint0_linear_1827_6193)"/>
<defs>
<linearGradient id="paint0_linear_1827_6193" x1="13.5" y1="0" x2="-1.41713" y2="13.4254" gradientUnits="userSpaceOnUse">
<stop offset="0.0677083" stop-color="#00B5DD"/>
<stop offset="0.510417" stop-color="#0091E2"/>
<stop offset="0.90625" stop-color="#0084E4"/>
</linearGradient>
</defs>
</svg>
