<svg width="12" height="12" viewBox="0 0 12 12" fill="none" xmlns="http://www.w3.org/2000/svg">
<path d="M4.8089 4.85962L4.11035 7.18908C4.05103 7.3872 4.10523 7.60217 4.25153 7.74829C4.35846 7.85522 4.5022 7.91308 4.64923 7.91308C4.70325 7.91308 4.75763 7.90539 4.81073 7.88928L7.14038 7.19091C7.22955 7.16418 7.31085 7.11584 7.37658 7.04992L11.6477 2.77881C11.7532 2.67334 11.8125 2.53015 11.8125 2.3811C11.8125 2.23206 11.7532 2.08887 11.6477 1.9834L10.0164 0.352296C9.79669 0.132568 9.44073 0.132568 9.22101 0.352296L4.95008 4.62341C4.88415 4.68933 4.83582 4.77026 4.8089 4.85962ZM5.84583 5.31848L9.61871 1.54541L10.4544 2.3811L6.68152 6.15417L5.48804 6.51196L5.84583 5.31848Z" fill="url(#paint0_linear_1253_5696)"/>
<path d="M11.25 5.4375C10.9393 5.4375 10.6875 5.68946 10.6875 6V9.75C10.6875 10.2671 10.2669 10.6875 9.75 10.6875H2.25C1.73309 10.6875 1.3125 10.2671 1.3125 9.75V2.25C1.3125 1.73291 1.73309 1.3125 2.25 1.3125H6C6.31073 1.3125 6.5625 1.06054 6.5625 0.75C6.5625 0.439455 6.31073 0.1875 6 0.1875H2.25C1.11273 0.1875 0.1875 1.11291 0.1875 2.25V9.75C0.1875 10.8871 1.11273 11.8125 2.25 11.8125H9.75C10.8873 11.8125 11.8125 10.8871 11.8125 9.75V6C11.8125 5.68946 11.5607 5.4375 11.25 5.4375Z" fill="url(#paint1_linear_1253_5696)"/>
<defs>
<linearGradient id="paint0_linear_1253_5696" x1="11.8125" y1="0.1875" x2="4.08692" y2="7.9133" gradientUnits="userSpaceOnUse">
<stop offset="0.0677083" stop-color="#00B5DD"/>
<stop offset="0.510417" stop-color="#0091E2"/>
<stop offset="0.90625" stop-color="#0084E4"/>
</linearGradient>
<linearGradient id="paint1_linear_1253_5696" x1="11.8125" y1="0.1875" x2="0.1875" y2="11.8125" gradientUnits="userSpaceOnUse">
<stop offset="0.0677083" stop-color="#00B5DD"/>
<stop offset="0.510417" stop-color="#0091E2"/>
<stop offset="0.90625" stop-color="#0084E4"/>
</linearGradient>
</defs>
</svg>
