<svg width="30" height="30" viewBox="0 0 30 30" fill="none" xmlns="http://www.w3.org/2000/svg">
<path d="M22.2325 14.5692C21.9169 14.5692 21.6141 14.6796 21.3909 14.8761C21.1677 15.0726 21.0424 15.3391 21.0424 15.6171V16.0152L19.2809 14.4644C18.659 13.9211 17.8184 13.6163 16.9423 13.6163C16.0662 13.6163 15.2256 13.9211 14.6037 14.4644L13.7706 15.1979L10.819 12.5992C10.1884 12.0707 9.35103 11.7759 8.48035 11.7759C7.60968 11.7759 6.77235 12.0707 6.14171 12.5992L4.3803 14.15V8.28198C4.3803 8.00407 4.50569 7.73754 4.72888 7.54103C4.95208 7.34451 5.2548 7.23411 5.57044 7.23411H13.9015C14.2171 7.23411 14.5198 7.12371 14.743 6.9272C14.9662 6.73069 15.0916 6.46416 15.0916 6.18625C15.0916 5.90833 14.9662 5.64181 14.743 5.44529C14.5198 5.24878 14.2171 5.13838 13.9015 5.13838H5.57044C4.6235 5.13838 3.71535 5.46958 3.04576 6.05912C2.37617 6.64866 2 7.44825 2 8.28198V20.8564C2 21.6901 2.37617 22.4897 3.04576 23.0793C3.71535 23.6688 4.6235 24 5.57044 24H19.8522C20.7992 24 21.7073 23.6688 22.3769 23.0793C23.0465 22.4897 23.4227 21.6901 23.4227 20.8564V15.6171C23.4227 15.3391 23.2973 15.0726 23.0741 14.8761C22.8509 14.6796 22.5482 14.5692 22.2325 14.5692ZM5.57044 21.9043C5.2548 21.9043 4.95208 21.7939 4.72888 21.5974C4.50569 21.4008 4.3803 21.1343 4.3803 20.8564V17.1155L7.83172 14.0767C8.00657 13.93 8.23883 13.8482 8.48035 13.8482C8.72188 13.8482 8.95414 13.93 9.12898 14.0767L12.9018 17.3984L18.0194 21.9043H5.57044ZM21.0424 20.8564C21.0406 21.057 22.5143 22.9192 22.3769 23.0793L15.4606 16.6649L16.2937 15.9314C16.379 15.8547 16.4808 15.7938 16.5932 15.7522C16.7056 15.7107 16.8263 15.6892 16.9483 15.6892C17.0702 15.6892 17.1909 15.7107 17.3033 15.7522C17.4157 15.7938 17.5175 15.8547 17.6028 15.9314L21.0424 18.9807V20.8564ZM26.648 5.44226L23.0775 2.29866C22.9643 2.20326 22.8309 2.12848 22.6848 2.0786C22.395 1.9738 22.07 1.9738 21.7803 2.0786C21.6342 2.12848 21.5007 2.20326 21.3875 2.29866L17.8171 5.44226C17.7061 5.53996 17.6181 5.65595 17.558 5.7836C17.498 5.91126 17.467 6.04807 17.467 6.18625C17.467 6.46529 17.593 6.73291 17.8171 6.93023C18.0412 7.12755 18.3451 7.2384 18.6621 7.2384C18.979 7.2384 19.283 7.12755 19.5071 6.93023L21.0424 5.568V11.4256C21.0424 11.7035 21.1677 11.97 21.3909 12.1665C21.6141 12.3631 21.9169 12.4735 22.2325 12.4735C22.5482 12.4735 22.8509 12.3631 23.0741 12.1665C23.2973 11.97 23.4227 11.7035 23.4227 11.4256V5.568L24.9579 6.93023C25.0686 7.02845 25.2002 7.1064 25.3452 7.1596C25.4903 7.2128 25.6458 7.24019 25.8029 7.24019C25.9601 7.24019 26.1156 7.2128 26.2607 7.1596C26.4057 7.1064 26.5373 7.02845 26.648 6.93023C26.7595 6.83282 26.848 6.71692 26.9085 6.58923C26.9689 6.46154 27 6.32458 27 6.18625C27 6.04791 26.9689 5.91095 26.9085 5.78326C26.848 5.65557 26.7595 5.53967 26.648 5.44226Z" fill="url(#paint0_linear_1222_7873)"/>
<defs>
<linearGradient id="paint0_linear_1222_7873" x1="27" y1="2" x2="5.17854" y2="26.7971" gradientUnits="userSpaceOnUse">
<stop offset="0.0677083" stop-color="#00B5DD"/>
<stop offset="0.510417" stop-color="#0091E2"/>
<stop offset="0.90625" stop-color="#0084E4"/>
</linearGradient>
</defs>
</svg>
