<svg width="16" height="16" viewBox="0 0 16 16" fill="none" xmlns="http://www.w3.org/2000/svg">
<path d="M14.3333 16H7.66667C7.2248 15.9995 6.80119 15.8237 6.48874 15.5113C6.17629 15.1988 6.00053 14.7752 6 14.3333V11.6667C6 11.5783 6.03512 11.4935 6.09763 11.431C6.16014 11.3685 6.24493 11.3333 6.33333 11.3333C6.42174 11.3333 6.50652 11.3685 6.56904 11.431C6.63155 11.4935 6.66667 11.5783 6.66667 11.6667V14.3333C6.66667 14.8847 7.11533 15.3333 7.66667 15.3333H14.3333C14.8847 15.3333 15.3333 14.8847 15.3333 14.3333V7.66667C15.3333 7.11533 14.8847 6.66667 14.3333 6.66667H11C10.9116 6.66667 10.8268 6.63155 10.7643 6.56904C10.7018 6.50652 10.6667 6.42174 10.6667 6.33333C10.6667 6.24493 10.7018 6.16014 10.7643 6.09763C10.8268 6.03512 10.9116 6 11 6H14.3333C15.252 6 16 6.748 16 7.66667V14.3333C16 15.252 15.252 16 14.3333 16ZM5 10H4.66667C4.57826 10 4.49348 9.96488 4.43096 9.90237C4.36845 9.83986 4.33333 9.75507 4.33333 9.66667C4.33333 9.57826 4.36845 9.49348 4.43096 9.43096C4.49348 9.36845 4.57826 9.33333 4.66667 9.33333H5C5.08841 9.33333 5.17319 9.36845 5.2357 9.43096C5.29821 9.49348 5.33333 9.57826 5.33333 9.66667C5.33333 9.75507 5.29821 9.83986 5.2357 9.90237C5.17319 9.96488 5.08841 10 5 10ZM3.31933 10H2.64533C2.55693 10 2.47214 9.96488 2.40963 9.90237C2.34712 9.83986 2.312 9.75507 2.312 9.66667C2.312 9.57826 2.34712 9.49348 2.40963 9.43096C2.47214 9.36845 2.55693 9.33333 2.64533 9.33333H3.31933C3.40774 9.33333 3.49252 9.36845 3.55504 9.43096C3.61755 9.49348 3.65267 9.57826 3.65267 9.66667C3.65267 9.75507 3.61755 9.83986 3.55504 9.90237C3.49252 9.96488 3.40774 10 3.31933 10ZM1.30267 9.94933C1.27178 9.94934 1.24105 9.94507 1.21133 9.93667C0.93994 9.8594 0.69264 9.71442 0.492667 9.51533C0.460755 9.48467 0.435268 9.44796 0.417693 9.40735C0.400118 9.36673 0.390807 9.32302 0.390302 9.27877C0.389798 9.23452 0.39811 9.19061 0.414754 9.1496C0.431398 9.1086 0.456041 9.07132 0.487246 9.03994C0.51845 9.00855 0.555591 8.9837 0.596502 8.96682C0.637413 8.94995 0.681275 8.94139 0.725529 8.94164C0.769783 8.9419 0.813544 8.95096 0.854258 8.96831C0.894972 8.98565 0.931825 9.01093 0.962667 9.04267C1.08267 9.162 1.232 9.24933 1.39333 9.29533C1.47069 9.31729 1.53751 9.36647 1.58146 9.43382C1.62541 9.50116 1.64354 9.58212 1.63249 9.66177C1.62145 9.74143 1.58198 9.8144 1.52137 9.86725C1.46076 9.9201 1.38308 9.94925 1.30267 9.94933ZM0.333333 8.37133C0.244928 8.37133 0.160143 8.33621 0.0976311 8.2737C0.035119 8.21119 0 8.12641 0 8.038V7.364C0 7.27559 0.035119 7.19081 0.0976311 7.1283C0.160143 7.06579 0.244928 7.03067 0.333333 7.03067C0.421739 7.03067 0.506523 7.06579 0.569036 7.1283C0.631548 7.19081 0.666667 7.27559 0.666667 7.364V8.038C0.666667 8.12641 0.631548 8.21119 0.569036 8.2737C0.506523 8.33621 0.421739 8.37133 0.333333 8.37133ZM0.333333 6.34933C0.244928 6.34933 0.160143 6.31421 0.0976311 6.2517C0.035119 6.18919 0 6.10441 0 6.016V5.342C0 5.25359 0.035119 5.16881 0.0976311 5.1063C0.160143 5.04379 0.244928 5.00867 0.333333 5.00867C0.421739 5.00867 0.506523 5.04379 0.569036 5.1063C0.631548 5.16881 0.666667 5.25359 0.666667 5.342V6.016C0.666667 6.10441 0.631548 6.18919 0.569036 6.2517C0.506523 6.31421 0.421739 6.34933 0.333333 6.34933ZM0.333333 4.328C0.244928 4.328 0.160143 4.29288 0.0976311 4.23037C0.035119 4.16786 0 4.08307 0 3.99467V3.32067C0 3.23226 0.035119 3.14748 0.0976311 3.08496C0.160143 3.02245 0.244928 2.98733 0.333333 2.98733C0.421739 2.98733 0.506523 3.02245 0.569036 3.08496C0.631548 3.14748 0.666667 3.23226 0.666667 3.32067V3.99467C0.666667 4.08307 0.631548 4.16786 0.569036 4.23037C0.506523 4.29288 0.421739 4.328 0.333333 4.328ZM9.66667 3.64067C9.57826 3.64067 9.49348 3.60555 9.43096 3.54304C9.36845 3.48052 9.33333 3.39574 9.33333 3.30733V2.63333C9.33333 2.54493 9.36845 2.46014 9.43096 2.39763C9.49348 2.33512 9.57826 2.3 9.66667 2.3C9.75507 2.3 9.83986 2.33512 9.90237 2.39763C9.96488 2.46014 10 2.54493 10 2.63333V3.30733C10 3.39574 9.96488 3.48052 9.90237 3.54304C9.83986 3.60555 9.75507 3.64067 9.66667 3.64067ZM0.333333 2.306C0.244928 2.306 0.160143 2.27088 0.0976311 2.20837C0.035119 2.14586 0 2.06107 0 1.97267V1.66667C0 1.51333 0.0213333 1.36067 0.0626667 1.21333C0.0737328 1.17029 0.0932955 1.12989 0.120204 1.09452C0.147112 1.05914 0.180823 1.02951 0.219354 1.00736C0.257884 0.985202 0.300455 0.970977 0.344564 0.965519C0.388672 0.96006 0.433427 0.963478 0.476195 0.97557C0.518963 0.987663 0.558881 1.00819 0.593601 1.03593C0.628321 1.06368 0.657141 1.09809 0.678367 1.13714C0.699592 1.17619 0.712795 1.21909 0.717197 1.26331C0.721599 1.30754 0.717112 1.3522 0.704 1.39467C0.679192 1.4832 0.666631 1.57472 0.666667 1.66667V1.97267C0.666667 2.06107 0.631548 2.14586 0.569036 2.20837C0.506523 2.27088 0.421739 2.306 0.333333 2.306ZM9.61267 1.624C9.54054 1.624 9.47037 1.60061 9.41267 1.55733C9.35497 1.51406 9.31286 1.45324 9.29267 1.384C9.24469 1.22188 9.15664 1.07446 9.03667 0.955333C8.9755 0.892829 8.94134 0.808788 8.94156 0.721332C8.94179 0.633875 8.97637 0.55001 9.03786 0.487819C9.09935 0.425629 9.18282 0.390096 9.27027 0.388883C9.35772 0.38767 9.44214 0.420873 9.50533 0.481333C9.706 0.68 9.854 0.927333 9.93267 1.19667C9.94728 1.24639 9.9501 1.29883 9.9409 1.34983C9.9317 1.40083 9.91074 1.44898 9.87968 1.49047C9.84862 1.53195 9.80831 1.56562 9.76196 1.5888C9.71561 1.61198 9.66449 1.62403 9.61267 1.624ZM1.292 0.72C1.21176 0.72 1.13422 0.691057 1.0736 0.638485C1.01298 0.585912 0.973364 0.513239 0.962017 0.433807C0.950669 0.354375 0.968355 0.273516 1.01183 0.206074C1.0553 0.138632 1.12164 0.0891334 1.19867 0.0666667C1.35 0.0226667 1.50733 0 1.66667 0H1.96067C2.04907 1.31734e-09 2.13386 0.035119 2.19637 0.0976311C2.25888 0.160143 2.294 0.244928 2.294 0.333333C2.294 0.421739 2.25888 0.506523 2.19637 0.569036C2.13386 0.631548 2.04907 0.666667 1.96067 0.666667H1.66667C1.57067 0.666667 1.47667 0.68 1.386 0.706667C1.35548 0.715665 1.32382 0.720157 1.292 0.72ZM8.026 0.666667H7.352C7.26359 0.666667 7.17881 0.631548 7.1163 0.569036C7.05379 0.506523 7.01867 0.421739 7.01867 0.333333C7.01867 0.244928 7.05379 0.160143 7.1163 0.0976311C7.17881 0.035119 7.26359 0 7.352 0L8.026 0C8.11441 0 8.19919 0.035119 8.2617 0.0976311C8.32421 0.160143 8.35933 0.244928 8.35933 0.333333C8.35933 0.421739 8.32421 0.506523 8.2617 0.569036C8.19919 0.631548 8.11441 0.666667 8.026 0.666667ZM6.004 0.666667H5.33067C5.24226 0.666667 5.15748 0.631548 5.09496 0.569036C5.03245 0.506523 4.99733 0.421739 4.99733 0.333333C4.99733 0.244928 5.03245 0.160143 5.09496 0.0976311C5.15748 0.035119 5.24226 0 5.33067 0L6.00467 0C6.09307 8.84055e-05 6.17782 0.0352921 6.24027 0.0978668C6.30272 0.160441 6.33776 0.245261 6.33767 0.333667C6.33758 0.422072 6.30237 0.506822 6.2398 0.569271C6.17723 0.631721 6.09241 0.666755 6.004 0.666667ZM3.98267 0.666667H3.30867C3.22026 0.666667 3.13548 0.631548 3.07296 0.569036C3.01045 0.506523 2.97533 0.421739 2.97533 0.333333C2.97533 0.244928 3.01045 0.160143 3.07296 0.0976311C3.13548 0.035119 3.22026 0 3.30867 0L3.98267 0C4.07107 0 4.15586 0.035119 4.21837 0.0976311C4.28088 0.160143 4.316 0.244928 4.316 0.333333C4.316 0.421739 4.28088 0.506523 4.21837 0.569036C4.15586 0.631548 4.07107 0.666667 3.98267 0.666667ZM9.66667 5.33333C9.57826 5.33333 9.49348 5.29821 9.43096 5.2357C9.36845 5.17319 9.33333 5.08841 9.33333 5V4.66667C9.33333 4.57826 9.36845 4.49348 9.43096 4.43096C9.49348 4.36845 9.57826 4.33333 9.66667 4.33333C9.75507 4.33333 9.83986 4.36845 9.90237 4.43096C9.96488 4.49348 10 4.57826 10 4.66667V5C10 5.08841 9.96488 5.17319 9.90237 5.2357C9.83986 5.29821 9.75507 5.33333 9.66667 5.33333Z" fill="url(#paint0_linear_1222_7882)"/>
<path d="M8.36667 11.9999H7C6.55813 11.9994 6.13452 11.8236 5.82207 11.5112C5.50963 11.1987 5.33386 10.7751 5.33333 10.3333V9.13792L5.03467 8.83926C4.838 8.64326 4.73 8.38126 4.73 8.10326C4.73 7.82526 4.838 7.56392 5.03467 7.36726C5.19733 7.20459 5.40467 7.10259 5.62933 7.07193C5.61808 6.91715 5.64167 6.76183 5.69837 6.61738C5.75507 6.47293 5.84343 6.34303 5.95696 6.23724C6.07049 6.13145 6.2063 6.05246 6.35439 6.00608C6.50247 5.95971 6.65907 5.94712 6.81267 5.96926C6.85067 5.77193 6.94533 5.58326 7.098 5.43059C7.23751 5.29413 7.41198 5.19882 7.60219 5.15518C7.79239 5.11154 7.99096 5.12126 8.176 5.18326C8.23065 5.01356 8.32793 4.86073 8.45853 4.73937C8.58913 4.61802 8.74868 4.5322 8.92192 4.49013C9.09516 4.44805 9.2763 4.45113 9.44802 4.49907C9.61973 4.54701 9.77627 4.6382 9.90267 4.76393L10.936 5.79726C11.2743 6.134 11.5425 6.53444 11.7251 6.97544C11.9078 7.41645 12.0012 7.88927 12 8.36659C11.9989 9.32989 11.6158 10.2534 10.9347 10.9346C10.2535 11.6157 9.32996 11.9989 8.36667 11.9999ZM6 9.80459V10.3333C6 10.8846 6.44867 11.3333 7 11.3333H8.36667C9.1532 11.3324 9.90728 11.0195 10.4634 10.4634C11.0196 9.9072 11.3325 9.15313 11.3333 8.36659C11.3344 7.97693 11.2581 7.59094 11.109 7.23094C10.9599 6.87093 10.7409 6.54407 10.4647 6.26926L9.43133 5.23593C9.36132 5.16573 9.26628 5.12623 9.16714 5.1261C9.06799 5.12598 8.97286 5.16524 8.90267 5.23526C8.83247 5.30528 8.79297 5.40031 8.79284 5.49945C8.79272 5.5986 8.83198 5.69373 8.902 5.76393C8.93388 5.79463 8.95932 5.83138 8.97685 5.87202C8.99437 5.91266 9.00363 5.95639 9.00407 6.00064C9.00452 6.0449 8.99615 6.0888 8.97944 6.12979C8.96274 6.17078 8.93804 6.20803 8.90679 6.23937C8.87554 6.27071 8.83836 6.29551 8.79742 6.31233C8.75648 6.32915 8.7126 6.33765 8.66834 6.33733C8.62408 6.33701 8.58033 6.32787 8.53964 6.31046C8.49895 6.29305 8.46213 6.26772 8.43133 6.23593L8.098 5.90259C8.0268 5.83458 7.93213 5.79662 7.83367 5.79662C7.7352 5.79662 7.64053 5.83458 7.56933 5.90259C7.53456 5.93727 7.50697 5.97847 7.48815 6.02383C7.46933 6.06919 7.45964 6.11782 7.45964 6.16693C7.45964 6.21603 7.46933 6.26466 7.48815 6.31002C7.50697 6.35538 7.53456 6.39658 7.56933 6.43126L7.90267 6.76459C7.93377 6.79545 7.95845 6.83217 7.9753 6.87261C7.99215 6.91306 8.00082 6.95644 8.00082 7.00026C8.00082 7.04407 7.99215 7.08746 7.9753 7.1279C7.95845 7.16835 7.93377 7.20506 7.90267 7.23593C7.84016 7.29842 7.75539 7.33352 7.667 7.33352C7.57861 7.33352 7.49384 7.29842 7.43133 7.23593L6.93133 6.73593C6.86014 6.66791 6.76546 6.62996 6.667 6.62996C6.56854 6.62996 6.47386 6.66791 6.40267 6.73593C6.3679 6.77061 6.34031 6.8118 6.32148 6.85716C6.30266 6.90252 6.29297 6.95115 6.29297 7.00026C6.29297 7.04937 6.30266 7.098 6.32148 7.14335C6.34031 7.18871 6.3679 7.22991 6.40267 7.26459L7.236 8.09793C7.2671 8.12879 7.29179 8.1655 7.30863 8.20595C7.32548 8.24639 7.33415 8.28978 7.33415 8.33359C7.33415 8.37741 7.32548 8.42079 7.30863 8.46124C7.29179 8.50168 7.2671 8.5384 7.236 8.56926C7.17349 8.63175 7.08872 8.66685 7.00033 8.66685C6.91195 8.66685 6.82718 8.63175 6.76467 8.56926L6.03467 7.83926C5.96347 7.77124 5.8688 7.73329 5.77033 7.73329C5.67187 7.73329 5.5772 7.77124 5.506 7.83926C5.47109 7.87379 5.44337 7.9149 5.42446 7.96022C5.40554 8.00554 5.3958 8.05415 5.3958 8.10326C5.3958 8.15236 5.40554 8.20098 5.42446 8.2463C5.44337 8.29161 5.47109 8.33273 5.506 8.36726L7.236 10.0973C7.29837 10.16 7.33338 10.2448 7.33338 10.3333C7.33338 10.4217 7.29837 10.5065 7.236 10.5693C7.17349 10.6317 7.08872 10.6669 7.00033 10.6669C6.91195 10.6669 6.82718 10.6317 6.76467 10.5693L6 9.80459Z" fill="url(#paint1_linear_1222_7882)"/>
<defs>
<linearGradient id="paint0_linear_1222_7882" x1="16" y1="0" x2="0" y2="16" gradientUnits="userSpaceOnUse">
<stop offset="0.0677083" stop-color="#00B5DD"/>
<stop offset="0.510417" stop-color="#0091E2"/>
<stop offset="0.90625" stop-color="#0084E4"/>
</linearGradient>
<linearGradient id="paint1_linear_1222_7882" x1="12" y1="4.46069" x2="4.46576" y2="11.7259" gradientUnits="userSpaceOnUse">
<stop offset="0.0677083" stop-color="#00B5DD"/>
<stop offset="0.510417" stop-color="#0091E2"/>
<stop offset="0.90625" stop-color="#0084E4"/>
</linearGradient>
</defs>
</svg>
