<svg width="30" height="30" viewBox="0 0 30 30" fill="none" xmlns="http://www.w3.org/2000/svg">
<rect width="30" height="30" rx="5" fill="#B89A00"/>
<path d="M12.6957 15.3913H9.17391C8.86257 15.3913 8.56398 15.2676 8.34383 15.0475C8.12368 14.8273 8 14.5287 8 14.2174V7.17391C8 6.86257 8.12368 6.56398 8.34383 6.34383C8.56398 6.12368 8.86257 6 9.17391 6H20.1304C20.4418 6 20.7404 6.12368 20.9605 6.34383C21.1807 6.56398 21.3043 6.86257 21.3043 7.17391V14.2174C21.3043 14.5287 21.1807 14.8273 20.9605 15.0475C20.7404 15.2676 20.4418 15.3913 20.1304 15.3913H16.6087M14.6522 24V16.9565V24Z" stroke="white" stroke-miterlimit="10" stroke-linecap="round" stroke-linejoin="round"/>
<path d="M11.1304 12.2607H18.1739M16.2174 16.9563H13.087C12.9832 16.9563 12.8837 16.9151 12.8103 16.8417C12.7369 16.7683 12.6957 16.6688 12.6957 16.565V14.2172C12.6957 14.1134 12.7369 14.0139 12.8103 13.9405C12.8837 13.8671 12.9832 13.8259 13.087 13.8259H16.2174C16.3212 13.8259 16.4207 13.8671 16.4941 13.9405C16.5675 14.0139 16.6087 14.1134 16.6087 14.2172V16.565C16.6087 16.6688 16.5675 16.7683 16.4941 16.8417C16.4207 16.9151 16.3212 16.9563 16.2174 16.9563ZM11.1304 23.9998H18.1739H11.1304ZM10.3478 9.13025H18.9565H10.3478Z" stroke="white" stroke-miterlimit="10" stroke-linecap="round" stroke-linejoin="round"/>
</svg>
