<svg width="30" height="30" viewBox="0 0 30 30" fill="none" xmlns="http://www.w3.org/2000/svg">
<rect width="30" height="30" rx="5" fill="black"/>
<path d="M25.9671 24.4937C25.9287 23.2206 25.8517 21.9873 25.4668 20.7939C25.3514 20.4358 25.2359 20.0778 25.0435 19.7993C24.8125 19.5208 24.5046 19.2025 24.1582 19.123C23.35 18.8843 22.5803 18.6854 21.772 18.4864C20.5789 18.1682 19.3474 17.8499 18.1543 17.5714C18.0773 17.5714 18.0003 17.5714 17.8848 17.5316C17.8848 17.5714 17.8464 17.651 17.8464 17.6908C17.6539 18.4864 17.423 19.2821 17.1921 20.0778C16.9227 21.0326 16.5763 21.9476 16.2684 22.9024C16.2299 23.0217 16.1914 23.1013 16.1529 23.2206C16.1144 22.783 16.0375 22.226 15.9605 21.6691C15.845 20.6347 15.6911 19.6401 15.6911 19.6004C15.7296 19.481 15.768 19.3617 15.845 19.2821C15.845 19.2821 15.845 19.2423 15.8835 19.2423C15.922 19.1627 15.922 19.123 15.9605 19.0434C15.9605 19.0036 15.999 19.0036 15.999 18.9638C16.0375 18.8843 16.0759 18.8047 16.0759 18.6854C16.0759 18.6058 16.0375 18.5262 15.999 18.4467V18.4069V18.3671C15.999 18.3273 15.9605 18.3273 15.9605 18.2875V18.2477C15.9605 18.208 15.922 18.208 15.8835 18.1682C15.845 18.1284 15.8065 18.1284 15.768 18.1284H14.1516C14.1131 18.1284 14.0361 18.1682 13.9976 18.2477V18.2875C13.9591 18.3273 13.9207 18.4069 13.9207 18.5262C13.9207 18.566 13.8822 18.6058 13.8822 18.6854C13.8822 18.8047 13.9207 18.8843 13.9591 18.9638V19.0036L13.9976 19.0434C14.0361 19.123 14.0361 19.1627 14.0746 19.2423V19.2821C14.1131 19.4014 14.1901 19.5208 14.2286 19.6401C14.2286 19.6799 14.1901 19.8788 14.1516 20.2369C14.0361 21.0326 13.8822 22.3852 13.7667 23.2604C13.7282 23.141 13.6513 23.0615 13.6513 22.9421C13.3434 21.9873 12.997 21.0723 12.7276 20.1175C12.4966 19.3219 12.3042 18.5262 12.0733 17.7306C12.0733 17.6908 12.0348 17.6112 12.0348 17.5714C11.9193 17.5714 11.8424 17.5714 11.7654 17.6112L8.53246 18.4467C7.60876 18.6854 6.68507 18.9241 5.76138 19.2025C5.45348 19.2821 5.14558 19.5606 4.95315 19.8391L4.91466 19.8788C4.72223 20.0778 4.60676 20.4358 4.4913 20.7541C4.14492 21.8282 4.06794 22.9421 4.02946 24.0561V24.4937C3.99097 25.2893 3.87551 25.1302 4.64525 25.4485C4.83769 25.528 5.03012 25.6076 5.22256 25.6474C6.56961 26.085 7.95515 26.4033 9.34069 26.6022C10.6877 26.8011 12.0733 26.8807 13.4588 26.9602C13.7282 26.9602 15.845 27 15.845 27C16.1144 27 16.3838 27 16.6532 26.9602C18.847 26.8807 21.0023 26.6817 23.1191 26.1646C23.6964 26.0054 24.3122 25.8463 24.8895 25.6474C25.0819 25.5678 25.2744 25.528 25.4668 25.4485C26.1211 25.1302 26.0056 25.2893 25.9671 24.4937ZM19.1934 9.29656C19.1934 9.53526 19.1934 9.81374 19.1549 10.0524C19.1164 10.4503 19.0779 10.8879 19.001 11.2857C18.1543 11.6438 17.3075 11.8825 16.3838 12.0018C16.1914 12.0416 15.999 12.0416 15.768 12.0814C15.7296 12.0814 15.6526 12.0416 15.6141 12.0018C15.4217 11.7631 15.1907 11.604 14.8828 11.6438H13.9591C13.4588 11.6438 13.1124 12.0018 13.0739 12.4792C13.0355 12.9964 13.3434 13.3942 13.8437 13.4738C14.2286 13.5136 14.6519 13.5136 15.0368 13.4738C15.3062 13.4738 15.4986 13.2749 15.6526 13.0362C15.6911 12.9964 15.7296 12.9168 15.8065 12.9168C16.8072 12.8373 17.8079 12.6383 18.77 12.2803C18.6546 12.7179 18.5006 13.1555 18.3082 13.6329C18.2697 13.6727 18.2697 13.7523 18.2312 13.792C17.9233 14.5081 17.4615 15.1049 16.9611 15.6221C16.4223 16.179 15.7296 16.4575 15.0368 16.4177C14.344 16.4575 13.6513 16.179 13.1124 15.6221L13.0355 15.5425C12.5351 15.0253 12.1118 14.4684 11.8424 13.792C11.2266 12.3996 10.8802 10.9277 10.8802 9.37613V8.7396C10.9571 7.98372 11.1496 7.30741 11.5345 6.71067C11.8808 6.15371 12.4197 5.67631 13.1124 5.39783C13.7282 5.15913 14.3825 5.03978 15.0753 5C15.7296 5 16.3838 5.11935 17.0381 5.39783C18.4237 5.99458 19.1549 7.26763 19.2704 8.7396C19.1934 8.85895 19.1934 9.05787 19.1934 9.29656Z" fill="white"/>
</svg>
