<svg width="30" height="30" viewBox="0 0 30 30" fill="none" xmlns="http://www.w3.org/2000/svg">
<rect width="30" height="30" rx="5" fill="#FF9900"/>
<path d="M16.0013 22.8556H8.14314C7.95367 22.8556 7.77197 22.7803 7.63799 22.6463C7.50402 22.5124 7.42876 22.3307 7.42876 22.1412V21.4268C7.42988 20.156 7.80756 18.9141 8.51411 17.8578C9.22065 16.8015 10.2244 15.9783 11.3985 15.4922C12.5726 15.006 13.8645 14.8787 15.1109 15.1263C16.3574 15.3739 17.5025 15.9853 18.4016 16.8834C18.5383 17.0004 18.7141 17.0616 18.8939 17.0546C19.0736 17.0477 19.2442 16.9731 19.3714 16.8459C19.4987 16.7187 19.5732 16.5481 19.5801 16.3683C19.5871 16.1886 19.5259 16.0128 19.4089 15.8761C18.6432 15.1058 17.7262 14.5025 16.7157 14.1044C17.5894 13.4961 18.2461 12.6248 18.5903 11.6174C18.9344 10.6099 18.9481 9.51893 18.6293 8.50317C18.3105 7.48742 17.6759 6.59992 16.8177 5.96984C15.9596 5.33976 14.9228 5 13.8582 5C12.7936 5 11.7567 5.33976 10.8986 5.96984C10.0405 6.59992 9.4058 7.48742 9.08699 8.50317C8.76819 9.51893 8.78188 10.6099 9.12607 11.6174C9.47025 12.6248 10.127 13.4961 11.0006 14.1044C9.5269 14.6797 8.26111 15.6865 7.36888 16.9929C6.47666 18.2994 5.99956 19.8448 6 21.4268V22.1412C6 22.7096 6.22579 23.2547 6.62771 23.6566C7.02963 24.0585 7.57474 24.2843 8.14314 24.2843H16.0013C16.1908 24.2843 16.3725 24.2091 16.5064 24.0751C16.6404 23.9411 16.7157 23.7594 16.7157 23.57C16.7157 23.3805 16.6404 23.1988 16.5064 23.0648C16.3725 22.9308 16.1908 22.8556 16.0013 22.8556ZM10.2863 9.99677C10.2863 9.29031 10.4958 8.59972 10.8882 8.01233C11.2807 7.42493 11.8386 6.96711 12.4913 6.69677C13.1439 6.42642 13.8621 6.35568 14.555 6.49351C15.2479 6.63133 15.8843 6.97152 16.3839 7.47106C16.8834 7.97059 17.2236 8.60704 17.3614 9.29992C17.4992 9.9928 17.4285 10.711 17.1582 11.3637C16.8878 12.0163 16.43 12.5742 15.8426 12.9667C15.2552 13.3592 14.5646 13.5687 13.8582 13.5687C12.9108 13.5687 12.0023 13.1923 11.3325 12.5225C10.6626 11.8526 10.2863 10.9441 10.2863 9.99677V9.99677Z" fill="white"/>
<path d="M22.5373 18.7122C22.3397 18.4664 22.0939 18.2636 21.8151 18.1162C21.5362 17.9688 21.2302 17.8799 20.9158 17.855C20.4441 17.824 19.9745 17.9414 19.5729 18.1908C19.1721 17.9396 18.7019 17.8221 18.23 17.855C17.9161 17.879 17.6104 17.9668 17.3316 18.1129C17.0528 18.2591 16.8068 18.4606 16.6085 18.7051C16.2013 19.2292 15.9893 19.8788 16.0088 20.5422C16.0284 21.2057 16.2783 21.8416 16.7157 22.3409L18.7229 24.6053C18.8295 24.7291 18.9616 24.8285 19.1101 24.8966C19.2587 24.9648 19.4202 25 19.5836 25C19.747 25 19.9085 24.9648 20.0571 24.8966C20.2056 24.8285 20.3377 24.7291 20.4444 24.6053L22.4301 22.3409C22.8657 21.8422 23.1145 21.2076 23.1341 20.5458C23.1536 19.8839 22.9427 19.2358 22.5373 18.7122ZM21.373 21.4266L19.5729 23.4195L17.7728 21.4266C17.5632 21.1825 17.4421 20.8748 17.4291 20.5533C17.4161 20.2318 17.5121 19.9153 17.7014 19.6551C17.7764 19.5588 17.8701 19.4788 17.9769 19.4198C18.0837 19.3609 18.2015 19.3243 18.3229 19.3122H18.38C18.5932 19.317 18.7969 19.401 18.9515 19.548C19.1208 19.7011 19.341 19.7858 19.5693 19.7858C19.7976 19.7858 20.0178 19.7011 20.1872 19.548C20.2706 19.4686 20.3695 19.4074 20.4776 19.368C20.5858 19.3287 20.7009 19.3121 20.8158 19.3194C20.9372 19.3314 21.0549 19.368 21.1617 19.427C21.2686 19.4859 21.3623 19.566 21.4372 19.6622C21.6258 19.921 21.7219 20.2356 21.7103 20.5555C21.6986 20.8755 21.5798 21.1822 21.373 21.4266Z" fill="white"/>
</svg>
