<svg width="30" height="30" viewBox="0 0 30 30" fill="none" xmlns="http://www.w3.org/2000/svg">
<rect width="30" height="30" rx="5" fill="#FF3D00"/>
<path d="M9.77934 22.8887H3.667C3.51963 22.8887 3.37829 22.8301 3.27409 22.7259C3.16988 22.6217 3.11133 22.4804 3.11133 22.333V21.7773C3.1122 20.7889 3.40598 19.8228 3.95556 19.0012C4.50513 18.1796 5.28586 17.5393 6.19913 17.1612C7.1124 16.783 8.11726 16.684 9.08678 16.8766C10.0563 17.0692 8.40472 16.079 10.0256 17.1612C7.77562 15.8514 8.40472 16.079 10.0256 17.1612C8.43604 15.8236 8.16854 16.0093 10.0256 17.1612C7.79749 16.6203 8.304 15.6471 10.0256 17.1612C8.29977 16.9068 10.426 16.188 10.335 16.0817C11.121 16.3914 9.73946 15.4826 10.335 16.0817C11.0146 15.6085 11.5254 14.9308 11.7931 14.1472C12.0608 13.3636 12.0715 12.515 11.8235 11.7249C11.5755 10.9348 11.0819 10.2445 10.4144 9.75437C9.74691 9.26428 8.94043 9 8.11234 9C7.28425 9 6.47777 9.26428 5.81029 9.75437C5.1428 10.2445 4.64914 10.9348 4.40117 11.7249C4.15319 12.515 4.16384 13.3636 4.43156 14.1472C4.69928 14.9308 5.2101 15.6085 5.88967 16.0817C4.74334 16.5292 3.75876 17.3123 3.06476 18.3285C2.37076 19.3447 1.99966 20.5468 2 21.7773V22.333C2 22.7751 2.17563 23.1991 2.48825 23.5117C2.80088 23.8244 3.22489 24 3.667 24H9.77934C9.92671 24 10.0681 23.9415 10.1723 23.8372C10.2765 23.733 10.335 23.5917 10.335 23.4443C10.335 23.297 10.2765 23.1556 10.1723 23.0514C10.0681 22.9472 9.92671 22.8887 9.77934 22.8887ZM5.334 12.8867C5.334 12.3371 5.49695 11.8 5.80224 11.3431C6.10753 10.8862 6.54144 10.5301 7.04912 10.3198C7.55679 10.1095 8.11542 10.0545 8.65437 10.1617C9.19331 10.2689 9.68836 10.5335 10.0769 10.9221C10.4655 11.3106 10.7301 11.8057 10.8373 12.3446C10.9445 12.8836 10.8895 13.4422 10.6792 13.9499C10.4689 14.4575 10.1128 14.8915 9.6559 15.1968C9.19901 15.502 8.66184 15.665 8.11234 15.665C7.37548 15.665 6.6688 15.3723 6.14776 14.8512C5.62672 14.3302 5.334 13.6235 5.334 12.8867Z" fill="white"/>
<path d="M20.2227 22.8887H26.335C26.4824 22.8887 26.6237 22.8301 26.7279 22.7259C26.8321 22.6217 26.8907 22.4804 26.8907 22.333V21.7773C26.8898 20.7889 26.596 19.8228 26.0465 19.0012C25.4969 18.1796 24.7162 17.5393 23.8029 17.1612C22.8896 16.783 21.8848 16.684 20.9152 16.8766C19.9457 17.0692 21.5973 16.079 19.9765 17.1612C22.2264 15.8514 21.5973 16.079 19.9765 17.1612C21.566 15.8236 21.8335 16.0093 19.9765 17.1612C22.2045 16.6203 21.698 15.6471 19.9765 17.1612C21.7022 16.9068 19.576 16.188 19.667 16.0817C18.881 16.3914 20.2626 15.4826 19.667 16.0817C18.9874 15.6085 18.4766 14.9308 18.2089 14.1472C17.9412 13.3636 17.9305 12.515 18.1785 11.7249C18.4265 10.9348 18.9201 10.2445 19.5876 9.75437C20.2551 9.26428 21.0616 9 21.8897 9C22.7178 9 23.5242 9.26428 24.1917 9.75437C24.8592 10.2445 25.3529 10.9348 25.6008 11.7249C25.8488 12.515 25.8382 13.3636 25.5705 14.1472C25.3027 14.9308 24.7919 15.6085 24.1123 16.0817C25.2587 16.5292 26.2433 17.3123 26.9373 18.3285C27.6312 19.3447 28.0024 20.5468 28.002 21.7773V22.333C28.002 22.7751 27.8264 23.1991 27.5138 23.5117C27.2011 23.8244 26.7771 24 26.335 24H20.2227C20.0753 24 19.934 23.9415 19.8298 23.8372C19.7255 23.733 19.667 23.5917 19.667 23.4443C19.667 23.297 19.7255 23.1556 19.8298 23.0514C19.934 22.9472 20.0753 22.8887 20.2227 22.8887ZM24.668 12.8867C24.668 12.3371 24.5051 11.8 24.1998 11.3431C23.8945 10.8862 23.4606 10.5301 22.9529 10.3198C22.4452 10.1095 21.8866 10.0545 21.3476 10.1617C20.8087 10.2689 20.3137 10.5335 19.9251 10.9221C19.5365 11.3106 19.2719 11.8057 19.1647 12.3446C19.0575 12.8836 19.1125 13.4422 19.3228 13.9499C19.5331 14.4575 19.8892 14.8915 20.3461 15.1968C20.803 15.502 21.3402 15.665 21.8897 15.665C22.6265 15.665 23.3332 15.3723 23.8543 14.8512C24.3753 14.3302 24.668 13.6235 24.668 12.8867Z" fill="white"/>
<path d="M17.0013 22.8556H9.14314C8.95367 22.8556 8.77197 22.7803 8.63799 22.6463C8.50402 22.5124 8.42876 22.3307 8.42876 22.1412V21.4268C8.42988 20.156 8.80756 18.9141 9.51411 17.8578C10.2207 16.8015 11.2244 15.9783 12.3985 15.4922C13.5726 15.006 14.8645 14.8787 16.1109 15.1263C17.3574 15.3739 18.5025 15.9853 19.4016 16.8834C19.5383 17.0004 19.7141 17.0616 19.8939 17.0546C20.0736 17.0477 20.2442 16.9731 20.3714 16.8459C20.4987 16.7187 20.5732 16.5481 20.5801 16.3683C20.5871 16.1886 20.5259 16.0128 20.4089 15.8761C19.6432 15.1058 18.7262 14.5025 17.7157 14.1044C18.5894 13.4961 19.2461 12.6248 19.5903 11.6174C19.9344 10.6099 19.9481 9.51893 19.6293 8.50317C19.3105 7.48742 18.6759 6.59992 17.8177 5.96984C16.9596 5.33976 15.9228 5 14.8582 5C13.7936 5 12.7567 5.33976 11.8986 5.96984C11.0405 6.59992 10.4058 7.48742 10.087 8.50317C9.76819 9.51893 9.78188 10.6099 10.1261 11.6174C10.4703 12.6248 11.127 13.4961 12.0006 14.1044C10.5269 14.6797 9.26111 15.6865 8.36888 16.9929C7.47666 18.2994 6.99956 19.8448 7 21.4268V22.1412C7 22.7096 7.22579 23.2547 7.62771 23.6566C8.02963 24.0585 8.57474 24.2843 9.14314 24.2843H17.0013C17.1908 24.2843 17.3725 24.2091 17.5064 24.0751C17.6404 23.9411 17.7157 23.7594 17.7157 23.57C17.7157 23.3805 17.6404 23.1988 17.5064 23.0648C17.3725 22.9308 17.1908 22.8556 17.0013 22.8556ZM11.2863 9.99677C11.2863 9.29031 11.4958 8.59972 11.8882 8.01233C12.2807 7.42493 12.8386 6.96712 13.4913 6.69677C14.1439 6.42642 14.8621 6.35568 15.555 6.49351C16.2479 6.63133 16.8843 6.97152 17.3839 7.47106C17.8834 7.97059 18.2236 8.60704 18.3614 9.29992C18.4992 9.9928 18.4285 10.711 18.1582 11.3637C17.8878 12.0163 17.43 12.5742 16.8426 12.9667C16.2552 13.3592 15.5646 13.5687 14.8582 13.5687C13.9108 13.5687 13.0023 13.1923 12.3325 12.5225C11.6626 11.8526 11.2863 10.9441 11.2863 9.99677Z" fill="white"/>
<path d="M23.5373 18.7122C23.3397 18.4664 23.0939 18.2636 22.8151 18.1162C22.5362 17.9688 22.2302 17.8799 21.9158 17.855C21.4441 17.824 20.9745 17.9414 20.5729 18.1908C20.1721 17.9396 19.7019 17.8221 19.23 17.855C18.9161 17.879 18.6104 17.9668 18.3316 18.1129C18.0528 18.2591 17.8068 18.4606 17.6085 18.7051C17.2013 19.2292 16.9893 19.8788 17.0088 20.5422C17.0284 21.2057 17.2783 21.8416 17.7157 22.3409L19.7229 24.6053C19.8295 24.7291 19.9616 24.8285 20.1101 24.8966C20.2587 24.9648 20.4202 25 20.5836 25C20.747 25 20.9085 24.9648 21.0571 24.8966C21.2056 24.8285 21.3377 24.7291 21.4444 24.6053L23.4301 22.3409C23.8657 21.8422 24.1145 21.2076 24.1341 20.5458C24.1536 19.8839 23.9427 19.2358 23.5373 18.7122ZM22.373 21.4266L20.5729 23.4195L18.7728 21.4266C18.5632 21.1825 18.4421 20.8748 18.4291 20.5533C18.4161 20.2318 18.5121 19.9153 18.7014 19.6551C18.7764 19.5588 18.8701 19.4788 18.9769 19.4198C19.0837 19.3609 19.2015 19.3243 19.3229 19.3122H19.38C19.5932 19.317 19.7969 19.401 19.9515 19.548C20.1208 19.7011 20.341 19.7858 20.5693 19.7858C20.7976 19.7858 21.0178 19.7011 21.1872 19.548C21.2706 19.4686 21.3695 19.4074 21.4776 19.368C21.5858 19.3287 21.7009 19.3121 21.8158 19.3194C21.9372 19.3314 22.0549 19.368 22.1617 19.427C22.2686 19.4859 22.3623 19.566 22.4372 19.6622C22.6258 19.921 22.7219 20.2356 22.7103 20.5555C22.6986 20.8755 22.5798 21.1822 22.373 21.4266Z" fill="white"/>
</svg>
