<svg width="30" height="30" viewBox="0 0 30 30" fill="none" xmlns="http://www.w3.org/2000/svg">
<rect width="30" height="30" rx="5" fill="#FF0000"/>
<path d="M22.2727 8.63636H20.4545V7.72727C20.4545 7.00396 20.1672 6.31026 19.6557 5.7988C19.1443 5.28734 18.4506 5 17.7273 5H12.2727C11.5494 5 10.8557 5.28734 10.3443 5.7988C9.83279 6.31026 9.54545 7.00396 9.54545 7.72727V8.63636H7.72727C7.00396 8.63636 6.31026 8.9237 5.7988 9.43516C5.28734 9.94663 5 10.6403 5 11.3636V22.2727C5 22.996 5.28734 23.6897 5.7988 24.2012C6.31026 24.7127 7.00396 25 7.72727 25H22.2727C22.996 25 23.6897 24.7127 24.2012 24.2012C24.7127 23.6897 25 22.996 25 22.2727V11.3636C25 10.6403 24.7127 9.94663 24.2012 9.43516C23.6897 8.9237 22.996 8.63636 22.2727 8.63636ZM11.3636 7.72727C11.3636 7.48617 11.4594 7.25494 11.6299 7.08445C11.8004 6.91396 12.0316 6.81818 12.2727 6.81818H17.7273C17.9684 6.81818 18.1996 6.91396 18.3701 7.08445C18.5406 7.25494 18.6364 7.48617 18.6364 7.72727V8.63636H11.3636V7.72727ZM7.72727 10.4545H22.2727C22.5138 10.4545 22.7451 10.5503 22.9156 10.7208C23.086 10.8913 23.1818 11.1225 23.1818 11.3636V14.0909H20.4545V12.2727H18.6364V14.0909H11.3636V12.2727H9.54545V14.0909H6.81818V11.3636C6.81818 11.1225 6.91396 10.8913 7.08445 10.7208C7.25494 10.5503 7.48617 10.4545 7.72727 10.4545ZM22.2727 23.1818H7.72727C7.48617 23.1818 7.25494 23.086 7.08445 22.9156C6.91396 22.7451 6.81818 22.5138 6.81818 22.2727V15.9091H9.54545V17.7273H11.3636V15.9091H18.6364V17.7273H20.4545V15.9091H23.1818V22.2727C23.1818 22.5138 23.086 22.7451 22.9156 22.9156C22.7451 23.086 22.5138 23.1818 22.2727 23.1818Z" fill="white"/>
</svg>
