<svg width="30" height="30" viewBox="0 0 30 30" fill="none" xmlns="http://www.w3.org/2000/svg">
<rect width="30" height="30" rx="5" fill="#00A611"/>
<g clip-path="url(#clip0_6069_10411)">
<path d="M15.3244 24.5176C15.0086 24.35 14.6928 24.1846 14.3769 24.017C13.6164 23.6152 12.8537 23.2135 12.0931 22.8117C11.1758 22.3262 10.2584 21.8428 9.33885 21.3572C8.54393 20.9361 7.74686 20.5172 6.95194 20.0961C6.56737 19.8941 6.1871 19.6771 5.79823 19.4859C5.79178 19.4838 5.78749 19.4795 5.78319 19.4773C5.89061 19.6621 5.99588 19.849 6.10331 20.0338C6.10331 19.6986 6.10331 19.3635 6.10331 19.0283C6.10331 18.2269 6.10331 17.4277 6.10331 16.6264C6.10331 15.6553 6.10331 14.6842 6.10331 13.7109C6.10331 12.8752 6.10331 12.0373 6.10331 11.2015C6.10331 10.7955 6.11405 10.3873 6.10331 9.98123C6.10331 9.97479 6.10331 9.97049 6.10331 9.96404C5.78104 10.1488 5.45663 10.3357 5.13436 10.5205C5.45018 10.6881 5.766 10.8535 6.08182 11.0211C6.84237 11.4228 7.60506 11.8246 8.36561 12.2285C9.28299 12.714 10.2004 13.1996 11.1199 13.683C11.9148 14.1041 12.7119 14.5252 13.5068 14.9441C13.8914 15.1482 14.2717 15.3631 14.6605 15.5543C14.667 15.5564 14.6713 15.5607 14.6756 15.5629C14.5681 15.3781 14.4629 15.1912 14.3555 15.0064C14.3555 15.3416 14.3555 15.6767 14.3555 16.0097C14.3555 16.809 14.3555 17.6103 14.3555 18.4096C14.3555 19.3806 14.3555 20.3517 14.3555 21.3228C14.3555 22.1586 14.3555 22.9943 14.3555 23.8301C14.3555 24.2361 14.3469 24.6443 14.3555 25.0504C14.3555 25.0568 14.3555 25.0611 14.3555 25.0676C14.3555 25.4049 14.6519 25.7271 15 25.7121C15.3502 25.6971 15.6445 25.4285 15.6445 25.0676C15.6445 24.7324 15.6445 24.3973 15.6445 24.0642C15.6445 23.265 15.6445 22.4637 15.6445 21.6644C15.6445 20.6933 15.6445 19.7223 15.6445 18.7512C15.6445 17.9154 15.6445 17.0797 15.6445 16.2439C15.6445 15.8379 15.6531 15.4297 15.6445 15.0236C15.6445 15.0172 15.6445 15.0129 15.6445 15.0064C15.6445 14.7873 15.5242 14.5553 15.3244 14.45C15.0086 14.2824 14.6928 14.117 14.3769 13.9494C13.6164 13.5476 12.8537 13.1459 12.0931 12.742C11.1758 12.2564 10.2584 11.7709 9.33885 11.2875C8.54393 10.8664 7.74686 10.4453 6.95194 10.0263C6.56737 9.82225 6.18495 9.61385 5.79823 9.41619C5.79178 9.41404 5.78749 9.40975 5.78319 9.4076C5.35565 9.18201 4.81424 9.45916 4.81424 9.96404C4.81424 10.2992 4.81424 10.6344 4.81424 10.9695C4.81424 11.7709 4.81424 12.5701 4.81424 13.3715C4.81424 14.3426 4.81424 15.3137 4.81424 16.2869C4.81424 17.1226 4.81424 17.9605 4.81424 18.7963C4.81424 19.2023 4.80565 19.6105 4.81424 20.0166C4.81424 20.023 4.81424 20.0273 4.81424 20.0338C4.81424 20.2529 4.93456 20.4849 5.13436 20.5902C5.45018 20.7578 5.766 20.9232 6.08182 21.0908C6.84237 21.4926 7.60506 21.8943 8.36561 22.2961C9.28299 22.7816 10.2004 23.265 11.1199 23.7506C11.9148 24.1717 12.7119 24.5906 13.5068 25.0117C13.8914 25.2158 14.2738 25.4221 14.6605 25.6219C14.667 25.624 14.6713 25.6283 14.6756 25.6305C14.9742 25.7873 15.391 25.7164 15.5564 25.3984C15.7133 25.1019 15.6445 24.6851 15.3244 24.5176Z" fill="white"/>
<path d="M24.2168 19.4795C23.901 19.6471 23.5852 19.8126 23.2694 19.9801C22.5088 20.3819 21.7461 20.7837 20.9856 21.1854C20.0682 21.671 19.1508 22.1544 18.2313 22.6399C17.4363 23.061 16.6393 23.4799 15.8443 23.901C15.4598 24.103 15.0688 24.2985 14.6906 24.5112C14.6863 24.5133 14.6799 24.5176 14.6756 24.5198C14.9979 24.7046 15.3223 24.8915 15.6445 25.0762C15.6445 24.7411 15.6445 24.4059 15.6445 24.0729C15.6445 23.2737 15.6445 22.4723 15.6445 21.6731C15.6445 20.702 15.6445 19.7309 15.6445 18.7598C15.6445 17.9241 15.6445 17.0883 15.6445 16.2526C15.6445 15.8465 15.6553 15.4383 15.6445 15.0323C15.6445 15.0258 15.6445 15.0215 15.6445 15.0151C15.5371 15.1999 15.4318 15.3868 15.3244 15.5715C15.6402 15.404 15.9561 15.2385 16.2719 15.071C17.0324 14.6692 17.7951 14.2674 18.5557 13.8635C19.4731 13.378 20.3904 12.8924 21.31 12.409C22.1049 11.9879 22.902 11.5669 23.6969 11.1479C24.0815 10.9438 24.4725 10.7504 24.8506 10.5377C24.8549 10.5356 24.8613 10.5313 24.8656 10.5292C24.5434 10.3444 24.219 10.1575 23.8967 9.97271C23.8967 10.3079 23.8967 10.643 23.8967 10.9782C23.8967 11.7795 23.8967 12.5788 23.8967 13.3801C23.8967 14.3512 23.8967 15.3223 23.8967 16.2956C23.8967 17.1313 23.8967 17.9692 23.8967 18.8049C23.8967 19.211 23.8881 19.6192 23.8967 20.0253C23.8967 20.0317 23.8967 20.036 23.8967 20.0424C23.8967 20.3797 24.1932 20.702 24.5412 20.687C24.8914 20.6719 25.1858 20.4034 25.1858 20.0424C25.1858 19.7073 25.1858 19.3721 25.1858 19.037C25.1858 18.2356 25.1858 17.4364 25.1858 16.635C25.1858 15.6639 25.1858 14.6928 25.1858 13.7196C25.1858 12.8838 25.1858 12.046 25.1858 11.2102C25.1858 10.8042 25.1944 10.396 25.1858 9.9899C25.1858 9.98345 25.1858 9.97916 25.1858 9.97271C25.1858 9.46783 24.6422 9.19068 24.2168 9.41627C23.901 9.58384 23.5852 9.74927 23.2694 9.91685C22.5088 10.3186 21.7461 10.7204 20.9856 11.1243C20.0682 11.6098 19.1508 12.0954 18.2313 12.5788C17.4363 12.9999 16.6393 13.421 15.8443 13.8399C15.4598 14.044 15.0688 14.2374 14.6906 14.4501C14.6863 14.4522 14.6799 14.4565 14.6756 14.4586C14.4779 14.5639 14.3555 14.796 14.3555 15.0151C14.3555 15.3503 14.3555 15.6854 14.3555 16.0184C14.3555 16.8176 14.3555 17.619 14.3555 18.4182C14.3555 19.3893 14.3555 20.3604 14.3555 21.3315C14.3555 22.1672 14.3555 23.003 14.3555 23.8387C14.3555 24.2448 14.3469 24.653 14.3555 25.059C14.3555 25.0655 14.3555 25.0698 14.3555 25.0762C14.3555 25.5811 14.899 25.8583 15.3244 25.6327C15.6402 25.4651 15.9561 25.2997 16.2719 25.1321C17.0324 24.7303 17.7951 24.3286 18.5557 23.9268C19.4731 23.4413 20.3904 22.9579 21.31 22.4723C22.1049 22.0512 22.902 21.6323 23.6969 21.2112C24.0815 21.0092 24.4725 20.8137 24.8506 20.601C24.8549 20.5989 24.8613 20.5946 24.8656 20.5924C25.1643 20.4356 25.2803 19.9952 25.0977 19.7116C24.9022 19.4065 24.5369 19.3098 24.2168 19.4795Z" fill="white"/>
<path d="M24.2168 9.40979C23.901 9.57737 23.5852 9.7428 23.2693 9.91038C22.5088 10.3121 21.7461 10.7139 20.9856 11.1178C20.0682 11.6033 19.1508 12.0889 18.2313 12.5723C17.4363 12.9934 16.6393 13.4145 15.8443 13.8334C15.4598 14.0375 15.0688 14.2309 14.6906 14.4436C14.6863 14.4457 14.6799 14.45 14.6756 14.4522C14.8926 14.4522 15.1096 14.4522 15.3266 14.4522C15.0107 14.2846 14.6949 14.1192 14.3791 13.9516C13.6186 13.5498 12.8559 13.1481 12.0953 12.7442C11.1779 12.2586 10.2606 11.7731 9.34102 11.2897C8.5461 10.8686 7.74903 10.4475 6.95411 10.0285C6.56954 9.82444 6.18926 9.61175 5.8004 9.41839C5.79395 9.41624 5.78965 9.41194 5.78536 9.40979C5.78536 9.78147 5.78536 10.151 5.78536 10.5227C6.10118 10.3551 6.417 10.1897 6.73282 10.0221C7.49337 9.62034 8.25606 9.21858 9.01661 8.81682C9.93399 8.33128 10.8514 7.84788 11.7709 7.36233C12.5658 6.94124 13.3629 6.52229 14.1578 6.1012C14.5424 5.8971 14.9334 5.70374 15.3115 5.49104C15.3158 5.48889 15.3223 5.4846 15.3266 5.48245C15.1096 5.48245 14.8926 5.48245 14.6756 5.48245C14.9914 5.65003 15.3072 5.81546 15.6231 5.98303C16.3836 6.38479 17.1463 6.78655 17.9068 7.18831C18.8242 7.67385 19.7416 8.15725 20.6611 8.6428C21.4561 9.06389 22.2531 9.48284 23.0481 9.90393C23.4326 10.108 23.815 10.3164 24.2018 10.5141C24.2082 10.5162 24.2125 10.5205 24.2168 10.5227C24.5154 10.6795 24.9322 10.6086 25.0977 10.2907C25.2545 9.99202 25.1857 9.57737 24.8656 9.40979C24.5455 9.24007 24.2275 9.07249 23.9074 8.90276C23.1447 8.49885 22.382 8.0971 21.6172 7.69319C20.6955 7.20764 19.776 6.71995 18.8543 6.2344C18.0615 5.81546 17.2688 5.39651 16.4738 4.97757C16.0936 4.77776 15.7197 4.56721 15.3352 4.376C15.1074 4.26214 14.884 4.25999 14.6584 4.376C14.6154 4.39749 14.5746 4.42112 14.5338 4.4426C14.3361 4.54788 14.1385 4.651 13.943 4.75628C13.2254 5.1344 12.51 5.51467 11.7924 5.8928C10.8729 6.37835 9.95333 6.86389 9.03379 7.34944C8.20665 7.78557 7.3795 8.22385 6.55235 8.65999C6.09903 8.89846 5.64786 9.13694 5.19454 9.37757C5.17305 9.38831 5.15157 9.39905 5.13223 9.41194C4.71329 9.63323 4.71329 10.3035 5.13223 10.5248C5.45235 10.6946 5.77032 10.8621 6.09044 11.0319C6.85313 11.4358 7.61583 11.8375 8.38067 12.2414C9.30235 12.7291 10.2219 13.2147 11.1436 13.7024C11.9363 14.1213 12.7291 14.5403 13.524 14.9592C13.9043 15.159 14.2781 15.3696 14.6627 15.5608C14.8904 15.6746 15.1139 15.6768 15.3395 15.5608C15.3824 15.5393 15.4232 15.5157 15.4641 15.4942C15.6617 15.3889 15.8594 15.2858 16.0549 15.1805C16.7725 14.8024 17.4879 14.4221 18.2055 14.044C19.125 13.5584 20.0445 13.0729 20.9641 12.5873C21.7912 12.1491 22.6184 11.7129 23.4455 11.2746C23.8988 11.0362 24.35 10.7955 24.8033 10.5571C24.8248 10.5463 24.8463 10.5356 24.8656 10.5227C25.1643 10.3658 25.2803 9.92542 25.0977 9.64182C24.9022 9.33889 24.5369 9.24221 24.2168 9.40979Z" fill="white"/>
<path d="M10.5549 13.0492C10.8707 12.8816 11.1865 12.7162 11.5023 12.5486C12.2629 12.1468 13.0256 11.7451 13.7861 11.3412C14.7035 10.8556 15.6209 10.3701 16.5404 9.88668C17.3353 9.46559 18.1324 9.0445 18.9273 8.62555C19.3119 8.42145 19.7029 8.22809 20.081 8.01539C20.0853 8.01325 20.0918 8.00895 20.0961 8.0068C20.3947 7.84997 20.5107 7.40954 20.3281 7.12594C20.1326 6.82301 19.7652 6.72633 19.4472 6.89391C19.1314 7.06149 18.8156 7.22692 18.4998 7.3945C17.7392 7.79625 16.9765 8.19801 16.216 8.60192C15.2986 9.08747 14.3812 9.57301 13.4617 10.0564C12.6668 10.4775 11.8697 10.8986 11.0748 11.3175C10.6902 11.5216 10.2992 11.715 9.92109 11.9277C9.91679 11.9298 9.91034 11.9341 9.90605 11.9363C9.60741 12.0931 9.4914 12.5336 9.67402 12.8172C9.86737 13.1201 10.2348 13.2168 10.5549 13.0492Z" fill="white"/>
</g>
<defs>
<clipPath id="clip0_6069_10411">
<rect width="22" height="22" fill="white" transform="translate(4 4)"/>
</clipPath>
</defs>
</svg>
