<svg width="30" height="30" viewBox="0 0 30 30" fill="none" xmlns="http://www.w3.org/2000/svg">
<rect width="30" height="30" rx="5" fill="#FF0099"/>
<path d="M15 5C12.3488 5.00298 9.80694 6.05751 7.93222 7.93222C6.05751 9.80694 5.00298 12.3488 5 15C5.00451 17.6508 6.05952 20.1917 7.93391 22.0661C9.8083 23.9405 12.3492 24.9955 15 25C17.6522 25 20.1957 23.9464 22.0711 22.0711C23.9464 20.1957 25 17.6522 25 15C25 12.3478 23.9464 9.8043 22.0711 7.92893C20.1957 6.05357 17.6522 5 15 5ZM21.0825 20.7703C20.5208 19.6375 19.6538 18.6843 18.5792 18.0181C17.5046 17.352 16.2653 16.9993 15.0009 17C13.7366 17.0007 12.4976 17.3547 11.4238 18.022C10.3499 18.6894 9.48393 19.6435 8.92349 20.7769C7.42807 19.2261 6.59478 17.1543 6.6 15C6.6 12.7722 7.485 10.6356 9.0603 9.0603C10.6356 7.485 12.7722 6.6 15 6.6C17.2278 6.6 19.3644 7.485 20.9397 9.0603C22.515 10.6356 23.4 12.7722 23.4 15C23.405 17.1512 22.574 19.2201 21.0825 20.7703ZM15 9C14.288 9 13.592 9.21114 12.9999 9.60671C12.4079 10.0023 11.9465 10.5645 11.674 11.2223C11.4016 11.8802 11.3303 12.604 11.4692 13.3023C11.6081 14.0007 11.9509 14.6421 12.4544 15.1456C12.9579 15.6491 13.5993 15.9919 14.2977 16.1308C14.996 16.2697 15.7198 16.1984 16.3777 15.926C17.0355 15.6535 17.5977 15.1921 17.9933 14.6001C18.3889 14.008 18.6 13.312 18.6 12.6C18.6 12.1272 18.5069 11.6591 18.326 11.2223C18.145 10.7856 17.8799 10.3887 17.5456 10.0544C17.2113 9.72013 16.8144 9.45495 16.3777 9.27403C15.9409 9.09312 15.4728 9 15 9Z" fill="white"/>
</svg>
