<svg width="30" height="30" viewBox="0 0 30 30" fill="none" xmlns="http://www.w3.org/2000/svg">
<rect width="30" height="30" rx="5" fill="#730000"/>
<path d="M18.6667 15C18.6667 13.9878 18.3086 13.1237 17.5924 12.4076C16.8763 11.6914 16.0122 11.3333 15 11.3333C13.9878 11.3333 13.1237 11.6914 12.4076 12.4076C11.6914 13.1237 11.3333 13.9878 11.3333 15C11.3333 16.0122 11.6914 16.8763 12.4076 17.5924C13.1237 18.3086 13.9878 18.6667 15 18.6667C16.0122 18.6667 16.8763 18.3086 17.5924 17.5924C18.3086 16.8763 18.6667 16.0122 18.6667 15ZM26 13.4388V16.6185C26 16.7331 25.9618 16.8429 25.8854 16.9479C25.809 17.053 25.7135 17.115 25.599 17.1341L22.9492 17.5352C22.7678 18.0508 22.5816 18.4852 22.3906 18.8385C22.7248 19.316 23.2357 19.9748 23.9232 20.8151C24.0187 20.9297 24.0664 21.049 24.0664 21.1732C24.0664 21.2973 24.0234 21.4071 23.9375 21.5026C23.6797 21.8559 23.207 22.3715 22.5195 23.0495C21.832 23.7274 21.3832 24.0664 21.1732 24.0664C21.0586 24.0664 20.9345 24.0234 20.8008 23.9375L18.8242 22.3906C18.4041 22.6102 17.9696 22.7917 17.5208 22.9349C17.3681 24.2335 17.2296 25.1215 17.1055 25.599C17.0386 25.8663 16.8668 26 16.5898 26H13.4102C13.2765 26 13.1595 25.9594 13.0592 25.8783C12.959 25.7971 12.9041 25.6944 12.8945 25.5703L12.4935 22.9349C12.0256 22.7821 11.5959 22.6055 11.2044 22.4049L9.1849 23.9375C9.08941 24.0234 8.97005 24.0664 8.82682 24.0664C8.69314 24.0664 8.57378 24.0139 8.46875 23.9089C7.26562 22.8203 6.47786 22.0182 6.10547 21.5026C6.03863 21.4071 6.00521 21.2973 6.00521 21.1732C6.00521 21.0586 6.0434 20.9488 6.11979 20.8438C6.26302 20.6432 6.50651 20.3257 6.85026 19.8913C7.19401 19.4568 7.45182 19.1202 7.6237 18.8815C7.36589 18.4041 7.17014 17.9314 7.03646 17.4635L4.41536 17.0768C4.29123 17.0577 4.19097 16.998 4.11458 16.8978C4.03819 16.7975 4 16.6853 4 16.5612V13.3815C4 13.2669 4.03819 13.1571 4.11458 13.0521C4.19097 12.947 4.28168 12.885 4.38672 12.8659L7.05078 12.4648C7.18446 12.0256 7.37066 11.5864 7.60938 11.1471C7.22743 10.6029 6.71658 9.94401 6.07682 9.17057C5.98134 9.05599 5.93359 8.94141 5.93359 8.82682C5.93359 8.73134 5.97656 8.62153 6.0625 8.4974C6.31076 8.15365 6.78103 7.64041 7.47331 6.95768C8.16558 6.27496 8.61675 5.93359 8.82682 5.93359C8.95095 5.93359 9.07509 5.98134 9.19922 6.07682L11.1758 7.60938C11.5959 7.38976 12.0304 7.20833 12.4792 7.0651C12.6319 5.76649 12.7704 4.87847 12.8945 4.40104C12.9614 4.13368 13.1332 4 13.4102 4H16.5898C16.7235 4 16.8405 4.04058 16.9408 4.12174C17.041 4.20291 17.0959 4.30556 17.1055 4.42969L17.5065 7.0651C17.9744 7.21788 18.4041 7.39453 18.7956 7.59505L20.8294 6.0625C20.9154 5.97656 21.0299 5.93359 21.1732 5.93359C21.2973 5.93359 21.4167 5.98134 21.5312 6.07682C22.763 7.21311 23.5508 8.02474 23.8945 8.51172C23.9614 8.58811 23.9948 8.69314 23.9948 8.82682C23.9948 8.94141 23.9566 9.05122 23.8802 9.15625C23.737 9.35677 23.4935 9.67426 23.1497 10.1087C22.806 10.5432 22.5482 10.8798 22.3763 11.1185C22.6246 11.5959 22.8203 12.0638 22.9635 12.5221L25.5846 12.9232C25.7088 12.9423 25.809 13.002 25.8854 13.1022C25.9618 13.2025 26 13.3147 26 13.4388Z" fill="white"/>
</svg>
