<svg width="30" height="30" viewBox="0 0 30 30" fill="none" xmlns="http://www.w3.org/2000/svg">
<rect width="30" height="30" rx="5" fill="#6100FF"/>
<path d="M24.707 14.2929L16.707 6.29291C16.5672 6.15306 16.389 6.05782 16.195 6.01922C16.0011 5.98063 15.8 6.00042 15.6173 6.0761C15.4346 6.15178 15.2784 6.27994 15.1685 6.44438C15.0587 6.60882 15 6.80215 15 6.99991V10.5448C12.2683 10.7977 9.72926 12.0608 7.87973 14.087C6.0302 16.1131 5.00331 18.7565 5 21.4999V22.9999C4.99998 23.2076 5.06463 23.4101 5.18495 23.5794C5.30528 23.7487 5.47532 23.8763 5.67147 23.9445C5.86762 24.0127 6.08014 24.0182 6.27954 23.9601C6.47893 23.9021 6.65531 23.7834 6.78418 23.6205C7.76383 22.4555 8.96583 21.4973 10.32 20.8021C11.6741 20.1068 13.1532 19.6884 14.6709 19.5712C14.7207 19.5649 14.8457 19.5551 15 19.5453V22.9999C15 23.1977 15.0587 23.391 15.1685 23.5555C15.2784 23.7199 15.4346 23.8481 15.6173 23.9237C15.8 23.9994 16.0011 24.0192 16.195 23.9806C16.389 23.942 16.5672 23.8468 16.707 23.7069L24.707 15.7069C24.7999 15.6141 24.8736 15.5039 24.9238 15.3826C24.9741 15.2613 25 15.1312 25 14.9999C25 14.8686 24.9741 14.7386 24.9238 14.6173C24.8736 14.496 24.7999 14.3857 24.707 14.2929ZM17 20.5859V18.4999C17 18.3686 16.9742 18.2385 16.924 18.1172C16.8737 17.9959 16.8001 17.8856 16.7072 17.7927C16.6143 17.6999 16.5041 17.6262 16.3827 17.576C16.2614 17.5257 16.1313 17.4999 16 17.4999C15.7451 17.4999 14.7041 17.5492 14.4385 17.5849C11.7431 17.8332 9.17736 18.8572 7.05176 20.5331C7.29289 18.3274 8.33918 16.2882 9.99027 14.806C11.6414 13.3237 13.7812 12.5026 16 12.4999C16.1313 12.5 16.2614 12.4741 16.3827 12.4239C16.5041 12.3736 16.6143 12.3 16.7072 12.2071C16.8001 12.1142 16.8737 12.004 16.924 11.8826C16.9742 11.7613 17 11.6312 17 11.4999V9.41398L22.5859 14.9999L17 20.5859Z" fill="white"/>
</svg>
