<svg width="30" height="30" viewBox="0 0 30 30" fill="none" xmlns="http://www.w3.org/2000/svg">
<rect width="30" height="30" rx="5" fill="#0094FF"/>
<g clip-path="url(#clip0_6069_10409)">
<path fill-rule="evenodd" clip-rule="evenodd" d="M16.395 22.3C16.395 22.7968 15.972 23.2 15.45 23.2C14.928 23.2 14.505 22.7968 14.505 22.3V9.7C14.505 9.2032 14.928 8.8 15.45 8.8C15.972 8.8 16.395 9.2032 16.395 9.7V22.3ZM16.395 7H14.505C13.461 7 12.615 7.8055 12.615 8.8V23.2C12.615 24.1945 13.461 25 14.505 25H16.395C17.439 25 18.285 24.1945 18.285 23.2V8.8C18.285 7.8055 17.439 7 16.395 7ZM9.78001 22.3C9.78001 22.7968 9.35699 23.2 8.83499 23.2C8.31299 23.2 7.89001 22.7968 7.89001 22.3V13.3C7.89001 12.8032 8.31299 12.4 8.83499 12.4C9.35699 12.4 9.78001 12.8032 9.78001 13.3V22.3ZM9.78001 10.6H7.89001C6.84601 10.6 6 11.4055 6 12.4V23.2C6 24.1945 6.84601 25 7.89001 25H9.78001C10.824 25 11.67 24.1945 11.67 23.2V12.4C11.67 11.4055 10.824 10.6 9.78001 10.6ZM23.01 22.3C23.01 22.7968 22.587 23.2 22.065 23.2C21.543 23.2 21.12 22.7968 21.12 22.3V18.7C21.12 18.2032 21.543 17.8 22.065 17.8C22.587 17.8 23.01 18.2032 23.01 18.7V22.3ZM23.01 16H21.12C20.076 16 19.23 16.8055 19.23 17.8V23.2C19.23 24.1945 20.076 25 21.12 25H23.01C24.054 25 24.9 24.1945 24.9 23.2V17.8C24.9 16.8055 24.054 16 23.01 16Z" fill="white"/>
</g>
<defs>
<clipPath id="clip0_6069_10409">
<rect width="18.9" height="18" fill="white" transform="translate(6 7)"/>
</clipPath>
</defs>
</svg>
