<svg width="30" height="30" viewBox="0 0 30 30" fill="none" xmlns="http://www.w3.org/2000/svg">
<rect width="30" height="30" rx="5" fill="#0047FF"/>
<path d="M25.0833 10.8333C24.3942 10.8333 23.8333 11.3942 23.8333 12.0833C23.8333 12.2758 23.8808 12.4558 23.9583 12.6192L22.855 13.7225L21.23 10.1775C21.3904 10.0621 21.5212 9.91032 21.6116 9.73461C21.7019 9.5589 21.7494 9.36426 21.75 9.16667C21.75 8.4775 21.1892 7.91667 20.5 7.91667C19.8108 7.91667 19.25 8.4775 19.25 9.16667C19.25 9.5425 19.42 9.87583 19.6833 10.105L18.1267 12.5958L15.6433 8.01083C16.0592 7.7075 16.3333 7.22 16.3333 6.66667C16.3333 5.7475 15.5858 5 14.6667 5C13.7475 5 13 5.7475 13 6.66667C13 7.22 13.2742 7.7075 13.69 8.01083L11.2067 12.5958L9.65 10.105C9.91333 9.87583 10.0833 9.5425 10.0833 9.16667C10.0833 8.4775 9.5225 7.91667 8.83333 7.91667C8.14417 7.91667 7.58333 8.4775 7.58333 9.16667C7.58333 9.5825 7.79 9.94917 8.10333 10.1767L6.47833 13.7217L5.375 12.6192C5.4525 12.4558 5.5 12.2758 5.5 12.0833C5.5 11.3942 4.93917 10.8333 4.25 10.8333C3.56083 10.8333 3 11.3942 3 12.0833C3 12.7317 3.4975 13.26 4.13 13.3208L6.31583 22.0667L5.52083 24.4517C5.49976 24.5143 5.49394 24.5811 5.50386 24.6465C5.51377 24.7119 5.53913 24.7739 5.57783 24.8276C5.61653 24.8812 5.66746 24.9248 5.72639 24.9548C5.78532 24.9848 5.85055 25.0003 5.91667 25H23.4167C23.4827 25.0002 23.5478 24.9845 23.6065 24.9543C23.6652 24.9242 23.7158 24.8804 23.7542 24.8267C23.793 24.7733 23.8185 24.7114 23.8285 24.6462C23.8385 24.5809 23.8327 24.5142 23.8117 24.4517L23.0167 22.0667L25.2025 13.3208C25.5211 13.2899 25.8156 13.1376 26.025 12.8955C26.2344 12.6534 26.3426 12.3401 26.3273 12.0203C26.312 11.7006 26.1743 11.399 25.9427 11.1781C25.7111 10.9571 25.4034 10.8337 25.0833 10.8333V10.8333ZM20.5 8.75C20.5565 8.73096 20.6165 8.72438 20.6759 8.73073C20.7352 8.73707 20.7924 8.75618 20.8437 8.78675C20.8949 8.81731 20.9389 8.85861 20.9727 8.9078C21.0065 8.95699 21.0292 9.01291 21.0393 9.07171C21.0494 9.13052 21.0466 9.19081 21.0312 9.24845C21.0158 9.30609 20.9881 9.35971 20.95 9.40563C20.9119 9.45155 20.8643 9.48867 20.8105 9.51446C20.7567 9.54024 20.698 9.55407 20.6383 9.555C20.6225 9.55667 20.6067 9.55333 20.59 9.55667L20.5 9.58333C20.485 9.58333 20.4408 9.57 20.3858 9.55417C20.3775 9.55167 20.3692 9.5575 20.36 9.555C20.2684 9.5217 20.1915 9.45726 20.1427 9.37296C20.0939 9.28865 20.0763 9.18986 20.093 9.09389C20.1097 8.99791 20.1596 8.91087 20.234 8.848C20.3084 8.78512 20.4026 8.75043 20.5 8.75V8.75ZM20.4442 10.46L22.2275 14.3508L20.1842 16.3942L18.5825 13.4375L20.4442 10.46V10.46ZM14.6667 5.83333C14.8877 5.83333 15.0996 5.92113 15.2559 6.07741C15.4122 6.23369 15.5 6.44565 15.5 6.66667C15.5 6.88768 15.4122 7.09964 15.2559 7.25592C15.0996 7.4122 14.8877 7.5 14.6667 7.5C14.4457 7.5 14.2337 7.4122 14.0774 7.25592C13.9211 7.09964 13.8333 6.88768 13.8333 6.66667C13.8333 6.44565 13.9211 6.23369 14.0774 6.07741C14.2337 5.92113 14.4457 5.83333 14.6667 5.83333V5.83333ZM8.83333 8.75C8.8895 8.7359 8.94801 8.73381 9.00504 8.74387C9.06207 8.75393 9.11634 8.77591 9.1643 8.80837C9.21226 8.84083 9.25282 8.88304 9.28335 8.93225C9.31389 8.98146 9.33369 9.03656 9.34148 9.09394C9.34926 9.15133 9.34485 9.20971 9.32853 9.26527C9.31222 9.32084 9.28436 9.37233 9.24678 9.4164C9.20921 9.46046 9.16276 9.4961 9.11047 9.52099C9.05818 9.54588 9.00123 9.55946 8.94333 9.56083C8.9375 9.5625 8.93083 9.55917 8.925 9.56083L8.88417 9.57333C8.8675 9.575 8.85167 9.58333 8.83333 9.58333C8.80167 9.58333 8.77333 9.57167 8.74333 9.565V9.5575C8.72667 9.55417 8.71167 9.55667 8.695 9.55583C8.61418 9.52752 8.54407 9.47494 8.49426 9.40529C8.44444 9.33564 8.41734 9.2523 8.41667 9.16667C8.41667 8.9375 8.60417 8.75 8.83333 8.75ZM8.88917 10.46L10.7508 13.4375L9.15 16.3942L7.10667 14.3508L8.88917 10.46V10.46ZM4.5425 12.3792C4.48618 12.4265 4.41882 12.4589 4.34667 12.4733C4.33667 12.4758 4.33 12.4825 4.32 12.4858C4.29667 12.49 4.275 12.5 4.25 12.5C4.02083 12.5 3.83333 12.3125 3.83333 12.0833C3.83333 11.8542 4.02083 11.6667 4.25 11.6667C4.3323 11.6672 4.41259 11.6921 4.48079 11.7382C4.54898 11.7843 4.60204 11.8495 4.6333 11.9256C4.66455 12.0017 4.67261 12.0854 4.65645 12.1661C4.6403 12.2468 4.60065 12.3209 4.5425 12.3792V12.3792ZM6.49417 24.1667L7.05 22.5H22.2833L22.8392 24.1667H6.49417ZM22.2575 21.6667H7.07583L5.01917 13.4417L8.95583 17.3783C8.99902 17.4203 9.05076 17.4524 9.1075 17.4725C9.12333 17.4783 9.14083 17.4783 9.1575 17.4825C9.1875 17.4892 9.2175 17.5 9.25 17.5C9.32498 17.4999 9.39854 17.4795 9.46293 17.4411C9.52732 17.4027 9.58014 17.3476 9.61583 17.2817L11.5992 13.6208V13.6192L14.47 8.31917C14.4925 8.3225 14.515 8.3175 14.5375 8.31917C14.5808 8.32333 14.6225 8.33333 14.6667 8.33333C14.7108 8.33333 14.7525 8.32333 14.795 8.32C14.8175 8.31833 14.84 8.32333 14.8625 8.32L17.7333 13.62V13.6217L19.7167 17.2825C19.7476 17.3394 19.7913 17.3884 19.8444 17.4256C19.8974 17.4628 19.9584 17.4871 20.0225 17.4967C20.0433 17.4983 20.0642 17.5 20.0833 17.5C20.115 17.5 20.1442 17.4892 20.1742 17.4817C20.1917 17.4775 20.21 17.4775 20.2267 17.4717C20.2831 17.4519 20.3346 17.42 20.3775 17.3783L24.3142 13.4417L22.2575 21.6667ZM25.0833 12.5C25.0583 12.5 25.0367 12.49 25.0125 12.4858C25.0033 12.4825 24.9958 12.4758 24.9858 12.4733C24.9137 12.4589 24.8463 12.4265 24.79 12.3792C24.7318 12.3209 24.6921 12.2467 24.676 12.1659C24.6599 12.0851 24.668 12.0014 24.6994 11.9252C24.7307 11.8491 24.7839 11.7839 24.8522 11.7379C24.9206 11.6918 25.001 11.6671 25.0833 11.6667C25.3125 11.6667 25.5 11.8542 25.5 12.0833C25.5 12.3125 25.3125 12.5 25.0833 12.5ZM14.6667 15.8333C13.5175 15.8333 12.5833 16.7675 12.5833 17.9167C12.5833 19.0658 13.5175 20 14.6667 20C15.8158 20 16.75 19.0658 16.75 17.9167C16.75 16.7675 15.8158 15.8333 14.6667 15.8333ZM14.6667 19.1667C13.9775 19.1667 13.4167 18.6058 13.4167 17.9167C13.4167 17.2275 13.9775 16.6667 14.6667 16.6667C15.3558 16.6667 15.9167 17.2275 15.9167 17.9167C15.9167 18.6058 15.3558 19.1667 14.6667 19.1667Z" fill="white"/>
</svg>
