<svg version="1.2" xmlns="http://www.w3.org/2000/svg" viewBox="0 0 90 90" width="90" height="90">
	<title>New Project</title>
	<style>
		.s0 { mix-blend-mode: multiply;fill: #000000 } 
		.s1 { fill: #ff590e } 
		.s2 { fill: #ffffff } 
		.s3 { fill: #431926 } 
		.s4 { fill: #653643 } 
		.s5 { fill: #b1bbc4 } 
		.s6 { fill: #f62121 } 
		.s7 { fill: #4a2730 } 
		.s8 { fill: #6f4e5a } 
		.s9 { fill: #815565 } 
		.s10 { fill: #30121b } 
		.s11 { fill: #613e4a } 
		.s12 { fill: #896e76 } 
		.s13 { fill: #765662 } 
		.s14 { fill: #e60026 } 
		.s15 { fill: #e2e6ea } 
		.s16 { opacity: .1;fill: #000000 } 
		.s17 { fill: #2c89ff } 
	</style>
	<g id="Folder 1">
		<g id="Layer" style="opacity: .1">
			<path id="Layer" class="s0" d="m67.4 44.3c1.1-1.9 4.6-3.1 7-4c3.7-1.3 12.2-4.2 12.5-3.9q0.1 0.1 0.1 0.2q0 0.2 0 0.3c0.1 0.1-8.9 8.4-15.2 9.7c-1.4 0.3-2.8 0.3-3.8-0.2c-0.9-0.5-1.2-1.3-0.6-2.1z" />
		</g>
		<path id="Layer" class="s1" d="m75.5 44.3c-0.2 0.3-1.2 0.2-1.7 0.2c-0.6 0-1.3 0.8-1.3 0.8c0 0 0.3-1.2 0.9-1.3c0.7-0.2 1.8-0.3 1.8-0.3c0 0 0.5 0.3 0.3 0.6z" />
		<path id="Layer" class="s1" d="m76.1 44.4c-0.2 0.3-1.3 0.3-1.8 0.3c-0.5 0-1.2 0.7-1.2 0.7c0 0 0.2-1.2 0.9-1.3c0.6-0.1 1.7-0.3 1.7-0.3c0 0 0.6 0.3 0.4 0.6z" />
		<path id="Layer" class="s1" d="m74.7 43.8c0 0 0.7-0.2 1.2-0.2q0.5 0.1 1 0c0.3-0.1 0.8-0.3 0.8-0.3q-0.2 0.4-0.6 0.6c-0.3 0.2-1 0.6-1 0.6l-1.1-0.3z" />
		<path id="Layer" class="s1" d="m76.4 44.2c-0.1 0.3-1.1 0.6-1.6 0.7c-0.5 0.1-1.1 0.9-1.1 0.9c0 0 0.1-1.2 0.7-1.4c0.6-0.3 1.6-0.6 1.6-0.6c0 0 0.5 0.1 0.4 0.4z" />
		<path id="Layer" fill-rule="evenodd" class="s1" d="m75 44.1c0.2-0.2 0.6-2.4 0.6-2.4l0.8 0.3l-0.5 2zm-4.3-2.4c0 0-1.2 0.2-1.9 0.3c-0.6 0.1-0.8 1.3-0.8 1.3c0 0 0.7-0.7 1.2-0.8c0.5 0 1.6 0.1 1.8-0.2c0.1-0.3-0.3-0.6-0.3-0.6z" />
		<path id="Layer" class="s1" d="m71.5 42.4c-0.2 0.4-1.2 0.3-1.7 0.3c-0.6 0-1.3 0.7-1.3 0.7c0 0 0.3-1.1 0.9-1.3c0.7-0.1 1.7-0.2 1.7-0.2c0 0 0.6 0.2 0.4 0.5z" />
		<path id="Layer" class="s1" d="m70.1 41.8c0 0 0.8-0.2 1.2-0.1q0.6 0.1 1.1-0.1c0.2-0.1 0.7-0.3 0.8-0.3q-0.3 0.4-0.7 0.6c-0.3 0.2-0.9 0.6-0.9 0.6l-1.2-0.2z" />
		<path id="Layer" class="s1" d="m71.8 42.2c-0.1 0.4-1 0.6-1.5 0.7c-0.5 0.1-1.1 0.9-1.1 0.9c0 0 0-1.2 0.6-1.4c0.7-0.2 1.7-0.6 1.7-0.6c0 0 0.5 0.1 0.3 0.4z" />
		<path id="Layer" class="s1" d="m70.4 42.1c0.2-0.2 0.7-2.4 0.7-2.4l0.8 0.3l-0.6 2.1z" />
		<path id="Layer" class="s2" d="m84.7 32.2l4.1 1.5c0 0-2 1.3-3.1 1.4c-1.1 0.1-6.9-0.1-6.9-0.1z" />
		<path id="Layer" class="s3" d="m72.8 31.4c0 0 0.7 4 0.7 5.7c0 1.2-1.1 2.8-1.6 3.6q-0.2 0.2-0.4 0.3q-0.3 0.1-0.5 0q-0.2-0.1-0.3-0.3q-0.2-0.1-0.1-0.3c0-0.7-0.2-2.1-1.7-3.3c-2.2-1.7-4.1-4.2-4.1-4.2z" />
		<path id="Layer" class="s4" d="m67.3 21.9c0 0 0.5 1.1 2 2.5c1.5 1.3 5 2.5 8 3.7c3 1.2 8.2 4.4 8.2 4.4c0 0-1 2-2.1 2.5c-1 0.6-11.8 1.8-15.1 1.1c-3.2-0.7-5.5-4.7-6-6c-1-2.9 2.9-7.4 2.9-7.4z" />
		<path id="Layer" class="s4" d="m77.4 33.4c0 0 0.7 3.9 0.7 5.6c0 1.2-1.1 2.9-1.6 3.7q-0.2 0.2-0.4 0.2q-0.3 0.1-0.5 0q-0.2 0-0.3-0.2q-0.2-0.2-0.1-0.4c0-0.7-0.2-2-1.8-3.3c-2.1-1.7-4-4.1-4-4.1z" />
		<path id="Layer" class="s5" d="m67.4 20.8c0 0 0.3 1.5 0.5 1.9c0.1 0.4 1.1 1.5 1.1 1.5c0 0-0.4 0.5-0.8 0.3c-0.4-0.2-0.8 0.1-1 0.5c-0.1 0.5-1.4 2.2-1.5 1.3c0-0.8-0.8-0.4-1.1-0.1c-0.3 0.3-1.6 2.1-2.2 1.2c0.2-1.1 1.6-3.1 1.6-3.1z" />
		<path id="Layer" class="s2" d="m66.4 19.1q0.6 0.5 0.9 1.3q0.2 0.8 0 1.5c-0.6 2.1-4 3.4-5.5 2.4c-0.2-0.2-0.2-0.5-0.2-1.3c0-0.5-0.3-1-0.1-1.6c0.2-0.8 0.7-1.6 1.3-2.2c0.5-0.5 1.1-0.7 1.8-0.7c0.7 0 1.3 0.2 1.8 0.6z" />
		<path id="Layer" class="s5" d="m63.4 22.9c-0.1-0.7 1.2-1.3 1.4-1.5c0.6-0.4 0.7-0.7 0.7 0.1c0.1 0.3 0.2 0.8-0.7 1.1c-0.5 0.3-1.4 0.6-1.4 0.3z" />
		<path id="Layer" class="s6" d="m62.4 24.6l1.8-0.8q0 0.3-0.1 0.6c-0.4 0.6-2.2 1.6-2.2 1.6z" />
		<path id="Layer" class="s1" d="m61.4 22.9c0 0 0.4-0.4 0.8-0.3c0.4 0.1 0.3 0.6 0.8 0.8c0.5 0.2 0.9 0.1 1.2 0.4c0.2 0.1-1.1 0.8-1.9 1.7c-0.8 0.9-0.6 1.6-0.7 1.6c-0.2 0-0.8-1.4-0.8-2.3q0.1-1 0.6-1.9z" />
		<path id="Layer" class="s7" d="m64.9 21.8c0.1 0.3-0.2 0.7-0.5 0.7c-0.2 0-0.5-0.1-0.5-0.3q0.1-0.2 0.3-0.3q0.1-0.2 0.3-0.2c0.2-0.1 0.3 0 0.4 0.1z" />
		<path id="Layer" class="s8" d="m63.4 22.9q-0.1 0-0.1 0q0 0 0-0.1q0 0 0 0q0 0 0 0c0.1-0.3 0.3-0.6 0.6-0.8c0.1-0.2 0.4-0.4 0.7-0.5c0.4-0.3 0.7-0.5 0.8-0.6q0 0 0 0q0-0.1 0.1-0.1q0 0 0 0.1q0 0 0 0q0 0 0 0q0 0 0 0q0 0 0 0.1q0 0 0 0c-0.1 0.1-0.4 0.3-0.8 0.6c-0.3 0.2-0.6 0.4-0.8 0.5q-0.3 0.3-0.5 0.7q0 0 0 0q0 0.1 0 0.1z" />
		<path id="Layer" class="s9" d="m67.8 24.3c1.8-1.8 5.4 0 7.4 0.9c3.2 1.4 6.3 3.2 9.3 5.1c1.3 0.8 2.6 1.6 3.7 2.6l-3.7 0.6q-0.5 0.1-1-0.1l-0.4-0.2l-0.3 0.3q0 0.1-0.2 0.2q-0.1 0-0.2 0l-0.7 0.1c-0.4 0-0.8-0.1-1.1-0.4l-0.5-0.5l-0.1 0.4q-0.1 0.2-0.3 0.4q-0.3 0.1-0.5 0.1h-0.6q-0.5 0-0.8-0.4l-1-0.9l-0.1 0.6q-0.1 0.2-0.2 0.4q-0.2 0.1-0.5 0.1c-0.5 0-1.2-0.1-1.6-0.2c-4.1-0.5-5.1-1.5-5.6-2.1c-0.9-0.9-1.5-2.1-1.7-3.3c-0.1-0.5-0.4-2.6 0.7-3.7z" />
		<g id="Layer" style="opacity: .1">
			<path id="Layer" class="s0" d="m17.9 47c2.2-1.9 4.8-3.3 7.5-4.6c2.7-1.2 5.4-2.4 8.2-3.4c3.5-1.2 6.9-1.4 10.6-0.6c3.8 0.8 7.5 1.8 11.2 2.9q0.3 0.1 0.6 0.3c0.7 0.4 1.2 1.1 0.8 1.9c-2.6 4.5-6.9 7.9-11.7 10.5c-2.6 1.4-5.4 2.8-8.4 3.5c-3.1 0.7-5.9 0.3-8.8-0.8c-3-1.3-5.9-2.6-8.7-4.1c-1.1-0.6-2.5-1.3-3-2.4c-0.5-1.4 0.6-2.4 1.7-3.2z" />
		</g>
		<path id="Layer" class="s7" d="m9.7 14.4c1.1-2.8-0.2-4.4 0.9-4.5c1.1-0.1 2.4 3.3 2.4 3.3c0 0-4 3-3.3 1.2z" />
		<path id="Layer" class="s10" d="m9.9 13.9c0.3-1.4 0.1-2.6 0.3-3.1c0.2-0.4 1.6 2.4 1.6 2.4c0 0-2.2 2.1-1.9 0.7z" />
		<path id="Layer" class="s7" d="m30.6 25.5c0.7 3.2-1.5 11-1.5 11.9c-0.1 0.9-0.6 8.2-1 9c-0.2 0.3-1.1 3.8-4 4.9c-1 0.3-1.9 0.1-2.7-0.2c-1.7-0.7-3.1-1.4-2.6-2.7c0.5-1.4 3.8-3.6 4-4.5c0.1-0.8-1.3-6.9-1.6-8.2c-0.3-1.3-2.4-9.3-2.4-9.3c0.5-10 11-4.1 11.8-0.9zm16.2-9c0.8 3.3-1.5 11.1-1.5 12c0 0.8-0.8 8.4-1 8.9c-0.1 0.4-1.4 3.5-4.4 4.6c-2.9 1-5.1-1.4-5.2-2.4c-0.1-1 4.2-3.8 4.3-4.6c0.2-0.9-1.2-7-1.6-8.2c-0.3-1.3-0.8-9.1-0.8-9.1c0.5-10.1 9.4-4.4 10.2-1.2z" />
		<path id="Layer" class="s11" d="m19.6 12.5c0 0 4.6-3.6 7.7-4.2c3.1-0.6 9.4 0.7 12.6 0.3c3.2-0.4 7.5-2.3 10.6-1.7c3 0.6 5.8 2.9 6.8 5.3c1 2.5 1.3 7.7 0.6 10.5c-0.7 2.7-6.1 6.6-13.2 9.9c-7 3.3-14.5 5.8-19.6 3.2c-5-2.7-9.9-7.2-8.2-14.4c1.6-7.3 2.7-8.9 2.7-8.9z" />
		<path id="Layer" class="s7" d="m24.1 10.4c4.1 7-1 15.8-3.5 17.4c-2.5 1.7-8.3-0.6-9.4-0.7c-0.9-0.1-4.7 1.1-5.5 1.1q-0.7 0-1.4-0.4q-0.1-0.1-0.1-0.1q-0.1-0.1-0.1-0.2q0-0.1 0.1-0.2q0-0.1 0.1-0.1c-0.6-0.3-1.4-0.3-1.8-0.7c-0.9-1-1.6-2.4-1.1-3.2c0.9-1.4 4.5-4.4 4.5-4.4c0 0 0.8-3.2 1.5-4.1c1-1.2 2.3-2.1 3.9-2.6c0.3-0.1 4.5-0.5 4.5-0.5l7.9-1.9q0.2 0.3 0.4 0.6z" />
		<path id="Layer" class="s11" d="m40.8 28.8c1.4 3.1-0.7 12-0.6 12.9c0.1 0.9 0.6 8.6 0.6 9.1c-0.1 0.3 0 3.9-2.8 5.4c-1 0.6-2.1 0.3-3.1 0c-1.6-0.4-2.8-1.1-2.5-2.6c0.2-1.4 2.7-3.5 2.7-4.4c0-0.9-2.6-5.7-3.2-7c-0.5-1.2-3.5-9.8-3.5-9.8c-1.2-10 11.1-6.6 12.4-3.6zm17.4-12.1c0.1 3.8-0.6 12.5-0.5 13.4c0.1 0.8 0.6 8.5 0.6 9c-0.1 0.3-0.2 3.5-2.9 5.2c-0.6 0.4-2 0.5-3.3-0.2c-1.2-0.6-2.5-0.7-2.6-2.1c-0.1-1 3.2-3.6 3.2-4.5c0-0.8-3.5-6.6-4.1-7.8c-0.5-1.2-2.2-8.6-2.2-8.6c-1.2-10 11.7-7.7 11.8-4.4z" />
		<path id="Layer" class="s11" d="m24.8 27.1c0-2.5 7.5-6.9 12.3-3.8c4.8 3.1 3.2 15.5 3.2 15.5c0 0-3.5 4.2-9.6-1.9c-5.2-5.3-5.9-7.3-5.9-9.8z" />
		<path id="Layer" class="s8" d="m22.8 24.3c-0.2 1 0 2.3-0.7 3.1c-2.2 2.4-7.4 1.2-9.4 0.4c-2-0.9-3.3-1.9-6.3-0.9c-0.6 0.1-1.7 0.1-2.1 0.3c-0.4-0.2-1.3-0.3-1.7-0.6c-1.3-1.1-1.6-2.7-1.2-3.3c0.9-1.5 4.5-4.4 4.5-4.4c0 0 0.8-3.2 1.5-4.1c1-1.2 2.3-2.1 3.9-2.6c0.3-0.1 4.5-0.5 4.5-0.5l5.3-1.3c1.1 2.4 1.8 4.9 2.1 7.4c0.1 1.3 0.3 4-0.4 6.5z" />
		<path id="Layer" class="s12" d="m5.9 18.9c0 0 0.8 1 0.3 2.8c-0.5 1.4-3 3.4-3.6 2.6c-0.6-0.8-1.6-0.2-1.4-0.8c0.5-1.2 4.7-4.6 4.7-4.6zm4.9-1c0.3 0.5-0.2 1.2-0.5 1.5c-0.7 0.5-1.8 0.5-2.1 0.1c-0.3-0.6 0.2-1.8 1.1-2.1c0.5-0.1 1.3 0 1.5 0.5z" />
		<path id="Layer" class="s7" d="m1.7 22.8c0 0 1.7 1 1.4 1.7c-0.2 0.4-1 0-1.1 0.5c0 0.2 0.2 0.4 0.1 0.6q0 0.1-0.1 0.3c0 0-1.3-1.4-1.1-2.2c0.2-0.8 0.8-0.9 0.8-0.9z" />
		<path id="Layer" class="s10" d="m10 18.8c0.1 0.4-0.2 0.7-0.5 0.8c-0.3 0.1-0.8 0-0.9-0.3c-0.2-0.3 0.1-1 0.6-1.1q0.3 0 0.5 0.1q0.3 0.2 0.3 0.5z" />
		<path id="Layer" class="s7" d="m26.7 8.4c0 0-1.9 2.9-1.2 6.2q-1.3-2.2-2.2-4.6c0 0 2-1.3 3.4-1.6zm-13.4 4.8q-0.1-0.2 0-0.3q0-0.2 0.2-0.3c0.8-0.6 2.8-2.2 3.6-1.7c0.9 0.7 0.9 3.9-0.8 5.3c-1.3 1.2-2.6-1.9-3-3z" />
		<path id="Layer" class="s10" d="m13.4 13.4c0 0 2.2-1.9 2.9-1.4c0.7 0.5-0.2 2.9-1.5 4c-0.6-0.4-1.4-2.6-1.4-2.6z" />
		<path id="Layer" class="s11" d="m21.3 51c-1.7-0.7-3-1.3-2.5-2.6c0.9-0.7 4.1 1.2 4.5 1.5c0.3 0.3 0.5 1.1 0.5 1.5c-0.9 0.3-1.8 0-2.5-0.4z" />
		<path id="Layer" class="s13" d="m36.9 55.2c0.5 0.4 0.6 1 0.5 1.2c-0.8 0.4-1.3 0.2-2.5-0.2c-1.4-0.4-2.4-0.8-2.5-2q0-0.1 0-0.2q0.1-0.1 0.2-0.2c0.7-0.4 3.8 1.1 4.3 1.4zm17.7-11.4c0.3 0.3 0.3 0.5 0.2 0.8c-0.8 0.2-1.9 0-3-0.5c-1.1-0.5-2.4-1.1-2.3-2.1q0-0.2 0.2-0.3c0.7-0.5 4.3 1.4 4.9 2.1z" />
		<path id="Layer" fill-rule="evenodd" class="s7" d="m28 32.4q0.1-2 0.7-3.8c0.1 1.9 1.2 7 1.2 7l-1.2-0.9c0 0-0.7-1.3-0.7-2.3zm17.7-4l2.5 0.3c-1.1-1.9-2.3-5.5-2.3-5.5c-1 3.6-0.2 5.2-0.2 5.2z" />
		<g id="Layer" style="opacity: .1">
			<path id="Layer" class="s0" d="m43 70.2c0.9-0.9 3.3-2.3 4.5-2.8c2.6-1.3 5.2-2.6 7.8-3.9q2-1.1 3.9-2.2c1.1-0.7 2.3-1.6 3.6-2.1q1.2-0.5 2.4-0.4c2.8 0.8 5.7 1.8 8.1 3.4c0 0.1 1.3 0.9-0.2 2.4c-1.8 1.8-4.1 2.9-6.4 4.3q-3.9 2.3-7.9 4.6c-1.3 0.7-2.5 1.6-3.8 2.2c-1.3 0.5-2.7 0.4-4 0c-1.4-0.4-9.7-3.7-8-5.5z" />
		</g>
		<path id="Layer" class="s14" d="m38.9 44.3c0 0-0.6-2.9-0.3-3.8c0.3-1 0.6 0.5 1.1 1.2c0.6 0.7 2.1 1.9 2.1 1.9c0 0-2.4 1.1-2.9 0.7z" />
		<path id="Layer" class="s15" d="m39.2 44.4c0 0-0.5-2.2-0.4-2.7c0.1-0.5 0.5 0.7 0.7 1c0.3 0.3 1.6 1.4 1.5 1.7c-0.2 0.3-1.8 0-1.8 0z" />
		<path id="Layer" fill-rule="evenodd" class="s14" d="m51 55.6c0 0-0.3 7.5-0.9 8.4c-0.7 0.8-3.8 4.3-3.8 5.4c0 2.1-3.3 1.5-3.3 0.6c0-0.6 1.4-1.4 1.4-1.4l2.7-5.3l-1.4-7.8c3.7-2 5.3 0.1 5.3 0.1zm9.7-10c0.2 1.8 3.7 7.1 3.7 7.1c0 0 0.3 3.4 0.3 3.8c0 0.4-1.5 2.2-1.1 3.1c0.3 0.8 3.1-0.1 3.1-1.5c-0.1-1.3 0.7-7.3 0.7-7.3c0 0-1.7-2.4-1.7-3.2c0.1-3 1.7-3.9 0.2-4.5c-2.9-1.2-5.4 0.8-5.2 2.5zm7.1-0.8c3.2 5.6 5.7 12.7 9.5 13.1c4.4 0.6 5.6-1.5 5.6-2.1c-5.4 1.2-5.9-9-7.2-12.4c-2.9-7.2-8.6-4.9-8.6-4.9c0 0-1.7 2 0.7 6.3z" />
		<path id="Layer" class="s6" d="m36.8 47.6c0.2-0.4 1.7-3.8 3.3-4c1.7-0.2 3.9-0.2 5.1 0.4c1.3 0.7 1.8 2.5 3.6 3.2c1.8 0.7 3.8-1.1 6.6-2.3c2.9-1.1 2.9-1.9 5.3-4.3c2.3-2.4 4.1-3.5 6.7-3.3c2.6 0.2 5 2.6 5.4 4.4c0.5 1.8 0.8 5.8 0.4 7.6c-0.2 0.9-4.6-1.2-8.1 0.2c-3.4 1.5-7 10-9 10.8c-1.9 0.9-7.2-0.2-8.5-0.8c-1.4-0.5-2.5-3.8-3.8-5.2c-1.4-1.4-2.6-1.3-3.4-1.5c-0.8-0.2-5.1 1.2-6 0.4c-0.9-0.8-0.7-1.8-0.5-2c0.2-0.2 3.1-2.6 3.1-2.6c0 0-0.3-0.6-0.2-1z" />
		<path id="Layer" class="s14" d="m42.9 44.5c0 0 4.4-2.4 5.1-2.1c0.7 0.4-2.1 3.5-2.1 3.5c0 0-0.7 0.4-1 0.3c-0.7-0.3-2.1-0.8-2-1.7z" />
		<path id="Layer" class="s6" d="m73.3 44.4c0.6 3.6 0.3 4.5 0.2 7.5c0 0.8 1.6 3.2 1.5 4.2c-0.2 0.9-0.7 5.3-0.7 6.6c0.1 1.4-2.7 2.3-3.1 1.5c-0.3-0.9 1.2-2.7 1.2-3.1c0-0.5-0.2-4.3-0.2-4.3c0 0-6.6-7.3-6.8-9.1c-0.2-1.7 7.3-6.9 7.9-3.3z" />
		<path id="Layer" fill-rule="evenodd" class="s1" d="m41.5 48.7c-0.1 0.5-1.4 0.8-1.8 0.8c-0.4 0-0.9-0.4-0.9-0.7c-0.1-0.6 0.8-1.4 1.5-1.2c0.4 0.1 1.3 0.7 1.2 1.1zm-4.4-1.7c0.2-0.2 0.7 1 0.5 1.3c0 0-0.5 0.4-0.5 0.3c-0.2-0.3-0.3-0.6-0.3-1q0.1-0.3 0.3-0.6z" />
		<path id="Layer" class="s2" d="m66 49.3q-0.4 0.1-0.8 0.2c-3.5 1.5-7.1 10-9 10.8c-2 0.8-7.3-0.2-8.6-0.8c-1.4-0.5-2.5-3.8-3.8-5.2c-1.4-1.4-2.6-1.3-3.4-1.5c-0.8-0.2-5.1 1.2-6 0.4c-0.6-0.6-0.7-1.2-0.6-1.6q0.6 0.4 1.4 0.5c1 0.1 5.7-2.9 8.9-1.8c3.2 1.1 6 7.5 7.7 7.7c1.6 0.3 11.2-9.8 14.2-8.7z" />
		<path id="Layer" class="s10" d="m34 51.2c0 0 0.8 0.2 1.1 0.7c0.3 0.5-0.7 0.7-0.9 0.6c-0.1-0.2-0.8-1.1-0.2-1.3z" />
		<path id="Layer" class="s6" d="m58 57c-0.3 2.3 0.2 9.8-0.5 10.8c-0.7 1.1-3 5-2.8 6.1c0.4 2-3 2-3.2 1.1c-0.1-0.6 1.2-1.6 1.2-1.6l1.8-5.7c0 0-0.5-4.6-3.7-10.3c-3.6-6.5 7.6-3 7.2-0.4z" />
		<path id="Layer" class="s14" d="m50.1 47.3c1.5-0.2 3.2-1.5 5.3-2.3c2.5-1 2.9-1.8 4.5-3.5c-1.2 2.1-2.2 4.6-3.5 4.9c-1.8 0.4-6.3 0.9-6.3 0.9z" />
		<path id="Layer" class="s6" d="m57.9 61.5c0 0-0.5-1.4-0.7-2.3c-0.1-1-0.6-2.4-0.9-3.5c-0.3-1 0.8-3 0.8-3c0 0 1.1 2 1.2 2.6c0.1 0.6-0.4 3.8-0.4 3.8z" />
		<path id="Layer" fill-rule="evenodd" class="s10" d="m40.3 48.8c-0.1 0.3-0.5 0.5-0.8 0.4q-0.1 0-0.3-0.1q-0.1-0.1-0.2-0.3c0-0.3 0.4-0.7 0.8-0.6c0.2 0.1 0.5 0.3 0.5 0.6zm-3.2-1.2c0.3 0 0.5 0.6 0.3 0.8c0 0-0.3 0.3-0.4 0.2q-0.3-0.4-0.2-0.9c0-0.1 0.2-0.1 0.3-0.1z" />
		<path id="Layer" class="s15" d="m43 44.9c0 0 3.4-1.6 3.6-1.3c0.1 0.2-1.4 2.5-1.7 2.6c-0.3 0-1.8-0.7-1.9-1.3z" />
		<path id="Layer" class="s2" d="m77.9 58c-1-0.7 0.7-1.4 1.3-1.4c0.7 0 0.6-0.9 0.3-1.5c-0.1-0.1 0-0.2 0.1-0.3c0.4 0.5 0.9 0.8 1.5 1c0.6 0.1 1.2 0.2 1.8 0c0 0.6-1.1 2.5-5 2.2z" />
		<path id="Layer" class="s16" d="m11.6 61q-0.4-0.6-0.8-1.2c-0.7-1.2-1.5-2.7-1-3.8q0-0.2 0.2-0.4q0.1 0 0.1-0.1c1.1-0.9 3.7-0.5 3.7-0.5q0.4-0.1 0.7-0.3c0.6-0.2 1.4-0.2 2.2-0.1q2.4 0.3 4.6 1.3q1 0.4 1.9 1c2.2 0.7 4.6 1.7 5.4 3.1c0.7 1 0.7 1.7 0.5 2c1.7 1.9 3.5 4.3 4.4 7.2l0.1-0.1c0 0 5.5 2.2 6.2 4.9c0.8 2.7-2.9 2.8-3 3.9c-0.1 1.2 0.6 6.3-1.2 6c-2-0.3-4.6-9.6-4.3-12.1q-0.3-0.3-0.7-0.5q-1.3-0.9-2.8-1.7q-0.7-0.4-1.4-0.6h-0.1q-1.1-0.4-2.4-0.7c0.1 1.1 0.1 2.8-0.4 2.3c-0.5-0.4-1.2-1.9-1.6-2.9q-0.7-0.2-1.2-0.3c0.3 1.5 0.3 3.4-0.4 3.5c-0.8 0.2-2.3-2.7-3-4.6q-1.2-0.5-2.2-1.4q-2-1.6-3.4-3.8q-0.1 0-0.1-0.1z" />
		<path id="Layer" class="s1" d="m33.6 66.5c0 0 5.5 2.2 6.2 4.9c0.8 2.7-2.9 2.8-3 3.9c-0.1 1.1 0.6 6.2-1.2 6c-2.1-0.3-5-11.3-4.2-12.6q0.9-1.3 2.2-2.2z" />
		<path id="Layer" class="s2" d="m34.2 69.3c0 0.6 0.2 1.4-0.1 1.6c-0.4 0.3-1.3-0.8-3.5-2.3q-1.3-0.9-2.8-1.6q-1.8-0.9-3.8-1.4c-3.5-1.1-4.3-0.8-6.4-1.8q-1.3-0.6-2.5-1.5c-3.7-3-6.4-8.2-5.1-9.3c1.2-1.1 2.1 0.1 4.5-0.9c2.1-0.9 7.5 1 9.7 2.9c2.1 1.9 9 6.7 10 14.3z" />
		<path id="Layer" class="s17" d="m13.8 52.3c0 0-1.1 0.8-0.5 1.9c0.6 1.1 2.9 1.2 3 4c0.1 0.9-4 1.5-4.7 0.2c-0.8-1.3-3-4.2-1.5-5.5c1.1-0.9 3.7-0.6 3.7-0.6z" />
		<path id="Layer" class="s10" d="m12.7 55.3c0.4-0.2 1.1 0.4 1.3 1c0.2 0.6-0.2 0.9-0.6 1.1c-0.5 0.1-1.2-0.3-1.2-0.9c0-0.7 0.2-1.1 0.5-1.2z" />
		<path id="Layer" class="s1" d="m20.3 62.9c0.3 0.7 1.1 5.1 0 5.3c-1.1 0.3-3.4-5.3-3.5-5.9q-0.1-0.2 0-0.4q0.1-0.2 0.3-0.3c0.6 0.1 2.9 0.6 3.2 1.3zm3.2 5c-0.7-0.6-2.2-3.9-1.9-4.1c0.3-0.3 2.3 1 2.3 1c0 0 0.4 3.8-0.4 3.1z" />
		<path id="Layer" class="s6" d="m18.8 53.2c0 0 8.1 1.4 9.8 4.1c1.7 2.8-0.9 2.7-0.9 2.7c0 0-3.7-4.4-8.9-6.8z" />
	</g>
</svg>