<svg width="21" height="21" viewBox="0 0 21 21" fill="none" xmlns="http://www.w3.org/2000/svg">
<path d="M10.5 1.53125C5.68359 1.53125 1.78125 5.43359 1.78125 10.25C1.78125 15.0664 5.68359 18.9688 10.5 18.9688C15.3164 18.9688 19.2188 15.0664 19.2188 10.25C19.2188 5.43359 15.3164 1.53125 10.5 1.53125ZM10.5 17.2812C6.59766 17.2812 3.46875 14.1523 3.46875 10.25C3.46875 6.38281 6.59766 3.21875 10.5 3.21875C14.3672 3.21875 17.5312 6.38281 17.5312 10.25C17.5312 14.1523 14.3672 17.2812 10.5 17.2812ZM12.6445 13.625C12.8555 13.7656 13.1016 13.7305 13.2422 13.5195L13.9102 12.6406C14.0508 12.4297 14.0156 12.1836 13.8047 12.043L11.4844 10.3203V5.32812C11.4844 5.11719 11.2734 4.90625 11.0625 4.90625H9.9375C9.69141 4.90625 9.51562 5.11719 9.51562 5.32812V11.1289C9.51562 11.2344 9.55078 11.375 9.65625 11.4453L12.6445 13.625Z" fill="url(#paint0_linear_584_622)"/>
<defs>
<linearGradient id="paint0_linear_584_622" x1="21" y1="0" x2="0" y2="21" gradientUnits="userSpaceOnUse">
<stop offset="0.0677083" stop-color="#00B5DD"/>
<stop offset="0.510417" stop-color="#0091E2"/>
<stop offset="0.90625" stop-color="#0084E4"/>
</linearGradient>
</defs>
</svg>
