<svg version="1.2" xmlns="http://www.w3.org/2000/svg" viewBox="0 0 90 90" width="90" height="90">
	<title>New Project</title>
	<defs>
		<linearGradient id="g1" x1="39077.1" y1="19766.8" x2="67814.8" y2="19766.8" gradientUnits="userSpaceOnUse">
			<stop offset="0" stop-color="#c4c4c4"/>
			<stop offset="1" stop-color="#fafafa"/>
		</linearGradient>
		<linearGradient id="g2" x1="39082.7" y1="19242" x2="70191.5" y2="19242" gradientUnits="userSpaceOnUse">
			<stop offset="0" stop-color="#fafafa"/>
			<stop offset=".3" stop-color="#f5f5f5"/>
			<stop offset=".6" stop-color="#e7e7e7"/>
			<stop offset=".9" stop-color="#cfcfcf"/>
			<stop offset="1" stop-color="#c4c4c4"/>
		</linearGradient>
		<linearGradient id="g3" x1="6696.7" y1="9347.4" x2="18301.5" y2="9347.4" gradientUnits="userSpaceOnUse">
			<stop offset="0" stop-color="#12c2e9"/>
			<stop offset="1" stop-color="#7d1edc"/>
		</linearGradient>
		<linearGradient id="g4" x1="6696.8" y1="15082.3" x2="18301.4" y2="15082.3" gradientUnits="userSpaceOnUse">
			<stop offset="0" stop-color="#c9f9ff"/>
			<stop offset=".1" stop-color="#c3f8ff"/>
			<stop offset=".3" stop-color="#b0f4ff"/>
			<stop offset=".6" stop-color="#93eeff"/>
			<stop offset=".8" stop-color="#69e5ff"/>
			<stop offset="1" stop-color="#43ddff"/>
		</linearGradient>
		<linearGradient id="g5" x1="6810" y1="17298.8" x2="10906.7" y2="17298.8" gradientUnits="userSpaceOnUse">
			<stop offset="0" stop-color="#12c2e9"/>
			<stop offset="1" stop-color="#7d1edc"/>
		</linearGradient>
		<linearGradient id="g6" x1="5052.7" y1="15424.3" x2="11874.6" y2="17058" gradientUnits="userSpaceOnUse">
			<stop offset="0" stop-color="#c9f9ff"/>
			<stop offset=".1" stop-color="#c3f8ff"/>
			<stop offset=".3" stop-color="#b0f4ff"/>
			<stop offset=".6" stop-color="#93eeff"/>
			<stop offset=".8" stop-color="#69e5ff"/>
			<stop offset="1" stop-color="#43ddff"/>
		</linearGradient>
		<linearGradient id="g7" x1="8729.2" y1="13706.1" x2="5816.1" y2="14087.8" gradientUnits="userSpaceOnUse">
			<stop offset="0" stop-color="#12c2e9"/>
			<stop offset="1" stop-color="#7d1edc"/>
		</linearGradient>
		<linearGradient id="g8" x1="21.5" y1="47.6" x2="27.7" y2="51.5" gradientUnits="userSpaceOnUse">
			<stop offset="0" stop-color="#12c2e9"/>
			<stop offset="1" stop-color="#7d1edc"/>
		</linearGradient>
		<linearGradient id="g9" x1="15.9" y1="50.4" x2="33" y2="50.4" gradientUnits="userSpaceOnUse">
			<stop offset="0" stop-color="#c9f9ff"/>
			<stop offset=".1" stop-color="#b2eff8"/>
			<stop offset=".3" stop-color="#b0f4ff"/>
			<stop offset=".6" stop-color="#93eeff"/>
			<stop offset=".8" stop-color="#69e5ff"/>
			<stop offset="1" stop-color="#43ddff"/>
		</linearGradient>
		<linearGradient id="g10" x1="348.5" y1="194.6" x2="373" y2="207.7" gradientUnits="userSpaceOnUse">
			<stop offset="0" stop-color="#12c2e9"/>
			<stop offset="1" stop-color="#7d1edc"/>
		</linearGradient>
		<linearGradient id="g11" x1="-88095.1" y1="5308" x2="-85777.1" y2="7855.6" gradientUnits="userSpaceOnUse">
			<stop offset="0" stop-color="#807dfb"/>
			<stop offset="1" stop-color="#6d6ced"/>
		</linearGradient>
		<linearGradient id="g12" x1="-16797.7" y1="810.1" x2="-16769.7" y2="810.1" gradientUnits="userSpaceOnUse">
			<stop offset="0" stop-color="#12c2e9"/>
			<stop offset="1" stop-color="#7d1edc"/>
		</linearGradient>
		<linearGradient id="g13" x1="1061" y1="341.9" x2="1117.2" y2="391.7" gradientUnits="userSpaceOnUse">
			<stop offset="0" stop-color="#12c2e9"/>
			<stop offset="1" stop-color="#7d1edc"/>
		</linearGradient>
		<linearGradient id="g14" x1="2288.7" y1="3956.9" x2="2160.6" y2="4098" gradientUnits="userSpaceOnUse">
			<stop offset="0" stop-color="#12c2e9"/>
			<stop offset="1" stop-color="#7d1edc"/>
		</linearGradient>
		<linearGradient id="g15" x1="3962.5" y1="6544.5" x2="4404.2" y2="6544.5" gradientUnits="userSpaceOnUse">
			<stop offset="0" stop-color="#12c2e9"/>
			<stop offset="1" stop-color="#7d1edc"/>
		</linearGradient>
		<linearGradient id="g16" x1="3646.6" y1="7665.9" x2="4035.3" y2="7259.8" gradientUnits="userSpaceOnUse">
			<stop offset="0" stop-color="#12c2e9"/>
			<stop offset="1" stop-color="#7d1edc"/>
		</linearGradient>
		<linearGradient id="g17" x1="824.2" y1="2186.1" x2="838.9" y2="2186.1" gradientUnits="userSpaceOnUse">
			<stop offset="0" stop-color="#12c2e9"/>
			<stop offset="1" stop-color="#7d1edc"/>
		</linearGradient>
		<linearGradient id="g18" x1="1947" y1="3227.6" x2="1807.2" y2="3142.6" gradientUnits="userSpaceOnUse">
			<stop offset="0" stop-color="#12c2e9"/>
			<stop offset="1" stop-color="#7d1edc"/>
		</linearGradient>
		<linearGradient id="g19" x1="2733.4" y1="3072.4" x2="2797.7" y2="2932.9" gradientUnits="userSpaceOnUse">
			<stop offset="0" stop-color="#12c2e9"/>
			<stop offset="1" stop-color="#7d1edc"/>
		</linearGradient>
		<linearGradient id="g20" x1="580.4" y1="1776.2" x2="476.4" y2="1685.3" gradientUnits="userSpaceOnUse">
			<stop offset="0" stop-color="#12c2e9"/>
			<stop offset="1" stop-color="#7d1edc"/>
		</linearGradient>
		<linearGradient id="g21" x1="3877.6" y1="6882.7" x2="4034" y2="6999" gradientUnits="userSpaceOnUse">
			<stop offset="0" stop-color="#12c2e9"/>
			<stop offset="1" stop-color="#7d1edc"/>
		</linearGradient>
		<linearGradient id="g22" x1="427.5" y1="1425.2" x2="412.4" y2="1430.6" gradientUnits="userSpaceOnUse">
			<stop offset="0" stop-color="#12c2e9"/>
			<stop offset="1" stop-color="#7d1edc"/>
		</linearGradient>
		<linearGradient id="g23" x1="318.8" y1="1352.2" x2="318.8" y2="1397.8" gradientUnits="userSpaceOnUse">
			<stop offset="0" stop-color="#12c2e9"/>
			<stop offset="1" stop-color="#7d1edc"/>
		</linearGradient>
		<linearGradient id="g24" x1="4421.7" y1="693.8" x2="4428.8" y2="693.8" gradientUnits="userSpaceOnUse">
			<stop offset="0" stop-color="#12c2e9"/>
			<stop offset="1" stop-color="#7d1edc"/>
		</linearGradient>
		<linearGradient id="g25" x1="471.6" y1="651.1" x2="477.3" y2="645.3" gradientUnits="userSpaceOnUse">
			<stop offset="0" stop-color="#12c2e9"/>
			<stop offset="1" stop-color="#7d1edc"/>
		</linearGradient>
		<linearGradient id="g26" x1="3288.2" y1="628.9" x2="3292.6" y2="628.9" gradientUnits="userSpaceOnUse">
			<stop offset="0" stop-color="#12c2e9"/>
			<stop offset="1" stop-color="#7d1edc"/>
		</linearGradient>
		<linearGradient id="g27" x1="3836.2" y1="4061.2" x2="4251.4" y2="4061.2" gradientUnits="userSpaceOnUse">
			<stop offset="0" stop-color="#12c2e9"/>
			<stop offset="1" stop-color="#7d1edc"/>
		</linearGradient>
		<linearGradient id="g28" x1="4780.2" y1="5153.9" x2="5182" y2="4478.4" gradientUnits="userSpaceOnUse">
			<stop offset="0" stop-color="#12c2e9"/>
			<stop offset="1" stop-color="#7d1edc"/>
		</linearGradient>
		<linearGradient id="g29" x1="3052.8" y1="6575.3" x2="3491.2" y2="6575.3" gradientUnits="userSpaceOnUse">
			<stop offset="0" stop-color="#12c2e9"/>
			<stop offset="1" stop-color="#7d1edc"/>
		</linearGradient>
		<linearGradient id="g30" x1="29.4" y1="58.4" x2="37.5" y2="73.4" gradientUnits="userSpaceOnUse">
			<stop offset="0" stop-color="#cffffc"/>
			<stop offset="1" stop-color="#43ddff"/>
		</linearGradient>
		<linearGradient id="g31" x1="1826.5" y1="3636.8" x2="1826.5" y2="3920.1" gradientUnits="userSpaceOnUse">
			<stop offset="0" stop-color="#12c2e9"/>
			<stop offset="1" stop-color="#7d1edc"/>
		</linearGradient>
		<linearGradient id="g32" x1="1425.2" y1="1433.3" x2="1415" y2="1464.7" gradientUnits="userSpaceOnUse">
			<stop offset="0" stop-color="#12c2e9"/>
			<stop offset="1" stop-color="#7d1edc"/>
		</linearGradient>
		<linearGradient id="g33" x1="1423.7" y1="1050.5" x2="1420.4" y2="1064.6" gradientUnits="userSpaceOnUse">
			<stop offset="0" stop-color="#12c2e9"/>
			<stop offset="1" stop-color="#7d1edc"/>
		</linearGradient>
		<linearGradient id="g34" x1="1554.5" y1="1689.6" x2="1560.4" y2="1698.1" gradientUnits="userSpaceOnUse">
			<stop offset="0" stop-color="#12c2e9"/>
			<stop offset="1" stop-color="#7d1edc"/>
		</linearGradient>
	</defs>
	<style>
		.s0 { fill: #8b97dd } 
		.s1 { fill: url(#g1) } 
		.s2 { fill: url(#g2) } 
		.s3 { fill: url(#g3) } 
		.s4 { fill: url(#g4) } 
		.s5 { fill: url(#g5) } 
		.s6 { fill: url(#g6) } 
		.s7 { fill: #111314 } 
		.s8 { fill: url(#g7) } 
		.s9 { fill: url(#g8) } 
		.s10 { fill: url(#g9) } 
		.s11 { fill: url(#g10) } 
		.s12 { fill: url(#g11) } 
		.s13 { fill: url(#g12) } 
		.s14 { fill: url(#g13) } 
		.s15 { fill: url(#g14) } 
		.s16 { fill: url(#g15) } 
		.s17 { fill: url(#g16) } 
		.s18 { fill: url(#g17) } 
		.s19 { fill: url(#g18) } 
		.s20 { fill: url(#g19) } 
		.s21 { fill: url(#g20) } 
		.s22 { fill: url(#g21) } 
		.s23 { fill: url(#g22) } 
		.s24 { fill: url(#g23) } 
		.s25 { fill: url(#g24) } 
		.s26 { fill: url(#g25) } 
		.s27 { fill: url(#g26) } 
		.s28 { fill: url(#g27) } 
		.s29 { fill: url(#g28) } 
		.s30 { fill: url(#g29) } 
		.s31 { fill: url(#g30) } 
		.s32 { fill: url(#g31) } 
		.s33 { fill: url(#g32) } 
		.s34 { fill: url(#g33) } 
		.s35 { fill: url(#g34) } 
	</style>
	<g id="Folder 1">
		<path id="Layer" class="s0" d="m86.9 59.4c1.5 0.8 1.5 2.2 0 3l-39.6 23c-1.4 0.9-3.8 0.9-5.2 0l-39.5-22.9c-1.4-0.8-1.4-2.2 0-3l39.6-23c1.4-0.9 3.8-0.9 5.3 0z" />
		<path id="Layer" class="s1" d="m88 60.2c0 0 0 0.4 0 1c0 0.5-0.4 1.1-1.1 1.5l-39.6 23c-1.4 0.9-3.8 0.9-5.2 0l-39.5-22.9c-0.7-0.4-1.1-1-1.1-1.5c0-0.6 0.1-1 0.1-1c-0.1-0.6 0.2-1.2 1-1.6l39.6-23c1.4-0.9 3.8-0.9 5.3 0l39.4 22.9c0.8 0.4 1.1 1 1.1 1.6z" />
		<path id="Layer" class="s2" d="m86.9 58.5c1.5 0.8 1.5 2.2 0 3l-39.5 23.1c-1.5 0.8-3.9 0.8-5.3 0l-39.4-23c-1.5-0.8-1.5-2.2-0.1-3l39.6-23c1.5-0.9 3.8-0.9 5.3 0z" />
		<path id="Layer" class="s3" d="m81.8 58v1.1q0 0.6-0.3 1.1q-0.3 0.5-0.8 0.8l-24.7 14.4c-0.6 0.4-1.3 0.6-2 0.6c-0.7 0-1.3-0.2-1.9-0.6l-35.1-20.2q-0.4-0.2-0.6-0.6q-0.2-0.3-0.2-0.8v-0.8l37.9 21.6z" />
		<path id="Layer" class="s4" d="m81.8 58l-26.1 16.7q-0.8 0.5-1.7 0.5q-0.9 0-1.6-0.4l-35.6-20.5q-0.3-0.1-0.4-0.4q-0.2-0.2-0.2-0.5q0-0.3 0.1-0.6q0.2-0.3 0.4-0.4l26.2-16.8z" />
		<path id="Layer" class="s5" d="m80.2 24.2q0.7 0.5 1.2 1.2q0.4 0.8 0.4 1.7v31l-0.9 0.6l-0.7-32.5l-37.4-22.1l0.5-0.2q0.4-0.2 0.8-0.2q0.4 0 0.8 0.2z" />
		<path id="Layer" class="s6" d="m79.3 24.8q0.8 0.4 1.2 1.2q0.4 0.7 0.4 1.6v31.1l-38.8-22.5v-31q0-0.3 0.2-0.6q0.1-0.2 0.4-0.4q0.3-0.1 0.5-0.1q0.3 0 0.6 0.1z" />
		<path id="Layer" fill-rule="evenodd" class="s7" d="m77.3 57.6q0.1 0.1 0.2 0.3q0.1 0.1 0.1 0.3q0 0.2-0.1 0.4q0 0.1-0.2 0.3l-12.2 7.8c-1 0.6-1.9 0-2.9-0.5l-32.9-19c-0.7-0.4-0.5-1.1 0-1.4l12.1-7.6c0.6-0.3 1.4-0.5 1.9-0.2zm-29 2.2c1.1 0.6 1.1 1.7 0 2.3l-4.8 2.8q-1 0.5-2 0.5q-1 0-1.9-0.5l-7.7-4.4c-1.1-0.6-1.1-1.6 0-2.3l4.9-2.8q0.9-0.5 1.9-0.5q1 0 2 0.5z" />
		<path id="Layer" class="s8" d="m44.6 8.5l33.4 19.2v25.4l-33.4-19.2z" />
		<path id="Layer" class="s9" d="m34.1 37.8q0.4 0.7 0.5 1.5v30.5q0 0.2-0.1 0.5q-0.1 0.2-0.4 0.4c-0.2 0.2-1.3 0.7-1.5 0.9q-0.3 0.1-0.6 0q-0.3 0-0.5-0.2l-14.1-8.1q-0.6-0.4-1-1.1q-0.4-0.7-0.5-1.5v-30.4q0-0.3 0.1-0.6q0.1-0.2 0.4-0.4c0.2-0.2 1.5-0.8 1.6-0.9q0.2-0.1 0.5 0q0.3 0 0.5 0.2l14.1 8.1q0.7 0.4 1 1.1z" />
		<path id="Layer" class="s10" d="m31.6 37.5q0.6 0.5 1 1.1q0.4 0.7 0.4 1.5v30.5c0 0.9-0.6 1.3-1.5 0.8l-14.1-8.1q-0.6-0.4-1-1.1q-0.4-0.7-0.5-1.5v-30.4c0.1-1 0.8-1.4 1.6-0.9z" />
		<path id="Layer" class="s11" d="m23.4 34q0.1 0.2 0.1 0.4c0 0.3-0.2 0.4-0.4 0.2q-0.2-0.1-0.3-0.3q-0.1-0.2-0.2-0.4c0-0.3 0.2-0.4 0.5-0.2q0.2 0.1 0.3 0.3z" />
		<path id="Layer" class="s12" d="m30.8 40q0.3 0.2 0.5 0.6q0.2 0.3 0.2 0.7v25.7l-13.3-7.8q-0.3-0.2-0.5-0.5q-0.2-0.4-0.3-0.8v-25.6z" />
		<path id="Layer" class="s13" d="m25.3 65.1q0 0.1 0 0.1v1.1q0 0.1-0.1 0l-2.5-1.4q0 0 0-0.1q-0.1 0-0.1-0.1v-1q0-0.2 0.1-0.1l2.5 1.4q0.1 0.1 0.1 0.1z" />
		<path id="Layer" class="s14" d="m26.7 36q0 0 0 0.1v0.4q0 0.1-0.1 0l-2.4-1.4q-0.1 0-0.1-0.1q-0.1 0-0.1-0.1v-0.3q0.1-0.2 0.2-0.1l2.4 1.4q0.1 0 0.1 0.1z" />
		<path id="Layer" class="s15" d="m37.7 78.4l-4.4-2.5c-1-0.6-1.5-1.7-1.5-3.4v-2.7l4.5 2.6v2.8c0 1.6 0.5 2.7 1.4 3.2z" />
		<path id="Layer" class="s16" d="m46.6 64.4v4.8c0 3.3-2.3 7.3-5.1 8.9c-2.9 1.7-5.2 0.3-5.2-2.9v-2.8q0 0 0 0l0.5-0.3v2.8c0 2.9 2.1 4.1 4.7 2.6c2.5-1.5 4.6-5.1 4.6-8v-4.8q0 0 0 0z" />
		<path id="Layer" class="s17" d="m46.1 64.7v4.8c0 2.9-2.1 6.5-4.6 8c-2.6 1.5-4.7 0.5-4.7-2.5q0.1 0 0.2-0.1c2.5-1.5 4.6-5.1 4.6-8c0 0 0-2.1 0-4.8z" />
		<path id="Layer" class="s18" d="m46.1 67.7q0 0.3-0.1 0.6q-0.2 0.3-0.5 0.5q-0.3 0.1-0.6 0.2q-0.4 0-0.7-0.2q0.2 0.1 0.5 0.1q0.2 0 0.4-0.1q0.3-0.1 0.4-0.3q0.1-0.3 0.1-0.5v-0.1c0-0.6 0-3.6 0-3.6l0.5-0.3c0 0 0 2.8 0 3.7z" />
		<path id="Layer" class="s19" d="m45.6 64.3v3.7q0 0.2-0.1 0.5q-0.1 0.2-0.4 0.3q-0.2 0.1-0.4 0.1q-0.3 0-0.5-0.1l-1.7-1q-0.6-0.4-1-1q-0.4-0.7-0.4-1.4c0-1.4 0-2.7 0-3.7z" />
		<path id="Layer" class="s20" d="m47.1 63.7q0 0.3-0.2 0.6q-0.2 0.3-0.5 0.5q-0.1 0.1-0.2 0.1q-0.1 0-0.2-0.1q0 0 0 0c-0.2-0.1-5.2-3-5.4-3.1q-0.1 0-0.1-0.2q-0.1-0.1-0.1-0.2v-2.5q0.1-0.3 0.2-0.6q0.2-0.3 0.5-0.5q0.1 0 0.2-0.1q0.1 0 0.2 0.1l5.4 3.1q0.1 0.1 0.1 0.2q0.1 0.1 0.1 0.2z" />
		<path id="Layer" class="s21" d="m46.4 60.8c0.4-0.2 0.7 0 0.7 0.4v2.5q0 0.3-0.2 0.6q-0.2 0.3-0.5 0.5c-0.3 0.2-0.6 0-0.6-0.4v-2.5q0-0.3 0.2-0.6q0.2-0.3 0.4-0.5z" />
		<path id="Layer" class="s22" d="m39 61.5q0.4 0.7 0.5 1.6l-0.1 8c0 0.5-0.1 0.9-0.4 1q-0.9 0.6-1.8 1.1q0 0 0 0c-0.3 0.1-0.7 0.1-1.1-0.1l-5.6-3.2q-0.7-0.5-1.1-1.2q-0.4-0.7-0.5-1.6l0.1-8c0-0.5 0.1-0.9 0.4-1.1q0.9-0.5 1.8-1c0.3-0.2 0.7-0.1 1.1 0.1l5.6 3.2q0.7 0.5 1.1 1.2z" />
		<path id="Layer" class="s23" d="m39.2 69.8q0 0.2-0.1 0.4q-0.1 0.1-0.3 0.2q0 0.1-0.1 0.1q-0.1 0-0.1-0.1q0 0 0 0q-0.2 0-0.3-0.1q-0.1-0.1-0.1-0.1q0-0.1 0-0.1v-2.1q0-0.2 0.1-0.3q0.1-0.2 0.3-0.3q0-0.1 0.1-0.1q0 0 0.1 0.1l0.3 0.1q0 0.1 0.1 0.1q0 0.1 0 0.1z" />
		<path id="Layer" class="s24" d="m38.8 67.5c0.2-0.1 0.4 0 0.4 0.2v2.1q0 0.2-0.1 0.4q-0.1 0.1-0.3 0.2c-0.2 0.1-0.3 0-0.3-0.2v-2q0-0.2 0.1-0.4q0.1-0.2 0.2-0.3z" />
		<path id="Layer" class="s25" d="m39.3 65q0 0.1 0 0.2q0 0.2-0.1 0.5q-0.2 0.2-0.4 0.4q-0.1 0-0.2 0q-0.1 0-0.2 0c0 0-0.2-0.1-0.2-0.1q-0.1-0.1-0.2-0.2q0-0.1 0-0.2q0-0.3 0.2-0.5q0.1-0.2 0.3-0.4q0.1 0 0.2 0q0.1-0.1 0.2 0c0 0 0.2 0.1 0.3 0.1q0.1 0.1 0.1 0.2z" />
		<path id="Layer" class="s26" d="m39.3 65q0 0.1 0 0.2q0 0.2-0.1 0.5q-0.2 0.2-0.4 0.4q-0.1 0-0.2 0q-0.1 0-0.2 0q0 0 0 0q-0.1-0.1-0.2-0.2q0-0.1 0-0.2q0-0.2 0.2-0.5q0.1-0.2 0.3-0.4q0.1 0 0.2 0q0.1 0 0.2 0q0 0 0.1 0q0.1 0.1 0.1 0.2z" />
		<path id="Layer" class="s27" d="m38.8 64.9c0.3-0.2 0.5-0.1 0.5 0.3q0 0.2-0.1 0.5q-0.2 0.2-0.4 0.4c-0.3 0.1-0.5 0-0.5-0.3q0-0.3 0.1-0.5q0.2-0.3 0.4-0.4z" />
		<path id="Layer" class="s28" d="m36.6 60.2l-0.5 0.3v-0.8c0-3.1 2.2-7 5-8.6c2.8-1.6 5-0.3 5 2.9v6.6l-0.5 0.3v-6.7c0-2.8-2-4-4.5-2.5c-2.5 1.4-4.5 4.9-4.5 7.8z" />
		<path id="Layer" class="s29" d="m44.7 50.7c-0.9-0.5-2.2-0.4-3.6 0.4c-2.8 1.6-5 5.5-5 8.6v0.8l-4.3-2.5v-0.8c-0.1-3.2 2.2-7 4.9-8.6c1.4-0.8 2.7-0.9 3.6-0.4q2.2 1.3 4.4 2.5q0 0 0 0z" />
		<path id="Layer" class="s30" d="m36.1 61.4q0.7 0.4 1.1 1.1q0.4 0.8 0.5 1.6v8.1c0 1-0.7 1.4-1.6 0.9l-5.6-3.2q-0.7-0.5-1.1-1.2q-0.4-0.7-0.5-1.6l0.1-8c0-1 0.7-1.4 1.5-0.9z" />
		<path id="Layer" class="s31" d="m36.1 61.8q0.5 0.3 0.8 0.9q0.3 0.5 0.4 1.2v8.1c0 0.7-0.6 1-1.3 0.6l-5.5-3.2q-0.6-0.3-0.9-0.9q-0.3-0.5-0.4-1.2l0.1-8.1c0-0.7 0.5-1 1.2-0.6z" />
		<path id="Layer" class="s32" d="m41.3 58.3c0-3.4 0-6.7 0-6.7c2.4-1.3 4.3-0.2 4.3 2.6v6.7z" />
		<path id="Layer" class="s33" d="m45 63.1l-3.4-2v-1.4l3.4 1.9z" />
		<path id="Layer" class="s34" d="m45 62.2l-3.4-2v-0.5l3.4 1.9z" />
		<path id="Layer" class="s35" d="m45 63.1v0.4c-0.5-0.2-2.4-1.4-3.8-2.2v-1.8l0.4 0.2v1.4c1.1 0.7 2.6 1.6 3.4 2z" />
	</g>
</svg>