<svg version="1.2" xmlns="http://www.w3.org/2000/svg" viewBox="0 0 90 90" width="90" height="90">
	<title>New Project</title>
	<defs>
		<clipPath clipPathUnits="userSpaceOnUse" id="cp1">
			<path d="m-64-86h208v208h-208z" />
		</clipPath>
		<linearGradient id="g1" x1="49.7" y1="38.2" x2="46.2" y2="38.2" gradientUnits="userSpaceOnUse">
			<stop offset="0" stop-color="#f3f7ff"/>
			<stop offset="1" stop-color="#d0e5ff"/>
		</linearGradient>
		<linearGradient id="g2" x1="55.9" y1="52.1" x2="56.5" y2="51.1" gradientUnits="userSpaceOnUse">
			<stop offset="0" stop-color="#f3f7ff"/>
			<stop offset="1" stop-color="#d0e5ff"/>
		</linearGradient>
		<linearGradient id="g3" x1="57.3" y1="52.8" x2="57.9" y2="51.8" gradientUnits="userSpaceOnUse">
			<stop offset="0" stop-color="#f3f7ff"/>
			<stop offset="1" stop-color="#d0e5ff"/>
		</linearGradient>
		<linearGradient id="g4" x1="58.6" y1="53.7" x2="59.2" y2="52.7" gradientUnits="userSpaceOnUse">
			<stop offset="0" stop-color="#f3f7ff"/>
			<stop offset="1" stop-color="#d0e5ff"/>
		</linearGradient>
		<linearGradient id="g5" x1="59.7" y1="54.4" x2="60.3" y2="53.5" gradientUnits="userSpaceOnUse">
			<stop offset="0" stop-color="#f3f7ff"/>
			<stop offset="1" stop-color="#d0e5ff"/>
		</linearGradient>
		<linearGradient id="g6" x1="60.4" y1="55.4" x2="61" y2="54.5" gradientUnits="userSpaceOnUse">
			<stop offset="0" stop-color="#f3f7ff"/>
			<stop offset="1" stop-color="#d0e5ff"/>
		</linearGradient>
		<linearGradient id="g7" x1="60.5" y1="56.4" x2="61.2" y2="55.4" gradientUnits="userSpaceOnUse">
			<stop offset="0" stop-color="#f3f7ff"/>
			<stop offset="1" stop-color="#d0e5ff"/>
		</linearGradient>
		<linearGradient id="g8" x1="60.6" y1="57.8" x2="61.3" y2="56.8" gradientUnits="userSpaceOnUse">
			<stop offset="0" stop-color="#f3f7ff"/>
			<stop offset="1" stop-color="#d0e5ff"/>
		</linearGradient>
		<linearGradient id="g9" x1="60.6" y1="59.1" x2="61.2" y2="58.1" gradientUnits="userSpaceOnUse">
			<stop offset="0" stop-color="#f3f7ff"/>
			<stop offset="1" stop-color="#d0e5ff"/>
		</linearGradient>
		<linearGradient id="g10" x1="60.5" y1="60.4" x2="61.1" y2="59.4" gradientUnits="userSpaceOnUse">
			<stop offset="0" stop-color="#f3f7ff"/>
			<stop offset="1" stop-color="#d0e5ff"/>
		</linearGradient>
		<linearGradient id="g11" x1="54.4" y1="51.7" x2="55" y2="50.7" gradientUnits="userSpaceOnUse">
			<stop offset="0" stop-color="#f3f7ff"/>
			<stop offset="1" stop-color="#d0e5ff"/>
		</linearGradient>
		<linearGradient id="g12" x1="52.9" y1="52" x2="53.5" y2="51.1" gradientUnits="userSpaceOnUse">
			<stop offset="0" stop-color="#f3f7ff"/>
			<stop offset="1" stop-color="#d0e5ff"/>
		</linearGradient>
		<linearGradient id="g13" x1="52.5" y1="53.5" x2="53.2" y2="52.6" gradientUnits="userSpaceOnUse">
			<stop offset="0" stop-color="#f3f7ff"/>
			<stop offset="1" stop-color="#d0e5ff"/>
		</linearGradient>
		<linearGradient id="g14" x1="51.3" y1="54.4" x2="51.9" y2="53.5" gradientUnits="userSpaceOnUse">
			<stop offset="0" stop-color="#f3f7ff"/>
			<stop offset="1" stop-color="#d0e5ff"/>
		</linearGradient>
		<linearGradient id="g15" x1="49.5" y1="54.8" x2="50.1" y2="53.9" gradientUnits="userSpaceOnUse">
			<stop offset="0" stop-color="#f3f7ff"/>
			<stop offset="1" stop-color="#d0e5ff"/>
		</linearGradient>
		<linearGradient id="g16" x1="48.4" y1="56" x2="49.1" y2="55.1" gradientUnits="userSpaceOnUse">
			<stop offset="0" stop-color="#f3f7ff"/>
			<stop offset="1" stop-color="#d0e5ff"/>
		</linearGradient>
		<linearGradient id="g17" x1="60.1" y1="61.4" x2="60.7" y2="60.4" gradientUnits="userSpaceOnUse">
			<stop offset="0" stop-color="#f3f7ff"/>
			<stop offset="1" stop-color="#d0e5ff"/>
		</linearGradient>
		<linearGradient id="g18" x1="58.4" y1="62" x2="59" y2="61" gradientUnits="userSpaceOnUse">
			<stop offset="0" stop-color="#f3f7ff"/>
			<stop offset="1" stop-color="#d0e5ff"/>
		</linearGradient>
		<linearGradient id="g19" x1="57" y1="62" x2="57.6" y2="61.1" gradientUnits="userSpaceOnUse">
			<stop offset="0" stop-color="#f3f7ff"/>
			<stop offset="1" stop-color="#d0e5ff"/>
		</linearGradient>
		<linearGradient id="g20" x1="55.4" y1="61.7" x2="56" y2="60.7" gradientUnits="userSpaceOnUse">
			<stop offset="0" stop-color="#f3f7ff"/>
			<stop offset="1" stop-color="#d0e5ff"/>
		</linearGradient>
		<linearGradient id="g21" x1="53.9" y1="61.1" x2="54.6" y2="60.2" gradientUnits="userSpaceOnUse">
			<stop offset="0" stop-color="#f3f7ff"/>
			<stop offset="1" stop-color="#d0e5ff"/>
		</linearGradient>
		<linearGradient id="g22" x1="52.4" y1="60.5" x2="53.1" y2="59.5" gradientUnits="userSpaceOnUse">
			<stop offset="0" stop-color="#f3f7ff"/>
			<stop offset="1" stop-color="#d0e5ff"/>
		</linearGradient>
		<linearGradient id="g23" x1="51" y1="59.7" x2="51.6" y2="58.7" gradientUnits="userSpaceOnUse">
			<stop offset="0" stop-color="#f3f7ff"/>
			<stop offset="1" stop-color="#d0e5ff"/>
		</linearGradient>
		<linearGradient id="g24" x1="49.4" y1="58.5" x2="50" y2="57.5" gradientUnits="userSpaceOnUse">
			<stop offset="0" stop-color="#f3f7ff"/>
			<stop offset="1" stop-color="#d0e5ff"/>
		</linearGradient>
		<linearGradient id="g25" x1="48.2" y1="57.3" x2="48.8" y2="56.3" gradientUnits="userSpaceOnUse">
			<stop offset="0" stop-color="#f3f7ff"/>
			<stop offset="1" stop-color="#d0e5ff"/>
		</linearGradient>
		<linearGradient id="g26" x1="41.6" y1="66.8" x2="26.1" y2="66.8" gradientUnits="userSpaceOnUse">
			<stop offset="0" stop-color="#292c36"/>
			<stop offset="0" stop-color="#2a2d38"/>
			<stop offset=".3" stop-color="#343844"/>
			<stop offset=".5" stop-color="#373c48"/>
			<stop offset=".7" stop-color="#333843"/>
			<stop offset="1" stop-color="#292c36"/>
		</linearGradient>
		<linearGradient id="g27" x1="41.6" y1="63.8" x2="26.1" y2="63.8" gradientUnits="userSpaceOnUse">
			<stop offset="0" stop-color="#4e5463"/>
			<stop offset=".5" stop-color="#6a7489"/>
			<stop offset=".7" stop-color="#677084"/>
			<stop offset=".8" stop-color="#5d6577"/>
			<stop offset="1" stop-color="#4e5463"/>
		</linearGradient>
	</defs>
	<style>
		.s0 { opacity: .2;fill: #494949 } 
		.s1 { fill: #a99b95 } 
		.s2 { fill: #0097f6 } 
		.s3 { fill: #00c5ff } 
		.s4 { fill: #e4e4e0 } 
		.s5 { fill: #f45378 } 
		.s6 { fill: #d73472 } 
		.s7 { fill: #341e38 } 
		.s8 { fill: #65697f } 
		.s9 { fill: #797d9b } 
		.s10 { fill: #c06e33 } 
		.s11 { fill: #c1dcd1 } 
		.s12 { fill: #ffffff } 
		.s13 { fill: #f78e45 } 
		.s14 { fill: #5c418e } 
		.s15 { fill: #ffb63a } 
		.s16 { fill: #f7c67f } 
		.s17 { fill: #db9837 } 
		.s18 { fill: #435277 } 
		.s19 { opacity: .1;fill: #26231f } 
		.s20 { fill: #f9dc32 } 
		.s21 { fill: #ef9d26 } 
		.s22 { fill: url(#g1) } 
		.s23 { fill: #86aef6 } 
		.s24 { fill: #b61600 } 
		.s25 { fill: #d52202 } 
		.s26 { opacity: .2;fill: #000000 } 
		.s27 { fill: url(#g2) } 
		.s28 { fill: url(#g3) } 
		.s29 { fill: url(#g4) } 
		.s30 { fill: url(#g5) } 
		.s31 { fill: url(#g6) } 
		.s32 { fill: url(#g7) } 
		.s33 { fill: url(#g8) } 
		.s34 { fill: url(#g9) } 
		.s35 { fill: url(#g10) } 
		.s36 { fill: url(#g11) } 
		.s37 { fill: url(#g12) } 
		.s38 { fill: url(#g13) } 
		.s39 { fill: url(#g14) } 
		.s40 { fill: url(#g15) } 
		.s41 { fill: url(#g16) } 
		.s42 { fill: url(#g17) } 
		.s43 { fill: url(#g18) } 
		.s44 { fill: url(#g19) } 
		.s45 { fill: url(#g20) } 
		.s46 { fill: url(#g21) } 
		.s47 { fill: url(#g22) } 
		.s48 { fill: url(#g23) } 
		.s49 { fill: url(#g24) } 
		.s50 { fill: url(#g25) } 
		.s51 { opacity: .7;fill: #8e8e8e } 
		.s52 { fill: #1c1c1c } 
		.s53 { fill: #2d2d2d } 
		.s54 { fill: #383838 } 
		.s55 { fill: #666666 } 
		.s56 { fill: #cccccc } 
		.s57 { fill: #a0a0a0 } 
		.s58 { fill: #676767 } 
		.s59 { fill: #8c8c8c } 
		.s60 { fill: url(#g26) } 
		.s61 { fill: #292c36 } 
		.s62 { fill: #4e5463 } 
		.s63 { fill: url(#g27) } 
		.s64 { fill: #373c48 } 
		.s65 { fill: #15161b } 
		.s66 { fill: #5ca6ff } 
	</style>
	<g id="Folder 1">
		<g id="Clip-Path" clip-path="url(#cp1)">
			<g id="Layer">
				<path id="Layer" class="s0" d="m37.3 30.9l6.4-3.7c2.7-1.5 6.1-1.5 8.8 0.1l30.3 17.7c2.7 1.6 2.7 5.4 0.1 7l-6 3.6c-2.6 1.5-5.8 1.5-8.5 0l-31.1-18.1c-2.5-1.5-2.5-5.2 0-6.6z" />
				<path id="Layer" class="s1" d="m40.7 29.4c-0.3 0-0.4-0.2-0.4-0.4v-22.4c0-0.7 0.3-1.3 0.9-1.7c0.6-0.3 1.3-0.3 1.9 0c0.1 0.1 0.2 0.4 0.1 0.5c-0.1 0.2-0.3 0.3-0.5 0.2c-0.4-0.2-0.8-0.2-1.1 0c-0.4 0.2-0.6 0.5-0.6 1v22.4c0 0.2-0.2 0.4-0.3 0.4z" />
				<path id="Layer" class="s1" d="m36.5 33.6c-0.3 0-0.4-0.1-0.4-0.3c0-1.3 0.7-2.5 1.8-3.2l7.7-4.4c0.4-0.3 0.9-0.3 1.4 0c0.4 0.2 0.7 0.7 0.7 1.2c0 0.2-0.2 0.4-0.4 0.4c-0.2 0-0.4-0.2-0.4-0.4q0-0.4-0.3-0.6c-0.2-0.1-0.5-0.1-0.7 0l-7.7 4.5c-0.8 0.5-1.4 1.4-1.4 2.5c0 0.2-0.1 0.3-0.3 0.3z" />
				<path id="Layer" class="s2" d="m49.4 8.8l0.3-0.1c0 0.1-0.1 0.1-0.1 0.1zm-2.1 1.3l0.6-0.4l1.5-0.3c-0.5 1-1.2 1.9-2.1 2.4c-0.8 0.5-1.6 0.4-2 0l1.5-1.5z" />
				<path id="Layer" class="s3" d="m51.2 7.8c1-0.5 2-0.6 2.7-0.2l3.1 1.7l-2.1 3.7l-2.1-0.2l0.1 10.8l-11 6.3v-10.8l-2.1 2.6l-2.1-1.2l3.1-5.3c0.7-1.3 1.6-2.3 2.7-2.9l1.5-0.8h0.1q0.1 0.2 0.3 0.3c0.5 0.5 1.2 0.5 2 0c0.8-0.5 1.6-1.4 2-2.3c0.2-0.2 0.2-0.5 0.3-0.7c0 0 0.1-0.1 0.1-0.1z" />
				<path id="Layer" class="s4" d="m47.3 6.3c0.1 0 0.2-0.1 0.3-0.1c0.5-0.1 0.8 0.1 0.9 0.5c0.2 0.7-0.2 1.6-0.9 2.2q0 0.1 0 0.2v0.1l1.8-0.3l0.2-0.1c0 0.3-0.1 0.5-0.3 0.7l-1.4 0.3l-0.6 0.1l-0.5 0.5l-1.5 1.5q-0.2-0.2-0.3-0.3l0.2-0.3l1.9-1.8v-0.2c0-0.3 0.1-0.7 0.4-0.9c0.4-0.3 0.6-0.8 0.5-1.3c0-0.2-0.3-0.3-0.5-0.2c-0.1 0-0.1 0-0.2 0q-0.2 0.2-0.4 0.5c-0.2 0.2-0.3 0.5-0.3 0.8c0 0.1-0.2 0.4-0.3 0.4c-0.1 0.1-0.2 0-0.2-0.1c0-0.4 0.1-0.9 0.4-1.4c0.3-0.4 0.5-0.6 0.8-0.8z" />
				<path id="Layer" class="s2" d="m45 11.5h-0.1l0.3-0.2z" />
				<path id="Layer" class="s5" d="m55.9 12.7l0.2-0.1c0 0 0 0.1 0 0.1zm-2.1 1.2l0.5-0.3l1.5-0.3c-0.5 1-1.2 1.8-2 2.3c-0.9 0.5-1.6 0.5-2.1 0.1l1.5-1.5z" />
				<path id="Layer" class="s6" d="m57.6 11.7c1-0.6 2-0.6 2.7-0.2l3.1 1.7l-2.1 3.6l-2.1-0.2l0.1 10.9l-10.9 6.3l-0.1-10.8l-2.1 2.6l-2.1-1.2l3.1-5.4c0.7-1.2 1.6-2.2 2.7-2.8l1.5-0.9l0.1 0.1q0.1 0.2 0.3 0.3c0.5 0.4 1.2 0.5 2 0c0.8-0.5 1.6-1.4 2-2.4c0.2-0.2 0.2-0.4 0.3-0.6c0-0.1 0.1-0.1 0.1-0.1z" />
				<path id="Layer" class="s4" d="m53.8 10.2c0-0.1 0.2-0.1 0.3-0.1c0.4-0.2 0.7 0 0.9 0.5c0.1 0.7-0.3 1.6-0.9 2.2q-0.1 0.1-0.1 0.1v0.2l1.9-0.3l0.2-0.1c-0.1 0.2-0.2 0.5-0.3 0.7l-1.5 0.3l-0.5 0.1l-0.6 0.5l-1.5 1.5q-0.2-0.2-0.3-0.4l0.2-0.2l1.9-1.8v-0.2c0-0.3 0.2-0.7 0.5-0.9c0.3-0.3 0.6-0.9 0.5-1.3c-0.1-0.2-0.3-0.4-0.6-0.3c0 0-0.1 0.1-0.1 0.1q-0.3 0.1-0.5 0.5c-0.2 0.2-0.3 0.5-0.3 0.8c0 0.1-0.1 0.3-0.2 0.4c-0.2 0.1-0.3 0-0.3-0.1c0-0.4 0.2-0.9 0.5-1.4c0.2-0.4 0.5-0.7 0.8-0.8z" />
				<path id="Layer" class="s5" d="m51.4 15.4v-0.1l0.2-0.1z" />
				<path id="Layer" class="s7" d="m62.3 16.5l0.3-0.1c0 0.1-0.1 0.1-0.1 0.1z" />
				<path id="Layer" class="s8" d="m60.2 17.8l0.5-0.4l1.5-0.3c-0.5 1-1.2 1.9-2 2.4c-0.9 0.5-1.6 0.4-2.1 0l1.5-1.5z" />
				<path id="Layer" class="s9" d="m64.1 15.5c1-0.6 2-0.7 2.7-0.2l3.1 1.7l-2.1 3.6l-2.1-0.2v10.9l-10.9 6.3v-10.9l-2.1 2.7l-2.1-1.2l3-5.4c0.7-1.2 1.7-2.2 2.7-2.8l1.6-0.9v0.1q0.1 0.2 0.3 0.3c0.5 0.4 1.2 0.5 2 0c0.9-0.5 1.6-1.4 2.1-2.4c0.1-0.2 0.2-0.4 0.3-0.6c0-0.1 0-0.1 0-0.1z" />
				<path id="Layer" class="s4" d="m60.2 14c0-0.1 0.2-0.1 0.3-0.2c0.4-0.1 0.7 0.1 0.9 0.6c0.1 0.6-0.3 1.6-0.9 2.2q-0.1 0-0.1 0.1v0.2l1.9-0.4h0.2c-0.1 0.2-0.2 0.5-0.3 0.7l-1.5 0.3h-0.5l-0.6 0.6l-1.5 1.4q-0.2-0.1-0.3-0.3l0.2-0.2l1.9-1.8v-0.2c0-0.3 0.2-0.7 0.5-0.9c0.3-0.3 0.6-0.9 0.5-1.3c-0.1-0.3-0.3-0.4-0.6-0.3c0 0-0.1 0-0.1 0.1q-0.3 0.1-0.5 0.4c-0.2 0.3-0.3 0.6-0.3 0.8c0 0.2-0.1 0.4-0.2 0.5c-0.2 0.1-0.3 0-0.3-0.1c0-0.4 0.2-0.9 0.5-1.4c0.2-0.4 0.5-0.7 0.8-0.8z" />
				<path id="Layer" class="s7" d="m57.8 19.2v-0.1l0.2-0.1z" />
				<path id="Layer" class="s10" d="m68.7 20.1l0.3-0.1c0 0-0.1 0-0.1 0z" />
				<path id="Layer" class="s11" d="m66.6 21.3l0.6-0.3l1.5-0.3c-0.5 0.9-1.3 1.8-2.1 2.3c-0.8 0.5-1.6 0.5-2 0l1.5-1.4z" />
				<path id="Layer" class="s12" d="m70.5 19c1-0.5 2-0.6 2.7-0.2l3.1 1.7l-2.1 3.7l-2.1-0.3l0.1 10.9l-11 6.3v-10.8l-2.1 2.6l-2.1-1.2l3.1-5.3c0.7-1.3 1.6-2.3 2.7-2.9l1.5-0.8h0.1q0.1 0.2 0.3 0.3c0.5 0.5 1.2 0.5 2 0c0.8-0.5 1.6-1.4 2-2.3c0.2-0.2 0.2-0.5 0.3-0.7c0 0 0.1-0.1 0.1-0.1z" />
				<path id="Layer" class="s4" d="m66.6 17.5c0.1 0 0.2-0.1 0.3-0.1c0.5-0.1 0.8 0.1 0.9 0.5c0.2 0.7-0.2 1.6-0.9 2.2q0 0.1 0 0.1v0.2l1.8-0.3l0.2-0.1c0 0.2-0.1 0.5-0.2 0.7l-1.5 0.3l-0.6 0.1l-0.5 0.5l-1.5 1.5q-0.2-0.2-0.3-0.4l0.2-0.2l1.9-1.8v-0.2c0-0.3 0.1-0.7 0.4-0.9c0.4-0.3 0.6-0.9 0.5-1.3c0-0.2-0.3-0.3-0.5-0.3c-0.1 0-0.1 0.1-0.2 0.1q-0.2 0.2-0.4 0.5c-0.2 0.2-0.3 0.5-0.3 0.8c0 0.1-0.2 0.3-0.3 0.4c-0.1 0.1-0.2 0-0.2-0.1c0-0.4 0.1-0.9 0.4-1.4c0.3-0.4 0.5-0.6 0.8-0.8z" />
				<path id="Layer" class="s13" d="m64.3 22.7h-0.1l0.3-0.2z" />
				<path id="Layer" class="s14" d="m75.2 23.9l0.2-0.1c0 0 0 0.1 0 0.1z" />
				<path id="Layer" class="s15" d="m73.1 25.2l0.5-0.4l1.5-0.3c-0.5 1-1.2 1.9-2 2.4c-0.9 0.5-1.6 0.4-2.1 0l1.5-1.5z" />
				<path id="Layer" class="s15" d="m76.9 22.9c1-0.6 2-0.7 2.7-0.2l3.1 1.7l-2.1 3.6l-2-0.2v10.9l-10.9 6.3l-0.1-10.9l-2.1 2.7l-2.1-1.2l3.1-5.4c0.7-1.2 1.7-2.2 2.7-2.8l1.5-0.9l0.1 0.1q0.1 0.2 0.3 0.3c0.5 0.4 1.2 0.5 2 0c0.8-0.5 1.6-1.4 2-2.4c0.2-0.2 0.2-0.4 0.3-0.6c0-0.1 0.1-0.1 0.1-0.1z" />
				<path id="Layer" class="s4" d="m73 21.4c0.1-0.1 0.2-0.1 0.3-0.2c0.5-0.1 0.8 0.1 0.9 0.6c0.2 0.7-0.2 1.6-0.8 2.2q-0.1 0.1-0.1 0.1v0.2l1.8-0.4h0.2c0 0.2-0.1 0.5-0.2 0.7l-1.5 0.3h-0.6l-0.5 0.6l-1.5 1.4q-0.2-0.1-0.3-0.3l0.2-0.2l1.9-1.8v-0.2c0-0.3 0.1-0.7 0.4-0.9c0.4-0.3 0.7-0.9 0.5-1.3c0-0.2-0.3-0.4-0.5-0.3c-0.1 0-0.1 0.1-0.2 0.1q-0.2 0.1-0.4 0.5c-0.2 0.2-0.3 0.5-0.3 0.7c0 0.2-0.2 0.4-0.3 0.5c-0.1 0.1-0.2 0-0.2-0.1c0-0.4 0.1-0.9 0.4-1.4c0.3-0.4 0.6-0.7 0.8-0.8z" />
				<path id="Layer" class="s14" d="m70.7 26.6v-0.1l0.2-0.1z" />
				<path id="Layer" class="s1" d="m72.8 54.1c-0.2 0-0.4-0.2-0.4-0.4c0-1.3 0.7-2.5 1.8-3.1l7.7-4.4c0.4-0.3 0.9-0.3 1.4 0c0.5 0.2 0.7 0.7 0.7 1.2c0 0.2-0.2 0.3-0.4 0.3c-0.2 0-0.3-0.1-0.3-0.3q-0.1-0.4-0.4-0.6c-0.2-0.1-0.4-0.1-0.6 0l-7.7 4.4c-0.9 0.5-1.5 1.5-1.5 2.5c0 0.2-0.1 0.4-0.3 0.4z" />
				<path id="Layer" class="s1" d="m78.4 48.9c-0.2 0-0.4-0.1-0.4-0.3v-20.5c0-1.3-0.7-2.5-1.8-3.2l-33.5-19.3c-0.2-0.1-0.3-0.3-0.1-0.5c0.1-0.2 0.3-0.2 0.5-0.1l33.5 19.3c1.3 0.8 2.2 2.3 2.2 3.8v20.5c0 0.2-0.2 0.3-0.4 0.3z" />
				<path id="Layer" class="s4" d="m59.7 15c-0.1 0.1-0.1 0.2-0.2 0.3l-0.3-0.2q0-0.2 0.2-0.4c0-0.1 0.1-0.2 0.1-0.2l0.4 0.2c0 0.1-0.1 0.2-0.2 0.3zm-6.4-3.7q-0.2 0.1-0.2 0.3l-0.4-0.2q0.1-0.2 0.2-0.4c0.1-0.1 0.2-0.2 0.2-0.2l0.4 0.2q-0.2 0.1-0.2 0.3zm-6.4-4q-0.2 0.2-0.3 0.5l-0.4-0.2c0.1-0.2 0.2-0.3 0.3-0.5l0.1-0.1l0.3 0.2c0 0.1 0 0.1 0 0.1zm19.3 11.2c-0.1 0.2-0.2 0.3-0.3 0.5l-0.3-0.2q0.1-0.3 0.2-0.5c0.1 0 0.1-0.1 0.1-0.1l0.4 0.2q-0.1 0-0.1 0.1zm6.4 3.9c-0.1 0.1-0.1 0.2-0.2 0.3l-0.3-0.2c0-0.1 0.1-0.3 0.2-0.4c0-0.1 0.1-0.1 0.1-0.2l0.4 0.2q-0.1 0.2-0.2 0.3z" />
				<path id="Layer" class="s0" d="m44.2 46.8l-12.2 7.2l-15.1-8.5l12.7-6.9z" />
				<path id="Layer" class="s16" d="m35.4 39l0.2-3.4c0 0 2.7 1.6 2.8 1.5z" />
				<path id="Layer" class="s17" d="m42.1 47.3l-9.5 5.5l0.8-12.6l5-3.1z" />
				<path id="Layer" class="s15" d="m21.1 46.2l1.2-12.3l11.1 6.3l-0.8 12.6z" />
				<path id="Layer" class="s16" d="m33.4 40.2l-7.7 3l-3.4-9.3z" />
				<path id="Layer" class="s9" d="m26.8 43.6c0 0.7-0.4 0.9-1 0.6c-0.5-0.3-1-1.1-1-1.8c0-0.6 0.5-0.9 1-0.5c0.6 0.2 1 1 1 1.7z" />
				<path id="Layer" class="s18" d="m26.6 43.6c0 0.7-0.4 1-1 0.6c-0.5-0.3-1-1.1-1-1.7c0-0.7 0.5-0.9 1-0.6c0.6 0.3 1 1.1 1 1.7z" />
				<path id="Layer" class="s16" d="m22.3 33.9l2-1.3v0.1l1.4-0.9l1.5-0.9l8 4.4c0.1 0.7 0.2 1.3 0.2 1.9v1.7l-1.9 1.3z" />
				<path id="Layer" class="s17" d="m29.4 27.2c-0.8-0.4-1.7-0.4-2.4 0.1c-0.8 0.4-1.2 1.2-1.3 2v2.5l-1.4 0.8v-3.3c0.1-1.4 0.8-2.6 1.9-3.3c1.2-0.7 2.7-0.7 3.8 0c3.8 2 6.3 5.9 6.6 10.2l-1.5-0.9c-0.5-3.4-2.6-6.4-5.7-8.1z" />
				<path id="Layer" class="s17" d="m35.2 35.3l1.5 0.9c0 0.3 0 0.7 0 1v0.9l-1.4 0.8v-1.7q0.1-0.9-0.1-1.9z" />
				<path id="Layer" class="s19" d="m50 47.2c0.9 0.6 0.9 1.5 0 2c-1 0.6-2.5 0.6-3.5 0c-1-0.5-1-1.4 0-2c1-0.6 2.5-0.6 3.5 0z" />
				<path id="Layer" class="s20" d="m46.1 41.3c1 0.6 2.5 0.6 3.5 0c0.4-0.2 0.7-0.6 0.7-1v7.4c0 0.4-0.2 0.7-0.7 1c-0.9 0.5-2.5 0.5-3.4 0q-0.7-0.5-0.7-1l-0.1-7.4c0 0.4 0.3 0.8 0.7 1z" />
				<path id="Layer" class="s21" d="m49.6 39.3c0.9 0.6 0.9 1.5 0 2c-1 0.6-2.5 0.6-3.5 0c-0.9-0.5-0.9-1.4 0-2c1-0.5 2.6-0.5 3.5 0z" />
				<path id="Layer" class="s22" d="m46.7 35.8c0.6 0.4 1.8 0.4 2.4 0q0.5-0.3 0.5-0.7l0.1 5.2q0 0.4-0.5 0.7c-0.7 0.4-1.8 0.4-2.5 0q-0.5-0.3-0.5-0.7v-5.2q0 0.4 0.5 0.7z" />
				<path id="Layer" class="s23" d="m49.1 34.4c0.7 0.3 0.7 1 0 1.4c-0.6 0.4-1.8 0.4-2.4 0c-0.7-0.4-0.7-1.1 0-1.4c0.7-0.4 1.8-0.4 2.4 0z" />
				<path id="Layer" class="s24" d="m46.8 32.1c0.6 0.3 1.6-0.8 2.2-1.1c0.2-0.2 0.4-0.5 0.4-0.7l0.1 4.6c0 0.2-0.2 0.5-0.5 0.6c-0.6 0.4-1.6 0.4-2.2 0c-0.3-0.1-0.4-0.4-0.4-0.6l-0.1-3.4q0 0.3 0.5 0.6z" />
				<path id="Layer" class="s25" d="m49 29.7c0.5 0.3 0.5 0.9 0 1.3c-0.6 0.3-1.6 1.4-2.2 1.1c-0.6-0.4-0.6-0.9 0-1.3c0.6-0.3 1.6-1.4 2.2-1.1z" />
				<path id="Layer" class="s26" d="m47.9 56.6q-0.2-0.3-0.2-0.5c0-0.6 0.5-1 1-1q0.1 0 0.2 0c0-0.1-0.1-0.2-0.1-0.3c0-0.5 0.5-1 1-1c0.3 0 0.6 0.2 0.8 0.4c0.1-0.5 0.5-0.8 1-0.8c0 0 0.2 0 0.3 0q0-0.5 0.5-0.8q-0.2-0.2-0.2-0.6c0-0.6 0.5-1 1-1q0.3 0 0.7 0.2c0.1-0.3 0.5-0.6 0.8-0.6c0.4 0 0.8 0.3 0.9 0.6q0.3-0.2 0.6-0.2c0.5 0 0.9 0.4 0.9 0.9c0.2-0.1 0.3-0.1 0.5-0.1c0.5 0 0.9 0.4 1 0.9c0 0 0.2 0 0.2 0c0.5 0 0.9 0.3 1 0.7c0 0 0.1 0 0.2 0c0.5 0 1 0.5 1 1v0.1c0.4 0.1 0.6 0.5 0.6 0.9c0 0.2 0 0.3 0 0.4q0.2 0.2 0.2 0.6c0 0.2-0.1 0.5-0.3 0.7c0.3 0.1 0.4 0.4 0.4 0.7c0 0.3-0.1 0.5-0.2 0.7q0.2 0.2 0.2 0.6c0 0.3-0.1 0.5-0.3 0.7c0.1 0.2 0.2 0.4 0.2 0.6c0 0.4-0.1 0.7-0.4 0.9c0 0 0 0.1 0 0.1c0 0.6-0.4 1-1 1q-0.4 0-0.7-0.3c0 0.5-0.4 0.9-1 0.9c-0.3 0-0.5-0.2-0.7-0.3c-0.2 0.2-0.4 0.4-0.7 0.4c-0.5 0-0.8-0.3-1-0.7c-0.1 0.2-0.4 0.3-0.6 0.3c-0.4 0-0.8-0.3-1-0.7c-0.1 0.1-0.3 0.1-0.5 0.1c-0.5 0-0.8-0.3-0.9-0.8c-0.2 0.1-0.4 0.2-0.6 0.2c-0.5 0-0.9-0.4-1-0.9q-0.2 0.1-0.4 0.1c-0.6 0-1-0.5-1-1c0-0.6 0.4-1 1-1c0.5 0 0.9 0.4 1 0.9q0.2-0.1 0.4-0.1c0.5 0 0.9 0.3 1 0.8c0.2-0.1 0.3-0.2 0.5-0.2c0.4 0 0.8 0.3 1 0.7c0.1-0.1 0.3-0.1 0.5-0.1c0.4 0 0.7 0.2 0.9 0.6c0.2-0.2 0.4-0.2 0.7-0.2c0.3 0 0.5 0.1 0.7 0.2c0.1-0.2 0.4-0.3 0.7-0.3q0.5 0 0.7 0.3c0.1-0.3 0.2-0.5 0.4-0.7c0 0 0-0.1 0-0.2c0-0.3 0.2-0.5 0.3-0.7c-0.1-0.1-0.2-0.4-0.2-0.6c0-0.2 0.1-0.5 0.2-0.7q-0.2-0.2-0.2-0.6c0-0.2 0.1-0.5 0.3-0.7c-0.2-0.1-0.4-0.4-0.4-0.7c0-0.1 0-0.3 0-0.3q-0.2-0.3-0.2-0.7c-0.3-0.1-0.5-0.4-0.6-0.7c-0.1 0-0.2 0-0.2 0c-0.5 0-1-0.5-1-1c-0.1 0.1-0.2 0.1-0.3 0.1c-0.5 0-0.9-0.4-0.9-0.9c-0.2 0.1-0.3 0.1-0.5 0.1c-0.4 0-0.7-0.2-0.9-0.6q-0.2 0.2-0.5 0.2q-0.3 0-0.6-0.2c-0.1 0.2-0.3 0.4-0.5 0.5q0.2 0.3 0.2 0.6c0 0.6-0.5 1-1 1c-0.1 0-0.2 0-0.3 0c-0.1 0.5-0.5 0.9-1 0.9c-0.4 0-0.6-0.2-0.8-0.4c-0.1 0.5-0.5 0.8-1 0.8q0 0-0.1 0c0 0.1 0.1 0.2 0.1 0.3c0 0.3-0.2 0.5-0.4 0.7q0.1 0.3 0.1 0.5q0.1 0.1 0 0.3c0.1 0 0.2-0.1 0.2-0.1c0.5 0 1 0.5 1 1c0 0.6-0.5 1-1 1c-0.5 0-1-0.4-1-1q0-0.1 0.1-0.2c-0.1 0-0.2 0-0.3 0c-0.5 0-1-0.4-1-1q0.2-0.4 0.5-0.7z" />
				<path id="Layer" class="s27" d="m56.3 52.4c-0.5 0-1-0.4-1-1c0-0.5 0.5-1 1-1c0.6 0 1 0.5 1 1c0 0.6-0.4 1-1 1z" />
				<path id="Layer" class="s28" d="m57.7 53.2c-0.6 0-1-0.5-1-1c0-0.6 0.4-1 1-1c0.5 0 1 0.4 1 1c0 0.5-0.5 1-1 1z" />
				<path id="Layer" class="s29" d="m59 54c-0.6 0-1-0.4-1-1c0-0.5 0.4-1 1-1c0.5 0 1 0.5 1 1c0 0.6-0.5 1-1 1z" />
				<path id="Layer" class="s30" d="m60.1 54.8c-0.5 0-1-0.5-1-1c0-0.6 0.5-1 1-1c0.6 0 1 0.4 1 1c0 0.5-0.4 1-1 1z" />
				<path id="Layer" class="s31" d="m60.8 55.8c-0.6 0-1-0.5-1-1c0-0.6 0.4-1 1-1c0.6 0 1 0.4 1 1c0 0.5-0.4 1-1 1z" />
				<path id="Layer" class="s32" d="m61 56.7c-0.6 0-1-0.4-1-1c0-0.5 0.4-1 1-1c0.5 0 1 0.5 1 1c0 0.6-0.5 1-1 1z" />
				<path id="Layer" class="s33" d="m61 58.1c-0.5 0-0.9-0.4-0.9-1c0-0.5 0.4-1 0.9-1c0.6 0 1 0.5 1 1c0 0.6-0.4 1-1 1z" />
				<path id="Layer" class="s34" d="m61 59.4c-0.5 0-1-0.5-1-1c0-0.6 0.5-1 1-1c0.6 0 1 0.4 1 1c0 0.5-0.4 1-1 1z" />
				<path id="Layer" class="s35" d="m60.9 60.8c-0.5 0-1-0.5-1-1c0-0.6 0.5-1 1-1c0.6 0 1 0.4 1 1c0 0.5-0.4 1-1 1z" />
				<path id="Layer" class="s36" d="m54.9 52c-0.6 0-1-0.4-1-1c0-0.5 0.4-1 1-1c0.5 0 0.9 0.5 0.9 1c0 0.6-0.4 1-0.9 1z" />
				<path id="Layer" class="s37" d="m53.4 52.4c-0.6 0-1-0.5-1-1c0-0.6 0.4-1 1-1c0.5 0 1 0.4 1 1c0 0.5-0.5 1-1 1z" />
				<path id="Layer" class="s38" d="m52.9 53.9c-0.5 0-1-0.4-1-1c0-0.5 0.5-1 1-1c0.6 0 1 0.5 1 1c0 0.6-0.4 1-1 1z" />
				<path id="Layer" class="s39" d="m51.7 54.8c-0.6 0-1-0.5-1-1c0-0.6 0.4-1 1-1c0.5 0 1 0.4 1 1c0 0.5-0.5 1-1 1z" />
				<path id="Layer" class="s40" d="m49.9 55.1c-0.5 0-1-0.4-1-0.9c0-0.6 0.5-1 1-1c0.6 0 1 0.4 1 1c0 0.5-0.4 0.9-1 0.9z" />
				<path id="Layer" class="s41" d="m48.9 56.4c-0.6 0-1-0.5-1-1c0-0.6 0.4-1 1-1c0.5 0 1 0.4 1 1c0 0.5-0.5 1-1 1z" />
				<path id="Layer" class="s42" d="m60.5 61.8c-0.5 0-0.9-0.5-0.9-1c0-0.6 0.4-1 0.9-1c0.6 0 1 0.4 1 1c0 0.5-0.4 1-1 1z" />
				<path id="Layer" class="s43" d="m58.8 62.3c-0.5 0-1-0.4-1-1c0-0.5 0.5-1 1-1c0.6 0 1 0.5 1 1c0 0.6-0.4 1-1 1z" />
				<path id="Layer" class="s44" d="m57.4 62.4c-0.6 0-1-0.5-1-1c0-0.6 0.4-1 1-1c0.5 0 1 0.4 1 1c0 0.5-0.5 1-1 1z" />
				<path id="Layer" class="s45" d="m55.8 62.1c-0.5 0-1-0.5-1-1c0-0.6 0.5-1 1-1c0.6 0 1 0.4 1 1c0 0.5-0.4 1-1 1z" />
				<path id="Layer" class="s46" d="m54.4 61.5c-0.6 0-1-0.4-1-1c0-0.5 0.4-1 1-1c0.5 0 0.9 0.5 0.9 1c0 0.6-0.4 1-0.9 1z" />
				<path id="Layer" class="s47" d="m52.9 60.8c-0.6 0-1-0.4-1-1c0-0.5 0.4-0.9 1-0.9c0.5 0 1 0.4 1 0.9c0 0.6-0.5 1-1 1z" />
				<path id="Layer" class="s48" d="m51.4 60c-0.6 0-1-0.4-1-1c0-0.5 0.4-1 1-1c0.6 0 1 0.5 1 1c0 0.6-0.4 1-1 1z" />
				<path id="Layer" class="s49" d="m49.8 58.9c-0.5 0-1-0.5-1-1c0-0.6 0.5-1 1-1c0.6 0 1 0.4 1 1c0 0.5-0.4 1-1 1z" />
				<path id="Layer" class="s50" d="m48.7 57.6c-0.6 0-1-0.4-1-1c0-0.5 0.4-1 1-1c0.5 0 1 0.5 1 1c0 0.6-0.5 1-1 1z" />
				<path id="Layer" class="s26" d="m26 57c1.5 0.9 0.8 3.4-1 3.2c-0.1 0-0.1 0-0.1 0c-1.7-0.1-3.5-0.8-3.6 0.2c0 1 0.9 1.8-1 2.5c-2 0.6-10-0.7-10.9-1.3c-1-0.6-1.7-1.1-2.5-1.4c-0.8-0.3-2.7-1.5-2.2-2.5c0.6-1 9.7-6.1 11.7-5.9c1.4 0.3 6.6 3.4 9.6 5.2z" />
				<path id="Layer" class="s17" d="m22.6 55c0 0-2.5 0.4-4.3-1.7c-1.9-2.1-4.4-8.8-4.5-9.9c0-1.2-0.2-1.8 0.5-2.1c0.6-0.3 2.7 2.4 3.6 3.7c0.9 1.2 2.4 4.6 4.3 6.5c2 1.9 0.4 3.5 0.4 3.5z" />
				<path id="Layer" class="s15" d="m14.3 47.2l1.1 2.3l0.3 5.3l-1.2 0.5c-0.4-3.6-0.2-8.1-0.2-8.1z" />
				<path id="Layer" class="s15" d="m14.1 42.3l0.2 1.6c0 0 3 8.7 4.5 10.2c1.5 1.4 3.9 0.9 3.9 0.9l2.3 3.1l0.2 0.2c-7.9 0.8-8.3-3.5-8.3-3.5c-0.7-3.7-2.4-6.1-2.4-6.1c-0.2 0.2 0.1 6.6 0.1 6.6l-0.6-0.4c0.1-1.3-0.5-6.1-0.5-6.1c-2.3-5.9 0.8-7.5 0.8-7.5z" />
				<path id="Layer" class="s15" d="m22.3 51.5c0 0 5.2 6.1 3.6 6.7c-3.3 1.1-6.6-1.5-8.4-4.4c-1.9-3.2 8.4 5.5 4.8-2.3z" />
				<path id="Layer" class="s15" d="m22.3 51.5c0 0 4.4 5.6 2.9 6.1c-2.9 0.9-7.2-2.3-7.7-4.1c-0.2-0.6 9.3 6 4.8-2z" />
				<path id="Layer" class="s17" d="m16.2 58.7c0 0-2.4 0.5-4.3-1.7c-1.9-2.1-4.3-8.7-4.4-9.9c-0.1-1.2-0.2-1.7 0.4-2c0.6-0.3 2.8 2.4 3.7 3.6c0.8 1.3 2.4 4.6 4.3 6.6c1.9 1.9 0.3 3.4 0.3 3.4z" />
				<path id="Layer" class="s15" d="m7.9 50.9l1.1 2.3l0.3 5.3l-1.2 0.5c-0.5-3.5-0.2-8-0.2-8.1z" />
				<path id="Layer" class="s15" d="m7.7 46.1l0.3 1.6c0 0 2.9 8.7 4.5 10.2c1.4 1.4 3.8 0.8 3.8 0.8l2.4 3.2l0.1 0.2c-7.9 0.8-8.2-3.6-8.2-3.6c-0.7-3.7-2.5-6-2.5-6c-0.1 0.2 0.1 6.5 0.1 6.5l-0.6-0.3c0.1-1.3-0.5-6.1-0.5-6.1c-2.3-5.9 0.8-7.5 0.8-7.5z" />
				<path id="Layer" class="s15" d="m15.9 55.3c0 0 5.3 6.1 3.6 6.7c-3.2 1-6.5-1.6-8.3-4.5c-2-3.2 8.3 5.5 4.7-2.2z" />
				<path id="Layer" class="s15" d="m15.9 55.3c0 0 4.5 5.5 3 6c-2.9 0.9-7.2-2.3-7.8-4.1c-0.1-0.6 9.3 6.1 4.8-1.9z" />
				<path id="Layer" class="s51" d="m36.8 55.2v-0.7l8.3-4.3l3.5 0.7l0.1 0.1l-0.7 0.4l-2.8-0.6l-6.8 3.7l6.2 3.6c0.4 0.3 0.7 0.8 0.7 1.2v0.4c0.4-0.1 0.7 0 0.9 0.4l0.1 0.1q0.1-0.3 0.4-0.4c0.2-0.3 0.5-0.4 0.9-0.2l6.2 3.7c0.4 0.3 0.7 0.7 0.7 1.2v0.2h0.1l0.4 0.2l8-4.1l3.5 0.7v0.1h0.1l-0.7 0.4l-2.8-0.6l-8.2 4.4l-0.4-0.2v1.4c0 1.1-0.6 2.1-1.3 2.7c-1.1 0.9-2.7 1.2-4.1 0.4c-1.7-1-3-4.3-2.8-8v-1.5v0.2l-0.2-0.3c-0.2-0.4-0.5-0.5-0.9-0.5v1.8c0 1.1-0.5 2.1-1.2 2.7c-1.1 0.9-2.7 1.2-4.1 0.4c-1.8-1-3-4.3-2.9-8v-1.5z" />
				<path id="Layer" class="s52" d="m45.1 58.8c0.4-0.2 0.8-0.1 1.1 0.3l0.1 0.2v0.4l-0.1-0.3c-0.3-0.4-0.7-0.5-1.1-0.4v-0.2z" />
				<path id="Layer" class="s52" d="m45.1 49.2l3.5 0.7l0.1 0.2l-3.6-0.3z" />
				<path id="Layer" class="s52" d="m45.1 49.2v0.6l-8.3 4.4v-0.7z" />
				<path id="Layer" class="s53" d="m45.2 49.3v0.6l-8.2 4.4v-0.7z" />
				<path id="Layer" class="s53" d="m45.2 49.3l3.5 0.8l-0.7 0.3l-2.8-0.5z" />
				<path id="Layer" class="s52" d="m63 59.8l3.5 0.8h0.1l-3.6-0.3z" />
				<path id="Layer" class="s52" d="m63 59.8v0.5l-8.2 4.5l-0.1-0.7z" />
				<path id="Layer" class="s52" d="m54.5 63.6v2.5c0 2.6-2.9 4.2-5.2 2.9c-1.8-1-3-4.4-2.9-8v-1.7c0-0.6 0.6-0.9 1.1-0.6l6.3 3.7c0.4 0.2 0.7 0.7 0.7 1.2z" />
				<path id="Layer" class="s54" d="m54.3 63.8v2.5c0 2.5-2.9 4.2-5.2 2.9c-1.7-1-3-4.4-2.8-8v-1.8c0-0.5 0.6-0.8 1.1-0.5l6.2 3.7c0.4 0.2 0.7 0.7 0.7 1.2z" />
				<path id="Layer" class="s55" d="m53.9 63.8v2.3c0 2.3-2.6 3.8-4.6 2.6c-1.6-0.9-2.6-3.9-2.5-7.2v-1.6c0-0.5 0.5-0.8 0.9-0.5l5.5 3.3c0.4 0.3 0.7 0.7 0.7 1.1z" />
				<path id="Layer" class="s52" d="m45.3 58.4v2.5c0 2.6-2.9 4.2-5.2 2.9c-1.8-1-3-4.4-2.8-8v-1.7c0-0.6 0.5-0.9 1-0.6l6.3 3.7c0.4 0.2 0.7 0.7 0.7 1.2z" />
				<path id="Layer" class="s54" d="m45.1 58.6v2.5c0 2.5-2.9 4.2-5.2 2.9c-1.8-1-3-4.4-2.9-8v-1.8c0-0.5 0.6-0.8 1.1-0.5l6.3 3.7c0.4 0.2 0.7 0.7 0.7 1.2z" />
				<path id="Layer" class="s55" d="m44.6 58.7v2.2c0 2.4-2.5 3.8-4.6 2.7c-1.5-0.9-2.6-4-2.5-7.2v-1.6c0-0.5 0.6-0.8 1-0.6l5.5 3.4c0.4 0.2 0.6 0.6 0.6 1.1z" />
				<path id="Layer" class="s54" d="m54.3 63.8l0.6 0.4v0.7l-0.6-0.3z" />
				<path id="Layer" class="s52" d="m55.1 64.1l-0.2 0.1l-0.6-0.4l0.2-0.1z" />
				<path id="Layer" class="s53" d="m63.1 59.9v0.5l-8.2 4.5v-0.7z" />
				<path id="Layer" class="s53" d="m63.1 59.9l3.5 0.7l-0.7 0.4l-2.8-0.6z" />
				<path id="Layer" class="s54" d="m37.1 54.4l-0.3-0.2v-0.7l0.5 0.3z" />
				<path id="Layer" class="s54" d="m45 58.9c0.5-0.1 0.9 0 1.2 0.3l0.1 0.2v0.4l-0.2-0.3c-0.2-0.4-0.6-0.5-1.1-0.4v-0.2z" />
				<path id="Layer" class="s56" d="m22.7 68.1c0 0 0 0 0 0c0.1 0 0.2 0 0.2 0q0.3 0.2 0.3 0.5q0.4 1.2 1.1 2.2c0.2 0.2 0.2 0.5 0.1 0.7c-0.1 0-0.2 0-0.3 0q-0.1-0.1-0.2-0.3q-0.9-1.2-1.4-2.7c-0.1-0.2 0-0.4 0.2-0.4z" />
				<path id="Layer" class="s57" d="m23.4 64.7q0-0.1 0.1-0.2c-0.1 0.1-0.1 0.1-0.1 0.2zm0.4-0.5c0.1-0.1 0.1-0.1 0.1-0.1c0 0 0 0-0.1 0.1zm-0.1 0.1c0 0 0 0 0-0.1c0 0.1 0 0.1 0 0.1zm-0.1 0q-0.1 0.1-0.1 0.2q0-0.1 0.1-0.2z" />
				<path id="Layer" class="s56" d="m22.3 64.8q0-0.1 0.1-0.2c0 0 0 0 0.1 0c0 0 0.1 0.1 0.1 0.1q0.1 0 0.1 0.1c0.2 0.1 0.3 0.5 0.3 0.7c-0.1 0.3-0.1 0.6-0.1 1c0 0.3 0 0.7 0 1q0 0 0 0.1q0 0 0 0q0 0.1 0 0.1q0 0 0 0c0 0 0 0.1 0 0.1q-0.1 0.1-0.2 0c-0.1 0-0.1 0-0.1 0c-0.2-0.2-0.4-0.4-0.4-0.6q-0.1-0.6-0.1-1.2c0-0.4 0.1-0.8 0.2-1.2z" />
				<path id="Layer" class="s56" d="m23.8 63q0.1-0.1 0.3-0.1c0.1 0 0.1 0 0.2 0q0.2 0.2 0.3 0.4c0.1 0 0.1 0.1 0.1 0.2q0 0 0 0q0 0.1 0 0.1q0 0.1-0.1 0.2c0 0 0 0 0 0c0 0-0.1 0.1-0.1 0.1q-0.3 0.1-0.6 0.2c0 0-0.1 0-0.1 0.1h-0.1c0 0.1 0 0.1 0 0.1h-0.1q-0.1 0.1-0.1 0.2c-0.1 0.1-0.1 0.1-0.1 0.2c0 0-0.1 0-0.1 0.1q-0.1 0-0.3-0.1c-0.1 0-0.1-0.1-0.2-0.1c0-0.1 0-0.1-0.1-0.2c-0.1-0.2-0.1-0.4 0-0.6q0.3-0.5 0.7-0.7q0.2-0.1 0.3-0.1z" />
				<path id="Layer" class="s26" d="m23.9 70.7l6.7-3.2l15 7.2c0.8 0.5 0.8 1.6 0 2l-7.6 3.8c-1 0.4-2.1 0.4-3-0.2l-11.3-7.8c-0.6-0.4-0.5-1.4 0.2-1.8z" />
				<path id="Layer" class="s58" d="m22.6 68.3v-0.7l3.7-1.9l0.2 0.3z" />
				<path id="Layer" class="s58" d="m24.6 71.7l-0.3-0.4l4.6-2.6l0.7 0.4z" />
				<path id="Layer" class="s59" d="m29.5 64.1c0 0 0.1 0 0.1 0c0 0 0.1 0 0.2 0q0.2 0.2 0.3 0.5q0.4 1.2 1.1 2.2c0.1 0.2 0.2 0.5 0.1 0.7c0 0-0.1 0-0.1 0l-6.8 4c0 0 0 0 0 0c0.1-0.2 0.1-0.5-0.1-0.7q-0.7-1-1.1-2.2q-0.1-0.3-0.3-0.5c0 0-0.1 0-0.2 0c0 0 0 0 0 0h-0.1z" />
				<path id="Layer" fill-rule="evenodd" class="s57" d="m31.5 67.6q0.1-0.1 0.3 0q0.1 0.1 0.1 0.2q0.5 0.5 1.1 0.8l0.7 0.4c0.2 0.1 0.4 0.4 0.4 0.7c0 0 0 0 0 0.1l-6.5 3.7q-0.1 0.1-0.2 0.2l-0.3 0.2q0 0 0 0v-0.1q0 0 0 0v-0.1q0 0.1 0 0c0 0 0 0 0-0.1c0-0.2-0.1-0.5-0.3-0.6l-0.8-0.5q-0.5-0.3-1-0.8q-0.1-0.1-0.1-0.1c-0.1 0-0.1-0.1-0.1-0.1q0 0-0.1 0q0 0-0.1 0q0 0 0 0.1zm-3.8 5.9c0 0-0.1 0 0 0zm0 0h0.1q-0.1 0-0.1 0z" />
				<path id="Layer" class="s56" d="m24.7 71.6c0 0 0 0 0.1 0q0 0 0 0c0.1 0 0.1 0 0.1 0q0.1 0.1 0.1 0.1q0.5 0.6 1.1 0.9l0.7 0.4c0.2 0.1 0.4 0.4 0.4 0.7c0 0 0 0 0 0q0 0 0 0.1q0 0 0 0.1c-0.1 0.1-0.2 0.1-0.3 0l-0.8-0.4q-0.6-0.4-1.3-1c-0.2-0.3-0.3-0.5-0.2-0.8q0-0.1 0.1-0.1z" />
				<path id="Layer" class="s57" d="m22.9 67.8c0-0.1 0-0.1 0-0.1q0 0 0-0.1q0 0 0-0.1q0 0 0-0.1q0-0.5 0-0.9c0-0.4 0-0.7 0.1-1.1c0-0.2-0.1-0.5-0.3-0.7c0 0-0.1 0-0.1-0.1q-0.1 0-0.1 0q-0.1 0-0.1 0l0.3-0.2c0.1 0 0.1 0.1 0.1 0.1c0.1 0.1 0.1 0.1 0.2 0.2c0.1 0 0.2 0.1 0.3 0l6.5-3.8q0.1 0.3 0.1 0.5c-0.1 0.4-0.1 0.7-0.1 1.1c0 0.3 0 0.6 0.1 0.9q0.1 0.3-0.1 0.4l-6.9 4c0 0 0 0 0 0z" />
				<path id="Layer" class="s57" d="m23.3 64.8c0 0 0-0.1 0.1-0.1l6.8-4c0 0 0 0-0.1 0.1l-0.3 0.2z" />
				<path id="Layer" class="s59" d="m23.5 64.5q0.1-0.1 0.1-0.2h0.1c0 0 0 0 0-0.1h0.1c0-0.1 0.1-0.1 0.1-0.1q0.3-0.2 0.6-0.2c0 0 0 0 0.1-0.1c0 0 0 0 0 0c0-0.1 0.1-0.1 0.1-0.2q0 0 0-0.1q0 0 0 0c0-0.1-0.1-0.1-0.1-0.2c0-0.2-0.2-0.3-0.3-0.4c-0.1 0-0.1 0-0.2 0c-0.1 0-0.2 0-0.3 0.1c0 0-0.1 0-0.1 0c0 0.1-0.2 0.1-0.3 0.1l6.9-4q0.3-0.1 0.7-0.2c0.1 0 0.1 0 0.2 0q0.2 0.2 0.3 0.4c0.1 0.3 0.1 0.5 0 0.5l-1.1 0.7c-0.1 0.1-0.1 0.1-0.2 0.2l-6.8 4c0-0.1 0-0.1 0.1-0.2z" />
				<path id="Layer" class="s59" d="m34.1 69.8l0.3-0.3q0.1 0 0.3 0.1l1.3 0.7c0 0.1 0.1 0.2 0.1 0.3c0.1 0.1 0.2 0.2 0.2 0.3q0.3 0.3 0.5 0.7l-6.3 3.7q-0.1 0-0.2 0.1l-0.3 0.3q0 0 0.1-0.1c0 0 0 0 0 0q0 0 0-0.1q0 0 0-0.1c0 0 0 0 0 0c0-0.3-0.2-0.6-0.4-0.7l-1.9-1.1c-0.1 0-0.1-0.1-0.1-0.1h-0.1q0.1 0 0 0q0 0-0.1 0q0 0 0 0q0 0-0.1 0z" />
				<path id="Layer" class="s56" d="m27.6 73.5c0 0 0 0 0 0q0 0 0 0q0 0 0 0h0.1q0 0 0 0h0.1c0 0 0 0 0.1 0l1.9 1.2c0.2 0.1 0.4 0.4 0.4 0.6c0 0.1 0 0.1 0 0.1q0 0 0 0v0.1q0 0 0 0c0 0 0 0.1-0.1 0.1c0 0-0.1 0.1-0.3 0l-1.9-1.1c-0.2-0.2-0.4-0.5-0.4-0.7c0-0.1 0-0.1 0-0.1c0-0.1 0-0.1 0.1-0.2z" />
				<path id="Layer" fill-rule="evenodd" class="s57" d="m36.8 71.6c0 0 0 0.1 0 0.1q0.3 0.5 0.5 1c0.1 0.2 0.2 0.4 0.3 0.4c0.1 0.1 0.2 0.1 0.2 0.1q0.1 0 0.1-0.1l1.5-0.9l0.2 0.1l-1.9 1.1c-0.1 0.1-0.2 0.2-0.2 0.4c0.1 0.2 0.1 0.4 0.1 0.6l-4.2 2.4q-0.1 0.1-0.1 0.2l-0.4 0.2q0 0 0.1 0q0 0 0 0q0 0 0-0.1q0 0 0 0v-0.1q0 0 0 0c0-0.1 0-0.1 0-0.1c0-0.2-0.2-0.5-0.4-0.7l-1.9-1.1c-0.1 0-0.1 0-0.1 0q0 0 0 0h-0.1q0 0 0 0h-0.1q0 0 0 0h-0.1zm1.3 1.6q0-0.1 0 0zm-4.5 3.7q0 0 0 0zm4.5-4c0 0 0 0 0 0z" />
				<path id="Layer" class="s56" d="m30.5 75.2q0.1 0.1 0.1 0q0 0 0 0h0.1q0 0 0 0c0.1 0 0.1 0 0.1 0l2 1.2c0.2 0.1 0.3 0.4 0.3 0.6c0 0.1 0 0.1 0 0.1q0 0 0 0.1q0 0 0 0v0.1q0 0 0 0c-0.1 0-0.2 0.1-0.3 0l-2-1.1c-0.2-0.2-0.3-0.5-0.3-0.7c0-0.1 0-0.1 0-0.1q-0.1-0.1 0-0.2z" />
				<path id="Layer" fill-rule="evenodd" class="s57" d="m36.6 77.6c0 0-0.1 0.1-0.1 0.1q0.1-0.1 0.1-0.1zm-0.1 0.1c-0.1 0-0.2 0-0.2 0c0 0 0.1 0 0.2 0zm1.1-1q0.1 0 0.1 0c0 0 0 0-0.1 0zm0 0c-0.1 0-0.1 0-0.1 0q0.1 0 0.1 0z" />
				<path id="Layer" class="s56" d="m33.5 76.9q0 0.1 0 0h0.1q-0.1 0 0 0c0.1 0 0.1 0 0.1 0l0.8 0.5q0.5 0.3 1 0.3c0 0 0.1 0.1 0.1 0.1c0.2 0.1 0.3 0.3 0.4 0.5q0 0 0 0.1q0 0 0 0q0 0.1 0 0.1c0 0.1 0 0.1 0 0.1v0.1q-0.1 0-0.2 0q-0.6-0.1-1.3-0.5l-0.7-0.4c-0.2-0.1-0.4-0.4-0.4-0.7c0 0 0 0 0-0.1c-0.1 0 0-0.1 0.1-0.1z" />
				<path id="Layer" class="s59" d="m37.7 74.5c0 0 0 0.1 0 0.2c0 0.1 0 0.2 0 0.4c0 0.1 0 0.3 0 0.4c0 0.2-0.1 0.3-0.1 0.5c0 0.2 0.1 0.4 0.2 0.5l-0.3 0.2q0 0 0 0c0 0-0.1 0-0.1 0.1c-0.1 0.2-0.2 0.4-0.4 0.6q-0.1 0.1-0.3 0.2c-0.1 0-0.1 0.1-0.2 0.1c0 0 0 0 0 0c0 0-0.1 0-0.2 0.1c-0.1 0-0.2 0.3 0 0.6c0 0 0 0.1 0.1 0.2l-0.4 0.2c0-0.1 0-0.1 0-0.1q0-0.1 0-0.1q0 0 0 0q0.1-0.1 0-0.2c0-0.2-0.2-0.4-0.4-0.5q0 0-0.1 0q-0.5-0.1-1-0.4l-0.8-0.4c0 0 0 0-0.1 0q0 0 0 0h-0.1q0 0 0 0h-0.1z" />
				<path id="Layer" class="s57" d="m37.5 78.3c0 0 0.1-0.1 0.2-0.2c0 0 0 0 0 0c0.1-0.1 0.1-0.2 0.2-0.2c0-0.1 0-0.1 0-0.1c0.1-0.1 0.1-0.2 0.2-0.3c0.1-0.1 0-0.5-0.2-0.7c-0.1 0-0.1-0.1-0.2-0.1c0 0-0.1 0-0.1 0q0 0 0 0c-0.1 0-0.1 0-0.1 0c0 0 0 0-0.1 0l0.4-0.2c0 0 0 0.1 0.1 0.2c0.1 0 0.1 0 0.1 0c0.1 0.1 0.3 0.1 0.3 0l6.5-3.7c0.1 0.2 0.2 0.4 0.1 0.6q-0.3 0.6-0.9 0.9l-6.8 4c0 0 0 0 0 0q0.1-0.1 0.2-0.1c0 0 0.1-0.1 0.1-0.1z" />
				<path id="Layer" class="s57" d="m38.3 76.7c0-0.1 0.1-0.1 0.1-0.2q0 0.2-0.1 0.2z" />
				<path id="Layer" class="s56" d="m36.3 77.7c0 0 0.1 0 0.2 0c0 0 0 0 0-0.1c0 0 0.1 0 0.1 0c0.2-0.1 0.2-0.2 0.4-0.3q0.2-0.2 0.4-0.5q0-0.1 0.1-0.1c0 0 0 0 0.1 0q0 0 0 0q0.1-0.1 0.1 0c0.1 0 0.1 0.1 0.2 0.1c0.2 0.2 0.3 0.6 0.2 0.7q-0.1 0.2-0.2 0.3c0 0 0 0 0 0.1c-0.1 0-0.1 0.1-0.2 0.2c0 0 0 0 0 0c-0.1 0.1-0.2 0.1-0.2 0.2l-0.1 0.1c0 0-0.1 0-0.1 0.1c-0.2 0.1-0.3 0.2-0.5 0.2q-0.2 0-0.3 0c0-0.1-0.1-0.1-0.2-0.2q0-0.1-0.1-0.2c-0.1-0.3-0.1-0.5 0.1-0.6z" />
				<path id="Layer" class="s59" d="m38.3 76.7c0 0 0 0 0 0q0 0 0 0c0 0 0.1-0.1 0.1-0.1c0-0.3 0.1-0.7 0.1-1q0-0.7-0.2-1.5c0-0.2-0.2-0.4-0.3-0.5c-0.1 0-0.1-0.1-0.1-0.1c-0.1 0-0.1 0-0.1 0q0 0 0 0h-0.1l1.9-1.1l5-2.9c0 0 0.1 0 0.1 0c0.1 0 0.1 0.1 0.1 0.1c0.2 0.1 0.4 0.3 0.4 0.5c0.1 0.5 0.1 1 0.1 1.5q0 0.5-0.1 1q0 0.1-0.1 0.1l-0.3 0.3z" />
				<path id="Layer" class="s56" d="m37.8 73.5c0 0 0 0 0.1 0c0 0 0.1 0 0.1 0c0.1 0.1 0.3 0.4 0.3 0.6c0.1 0.5 0.2 0.9 0.2 1.4q0 0.6-0.1 1c0 0.1-0.1 0.1-0.1 0.2q0-0.1 0 0q-0.1 0.1-0.3 0c0 0 0 0-0.1 0c0-0.1-0.1-0.1-0.1-0.2c-0.2-0.2-0.2-0.4-0.2-0.6q0-0.1 0-0.4q0-0.2 0-0.4c0-0.2 0-0.3 0-0.5c0 0 0-0.1 0-0.1c0-0.3 0-0.4-0.1-0.6c0-0.2 0-0.4 0.2-0.4c0 0 0.1 0 0.1 0z" />
				<path id="Layer" class="s60" d="m26.1 63.9q0 0.1 0 0.1q0 0 0 0.1q0 0.1 0 0.1q0 0 0.1 0.1q0 0.1 0 0.1q0 0 0.1 0.1q0 0.1 0 0.1c0 0 0.1 0.1 0.1 0.1c0 0.1 0 0.1 0 0.1c0 0 0 0.1 0 0.1c0 0.1 0.1 0.1 0.1 0.1c0 0.1 0 0.1 0 0.1c0 0.1 0.1 0.1 0.1 0.1c0 0.1 0 0.1 0 0.1c0.1 0.1 0.1 0.1 0.1 0.1c0.1 0.1 0.1 0.1 0.1 0.1c0.1 0.1 0.1 0.1 0.1 0.1c0 0.1 0 0.1 0.1 0.2c0 0 0 0 0.1 0q0 0.1 0 0.1c0.1 0.1 0.1 0.1 0.1 0.1q0.1 0.1 0.2 0.1c0 0 0 0 0 0.1q0.1 0 0.2 0.1c0 0 0 0 0 0q0.1 0.1 0.2 0.1c0 0.1 0.1 0.1 0.1 0.1c0 0 0.1 0.1 0.1 0.1c0.1 0 0.1 0.1 0.1 0.1c0.1 0 0.2 0.1 0.3 0.1c3 1.8 7.9 1.8 11 0c0.1 0 0.1-0.1 0.3-0.1c0-0.1 0-0.1 0-0.1c0.1-0.1 0.2-0.1 0.2-0.1c0.1-0.1 0.1-0.1 0.1-0.1q0.1-0.1 0.1-0.1c0.1-0.1 0.1-0.1 0.1-0.1q0.1-0.1 0.1-0.2c0.1 0 0.1 0 0.1 0q0.1-0.1 0.1-0.2c0.1 0 0.1 0 0.1 0q0.1-0.1 0.1-0.1c0-0.1 0-0.1 0.1-0.1q0.1-0.1 0.1-0.1c0-0.1 0-0.1 0.1-0.1c0-0.1 0-0.1 0-0.1c0.1-0.1 0.1-0.1 0.1-0.1c0.1-0.1 0.1-0.1 0.1-0.1c0-0.1 0-0.1 0-0.1c0-0.1 0.1-0.1 0.1-0.2c0 0 0 0 0 0c0-0.1 0.1-0.1 0.1-0.2c0 0 0 0 0 0c0-0.1 0.1-0.1 0.1-0.2q-0.1 0 0-0.1c0 0 0 0 0-0.1q0-0.1 0.1-0.1q0 0 0-0.1q0-0.1 0-0.1q0-0.1 0-0.1q0-0.1 0-0.2q0 0 0-0.1v1.7c0 1.1-0.7 2.3-2.3 3.2c-3 1.7-7.9 1.7-10.9 0c-1.5-0.9-2.3-2-2.3-3.2v-1.6c0 0.2 0 0.2 0 0.3z" />
				<path id="Layer" class="s61" d="m26.3 62.7q-0.2 0.4-0.2 0.9q0-0.1 0-0.1v1.6c0 1 0.6 2 1.8 2.9c-1-0.7-1.6-1.5-1.8-2.3c-0.2-0.6-0.6-1.1-1.3-1.6l-0.5-0.3z" />
				<path id="Layer" class="s61" d="m24.2 63.8v-0.8l1.2 0.4l0.5 0.9v0.5z" />
				<path id="Layer" class="s62" d="m26.3 61.8c0 0 1.9-1 2-1.1c0.1-0.1-0.8 2.3-0.8 2.2l-1.3 1.4c0 1 0.6 2 1.7 2.8c-0.9-0.6-1.5-1.4-1.8-2.2c-0.1-0.6-0.6-1.2-1.3-1.6l-0.5-0.3z" />
				<path id="Layer" class="s62" d="m24.2 63l7.6-4.4l1.2 0.8l-4.4 2.2l-4.4 1.4z" />
				<path id="Layer" class="s62" d="m38.9 66.3c-2.8 1.6-7.3 1.6-10 0c-2.8-1.6-2.8-4.2 0-5.8c2.8-1.6 7.3-1.6 10 0c2.8 1.6 2.8 4.2 0 5.8z" />
				<path id="Layer" fill-rule="evenodd" class="s63" d="m41.6 63.8q0 0.1 0 0.2q0 0 0 0.1q0 0.1 0 0.1q0 0.1 0 0.1q0 0.1-0.1 0.1c0 0.1 0 0.1 0 0.2q0 0 0 0c0 0.1-0.1 0.1-0.1 0.2c0 0 0 0 0 0c0 0.1-0.1 0.1-0.1 0.2c0 0 0 0.1 0 0.1c0 0-0.1 0-0.1 0.1c0 0 0 0.1 0 0.1c0 0 0 0-0.1 0.1c0 0 0 0.1-0.1 0.1c0 0 0 0 0 0.1c-0.1 0-0.1 0-0.1 0.1c-0.1 0-0.1 0.1-0.1 0.1c-0.1 0-0.1 0-0.1 0.1q-0.1 0.1-0.1 0.1c0 0 0 0-0.1 0q0 0.1-0.1 0.2c0 0 0 0-0.1 0.1q0 0-0.1 0.1c0 0-0.1 0-0.1 0.1q0 0-0.1 0.1c0 0-0.1 0-0.1 0.1c0 0-0.1 0.1-0.2 0.1c0 0 0 0 0 0.1c-0.1 0-0.2 0.1-0.3 0.1c-3.1 1.8-8 1.8-11 0c-0.1 0-0.2-0.1-0.3-0.1c0 0 0-0.1-0.1-0.1c0 0-0.1 0-0.1-0.1c-0.1 0-0.1 0-0.1-0.1q-0.1 0-0.2-0.1c0 0 0 0 0 0q-0.1-0.1-0.2-0.1c0-0.1 0-0.1 0-0.1q-0.1-0.1-0.2-0.1c0 0 0 0-0.1-0.1q0 0 0-0.1c-0.1 0-0.1 0-0.1 0c-0.1-0.1-0.1-0.1-0.1-0.2c0 0 0 0-0.1 0c0-0.1 0-0.1-0.1-0.2c0 0 0-0.1-0.1-0.1c0 0 0 0 0-0.1c0 0-0.1-0.1-0.1-0.1c0 0 0 0 0-0.1c0 0-0.1-0.1-0.1-0.1c0 0 0 0 0-0.1c0 0 0-0.1 0-0.1c0 0-0.1-0.1-0.1-0.1q0-0.1 0-0.1c0 0-0.1-0.1-0.1-0.1q0-0.1 0-0.1q0-0.1-0.1-0.1q0-0.1 0-0.1q0-0.1 0-0.1q0-0.1 0-0.1c0-1.1 0.7-2.2 2-3.1c-2 1.6-1.7 3.8 0.8 5.3c2.7 1.6 7.2 1.6 10 0c2.5-1.5 2.7-3.8 0.6-5.4c1.4 0.8 2.2 2 2.2 3.1c-0.1-0.2-0.1-0.2-0.1-0.2zm-13.2-3c3.1-1.7 8-1.7 11 0q0.1 0 0.1 0.1q-0.3-0.2-0.6-0.4c-2.7-1.6-7.2-1.6-10 0q-0.4 0.2-0.8 0.5q0.2-0.1 0.3-0.2z" />
				<path id="Layer" class="s62" d="m29.2 60.6c2.6-1.5 6.8-1.5 9.4 0c2.6 1.5 2.6 4 0 5.5c-2.6 1.5-6.8 1.5-9.4 0c-2.6-1.5-2.6-3.9 0-5.5z" />
				<path id="Layer" fill-rule="evenodd" class="s64" d="m29.2 60.6c2.6-1.5 6.8-1.5 9.4 0c2.6 1.5 2.6 4-0.1 5.5c-2.6 1.5-6.8 1.5-9.4 0c-2.5-1.5-2.5-3.9 0.1-5.5zm0.3 5.3c2.4 1.4 6.3 1.4 8.7 0c2.4-1.4 2.4-3.7 0.1-5.1c-2.5-1.3-6.3-1.3-8.7 0c-2.5 1.5-2.5 3.7-0.1 5.1z" />
				<path id="Layer" fill-rule="evenodd" class="s65" d="m29.6 60.8c2.4-1.3 6.3-1.3 8.7 0c2.4 1.4 2.3 3.7-0.1 5.1c-2.4 1.4-6.3 1.4-8.7 0c-2.4-1.4-2.4-3.6 0.1-5.1zm-1.3 1.7l-0.1 0.1l1.6 0.2v-0.1zm1.6-1.5l-0.1 0.1l1.1 0.6l0.1-0.1zm2.6-0.8l-0.2 0.1l0.4 0.8h0.2zm2.9 0l-0.4 0.9h0.2l0.4-0.9zm2.6 0.9l-1.1 0.6l0.1 0.1l1.2-0.7zm1.5 1.6l-1.5 0.2v0.2l1.6-0.3zm0 1.8v-0.1l-1.5-0.2l-0.1 0.1zm-1.6 1.5l0.2-0.1l-1.2-0.7l-0.1 0.1zm-2.6 0.9h0.2l-0.4-0.9h-0.2zm-2.9 0l0.5-0.9h-0.2l-0.5 0.9zm-2.6-0.9l0.9-0.5q0.2 0 0.2-0.1l2.3-1.3c0.4 0.2 1 0.1 1.3-0.1c0.4-0.2 0.4-0.6 0-0.9c-0.3-0.2-0.9-0.2-1.3 0l-1.7-1c-0.1-0.1-0.2-0.1-0.3 0c-0.1 0-0.1 0.1 0 0.1l1.7 1c-0.2 0.2-0.2 0.5 0 0.7l-2.3 1.3q-0.2 0.1-0.1 0.1l-0.9 0.6zm0-1.7l-0.1-0.1l-1.5 0.2v0.1z" />
				<path id="Layer" class="s66" d="m29.7 61l0.1-0.1l1.2 0.7l-0.2 0.1z" />
				<path id="Layer" class="s12" d="m33 63.1l-1.7-1c-0.1-0.1-0.1-0.2 0-0.2c0.1-0.1 0.3-0.1 0.3 0l1.7 1c0 0-0.1 0-0.1 0.1q-0.1 0-0.2 0.1z" />
				<path id="Layer" class="s66" d="m32.3 60.1h0.2l0.4 0.9h-0.2z" />
				<path id="Layer" class="s66" d="m34.9 61l0.4-0.9h0.2l-0.4 0.9z" />
				<path id="Layer" class="s66" d="m36.8 61.6l1.2-0.7l0.1 0.1l-1.1 0.7z" />
				<path id="Layer" class="s66" d="m38 62.7l1.5-0.2v0.1l-1.5 0.2z" />
				<path id="Layer" class="s66" d="m38 64l1.5 0.2v0.1l-1.5-0.2z" />
				<path id="Layer" class="s66" d="m38.1 65.7l-0.2 0.1l-1.1-0.6l0.2-0.1z" />
				<path id="Layer" class="s66" d="m35.5 66.6l-0.2 0.1l-0.4-0.9h0.1z" />
				<path id="Layer" class="s66" d="m32.9 65.8l-0.4 0.9l-0.2-0.1l0.4-0.8z" />
				<path id="Layer" class="s66" d="m30.7 65.2c0 0 0 0.1 0.1 0.1l-1 0.5l-0.1-0.1l0.9-0.5z" />
				<path id="Layer" class="s66" d="m29.8 64v0.1l-1.5 0.2l-0.1-0.1z" />
				<path id="Layer" class="s66" d="m29.8 62.8l-1.6-0.2l0.1-0.1l1.5 0.2z" />
				<path id="Layer" class="s12" d="m30.6 65.2c0-0.1 0-0.1 0.1-0.1l2.3-1.4q0.1 0.1 0.2 0.1c0 0.1 0.1 0.1 0.1 0.1l-2.2 1.4c-0.1 0-0.2 0-0.3 0q0 0 0 0q-0.2-0.1-0.2-0.1z" />
				<path id="Layer" class="s66" d="m33 63.7c-0.2-0.2-0.2-0.4 0-0.6q0.1-0.1 0.1-0.1c0.1-0.1 0.2-0.1 0.2-0.1c0.4-0.2 1-0.1 1.3 0.1c0.4 0.2 0.4 0.6 0 0.8c-0.4 0.3-0.9 0.3-1.3 0.1c0 0-0.1 0-0.2-0.1c0 0 0 0-0.1-0.1z" />
				<path id="Layer" class="s61" d="m39.3 68.3c1.6-0.9 2.3-2 2.3-3.2v-0.5q0.3 0.7 1.2 1.3l0.5 0.3l-7.6 4.3l-0.5-0.2c-0.5-0.4-1.2-0.6-1.9-0.7c2.2 0.1 4.4-0.3 6-1.3z" />
				<path id="Layer" class="s61" d="m33.3 69.6v-0.9l1.9 0.2l0.6 0.8v0.9l-0.5-0.5l-0.9-0.4z" />
				<path id="Layer" class="s62" d="m39.3 67.4c1.6-0.9 2.3-2.1 2.3-3.2v-0.5q0.3 0.7 1.2 1.3l0.5 0.3l-7.6 4.3l-0.5-0.3c-0.5-0.3-1.2-0.5-1.9-0.6c2.2 0.1 4.4-0.4 6-1.3z" />
				<path id="Layer" class="s64" d="m43.4 65.3v0.9l-7.6 4.4v-0.9z" />
				<path id="Layer" class="s57" d="m37.9 73.2c0.1 0 0.1 0 0.1 0c0-0.1 0-0.1 0-0.1q0-0.1 0-0.1q0 0 0-0.1q0-0.1 0-0.1c-0.4-1-0.9-1.9-1.5-2.7c0-0.1-0.1-0.1-0.2-0.2c0 0 0 0 0 0q0 0-0.1 0q0 0-0.1 0q0 0-0.1 0l6.9-4q0.1-0.1 0.3 0q0.1 0.1 0.2 0.2c0.6 0.8 1.1 1.7 1.4 2.7c0.1 0.2 0.1 0.4-0.1 0.5l-5.3 3z" />
				<path id="Layer" class="s56" d="m36.1 69.8q0.1 0 0 0q0.1 0 0.1 0q0 0 0.1 0c0 0 0 0 0 0.1q0.2 0 0.2 0.2c0.6 0.8 1.1 1.7 1.5 2.6c0 0.1 0 0.1 0 0.2q0 0 0 0q0 0.1 0 0.1q0 0.1 0 0.1c0 0.1-0.1 0.1-0.1 0.1c0 0 0 0-0.1 0c0 0-0.1 0-0.1 0c-0.2-0.1-0.3-0.3-0.4-0.5q-0.2-0.5-0.4-1c-0.1 0-0.1 0-0.1-0.1c-0.1-0.2-0.3-0.4-0.4-0.7c-0.1-0.1-0.1-0.2-0.2-0.3q-0.2-0.1-0.2-0.3c0-0.1 0-0.3 0.1-0.4q0 0 0.1 0q-0.1-0.1-0.1-0.1z" />
				<path id="Layer" class="s58" d="m44.5 69.3l0.1 0.2l-6.8 4v-0.3z" />
			</g>
		</g>
	</g>
</svg>