<svg version="1.2" xmlns="http://www.w3.org/2000/svg" viewBox="0 0 90 90" width="90" height="90">
	<title>New Project</title>
	<style>
		.s0 { opacity: .1;fill: #000000 } 
		.s1 { fill: #ff590e } 
		.s2 { fill: #17a984 } 
		.s3 { fill: #009573 } 
		.s4 { fill: #4a2730 } 
		.s5 { fill: #613e4a } 
		.s6 { fill: #e60026 } 
		.s7 { fill: #f62121 } 
		.s8 { fill: #ff782d } 
		.s9 { fill: #43bcff } 
		.s10 { fill: #ffe888 } 
		.s11 { fill: #8fd4ff } 
		.s12 { fill: #bde6ff } 
		.s13 { fill: #2051a4 } 
		.s14 { fill: #399eff } 
		.s15 { fill: #ff6121 } 
		.s16 { fill: #ff450a } 
		.s17 { fill: #b1bbc4 } 
		.s18 { fill: #ffbb22 } 
		.s19 { fill: #6f4e5a } 
		.s20 { fill: #ffffff } 
		.s21 { fill: #e1e5ff } 
		.s22 { fill: #ff5050 } 
		.s23 { fill: #e3f3ff } 
		.s24 { fill: #2c89ff } 
		.s25 { fill: #ce0000 } 
	</style>
	<g id="Folder 1">
		<path id="Layer" class="s0" d="m64.6 58.5c-12.8 0-23.1-5.9-23.1-13.3c0-7.4 10.3-13.4 23.1-13.4c12.8 0 23.1 6 23.1 13.4c0 7.4-10.3 13.3-23.1 13.3z" />
		<path id="Layer" class="s1" d="m86 39.3c0 0 0.5 1 0.5 4.2c0 3.2-2.2 6.5-6.5 9c-8.5 4.9-22.4 4.9-30.9 0c-4.3-2.5-6.5-5.7-6.5-9c0-3.2 0.5-4.2 0.5-4.2z" />
		<path id="Layer" class="s1" d="m64.5 52.9c-11.9 0-21.5-5.6-21.5-12.5c0-6.9 9.6-12.4 21.5-12.4c11.9 0 21.6 5.5 21.6 12.4c0 6.9-9.7 12.5-21.6 12.5z" />
		<path id="Layer" class="s2" d="m77.8 37.2c0 0 5.9-0.8 7.7 1.8c1.9 2.5 1 2.7 0.6 3.4c-0.5 0.6 0.2 3.5-2.2 4.5c-2.3 1.1-2.8 2.3-3.9 3.3c-1.2 1.1-6.3 1.1-8.2-1.5c-1.9-2.7-2.6-9.4-2.6-9.4z" />
		<path id="Layer" class="s3" d="m70.7 40.4c0 0.1 12.1 0.6 11.4 3.7c-0.7 3.1-3.4 3.3-4.1 4.1c-0.8 0.8-1.2 3.6-2.5 4.2c-1.3 0.5-4.6-0.1-6.2-1.1c-1.7-0.9-2.6 0.1-4.7 0c-2.1-0.2-8.4-1.7-7.8-4.8c0.5-3.1 13.9-6.1 13.9-6.1z" />
		<path id="Layer" class="s3" d="m62.4 49.2c0 0-6.4 4.2-8.7 3.4c-2.4-0.9-2.7-2.1-3.9-2.5c-1.2-0.3-2.8 0.1-3.7-0.9c-0.9-1-0.1-1.8-0.7-2.1c-0.7-0.4-0.6-1.3-2.5-2.2c-3.2-1.4-1.7-3.1-0.9-4c0.8-0.7-1.3-1.6 0.9-2.7c2-1 17.2 2.7 17.2 2.7z" />
		<path id="Layer" class="s2" d="m63.6 44c0 0-9.6 6.5-11.8 6c-2.2-0.6-0.9-1.6-1.8-1.8c-1.7-0.3-3.7 0.2-4.2 0c-1-0.4-1.2-1.3-0.6-2.5c0.5-1.2-1.5-1.3-2.1-2.1c-0.6-0.9 5-5.4 5-5.4z" />
		<path id="Layer" class="s4" d="m86.1 33.1c0.4 0.4 0.3 1.4 0.3 1.9c0.1 1.6-0.1 3.2-0.6 4.7c-1.1 2.8-3.4 5.1-6 6.5c-8.4 4.9-22.1 4.9-30.5 0c-4.4-2.5-7-6.5-6.6-11.7c0-0.1 0.1-1.4 0.3-1.4z" />
		<path id="Layer" class="s5" d="m64.5 46.1c-11.9 0-21.6-5.6-21.6-12.5c0-7 9.7-12.5 21.6-12.5c12 0 21.7 5.5 21.7 12.5c0 6.9-9.7 12.5-21.7 12.5z" />
		<path id="Layer" class="s6" d="m86 30.8c0.3 0.4 0.4 1.1 0.4 1.5c0.1 1.2 0 2.4-0.5 3.5c-0.8 2.2-2.5 3.9-4.5 5c-6.4 3.7-16.7 3.7-23.1 0c-3.3-1.9-5.4-5-5-8.9c0-0.1 0.2-1.1 0.3-1.1z" />
		<path id="Layer" class="s7" d="m69.8 41.6c-9.1 0-16.4-4.3-16.4-9.5c0-5.3 7.3-9.5 16.4-9.5c9.1 0 16.5 4.2 16.5 9.5c0 5.2-7.4 9.5-16.5 9.5z" />
		<path id="Layer" class="s6" d="m75.8 31.3c0.2 0.4 0.4 1.1 0.4 1.5c0.1 1.2-0.1 2.4-0.5 3.5c-0.9 2.2-2.6 3.9-4.6 5c-6.3 3.7-16.7 3.7-23.1 0c-3.3-1.9-5.3-5-5-8.9c0-0.1 0.2-1.1 0.4-1.1z" />
		<path id="Layer" class="s7" d="m59.6 42.1c-9.1 0-16.5-4.3-16.5-9.5c0-5.3 7.4-9.5 16.5-9.5c9.1 0 16.4 4.2 16.4 9.5c0 5.2-7.3 9.5-16.4 9.5z" />
		<path id="Layer" class="s1" d="m43.4 27.9c1.4-0.8 21.1-12.2 21.1-12.2l21.2 12.2c2 1.2 4.3 5.2 4.3 5.2c0 0-3.3-0.8-4.3-0.2c-0.7 0.4-9 5.2-15 8.7c-3.5 2-6.2 6.6-6.2 6.6c0 0-2.6-4.6-6.1-6.6l-15.3-8.9c-1.1-0.6-4 0.4-4 0.4c0 0 2.9-4.3 4.3-5.2z" />
		<path id="Layer" class="s2" d="m75.4 29.1c0 0 5.5 2.2 5.9 5.3c0.4 3.1-0.5 2.9-1.2 3.3c-0.7 0.3-1.5 3.1-4.1 2.9c-2.5-0.2-3.5 0.6-5 1c-1.5 0.3-6-2.1-6.4-5.3c-0.4-3.3 2.3-9.4 2.3-9.4z" />
		<path id="Layer" class="s3" d="m76.4 26c0 0.1 12.1 0.5 11.4 3.6c-0.8 3.2-3.4 3.4-4.1 4.2c-0.8 0.8-1.2 3.6-2.5 4.1c-1.2 0.6-4.6 0-6.2-1c-1.7-1-2.6 0-4.7-0.1c-2.1-0.1-8.4-1.7-7.8-4.7c0.5-3.1 13.9-6.1 13.9-6.1zm-15.9 8.7c0 0-1 5-3.3 5.7c-3 0.9-4.1-2.3-5.4-2.6c-1.2-0.3-4.9-0.1-5.8-1.1c-0.8-1-0.5-2.1-1.1-2.5c-0.7-0.3-2.6 0.1-3.5-1.3c-0.9-1.3 2.3-2.1 1.5-2.8c-1-0.8-2.2-1.9 0-3c2-1.1 17.2 2.7 17.2 2.7z" />
		<path id="Layer" class="s2" d="m75.6 35.3c0 0-9.5 6.6-11.7 6c-2.2-0.6-0.9-1.6-1.9-1.8c-1.6-0.3-3.6 0.3-4.2 0c-0.9-0.3-1.1-1.3-0.6-2.5c0.6-1.1-1.4-1.3-2-2.1c-0.6-0.8 5-5.3 5-5.3z" />
		<path id="Layer" class="s8" d="m86 22.1c0 0 0.4 1 0.4 4.2c0 3.2-2.1 6.5-6.4 8.9c-8.5 5-22.4 5-31 0c-4.2-2.4-6.4-5.7-6.4-8.9c0-3.3 0.5-4.2 0.5-4.2z" />
		<path id="Layer" class="s8" d="m64.5 8c15 0 21.6 11.8 21.6 15c0 3.2-2.1 6.4-6.3 8.8c-8.4 4.9-22.1 4.9-30.5 0c-4.2-2.4-6.3-5.6-6.3-8.8c0-3.2 6.6-15 21.5-15z" />
		<path id="Layer" class="s1" d="m59 11.5c0.6-0.1 1.1 0.1 1.1 0.5c0.1 0.3-0.4 0.7-0.9 0.8c-0.5 0-1-0.2-1.1-0.6c0-0.3 0.4-0.7 0.9-0.7zm-6.5 2.4c0.4-0.4 1-0.4 1.2-0.1c0.2 0.3 0 0.8-0.5 1.1c-0.4 0.4-0.9 0.4-1.2 0.1c-0.2-0.3 0-0.8 0.5-1.1zm4.7 5.8c0.5 0 1 0.3 1 0.7c-0.1 0.3-0.5 0.6-1.1 0.6c-0.5-0.1-1-0.4-0.9-0.8c0-0.3 0.4-0.6 1-0.5zm10.8-10.4c0.6 0.1 0.9 0.5 0.9 0.9c-0.1 0.3-0.6 0.5-1.2 0.4c-0.5-0.2-0.9-0.5-0.8-0.9c0.1-0.3 0.6-0.5 1.1-0.4zm-1.7 6.4c0.5-0.1 1 0.1 1.1 0.5c0.1 0.3-0.3 0.7-0.9 0.8c-0.5 0.1-1-0.1-1.1-0.5c0-0.3 0.4-0.7 0.9-0.8zm8.2-1.1c-0.5-0.3-0.7-0.8-0.5-1.1c0.2-0.3 0.7-0.3 1.2 0c0.4 0.3 0.7 0.8 0.5 1.1c-0.2 0.3-0.8 0.3-1.2 0zm-1.5 7c-0.6-0.1-0.9-0.5-0.9-0.9c0.1-0.3 0.6-0.5 1.2-0.4c0.5 0.1 0.9 0.5 0.8 0.9c-0.1 0.3-0.6 0.5-1.1 0.4zm-19.9 7.7c-0.5-0.1-0.9-0.5-0.8-0.9c0-0.3 0.6-0.5 1.1-0.4c0.5 0.1 0.9 0.5 0.8 0.9c-0.1 0.3-0.6 0.5-1.1 0.4zm28.6-9.7c-0.4-0.5-0.4-1-0.1-1.2c0.3-0.2 0.8 0 1.1 0.4c0.3 0.5 0.4 1 0.1 1.2c-0.3 0.2-0.8 0-1.1-0.4zm-17.9 5.7c-0.5 0.2-1 0.1-1.2-0.2c-0.1-0.3 0.2-0.8 0.7-1c0.5-0.2 1-0.2 1.2 0.2c0.1 0.3-0.2 0.7-0.7 1z" />
		<path id="Layer" class="s1" d="m69.1 30.5c-0.6-0.2-0.9-0.6-0.8-0.9c0.1-0.4 0.6-0.5 1.1-0.4c0.5 0.1 0.9 0.5 0.8 0.9c-0.1 0.3-0.6 0.5-1.1 0.4z" />
		<path id="Layer" class="s1" d="m79.8 26c-0.3 0.5-0.8 0.7-1.1 0.6c-0.3-0.2-0.3-0.8 0-1.2c0.2-0.5 0.7-0.8 1-0.6c0.3 0.2 0.4 0.7 0.1 1.2zm-31-5.5c0.3-0.4 0.9-0.6 1.1-0.3c0.3 0.2 0.2 0.8-0.1 1.2c-0.4 0.4-0.9 0.5-1.2 0.3c-0.3-0.2-0.2-0.8 0.2-1.2z" />
		<path id="Layer" class="s0" d="m38.1 81.3l-37.4-21.1l4.1-2.3l37.3 21.1z" />
		<path id="Layer" class="s0" d="m73.2 61.4l-25.7 14.8l-39.4-22.7l27.2-15.6z" />
		<path id="Layer" class="s9" d="m44 68.8l3.3 1.9v4.1l-3.3-1.9z" />
		<path id="Layer" class="s10" d="m68.8 54.4l3.4 2l-24.9 14.3l-3.3-1.9z" />
		<path id="Layer" class="s11" d="m47.3 70.7l24.9-14.3v4.1l-24.9 14.3z" />
		<path id="Layer" class="s9" d="m9.2 48.7l3.3 1.9v4.1l-3.3-1.9z" />
		<path id="Layer" class="s10" d="m34 34.4l3.4 1.9l-24.9 14.3l-3.3-1.9z" />
		<path id="Layer" class="s11" d="m12.5 50.6l24.9-14.3v4.1l-24.9 14.3z" />
		<path id="Layer" class="s9" d="m9.2 44.6l38.1 22v4.1l-38.1-22z" />
		<path id="Layer" class="s12" d="m34 30.3l38.2 22l-24.9 14.3l-38.1-22z" />
		<path id="Layer" class="s11" d="m47.3 66.6l24.9-14.3v4.1l-24.9 14.3z" />
		<path id="Layer" class="s13" d="m0.7 60.9q-0.7-0.4-0.7-0.9c0-0.4 0-1.3 0-1.3l3-1c0.9-0.5 3.8-0.3 3.8-0.3c0 0 0 0.8 0 1.1c0 0.4-0.2 0.7-0.7 1l-2.3 1.3c-0.9 0.5-2.3 0.5-3.1 0.1z" />
		<path id="Layer" class="s14" d="m2.9 59.9c-0.8 0.2-1.6 0.1-2.2-0.3c-0.8-0.4-0.9-1.1-0.3-1.6c0.3-0.3 1-0.3 1.5-0.6c0.6-0.4 1.2-1.1 1.7-1.2c0.9-0.3 1.8-0.2 2.5 0.2c0.6 0.3 0.8 0.8 0.7 1.2c-0.1 0.4-1.2 1.3-1.8 1.7c-0.7 0.3-1.8 0.6-2.1 0.6z" />
		<path id="Layer" class="s15" d="m40.4 78.3l-38.3-21.4l0.4-0.6l38.8 20.6z" />
		<path id="Layer" class="s16" d="m40.2 78q0-0.3 0.2-0.5q0.1-0.3 0.3-0.4l0.2-0.1c0.3-0.2 0.5-0.1 0.5 0.3q0 0.2-0.1 0.5q-0.1 0.2-0.4 0.3l-0.2 0.2c-0.2 0.1-0.5 0-0.5-0.3z" />
		<path id="Layer" class="s15" d="m2 56.8q0-0.1 0.1-0.3q0-0.1 0.1-0.1l0.1-0.1c0.2-0.1 0.3 0 0.3 0.1q0 0.2-0.1 0.3q-0.1 0.1-0.2 0.2h-0.1c-0.1 0.1-0.2 0-0.2-0.1z" />
		<path id="Layer" class="s15" d="m37.6 80.1l-36.8-22.4l0.4-0.7l37.4 21.8z" />
		<path id="Layer" class="s16" d="m37.5 79.8q0-0.2 0.1-0.5q0.2-0.2 0.4-0.3l0.2-0.2c0.3-0.1 0.5 0 0.5 0.3q0 0.3-0.2 0.5q-0.1 0.3-0.3 0.4l-0.2 0.1c-0.3 0.2-0.5 0-0.5-0.3z" />
		<path id="Layer" class="s15" d="m0.7 57.5q0-0.1 0.1-0.2q0-0.2 0.2-0.2l0.1-0.1c0.1-0.1 0.2 0 0.2 0.2q0 0.1-0.1 0.2q0 0.1-0.2 0.2h-0.1c-0.1 0.1-0.2 0-0.2-0.1z" />
		<path id="Layer" class="s17" d="m50.3 50.6v-5.2h12.1v5.2c0 0.5-0.3 0.9-0.8 1.2l-3.2 1.8c-1.1 0.7-2.9 0.7-4 0l-3.2-1.8c-0.6-0.3-0.9-0.7-0.9-1.2z" />
		<path id="Layer" class="s18" d="m51.2 44.2l3.2-1.8c1.1-0.6 2.9-0.6 4 0l3.2 1.8c1.1 0.7 1.1 1.7 0 2.4l-3.2 1.8c-1.1 0.6-2.9 0.6-4 0l-3.2-1.8c-1.1-0.7-1.1-1.7 0-2.4z" />
		<path id="Layer" class="s18" d="m53.4 43.7l1.2-0.8c0.9-0.5 2.4-0.5 3.3 0l1.4 0.8l-2.9 1.7z" />
		<path id="Layer" class="s18" d="m59.3 43.7l1.3 0.8c0.9 0.5 0.9 1.4 0 1.9l-1.2 0.7l-3-1.7zm-5.9 3.4l-1.3-0.8c-0.9-0.5-0.9-1.4 0-1.9l1.2-0.8l3 1.8zm1.4 0.8l-1.4-0.8l3-1.7l3 1.7l-1.3 0.8c-0.9 0.5-2.4 0.5-3.3 0z" />
		<path id="Layer" class="s17" d="m29.5 38.6v-5.3h12v5.3c0 0.4-0.3 0.8-0.8 1.1l-3.2 1.9c-1.1 0.6-2.9 0.6-4 0l-3.2-1.9c-0.6-0.3-0.8-0.7-0.8-1.1z" />
		<path id="Layer" class="s4" d="m29.5 38v-5.3h12v5.3c0 0.4-0.3 0.8-0.8 1.1l-3.2 1.9c-1.1 0.6-2.9 0.6-4 0l-3.2-1.9c-0.6-0.3-0.8-0.7-0.8-1.1z" />
		<path id="Layer" class="s19" d="m30.3 31.6l3.2-1.9c1.1-0.6 2.9-0.6 4 0l3.2 1.9c1.1 0.6 1.1 1.7 0 2.3l-3.2 1.8c-1.1 0.7-2.9 0.7-4 0l-3.2-1.8c-1.1-0.6-1.1-1.7 0-2.3z" />
		<path id="Layer" class="s20" d="m32.5 31l1.2-0.7c1-0.5 2.4-0.5 3.4 0l1.3 0.8l-2.9 1.6zm5.9 0.1l1.4 0.8c0.9 0.5 0.9 1.4 0 1.9l-1.3 0.7l-3-1.7z" />
		<path id="Layer" class="s7" d="m32.6 34.4l-1.4-0.7c-0.9-0.6-0.9-1.4 0-2l1.3-0.7l3 1.7z" />
		<path id="Layer" class="s3" d="m33.9 35.2l-1.3-0.8l2.9-1.7l3 1.8l-1.3 0.7c-0.9 0.5-2.4 0.5-3.3 0z" />
		<path id="Layer" class="s17" d="m39.9 44.6v-5.2h12v5.2c0 0.4-0.2 0.9-0.8 1.2l-3.2 1.8c-1.1 0.7-2.9 0.7-4 0l-3.2-1.8c-0.5-0.3-0.8-0.8-0.8-1.2z" />
		<path id="Layer" class="s4" d="m39.9 44v-5.2h12v5.2c0 0.4-0.2 0.9-0.8 1.2l-3.2 1.8c-1.1 0.7-2.9 0.7-4 0l-3.2-1.8c-0.5-0.3-0.8-0.8-0.8-1.2z" />
		<path id="Layer" class="s19" d="m40.7 37.6l3.2-1.8c1.1-0.6 2.9-0.6 4 0l3.2 1.8c1.1 0.7 1.1 1.7 0 2.3l-3.2 1.9c-1.1 0.6-2.9 0.6-4 0l-3.2-1.9c-1.1-0.6-1.1-1.6 0-2.3z" />
		<path id="Layer" class="s3" d="m42.9 37.1l1.3-0.8c0.9-0.5 2.4-0.5 3.3 0l1.3 0.8l-2.9 1.7z" />
		<path id="Layer" class="s8" d="m48.8 37.1l1.4 0.8c0.9 0.5 0.9 1.4 0 1.9l-1.3 0.7l-3-1.7z" />
		<path id="Layer" class="s20" d="m43 40.5l-1.3-0.8c-1-0.5-1-1.4 0-1.9l1.2-0.7l3 1.7z" />
		<path id="Layer" class="s8" d="m44.3 41.2l-1.3-0.7l2.9-1.7l3 1.7l-1.2 0.8c-0.9 0.5-2.4 0.5-3.4-0.1z" />
		<path id="Layer" class="s4" d="m50.3 50v-5.2h12.1v5.2c0 0.5-0.3 0.9-0.8 1.2l-3.2 1.8c-1.1 0.7-2.9 0.7-4 0l-3.2-1.8c-0.6-0.3-0.9-0.7-0.9-1.2z" />
		<path id="Layer" class="s19" d="m51.2 43.7l3.2-1.9c1.1-0.6 2.9-0.6 4 0l3.2 1.9c1.1 0.6 1.1 1.6 0 2.3l-3.2 1.8c-1.1 0.6-2.9 0.6-4 0l-3.2-1.8c-1.1-0.7-1.1-1.7 0-2.3z" />
		<path id="Layer" class="s7" d="m53.4 43.1l1.2-0.8c0.9-0.5 2.4-0.5 3.3 0l1.4 0.8l-2.9 1.7z" />
		<path id="Layer" class="s3" d="m59.3 43.1l1.3 0.8c0.9 0.5 0.9 1.4 0 1.9l-1.2 0.7l-3-1.7z" />
		<path id="Layer" class="s20" d="m53.5 46.5l-1.4-0.8c-0.9-0.5-0.9-1.4 0-1.9l1.3-0.7l3 1.7zm1.3 0.8l-1.3-0.8l2.9-1.7l3 1.8l-1.3 0.7c-0.9 0.5-2.4 0.5-3.3 0z" />
		<path id="Layer" class="s17" d="m50.1 57.6c2 1.9 0.2 2.8-2.5 2.3c-1.3-0.2-3.7-1.2-5.3-2c-1.5-0.7-3.3-1.5-4.3-2.4c-2-1.9-1-3.1 1.6-2.6c2.7 0.4 8.5 2.9 10.5 4.7z" />
		<path id="Layer" class="s20" d="m49.9 59.4c-1.9 0.9-7.2-1.8-8.5-2.4c-0.5-0.2-0.9-0.4-1.2-0.6c0 0-0.3-0.2-0.6-0.3c-0.3-0.3-3.6-2.5-1.7-4.7c0.7-0.7 1.7-1.3 2.8-1.5c1.3-0.3 2.5 0.1 4 0.8c4.6 2.4 7.1 6.1 5.6 8.3q-0.1 0.2-0.4 0.4z" />
		<path id="Layer" class="s21" d="m50.3 58.9c-0.1 0.5-0.7 0.6-0.7 0.6l-0.2-2.1c-1.2-0.4-3.6-1.5-4.5-2q-2-1.2-4.2-2c-0.7-0.3-2.7-0.9-3.1-1.5c-0.2-0.3 2.9-4 6.9-2c4.4 2.2 6.2 6.5 5.8 7.3c-0.1 0 0.2 1.1 0 1.7z" />
		<path id="Layer" class="s22" d="m50.4 56.1c0 0 1.7 1.8 1.6 2c-0.1 0.3-0.2 0.8-0.8 0.9c-0.5 0.1-0.8 0.6-1 0.6c-0.2 0-0.5-3.1-0.5-3.1z" />
		<path id="Layer" fill-rule="evenodd" class="s7" d="m51.2 59q-0.4 0.1-0.6 0.4l-0.5-2.4h0.2c0 0 0.7 1.3 1 2q0 0-0.1 0zm0.7-0.6c-0.1-0.1-1.3-1.7-1.3-1.7v-0.2l1.4 1.6q-0.1 0.2-0.1 0.3z" />
		<path id="Layer" class="s7" d="m39.1 49.8c0.1 0 0.3 0.3 0.3 0.3l-0.1-0.4q0 0 0.1 0q0-0.1 0-0.1c0.3-0.2 0.8-0.5 1-0.5c0 0 0.2 0.3 0.2 0.3v-0.3q0 0 0.1 0q0-0.1 0.1-0.1c0.5-0.1 1.6-0.2 1.7-0.1q0 0.2 0 0.4l0.2-0.3q0 0 0.1-0.1q0 0 0.1 0c0.4 0.1 1.3 0.3 1.4 0.4q0 0.2 0 0.4l0.2-0.2q0 0 0.1 0q0 0 0.1 0c0.6 0.3 1.7 0.9 1.7 1q-0.1 0.1-0.1 0.3c0 0 0.2-0.1 0.3-0.2c0 0 1.4 1.1 1.4 1.2q-0.1 0.2-0.2 0.3l0.3-0.1q0 0 0 0q0 0 0.1 0c0.5 0.6 1.3 1.5 1.3 1.6q-0.1 0.2-0.3 0.3h0.3q0.1 0 0.1 0q0.1 0.1 0.1 0.1c0.8 1.3 1.1 2.4 0.8 2.8q-0.1 0.2-0.3 0.3c-0.5 0.2-1.1-0.3-1.5-0.5c-1.2-0.6-2.2-1.6-3.4-2.3q-1.9-1-3.9-1.8q-1-0.4-2.1-0.7c-0.3-0.1-1.3-0.2-1.3-0.7c0-0.2 1-1.3 1.1-1.3z" />
		<path id="Layer" class="s22" d="m39.4 50.9q-0.4-0.4-0.7-0.7c0 0 0.2-0.4 0.4-0.4c0.3 0 0.7 1.2 0.7 1.2q-0.2 0-0.4-0.1zm1.2-0.2c-0.1-0.1-1-1.2-1-1.2c0 0 0.6-0.4 0.7-0.4c0.3 0.1 0.7 1.8 0.7 1.8q-0.2-0.1-0.4-0.2zm1.4-0.1c-0.1-0.1-0.4-1.7-0.4-1.7c0 0 0.7-0.1 0.8-0.1c0.3 0.2 0 2.3 0 2.3q-0.2-0.2-0.4-0.5zm1.3 0.5c0-0.2-0.1-2.1-0.1-2.1c0 0 0.9 0.2 1.1 0.3c0.2 0.2-0.7 2.5-0.7 2.5c0 0-0.2-0.6-0.3-0.7zm1.8 0.6c0-0.2 0.4-1.8 0.4-1.8c0 0 0.8 0.4 0.9 0.6c0.1 0.2-1.1 1.7-1.1 1.7q-0.1-0.2-0.2-0.5zm1.9 0.6c0.1-0.1 0.2-0.4 0.2-0.4l-0.1-0.9c0 0 0.8 0.6 0.8 0.8c0.1 0.3-0.8 0.9-0.8 0.9q-0.1-0.2-0.1-0.4zm1.7 1.7q0-0.2 0-0.4l0.2-0.8c0 0 0.5 0.6 0.6 0.7c0 0.3-0.8 0.8-0.8 0.8q-0.1-0.1 0-0.3z" />
		<path id="Layer" class="s17" d="m34.3 48c2 1.9 0.2 2.8-2.5 2.3c-1.3-0.2-3.7-1.2-5.3-2c-1.5-0.7-3.3-1.5-4.3-2.4c-1.9-1.9-1-3.1 1.7-2.6c2.6 0.4 8.4 2.9 10.4 4.7z" />
		<path id="Layer" class="s20" d="m34.1 49.8c-1.9 0.9-7.2-1.8-8.5-2.4c-0.5-0.2-0.8-0.4-1.1-0.6c0 0-0.4-0.2-0.6-0.3c-0.4-0.3-3.7-2.5-1.8-4.7c0.8-0.8 1.7-1.3 2.8-1.5c1.3-0.3 2.5 0.1 4 0.8c4.7 2.4 7.1 6.1 5.7 8.3q-0.2 0.2-0.5 0.4z" />
		<path id="Layer" class="s21" d="m33.6 47.8c-1.1-0.4-3.6-1.5-4.5-2q-2-1.2-4.2-2c-0.7-0.3-2.6-0.9-3.1-1.5c-0.2-0.3 2.9-4 6.9-2c4.5 2.2 6.6 6.4 6.1 7.2c-0.4 0.4-1.2 0.3-1.2 0.3z" />
		<path id="Layer" class="s1" d="m23.6 40q0.7-0.4 1.4-0.6c2.5-0.6 5 0.8 6.8 2.4q1.4 1.3 2.3 2.9q0.4 0.8 0.7 1.6c0 0.2 0.1 0.6 0 0.9q-0.2 0.2-0.4 0.3c-0.5 0.2-1.1-0.3-1.5-0.5c-1.2-0.6-2.2-1.6-3.4-2.2q-1.8-1.1-3.8-1.9q-1.1-0.4-2.2-0.7c-0.3-0.1-1.3-0.2-1.3-0.7c0-0.5 0.6-1 1-1.2q0.2-0.2 0.4-0.3z" />
		<path id="Layer" class="s8" d="m32.4 42.4q0.3 0.3 0.5 0.7c0.1 0.3 0.1 0.8 0.1 1.1c0 0.6-0.3 2-0.6 2.5q-0.4-0.3-0.9-0.6c0.3-0.4 0.7-1.2 0.8-1.7c0.2-0.7 0.1-1.5 0.1-2zm-7.7-2.9q0.1 0 0.3-0.1q0.1 0 0.2 0c0.1 0.4 0.2 0.9 0.2 1.3q0.2 1 0 2.1q-0.4-0.2-0.9-0.3c0.2-0.5 0.4-1.1 0.4-1.6q-0.1-0.7-0.2-1.4zm5.3 1c0.2 0.1 0.5 0.3 0.7 0.4c0.1 0.6 0.2 1.7 0.2 2.1c0.1 0.5-0.4 1.7-0.6 2.3q-0.4-0.3-0.8-0.5q-0.1-0.1-0.1-0.1c0.3-0.6 0.7-1.5 0.8-1.9c0.1-0.4-0.2-1.8-0.2-2.3zm-2.4 0.7c-0.1-0.4-0.3-1.2-0.4-1.8q0.5 0 0.9 0.2c0.1 0.6 0.3 1.4 0.3 1.7c0.2 0.6 0.1 1.7-0.3 2.7q-0.7-0.4-1.4-0.7c0.4-0.6 1-1.6 0.9-2.1z" />
		<path id="Layer" class="s4" d="m31.5 41.6c0 0-3.6 2-3.8 2.4c-0.3 0.7-0.1 4.3-0.1 4.3c0 0-2.3-1-2.7-1.3c-0.1-0.9-0.2-3.8 0.6-4.9c0.5-0.6 3-2 3.6-2c0.7-0.1 2.4 1.5 2.4 1.5z" />
		<path id="Layer" class="s0" d="m72.5 76.8c-5.8 0-10.5-2.7-10.5-6c0-3.3 4.7-6 10.5-6c5.8 0 10.4 2.7 10.4 6c0 3.3-4.6 6-10.4 6z" />
		<path id="Layer" class="s23" d="m65 46.7c4.2-2.5 11-2.5 15.1 0c2.1 1.2 3.2 2.9 3.2 4.5h-21.4c0-1.6 1-3.3 3.1-4.5z" />
		<path id="Layer" class="s24" d="m64.2 67.5h16.8v2.1h-16.8z" />
		<path id="Layer" class="s24" d="m72.6 74.3c-4.7 0-8.4-2.2-8.4-4.8c0-2.7 3.7-4.9 8.4-4.9c4.6 0 8.4 2.2 8.4 4.9c0 2.6-3.8 4.8-8.4 4.8z" />
		<path id="Layer" class="s11" d="m72.6 72.3c-4.7 0-8.4-2.2-8.4-4.8c0-2.7 3.7-4.9 8.4-4.9c4.6 0 8.4 2.2 8.4 4.9c0 2.6-3.8 4.8-8.4 4.8z" />
		<path id="Layer" class="s11" d="m62 52h21.2l-2.3 16h-16.7z" />
		<path id="Layer" class="s12" d="m72.6 56.6c-5.3 0-9.6-2.4-9.6-5.4c0-3 4.3-5.4 9.6-5.4c5.3 0 9.6 2.4 9.6 5.4c0 3-4.3 5.4-9.6 5.4z" />
		<path id="Layer" class="s1" d="m72.6 71c-4.1 0-7.4-1.9-7.4-4.3c0-2.4 3.3-4.3 7.4-4.3c4.1 0 7.4 1.9 7.4 4.3c0 2.4-3.3 4.3-7.4 4.3z" />
		<path id="Layer" class="s1" d="m81.5 55.2l-1.5 11.6h-14.8l-1.5-11.6z" />
		<path id="Layer" class="s8" d="m72.6 60.4c-4.9 0-8.9-2.3-8.9-5.2c0-2.8 4-5.1 8.9-5.1c4.9 0 8.9 2.3 8.9 5.1c0 2.9-4 5.2-8.9 5.2z" />
		<path id="Layer" class="s25" d="m70.4 57.3q-0.1 0-0.1 0q-0.2 0-0.3-0.2q-0.1-0.1 0-0.3l5.8-19.3q0 0 0.1-0.1q0-0.1 0.1-0.1q0.1 0 0.2-0.1q0 0 0.1 0.1q0.1 0 0.2 0q0 0.1 0.1 0.2q0 0 0 0.1q0 0.1 0 0.2l-5.8 19.3q-0.1 0.1-0.2 0.2q-0.1 0-0.2 0z" />
		<path id="Layer" class="s9" d="m85 47.6h-8.4l-0.7-8.9z" />
		<path id="Layer" class="s14" d="m76.6 47.6l-10.5-3.7l9.8-5.2z" />
		<path id="Layer" class="s24" d="m66.1 43.9l-2.2-3.5l12-1.7z" />
		<path id="Layer" class="s14" d="m75.9 38.7l7 5.3l2.1 3.6z" />
		<path id="Layer" class="s13" d="m66.1 43.9l-2.2-3.5l1.3-0.2l1.9 3.2z" />
		<path id="Layer" class="s24" d="m76.6 47.6l-10.5-3.7l1-0.5l9.4 3.3z" />
		<path id="Layer" class="s14" d="m76.5 46.7h7.6l0.9 0.9h-8.4z" />
		<path id="Layer" class="s24" d="m84.1 46.7l-1.9-3.2l0.7 0.5l2.1 3.6z" />
		<path id="Layer" class="s23" d="m63 51.2c0 1.4 0.9 2.8 2.8 3.8c3.7 2.1 9.8 2.1 13.6 0c1.9-1 2.8-2.4 2.8-3.8h1.1c0 1.6-1.1 3.3-3.2 4.5c-4.1 2.5-10.9 2.5-15.1 0c-2-1.2-3.1-2.9-3.1-4.5z" />
	</g>
</svg>