<svg version="1.2" xmlns="http://www.w3.org/2000/svg" viewBox="0 0 90 90" width="90" height="90">
	<title>New Project</title>
	<defs>
		<linearGradient id="g1" x1="17.3" y1="39.5" x2="17.8" y2="50.3" gradientUnits="userSpaceOnUse">
			<stop offset="0" stop-color="#cfd2e8"/>
			<stop offset="1" stop-color="#c8cce5"/>
		</linearGradient>
		<linearGradient id="g2" x1="25.9" y1="50.4" x2="27.1" y2="52.5" gradientUnits="userSpaceOnUse">
			<stop offset=".2" stop-color="#71ccd4"/>
			<stop offset="1" stop-color="#7cd0d7"/>
		</linearGradient>
	</defs>
	<style>
		.s0 { opacity: .2;fill: #000000 } 
		.s1 { fill: #bbbcc0 } 
		.s2 { fill: #e6e6e7 } 
		.s3 { fill: #ffe5b5 } 
		.s4 { fill: #b38157 } 
		.s5 { fill: #9b6b42 } 
		.s6 { fill: #f2d49c } 
		.s7 { fill: #85562e } 
		.s8 { fill: #d6b372 } 
		.s9 { fill: #bd8755 } 
		.s10 { fill: #ad8453 } 
		.s11 { fill: #e5c385 } 
		.s12 { fill: #f4d59d } 
		.s13 { fill: #d7d8db } 
		.s14 { fill: #bdbec1 } 
		.s15 { fill: #f6f7fc } 
		.s16 { fill: #ffce00 } 
		.s17 { fill: #ffa515 } 
		.s18 { opacity: .5;fill: #e5f6f7 } 
		.s19 { fill: #6ecbd3 } 
		.s20 { fill: url(#g1) } 
		.s21 { fill: url(#g2) } 
		.s22 { opacity: .4;fill: #7d7d82 } 
		.s23 { opacity: .6;fill: #e5f6f7 } 
		.s24 { fill: #ad794f } 
		.s25 { fill: #cca067 } 
		.s26 { fill: #deba77 } 
		.s27 { fill: #744e2c } 
		.s28 { fill: #cfcfcf } 
		.s29 { fill: #acacac } 
		.s30 { fill: #efefef } 
		.s31 { fill: #ffc77d } 
		.s32 { fill: #ffb94d } 
		.s33 { fill: #e37c4b } 
		.s34 { fill: #e8956f } 
	</style>
	<g id="Folder 1">
		<path id="Layer" class="s0" d="m24.7 60.7l17.4-10l9.9 5.7l-17.5 9.9z" />
		<path id="Layer" class="s1" d="m48.7 51.5v5.4l-0.4-0.3v-5.3z" />
		<path id="Layer" class="s2" d="m49.1 51.3v5.3l-0.4 0.3v-5.4z" />
		<path id="Layer" class="s1" d="m27.1 55.4v5.3l-0.4-0.2v-5.3z" />
		<path id="Layer" class="s2" d="m27.5 55.1v5.4l-0.4 0.2v-5.3z" />
		<path id="Layer" class="s3" d="m25.9 54.9l15.1-8.8l8.6 5l-15.1 8.6z" />
		<path id="Layer" class="s1" d="m34.5 59.7v5.3l-0.4-0.2v-5.3z" />
		<path id="Layer" class="s2" d="m34.9 59.5v5.3l-0.4 0.2v-5.3z" />
		<path id="Layer" class="s4" d="m49.6 51.1v0.9l-15.1 8.5v-0.8z" />
		<path id="Layer" class="s5" d="m34.5 60.5l-8.6-4.8v-0.8l8.6 4.8z" />
		<path id="Layer" class="s0" d="m50 34.2l19.9 11.7l-2.5 1.3l-9.2 1.9l-16.5-9.8z" />
		<path id="Layer" class="s6" d="m56.3 46.5l1.5-0.9l1.5 0.9l-1.5 0.8z" />
		<path id="Layer" class="s7" d="m57.8 47l1.4-0.8v1.7l-1.4 0.8z" />
		<path id="Layer" class="s8" d="m57.8 48.7l-1.4-0.8v-1.7l1.4 0.8z" />
		<path id="Layer" class="s7" d="m63.6 43.7l1.3-0.8v1.7l-1.3 0.8z" />
		<path id="Layer" class="s9" d="m63.6 45.4l-1.4-0.8v-1.7l1.4 0.8z" />
		<path id="Layer" class="s7" d="m45.3 39.7l1.4-0.8v1.7l-1.4 0.8z" />
		<path id="Layer" class="s8" d="m45.3 41.4l-1.4-0.8v-1.7l1.4 0.8z" />
		<path id="Layer" class="s10" d="m63.6 44.5l-1.4-0.8v-1.7l1.4 0.8z" />
		<path id="Layer" class="s6" d="m43.2 13.3l7.7-4.4l14.6 8.6l-7.7 4.4z" />
		<path id="Layer" class="s5" d="m57.8 21.9l7.7-4.4v25.4l-7.7 4.4z" />
		<path id="Layer" class="s11" d="m57.8 47.3l-14.6-8.6v-25.4l14.6 8.6z" />
		<path id="Layer" class="s5" d="m53.6 38.2l3.2 1.8v5.5l-12.6-7.2v-5.5z" />
		<path id="Layer" class="s3" d="m42.8 13.2l8.1-4.7l15.1 8.9l-8.2 4.7z" />
		<path id="Layer" class="s4" d="m57.8 22.1l8.2-4.7v0.9l-8.2 4.8z" />
		<path id="Layer" class="s12" d="m57.8 23.1l-15.1-8.9v-1l15.1 8.9z" />
		<path id="Layer" class="s12" d="m56.8 42.7v0.6l-12.6-7.2v-0.6z" />
		<path id="Layer" class="s13" d="m49.4 40v0.3l-0.4-0.2z" />
		<path id="Layer" class="s14" d="m48.9 40.2v0.3l-0.2-0.1v-0.3z" />
		<path id="Layer" class="s14" d="m49.8 40.7v0.3l-0.9-0.5v-0.3z" />
		<path id="Layer" class="s14" d="m49.9 40.8v0.3l-0.1-0.1v-0.3z" />
		<path id="Layer" class="s13" d="m50.3 40.6v0.3l-0.4 0.2v-0.3z" />
		<path id="Layer" class="s15" d="m49.9 40.8l-0.1-0.1l-0.9-0.5l-0.2-0.1l0.2-0.1l0.1 0.1l0.9 0.5l0.3-0.1l0.1 0.1z" />
		<path id="Layer" class="s15" d="m48.9 40l0.2-0.2l0.3 0.2l-0.3 0.1z" />
		<path id="Layer" class="s13" d="m49.9 37.5v0.4l-0.4-0.2z" />
		<path id="Layer" class="s14" d="m49.4 37.8v0.3l-0.1-0.1v-0.3z" />
		<path id="Layer" class="s14" d="m50.3 38.3v0.3l-0.9-0.5v-0.3z" />
		<path id="Layer" class="s14" d="m50.5 38.4v0.3l-0.2-0.1v-0.3z" />
		<path id="Layer" class="s13" d="m50.9 38.1v0.3l-0.4 0.3v-0.3z" />
		<path id="Layer" class="s15" d="m50.5 38.4l-0.2-0.1l-0.9-0.5l-0.1-0.1l0.1-0.1l0.2 0.1l0.9 0.5l0.2-0.1h0.2z" />
		<path id="Layer" class="s15" d="m49.4 37.6l0.3-0.2l0.2 0.1l-0.3 0.2z" />
		<path id="Layer" class="s5" d="m49.9 20.3l6.8 3.9v14.9l-12.1-7v-14.8z" />
		<path id="Layer" class="s11" d="m51.4 36.5l-1.2-0.6l-0.4-16.9l1.2 0.6z" />
		<path id="Layer" class="s13" d="m48.2 28.1l-0.6-0.4l0.9-0.4l0.5 0.3z" />
		<path id="Layer" class="s14" d="m48.2 28.6l-0.6-0.3v-0.4l0.6 0.3z" />
		<path id="Layer" class="s14" d="m48.2 28.2l-0.6-0.3v-2.3l0.6 0.3z" />
		<path id="Layer" class="s14" d="m48.2 25.9l-0.6-0.3v-0.4l0.6 0.4z" />
		<path id="Layer" class="s13" d="m48.2 25.5l-0.6-0.3l0.9-0.5l0.5 0.4z" />
		<path id="Layer" class="s15" d="m49 25.1v0.3l-0.5 0.3v2.3v0.4l-0.3 0.2v-0.4v-2.3v-0.3v-0.1z" />
		<path id="Layer" class="s15" d="m48.4 28l0.6-0.4v0.5l-0.6 0.3z" />
		<path id="Layer" class="s13" d="m52.1 30.1l-0.6-0.3l0.9-0.6l0.6 0.4z" />
		<path id="Layer" class="s14" d="m52.1 30.6l-0.6-0.4v-0.3l0.6 0.3z" />
		<path id="Layer" class="s14" d="m52.1 30.2l-0.6-0.3v-2.3l0.6 0.3z" />
		<path id="Layer" class="s14" d="m52.1 27.9l-0.6-0.3v-0.4l0.6 0.3z" />
		<path id="Layer" class="s13" d="m52.1 27.5l-0.6-0.3l0.9-0.5l0.6 0.3z" />
		<path id="Layer" class="s15" d="m53 27v0.4l-0.6 0.3v2.3v0.4l-0.3 0.2v-0.4v-2.3v-0.4z" />
		<path id="Layer" class="s15" d="m52.3 30l0.7-0.4v0.5l-0.7 0.3z" />
		<path id="Layer" class="s0" d="m70.6 47.4l19.9 11.7l-2.5 1.3l-9.2 1.9l-16.5-9.8z" />
		<path id="Layer" class="s6" d="m76.9 59.6l1.5-0.8l1.5 0.8l-1.5 0.9z" />
		<path id="Layer" class="s7" d="m78.4 60.2l1.4-0.8v1.7l-1.4 0.8z" />
		<path id="Layer" class="s8" d="m78.4 61.9l-1.4-0.8v-1.7l1.4 0.8z" />
		<path id="Layer" class="s7" d="m84.2 56.9l1.3-0.8v1.7l-1.3 0.8z" />
		<path id="Layer" class="s9" d="m84.2 58.6l-1.4-0.8v-1.7l1.4 0.8z" />
		<path id="Layer" class="s6" d="m63.8 51.9l8.4 3.3l1.5 0.9l-1.5 0.8z" />
		<path id="Layer" class="s7" d="m65.9 52.9l1.4-0.8v1.7l-1.4 0.8z" />
		<path id="Layer" class="s8" d="m65.9 54.6l-1.4-0.8v-1.7l1.4 0.8z" />
		<path id="Layer" class="s10" d="m84.2 57.7l-1.4-0.8v-1.7l1.4 0.8z" />
		<path id="Layer" class="s6" d="m63.8 42.6l7.7-4.5l14.6 8.6l-7.7 4.5z" />
		<path id="Layer" class="s5" d="m78.4 51.2l7.7-4.5v9.4l-7.7 4.4z" />
		<path id="Layer" class="s11" d="m78.4 60.5l-14.6-8.6v-9.4l14.6 8.7z" />
		<path id="Layer" class="s5" d="m74.2 51.4l3.2 1.8v5.5l-5.6-3.2v-5.5z" />
		<path id="Layer" class="s5" d="m67.3 47.5l3.1 1.7v5.6l-5.5-3.2v-5.5z" />
		<path id="Layer" class="s3" d="m63.4 42.5l8.1-4.7l15.1 8.9l-8.2 4.7z" />
		<path id="Layer" class="s4" d="m78.4 51.4l8.2-4.7v0.9l-8.2 4.7z" />
		<path id="Layer" class="s12" d="m78.4 52.3l-15.1-8.9v-0.9l15.1 8.9z" />
		<path id="Layer" class="s12" d="m77.4 55.9v0.6l-5.6-3.2v-0.6z" />
		<path id="Layer" class="s11" d="m68 53.6l-0.5-0.3l-0.2-6.5l0.5 0.3z" />
		<path id="Layer" class="s13" d="m73.9 52.7v0.4l-0.4-0.2z" />
		<path id="Layer" class="s14" d="m73.4 53v0.3l-0.1-0.1v-0.3z" />
		<path id="Layer" class="s14" d="m74.4 53.5v0.3l-1-0.5v-0.3z" />
		<path id="Layer" class="s14" d="m74.5 53.6v0.3l-0.1-0.1v-0.3z" />
		<path id="Layer" class="s13" d="m74.9 53.3v0.4l-0.4 0.2v-0.3z" />
		<path id="Layer" class="s15" d="m74.5 53.6l-0.1-0.1l-1-0.5l-0.1-0.1l0.1-0.1l0.2 0.1l0.9 0.5l0.2-0.1h0.2z" />
		<path id="Layer" class="s15" d="m73.4 52.8l0.3-0.1h0.2l-0.3 0.2z" />
		<path id="Layer" class="s13" d="m66.6 51l0.1-0.4l0.3 0.2z" />
		<path id="Layer" class="s14" d="m66.5 51.2l-0.2-0.1v-0.1l0.2 0.1z" />
		<path id="Layer" class="s14" d="m66.5 51.1l-0.2-0.1v-1.1l0.2 0.1z" />
		<path id="Layer" class="s14" d="m66.5 50l-0.2-0.1v-0.2l0.2 0.2z" />
		<path id="Layer" class="s13" d="m66.5 49.9l-0.2-0.2l0.4-0.2l0.2 0.1z" />
		<path id="Layer" class="s15" d="m66.9 49.6v0.2l-0.2 0.1v1.1v0.2h-0.2v-0.1v-1.1v-0.1z" />
		<path id="Layer" class="s15" d="m66.7 51l0.3-0.2v0.2l-0.3 0.2z" />
		<path id="Layer" class="s13" d="m68.4 51.8v-0.4l0.3 0.1z" />
		<path id="Layer" class="s14" d="m68.3 52l-0.3-0.1v-0.2l0.3 0.1z" />
		<path id="Layer" class="s14" d="m68.3 51.8l-0.3-0.1v-1l0.3 0.1z" />
		<path id="Layer" class="s14" d="m68.3 50.8l-0.3-0.1v-0.2l0.3 0.1z" />
		<path id="Layer" class="s13" d="m68.3 50.6l-0.3-0.1l0.4-0.3l0.2 0.2z" />
		<path id="Layer" class="s15" d="m68.6 50.4v0.2l-0.2 0.1v1.1v0.1l-0.1 0.1v-0.2v-1v-0.2z" />
		<path id="Layer" class="s15" d="m68.4 51.7l0.3-0.2v0.3l-0.3 0.1z" />
		<path id="Layer" class="s13" d="m73.9 55.3v0.4l-0.4-0.2z" />
		<path id="Layer" class="s14" d="m73.4 55.6v0.3l-0.1-0.1v-0.3z" />
		<path id="Layer" class="s14" d="m74.4 56.1v0.3l-1-0.5v-0.3z" />
		<path id="Layer" class="s14" d="m74.5 56.2v0.3l-0.1-0.1v-0.3z" />
		<path id="Layer" class="s13" d="m74.9 55.9v0.3l-0.4 0.3v-0.3z" />
		<path id="Layer" class="s15" d="m74.5 56.2l-0.1-0.1l-1-0.5l-0.1-0.1l0.1-0.1l0.2 0.1l0.9 0.5l0.2-0.2l0.2 0.1z" />
		<path id="Layer" class="s15" d="m73.4 55.4l0.3-0.2l0.2 0.1l-0.3 0.2z" />
		<path id="Layer" class="s0" d="m35.5 35.8l0.2 0.1l3.4 2l0.2 0.1l3.3 1.9l0.2 0.1l3.4 2l0.1 0.1h0.1l-0.1 0.1l-0.1 0.1l-29 16.6l-0.2 0.1l-3.5 2l-0.2 0.1l-2.7 1.6h-0.1l-0.1-0.1l-3.4-2l-0.2-0.1l-3.3-1.9l-0.2-0.1l-3.4-2z" />
		<path id="Layer" class="s16" d="m30.4 32.8l1.9-1.1c0 0 7.2 4.2 9.7 5.6c0 0 0.2 0.2 0.3 0.3c0.1 0.2 0.1 0.4 0.1 0.4c0 1.5 0 5.9 0 5.9l-1.9 1l-8.2-6.9z" />
		<path id="Layer" class="s17" d="m30.4 32.8c0 0 7.2 4.2 9.6 5.6c0.1 0 0.3 0.1 0.4 0.3c0.1 0.2 0.1 0.4 0.1 0.4c0 1.5 0 5.8 0 5.8l-27.2 4z" />
		<path id="Layer" class="s18" d="m39.3 37.8c0.9 0.5 1.1 0.6 1.4 0.5c0.5-0.3 1-0.7 1.4-0.9c0.1 0 0.2 0.1 0.2 0.2q0.1 0.1 0.1 0.2l-1.7 1.2l-0.2 4.7c0 0 0-2.5 0-3.9c-0.1-0.3 0-0.7-0.2-1c-0.1-0.2-0.3-0.3-0.7-0.6c-2.3-1.5-9.2-5.4-9.2-5.4c0.4 0.2 6.1 3.3 8.9 5z" />
		<path id="Layer" class="s19" d="m3.2 48.4l27.2-15.6l0.7 0.4l-17.8 15.7l-10.1 5.8z" />
		<path id="Layer" class="s20" d="m3.9 48.8l27.2-15.6l-17.1 16.1l-10.1 5.9z" />
		<path id="Layer" class="s21" d="m12.9 57.6l27.1-14.8v1.7l-27.1 15.6z" />
		<path id="Layer" class="s17" d="m12.9 57.6l27.1-14.8v1.7l-27.1 15.6z" />
		<path id="Layer" class="s22" d="m12.9 56.6l27.1-14.8v1.7l-27.1 15.6z" />
		<path id="Layer" class="s17" d="m5.9 52h0.1l0.5-0.3l1.9-1.1h0.1l2.3-1.4l0.2-0.1l2.3-1.3l0.1-0.1l17.7-10.1l0.2 0.1l0.2 0.1l2.8 1h0.2l2.7 1h0.2l2.8 1l0.1 0.1h0.1v2.1l-26.4 15.1l-9.3-5.4z" />
		<path id="Layer" class="s16" d="m2.8 44.6c0.1-0.2 0.2-0.3 0.3-0.4c0.1-0.1 0.2-0.1 0.2-0.2c2.2-1.2 23.2-13.2 25.4-14.4c0.5-0.2 0.9-0.2 1.3 0c0.2 0.1 1 0.5 1.4 0.7q0.1 0 0.1 0c0.1 0.1-0.4 5.4-0.4 5.4l-24.9 16.4l-2.1-1c0 0-1-4.4-1.3-5.8q0-0.1 0-0.2c0-0.2 0-0.4 0-0.5z" />
		<path id="Layer" class="s23" d="m2.9 44.6c0.1-0.2 0.2-0.4 0.3-0.5c0.4 0.2 1 0.5 1.3 0.7c0.3 0.1 0.5 0.2 0.8 0c0.4-0.2 24.7-14 25-14.2c0.3-0.1 0.6-0.4 1.1-0.3l-25.5 20c0 0-0.8-2.8-0.9-3.2c-0.1-0.5-0.2-1.2-0.5-1.3c-0.2-0.1-1.2-0.5-1.7-0.7c0-0.2 0-0.4 0.1-0.5z" />
		<path id="Layer" class="s17" d="m5.4 45.1l0.1-0.1l0.4-0.2q0.5-0.3 1.2-0.7c0-0.1 0.1-0.1 0.1-0.1c0.7-0.4 1.5-0.9 2.4-1.4c0 0 0 0 0.1 0c0.8-0.5 18.6-10.7 19.4-11.1c0-0.1 0.1-0.1 0.1-0.1c0.6-0.3 1.2-0.7 1.6-0.9c0.5-0.3 0.7-0.2 0.9 0l0.5 2.1v0.1l0.6 2.5v0.2l0.3 1.3l-19.4 11.1l-0.1 0.1l-2.4 1.4h-0.1l-2.4 1.4h-0.1l-2.4 1.4l-0.3-1.3v-0.2l-0.6-2.5v-0.1l-0.4-2c0-0.6 0.3-0.9 0.5-0.9z" />
		<path id="Layer" class="s16" d="m33.1 36.7l0.1 0.1l2.3 1.3h0.1l2.2 1.3l0.2 0.1l2.3 1.3l0.1 0.1l-2.4 1.4l-0.1 0.1l-19.4 11.1h-0.2l-2.3 1.4l-0.1 0.1l-1.9 1h-0.1l-2.3-1.4h-0.1l-2.3-1.3l-0.1-0.1l-2.3-1.3z" />
		<path id="Layer" class="s18" d="m14.1 56.1l-0.1 2l-0.1-2l-6.4-4.4l6.5 4.2l26.4-15z" />
		<path id="Layer" class="s17" d="m3.4 48.3c0 0 7.3 4.2 9.7 5.6q0 0 0.1 0.1c0.1 0 0.2 0.1 0.2 0.2q0.1 0.1 0.1 0.2q0 0.2 0 0.2c0 1.5 0 5.9 0 5.9l-1.9 1l-8.2-6.9l-1.9-5.2z" />
		<path id="Layer" class="s16" d="m1.5 49.4c0 0 7.2 4.2 9.6 5.6c0.1 0 0.3 0.1 0.4 0.3c0.1 0.2 0.1 0.4 0.1 0.4c0 1.5 0 5.8 0 5.8l-10.1-5.8z" />
		<path id="Layer" class="s23" d="m10.4 54.3c0.8 0.6 1.1 0.7 1.4 0.5c0.4-0.2 1-0.6 1.4-0.8c0.1 0 0.1 0.1 0.2 0.2q0.1 0.1 0.1 0.2l-1.8 1.1l-0.1 4.7c0 0 0-2.4-0.1-3.8c0-0.4 0.1-0.7-0.1-1c-0.1-0.2-0.3-0.4-0.7-0.6c-2.3-1.5-9.2-5.4-9.2-5.4c0.4 0.2 6.1 3.2 8.9 4.9z" />
		<path id="Layer" class="s0" d="m35.7 70.7l20.2-14.1l20.6 14.4l-19.4 11l-6.2 0.1l-15.7-9.1z" />
		<path id="Layer" class="s5" d="m73.5 59.9v9.1l-1.9 1.1v-9.1z" />
		<path id="Layer" class="s24" d="m74.1 59.7v0.8l-2.1 1.2v-0.8z" />
		<path id="Layer" class="s11" d="m71.6 61l-15.7-9l1.9-1.1l15.7 9z" />
		<path id="Layer" class="s25" d="m71.6 70.1l-15.7-9.1v-9l15.7 9z" />
		<path id="Layer" class="s6" d="m72 60.9l-16.7-9.7l2.1-1.2l16.7 9.7z" />
		<path id="Layer" class="s26" d="m72 61.7l-16.7-9.6v-0.9l16.7 9.7z" />
		<path id="Layer" class="s11" d="m50.9 82.1l-15.7-9.1v-2.2l15.7 9z" />
		<path id="Layer" class="s5" d="m50.9 79.8l20.7-11.9v2.2l-20.7 12z" />
		<path id="Layer" class="s27" d="m50.9 79.8l-15.7-9l20.7-12l15.7 9.1z" />
		<path id="Layer" class="s28" d="m50.8 79.3l-16-9.2v-2.2l16 9.2z" />
		<path id="Layer" class="s29" d="m50.8 77.1l20.7-11.7v2.3l-20.7 11.7z" />
		<path id="Layer" class="s30" d="m50.8 77.1l-16-9.2l20.7-11.7l16 9.2z" />
		<path id="Layer" class="s31" d="m52.1 77l-16.6-9.6l17.3-10l16.6 9.6z" />
		<path id="Layer" class="s32" d="m52.1 79.3v-2.3l17.4-10v2.3z" />
		<path id="Layer" class="s33" d="m51.9 79.2v-2.3l0.2 0.1v2.3z" />
		<path id="Layer" class="s33" d="m35.5 67.4l16.6 9.6v0.3l-16.6-9.7z" />
		<path id="Layer" class="s0" d="m61.7 65.4c-2.1-1-4-2.1-5.7-3.4c1.1-1 2.4-1.7 4.2-2.4c2.1 1 4.1 2.1 5.8 3.3c-1.2 1.1-2.5 1.8-4.3 2.5z" />
		<path id="Layer" class="s32" d="m59.6 58.6q2.5 1.2 4.7 2.5q0.8 0.6 1.6 1.2c-1.2 1.1-2.6 1.9-4.6 2.6c-2.3-1-4.4-2.2-6.3-3.6c1.3-1.1 2.7-1.9 4.6-2.7z" />
		<path id="Layer" class="s34" d="m61.2 62.5c0 0 2.1-1.7 2.7-1.5q0.1 0 0.4 0.1q0.8 0.6 1.6 1.2c-1.2 1.1-2.6 1.9-4.6 2.6c0.3-1-0.1-2.4-0.1-2.4z" />
		<path id="Layer" class="s31" d="m61.2 62.5q-2.1-0.9-3.8-2.1c0.8-0.7 1.6-1.1 2.8-1.6q2.1 1 3.7 2.2c-0.7 0.6-1.6 1.1-2.7 1.5z" />
	</g>
</svg>