<svg version="1.2" xmlns="http://www.w3.org/2000/svg" viewBox="0 0 90 90" width="90" height="90">
	<title>New Project</title>
	<style>
		.s0 { opacity: .1;fill: #000000 } 
		.s1 { fill: #2051a4 } 
		.s2 { fill: #43bcff } 
		.s3 { fill: #ffffff } 
		.s4 { fill: #ff590e } 
		.s5 { fill: #ff782d } 
		.s6 { fill: #143684 } 
		.s7 { fill: #f62121 } 
		.s8 { fill: #e60026 } 
		.s9 { fill: #3f3c44 } 
		.s10 { fill: #399eff } 
		.s11 { fill: #bde6ff } 
		.s12 { fill: #009573 } 
		.s13 { fill: #17a984 } 
		.s14 { fill: #2c89ff } 
		.s15 { fill: #e2e6ea } 
		.s16 { fill: #8fd4ff } 
		.s17 { mix-blend-mode: multiply;fill: #000000 } 
		.s18 { fill: #e2e6e9 } 
	</style>
	<g id="Folder 1">
		<path id="Layer" class="s0" d="m62.6 48l-9.6 5.5q-0.2 0.1-0.5 0.1q-0.2 0-0.5-0.1l-20.3-11.7q0 0-0.1-0.1q0-0.1 0-0.2q0 0 0-0.1q0.1-0.1 0.1-0.1l9.7-5.6q0.2-0.1 0.4-0.1q0.3 0 0.5 0.1l20.3 11.8q0.1 0 0.1 0.1q0.1 0 0.1 0.1q0 0.1-0.1 0.2q0 0-0.1 0.1z" />
		<path id="Layer" class="s1" d="m34.2 41.1q-0.2-0.3-0.2-0.6v-14.9c0-2.3 1.7-5.1 3.7-6.3c0.9-0.5 1.8-0.6 2.4-0.3c0.7 0.3 19.1 11.2 19.1 11.2l-5.8 21.3q-0.1 0.2-0.2 0.3q-0.1 0.1-0.2 0.1q-0.1 0.1-0.3 0.1q-0.1 0-0.2-0.1l-17.9-10.4q-0.3-0.2-0.4-0.4z" />
		<path id="Layer" class="s2" d="m37.7 19.3c0.9-0.5 1.8-0.6 2.4-0.3c0.7 0.3 16.3 9.5 18.8 11c-0.6-0.1-1.3 0-2.1 0.4c-2 1.2-3.6 4-3.6 6.3v2.8q0 0.4-0.2 0.7q-0.2 0.4-0.6 0.6q-0.3 0.2-0.8 0.2q-0.4 0-0.7-0.2l-14.9-8.6c-0.6-0.4-1.1-0.9-1.5-1.5c-0.3-0.6-0.5-1.2-0.5-1.9v-3.2c0-2.3 1.7-5.1 3.7-6.3z" />
		<path id="Layer" class="s3" d="m49.8 38.4q-0.3 0-0.5-0.2h-0.1l0.1-0.2l0.1 0.1q0.2 0.1 0.4 0.1zm0.6 0l-0.1-0.1q0.3-0.1 0.5-0.2l0.1 0.1q-0.2 0.2-0.5 0.2zm-1.6-0.5l-0.4-0.2v-0.2l0.5 0.3zm2.5-0.2l-0.1-0.1q0.1-0.2 0.1-0.4h0.2q0 0.3-0.2 0.5zm-3.4-0.4l-0.5-0.2l0.1-0.2l0.5 0.3zm-1-0.5l-0.4-0.3l0.1-0.2l0.4 0.3zm4.6-0.1h-0.2v-0.6h0.2zm-5.5-0.4l-0.5-0.3l0.1-0.1l0.5 0.3zm-0.9-0.6l-0.5-0.2l0.1-0.2l0.5 0.3zm6.2-0.2q0-0.2 0.1-0.5h0.2q-0.1 0.3-0.1 0.5zm-7.2-0.4l-0.5-0.2l0.1-0.2l0.5 0.3zm-0.9-0.6l-0.5-0.2l0.1-0.2l0.5 0.3zm8.4-0.1l-0.2-0.1q0.1-0.2 0.2-0.5l0.1 0.1q0 0.2-0.1 0.5zm-9.4-0.5l-0.4-0.2l0.1-0.2l0.4 0.3zm-0.9-0.6l-0.5-0.2l0.1-0.2l0.5 0.3zm10.6-0.1h-0.2q0.1-0.3 0.2-0.5h0.2q-0.1 0.3-0.2 0.5zm-11.5-0.5l-0.5-0.2l0.1-0.2l0.4 0.3zm12-0.5l-0.1-0.1q0.1-0.2 0.2-0.5l0.2 0.1q-0.2 0.3-0.3 0.5zm-12.9-0.1l-0.4-0.2v-0.2l0.5 0.3zm-0.9-0.6l-0.5-0.2l0.1-0.2l0.5 0.3zm14.3-0.3l-0.1-0.1q0.1-0.3 0.3-0.5l0.1 0.1q-0.1 0.2-0.3 0.5zm-15.3-0.3l-0.4-0.2l0.1-0.2l0.4 0.3zm-0.9-0.6q-0.2-0.2-0.4-0.4l0.2-0.1q0.1 0.2 0.3 0.4zm16.9-0.1l-0.2-0.1q0.2-0.2 0.4-0.4l0.1 0.1q-0.2 0.2-0.3 0.4zm0.7-0.8l-0.1-0.1q0.2-0.2 0.4-0.3l0.1 0.1q-0.2 0.2-0.4 0.3zm-18.3 0q-0.1-0.2-0.2-0.5h0.1q0.1 0.2 0.3 0.4zm-0.5-1q0-0.3 0-0.5l0.1-0.1q0.1 0.3 0.1 0.6zm0.1-1.1h-0.2v-0.6h0.2zm0-1h-0.2v-0.6h0.2zm0-1.1h-0.2q0-0.2 0.1-0.5h0.1q0 0.3 0 0.5zm0.2-1l-0.2-0.1q0-0.2 0.1-0.5l0.2 0.1q-0.1 0.2-0.1 0.5zm0.3-1l-0.2-0.1q0.1-0.2 0.3-0.5l0.1 0.1q-0.1 0.2-0.2 0.5zm0.5-1l-0.2-0.1q0.2-0.2 0.3-0.4l0.2 0.1q-0.2 0.2-0.3 0.4zm0.6-0.8l-0.1-0.2q0.1-0.2 0.3-0.4l0.1 0.1q-0.1 0.2-0.3 0.5zm0.7-0.8l-0.1-0.2q0.2-0.1 0.4-0.3l0.1 0.1q-0.2 0.2-0.4 0.4zm0.9-0.7l-0.1-0.1l0.1 0.1z" />
		<path id="Layer" class="s4" d="m41.3 37.5q-0.2-0.4-0.2-0.8v-1.6l3.4 2v1.6c0 0.5-0.3 0.7-0.8 0.5l-1.8-1.1q-0.4-0.2-0.6-0.6z" />
		<path id="Layer" class="s1" d="m41.7 37.3q-0.2-0.2-0.2-0.5v-1.2l2.6 1.5v1.1c0 0.4-0.3 0.5-0.6 0.4l-1.4-0.8q-0.2-0.2-0.4-0.5z" />
		<path id="Layer" class="s4" d="m41.1 33.5c0-0.5 0.3-0.7 0.8-0.4l1.8 1q0.4 0.3 0.6 0.6q0.2 0.4 0.2 0.8v1.6l-3.4-2z" />
		<path id="Layer" class="s5" d="m40.9 35.6q-0.2-0.2-0.2-0.4v-0.5c0-0.3 0.3-0.4 0.5-0.2l3.2 1.8q0.2 0.1 0.3 0.3q0.1 0.2 0.1 0.5v0.4c0 0.3-0.2 0.5-0.4 0.3l-3.2-1.8q-0.2-0.1-0.3-0.4z" />
		<path id="Layer" class="s6" d="m53.2 51.8v-15.1c0-2.3 1.6-5.1 3.6-6.3c2-1.1 3.6-0.2 3.6 2.1v14.6q0 0.2-0.1 0.5q-0.1 0.2-0.4 0.3z" />
		<path id="Layer" class="s7" d="m52.9 28q-0.2 0.2-0.5 0.2q-0.3 0-0.5-0.2h-0.1c-0.4-0.2-0.7-0.6-0.9-1l-0.1-0.1c-0.7-1.7-2-3.2-3.3-4l-1.7-0.9c-1.4-0.8-2.6-0.8-3.4 0.1c0 0-0.4 0.3-0.7 0.1q-0.1-0.1-0.2-0.1q-0.1-0.1-0.1-0.1q0-0.1-0.1-0.1q0-0.1 0.1-0.1q0-0.1 0-0.1l0.5-0.6c0.5-0.4 2.1-1.4 2.4-1.5c0.8-0.4 1.9-0.2 3 0.4l2.3 1.3c1.5 0.9 2.9 2.5 3.7 4.4l0.6 1.3q0 0.1 0 0.3q-0.1 0.2-0.2 0.3z" />
		<path id="Layer" class="s8" d="m52.3 27.8c0 0.1 0.1 0.4 0 0.4q-0.2 0-0.4-0.2h-0.1c-0.4-0.2-0.7-0.6-0.9-1l-0.1-0.1c-0.7-1.7-2-3.2-3.3-4l-1.7-1c-1.4-0.7-2.6-0.7-3.4 0.1c0 0-0.4 0.4-0.7 0.2q-0.1-0.1-0.2-0.1q-0.1-0.1-0.1-0.1q0-0.1-0.1-0.1q0-0.1 0.1-0.1q0-0.1 0-0.1l0.5-0.6q0.2-0.2 0.5-0.3q0.1-0.1 0.2-0.2c0.7-0.3 1.4-0.4 2.3-0.1c0.8 0.3 4.2 2 4.8 2.8q1 1.3 1.8 2.7c0.6 1.1 0.7 1.4 0.8 1.8z" />
		<path id="Layer" class="s0" d="m56 72.5q-0.7 0-1.3-0.3l-23.6-13.7q-0.5-0.2-0.7-0.7q-0.3-0.4-0.3-0.9q0-0.6 0.3-1.1q0.3-0.4 0.8-0.7l30.8-17.8q0.7-0.4 1.5-0.4q0.7 0 1.3 0.3l23.7 13.7q0.4 0.2 0.7 0.7q0.2 0.4 0.3 0.9q-0.1 0.6-0.3 1.1q-0.3 0.4-0.8 0.7l-30.9 17.8q-0.7 0.4-1.5 0.4z" />
		<path id="Layer" class="s9" d="m31.7 55.6q0 0 0 0z" />
		<path id="Layer" class="s1" d="m55.5 69.6q0.1 0 0.2 0v1.3q-0.1 0-0.2-0.1l-23.6-13.6q-0.1-0.1-0.2-0.2q0 0 0-0.1v-1.3q0 0.1 0 0.2q0.1 0.1 0.2 0.1z" />
		<path id="Layer" class="s6" d="m87.9 51.3v1.2q0 0.2-0.1 0.3q-0.1 0.1-0.2 0.1l-30.9 17.9q-0.1 0-0.2 0.1v-1.3q0.1 0 0.2-0.1l30.9-17.8q0.1-0.1 0.2-0.2q0.1-0.1 0.1-0.2z" />
		<path id="Layer" class="s10" d="m55.5 69.6l-23.6-13.7c-0.3-0.2-0.3-0.5 0.1-0.7l30.8-17.8q0.3-0.2 0.6-0.2q0.3 0 0.6 0.1l23.7 13.7c0.3 0.2 0.3 0.5-0.1 0.7l-30.9 17.8q-0.2 0.2-0.6 0.2q-0.3 0-0.6-0.1z" />
		<path id="Layer" class="s11" d="m84.8 50.8v0.2l-27.7 16l-20.2-11.7v-0.2h0.4l27.3-15.8l19.8 11.5v-0.1z" />
		<path id="Layer" class="s3" d="m57.1 66.7l-20.2-11.6l27.7-16l20.2 11.7z" />
		<path id="Layer" fill-rule="evenodd" class="s12" d="m83.3 47.1v0.1q0 0-0.1 0.1q0 0-0.1 0.1l-2.4 1.4q-0.1 0-0.3 0q-0.2 0-0.4 0l-12.3-7.1q0-0.1-0.1-0.1q0-0.1 0-0.1v-0.8l0.6 0.3v0.2l1.9-1.1q0.2-0.1 0.4-0.1q0.2 0 0.4 0.1l3.3 2c3.9-2.2 6.6 0.5 6.6 0.5v1.1q0 0 0 0.1c0 0.5-0.3 1-1 1.5l2.5 1.4l1-0.3v0.7zm-5.3-4q-0.5-0.3-1.1-0.3q-0.6 0-1.1 0.3c-0.6 0.3-0.6 0.9 0 1.2q0.5 0.3 1.1 0.3q0.6 0 1.1-0.3c0.6-0.3 0.6-0.9 0-1.2z" />
		<path id="Layer" fill-rule="evenodd" class="s13" d="m83.3 46.3q0 0.1 0 0.1q0 0.1 0 0.2q-0.1 0-0.2 0l-2.4 1.4q-0.1 0.1-0.3 0.1q-0.2 0-0.4-0.1l-12.3-7q0-0.1-0.1-0.1q0-0.1 0-0.2q0 0 0-0.1q0.1-0.1 0.1-0.1l2.4-1.4q0.2-0.1 0.4-0.1q0.2 0 0.4 0.1l3.3 2c1.6-0.8 4-0.8 5.5 0c1.5 0.9 1.5 2.3 0.1 3.2l3.3 1.9q0.1 0 0.2 0.1zm-6.4-2.7q0.6 0 1.1-0.3c0.6-0.3 0.6-0.9 0-1.2q-0.5-0.3-1.1-0.3q-0.6 0-1.1 0.3c-0.6 0.3-0.6 0.9 0 1.2q0.5 0.3 1.1 0.3z" />
		<path id="Layer" class="s14" d="m56.5 69.6v1.3q-0.4 0.1-0.8 0v-1.3q0.4 0.1 0.8 0z" />
		<path id="Layer" class="s15" d="m69 46l-5.9-3.4l0.5-0.3l5.9 3.4z" />
		<path id="Layer" class="s15" d="m76.4 52.6l-15.3-8.9l0.5-0.3l15.3 8.9z" />
		<path id="Layer" class="s15" d="m74.4 53.7l-15.3-8.8l0.5-0.3l15.3 8.8z" />
		<path id="Layer" class="s15" d="m65.9 51.1l-2.6-1.5l0.5-0.3l2.6 1.5z" />
		<path id="Layer" class="s15" d="m61.5 48.6l-4.4-2.6l0.5-0.3l4.4 2.6z" />
		<path id="Layer" class="s15" d="m65.4 60l-5-2.9l0.5-0.3l5.1 2.9z" />
		<path id="Layer" class="s15" d="m63.4 61.2l-3.3-1.9l0.5-0.3l3.4 1.9z" />
		<path id="Layer" class="s15" d="m61.4 62.3l-3.3-1.9l0.5-0.3l3.3 1.9z" />
		<path id="Layer" class="s0" d="m37.9 51.5l-26 15q-0.5 0.3-1.2 0.3q-0.6 0-1.1-0.3l-5.1-3q-0.4-0.2-0.6-0.5q-0.1-0.4-0.1-0.7q0-0.4 0.1-0.7q0.2-0.4 0.6-0.6l26-14.9q0.5-0.3 1.1-0.3q0.6 0 1.2 0.3l5.1 3q0.3 0.2 0.5 0.5q0.2 0.3 0.2 0.7q0 0.4-0.2 0.7q-0.2 0.3-0.5 0.5z" />
		<path id="Layer" class="s4" d="m30.5 28.9c0.3 0.2 4.5 2.7 4.5 2.7l-24.7 33.6c0 0-4.6-2.7-4.6-2.7q-0.2-0.1-0.3-0.3q-0.1-0.1-0.1-0.3q-0.1-0.2-0.1-0.4v-10.7q0-0.9 0.5-1.6q0.4-0.8 1.1-1.2l15.4-8.9v-4.1q0-0.8 0.4-1.5q0.4-0.8 1.2-1.2l5.6-3.3c0.4-0.2 0.8-0.2 1.1-0.1z" />
		<path id="Layer" class="s14" d="m30 41.5l-21.6 12.5v-29.6l21.6-12.5z" />
		<path id="Layer" class="s16" d="m30.8 42l-21.6 12.5v-29.7l21.6-12.5z" />
		<path id="Layer" class="s11" d="m31.7 42.5l-21.6 12.5v-29.7l21.6-12.4z" />
		<path id="Layer" class="s3" d="m32.6 43l-21.6 12.5v-29.7l21.6-12.4z" />
		<path id="Layer" class="s14" d="m21.4 28.8c0-1.8 1-3.4 2.2-4.1c0.7-0.4 1.1-0.3 1.5-0.1l-0.5 0.9q-0.3-0.1-0.5-0.1q-0.2 0.1-0.4 0.2c-0.8 0.4-1.3 1.4-1.3 2.6c0 1.2 0.5 1.7 1.3 1.2q0.6-0.4 0.9-1.1l0.5 0.4c-0.3 0.7-0.8 1.3-1.5 1.7c-1.2 0.7-2.2 0.3-2.2-1.6zm3.8-5l1-0.5l0.7 2.3c0.1 0.5 0.2 1 0.4 1.5c0.2-0.7 0.3-1.3 0.4-2l0.6-3.1l1-0.5l-1.5 6.3l-1.1 0.7z" />
		<path id="Layer" class="s2" d="m18.8 31.6l-4.9 2.9v-6.7l4.9-2.8z" />
		<path id="Layer" class="s11" d="m13.9 45.7l4.5-2.6v0.9l-4.5 2.6z" />
		<path id="Layer" class="s11" d="m13.9 42.8l15.3-8.8v0.9l-15.3 8.8z" />
		<path id="Layer" class="s11" d="m13.9 39.9l15.3-8.8v0.9l-15.3 8.8z" />
		<path id="Layer" class="s11" d="m19.4 42.5l2.6-1.5v0.9l-2.6 1.5z" />
		<path id="Layer" class="s2" d="m13.9 36.2l5-2.9v0.9l-5 2.9z" />
		<path id="Layer" class="s4" d="m34.2 31.1c0.3 0.1 0.8 0.5 0.8 0.5l-24.7 33.6c0 0-0.9-0.5-1-0.6q-0.3-0.2-0.4-0.6q0-0.2 0-0.3v-10.8q0-0.8 0.4-1.6q0.5-0.7 1.2-1.1l15.3-8.9v-4.1q0-0.8 0.5-1.6q0.4-0.7 1.1-1.2l5.7-3.2c0.4-0.3 0.8-0.3 1.1-0.1z" />
		<path id="Layer" class="s7" d="m34.1 31.6q0.1-0.1 0.3-0.1q0.2-0.1 0.4 0q0.1 0 0.3 0.1q0.1 0.1 0.2 0.3c0.2 0.3 0.2 0.7 0.2 1v15.2c0 0.9 0 1.9-0.5 2.7c-0.4 0.8-1.3 1.3-2.1 1.8l-21.4 12.4c-0.4 0.2-0.8 0.4-1.2 0.2c-0.5-0.2-0.5-0.8-0.5-1.3l-0.1-9.4c0-1 0.1-2.1 0.6-2.9c0.4-0.6 1.1-1 1.8-1.4l14.6-8.4c0.3-1.9-0.5-4 0.5-5.7c0.5-0.9 1.4-1.4 2.3-1.9l2.9-1.6l1.6-0.9z" />
		<path id="Layer" class="s4" d="m9.4 51.4l-0.5 3.2l-3.1-1.5l0.4-3.7l1.6-1.4l3.2 1.9z" />
		<path id="Layer" class="s0" d="m21.7 64.4q-0.2-0.3-0.2-0.6q0-0.3 0.2-0.6q0.2-0.3 0.4-0.4l2-1.2q0.5-0.2 1-0.2q0.5 0 1 0.2l22.3 12.9q0.3 0.1 0.4 0.4q0.2 0.3 0.2 0.6q0 0.3-0.2 0.6q-0.1 0.3-0.4 0.5l-2 1.1q-0.5 0.3-1 0.3q-0.5 0-1-0.3l-22.3-12.8q-0.2-0.2-0.4-0.5z" />
		<path id="Layer" class="s1" d="m27.3 33.6l20 11.6v30.7l-20-11.5z" />
		<path id="Layer" class="s16" d="m26.5 34.1l20 11.5v30.8l-20-11.6z" />
		<path id="Layer" class="s3" d="m25.7 34.6l20 11.5v30.8l-20-11.6z" />
		<path id="Layer" class="s11" d="m28.5 54.2l4.2 2.4v0.8l-4.2-2.4z" />
		<path id="Layer" class="s11" d="m28.5 51.4l14.3 8.3v0.8l-14.3-8.3z" />
		<path id="Layer" class="s11" d="m28.5 48.8l14.3 8.3v0.8l-14.3-8.3z" />
		<path id="Layer" class="s11" d="m33.7 57.1l2.3 1.3v0.9l-2.3-1.4z" />
		<path id="Layer" class="s11" d="m28.5 63.5l4.2 2.4v0.8l-4.2-2.4z" />
		<path id="Layer" class="s11" d="m28.5 60.7l14.3 8.4v0.8l-14.3-8.3z" />
		<path id="Layer" class="s11" d="m28.5 58.1l14.3 8.3v0.8l-14.3-8.3z" />
		<path id="Layer" class="s11" d="m33.7 66.4l6.6 3.9v0.8l-6.6-3.9z" />
		<path id="Layer" fill-rule="evenodd" class="s7" d="m29.1 44.2l0.7-0.2q0.3 0.8 0.7 1c0.5 0.3 0.7 0.1 0.7-0.6v-3.8l1 0.6v3.8c0 1.1-0.5 1.7-1.5 1.1c-0.8-0.4-1.2-1.1-1.6-1.9zm4 0.3c0-1.8 0.9-2.3 2.2-1.6c1.3 0.8 2.2 2.3 2.2 4.2c0 1.8-0.9 2.4-2.2 1.7c-1.3-0.8-2.2-2.4-2.2-4.3zm3.4 2c0-1.2-0.5-2.2-1.2-2.6c-0.7-0.4-1.2 0-1.2 1.2c0 1.2 0.5 2.3 1.2 2.7c0.7 0.4 1.2-0.1 1.2-1.3zm2-1.7l1.6 1c1 0.5 1.8 1.3 1.8 2.4c0 0.5-0.3 0.9-0.7 0.8v0.1q0.4 0.3 0.7 0.8q0.2 0.5 0.2 1c0 1.2-0.8 1.2-1.9 0.6l-1.7-1zm1.5 3.2c0.6 0.3 0.9 0.2 0.9-0.3c0-0.5-0.3-0.8-0.9-1.2l-0.6-0.3v1.4zm0.2 2.6c0.6 0.4 1 0.3 1-0.3c0-0.5-0.4-1-1-1.4l-0.7-0.4v1.7z" />
		<g id="Layer" style="opacity: .1">
			<path id="Layer" class="s17" d="m76.9 60.9q0 0.5-0.2 0.9q-0.3 0.4-0.7 0.7q-0.1 0.1-0.3 0.1q-0.2 0.1-0.3 0h-0.1l-1.3-0.8l-25.5-14.7q-0.1-0.1-0.2-0.1l-0.8-1.2l-0.9-1.2q0 0 0 0q0-0.1 0-0.1q0-0.1 0.1-0.1q0 0 0 0l1.5 0.2l1.4 0.1q0.1 0 0.2 0.1l25.5 14.7q0 0 0 0h0.1l1.3 0.8q0.2 0.1 0.2 0.6z" />
		</g>
		<path id="Layer" class="s7" d="m46.8 43.8q0-0.1 0-0.1q0.1-0.1 0.1 0q0 0.1 0 0.1q0 0.1-0.1 0.1q-0.1 0-0.1-0.1q0 0 0.1 0z" />
		<path id="Layer" class="s7" d="m46.9 43.7l1.5 0.2l-0.8 1.2l-0.9-1.2z" />
		<path id="Layer" class="s18" d="m48.3 43.8l1.5 0.2l-1.3 2.3l-0.9-1.3z" />
		<path id="Layer" class="s1" d="m49.3 44.1c0.3-0.1 0.5-0.1 0.7 0l25.5 14.7l-0.6 1.1l-26.3-15.1q0.3-0.4 0.7-0.7z" />
		<path id="Layer" class="s18" d="m47.6 45c-0.2-0.1-0.2-0.4 0-0.7c0.2-0.4 0.5-0.6 0.7-0.4c0.2 0.1 0.2 0.4 0 0.7c-0.2 0.4-0.5 0.6-0.7 0.4z" />
		<path id="Layer" class="s6" d="m48.6 44.8l26.3 15.1l-0.7 1.2l-25.5-14.7q-0.3-0.1-0.3-0.6q0-0.5 0.2-1z" />
		<path id="Layer" class="s7" d="m74.2 59.6q0.2-0.5 0.6-0.7c0.5-0.3 1-0.1 1 0.5q-0.1 0.5-0.3 0.9q-0.3 0.5-0.7 0.7c-0.5 0.3-0.9 0.1-0.9-0.5q0-0.5 0.3-0.9z" />
		<path id="Layer" class="s7" d="m75.6 61.9l-1.4-0.8l1.3-2.3l1.3 0.8z" />
		<path id="Layer" class="s3" d="m74.8 58.9c0.3-0.2 0.6-0.2 0.8 0q-0.2-0.1-0.3 0q-0.2 0-0.3 0.1q-0.4 0.2-0.7 0.7q-0.2 0.4-0.2 0.9q-0.1 0.2 0 0.3q0.1 0.1 0.2 0.3c-0.3-0.1-0.4-0.3-0.4-0.7q0-0.5 0.3-0.9q0.2-0.5 0.6-0.7z" />
		<path id="Layer" class="s4" d="m75.5 60.3q0.3-0.4 0.7-0.7c0.5-0.3 0.9 0 0.9 0.6q0 0.5-0.3 0.9q-0.2 0.4-0.6 0.7c-0.5 0.3-1 0.1-1-0.5q0.1-0.5 0.3-1z" />
	</g>
</svg>