<svg version="1.2" xmlns="http://www.w3.org/2000/svg" viewBox="0 0 90 90" width="90" height="90">
	<title>New Project</title>
	<style>
		.s0 { opacity: .1;fill: #000000 } 
		.s1 { fill: #399eff } 
		.s2 { fill: #17a984 } 
		.s3 { fill: #8fd4ff } 
		.s4 { fill: #43bcff } 
		.s5 { fill: #bde6ff } 
		.s6 { fill: #ffffff } 
		.s7 { fill: #e60026 } 
		.s8 { fill: #f62121 } 
		.s9 { fill: #009573 } 
		.s10 { fill: #23c190 } 
		.s11 { fill: #ff590e } 
		.s12 { fill: #ff782d } 
		.s13 { fill: #2c89ff } 
		.s14 { fill: #2051a4 } 
		.s15 { fill: #143684 } 
	</style>
	<g id="Folder 1">
		<path id="Layer" class="s0" d="m60.7 73.5l-38.3-22.1l27.4-15.8l38.3 22.1z" />
		<path id="Layer" class="s1" d="m49.6 38.1l7.5-4.3v8.6l-7.5 4.4z" />
		<path id="Layer" class="s2" d="m49.6 46.8l-7.5-4.4v-8.6l7.5 4.3z" />
		<path id="Layer" class="s3" d="m42.1 33.8l7.5-4.3l7.5 4.3l-7.5 4.3z" />
		<path id="Layer" class="s1" d="m49.6 29.5l7.5-4.3v8.6l-7.5 4.3z" />
		<path id="Layer" class="s4" d="m49.6 38.1l-7.5-4.3v-8.6l7.5 4.3z" />
		<path id="Layer" class="s3" d="m42.1 25.2l7.5-4.4l7.5 4.4l-7.5 4.3z" />
		<path id="Layer" class="s3" d="m49.6 20.9l7.5-4.4v8.7l-7.5 4.3z" />
		<path id="Layer" class="s5" d="m49.6 29.5l-7.5-4.3v-8.7l7.5 4.4z" />
		<path id="Layer" class="s6" d="m42.1 16.5l7.5-4.3l7.5 4.3l-7.5 4.4z" />
		<path id="Layer" class="s7" d="m49.6 7.9l7.5 8.6l-7.5 4.4z" />
		<path id="Layer" class="s8" d="m49.6 20.9l-7.5-4.4l7.5-8.6z" />
		<path id="Layer" class="s9" d="m68.2 49l7.5-4.3v8.6l-7.5 4.3z" />
		<path id="Layer" class="s2" d="m68.2 57.6l-7.5-4.3v-8.6l7.5 4.3z" />
		<path id="Layer" class="s10" d="m60.7 44.7l7.5-4.4l7.5 4.4l-7.5 4.3z" />
		<path id="Layer" class="s9" d="m75.7 53.4l7.6-4.4v8.6l-7.6 4.4z" />
		<path id="Layer" class="s2" d="m75.7 62l-7.5-4.4v-8.6l7.5 4.4z" />
		<path id="Layer" class="s3" d="m68.2 49l7.5-4.3l7.6 4.3l-7.6 4.4z" />
		<path id="Layer" class="s1" d="m75.7 44.7l7.6-4.3v8.6l-7.6 4.3z" />
		<path id="Layer" class="s4" d="m75.7 53.3l-7.5-4.3v-8.6l7.5 4.3z" />
		<path id="Layer" class="s3" d="m68.2 40.4l7.5-4.4l7.6 4.4l-7.6 4.3z" />
		<path id="Layer" class="s1" d="m68.2 57.7l7.5-4.3v8.6l-7.5 4.3z" />
		<path id="Layer" class="s2" d="m68.2 66.3l-7.5-4.3v-8.6l7.5 4.3z" />
		<path id="Layer" class="s3" d="m60.7 53.4l7.5-4.4l7.5 4.4l-7.5 4.3z" />
		<path id="Layer" class="s2" d="m40.1 58.7l-13.1-7.5v-8.7l13.1 7.6z" />
		<path id="Layer" class="s3" d="m27 42.5l7.6-4.3l13.1 7.6l-7.6 4.3z" />
		<path id="Layer" class="s9" d="m40.1 50.1l7.6-4.3v8.6l-7.6 4.3z" />
		<path id="Layer" class="s9" d="m34.5 38.2l7.5-4.3v8.6l-7.5 4.3z" />
		<path id="Layer" class="s4" d="m34.5 46.8l-7.5-4.3v-8.6l7.5 4.3z" />
		<path id="Layer" class="s10" d="m27 33.9l7.5-4.4l7.5 4.4l-7.5 4.3z" />
		<path id="Layer" class="s3" d="m34.5 29.6l7.5-4.4v8.7l-7.5 4.3z" />
		<path id="Layer" class="s5" d="m34.5 38.2l-7.5-4.3v-8.7l7.5 4.4z" />
		<path id="Layer" class="s6" d="m27 25.2l7.5-4.3l7.5 4.3l-7.5 4.4z" />
		<path id="Layer" class="s7" d="m34.5 16.6l7.5 8.6l-7.5 4.4z" />
		<path id="Layer" class="s8" d="m34.5 29.6l-7.5-4.4l7.5-8.6z" />
		<path id="Layer" class="s2" d="m60.7 70.7l-13.1-7.6v-8.7l13.1 7.6z" />
		<path id="Layer" class="s3" d="m47.6 54.4l7.6-4.3l13 7.6l-7.5 4.3z" />
		<path id="Layer" class="s9" d="m60.7 62l7.5-4.3v8.6l-7.5 4.4z" />
		<path id="Layer" class="s8" d="m40.1 37.6l7.5-4.3v12.4l-7.5 4.4z" />
		<path id="Layer" class="s7" d="m60.8 40.8v12.5l-5.6-3.2v-4.3c0-2.4-1.7-5.4-3.8-6.6c-2.1-1.2-3.8-0.2-3.8 2.2v4.3l-5.6-3.2v-12.5z" />
		<path id="Layer" class="s11" d="m53.2 45.2v12.5l-5.6-3.2v-4.4c0-2.4-1.6-5.3-3.7-6.5c-2.1-1.2-3.8-0.2-3.8 2.2v4.3l-5.6-3.2v-12.5z" />
		<path id="Layer" class="s7" d="m53.2 45.2l7.6-4.4v12.5l-7.6 4.4z" />
		<path id="Layer" class="s12" d="m34.5 34.4l7.5-4.4l18.8 10.8l-7.6 4.4z" />
		<path id="Layer" class="s1" d="m60.7 53.4l7.5-4.3v8.6l-7.5 4.3z" />
		<path id="Layer" class="s4" d="m60.7 62l-7.5-4.3v-8.6l7.5 4.3z" />
		<path id="Layer" class="s10" d="m53.2 49.1l7.5-4.4l7.5 4.4l-7.5 4.3z" />
		<path id="Layer" class="s3" d="m60.7 44.7l7.5-4.3v8.6l-7.5 4.4z" />
		<path id="Layer" class="s5" d="m60.7 53.4l-7.5-4.4v-8.6l7.5 4.3z" />
		<path id="Layer" class="s6" d="m53.2 40.4l7.5-4.3l7.5 4.3l-7.5 4.3z" />
		<path id="Layer" class="s7" d="m60.7 31.8l7.5 8.6l-7.5 4.3z" />
		<path id="Layer" class="s8" d="m60.7 44.7l-7.5-4.3l7.5-8.6z" />
		<path id="Layer" class="s3" d="m75.7 36.1l7.5-4.4v8.7l-7.5 4.3z" />
		<path id="Layer" class="s5" d="m75.7 44.7l-7.5-4.3v-8.7l7.5 4.4z" />
		<path id="Layer" class="s6" d="m68.2 31.7l7.5-4.3l7.5 4.3l-7.5 4.4z" />
		<path id="Layer" class="s7" d="m75.7 23.1l7.5 8.6l-7.5 4.4z" />
		<path id="Layer" class="s8" d="m75.7 36.1l-7.5-4.4l7.5-8.6z" />
		<path id="Layer" class="s8" d="m12.8 40.5c2.2-1.7 4.9-2.6 7.7-2.7l-3.1 3.6l-4.6-0.9z" />
		<path id="Layer" class="s4" d="m20.4 37.8c3.6 0 6.9 1.3 9.5 3.7c2.5 2.5 3.9 5.8 4 9.3c0.1 3.5-1.3 6.9-3.7 9.4c-2.4 2.5-5.7 4-9.2 4.1c-0.1 0-5-1.9-7.2-8.2q0-0.2-0.1-0.4c-1.5-4.6-0.3-9.7 2.9-13.4l3.9-4.5z" />
		<path id="Layer" fill-rule="evenodd" class="s2" d="m17.4 41.4l-0.8 0.9c-3.2 3.7-4.4 8.8-2.9 13.4q0.1 0.2 0.1 0.4c2.2 6.3 7.1 8.2 7.2 8.2c-2.8 0-5.6-0.8-7.9-2.4c-2.3-1.6-4-3.9-4.9-6.5c-0.9-2.7-1-5.5-0.2-8.2c0.9-2.7 2.5-5.1 4.8-6.7zm3-3.6c2.9 0 5.6 0.8 7.9 2.4c2.3 1.6 4 3.9 4.9 6.6c0.9 2.6 1 5.5 0.1 8.2c-0.8 2.7-2.5 5-4.7 6.7c0-0.1 2.7-4.6 0.6-10.9q-0.1-0.2-0.1-0.3c-1.7-4.6-5.8-8-10.6-8.9l-1.1-0.2z" />
		<path id="Layer" class="s4" d="m16.9 41l-3.8-0.8q1.4-1 3-1.6z" />
		<path id="Layer" class="s8" d="m17.3 42l7.4 21.7q-1.5 0.4-3.1 0.6c-0.7-0.4-5.5-2.6-7.5-8.3q0-0.2-0.1-0.4c-1.4-4.5-0.3-9.5 2.8-13.1z" />
		<path id="Layer" class="s13" d="m20.3 64.3q0.1 0 0.3 0c-2.7 0-5.4-0.9-7.6-2.5c-2.3-1.6-3.9-3.9-4.8-6.4q-0.1-0.4-0.2-0.7q-0.6-5.4 1.7-8.8c2-3 5.4-3.9 6.9-4.1l-0.3 0.3c-3.3 3.8-4.4 9-2.9 13.7q0.1 0.2 0.1 0.4c1.6 4.6 5 7.1 6.8 8.1z" />
		<path id="Layer" class="s11" d="m33.7 53.8c-0.5 2.3-1.6 4.4-3.3 6.2q-0.2 0.2-0.4 0.4l-0.1 0.1q-0.1 0.2-0.3 0.4h-0.1q-0.1 0.1-0.2 0.2c1.3-3.3 1.4-7 0.2-10.4q-0.1-0.2-0.1-0.4c-1.7-4.6-5.8-8.1-10.8-9l-0.4-0.1c1.4-0.7 4.6-2.1 8.1-1q3.8 1.2 6.7 5.9q0.1 0.3 0.2 0.7c0.8 2.2 0.9 4.6 0.5 7z" />
		<path id="Layer" class="s6" d="m8 54.7c-0.5-1.7-0.7-3.5-0.4-5.3c0.2-1.4 0.8-2.7 1.6-3.8c1.8-2.7 4.6-3.8 6.4-4.2l1.2 0.2l-0.2 0.2c-1.5 0.2-4.9 1.1-7 4.1q-2.3 3.4-1.6 8.8zm22-13.1c1.3 1.3 2.3 2.8 3 4.5q-2.9-4.7-6.7-5.9c-3.5-1.1-6.7 0.3-8.1 1h-0.2l0.7-0.9c1.7-0.8 4.6-1.7 7.7-0.7c1.3 0.5 2.5 1.1 3.6 2zm-13.1-0.6l-0.8-2.4q0.2 0 0.3-0.1q0.1 0 0.3 0l0.8 2.3l-0.2 0.2zm0.9 0.8l7.4 21.7q-0.1 0.1-0.3 0.1q-0.1 0.1-0.3 0.1l-7.4-21.7l0.2-0.2z" />
		<path id="Layer" class="s6" d="m29.5 50.7c1.2 3.4 1.1 7.1-0.2 10.4q-0.5 0.5-1.1 0.9l0.1-0.1c0-0.1 2.7-4.8 0.6-11q0-0.2-0.1-0.3c-1.6-4.4-5.6-7.8-10.3-8.7l-1-0.2l-0.7 0.8c-3.1 3.6-4.2 8.6-2.8 13.1q0.1 0.2 0.1 0.4c2 5.7 6.8 7.9 7.6 8.3q-0.4 0-0.7 0q-0.3 0-0.7 0c-1.8-1-5.2-3.5-6.8-8.1q0-0.2-0.1-0.4c-1.5-4.7-0.4-9.9 2.9-13.7l0.5-0.5l-4.4-0.9q0.2-0.1 0.4-0.2q0.1-0.2 0.3-0.3l4.2 0.8l2.7-3.2q0.2 0 0.5 0q0.2 0 0.3 0l-2.8 3.4l0.6 0.1c5 0.9 9.1 4.4 10.8 9q0 0.2 0.1 0.4z" />
		<path id="Layer" class="s6" d="m13.7 42.6c-0.4-1.1 0.9-2.7 2.9-3.4c2.1-0.6 4-0.3 4.4 0.9c0.4 1.2-0.9 2.7-2.9 3.4c-2 0.7-4 0.3-4.4-0.9z" />
		<path id="Layer" class="s14" d="m15.4 42c-0.2-0.6 0.5-1.4 1.6-1.8c1.1-0.3 2.1-0.1 2.3 0.5c0.3 0.6-0.4 1.4-1.5 1.8c-1.1 0.4-2.2 0.2-2.4-0.5z" />
		<path id="Layer" class="s4" d="m57.2 57.7c0 0-3 14-3 14.2c-0.3 1-1 2-2.4 2.7c-3.2 1.9-8.4 1.9-11.6 0c-1.4-0.8-2.1-1.8-2.3-2.8c-0.1-0.2-3.1-14.5-3.1-14.5z" />
		<path id="Layer" class="s14" d="m42.3 71.5c-2.9 0-5.4-1-7.1-3c-1.8-2-2.6-4.8-2.1-7.8c0.4-3.1 2.1-6 4.6-8.2l0.5 0.5c-2.4 2.1-4 4.9-4.4 7.8c-0.4 2.8 0.3 5.4 2 7.2c1.6 1.9 4.1 2.9 7 2.8v0.7q-0.3 0-0.5 0z" />
		<path id="Layer" class="s5" d="m57.3 56.1v2.2c0 1.6-1.1 3.3-3.3 4.6c-4.4 2.5-11.6 2.5-16 0c-2.2-1.3-3.3-3-3.3-4.6c0-1.7 0.1-2.2 0.1-2.2z" />
		<path id="Layer" class="s6" d="m34.7 56.1c0-3.6 5.1-6.5 11.3-6.5c6.3 0 11.3 2.9 11.3 6.5c0 3.6-5 6.5-11.3 6.5c-6.2 0-11.3-2.9-11.3-6.5z" />
		<path id="Layer" class="s14" d="m35.9 56.1c0-3.1 4.5-5.7 10.1-5.7c5.6 0 10.2 2.6 10.2 5.7c0 3.1-4.6 5.6-10.2 5.6c-5.6 0-10.1-2.5-10.1-5.6z" />
		<path id="Layer" class="s11" d="m46 53.1c2.6 0 8 6 8.3 6.2q-0.5 0.4-1.1 0.8c-4 2.2-10.4 2.2-14.3 0q-0.6-0.4-1.1-0.8c0.3-0.2 5.6-6.2 8.2-6.2z" />
		<path id="Layer" class="s14" d="m42.8 71.5q-0.2 0-0.3-0.1q-0.1-0.1-0.1-0.3q0-0.1 0.1-0.2q0.1-0.1 0.3-0.1c5.3-0.3 10.5-4.5 11.9-9.8q0 0 0.1-0.1q0 0 0.1-0.1q0.1 0 0.1 0q0.1 0 0.2 0q0 0 0.1 0q0.1 0.1 0.1 0.2q0 0 0 0.1q0.1 0.1 0 0.1c-1.5 5.6-6.9 10-12.6 10.3z" />
		<path id="Layer" class="s12" d="m47.4 58.3c0.1 0.5 0 1-0.4 1.1c-0.4 0.1-0.9-0.1-1-0.6c-0.2-0.5 0-1 0.4-1.1c0.3-0.2 0.8 0.1 1 0.6zm0.8-2.3c0.2 0.3 0.2 0.6-0.1 0.8c-0.2 0.1-0.5 0-0.7-0.3c-0.1-0.2-0.1-0.6 0.1-0.7c0.2-0.1 0.6 0 0.7 0.2zm2 2.4c0.2 0.3 0.2 0.7-0.1 0.9c-0.3 0.2-0.7 0.1-0.9-0.3c-0.2-0.3-0.1-0.7 0.1-0.9c0.3-0.2 0.7 0 0.9 0.3z" />
		<path id="Layer" class="s0" d="m64.8 72.3l-4.7 2.5c0.2 0.7-0.1 1.5-1 2.1c-0.3 0.2-6.4 3.7-6.4 3.7c-0.7 0.4-1.8 0.4-2.5 0l-4.2-2.4c-0.7-0.4-0.7-1.1 0-1.5l4.9-2.8c1.8-1.4 4.1-1.7 6.3-1.2q0.7 0.1 1.4 0.5l3.7-2.4c0.7-0.4 1.8-0.4 2.5 0c0.6 0.4 0.6 1.1 0 1.5z" />
		<path id="Layer" class="s8" d="m64.2 70.1l-7.7 4.2l-1.2-1.3l6.7-4.2c0.6-0.4 2.7-0.3 2.7-0.3v0.9q0 0.4-0.5 0.7z" />
		<path id="Layer" class="s11" d="m64.2 69.1l-7.7 4.2l-1.2-1.2l6.7-4.2c0.6-0.4 1.6-0.4 2.2 0c0.6 0.3 0.6 0.9 0 1.2z" />
		<path id="Layer" class="s9" d="m58.3 76.8l-5.4 3.1c-0.7 0.4-1.8 0.4-2.5 0l-4.2-2.5q-0.5-0.2-0.5-0.6q-0.1-0.4-0.1-0.9l6-3c1.8-1.1 6.7 0 6.7 0l1.4-0.4c0 0-0.1 1.5 0 2.2c0 0.7-0.4 1.5-1.4 2.1z" />
		<path id="Layer" class="s2" d="m57.7 75.1l-4.8 4c-0.7 0.4-1.8 0.4-2.5 0l-4.2-2.5c-0.7-0.4-0.7-1 0-1.4l4.3-3.5c1.7-1.4 4-2 6.2-1.5q0.9 0.2 1.6 0.6c1.7 1 1.8 2.6 0.4 3.6q-0.5 0.4-1 0.7z" />
		<path id="Layer" class="s9" d="m58.7 74.4q-0.5 0.4-1 0.7l-4.8 4c-0.7 0.4-1.8 0.4-2.5 0l-4.2-2.5q-0.3-0.1-0.4-0.3q0.1-0.2 0.4-0.3l5.4-3.1c1.8-1.1 4.8-1.1 6.7 0q0.6 0.3 1 0.9q-0.3 0.4-0.6 0.6z" />
		<path id="Layer" fill-rule="evenodd" class="s10" d="m55.1 70q0.8 0 1.6 0.2q0.9 0.2 1.6 0.6c1.7 1 1.8 2.5 0.4 3.6q-0.5 0.4-1 0.7l-4.8 4q-0.6 0.3-1.3 0.3q-0.6 0-1.2-0.3l-4.2-2.5c-0.7-0.4-0.7-1 0-1.4l4.3-3.5c1.3-1.1 2.9-1.7 4.6-1.7zm0 0.4c-1.6 0-3.1 0.6-4.4 1.6l-4.3 3.5v0.1q-0.3 0.1-0.4 0.3q0.1 0.2 0.4 0.4l4.2 2.4q0.5 0.3 1 0.3q0.6 0 1-0.3l4.9-3.9q0.3-0.3 0.7-0.6l0.2-0.1c0.6-0.4 0.9-0.9 0.9-1.4c-0.1-0.6-0.5-1.1-1.2-1.6q-0.7-0.3-1.5-0.5q-0.7-0.2-1.5-0.2z" />
		<path id="Layer" class="s2" d="m51.2 79.3q0.2 0.1 0.4 0.1q0.5 0 1-0.2v0.8q-0.7 0.2-1.4 0.1z" />
		<path id="Layer" class="s11" d="m55 75.7c-0.1 0.4-0.4 0.8-0.9 1.2c-1.2 0.6-3.1 0.6-4.2 0c-0.6-0.4-0.9-0.8-0.9-1.2c0-0.4 2.2-3.1 3-3.1c0.7 0 3 2.7 3 3.1z" />
		<path id="Layer" class="s12" d="m51.1 74.9c-0.1 0.2-0.3 0.4-0.5 0.3c-0.1-0.1-0.1-0.3 0-0.6c0.1-0.2 0.3-0.3 0.4-0.2c0.2 0.1 0.2 0.3 0.1 0.5zm0.9-0.8c0 0.1-0.1 0.2-0.2 0.2q-0.1-0.1-0.1-0.2q-0.1 0 0-0.1c0-0.1 0.1-0.2 0.2-0.2c0.1 0 0.1 0.1 0.1 0.3z" />
		<path id="Layer" class="s0" d="m61.2 73.4c0-4.3 6-7.7 13.4-7.7c7.3 0 13.3 3.4 13.3 7.7c0 4.2-6 7.7-13.3 7.7c-7.4 0-13.4-3.5-13.4-7.7z" />
		<path id="Layer" class="s8" d="m86.7 70.6v1.9c0 1.8-1.2 3.6-3.6 5c-4.7 2.7-12.4 2.7-17.1 0c-2.4-1.4-3.6-3.2-3.6-5v-1.8z" />
		<path id="Layer" class="s11" d="m62.4 70.6c0-3.9 5.4-7 12.2-7c6.7 0 12.1 3.1 12.1 7c0 3.9-5.4 7-12.1 7c-6.8 0-12.2-3.1-12.2-7z" />
		<path id="Layer" class="s4" d="m86 61.1v8.7c0 1.7-1.2 3.4-3.4 4.7c-4.4 2.5-11.7 2.5-16.1 0c-2.2-1.3-3.3-3-3.3-4.7v-8.5z" />
		<path id="Layer" class="s2" d="m78.4 76c-2.6 0.5-5.1 0.5-7.6 0l3.7-14.8h0.1zm-14.4-3.8l2.7-11h0.2l3.7 14.7q-2.1-0.4-4-1.5q-1.8-1-2.6-2.2zm14.6 3.8l3.8-14.9h0.1l2.8 11.1q-0.9 1.2-2.6 2.2q-1.9 1.1-4.1 1.6z" />
		<path id="Layer" class="s8" d="m86.7 58.7v1.9c0 1.8-1.2 3.6-3.6 4.9c-4.7 2.8-12.4 2.8-17.1 0c-2.4-1.3-3.6-3.1-3.6-4.9v-1.8z" />
		<path id="Layer" class="s11" d="m62.4 58.7c0-3.9 5.4-7 12.2-7c6.7 0 12.1 3.1 12.1 7c0 3.8-5.4 7-12.1 7c-6.8 0-12.2-3.2-12.2-7z" />
		<path id="Layer" class="s6" d="m63.8 58.7c0-3.3 4.8-6 10.8-6c5.9 0 10.7 2.7 10.7 6c0 3.3-4.8 5.9-10.7 5.9c-6 0-10.8-2.6-10.8-5.9z" />
		<path id="Layer" class="s14" d="m69.9 59.8q-0.1 0-0.2-0.1q-0.1-0.1-0.1-0.2q0-0.1 0-0.2q0-0.1 0.1-0.2l10.2-10.2q0.1-0.1 0.2-0.1q0-0.1 0.1-0.1q0.1 0 0.1 0.1q0.1 0 0.2 0.1q0 0 0.1 0.1q0 0 0 0.1q0 0.1 0 0.2q-0.1 0-0.1 0.1l-10.3 10.2q0 0.1-0.1 0.1q-0.1 0.1-0.2 0.1z" />
		<path id="Layer" class="s1" d="m68.6 59.4c0-0.8 0.6-1.4 1.3-1.4c0.8 0 1.4 0.6 1.4 1.4c0 0.7-0.6 1.3-1.4 1.3c-0.7 0-1.3-0.6-1.3-1.3z" />
		<path id="Layer" class="s4" d="m68.6 59.4q0-0.3 0.1-0.6q0.2-0.3 0.4-0.5q0.3-0.2 0.6-0.2q0.3-0.1 0.6 0q0.2 0.1 0.3 0.4q0.1 0.2 0 0.4q0 0.3-0.1 0.5q-0.1 0.2-0.3 0.3q-0.2 0.2-0.4 0.2q-0.2 0.1-0.5 0.1q-0.2-0.1-0.4-0.2q-0.2-0.2-0.3-0.4q0 0 0 0z" />
		<path id="Layer" class="s14" d="m79.5 59.8q-0.1 0-0.2-0.2l-10.3-10.2q-0.1-0.1-0.1-0.3q0-0.1 0.1-0.2q0.1-0.1 0.3-0.2q0.1 0 0.2 0.2l10.3 10.2q0.1 0.1 0.1 0.2q0 0.1 0 0.2q-0.1 0.1-0.2 0.2q-0.1 0.1-0.2 0.1z" />
		<path id="Layer" class="s1" d="m78.2 59.4c0-0.8 0.6-1.4 1.3-1.4c0.8 0 1.4 0.6 1.4 1.4c0 0.7-0.6 1.3-1.4 1.3c-0.7 0-1.3-0.6-1.3-1.3z" />
		<path id="Layer" class="s4" d="m78.6 58.4c0.2-0.2 0.6-0.4 0.9-0.4q0.2 0 0.4 0.1q0.2 0.1 0.2 0.4q0.1 0.2 0.1 0.4q0 0.3-0.1 0.5q-0.1 0.2-0.3 0.3q-0.2 0.2-0.4 0.2q-0.2 0.1-0.5 0.1q-0.2-0.1-0.4-0.2q-0.2-0.2-0.3-0.4q0 0 0 0c0-0.4 0.1-0.7 0.4-1z" />
		<path id="Layer" class="s0" d="m17.8 68.6c-7.1-4.1-12.2-8.6-11.4-10c0.8-1.4 7.2 0.9 14.3 5c7.2 4.1 12.3 8.6 11.5 9.9c-0.8 1.4-7.2-0.8-14.4-4.9z" />
		<path id="Layer" class="s9" d="m14.9 54.6q0.1 0 0.1 0l0.7 0.4q0 0 0 0.3q0 0.1 0 0.3l-2.1 3.5l-2.3-1.8l3.4-2.7q0.1 0 0.2 0z" />
		<path id="Layer" class="s2" d="m14.9 54.3q0.1 0 0.1 0l0.5 0.3q0.1 0 0.1 0.1q0.1 0.1 0.1 0.2q0.1 0.1 0 0.2q0 0.1 0 0.2l-2.1 3.1l-2.3-1.3l3.4-2.7q0.1-0.1 0.2-0.1z" />
		<path id="Layer" class="s8" d="m26.1 59.3l7.2-4.9h0.9c0.1 0.4 0 0.9-0.2 1.2l-9.6 10.2l-5.1-3.3z" />
		<path id="Layer" class="s11" d="m30.8 54.3c2.3-1.7 4.1-0.2 3.2 0.9l-9.6 9.8l-5.1-2.9z" />
		<path id="Layer" class="s4" d="m30.6 69c0.6 1.2-0.9 1.8-2.2 1.4c-3.8-1.1-6.9-2.2-10.1-4.5l-8.9-6.8c-0.9-0.6-3.1-3.5-2.4-3.9c0.5-0.3 3.3 1.2 3.8 1.4l14.6 6.6c2.8 1.6 2.4 2.6 3.2 3.6c0.6 0.6 1.6 1.5 2 2.2z" />
		<path id="Layer" class="s10" d="m9.7 56.4v-3.9q0.1 0 0.2-0.1q0.1 0 0.2 0q0.1 0 0.2 0l0.4 0.3q0.4 0.2 0.6 0.7l0.7 2.1q0.4 1 0.9 1.9l1.5 1.8l-0.3 0.1c0 0-2.4-1.3-3.3-1.9c-0.6-0.3-1.1-1-1.1-1z" />
		<path id="Layer" class="s8" d="m22.5 66.6v0.6l-17.1 5.2c-0.5 0.2-2.4 0.3-2.8-0.5v-0.4l1.3 0.3l7.9-3.9l5.6-3.9l4.8 2.7z" />
		<path id="Layer" class="s9" d="m5.3 60.2q0-0.1 0-0.1q-0.1-0.1-0.1-0.1v-0.2l0.1 0.1l0.4 0.3q0.4 0.2 0.7 0.1l5.4-0.8v0.4c0 0-5.1 0.6-5.4 0.7q-0.3 0-0.6-0.2z" />
		<path id="Layer" class="s2" d="m5.3 59.7l4.2-1.6l2.3 1.4l-5.4 0.8q-0.3 0.1-0.6-0.1l-0.5-0.3q0 0-0.1 0q0-0.1 0-0.1q0 0 0 0q0.1 0 0.1-0.1z" />
		<path id="Layer" class="s11" d="m17.4 63.6l5.1 3l-17.1 5.5c-1.8 0.6-4.5-0.5-1.4-1.8z" />
		<path id="Layer" class="s6" d="m25.7 66.4c-0.1-0.4 0-0.9 0.3-1.1l0.9-0.5q0.2-0.2 0.4-0.1q0.3 0.3 0.6 0.8q0 0.2-0.1 0.4q-0.1 0.2-0.3 0.3l-0.9 0.6c-0.4 0.2-0.7 0-0.9-0.4z" />
		<path id="Layer" class="s2" d="m9.4 56.5v-3.6q0-0.1 0.1-0.2q0-0.1 0.1-0.2q0.1 0 0.3 0q0.1 0 0.2 0.1l0.3 0.2q0.4 0.2 0.6 0.7l0.8 2.2q0.3 0.9 0.8 1.8l1.5 1.8q-0.2 0-0.4-0.1c-0.3-0.1-2.2-1.1-3.2-1.7c-0.5-0.3-1.1-1-1.1-1z" />
		<path id="Layer" class="s14" d="m26.8 74.6c-0.3-0.1-0.3-0.6 0-1l5-8.7c0.2-0.4 0.6-0.6 0.9-0.5q0 0 0 0l0.2 0.1l-5.9 10.3c0 0 0 0-0.2-0.2z" />
		<path id="Layer" class="s14" d="m26.8 67.8c0.2-0.4 0.6-0.6 0.9-0.5l5 2.9c0.3 0.1 0.3 0.6 0 1c-0.2 0.4-0.6 0.7-0.9 0.5l-5-2.8c-0.3-0.2-0.3-0.6 0-1.1z" />
		<path id="Layer" class="s15" d="m27 74.7c-0.2-0.1-0.2-0.6 0-1l5-8.7c0.3-0.4 0.7-0.6 0.9-0.5c0.3 0.2 0.3 0.6 0 1l-5 8.7c-0.2 0.4-0.6 0.7-0.9 0.5z" />
		<path id="Layer" class="s15" d="m27 67.9c0.3-0.4 0.7-0.6 0.9-0.5l5 2.9c0.3 0.1 0.3 0.6 0 1c-0.2 0.4-0.6 0.7-0.9 0.5l-5-2.8c-0.2-0.2-0.2-0.6 0-1.1z" />
		<path id="Layer" class="s5" d="m30.7 70.1c-0.1 0.2-1 0.4-1.2 0.4q-0.2-0.1-0.2-0.5q0-0.3 0.2-0.6q0.2-0.3 0.5-0.5q0.3-0.2 0.5-0.1c0.1 0.1 0.3 1 0.2 1.3z" />
	</g>
</svg>