<svg version="1.2" xmlns="http://www.w3.org/2000/svg" viewBox="0 0 90 90" width="90" height="90">
	<title>New Project</title>
	<style>
		.s0 { opacity: .1;fill: #000000 } 
		.s1 { fill: #119a72 } 
		.s2 { fill: #23c190 } 
		.s3 { fill: #ff590e } 
		.s4 { fill: #f62121 } 
		.s5 { fill: #009573 } 
		.s6 { fill: #17a984 } 
		.s7 { fill: #143684 } 
		.s8 { fill: #008461 } 
	</style>
	<g id="Folder 1">
		<path id="Layer" class="s0" d="m34.9 53.2c0.2-0.3 0.5-0.5 0.9-0.6c0.1-0.5 0.7-0.9 1.5-1q0.5 0 1 0.2c0.4-0.6 1.2-1 2.2-1c1.2 0 2.2 0.7 2.3 1.6c1.7 0.9 1.7 2.4 0 3.3c-1.2 0.7-2.9 0.9-4.4 0.6q-0.5 0.1-1.1 0.1c-1.8 0-3.2-0.8-3.2-1.9c0-0.5 0.3-0.9 0.8-1.3z" />
		<path id="Layer" class="s0" d="m43.3 59.5c-1.6 0-2.8-0.7-2.8-1.6c0-0.9 1.2-1.6 2.8-1.6c1.6 0 2.9 0.7 2.9 1.6c0 0.9-1.3 1.6-2.9 1.6z" />
		<path id="Layer" class="s1" d="m39.9 55.9c-2.2 0-4.1-1-4.1-2.4c0-1.3 1.9-2.3 4.1-2.3c2.3 0 4.2 1 4.2 2.3c0 1.4-1.9 2.4-4.2 2.4z" />
		<path id="Layer" class="s1" d="m40.6 54c-1.3 0-2.4-0.9-2.4-1.9c0-1 1.1-1.9 2.4-1.9c1.3 0 2.3 0.9 2.3 1.9c0 1-1 1.9-2.3 1.9z" />
		<path id="Layer" class="s1" d="m37.4 55.9c-1.7 0-3.1-0.9-3.1-1.9c0-1.1 1.4-1.9 3.1-1.9c1.8 0 3.2 0.8 3.2 1.9c0 1-1.4 1.9-3.2 1.9z" />
		<path id="Layer" class="s2" d="m37.6 53.5c-0.9 0-1.7-0.5-1.7-1.2c0-0.7 0.8-1.2 1.7-1.2c0.9 0 1.6 0.5 1.6 1.2c0 0.7-0.7 1.2-1.6 1.2z" />
		<path id="Layer" class="s2" d="m35 53.1c0-0.5 0.6-1 1.5-1.1c0.9-0.1 1.6 0.2 1.7 0.7c0.1 0.5-0.6 1-1.5 1.1c-0.8 0.1-1.6-0.2-1.7-0.7z" />
		<path id="Layer" class="s3" d="m43.3 56.6q0.6 0 1.2 0.3c0.6 0.4 0.6 1 0 1.4q-0.6 0.3-1.2 0.3q-0.6 0-1.2-0.3c-0.6-0.4-0.6-1 0-1.4q0.6-0.3 1.2-0.3z" />
		<path id="Layer" class="s4" d="m42.3 16.6h2.1l0.6 41h-3.3z" />
		<path id="Layer" fill-rule="evenodd" class="s4" d="m37 27.2l0.4-1l5.9 9.6q0.1 0.3 0 0.6q-0.1 0.2-0.2 0.3q-0.1 0.1-0.3 0.1zm13.3-2.8l-0.5-1.1l-6.6 11.2q-0.1 0.3 0 0.7q0.1 0.2 0.2 0.3q0.1 0.1 0.3 0.1z" />
		<path id="Layer" class="s5" d="m40.8 18.4c-4 0-7.3-3.7-7.3-8.1c0-4.5 3.3-8.1 7.3-8.1c4 0 7.3 3.6 7.3 8.1c0 4.4-3.3 8.1-7.3 8.1z" />
		<path id="Layer" class="s5" d="m43.7 27.6c-6.5 0-11.8-4.3-11.8-9.6c0-5.4 5.3-9.7 11.8-9.7c6.5 0 11.8 4.3 11.8 9.7c0 5.3-5.3 9.6-11.8 9.6z" />
		<path id="Layer" class="s5" d="m36.7 21.2c-3.8 0-7-2.8-7-6.2c0-3.3 3.2-6.1 7-6.1c3.9 0 7 2.8 7 6.1c0 3.4-3.1 6.2-7 6.2z" />
		<path id="Layer" class="s5" d="m50 27.2c-3.6 0-6.6-2.7-6.6-6c0-3.3 3-6 6.6-6c3.7 0 6.6 2.7 6.6 6c0 3.3-2.9 6-6.6 6z" />
		<path id="Layer" class="s5" d="m42.3 26.3c-4.7 0-8.4-3.4-8.4-7.7c0-4.2 3.7-7.6 8.4-7.6c4.7 0 8.4 3.4 8.4 7.6c0 4.3-3.7 7.7-8.4 7.7z" />
		<path id="Layer" class="s6" d="m40.9 7.4c0.7-0.8 1.6-1.4 2.5-1.8c0.9-0.4 1.9-0.6 3-0.6c3.8 0 6.9 2.9 6.9 6.4c0 3.5-3.1 6.3-6.9 6.3c-1.1 0-2.1-0.2-3.1-0.6q-0.3 0-0.7 0c-3 0-5.5-2.2-5.5-5c0-2.2 1.6-4 3.8-4.7zm-11.4 16.1c0-1.1 0.7-2 1.7-2.2c0.1-1.7 1.6-2.9 3.4-2.9c1.4 0 2.7 0.8 3.1 2c1.6 0.6 2.8 2.1 2.8 3.8c0 2.2-2 4.1-4.5 4.1c-1.8 0-3.5-1.1-4.1-2.5c-1.4-0.1-2.4-1.1-2.4-2.3z" />
		<path id="Layer" class="s0" d="m23.3 61.5c1.8-1 4.7-1 6.4 0c1.8 1 1.8 2.7 0 3.7c-1.7 1-4.6 1-6.4 0c-1.8-1-1.8-2.7 0-3.7z" />
		<path id="Layer" class="s7" d="m27.9 63.1c0 0.4-0.4 0.5-0.6 0.6c-0.4 0.2-1.3 0.2-1.7 0c-0.2-0.1-0.5-0.4-0.5-0.6v-18.6l2.8 2.3c0 0 0 15.2 0 16.3z" />
		<path id="Layer" class="s5" d="m26.5 28.1c0 0 6.1 18.4 7.9 24.6c0.4 1.1-0.4 2.3-2.2 3.2c-3.2 1.5-8.2 1.5-11.3 0c-1.9-0.9-2.6-2.1-2.3-3.2c1.9-6.2 7.9-24.6 7.9-24.6z" />
		<path id="Layer" class="s6" d="m26.5 56.5c-2.1 0-4.1-0.4-5.6-1.1c-1.6-0.8-2.5-2-2.1-3.1c1.6-5.5 6.8-21.1 7.7-24.1c1 3 6.1 18.6 7.8 24.1c0.3 1.1-0.5 2.3-2.2 3.1c-1.5 0.7-3.5 1.1-5.6 1.1z" />
		<path id="Layer" class="s5" d="m26.5 24c0 0 4.7 14.2 6.1 18.9c0.3 0.9-0.3 1.9-1.7 2.5c-2.4 1.2-6.3 1.2-8.7 0c-1.4-0.6-2-1.6-1.8-2.4c1.5-4.8 6.1-19 6.1-19z" />
		<path id="Layer" class="s6" d="m26.5 45.8c-1.6 0-3.1-0.3-4.2-0.9c-1.3-0.6-1.9-1.5-1.7-2.3c1.3-4.2 5.1-15.9 5.9-18.4c0.8 2.5 4.7 14.2 5.9 18.4c0.3 0.8-0.3 1.7-1.6 2.3c-1.1 0.6-2.7 0.9-4.3 0.9z" />
		<path id="Layer" class="s5" d="m26.5 20.4c0 0 3.6 10.9 4.7 14.5c0.2 0.7-0.3 1.4-1.3 1.9c-1.9 0.9-4.9 0.9-6.7 0c-1.1-0.5-1.6-1.2-1.4-1.9c1.1-3.6 4.7-14.5 4.7-14.5z" />
		<path id="Layer" class="s6" d="m23.3 36.3c-1-0.5-1.5-1.1-1.3-1.7c1-3.2 3.8-11.9 4.5-14.1c0.7 2.2 3.6 10.9 4.5 14.1c0.2 0.6-0.2 1.2-1.2 1.7c-0.9 0.4-2 0.7-3.3 0.7c-1.2 0-2.4-0.3-3.2-0.7z" />
		<path id="Layer" class="s0" d="m51.8 47.7c1.6-0.9 4.1-0.9 5.7 0c1.6 0.9 1.6 2.4 0 3.3c-1.6 0.9-4.1 0.9-5.7 0c-1.6-0.9-1.6-2.4 0-3.3z" />
		<path id="Layer" class="s7" d="m55.9 49.1c0 0.4-0.4 0.5-0.5 0.6c-0.5 0.1-1.1 0.1-1.6-0.1c-0.1-0.1-0.4-0.3-0.4-0.5v-16.4l2.5 2.1c0 0-0.1 13.4 0 14.3z" />
		<path id="Layer" class="s5" d="m54.7 18.3c0 0 5.3 16.2 6.9 21.6c0.3 1-0.4 2.1-2 2.9c-2.7 1.3-7.2 1.3-9.9 0c-1.6-0.8-2.3-1.9-2-2.9c1.6-5.4 7-21.6 7-21.6z" />
		<path id="Layer" class="s6" d="m49.7 42.3c-1.4-0.7-2.2-1.7-1.9-2.7c1.5-4.8 6-18.6 6.9-21.2c0.8 2.6 5.3 16.4 6.8 21.2c0.3 1-0.5 2-1.9 2.7c-1.3 0.7-3.1 1-4.9 1c-1.9 0-3.6-0.3-5-1z" />
		<path id="Layer" class="s5" d="m54.7 14.7c0 0 4 12.5 5.3 16.7c0.2 0.7-0.3 1.6-1.5 2.2c-2.1 1-5.6 1-7.7 0c-1.2-0.6-1.7-1.5-1.5-2.2c1.3-4.2 5.4-16.7 5.4-16.7z" />
		<path id="Layer" class="s6" d="m50.9 33.1c-1.1-0.5-1.7-1.3-1.5-2c1.2-3.7 4.5-14 5.3-16.2c0.7 2.2 4 12.5 5.2 16.2c0.2 0.7-0.4 1.5-1.5 2c-1 0.5-2.3 0.8-3.7 0.8c-1.5 0-2.8-0.3-3.8-0.8z" />
		<path id="Layer" class="s5" d="m54.7 11.5c0 0 3.1 9.6 4.1 12.8c0.1 0.6-0.3 1.2-1.2 1.7c-1.6 0.8-4.3 0.8-5.9 0c-0.9-0.5-1.3-1.1-1.2-1.7c1-3.2 4.2-12.8 4.2-12.8z" />
		<path id="Layer" class="s6" d="m54.7 26.1c-1.1 0-2.2-0.2-2.9-0.6c-0.9-0.4-1.3-1-1.1-1.5c0.8-2.8 3.3-10.5 4-12.4c0.6 1.9 3.1 9.6 3.9 12.4c0.2 0.5-0.2 1.1-1.1 1.5c-0.7 0.4-1.8 0.6-2.8 0.6z" />
		<path id="Layer" class="s0" d="m64.6 54.3c1-0.6 2.6-0.6 3.6 0c1 0.6 1 1.5 0 2.1c-1 0.5-2.6 0.5-3.6 0c-1-0.6-1-1.5 0-2.1z" />
		<path id="Layer" class="s7" d="m67.2 55.2c0 0.2-0.2 0.3-0.3 0.3c-0.4 0.1-0.7 0.1-1 0c-0.1 0-0.3-0.2-0.3-0.3v-10.4l1.6 1.3c0 0 0 8.5 0 9.1z" />
		<path id="Layer" class="s5" d="m66.4 35.7c0 0 3.4 10.2 4.4 13.7c0.2 0.6-0.2 1.3-1.2 1.8c-1.8 0.8-4.6 0.8-6.3 0c-1.1-0.5-1.5-1.2-1.3-1.8c1-3.5 4.4-13.7 4.4-13.7z" />
		<path id="Layer" class="s6" d="m66.4 51.5c-1.2 0-2.3-0.2-3.1-0.6c-0.9-0.5-1.4-1.1-1.2-1.7c0.9-3.1 3.8-11.8 4.3-13.4c0.5 1.6 3.4 10.3 4.3 13.4c0.2 0.6-0.2 1.2-1.2 1.7c-0.8 0.4-1.9 0.6-3.1 0.6z" />
		<path id="Layer" class="s5" d="m66.4 33.4c0 0 2.6 7.9 3.4 10.6c0.1 0.4-0.2 1-1 1.3c-1.3 0.7-3.5 0.7-4.8 0c-0.8-0.3-1.1-0.9-1-1.3c0.8-2.7 3.4-10.6 3.4-10.6z" />
		<path id="Layer" class="s6" d="m66.4 45.5q-1.2 0-2.4-0.5c-0.7-0.3-1-0.8-0.9-1.2c0.7-2.4 2.9-8.9 3.3-10.3c0.5 1.4 2.6 7.9 3.3 10.3c0.1 0.4-0.2 0.9-0.9 1.2q-1.1 0.5-2.4 0.5z" />
		<path id="Layer" class="s5" d="m66.4 31.4c0 0 2 6 2.6 8.1c0.1 0.4-0.1 0.8-0.7 1c-1.1 0.5-2.7 0.5-3.8 0c-0.6-0.2-0.8-0.6-0.7-1c0.6-2.1 2.6-8.1 2.6-8.1z" />
		<path id="Layer" class="s6" d="m64.6 40.3c-0.6-0.3-0.8-0.7-0.7-1c0.5-1.8 2.1-6.7 2.5-7.8c0.4 1.1 2 6 2.5 7.8c0.1 0.3-0.1 0.7-0.7 1q-0.8 0.3-1.8 0.3q-0.9 0-1.8-0.3z" />
		<path id="Layer" class="s0" d="m42.4 88.5c-4.7 0-8.6-2.2-8.6-4.9c0-2.7 3.9-4.9 8.6-4.9c4.8 0 8.6 2.2 8.6 4.9c0 2.7-3.8 4.9-8.6 4.9z" />
		<path id="Layer" class="s8" d="m42.4 87c-4.5 0-8.1-2.1-8.1-4.6c0-2.6 3.6-4.6 8.1-4.6c4.5 0 8.1 2 8.1 4.6c0 2.5-3.6 4.6-8.1 4.6z" />
		<path id="Layer" class="s1" d="m44.2 84.6c-1.5 0-2.8-1-2.8-2.2c0-1.3 1.3-2.3 2.8-2.3c1.5 0 2.8 1 2.8 2.3c0 1.2-1.3 2.2-2.8 2.2z" />
		<path id="Layer" class="s1" d="m40.7 84.4c-2.9 0-5.2-1.9-5.2-4.3c0-2.4 2.3-4.3 5.2-4.3c2.9 0 5.3 1.9 5.3 4.3c0 2.4-2.4 4.3-5.3 4.3z" />
		<path id="Layer" class="s1" d="m44.8 83.6c-2.3 0-4.1-1.5-4.1-3.4c0-1.8 1.8-3.3 4.1-3.3c2.2 0 4 1.5 4 3.3c0 1.9-1.8 3.4-4 3.4z" />
		<path id="Layer" class="s0" d="m27.1 82.4c-3.1 0-5.6-1.4-5.6-3.2c0-1.8 2.5-3.2 5.6-3.2c3.1 0 5.6 1.4 5.6 3.2c0 1.8-2.5 3.2-5.6 3.2z" />
		<path id="Layer" class="s6" d="m27.1 81.4c-2.9 0-5.3-1.3-5.3-3c0-1.6 2.4-3 5.3-3c2.9 0 5.3 1.4 5.3 3c0 1.7-2.4 3-5.3 3z" />
		<path id="Layer" class="s6" d="m24.7 78.9c-1.5 0-2.6-1-2.6-2.2c0-1.3 1.1-2.3 2.6-2.3c1.4 0 2.6 1 2.6 2.3c0 1.2-1.2 2.2-2.6 2.2z" />
		<path id="Layer" class="s2" d="m26.6 78.1c-0.9-1.2-0.6-3 0.6-3.9c1.3-0.9 3.1-0.7 4 0.5c0.9 1.3 0.6 3-0.7 4c-1.2 0.9-3 0.6-3.9-0.6z" />
		<path id="Layer" class="s2" d="m28.9 79.2c-1.4 0-2.6-1-2.6-2.2c0-1.2 1.2-2.1 2.6-2.1c1.5 0 2.7 0.9 2.7 2.1c0 1.2-1.2 2.2-2.7 2.2z" />
		<path id="Layer" fill-rule="evenodd" class="s0" d="m51.3 72.9q0.3-0.3 0.7-0.4c0.1-0.4 0.5-0.7 1.1-0.7q0.4-0.1 0.8 0.1c0.3-0.5 0.8-0.8 1.5-0.8c0.9 0 1.7 0.6 1.8 1.2c1.2 0.7 1.2 1.8 0 2.5c-0.9 0.5-2.2 0.6-3.3 0.4q-0.4 0.1-0.8 0.1c-1.3 0-2.3-0.6-2.3-1.4c0-0.4 0.2-0.7 0.5-1zm7.7 2.6c0.8 0.5 0.8 1.3 0 1.7c-0.8 0.5-2.1 0.5-3 0c-0.8-0.4-0.8-1.2 0-1.7c0.9-0.4 2.2-0.4 3 0z" />
		<path id="Layer" class="s1" d="m57.2 71.9c1.2 0.7 1.2 1.8 0 2.5c-1.2 0.7-3.1 0.7-4.3 0c-1.2-0.7-1.2-1.8 0-2.5c1.2-0.6 3.1-0.6 4.3 0z" />
		<path id="Layer" class="s1" d="m55.5 73.5c-1 0-1.7-0.6-1.7-1.4c0-0.7 0.7-1.3 1.7-1.3c0.9 0 1.7 0.6 1.7 1.3c0 0.8-0.8 1.4-1.7 1.4z" />
		<path id="Layer" class="s1" d="m53.2 74.9c-1.2 0-2.3-0.6-2.3-1.4c0-0.8 1.1-1.4 2.3-1.4c1.3 0 2.3 0.6 2.3 1.4c0 0.8-1 1.4-2.3 1.4z" />
		<path id="Layer" class="s1" d="m54.5 72.1c0 0.5-0.4 1-1.1 1c-0.7 0.1-1.2-0.2-1.3-0.7c0-0.5 0.4-0.9 1.1-1c0.7-0.1 1.2 0.3 1.3 0.7z" />
		<path id="Layer" class="s1" d="m53.8 72.5c0 0.4-0.4 0.8-1.1 0.9c-0.6 0-1.2-0.2-1.3-0.5c0-0.4 0.5-0.8 1.1-0.9c0.6-0.1 1.2 0.2 1.3 0.5z" />
		<path id="Layer" class="s4" d="m57.5 75.5q0.5 0 0.9 0.2c0.5 0.2 0.5 0.7 0 1q-0.4 0.2-0.9 0.2q-0.4 0-0.8-0.2c-0.5-0.3-0.5-0.8 0-1q0.4-0.2 0.8-0.2z" />
		<path id="Layer" class="s4" d="m56.8 46.1h1.5l0.4 30.1h-2.4z" />
		<path id="Layer" fill-rule="evenodd" class="s4" d="m52.9 53.9l0.3-0.7l4.3 7q0.1 0.2 0 0.4q-0.1 0.1-0.2 0.2q0 0.1-0.2 0.1zm9.8-2l-0.4-0.8l-4.8 8.1q-0.1 0.3 0 0.6q0 0.1 0.1 0.2q0.1 0 0.3 0.1z" />
		<path id="Layer" class="s5" d="m55.7 47.4c-3 0-5.4-2.7-5.4-6c0-3.2 2.4-5.9 5.4-5.9c2.9 0 5.3 2.7 5.3 5.9c0 3.3-2.4 6-5.3 6z" />
		<path id="Layer" class="s5" d="m57.8 54.2c-4.8 0-8.7-3.2-8.7-7.1c0-3.9 3.9-7.1 8.7-7.1c4.8 0 8.6 3.2 8.6 7.1c0 3.9-3.8 7.1-8.6 7.1z" />
		<path id="Layer" class="s5" d="m52.7 49.5c-2.9 0-5.1-2.1-5.1-4.5c0-2.5 2.2-4.5 5.1-4.5c2.8 0 5.1 2 5.1 4.5c0 2.4-2.3 4.5-5.1 4.5z" />
		<path id="Layer" class="s5" d="m62.4 53.9c-2.6 0-4.8-2-4.8-4.4c0-2.5 2.2-4.5 4.8-4.5c2.7 0 4.9 2 4.9 4.5c0 2.4-2.2 4.4-4.9 4.4z" />
		<path id="Layer" class="s5" d="m56.8 53.2c-3.4 0-6.2-2.5-6.2-5.6c0-3.1 2.8-5.6 6.2-5.6c3.4 0 6.2 2.5 6.2 5.6c0 3.1-2.8 5.6-6.2 5.6z" />
		<path id="Layer" class="s6" d="m55.8 39.4q0.7-0.9 1.8-1.3q1-0.5 2.2-0.5c2.8 0 5.1 2.1 5.1 4.7c0 2.5-2.3 4.6-5.1 4.6q-1.2 0-2.3-0.5q-0.2 0.1-0.5 0.1c-2.2 0-4-1.7-4-3.7c0-1.6 1.1-3 2.8-3.4zm-8.4 11.7c0-0.7 0.5-1.4 1.3-1.6c0-1.2 1.1-2.1 2.4-2.1c0.5 0 1 0.1 1.4 0.4c0.4 0.2 0.7 0.6 0.9 1.1c1.2 0.4 2.1 1.5 2.1 2.8c0 1.6-1.5 3-3.3 3c-1.4 0-2.6-0.8-3.1-1.9c-1 0-1.7-0.8-1.7-1.7z" />
		<path id="Layer" class="s0" d="m29.6 71.1c0-1.6 2.7-2.8 6-2.8q1 0 2 0.1q1.2-0.2 2.5-0.2c4.2 0 7.6 1.7 7.6 3.7c0 2-3.4 3.6-7.6 3.6c-2.7 0-5-0.7-6.3-1.7c-2.5-0.3-4.2-1.4-4.2-2.7z" />
		<path id="Layer" class="s8" d="m34.6 73.2c-2.4 0-4.4-1.4-4.4-3.2c0-1.7 2-3.1 4.4-3.1c2.4 0 4.3 1.4 4.3 3.1c0 1.8-1.9 3.2-4.3 3.2z" />
		<path id="Layer" class="s8" d="m40 74.4c-4.1 0-7.5-1.9-7.5-4.2c0-2.3 3.4-4.2 7.5-4.2c4.2 0 7.5 1.9 7.5 4.2c0 2.3-3.3 4.2-7.5 4.2z" />
		<path id="Layer" class="s8" d="m37.8 71c-2.4 0-4.4-1.6-4.4-3.6c0-2 2-3.6 4.4-3.6c2.4 0 4.3 1.6 4.3 3.6c0 2-1.9 3.6-4.3 3.6z" />
		<path id="Layer" class="s8" d="m41.5 72c-2.4 0-4.3-1.6-4.3-3.6c0-1.9 1.9-3.5 4.3-3.5c2.5 0 4.4 1.6 4.4 3.5c0 2-1.9 3.6-4.4 3.6z" />
		<path id="Layer" class="s1" d="m34.3 71.1c-2 0-3.6-1-3.6-2.1c0-1.2 1.6-2.1 3.6-2.1c1.9 0 3.5 0.9 3.5 2.1c0 1.1-1.6 2.1-3.5 2.1z" />
		<path id="Layer" class="s1" d="m38.2 68.1c1.4 0 2.5 0.6 2.5 1.3c0 0.8-1 1.5-2.4 1.6c-1.3 0-2.4-0.6-2.4-1.4c-0.1-0.7 1-1.4 2.3-1.5z" />
	</g>
</svg>