<svg version="1.2" xmlns="http://www.w3.org/2000/svg" viewBox="0 0 90 90" width="90" height="90">
	<title>New Project</title>
	<defs>
		<linearGradient id="g1" x1="26.7" y1="92" x2="90.3" y2="63.6" gradientUnits="userSpaceOnUse">
			<stop offset="0" stop-color="#f1eff6"/>
			<stop offset=".7" stop-color="#4746a4" stop-opacity=".3"/>
			<stop offset="1" stop-color="#000082" stop-opacity="0"/>
		</linearGradient>
		<linearGradient id="g2" x1="79.8" y1="75.5" x2="61.1" y2="72.3" gradientUnits="userSpaceOnUse">
			<stop offset="0" stop-color="#f1eff6"/>
			<stop offset=".7" stop-color="#4746a4" stop-opacity=".3"/>
			<stop offset="1" stop-color="#000082" stop-opacity="0"/>
		</linearGradient>
		<linearGradient id="g3" x1="39.7" y1="72" x2="49.5" y2="72.2" gradientUnits="userSpaceOnUse">
			<stop offset="0" stop-color="#f1eff6"/>
			<stop offset="1" stop-color="#b6bce1" stop-opacity="0"/>
		</linearGradient>
		<linearGradient id="g4" x1="42.3" y1="66.4" x2="42.6" y2="72.8" gradientUnits="userSpaceOnUse">
			<stop offset="0" stop-color="#f1eff6"/>
			<stop offset=".7" stop-color="#4746a4" stop-opacity=".3"/>
			<stop offset="1" stop-color="#000082" stop-opacity="0"/>
		</linearGradient>
		<linearGradient id="g5" x1="38.3" y1="64" x2="38.7" y2="70.4" gradientUnits="userSpaceOnUse">
			<stop offset="0" stop-color="#f1eff6"/>
			<stop offset=".7" stop-color="#4746a4" stop-opacity=".3"/>
			<stop offset="1" stop-color="#000082" stop-opacity="0"/>
		</linearGradient>
		<linearGradient id="g6" x1="39.6" y1="79.2" x2="49.5" y2="79.5" gradientUnits="userSpaceOnUse">
			<stop offset="0" stop-color="#f1eff6"/>
			<stop offset="1" stop-color="#b6bce1" stop-opacity="0"/>
		</linearGradient>
		<linearGradient id="g7" x1="27.1" y1="79.2" x2="37" y2="79.5" gradientUnits="userSpaceOnUse">
			<stop offset="0" stop-color="#f1eff6"/>
			<stop offset="1" stop-color="#b6bce1" stop-opacity="0"/>
		</linearGradient>
		<linearGradient id="g8" x1="27.3" y1="72.3" x2="37.2" y2="72.5" gradientUnits="userSpaceOnUse">
			<stop offset="0" stop-color="#f1eff6"/>
			<stop offset="1" stop-color="#b6bce1" stop-opacity="0"/>
		</linearGradient>
		<linearGradient id="g9" x1="2.3" y1="63.2" x2="2.6" y2="69.4" gradientUnits="userSpaceOnUse">
			<stop offset="0" stop-color="#f1eff6"/>
			<stop offset=".7" stop-color="#4746a4" stop-opacity=".3"/>
			<stop offset="1" stop-color="#000082" stop-opacity="0"/>
		</linearGradient>
		<linearGradient id="g10" x1="9.3" y1="60.6" x2="9.6" y2="65.8" gradientUnits="userSpaceOnUse">
			<stop offset="0" stop-color="#f1eff6"/>
			<stop offset=".7" stop-color="#4746a4" stop-opacity=".3"/>
			<stop offset="1" stop-color="#000082" stop-opacity="0"/>
		</linearGradient>
		<linearGradient id="g11" x1="60.9" y1="41.4" x2="77.7" y2="41.4" gradientUnits="userSpaceOnUse">
			<stop offset="0" stop-color="#f1eff6"/>
			<stop offset=".7" stop-color="#4746a4" stop-opacity=".3"/>
			<stop offset="1" stop-color="#000082" stop-opacity="0"/>
		</linearGradient>
		<linearGradient id="g12" x1="43.7" y1="51.8" x2="60.4" y2="51.8" gradientUnits="userSpaceOnUse">
			<stop offset="0" stop-color="#f1eff6"/>
			<stop offset=".7" stop-color="#4746a4" stop-opacity=".3"/>
			<stop offset="1" stop-color="#000082" stop-opacity="0"/>
		</linearGradient>
		<linearGradient id="g13" x1="41.6" y1="33.7" x2="57.7" y2="33.7" gradientUnits="userSpaceOnUse">
			<stop offset="0" stop-color="#f1eff6"/>
			<stop offset=".7" stop-color="#4746a4" stop-opacity=".3"/>
			<stop offset="1" stop-color="#000082" stop-opacity="0"/>
		</linearGradient>
		<linearGradient id="g14" x1="65.1" y1="48.8" x2="80.5" y2="44.7" gradientUnits="userSpaceOnUse">
			<stop offset="0" stop-color="#f1eff6"/>
			<stop offset=".7" stop-color="#4746a4" stop-opacity=".3"/>
			<stop offset="1" stop-color="#000082" stop-opacity="0"/>
		</linearGradient>
	</defs>
	<style>
		.s0 { opacity: .5;fill: url(#g1) } 
		.s1 { opacity: .7;fill: url(#g2) } 
		.s2 { fill: url(#g3) } 
		.s3 { opacity: .7;fill: url(#g4) } 
		.s4 { opacity: .7;fill: url(#g5) } 
		.s5 { fill: url(#g6) } 
		.s6 { fill: url(#g7) } 
		.s7 { fill: url(#g8) } 
		.s8 { fill: #f8f9fe } 
		.s9 { opacity: .7;fill: url(#g9) } 
		.s10 { opacity: .7;fill: url(#g10) } 
		.s11 { fill: #4c5c75 } 
		.s12 { fill: #f5c9c6 } 
		.s13 { fill: #bf7d5a } 
		.s14 { fill: #e3e7f0 } 
		.s15 { fill: #d4daea } 
		.s16 { fill: #ffffff } 
		.s17 { fill: #1d2943 } 
		.s18 { fill: #e93565 } 
		.s19 { fill: #f45170 } 
		.s20 { fill: #f4d6d4 } 
		.s21 { fill: #aa6256 } 
		.s22 { fill: #f3f1fc } 
		.s23 { fill: #dedffb } 
		.s24 { fill: #111d33 } 
		.s25 { fill: #c9cee2 } 
		.s26 { fill: #cc104a } 
		.s27 { fill: #df3260 } 
		.s28 { fill: #e9e7fc } 
		.s29 { fill: #5ec363 } 
		.s30 { fill: #8a4852 } 
		.s31 { fill: #78e75a } 
		.s32 { fill: #72d561 } 
		.s33 { fill: #51383c } 
		.s34 { fill: #d1cfd9 } 
		.s35 { fill: #678aee } 
		.s36 { fill: #8fabfe } 
		.s37 { fill: #748bfd } 
		.s38 { opacity: .7;fill: url(#g11) } 
		.s39 { fill: #b0b8cf } 
		.s40 { opacity: .7;fill: url(#g12) } 
		.s41 { fill: #50b069 } 
		.s42 { fill: #fe90a9 } 
		.s43 { fill: #7dd17d } 
		.s44 { fill: #86ba84 } 
		.s45 { fill: #ffd06c } 
		.s46 { fill: #f3516f } 
		.s47 { fill: #dba660 } 
		.s48 { fill: #57b3fe } 
		.s49 { fill: #fa5f7f } 
		.s50 { fill: #febc1f } 
		.s51 { fill: #986ff9 } 
		.s52 { fill: #38425d } 
		.s53 { opacity: .7;fill: url(#g13) } 
		.s54 { fill: #9ea9c9 } 
		.s55 { fill: #f9cf6b } 
		.s56 { fill: url(#g14) } 
		.s57 { fill: #f1c40f } 
		.s58 { fill: #d4d6d6 } 
		.s59 { fill: #ffde9b } 
		.s60 { fill: #f1f6fa } 
	</style>
	<g id="Folder 1">
		<path id="Layer" class="s0" d="m88.4 63.5l-26.3 15.1l-2.4-0.2l27.3-15.7z" />
		<g id="Layer" style="opacity: .7">
			<path id="Layer" class="s1" d="m77.5 71.3c0.2-0.1 0.4-0.1 0.6 0l3.8 2.2c0.1 0.1 0.1 0.2 0 0.3l-8 4.6c-0.1 0.1-0.4 0.1-0.5 0l-3.8-2.2c-0.2-0.1-0.2-0.3 0-0.3z" />
		</g>
		<path id="Layer" class="s2" d="m49 71.5c1 0.4 1 1 0 1.3c-1 0.4-2.7 0.4-3.8 0c-1-0.3-1-0.9 0-1.3c1.1-0.4 2.7-0.4 3.8 0z" />
		<path id="Layer" class="s3" d="m50.8 72.4c-0.6 0.6-2.4-0.3-4-1.1l0.2-2.6c1.9 1.2 4.5 3 3.8 3.7z" />
		<path id="Layer" class="s4" d="m46.9 70c-0.6 0.6-2.4-0.3-4.1-1.2l0.3-2.5c1.9 1.2 4.5 2.9 3.8 3.7z" />
		<path id="Layer" class="s5" d="m48.9 78.7c1.1 0.4 1.1 1 0 1.4c-1 0.3-2.6 0.3-3.7 0c-1-0.4-1-1 0-1.4c1-0.3 2.7-0.3 3.7 0z" />
		<path id="Layer" class="s6" d="m36.4 78.7c1 0.4 1.1 1 0 1.4c-1 0.3-2.7 0.3-3.7 0c-1-0.4-1-1 0-1.4c1-0.3 2.7-0.3 3.7 0z" />
		<path id="Layer" class="s7" d="m36.6 71.7c1 0.4 1 1 0 1.4c-1 0.4-2.7 0.4-3.7 0c-1-0.4-1.1-1 0-1.4c1-0.3 2.7-0.3 3.7 0z" />
		<path id="Layer" class="s8" d="m15.8 68.7c-2.9 1.7-7.7 1.7-10.6 0c-2.9-1.7-3-4.4 0-6.1c2.9-1.7 7.6-1.7 10.6 0c2.9 1.7 2.9 4.4 0 6.1z" />
		<path id="Layer" class="s9" d="m10.2 68.8c-0.6 0.6-2.3-0.3-3.9-1.1l0.3-2.5c1.8 1.2 4.1 3.1 3.6 3.6z" />
		<path id="Layer" class="s10" d="m16.1 65.3c-0.2 0.4-2.1-0.3-3.6-1v-2c1.8 1 4.1 2.2 3.6 3z" />
		<path id="Layer" class="s11" d="m7.4 64.6c0 0 1.2 2.1 0.7 2.8c-0.4 0.7-2 0.8-2.4-0.6c-0.3-1.4-0.3-1.7-0.4-2c-0.2-0.4 0.5-0.9 0.5-0.9zm4.4-2.8c0 0 2.6 1.1 2.5 2c-0.2 1-1.9 0.5-2.5 0c-0.6-0.4-0.9-0.6-1.5-0.5c-0.5 0.1-1.3-0.1-1.4-0.6c0-0.5 0.3-1 0.3-1l1.3-0.8z" />
		<path id="Layer" class="s12" d="m21.8 32.2c0.4-0.4 0.7-0.9 0.9-0.8c0.3 0 0.4 0.2 0 0.6c0 0 0 0 0.1 0c0.5-0.1 1.9-0.6 2.1-0.1c0.1 0.4-1.2 0.6-1.2 0.6c0 0 0.9 1.3 0 1.6c-1.4 0.5-2.5 0.3-2.6-0.4c-0.2-0.8 0.2-1.1 0.7-1.5z" />
		<path id="Layer" class="s13" d="m11.1 24.4c0 0-0.3 0.4-0.9 0.8c-0.6 0.5-1.7 1.1-2.9 0.8c-0.6 0.5 0 1.9 0 1.9h-0.3c0 0-0.6-1.2-1-0.7c-0.5 0.4 0.5 1.6 0.5 1.6l-0.3 1.1c0 0-2.3-4-1.1-5.1c0 0 0.4-1.9 2.3-1.8c1.9 0 2.5 1.3 3.7 1.4z" />
		<path id="Layer" class="s12" d="m9.3 30.2c0 0.4-0.1 0.9-0.3 1.2c0 0-2 0.7-2.9-0.8l0.2-1l0.2-0.8c0 0 0.2 0.2 0.5 0.4c0.5 0.3 1.3 0.9 2.2 1c0 0 0 0 0.1 0z" />
		<path id="Layer" class="s14" d="m9.8 43.8l1.2-0.1l1.6-0.2c0 0 1.2 2.9 0.4 7.7c-0.7 4.8-1 10.8-1 10.8c-0.4 0.2-0.8 0.3-1.1 0.3c-0.6 0-1.1-0.1-1.8-0.5l-0.4-9.6z" />
		<path id="Layer" class="s15" d="m9.8 43.8l1.8-0.1c0.1 2.2-0.9 4.5-0.6 6.8c0.1 0.5-0.3 1-0.2 1.6c0.5 2.5-0.5 5-0.6 7.5c-0.1 0.9 0 1.8 0.5 2.5q0.1 0.1 0.2 0.2c-0.6 0-1.1-0.1-1.8-0.5l-0.4-9.6z" />
		<path id="Layer" class="s16" d="m10.3 30.6c0 0 0.9 3.8 1 3.8c0 0-0.1 2.6-0.1 2.7c0 0-0.4 0.6-0.4 0.6l-1.3-1c0 0-1.5-2.3-1.6-2.4c0 0-0.6-2.2-0.6-2.2c0 0-1-1.4-1-1.4c1.6 1.4 3.1 1.5 4-0.1z" />
		<path id="Layer" class="s17" d="m9 31.4l0.8 0.7l-0.2 0.5l1.5 3.5l-0.3 1.1l-0.6-0.8l-1-3.7l-0.5-0.4z" />
		<path id="Layer" class="s14" d="m4.3 47c0 0 1-0.2 2.1-0.4c1.7-0.3 4-0.6 4.1 0.1c0.1 1.1-3.1 18-3.1 18c-0.4 0.2-0.8 0.3-1.2 0.3c-0.3 0.1-0.6 0-0.9-0.2c-0.8-2.8-0.5-6.1-0.2-9.5c0.4-3.4-0.8-8.3-0.8-8.3z" />
		<path id="Layer" class="s15" d="m4.3 47c0 0 1-0.2 2.1-0.4c0.4 1.2 0.3 2.6 0.3 3.9c0.1 2.4 0.9 4.8 0.5 7.2c-0.4 1.7-1.3 3.3-1.3 5c0 0.5 0.1 1 0.2 1.5q0.1 0.4 0.1 0.8c-0.3 0.1-0.6 0-0.9-0.2c-0.8-2.8-0.5-6.1-0.2-9.5c0.4-3.4-0.8-8.3-0.8-8.3z" />
		<path id="Layer" class="s18" d="m10.8 29.4c1.6 0.1 4.4 3.7 5 4.6c0.1 0.1 0.3 0.2 0.5 0.1l5-1.7c0.2-0.1 0.9 1.8 0.5 2.1c-1.6 1.1-4.1 2.1-5.8 2.6q-0.2 0-0.4 0.1q-0.5 0-0.9-0.3c-2.7-1.3-3.8-4-5.4-7.6z" />
		<path id="Layer" class="s19" d="m10.7 32.6c0 0-0.4-2.3-0.4-2.3l-1-1.2c0 0 1.1 0.1 1.9 0.4c0.7 0.3 1.2 0.9 1.3 1.6c0.3 1.5 0.3 3.2 0.2 4.9c0.1 2 0.2 3.9 0.3 4.6c0.4 1.6 0.5 4.8 0.5 4.8c0 0 0.1 1.2-0.8 1.4c-0.9 0.2-1.5 0.3-1.7-0.1q-0.1-0.1-0.1-0.1l-0.6-6.6l0.8-0.8c0 0-0.3-1.9-0.3-2c0.3-0.7 0.6-2.3 0.5-2.4c0 0-0.5-2.2-0.6-2.2z" />
		<path id="Layer" class="s18" d="m10.8 37.2l0.3 2.1l-0.1 7.3q0 0.1 0 0.1q-0.1-0.1-0.1-0.1l-0.6-6.6z" />
		<path id="Layer" class="s19" d="m4.2 46.9c0.5-1.9 0.8-6.9 0.6-8.3c-0.2-1.6-2.1-5.2-2.1-5.7c0.1-0.5 2.4-2.4 2.4-2.4l0.7-1c2 2.6 4.9 7.9 5 7.8l0.1 9.3c-1.5 2.1-5.3 1.2-6.4 0.8c-0.2-0.1-0.3-0.3-0.3-0.5z" />
		<path id="Layer" class="s16" d="m5.6 29.7q0.1-0.2 0.3-0.3l0.2-0.2c0 0 1.2 2.1 2.9 2.2l-0.3 1.1c0 0-1.9-0.6-2.7-1.5c-0.5-0.6-0.5-1-0.4-1.3z" />
		<path id="Layer" class="s16" d="m9 31.4c0 0 0.4-0.9 0.2-2.3l1 1.6q0 0.8-0.4 1.4z" />
		<path id="Layer" class="s18" d="m5.4 31.1c-0.4-0.6-0.3-1.3 0.1-1.8c0.1-0.1 0.3-0.2 0.3-0.2l0.1 0.2l-0.2 0.2c-0.1 0.2-0.1 0.4 0.1 0.5c2.4 2.2 5.2 7 5 7.3l-4.1-3.8l0.5-0.8h-1z" />
		<path id="Layer" class="s18" d="m10.8 37.3c0.4-2.7-1.2-8.2-1.2-8.2c1.7-0.4 2.1 2.1 2.1 2.1l-0.7 0.5l0.8 0.3c0.2 1.8-0.6 4.3-1 5.3z" />
		<path id="Layer" class="s20" d="m6 27.2c0.4-0.5 1 0.7 1 0.7h0.3c0 0-0.4-0.9-0.2-1.5q0-0.2 0.2-0.3q0-0.1 0-0.1c1.2 0.3 2.3-0.3 2.9-0.8c0.5 0.5 0.8 4.6-0.3 4.9q-0.3 0.1-0.7 0.1q0 0 0 0c-0.9-0.1-1.7-0.7-2.2-1c-0.3-0.2-0.5-0.4-0.5-0.4c0 0-1-1.2-0.5-1.6z" />
		<path id="Layer" class="s21" d="m7.3 26c0 0-1.1-0.1-2.2-1.2c0.7 0.5 1.4 0.9 2.2 1.2z" />
		<path id="Layer" class="s13" d="m6 28c0.2 0.4 0.5 0.8 0.5 0.8l-0.3 1.1c0 0-0.5-0.9-0.9-1.9z" />
		<path id="Layer" class="s22" d="m10.8 37.1l3.9-1.7l-1.8 6.7l-3.8 1.3z" />
		<path id="Layer" class="s23" d="m12 36.4l1.4-0.6l-0.1 0.5l-1.4 0.6z" />
		<path id="Layer" class="s20" d="m9 39.8c0 0 0.1-0.4 0.3-0.5c0.2-0.2 0.9-0.4 0.9-0.1c0.1 0.3-0.2 0.3-0.2 0.5c0.1 0.2 0.5 0.3 0.7 0.1c0.3-0.1 0.7-1 1-0.7c0.6 0.5 0.1 2.2-2.3 1.8c-0.1 0-0.7-0.1-0.7-0.1z" />
		<path id="Layer" class="s18" d="m3.4 32.3c0 0 1.3-0.3 1.5 1.4c0.1 1.5 0.3 4 0.4 4.8c0 0.1 0.1 0.2 0.3 0.2l3.6 0.5c0.1 0 0.2 1.8 0.1 1.8c0 0-4.7 0.6-5.7-0.2c-1.1-0.9-2.1-8-0.2-8.5z" />
		<path id="Layer" class="s11" d="m79.1 39.3l-2-1.1v-0.5l2 1.1z" />
		<path id="Layer" class="s11" d="m77.7 37.3c1.6-0.9 2.9-3.1 2.9-4.9v-0.7l1.9 1.1v0.8c0 1.8-1.2 4-2.8 4.9l-0.6 0.3l-2-1.1z" />
		<path id="Layer" class="s11" d="m82.5 32.8l-1.9-1.1l0.4-0.3l2 1.2z" />
		<path id="Layer" class="s17" d="m83 32.6v0.7c0 2.1-1.5 4.6-3.3 5.6l-0.6 0.4v-0.5l0.6-0.3c1.6-0.9 2.8-3.1 2.8-4.9v-0.8z" />
		<path id="Layer" class="s24" d="m73.3 37.6q0 0 0 0l-0.7-0.4v-4.2l-4.6 2.6c-0.1 0.1-0.3 0.3-0.3 0.5v4.7l-0.5 0.3l-0.7-0.4v-4.7c0-0.5 0.4-1.2 0.8-1.4l5-2.9q0.4-0.2 0.6-0.1l0.7 0.4q0.2 0.2 0.2 0.6l0.1 4.7z" />
		<path id="Layer" class="s24" d="m73.3 37.6l-0.7-0.4v-4.7q0-0.2-0.1-0.2l0.7 0.4q0.1 0 0.1 0.2z" />
		<path id="Layer" class="s11" d="m73.6 32q-0.2-0.1-0.6 0.1l-5 2.9c-0.4 0.2-0.8 0.9-0.8 1.4v4.7l-0.7-0.4v-4.7c0-0.5 0.4-1.2 0.8-1.4l5-2.9q0.4-0.2 0.6-0.1z" />
		<path id="Layer" class="s17" d="m73 32.1c0.5-0.3 0.8-0.1 0.8 0.5l0.1 4.7l-0.6 0.3v-4.7c0-0.2-0.1-0.3-0.3-0.2l-5 2.9c-0.1 0.1-0.3 0.3-0.3 0.5v4.7l-0.5 0.3v-4.7c0-0.5 0.4-1.2 0.8-1.4z" />
		<path id="Layer" class="s11" d="m81.7 49.8q0.3-0.1 0.4 0l0.5 0.2q-0.2-0.1-0.4 0.1c-0.4 0.2-0.3 0.7-0.3 1.1c0 0.2-0.3 0.2-0.2 0.3l-0.4-0.3q-0.2-0.1-0.2-0.4c0-0.4 0.3-0.8 0.6-1z" />
		<path id="Layer" class="s17" d="m82.2 50.1c0.3-0.2 0.6-0.1 0.6 0.3c0 0.4-0.3 0.9-0.6 1.1c-0.4 0.2-0.6 0-0.6-0.4c0-0.4 0.2-0.8 0.6-1z" />
		<path id="Layer" class="s23" d="m82.2 50.4c0.2-0.2 0.3-0.1 0.3 0.2c0 0.2-0.1 0.5-0.3 0.6c-0.2 0.1-0.4 0-0.4-0.2c0-0.3 0.2-0.5 0.4-0.6z" />
		<path id="Layer" class="s23" d="m77.3 53l-0.5-0.2v-1.2l0.5 0.3z" />
		<path id="Layer" class="s11" d="m77.3 51.9l-0.5-0.3l5.3-3.1l0.5 0.3z" />
		<path id="Layer" class="s24" d="m82.6 48.8v1.1l-5.3 3.1v-1.1z" />
		<path id="Layer" class="s11" d="m70.3 51q0 0.3-0.2 0.4l-0.5 0.3c0.1-0.1-0.1-0.2-0.1-0.4c0-0.4-0.4-0.6-0.7-0.7c-0.2-0.1 0.1-0.5 0-0.4l0.4-0.3q0.2-0.1 0.5 0c0.3 0.2 0.6 0.7 0.6 1.1z" />
		<path id="Layer" class="s17" d="m69.8 51.3c0 0.4-0.3 0.5-0.6 0.3c-0.3-0.2-0.6-0.6-0.6-1c0-0.4 0.3-0.6 0.6-0.4c0.3 0.2 0.6 0.7 0.6 1.1z" />
		<path id="Layer" class="s23" d="m69.6 51.1c0 0.3-0.2 0.4-0.4 0.2c-0.2-0.1-0.4-0.4-0.4-0.6c0-0.2 0.2-0.3 0.4-0.2c0.2 0.1 0.4 0.4 0.4 0.6z" />
		<path id="Layer" class="s23" d="m74 51.9l0.5-0.3v1.2l-0.5 0.2z" />
		<path id="Layer" class="s11" d="m68.7 48.8l0.4-0.3l5.4 3.1l-0.4 0.3c-2-0.8-3.9-1.8-5.4-3.1z" />
		<path id="Layer" class="s24" d="m74.1 51.9l-0.1 1.1l-5.3-3.1v-1.1z" />
		<path id="Layer" class="s23" d="m74.5 52.7c0.8 0.4 1.9 0.6 2.6 0.1c0.4-0.2 0.7-0.3 0.7-0.6v1.7c0 0.3-0.1 0.6-0.5 0.8c-0.7 0.4-2 0.4-2.7 0c-0.4-0.2-0.7-0.5-0.7-0.8v-1.7c0 0.3 0.3 0.3 0.6 0.5z" />
		<path id="Layer" class="s16" d="m77.3 51.4c0.7 0.5 0.7 1.2 0 1.6c-0.8 0.5-2 0.5-2.8 0c-0.7-0.4-0.7-1.1 0-1.6c0.8-0.4 2-0.4 2.8 0z" />
		<path id="Layer" class="s17" d="m75.2 43.9c0.4 0.2 1 0.2 1.4 0q0.3-0.2 0.3-0.5v8.8q0 0.2-0.3 0.4c-0.4 0.2-1 0.2-1.4 0q-0.3-0.2-0.3-0.4v-8.7q0 0.2 0.3 0.4z" />
		<path id="Layer" class="s25" d="m76.6 43c0.4 0.3 0.4 0.6 0 0.9c-0.4 0.2-1 0.2-1.4 0c-0.4-0.3-0.4-0.6 0-0.9c0.4-0.2 1-0.2 1.4 0z" />
		<path id="Layer" class="s11" d="m69.2 57q0.2-0.1 0.4 0l0.5 0.3q-0.2-0.1-0.4 0c-0.4 0.2-0.6 0.7-0.6 1.1q0 0.2 0.1 0.4l-0.4-0.3q-0.2-0.1-0.2-0.4c0-0.4 0.2-0.9 0.6-1.1z" />
		<path id="Layer" class="s17" d="m69.7 57.3c0.3-0.2 0.6 0 0.6 0.4c0 0.3-0.3 0.8-0.6 1c-0.4 0.2-0.6 0-0.6-0.3c0-0.4 0.2-0.9 0.6-1.1z" />
		<path id="Layer" class="s23" d="m69.7 57.6c0.2-0.1 0.3 0 0.3 0.2c0 0.2-0.1 0.5-0.3 0.6c-0.2 0.1-0.4 0-0.4-0.2c0-0.2 0.2-0.5 0.4-0.6z" />
		<path id="Layer" class="s24" d="m69.3 57.6l-0.4-0.3v-1.1l0.4 0.3z" />
		<path id="Layer" class="s11" d="m69.3 56.5l-0.4-0.3l5.3-3.1l0.5 0.3q-2.5 2-5.4 3.1z" />
		<path id="Layer" class="s24" d="m74.7 53.4v1.1l-5.4 3.1v-1.1z" />
		<path id="Layer" class="s11" d="m82.7 58q-0.1 0.3-0.2 0.4l-0.5 0.3c0.1-0.1-0.1-0.2-0.1-0.4c0-0.4-0.1-0.5-0.4-0.7c-0.2-0.1-0.3-0.4-0.4-0.4l0.5-0.2q0.2-0.1 0.4 0c0.4 0.2 0.7 0.6 0.7 1z" />
		<path id="Layer" class="s17" d="m82.2 58.3c0 0.4-0.3 0.6-0.6 0.4c-0.4-0.2-0.6-0.7-0.6-1.1c0-0.4 0.2-0.5 0.6-0.3c0.3 0.2 0.6 0.6 0.6 1z" />
		<path id="Layer" class="s23" d="m81.9 58.2c0 0.2-0.1 0.3-0.3 0.2c-0.2-0.1-0.4-0.4-0.4-0.6c0-0.3 0.2-0.4 0.4-0.2c0.2 0.1 0.3 0.3 0.3 0.6z" />
		<path id="Layer" class="s24" d="m81.9 56.5l0.5-0.3v1.1l-0.5 0.3c-0.3-0.5-0.4-0.9 0-1.1z" />
		<path id="Layer" class="s11" d="m76.9 53.6l0.5-0.3l5 2.9l-0.5 0.3c-1.8-0.4-3.5-1.3-5-2.9z" />
		<path id="Layer" class="s24" d="m81.9 56.5v1.1l-5-2.9v-1.1z" />
		<path id="Layer" fill-rule="evenodd" class="s26" d="m84.7 39.6v2.6q0 0.3-0.4 0.5l-7.5 4.4c-0.5 0.3-1.3 0.3-1.8 0l-7.6-4.4q-0.4-0.2-0.4-0.5l0.1-2.6q0-0.3 0.3-0.5l7.6-4.4c0.5-0.3 1.3-0.3 1.8 0l7.5 4.4q0.4 0.2 0.4 0.5zm-10.8 4.3l-6.5-3.7q0-0.1-0.1-0.1q0.1 0 0.1 0.1z" />
		<path id="Layer" class="s26" d="m84.7 39.6v2.6q0 0.3-0.4 0.5l-7.5 4.4c-0.5 0.3-1.3 0.3-1.8 0l-7.6-4.4q-0.4-0.2-0.4-0.5l0.1-2.6q0 0.3 0.3 0.6l7.6 4.3c0.5 0.3 1.3 0.3 1.8 0l7.6-4.3q0.3-0.3 0.3-0.6z" />
		<path id="Layer" class="s27" d="m67.4 39.1l7.6-4.4c0.5-0.3 1.3-0.3 1.8 0l7.5 4.4c0.5 0.3 0.6 0.8 0.1 1.1l-7.6 4.3c-0.5 0.3-1.3 0.3-1.8 0l-7.6-4.3c-0.5-0.3-0.5-0.8 0-1.1z" />
		<path id="Layer" class="s18" d="m85.7 37.1q0 0 0.1-0.1q0 0.1-0.1 0.1zm0.1-0.3q0 0.1 0 0.2q0-0.1 0-0.2z" />
		<path id="Layer" fill-rule="evenodd" class="s18" d="m87.8 27.1v8.4q0 0.5-0.3 0.6l-1.9 1.1q-0.3 0.2-0.7 0l-7.5-4.4c-0.5-0.3-0.9-1-0.9-1.6v-8.4q0-0.4 0.3-0.6l1.9-1.1q0.2-0.1 0.6 0.1l7.6 4.4c0.5 0.3 0.9 1 0.9 1.5zm-2 9.9q-0.1 0.1-0.1 0.1q0.1 0 0.1-0.1zm0-0.2q0 0.1 0 0.2q0-0.1 0-0.2z" />
		<path id="Layer" class="s18" d="m85.7 37.1q0 0 0.1-0.1q0 0.1-0.1 0.1zm0.1-0.3q0 0.1 0 0.2q0-0.1 0-0.2z" />
		<path id="Layer" class="s19" d="m87.8 27.1v8.4q0 0.5-0.3 0.6l-1.9 1.1q0.2-0.1 0.3-0.6v-8.4c0-0.5-0.4-1.2-0.9-1.5l-7.6-4.4q-0.4-0.2-0.7-0.1l2-1.1q0.2-0.1 0.6 0.1l7.6 4.4c0.5 0.3 0.9 1 0.9 1.5z" />
		<path id="Layer" class="s18" d="m85 26.7c0.5 0.3 0.9 1 0.9 1.5v8.4c0 0.6-0.5 0.8-1 0.6l-7.5-4.4c-0.5-0.3-0.9-1-0.9-1.6v-8.4c0-0.6 0.4-0.8 0.9-0.5z" />
		<path id="Layer" class="s22" d="m77.1 39.3l-5.8 3.1l-2.6 9.5c-0.9 0.3-1.7 0.4-2.5 0l1-10.3c0-0.8 0.5-1.7 1.3-2.2l8.6-4.6c0.7-0.4 1.6-0.1 1.8 0.7c0.3 1.4-0.5 3.1-1.8 3.8z" />
		<path id="Layer" class="s28" d="m80.2 41.4l-5.8 3.1l-2.6 9.5c-0.9 0.3-1.7 0.4-2.5 0l1-10.3c0-0.8 0.5-1.7 1.3-2.2c2.3-1.8 5.1-3.3 8.6-4.6c0.7-0.4 1.6-0.1 1.8 0.7c0.3 1.4-0.5 3.1-1.8 3.8z" />
		<path id="Layer" class="s12" d="m63.2 26.5c0.7 0.1 1.3-0.2 1.3-0.2c-0.3-0.1-0.7-0.6-0.6-0.8c0.3-0.3 1.1 0.3 1.5 0.6c0.4 0.3 0.6 1.3 0 1.6c-0.6 0.3-2.8-0.3-3-0.7c-0.2-0.3 0.1-0.7 0.8-0.5z" />
		<path id="Layer" class="s16" d="m65.6 26.2q0.7 0 1.3 0l-1.2 1.7q-0.3 0-0.5-0.1c-0.2-0.2 0.1-1.4 0.2-1.5c0-0.1 0.1-0.2 0.2-0.1z" />
		<path id="Layer" class="s29" d="m65.6 26.1q3.7 0 6.9 0.4c0 0 1.8-0.7 4.1-1.4c1-0.3 1.6-0.1 1.9 0.4c0.4 0.6 0.3 1.4-0.3 1.9c-2.3 2.2-5.3 1.7-5.3 1.7c-2.5-0.4-5-0.6-7.6-1.3c-0.2 0 0.2-1.7 0.3-1.7z" />
		<path id="Layer" class="s30" d="m79.4 18.8c1.8 0 2.2 1.9 2.2 1.9c1.1 1.1-1.1 5-1.1 5l-0.3-1.1c0 0 0.9-1.2 0.5-1.6c-0.4-0.5-1 0.7-1 0.7h-0.3c0 0 0.6-1.4 0-1.9c-2.2 0.4-3.7-1.6-3.7-1.6c1.1-0.1 1.8-1.4 3.7-1.4z" />
		<path id="Layer" class="s12" d="m77.6 25.9c1.2-0.1 2.5-1.3 2.6-1.3c0.6 2.3 0.4 1.5 0.4 1.7c-0.9 1.5-2.9 0.9-2.9 0.9c-0.2-0.4-0.6-0.9-0.5-1.3c0 0 0.3 0 0.4 0z" />
		<path id="Layer" class="s16" d="m80.2 26.1c0 0-0.8 1.5-0.8 1.5c0 0-0.2 2.2-0.3 2.2c0 0.1-1.2 2.6-1.2 2.6l-1.1 1.1c0 0-0.5-0.5-0.5-0.5c0-0.1-0.4-2.6-0.4-2.6c0-0.1 0.5-3.9 0.5-3.9c1 1.5 2.4 1.1 3.8-0.4z" />
		<path id="Layer" class="s19" d="m78.1 28l-0.4 0.4l-0.6 3.7l-0.4 1l-0.4-1.1l1-3.6l-0.3-0.5l0.7-0.7z" />
		<path id="Layer" class="s31" d="m84.3 27.7l-2.3 11.6c-3-0.2-6.1-0.6-8.2-2.2c-0.2-0.2-0.3-0.5-0.3-0.8l0.7-9c0.1-0.7 0.4-1.3 1.1-1.7c0.8-0.4 1.8-0.7 1.8-0.7l-0.8 1.3c0 0-0.1 2.3-0.1 2.3c-0.1 0-0.3 2.2-0.3 2.3c-0.1 0 0.5 1.6 0.8 2.3q0 0 0 0.1c0.2-0.3 2.3-5.6 3.8-8.4l0.8 1c0 0 2.6 1.3 3 1.9z" />
		<path id="Layer" class="s23" d="m80.6 26.3c-0.7 1-2.4 1.9-2.4 1.9l-0.5-1c1.6-0.4 2.5-2.6 2.5-2.6l0.3 0.1q0.2 0.1 0.3 0.4c0.1 0.2 0.1 0.6-0.2 1.2z" />
		<path id="Layer" class="s23" d="m77 27.9q-0.4-0.5-0.6-1.2c-0.4-1.1 0-1.6 0.8-1.8c-0.1 1.4 0.5 2.3 0.5 2.3z" />
		<path id="Layer" class="s32" d="m80.6 28l-1 0.2l0.6 0.7l-3.5 4.3c-0.2-0.3 1.9-5.4 4-7.8c0.1-0.2 0.1-0.4-0.1-0.6l-0.2-0.1l0.1-0.3c0 0 0.2 0.1 0.3 0.2c0.5 0.5 0.6 1.1 0.4 1.8z" />
		<path id="Layer" class="s32" d="m76.7 33.2c-0.5-1-1.6-3.3-1.6-5.1l0.7-0.4l-0.8-0.4c0 0 0.1-2.5 1.8-2.3c0 0-0.9 5.5-0.1 8.1z" />
		<path id="Layer" class="s20" d="m80.2 24.6c0 0-0.2 0.1-0.5 0.3c-0.5 0.4-1.3 0.9-2.1 1q-0.1 0-0.1 0q-0.3 0.1-0.7 0c-1.1-0.4-0.7-4.4-0.3-4.9c1.5 1.2 2.8 0.8 2.9 0.8q0 0 0.1 0.1q0.1 0.1 0.1 0.3c0.2 0.6-0.2 1.5-0.2 1.5h0.3c0 0 0.6-1.2 1-0.7c0.4 0.4-0.5 1.6-0.5 1.6z" />
		<path id="Layer" class="s33" d="m79.4 21.8c0 0 1.1-0.1 2.2-1.1q-1.1 0.6-2.2 1.1z" />
		<path id="Layer" class="s30" d="m81.4 23.8c-0.4 1-0.9 1.9-0.9 1.9l-0.3-1.1c0 0 0.3-0.4 0.5-0.8z" />
		<path id="Layer" class="s24" d="m83.7 43.5l-0.6-0.4v-4.2l-4.6 2.7c-0.2 0-0.3 0.3-0.3 0.4v4.7l-0.6 0.4v-4.7q0-0.1 0-0.1q0 0 0 0.1v4.7l-0.6-0.4l-0.1-4.7c0-0.6 0.4-1.2 0.9-1.5l5-2.9q0.3-0.2 0.6 0l0.6 0.4q0 0 0 0q0.3 0.1 0.3 0.5v4.7l-0.6 0.3q0 0 0 0z" />
		<path id="Layer" class="s24" d="m77.6 47.1v-4.7q0-0.1 0-0.1q0 0 0 0.1z" />
		<path id="Layer" class="s24" d="m77.6 47.1v-4.7q0-0.1 0-0.1q0 0 0 0.1z" />
		<path id="Layer" class="s24" d="m83.7 43.5l-0.6-0.4v-4.7q0-0.1-0.1-0.1l0.7 0.4q0 0 0 0.1z" />
		<path id="Layer" class="s11" d="m84 38q-0.2-0.2-0.5 0l-5 2.9c-0.5 0.3-0.9 0.9-0.9 1.5v4.7l-0.6-0.4l-0.1-4.7c0-0.6 0.4-1.2 0.9-1.5l5-2.9q0.3-0.2 0.6 0z" />
		<path id="Layer" class="s17" d="m83.5 38c0.4-0.2 0.8 0 0.8 0.5v4.7l-0.6 0.3v-4.7c0-0.1-0.1-0.2-0.2-0.1l-5 2.9c-0.2 0-0.3 0.3-0.3 0.4v4.7l-0.6 0.4v-4.7c0-0.6 0.4-1.2 0.9-1.5z" />
		<path id="Layer" class="s34" d="m59.7 63.3l-0.9-0.4l27.4-15.8l0.8 0.5z" />
		<path id="Layer" class="s23" d="m87 62.7l-27.3 15.7l-0.8-0.4l-0.1-15.1l0.9 0.4l27.3-15.7z" />
		<path id="Layer" class="s23" d="m59.7 78.4l-0.8-0.4l-0.1-15.1l0.9 0.4z" />
		<path id="Layer" class="s22" d="m87 47.6v15.1l-27.3 15.7v-15.1z" />
		<path id="Layer" class="s34" d="m27.9 45l-0.8-0.5l27.3-15.8l0.9 0.5z" />
		<path id="Layer" class="s23" d="m51.7 42.2l-27.3 15.8l-0.9-0.5v-15.1l0.8 0.5l27.4-15.8z" />
		<path id="Layer" class="s23" d="m24.4 58l-0.9-0.5v-15.1l0.8 0.5z" />
		<path id="Layer" class="s22" d="m51.7 27.1v15.1l-27.3 15.8l-0.1-15.1z" />
		<path id="Layer" class="s35" d="m87.9 47.6v0.9l-27.8 16.2l-37.2-21.5v-0.9l27.9-16.2z" />
		<path id="Layer" class="s35" d="m87.9 47.6v0.9l-27.8 16.2v-1z" />
		<path id="Layer" class="s36" d="m50.8 26.1l37.1 21.5l-27.8 16.1l-37.2-21.4z" />
		<path id="Layer" class="s37" d="m60.1 63.7v1l-37.2-21.5v-0.9z" />
		<g id="Layer" style="opacity: .7">
			<path id="Layer" class="s38" d="m77.5 42.2c0.2 0.1 0.2 0.3 0 0.4l-6.1 3.5c-0.1 0.1-0.4 0.1-0.6 0l-9.7-5.6c-0.2-0.1-0.2-0.3 0-0.4l6-3.5c0.2-0.1 0.5-0.1 0.7 0z" />
		</g>
		<path id="Layer" class="s23" d="m77 41.9v0.3q0 0.1-0.1 0.2l-6.2 3.6c-0.2 0.1-0.5 0.1-0.6 0l-9.9-5.7q-0.1-0.1-0.1-0.2v-0.3q0 0.1 0.1 0.2l9.9 5.6c0.1 0.1-1-1.9-0.8-2l3.3-2.4c0.1-0.1 4.4 0.7 4.4 0.7z" />
		<path id="Layer" class="s16" d="m76.9 42.1l-1.2 0.6l-5 2.9c-0.2 0.1-0.5 0.1-0.6 0l-9.9-5.6c-0.2-0.2-0.2-0.3 0-0.4l6.1-3.6c0.2-0.1 0.5-0.1 0.7 0l5.9 3.4l4 2.3c0.1 0.1 0.1 0.3 0 0.4z" />
		<path id="Layer" class="s28" d="m64.3 37.2l0.6 0.4l-3.8 2.2l-0.7-0.4z" />
		<path id="Layer" class="s11" d="m68.9 43.6q0 0 0 0l0.4-0.2q0.1-0.1 0.1 0l0.4 0.2q0 0 0 0l-0.4 0.3q0 0-0.1 0zm-3.8-3.6q0 0 0 0l0.4-0.3q0.1 0 0.1 0l0.4 0.3q0 0 0 0l-0.4 0.2q0 0-0.1 0zm1.3 0.8q0-0.1 0-0.1l0.4-0.2q0 0 0 0l0.5 0.2q0 0 0 0.1l-0.5 0.2q0 0 0 0zm-2.5-2.2q-0.1 0 0 0l0.4-0.2q0 0 0 0l1.1 0.6q0 0 0 0l-0.4 0.2q-0.1 0.1-0.1 0zm4.4 2.6q-0.1-0.1 0-0.1l0.4-0.2q0 0 0 0l0.4 0.2q0 0 0 0.1l-0.4 0.2q0 0 0 0zm-0.7-0.4q0 0 0 0l0.4-0.2q0.1-0.1 0.1 0l0.4 0.2q0 0 0 0l-0.4 0.3q0 0-0.1 0zm2.3 3.7q0 0 0 0l0.1-0.1q0 0 0.1 0l0.4 0.2q0 0.1 0 0.1h-0.1q-0.1 0-0.1 0zm-0.6-0.3q0 0 0-0.1h0.1q0 0 0 0l0.4 0.2q0.1 0 0 0.1q-0.1 0-0.1 0zm0.3-0.2q0 0 0 0l0.4-0.2q0.1-0.1 0.1 0l1 0.5q0 0.1 0 0.1l-0.4 0.2q0 0-0.1 0zm-1.5-0.5q0 0 0 0l0.1-0.1q0 0 0 0l0.4 0.2q0.1 0.1 0 0.1h-0.1q0 0 0 0zm2.1 0.2q0 0 0 0l0.5-0.3q0 0 0 0l0.4 0.3q0 0 0 0l-0.4 0.2q0 0.1 0 0z" />
		<path id="Layer" fill-rule="evenodd" class="s11" d="m70.8 44q-0.1 0 0 0l0.5-0.4l-0.6-0.3q0 0 0 0l0.4-0.3q0.1 0 0.1 0l1 0.6q0 0 0 0.1l-1 0.5q0 0 0 0zm-1.3-0.7q0 0 0 0l0.4-0.3q0.1 0 0.1 0l0.4 0.3q0 0 0 0l-0.4 0.2q0 0.1-0.1 0zm-1.2 0q0 0 0 0l0.4-0.2q0-0.1 0.1 0l0.4 0.2q0 0 0 0l-0.4 0.3q-0.1 0-0.1 0zm4.2-0.3q0 0 0-0.1l0.4-0.2q0.1 0 0.1 0l0.4 0.2q0 0.1 0 0.1l-0.4 0.2q0 0-0.1 0zm-2.4 0q0 0 0-0.1l0.4-0.2q0.1 0 0.1 0l0.4 0.2q0 0.1 0 0.1l-0.4 0.2q0 0-0.1 0zm-1.2 0q0 0 0 0l0.4-0.3q0.1 0 0.1 0l0.4 0.3q0 0 0 0l-0.4 0.2q0 0-0.1 0zm1.8-0.3q0 0 0 0l0.4-0.3q0.1 0 0.1 0l1.6 1q0.1 0 0 0l-0.4 0.3q0 0 0 0zm-1.2-0.1q-0.1 0 0 0l0.4-0.2q0 0 0 0l0.4 0.2q0.1 0 0 0l-0.4 0.3q0 0 0 0zm-1.2 0q-0.1-0.1 0-0.1l0.4-0.2q0 0 0 0l0.4 0.2q0.1 0 0 0.1l-0.4 0.2q0 0 0 0zm3-0.3q0 0 0-0.1l0.4-0.2q0 0 0.1 0l0.4 0.2q0 0.1 0 0.1l-0.4 0.2q-0.1 0-0.1 0zm-1.2 0q0 0 0 0l0.4-0.3q0 0 0 0l0.5 0.3q0 0 0 0l-0.4 0.2q-0.1 0.1-0.1 0zm-1.2 0q0 0 0 0l0.4-0.2q0-0.1 0 0l0.5 0.2q0 0 0 0l-0.5 0.3q0 0 0 0zm-2.4-0.1q-0.1 0 0 0l0.4-0.2q0-0.1 0 0l0.4 0.2q0.1 0 0 0l-0.4 0.3q0 0 0 0zm-0.2-2.8q0-0.1 0-0.1l0.4-0.2q0.1 0 0.1 0l4.8 2.7q0 0 0 0.1l-0.4 0.2q-0.1 0-0.1 0zm1.9 2.5q0 0 0-0.1l0.4-0.2q0.1 0 0.1 0l0.4 0.2q0 0.1 0 0.1l-0.4 0.2q0 0-0.1 0zm-1.2 0q0 0 0 0l0.4-0.3q0.1 0 0.1 0l0.4 0.3q0 0 0 0l-0.4 0.2q0 0.1-0.1 0zm-1.2 0q0 0 0 0l0.4-0.3q0.1 0 0.1 0l0.4 0.3q0 0 0 0l-0.4 0.3q0 0-0.1 0zm3-0.4q0 0 0 0l0.4-0.2q0.1 0 0.1 0l0.4 0.2q0 0 0 0l-0.4 0.3q0 0-0.1 0zm-1.2 0q0-0.1 0-0.1l0.4-0.2q0.1 0 0.1 0l0.4 0.2q0 0 0 0.1l-0.4 0.2q0 0-0.1 0zm-2.4 0q0-0.1 0-0.1l0.4-0.2q0.1 0 0.1 0l0.4 0.2q0 0 0 0.1l-0.4 0.2q0 0-0.1 0zm1.8-0.3q0 0 0-0.1l0.4-0.2q0.1 0 0.1 0l0.4 0.2q0 0.1 0 0.1l-0.4 0.2q0 0-0.1 0zm-4-0.6q0 0 0 0h0.1q0.1-0.1 0.1 0l0.4 0.2q0 0 0 0l-0.1 0.1q0 0 0 0zm0.9 0.2q0-0.1 0-0.1l0.4-0.2q0 0 0.1 0l0.4 0.2q0 0 0 0.1l-0.4 0.2q-0.1 0-0.1 0zm3-0.3q0 0 0-0.1l0.4-0.2q0.1 0 0.1 0l0.4 0.2q0 0.1 0 0.1l-0.4 0.2q0 0-0.1 0zm-1.2 0q0 0 0 0l0.4-0.3q0.1 0 0.1 0l0.4 0.3q0 0 0 0l-0.4 0.2q0 0-0.1 0zm-3.3-0.2q-0.1 0 0 0v-0.1q0.1 0 0.1 0l0.4 0.3q0 0 0 0l-0.1 0.1q0 0 0 0zm2.1 0.2q0-0.1 0-0.1l0.4-0.2q0.1 0 0.1 0l0.4 0.2q0 0 0 0.1l-0.4 0.2q0 0-0.1 0zm-1.2 0q0 0 0-0.1l0.4-0.2q0 0 0.1 0l0.4 0.2q0 0.1 0 0.1l-0.4 0.2q0 0-0.1 0zm3-0.3q0 0 0 0l0.4-0.3q0.1 0 0.1 0l0.4 0.3q0 0 0 0l-0.4 0.2q0 0-0.1 0zm-4.5-0.2q-0.1 0 0 0v-0.1q0.1 0 0.1 0l0.4 0.3q0 0 0 0h-0.1q0 0.1 0 0zm2.1 0.2q0 0 0 0l0.4-0.2q0.1-0.1 0.1 0l0.4 0.2q0 0 0 0l-0.4 0.3q0 0-0.1 0zm-1.2 0q0-0.1 0-0.1l0.4-0.2q0.1 0 0.1 0l0.4 0.2q0 0 0 0.1l-0.4 0.2q0 0-0.1 0zm3-0.3q0 0 0-0.1l0.4-0.2q0.1 0 0.1 0l0.4 0.2q0 0.1 0 0.1l-0.4 0.2q0 0-0.1 0zm-3.6 0q0-0.1 0-0.1l0.4-0.2q0 0 0.1 0l0.4 0.2q0 0 0 0.1l-0.4 0.2q0 0-0.1 0zm7.4 2.2q0 0 0 0l0.4-0.3q0 0 0.1 0l0.4 0.3q0 0 0 0l-0.4 0.2q-0.1 0.1-0.1 0zm-4.4-2.5q0 0 0 0l0.4-0.2q0.1-0.1 0.1 0l0.4 0.2q0 0 0 0l-0.4 0.3q0 0-0.1 0zm-2.4-0.1q0 0 0 0l0.4-0.2q0.1-0.1 0.1 0l1 0.5q0 0.1 0 0.1l-0.4 0.2q0 0 0 0zm3-0.3q-0.1 0 0 0l0.4-0.3q0 0 0 0l0.4 0.3q0.1 0 0 0l-0.4 0.2q0 0.1 0 0zm-2.4 0q-0.1 0 0 0l0.4-0.3q0 0 0 0l1.7 1q0 0 0 0l-0.4 0.3q-0.1 0-0.1 0zm1.8-0.4q0 0 0 0l0.4-0.2q0 0 0.1 0l0.4 0.2q0 0 0 0l-0.4 0.3q-0.1 0-0.1 0zm-0.6-0.4q0 0 0 0l0.4-0.3q0 0 0.1 0l0.4 0.3q0 0 0 0l-0.4 0.3q-0.1 0-0.1 0zm7.5 4.3q-0.1-0.1 0-0.1l0.4-0.2q0 0 0 0l0.4 0.2q0.1 0 0 0.1l-0.4 0.2q0 0 0 0zm-4.3-0.4q0 0 0 0l0.4-0.3q0 0 0.1 0l0.4 0.3q0 0 0 0l-0.4 0.2q-0.1 0-0.1 0zm-1.2-0.7q-0.1 0 0 0l0.4-0.3q0 0 0 0l0.4 0.3q0.1 0 0 0l-0.4 0.2q0 0.1 0 0zm-0.6-0.3q-0.1 0 0-0.1l0.4-0.2q0 0 0 0l0.4 0.2q0.1 0.1 0 0.1l-0.4 0.2q0 0 0 0zm-1.2 0q-0.1 0 0 0l0.4-0.3q0 0 0 0l0.4 0.3q0.1 0 0 0l-0.4 0.2q0 0 0 0zm0.6-0.3q-0.1 0 0 0l0.4-0.3q0 0 0 0l0.4 0.3q0 0 0 0l-0.4 0.2q0 0 0 0zm-1.6 0.2q0 0 0 0l0.1-0.1q0 0 0.1 0l0.4 0.2q0 0.1 0 0.1h-0.1q0 0-0.1 0zm0.6 0.4q0 0 0 0l0.1-0.1q0.1 0 0.1 0l0.4 0.2q0 0.1 0 0.1h-0.1q0 0 0 0zm0.6 0.4q0 0 0 0l0.1-0.1q0 0 0 0l0.4 0.2q0.1 0.1 0 0.1h-0.1q0 0 0 0zm0.6 0.4q0 0 0-0.1h0.1q0 0 0.1 0l0.4 0.2q0 0 0 0.1h-0.1q-0.1 0-0.1 0zm0.6 0.4q0 0 0-0.1h0.1q0.1 0 0.1 0l0.4 0.2q0 0 0 0.1h-0.1q0 0-0.1 0zm1.6 0.5q0 0 0 0l0.4-0.2q0 0 0.1 0l0.4 0.2q0 0 0 0l-0.4 0.3q0 0-0.1 0zm-0.6-0.4q0 0 0 0l0.4-0.3q0 0 0.1 0l0.4 0.3q0 0 0 0l-0.4 0.3q-0.1 0-0.1 0zm-0.3 0.1q0 0 0 0h0.1q0-0.1 0 0l0.4 0.2q0.1 0 0 0l-0.1 0.1q0 0 0 0zm0.6 0.3q0 0 0 0l0.1-0.1q0 0 0.1 0l0.4 0.3q0 0 0 0l-0.1 0.1q-0.1 0-0.1 0zm1.3 0.7q-0.1 0 0 0l0.1-0.1q0 0 0 0l0.4 0.2q0 0.1 0 0.1h-0.1q0 0 0 0z" />
		<path id="Layer" fill-rule="evenodd" class="s23" d="m71.1 41.3l-2.5-1.4q-0.1-0.1-0.1-0.2q0-0.1 0.1-0.2l1.7-1c0.1-0.1 0.4-0.1 0.5 0l2.4 1.4q0.2 0.1 0.2 0.2q0 0.2-0.2 0.3l-1.6 0.9q-0.1 0.1-0.3 0.1q-0.1 0-0.2-0.1zm-0.7-2.7l-1.7 1q-0.1 0-0.1 0.1q0 0.1 0.1 0.2l2.4 1.3c0.1 0.1 0.3 0.1 0.4 0l1.6-0.9q0.1-0.1 0.1-0.2q0-0.1-0.1-0.1l-2.3-1.4q-0.1 0-0.2 0q-0.2 0-0.2 0z" />
		<path id="Layer" class="s11" d="m59.6 32.3q0.1-0.1 0.3 0l9.8 5.7c0.2 0.1 0.4 0.3 0.4 0.6l-0.1 7.1q0 0.1-0.1 0.2l-0.1 0.1q0-0.1 0.1-0.2l-5.7-4.2c0-0.3-0.9-1.7-1.1-1.8l-3.5-6.6c-0.1 0-0.1-0.9-0.1-0.8z" />
		<path id="Layer" class="s17" d="m69.5 38.1c0.2 0.1 0.4 0.3 0.4 0.6v7.1c0 0.2-0.2 0.3-0.4 0.2l-9.8-5.7c-0.2-0.1-0.4-0.4-0.4-0.6l0.1-7.1c0-0.2 0.1-0.3 0.3-0.2z" />
		<path id="Layer" class="s11" d="m64.6 38.2c0.5 0.3 0.8 0.9 0.8 1.5c0 0.5-0.3 0.7-0.8 0.4c-0.5-0.2-0.8-0.9-0.8-1.4c0-0.5 0.3-0.8 0.8-0.5z" />
		<path id="Layer" class="s11" d="m49.3 38.6q0.1 0 0.3 0.1l9.7 5.6c0.2 0.1 0.3 0.3 0.3 0.5v7.1q0 0.1-0.1 0.2l-0.2 0.1q0.1-0.1 0.1-0.2l-5.6-4.2c0-0.2-0.9-1.6-1.1-1.8l-3.4-6.4c-0.1 0-0.1-0.9-0.2-0.8z" />
		<path id="Layer" class="s17" d="m59.1 44.4c0.2 0.1 0.3 0.3 0.3 0.6v7c0 0.2-0.2 0.3-0.3 0.2l-9.8-5.6c-0.1-0.2-0.3-0.4-0.3-0.6v-7c0-0.2 0.2-0.3 0.4-0.2z" />
		<path id="Layer" class="s16" d="m49.5 46.3c-0.1-0.1-0.2-0.2-0.2-0.3l0.1-6.8l9.5 5.5c0.1 0 0.2 0.2 0.2 0.3v6.8z" />
		<path id="Layer" class="s39" d="m56.6 43.4l2.3 1.3c0.1 0 0.2 0.2 0.2 0.3v6.8l-2.5-1.4z" />
		<g id="Layer" style="opacity: .7">
			<path id="Layer" class="s40" d="m60.3 52.7c0.2 0.1 0.2 0.2 0 0.4l-6.1 3.5c-0.2 0.1-0.5 0.1-0.6 0l-9.8-5.6c-0.2-0.1-0.2-0.3 0-0.4l6.1-3.5c0.2-0.1 0.5-0.1 0.6 0z" />
		</g>
		<path id="Layer" class="s23" d="m59.2 52.4v0.4q0 0.1-0.1 0.2l-6.1 3.5c-0.2 0.1-0.5 0.1-0.7 0l-9.7-5.6q-0.1-0.1-0.1-0.2v-0.4c0 0 0.8-0.3 0.9-0.2l8.3 4.6c0.2 0.1-0.3-0.6-0.1-0.7l3.3-2.3c0.1-0.1 4.3 0.7 4.3 0.7z" />
		<path id="Layer" class="s16" d="m59.1 52.2c0.1 0.1 0.1 0.2 0 0.3l-6.1 3.6c-0.2 0.1-0.5 0.1-0.7 0l-9.7-5.6c-0.2-0.2-0.2-0.3 0-0.4l6.1-3.6c0.2-0.1 0.5-0.1 0.6 0z" />
		<path id="Layer" class="s28" d="m48.1 46.9l0.7 0.4l-3.8 2.1l-0.6-0.3z" />
		<path id="Layer" class="s22" d="m57.8 52.5l0.7 0.4l-3.8 2.1l-0.6-0.3z" />
		<path id="Layer" class="s11" d="m50.7 48.3q0.1 0 0 0l-0.4 0.3q0 0 0 0l-0.4-0.3q0 0 0 0l0.4-0.2q0 0 0 0zm3.8 3.5q0 0 0 0l-0.4 0.3q0 0-0.1 0l-0.4-0.3q0 0 0 0l0.4-0.2q0.1-0.1 0.1 0zm-1.2-0.8q0 0.1 0 0.1l-0.4 0.2q-0.1 0-0.1 0l-0.4-0.2q0 0 0-0.1l0.4-0.2q0 0 0.1 0zm2.4 2.1q0.1 0 0 0.1l-0.4 0.2q0 0 0 0l-1-0.6q-0.1 0 0 0l0.4-0.3q0 0 0 0zm-4.3-2.4q0.1 0 0 0l-0.4 0.2q0 0 0 0l-0.4-0.2q-0.1 0 0 0l0.4-0.3q0 0 0 0zm0.6 0.4q0.1 0 0 0l-0.4 0.2q0 0.1 0 0l-0.4-0.2q0 0 0 0l0.4-0.3q0 0 0 0zm-2.2-3.6q0 0 0 0h-0.1q0 0.1 0 0l-0.4-0.2q-0.1 0 0 0l0.1-0.1q0 0 0 0zm0.6 0.4q0.1 0 0 0l-0.1 0.1q0 0 0 0l-0.4-0.3q-0.1 0 0 0l0.1-0.1q0 0 0 0zm-0.3 0.2q0 0.1 0 0.1l-0.4 0.2q0 0-0.1 0l-1-0.6q0 0 0 0l0.4-0.2q0.1-0.1 0.1 0zm1.5 0.5q0.1 0 0 0l-0.1 0.1q0 0 0 0l-0.4-0.3q0 0 0 0l0.1-0.1q0 0 0 0zm-2.1-0.1q0 0 0 0l-0.4 0.2q0 0-0.1 0l-0.4-0.2q0 0 0 0l0.4-0.3q0.1 0 0.1 0z" />
		<path id="Layer" fill-rule="evenodd" class="s11" d="m48.9 47.9q0.1 0 0 0.1l-0.5 0.3l0.6 0.3q0 0 0 0.1l-0.4 0.2q-0.1 0-0.1 0l-1-0.6q0 0 0 0l1-0.6q0 0 0 0zm1.3 0.7q0 0 0 0l-0.4 0.3q-0.1 0-0.1 0l-0.4-0.3q0 0 0 0l0.4-0.2q0 0 0.1 0zm1.2 0q0 0 0 0l-0.4 0.3q-0.1 0-0.1 0l-0.4-0.3q0 0 0 0l0.4-0.2q0-0.1 0.1 0zm-4.2 0.3q0 0 0 0l-0.4 0.2q0 0-0.1 0l-0.4-0.2q0 0 0 0l0.4-0.3q0.1 0 0.1 0zm2.4 0.1q0 0 0 0l-0.4 0.2q-0.1 0-0.1 0l-0.4-0.2q0 0 0 0l0.4-0.3q0 0 0.1 0zm1.2 0q0 0.1 0 0.1l-0.4 0.2q-0.1 0-0.1 0l-0.4-0.2q0 0 0-0.1l0.4-0.2q0 0 0.1 0zm-1.8 0.3q0 0 0 0.1l-0.4 0.2q0 0-0.1 0l-1.6-0.9q0-0.1 0-0.1l0.4-0.2q0 0 0.1 0zm1.2 0q0 0 0 0l-0.4 0.3q-0.1 0-0.1 0l-0.4-0.3q0 0 0 0l0.4-0.2q0 0 0.1 0zm1.1 0q0.1 0 0 0l-0.4 0.3q0 0 0 0l-0.4-0.3q0 0 0 0l0.4-0.2q0-0.1 0 0zm-2.9 0.3q0 0 0 0l-0.4 0.2q-0.1 0-0.1 0l-0.4-0.2q0 0 0 0l0.4-0.3q0 0 0.1 0zm1.2 0q0 0.1 0 0.1l-0.4 0.2q-0.1 0-0.1 0l-0.4-0.2q0 0 0-0.1l0.4-0.2q0 0 0.1 0zm1.2 0q0 0 0 0.1l-0.4 0.2q-0.1 0-0.1 0l-0.4-0.2q0-0.1 0-0.1l0.4-0.2q0 0 0.1 0zm2.3 0q0.1 0 0 0.1l-0.3 0.2q-0.1 0-0.1 0l-0.4-0.2q0-0.1 0-0.1l0.4-0.2q0 0 0 0zm0.2 2.8q0 0 0 0l-0.4 0.2q-0.1 0-0.1 0l-4.7-2.7q0 0 0 0l0.4-0.2q0-0.1 0.1 0zm-1.9-2.5q0 0 0 0l-0.4 0.3q-0.1 0-0.1 0l-0.4-0.3q0 0 0 0l0.4-0.2q0 0 0.1 0zm1.2 0q0 0 0 0l-0.4 0.3q-0.1 0-0.1 0l-0.4-0.3q0 0 0 0l0.4-0.2q0-0.1 0.1 0zm1.2 0q0 0 0 0l-0.4 0.2q-0.1 0.1-0.1 0l-0.4-0.2q0 0 0 0l0.4-0.3q0 0 0.1 0zm-3 0.3q0 0.1 0 0.1l-0.4 0.2q0 0-0.1 0l-0.4-0.2q0 0 0-0.1l0.4-0.2q0 0 0.1 0zm1.2 0q0 0 0 0.1l-0.4 0.2q-0.1 0-0.1 0l-0.4-0.2q0-0.1 0-0.1l0.4-0.2q0 0 0.1 0zm2.4 0q0 0 0 0.1l-0.4 0.2q-0.1 0-0.1 0l-0.4-0.2q0-0.1 0-0.1l0.4-0.2q0 0 0.1 0zm-1.8 0.3q0 0 0 0.1l-0.4 0.2q0 0-0.1 0l-0.4-0.2q0-0.1 0-0.1l0.4-0.2q0.1 0 0.1 0zm3.9 0.5q0.1 0.1 0 0.1h-0.1q0 0 0 0l-0.4-0.2q-0.1 0 0 0l0.1-0.1q0 0 0 0zm-0.9-0.2q0 0.1 0 0.1l-0.4 0.2q0 0-0.1 0l-0.4-0.2q0 0 0-0.1l0.4-0.2q0.1 0 0.1 0zm-3 0.3q0 0 0 0.1l-0.4 0.2q0 0 0 0l-0.5-0.2q0-0.1 0-0.1l0.4-0.2q0.1 0 0.1 0zm1.2 0q0 0 0 0l-0.4 0.3q0 0-0.1 0l-0.4-0.3q0 0 0 0l0.4-0.2q0.1 0 0.1 0zm3.3 0.2q0.1 0 0 0l-0.1 0.1q0 0 0 0l-0.4-0.3q0 0 0 0l0.1-0.1q0 0 0 0zm-2.1-0.1q0 0 0 0l-0.4 0.2q0 0-0.1 0l-0.4-0.2q0 0 0 0l0.4-0.3q0.1 0 0.1 0zm1.2 0q0 0.1 0 0.1l-0.4 0.2q0 0-0.1 0l-0.4-0.2q0 0 0-0.1l0.4-0.2q0.1 0 0.1 0zm-3 0.3q0 0 0 0l-0.4 0.3q0 0 0 0l-0.4-0.3q-0.1 0 0 0l0.4-0.2q0 0 0 0zm4.5 0.2q0.1 0 0 0l-0.1 0.1q0 0 0 0l-0.4-0.3q0 0 0 0h0.1q0-0.1 0 0zm-2.1-0.2q0 0 0 0l-0.4 0.2q0 0.1-0.1 0l-0.4-0.2q0 0 0 0l0.4-0.3q0.1 0 0.1 0zm1.2 0.1q0 0 0 0l-0.4 0.2q0 0-0.1 0l-0.4-0.2q0 0 0 0l0.4-0.3q0.1 0 0.1 0zm-3 0.3q0 0.1 0 0.1l-0.4 0.2q0 0 0 0l-0.4-0.2q-0.1 0 0-0.1l0.4-0.2q0 0 0 0zm3.6 0.1q0 0 0 0l-0.4 0.2q0 0-0.1 0l-0.4-0.2q0 0 0 0l0.4-0.3q0.1 0 0.1 0zm-7.3-2.2q0.1 0.1 0 0.1l-0.4 0.2q0 0 0 0l-0.4-0.2q-0.1 0 0-0.1l0.4-0.2q0 0 0 0zm4.3 2.5q0.1 0 0 0l-0.4 0.3q0 0 0 0l-0.4-0.3q-0.1 0 0 0l0.4-0.2q0-0.1 0 0zm2.4 0q0 0 0 0l-0.4 0.3q0 0 0 0l-1.1-0.6q0 0 0-0.1l0.4-0.2q0.1 0 0.1 0zm-3 0.3q0.1 0 0 0l-0.4 0.3q0 0 0 0l-0.4-0.3q-0.1 0 0 0l0.4-0.2q0 0 0 0zm2.4 0q0 0 0 0l-0.4 0.3q0 0 0 0l-1.7-1q0 0 0 0l0.4-0.2q0.1 0 0.1 0zm-1.8 0.3q0 0 0 0l-0.4 0.3q0 0-0.1 0l-0.4-0.3q0 0 0 0l0.4-0.2q0.1-0.1 0.1 0zm0.6 0.3q0 0 0 0.1l-0.4 0.2q0 0 0 0l-0.4-0.2q-0.1-0.1 0-0.1l0.4-0.2q0 0 0 0zm-7.3-4.3q0 0 0 0.1l-0.4 0.2q-0.1 0-0.1 0l-0.4-0.2q0-0.1 0-0.1l0.4-0.2q0 0 0 0zm4.3 0.4q0 0 0 0l-0.4 0.3q-0.1 0-0.1 0l-0.4-0.3q0 0 0 0l0.4-0.2q0 0 0 0zm1.3 0.7q0 0 0 0l-0.4 0.2q-0.1 0.1-0.1 0l-0.4-0.2q0 0 0 0l0.4-0.3q0 0 0.1 0zm0.6 0.4q0 0 0 0l-0.4 0.3q0 0-0.1 0l-0.4-0.3q0 0 0 0l0.4-0.2q0.1 0 0.1 0zm1.2 0q0 0 0 0l-0.4 0.3q0 0-0.1 0l-0.4-0.3q0 0 0 0l0.4-0.2q0.1-0.1 0.1 0zm-0.6 0.3q0 0 0 0l-0.4 0.3q0 0-0.1 0l-0.4-0.3q0 0 0 0l0.4-0.2q0.1-0.1 0.1 0zm1.5-0.2q0 0 0 0l-0.1 0.1q0 0 0 0l-0.4-0.3q-0.1 0 0 0h0.1q0-0.1 0 0zm-0.6-0.4q0 0 0 0l-0.1 0.1q0 0-0.1 0l-0.4-0.2q0-0.1 0-0.1h0.1q0.1 0 0.1 0zm-0.6-0.4q0 0 0 0l-0.1 0.1q0 0-0.1 0l-0.4-0.2q0 0 0-0.1h0.1q0.1 0 0.1 0zm-0.6-0.4q0 0 0 0.1h-0.1q-0.1 0-0.1 0l-0.4-0.2q0 0 0-0.1h0.1q0 0 0.1 0zm-0.6-0.4q0 0.1 0 0.1h-0.1q-0.1 0-0.1 0l-0.4-0.2q0 0 0 0l0.1-0.1q0 0 0 0zm-1.5-0.5q0 0 0 0l-0.4 0.3q0 0-0.1 0l-0.4-0.3q0 0 0 0l0.4-0.2q0.1-0.1 0.1 0zm0.6 0.3q0 0 0 0l-0.4 0.3q0 0 0 0l-0.5-0.3q0 0 0 0l0.4-0.2q0.1 0 0.1 0zm0.3-0.2q0.1 0 0 0l-0.1 0.1q0 0 0 0l-0.4-0.3q0 0 0 0h0.1q0-0.1 0 0zm-0.6-0.4q0 0 0 0l-0.1 0.1q0 0 0 0l-0.4-0.2q-0.1-0.1 0-0.1h0.1q0 0 0 0zm-1.2-0.7q0 0 0 0h-0.1q0 0.1-0.1 0l-0.4-0.2q0 0 0 0l0.1-0.1q0.1 0 0.1 0z" />
		<path id="Layer" fill-rule="evenodd" class="s23" d="m48.6 50.6l2.4 1.4q0.2 0 0.2 0.2q0 0.1-0.2 0.2l-1.6 0.9c-0.2 0.1-0.4 0.1-0.5 0l-2.4-1.3q-0.1-0.1-0.1-0.3q0-0.1 0.1-0.2l1.6-0.9q0.1-0.1 0.3-0.1q0.1 0 0.2 0.1zm0.7 2.6l1.6-0.9q0.1-0.1 0.1-0.1q0-0.1-0.1-0.2l-2.3-1.3c-0.1-0.1-0.3-0.1-0.4 0l-1.6 0.9q-0.1 0.1-0.1 0.1q0 0.1 0.1 0.2l2.3 1.3q0.1 0.1 0.2 0.1q0.1 0 0.2-0.1z" />
		<path id="Layer" class="s16" d="m58.8 45.4c0 0 0.1 0.1 0.1 0.1v0.8q0 0.1-0.1 0l-0.7-0.3c0-0.1-0.1-0.2-0.1-0.2v-0.8q0-0.1 0.1 0zm0 1.5c0.1 0 0.1 0.1 0.1 0.2v0.7q0 0.1-0.1 0.1l-0.6-0.4c-0.1 0-0.1-0.1-0.1-0.2v-0.7q0-0.1 0.1-0.1zm0 1.6c0.1 0 0.1 0.1 0.1 0.1v0.8q0 0.1-0.1 0l-0.6-0.3c-0.1-0.1-0.1-0.2-0.1-0.2v-0.8q0-0.1 0.1 0zm0 1.5c0 0 0.1 0.1 0.1 0.2v0.7q0 0.1-0.1 0.1l-0.7-0.4c0 0-0.1-0.1-0.1-0.2v-0.7q0-0.1 0.1-0.1z" />
		<path id="Layer" class="s16" d="m57.6 44.6c0.1 0.1 0.1 0.1 0.1 0.2v0.7q0 0.2-0.1 0.1l-0.6-0.4c-0.1 0-0.1-0.1-0.1-0.2v-0.7q0-0.1 0.1 0zm0 1.5c0 0 0.1 0.1 0.1 0.2v0.7q0 0.1-0.1 0.1l-0.7-0.4c0 0-0.1-0.1-0.1-0.2v-0.7q0-0.1 0.1-0.1zm0 1.5c0.1 0.1 0.1 0.1 0.1 0.2v0.7q0 0.2-0.1 0.1l-0.6-0.4c-0.1 0-0.1-0.1-0.1-0.1v-0.8q0-0.1 0.1 0zm0 1.5c0.1 0 0.1 0.1 0.1 0.2v0.7q0 0.1-0.1 0.1l-0.6-0.4c-0.1 0-0.1-0.1-0.1-0.2v-0.7q0-0.1 0.1-0.1z" />
		<path id="Layer" class="s12" d="m72.6 38.9q0.1 0 0 0c-0.4 0-0.4-0.2-0.3-0.3c0-0.2 0.4-0.1 0.8-0.1c0.5-0.1 0.9-0.2 1.2 0.2c0.3 0.5 0 1.1-0.9 1.7c-0.6 0.3-0.9-0.8-0.9-0.8c0 0-0.7 0.6-0.9 0.4c-0.2-0.3 0.7-0.9 1-1.1z" />
		<path id="Layer" class="s16" d="m73.5 38.3q0.4-0.3 0.9-0.6l0.2 1.9q-0.2 0.1-0.3 0.1c-0.1 0.1-0.9-1.3-0.8-1.4z" />
		<path id="Layer" class="s29" d="m79.8 34.3c0.6-2 1.1-4.2 2.3-6c0.3-0.7 1.1-1.2 1.8-0.8c0.7 0.3 0.8 1.3 0.5 2.2c-0.5 2-0.9 4.1-2.3 6.2v0.1q-0.2 0.3-0.6 0.5c-2.1 1-5.2 2.6-7.1 3.2c-0.1 0.1-0.9-1.4-0.8-1.4c1.7-1.4 4.6-3.1 6.2-4z" />
		<path id="Layer" class="s24" d="m42.5 67.2l2-0.6c0 0 1.8-0.7 2.3-0.2c0.4 0.5-0.6 1.7-2.5 2.2c0 0-0.6 0.5-1.5 0.2c-0.2 0-0.3-0.2-0.4-0.3c-0.1-0.4-0.2-1.1 0.1-1.3z" />
		<path id="Layer" class="s17" d="m46.5 69.7l1.9-0.7c0 0 1.9-0.6 2.3-0.1c0.5 0.5-0.5 1.7-2.5 2.1c0 0-0.6 0.5-1.5 0.3c-0.1-0.1-0.3-0.2-0.3-0.4c-0.2-0.3-0.3-1.1 0.1-1.2z" />
		<path id="Layer" class="s28" d="m48.6 69c0 0.3-1.5 1-2.1 0.8q-0.1 0-0.1-0.1c-0.5-3-0.5-6.6-0.4-8.8l2.1-3q0.1 0 0.1 0c1.6 1.9 0.4 11.1 0.4 11.1z" />
		<path id="Layer" class="s24" d="m36.5 58.8l-0.7-0.4v-4.7q0-0.2-0.1-0.2l0.7 0.4q0.1 0 0.1 0.2z" />
		<path id="Layer" class="s11" d="m36.8 53.2q-0.3-0.1-0.6 0.1l-5 2.9c-0.5 0.2-0.8 0.9-0.8 1.4v4.7l-0.7-0.4v-4.7c0-0.5 0.3-1.2 0.8-1.4l5-2.9q0.4-0.2 0.6-0.1z" />
		<path id="Layer" class="s17" d="m36.2 53.3c0.5-0.3 0.8-0.1 0.8 0.5v4.7l-0.5 0.3v-4.7c0-0.2-0.1-0.3-0.3-0.2l-5 2.9c-0.2 0.1-0.3 0.3-0.3 0.5v4.7l-0.5 0.3v-4.7c0-0.5 0.3-1.2 0.8-1.4z" />
		<path id="Layer" class="s23" d="m33.3 61.9v-3.9l2.4 0.4c0 0 6.6-5.1 8.5-2.7c1.6 1.8 0.5 10.8 0.5 10.8c0 0.4-1.5 1-2.1 0.9q-0.1 0-0.2-0.2c-0.4-2.9-0.4-6.4-0.3-8.6c0 0-4.8 3.7-8.8 3.3z" />
		<path id="Layer" class="s11" d="m44.9 71q0.2-0.1 0.4 0l0.5 0.2q-0.2-0.1-0.5 0.1c-0.3 0.2-0.2 0.7-0.2 1.1c0 0.2-0.3 0.2-0.2 0.3l-0.5-0.3q-0.1-0.1-0.1-0.4c0-0.4 0.2-0.8 0.6-1z" />
		<path id="Layer" class="s17" d="m45.3 71.3c0.4-0.2 0.7-0.1 0.7 0.3c0 0.4-0.3 0.9-0.6 1.1c-0.4 0.2-0.7 0-0.7-0.4c0-0.4 0.3-0.8 0.6-1z" />
		<path id="Layer" class="s23" d="m45.3 71.6c0.2-0.2 0.4-0.1 0.4 0.2c0 0.2-0.2 0.5-0.3 0.6c-0.3 0.1-0.4 0-0.4-0.2c0-0.3 0.1-0.5 0.3-0.6z" />
		<path id="Layer" class="s23" d="m40.4 74.2l-0.4-0.3v-1.1l0.4 0.3z" />
		<path id="Layer" class="s24" d="m45.8 71.1l-5.4 3.1v-1.1l-0.4-0.3l5.3-3.1l0.5 0.3z" />
		<path id="Layer" class="s11" d="m40.4 73.1l-0.4-0.3l5.3-3.1l0.5 0.3z" />
		<path id="Layer" class="s24" d="m45.8 70v1.1l-5.4 3.1v-1.1z" />
		<path id="Layer" class="s11" d="m33.5 72.2q0 0.3-0.2 0.4l-0.5 0.3c0.1-0.1-0.1-0.2-0.1-0.4c0-0.4-0.4-0.6-0.8-0.7c-0.1-0.1 0.2-0.5 0-0.4l0.5-0.3q0.2-0.1 0.5 0c0.3 0.2 0.6 0.7 0.6 1.1z" />
		<path id="Layer" class="s17" d="m33 72.5c0 0.3-0.3 0.5-0.6 0.3c-0.4-0.2-0.6-0.7-0.6-1c0-0.4 0.2-0.6 0.6-0.4c0.3 0.2 0.6 0.7 0.6 1.1z" />
		<path id="Layer" class="s23" d="m32.7 72.3c0 0.3-0.1 0.4-0.3 0.2c-0.2-0.1-0.4-0.4-0.4-0.6c0-0.2 0.2-0.3 0.4-0.2c0.2 0.1 0.3 0.4 0.3 0.6z" />
		<path id="Layer" class="s23" d="m37.2 73.1l0.4-0.3v1.1l-0.4 0.3z" />
		<path id="Layer" class="s11" d="m31.8 70l0.5-0.3l5.3 3.1l-0.3 0.3c-2-0.8-4-1.8-5.5-3.1z" />
		<path id="Layer" class="s24" d="m37.3 73.1l-0.1 1.1l-5.4-3.1v-1.1z" />
		<path id="Layer" class="s23" d="m37.7 73.9c0.8 0.4 1.9 0.6 2.6 0.1c0.4-0.2 0.7-0.3 0.7-0.6v1.7c0 0.3-0.1 0.6-0.5 0.8c-0.8 0.4-2 0.4-2.8 0c-0.3-0.2-0.6-0.5-0.6-0.8v-1.7c0 0.3 0.2 0.3 0.6 0.5z" />
		<path id="Layer" class="s16" d="m40.5 72.6c0.7 0.5 0.7 1.2 0 1.6c-0.8 0.5-2.1 0.5-2.8 0c-0.8-0.4-0.8-1.1 0-1.6c0.8-0.4 2-0.4 2.8 0z" />
		<path id="Layer" class="s17" d="m38.4 65.1c0.4 0.2 1 0.2 1.4 0q0.3-0.2 0.3-0.5v8.8q0 0.2-0.3 0.4c-0.4 0.2-1 0.2-1.4 0q-0.3-0.2-0.3-0.4v-8.8q0 0.3 0.3 0.5z" />
		<path id="Layer" class="s25" d="m39.8 64.2c0.4 0.3 0.4 0.6 0 0.9c-0.4 0.2-1 0.2-1.4 0c-0.4-0.3-0.4-0.6 0-0.9c0.4-0.2 1-0.2 1.4 0z" />
		<path id="Layer" class="s17" d="m33.4 78.9c0 0.3-0.2 0.8-0.6 1q-0.2 0.1-0.4 0q0 0 0 0l-0.5-0.2q-0.1-0.1-0.1-0.4c0-0.4 0.2-0.9 0.6-1.1q0.2-0.1 0.4 0l0.5 0.3q0 0-0.1 0q0-0.1-0.1-0.1q0 0 0 0q0 0 0 0q0.1 0 0.1 0.1q0.2 0 0.2 0.4z" />
		<path id="Layer" class="s11" d="m32.4 78.2q0.2-0.1 0.4 0l0.5 0.3q-0.2-0.1-0.5 0c-0.3 0.2-0.6 0.7-0.6 1.1q0 0.2 0.2 0.3l-0.5-0.2q-0.1-0.1-0.1-0.4c0-0.4 0.2-0.9 0.6-1.1z" />
		<path id="Layer" class="s17" d="m32.8 78.5c0.4-0.2 0.6 0 0.6 0.4c0 0.3-0.2 0.8-0.6 1c-0.3 0.2-0.6 0-0.6-0.3c0-0.4 0.3-0.9 0.6-1.1z" />
		<path id="Layer" class="s23" d="m32.8 78.8c0.2-0.1 0.4 0 0.4 0.2c0 0.2-0.2 0.5-0.4 0.6c-0.2 0.1-0.3 0-0.3-0.2c0-0.2 0.1-0.5 0.3-0.6z" />
		<path id="Layer" class="s11" d="m32.5 77.7l-0.5-0.3l5.4-3.1l0.4 0.3q-2.4 2-5.3 3.1z" />
		<path id="Layer" class="s24" d="m37.8 75.7l-5.3 3.1l-0.5-0.3v-1.1l0.5 0.3l5.3-3.1z" />
		<path id="Layer" class="s24" d="m32.5 78.8l-0.5-0.3v-1.1l0.5 0.3z" />
		<path id="Layer" class="s24" d="m37.8 74.6v1.1l-5.3 3.1v-1.1z" />
		<path id="Layer" class="s11" d="m45.8 79.2q0 0.3-0.1 0.4l-0.5 0.3c0.1-0.1-0.1-0.2-0.1-0.4c0-0.4-0.1-0.5-0.4-0.7c-0.2-0.1-0.3-0.4-0.4-0.4l0.5-0.3q0.2 0 0.4 0.1c0.4 0.2 0.6 0.6 0.6 1z" />
		<path id="Layer" class="s17" d="m45.4 79.5c0 0.4-0.3 0.6-0.7 0.4c-0.3-0.2-0.6-0.7-0.6-1.1c0-0.4 0.3-0.5 0.7-0.3c0.3 0.2 0.6 0.6 0.6 1z" />
		<path id="Layer" class="s23" d="m45.1 79.4c0 0.2-0.1 0.3-0.4 0.2c-0.2-0.1-0.3-0.4-0.3-0.6c0-0.3 0.2-0.4 0.4-0.2c0.2 0.1 0.3 0.3 0.3 0.6z" />
		<path id="Layer" class="s24" d="m45.1 77.7l0.5-0.3v1.1l-0.5 0.3c-0.4-0.5-0.4-0.9 0-1.1z" />
		<path id="Layer" class="s11" d="m40.1 74.8l0.4-0.3l5.1 2.9l-0.5 0.3c-1.8-0.4-3.5-1.3-5-2.9z" />
		<path id="Layer" class="s24" d="m45.1 77.7v1.1l-5-2.9v-1.1z" />
		<path id="Layer" fill-rule="evenodd" class="s41" d="m47.9 60.8v2.6q0 0.3-0.4 0.5l-7.5 4.4c-0.5 0.3-1.3 0.3-1.8 0l-7.6-4.4q-0.4-0.2-0.4-0.5v-2.6q0-0.3 0.4-0.5l7.5-4.4c0.5-0.3 1.3-0.3 1.8 0l7.6 4.4q0.4 0.2 0.4 0.5zm-17.6 0.3q0-0.1 0-0.1q0 0 0 0.1zm9.6 4.7q-0.1 0-0.2 0.1q0.1-0.1 0.2-0.1z" />
		<path id="Layer" fill-rule="evenodd" class="s41" d="m30.3 61.1q0-0.1 0-0.1q0 0 0 0.1zm9.6 4.7q-0.1 0-0.2 0.1q0.1-0.1 0.2-0.1z" />
		<path id="Layer" fill-rule="evenodd" class="s41" d="m30.3 61.1q0-0.1 0-0.1q0 0 0 0.1zm9.6 4.7q-0.1 0-0.2 0.1q0.1-0.1 0.2-0.1z" />
		<path id="Layer" class="s41" d="m47.9 60.8v2.6q0 0.3-0.4 0.5l-7.5 4.4c-0.5 0.3-1.3 0.3-1.8 0l-7.6-4.4q-0.4-0.2-0.4-0.5v-2.6q0 0.3 0.4 0.6l7.6 4.3c0.5 0.3 1.3 0.3 1.8 0l7.5-4.3q0.4-0.3 0.4-0.6z" />
		<path id="Layer" class="s29" d="m30.6 60.3l7.5-4.4c0.5-0.3 1.3-0.3 1.8 0l7.6 4.4c0.5 0.3 0.5 0.8 0 1.1l-7.5 4.3c-0.5 0.3-1.3 0.3-1.8 0l-7.6-4.3c-0.5-0.3-0.5-0.8 0-1.1z" />
		<path id="Layer" class="s28" d="m48.1 57.9l-2.1 3c0 0-7 5.5-11.2 2.4c-4.3-3 0.3-3.3 0.3-3.3l4.6 0.7c0 0 6.4-5 8.4-2.8z" />
		<path id="Layer" class="s12" d="m44.3 50.3c0.3-0.5 2.2-1.1 2.4-0.9c0.2 0.1 0.1 0.5-0.5 0.7c-0.5 0.2-0.9 0.7-0.9 0.7c0.3-0.1 0.7 0 0.6 0.3c-0.1 0.3-0.8 0.3-1.2 0.3c-0.3 0-0.8-0.5-0.4-1.1z" />
		<path id="Layer" class="s23" d="m43.8 50.5q0.2 0 0.4-0.1c0.2-0.1 1 1 0.9 1.1q-0.6 0.5-1.3 0.9z" />
		<path id="Layer" class="s27" d="m39.6 51.8v-0.9q0.2 0.5 0.4 1c0.1 0.2 0.2 0.3 0.4 0.2c1.4-0.8 2.1-1.1 3.6-1.7c0.2-0.1 1.1 1.1 1 1.2q-2 1.6-4.5 2.9c-0.8 0.4-1.6 0.2-2.2-0.4c-0.5-0.6-1.2-1.4-1.7-2.3z" />
		<path id="Layer" class="s23" d="m43.8 58.1l-0.6 0.4l0.1-0.7z" />
		<path id="Layer" class="s19" d="m33.1 48.7c0.6-2.6 2.8-1.8 2.8-1.8l6.7 3c0.9 0.2 1.1 7.3 0.2 11.2c-0.1 0.5-0.4 0.9-0.8 1.2c-2.3 1.7-5 0-7.8-1.9c-2-1.3-1.6-9-1.1-11.7z" />
		<path id="Layer" class="s16" d="m36.8 47.1v0.1c0.1 0.2 1.1 1.7 3.3 1q0.3 0.6 0.7 0.9c0 0-3.9 1.2-4.6-1.5v-0.6z" />
		<path id="Layer" class="s20" d="m35.1 44.7l2.6-0.2l-0.2-4.3l2.2-0.1v-0.6q0.1 0.1 0.3 0.2c0.5 0.2 1.2 0.4 1.7 0.4c0 0 0.2 1.1-0.3 1.4q0 0 0 0c0 0.1 0.5 1.4 0.2 1.9c0 0-0.3 0.3 0 0.9c0.4 0.7 0.5 2.7-1.1 3c0 0-0.5 0.6-0.3 1.5c0 0-2.6 0.4-3.5-1.4l0.2-0.3c0 0-1.2-1.1-1.8-2.4z" />
		<path id="Layer" class="s12" d="m36.9 47.1c1.4 0.7 3.6 0.2 3.6 0.2c0 0-0.5 0.6-0.3 1.5c0 0-2.8 0.4-3.6-1.6z" />
		<path id="Layer" class="s17" d="m34.9 42.5c0 0-0.3-2 2-2.9c1-0.4 2.3-0.4 3.3 0.1c0.6 0.2 1.2 0.4 1.8 0.5c0 0 0.2 1.1-0.3 1.4q0 0 0 0q-0.1 0-0.1 0c0 0.1-0.4 0.6-0.9 0.8q0 0 0 0c0 0 0.7 3.8-0.4 3.3c0 0-0.1-0.5-0.5-0.6c-0.5-0.1-0.9 0.2-0.8 0.8c0.1 0.6 0.6 2.7-1.8 1.7q-0.5-0.2-0.9-0.7c-0.8-0.9-2.3-3.1-1.4-4.4z" />
		<path id="Layer" class="s24" d="m40.7 42.4v0.2c-1.5 0.4-4.1 0.1-5.2 0c1.6 0.1 5.2-0.2 5.2-0.2z" />
		<path id="Layer" class="s12" d="m49.4 53.4c0.3-0.2 0.8-0.9 1.1-0.7c0.3 0.1 0.1 0.5-0.2 0.6c0 0 0.7 0.1 1.3-0.2c0.5-0.3 0.9-0.2 0.9 0.1c-0.1 0.4-1.8 1.4-2.5 1.3c-0.7-0.1-0.8-0.8-0.6-1.1z" />
		<path id="Layer" class="s23" d="m49 53.6q0.2-0.1 0.5-0.2c0.1-0.1 1 1 0.9 1.1q-0.7 0.5-1.4 0.9z" />
		<path id="Layer" class="s19" d="m43.6 57.1c-1.5-1.7-4-4.9-2.8-6.7c0.3-0.5 0.9-0.7 1.5-0.5c1 0.4 1.5 0.8 2.9 5c0.1 0.2 0.3 0.3 0.5 0.2c1.4-0.7 2-1.1 3.6-1.7c0.1-0.1 1.1 1.1 0.9 1.2q-2 1.6-4.5 2.9c-0.7 0.4-1.6 0.2-2.1-0.4z" />
		<path id="Layer" class="s32" d="m29.4 49.6q0 0-0.1 0q0.1 0 0.1 0q0 0 0 0zm9 14.8q-0.1 0-0.1 0.1q0-0.1 0.1-0.1zm0-0.1q0-0.1 0-0.2q0 0.1 0 0.2z" />
		<path id="Layer" fill-rule="evenodd" class="s32" d="m40.4 54.5v8.4q0 0.4-0.3 0.6l-1.9 1.1q0 0 0 0q-0.3 0.1-0.7-0.1l-7.5-4.4c-0.5-0.3-0.9-1-0.9-1.5v-8.4q0-0.5 0.2-0.6q0.1 0 0.1 0q0 0 0 0l1.9-1.1q0.2-0.2 0.6 0l7.6 4.4c0.5 0.3 0.9 1 0.9 1.6zm-2.2 10.1q0 0 0 0zm0.2-0.2q-0.1 0-0.1 0.1q0-0.1 0.1-0.1z" />
		<path id="Layer" class="s32" d="m29.4 49.6q0 0-0.1 0q0.1 0 0.1 0q0 0 0 0zm9 14.8q-0.1 0-0.1 0.1q0-0.1 0.1-0.1zm0-0.1q0-0.1 0-0.2q0 0.1 0 0.2z" />
		<path id="Layer" class="s31" d="m40.4 54.5v8.4q0 0.4-0.3 0.6l-1.9 1.1q0.2-0.2 0.3-0.6v-8.4c0-0.6-0.4-1.3-0.9-1.6l-7.6-4.3q-0.4-0.3-0.7-0.1l2-1.1q0.2-0.2 0.6 0l7.6 4.4c0.5 0.3 0.9 1 0.9 1.6z" />
		<path id="Layer" class="s32" d="m37.6 54c0.5 0.3 0.9 1 0.9 1.6v8.4c0 0.6-0.5 0.8-1 0.5l-7.5-4.4c-0.5-0.3-0.9-1-0.9-1.5v-8.4c0-0.6 0.4-0.8 0.9-0.5z" />
		<path id="Layer" class="s24" d="m46.9 64.7l-0.7-0.4v-4.2l-4.6 2.7c-0.1 0-0.2 0.3-0.2 0.4v4.7l-0.6 0.4l-0.7-0.4v-4.7c0-0.6 0.4-1.2 0.9-1.5l5-2.9q0.3-0.2 0.5 0l0.7 0.4q0.3 0.1 0.3 0.5v4.7l-0.6 0.3q0 0 0 0z" />
		<path id="Layer" class="s24" d="m46.9 64.7l-0.7-0.4v-4.7q0-0.1 0-0.1l0.6 0.4q0.1 0 0.1 0.1z" />
		<path id="Layer" class="s11" d="m47.2 59.2q-0.2-0.2-0.6 0l-5 2.9c-0.4 0.3-0.8 0.9-0.8 1.5v4.7l-0.7-0.4v-4.7c0-0.6 0.4-1.2 0.9-1.5l5-2.9q0.3-0.2 0.5 0z" />
		<path id="Layer" class="s17" d="m46.6 59.2c0.5-0.2 0.9 0 0.9 0.5v4.7l-0.6 0.3v-4.7c0-0.1-0.1-0.2-0.3-0.1l-5 2.9c-0.1 0-0.2 0.3-0.2 0.4v4.7l-0.6 0.4v-4.7c0-0.6 0.4-1.2 0.8-1.5z" />
		<path id="Layer" class="s11" d="m34.7 66.3c-0.4 0.1-0.4-0.1-2.1-1q0.2 0.1 0.4 0.1h0.1l1.6 0.9z" />
		<path id="Layer" class="s24" d="m35.4 66.7l-0.7 0.1q-0.4 0-0.7-0.1q0 0 0 0l-1.6-0.9c-0.3-0.2-0.6-0.5-0.6-1l0.1-6.6l0.4-0.2l1.7 0.9v6.7c0 0.4 0.3 0.7 0.7 0.7z" />
		<path id="Layer" class="s24" d="m31.9 58.2l1.6 0.9v6.6c0 0.5 0.2 0.8 0.5 1l-1.6-0.9c-0.3-0.2-0.6-0.5-0.6-1z" />
		<path id="Layer" class="s11" d="m32.3 58l1.7 0.9l-0.5 0.2l-1.6-0.9z" />
		<path id="Layer" class="s17" d="m33.5 59.1l0.5-0.2v6.7c0 0.4 0.3 0.7 0.7 0.7l0.7 0.4l-0.7 0.1c-0.7 0.1-1.2-0.4-1.2-1.1z" />
		<path id="Layer" class="s28" d="m64.3 52.8l4.6 2.1l-4.5 3.2l-4.5-2.1z" />
		<path id="Layer" class="s16" d="m60 54.5l4.6-2.1l4.4 3.3l-4.6 2z" />
		<path id="Layer" class="s36" d="m64.9 57.1l-0.8-0.6l0.3-0.1l0.7 0.5z" />
		<path id="Layer" class="s42" d="m67 56.4l-0.9-0.7l0.3-0.2l0.9 0.7z" />
		<path id="Layer" class="s36" d="m67.3 55.8l-0.6-0.4l0.3-0.1l0.5 0.3z" />
		<path id="Layer" class="s43" d="m68.2 55.7l-0.8-0.6l0.3-0.1l0.8 0.5z" />
		<path id="Layer" class="s36" d="m65.5 55.5l-1.3-0.9l1.9-0.8l1.2 0.9z" />
		<path id="Layer" class="s25" d="m66 56.4l-0.6-0.4l0.3-0.2l0.5 0.4z" />
		<path id="Layer" class="s31" d="m65.7 57l-0.9-0.7l0.3-0.2l0.9 0.7z" />
		<path id="Layer" class="s19" d="m64.4 57.5l-0.9-0.7l0.3-0.1l0.9 0.7z" />
		<path id="Layer" class="s44" d="m65.2 53.4z" />
		<path id="Layer" class="s45" d="m64.3 53.6l-0.2-0.5c0.3 0 0.6 0 0.9 0.2z" />
		<path id="Layer" class="s46" d="m64.8 54l-0.5-0.4l0.7-0.3c0.2 0.2 0.2 0.5-0.1 0.7q0 0-0.1 0z" />
		<path id="Layer" class="s45" d="m63.1 56.6l-2.5-1.9l1.8-0.9l2.6 1.9z" />
		<path id="Layer" class="s43" d="m63.6 53.9c-0.3-0.2-0.3-0.5 0.1-0.7q0 0 0 0q0.2-0.1 0.4-0.1l0.2 0.5l0.5 0.4c-0.4 0.2-0.9 0.2-1.2-0.1z" />
		<path id="Layer" class="s28" d="m30.7 40.2l3.8 1.8l-3.7 2.7l-3.8-1.8z" />
		<path id="Layer" class="s16" d="m27.1 41.6l3.8-1.7l3.7 2.7l-3.8 1.8z" />
		<path id="Layer" class="s36" d="m31.2 43.8l-0.6-0.4l0.2-0.1l0.6 0.4z" />
		<path id="Layer" class="s42" d="m33 43.2l-0.8-0.6l0.2-0.1l0.8 0.6z" />
		<path id="Layer" class="s36" d="m33.2 42.7l-0.4-0.3l0.2-0.1l0.4 0.3z" />
		<path id="Layer" class="s43" d="m34 42.6l-0.7-0.5l0.2-0.1l0.7 0.5z" />
		<path id="Layer" class="s36" d="m31.7 42.5l-1.1-0.8l1.6-0.7l1 0.8z" />
		<path id="Layer" class="s25" d="m32.1 43.2l-0.4-0.3l0.2-0.1l0.4 0.3z" />
		<path id="Layer" class="s31" d="m31.9 43.7l-0.8-0.6l0.2-0.1l0.8 0.6z" />
		<path id="Layer" class="s19" d="m30.8 44.2l-0.8-0.6l0.3-0.1l0.8 0.6z" />
		<path id="Layer" class="s44" d="m31.4 40.7z" />
		<path id="Layer" class="s45" d="m30.7 40.9l-0.2-0.4c0.3 0 0.6 0 0.8 0.1z" />
		<path id="Layer" class="s46" d="m31.1 41.2l-0.4-0.3l0.6-0.3c0.2 0.2 0.2 0.5-0.1 0.6q0 0-0.1 0z" />
		<path id="Layer" class="s45" d="m29.7 43.4l-2.1-1.6l1.6-0.7l2.1 1.6z" />
		<path id="Layer" class="s43" d="m30.1 41.2c-0.2-0.2-0.2-0.5 0.1-0.6q0 0 0 0q0.2-0.1 0.3-0.1l0.2 0.4l0.4 0.3c-0.3 0.2-0.7 0.2-1 0z" />
		<path id="Layer" class="s23" d="m54.9 45.7l1.3 0.7v0.2l-1.3-0.7z" />
		<path id="Layer" class="s23" d="m52.3 44.2l0.9 0.5v0.2l-0.9-0.5z" />
		<path id="Layer" class="s23" d="m51.1 43.4l1 0.7v0.1l-1-0.6z" />
		<path id="Layer" class="s23" d="m50.9 43.3v0.2l-1.2-0.7v-0.1z" />
		<path id="Layer" class="s47" d="m53.4 44.8l1.3 0.8v0.2l-1.3-0.8z" />
		<path id="Layer" class="s48" d="m53.1 44.1v0.1l-1.2-0.7v-0.2z" />
		<path id="Layer" class="s23" d="m55.6 45.5v0.2l-1.3-0.8v-0.2z" />
		<path id="Layer" class="s23" d="m55.7 45.7v-0.1l0.5 0.2v0.2l-0.5-0.3z" />
		<path id="Layer" class="s23" d="m54.1 44.6v0.2l-0.8-0.5v-0.2z" />
		<path id="Layer" class="s23" d="m51.8 43.3v0.2l-0.9-0.6v-0.2z" />
		<path id="Layer" class="s49" d="m50.8 42.7v0.2l-1.1-0.7v-0.1z" />
		<path id="Layer" class="s49" d="m55.4 44.8l0.8 0.4v0.2l-0.8-0.4z" />
		<path id="Layer" class="s23" d="m53.9 43.9l1.3 0.8v0.2l-1.3-0.8z" />
		<path id="Layer" class="s23" d="m52.6 43.1l1.2 0.7v0.2l-1.2-0.7z" />
		<path id="Layer" class="s23" d="m52.4 43v0.2l-1.2-0.7v-0.2z" />
		<path id="Layer" class="s23" d="m54.3 43.6l1.9 1v0.2l-1.9-1z" />
		<path id="Layer" class="s50" d="m54.2 43.5v0.2l-1.2-0.7v-0.2z" />
		<path id="Layer" class="s23" d="m52.8 42.6v0.2l-1.6-0.9v-0.2z" />
		<path id="Layer" class="s31" d="m54.9 43.3l1.3 0.7v0.2l-1.3-0.7z" />
		<path id="Layer" class="s23" d="m53.7 42.6l1 0.6v0.2l-1-0.6z" />
		<path id="Layer" class="s23" d="m52.4 41.8v0.2l-1.2-0.7v-0.2z" />
		<path id="Layer" class="s23" d="m52.6 41.9l0.8 0.5v0.2l-0.8-0.5z" />
		<path id="Layer" class="s51" d="m50.2 43.6q0 0.1 0 0.1h-0.2l1.1 1l1.1 0.1q0 0 0 0q0 0 0 0l0.9 1.2h1.1q0 0 0 0q0 0 0.1 0l0.8 1.3l1 0.3q0 0 0 0q0 0 0.1 0.1q0 0-0.1 0l-1-0.3h-0.1l-0.8-1.3h-1h-0.1l-0.9-1.1l-1.1-0.2l-1.1-1l0.1 0.2q0 0.1-0.1 0.1q0 0-0.1-0.1l-0.1-0.4q0 0 0-0.1q0 0 0 0h0.3q0 0 0.1 0.1q0 0 0 0z" />
		<path id="Layer" class="s19" d="m51.1 45.3l1.1 0.1l0.9 1.2h1.1l0.9 1.3l1 0.3v0.7v0.8l-6.4-3.6v-2.1z" />
		<path id="Layer" class="s48" d="m51.1 45.9l1.1 0.1l0.9 1.2h1.1l0.9 1.3l1 0.3v1l-6.4-3.6v-1.6z" />
		<path id="Layer" class="s11" d="m49.9 40.4q0 0 0 0l0.9 0.5q0 0 0 0.1q0 0 0 0q0 0.1 0 0.1q0 0 0 0l-0.4-0.2v1.1q0 0 0 0.1q0 0-0.1 0q0-0.1 0-0.1q0 0 0-0.1v-1.1l-0.4-0.2q0 0 0-0.1q-0.1 0-0.1 0q0-0.1 0.1-0.1z" />
		<path id="Layer" class="s52" d="m52.7 30.2q0 0 0 0l2.5 1.4q0 0 0 0.1c-0.2 0.1-0.7 0.3-0.8 0.2l-2.6-1.4c0.1 0 0.6-0.2 0.9-0.3zm-0.9 0.3l2.5 1.4q0 0.1 0 0.1l-2.5-1.5q0 0 0 0z" />
		<path id="Layer" class="s52" d="m54.3 31.9l-2.5-1.4v-0.1l2.5 1.5z" />
		<g id="Layer" style="opacity: .7">
			<path id="Layer" class="s53" d="m57.6 33c0.1 0.1 0.1 0.2 0 0.2l-8.8 5.1c-0.1 0.1-0.3 0.1-0.4 0.1l-6.7-3.9c-0.1-0.1-0.1-0.2 0-0.2l8.8-5.2c0.1 0 0.3 0 0.4 0z" />
		</g>
		<path id="Layer" class="s13" d="m41.2 34q0 0 0 0q0 0 0 0z" />
		<path id="Layer" class="s13" d="m57.2 32.7v0.3q0 0-0.1 0.1l-8.8 5.1c-0.1 0.1-0.2 0.1-0.3 0l-6.8-3.9q0 0 0-0.1v-0.2q0 0 0 0q0 0 0 0q0-0.1 0-0.1l8.9-5.2c0 0 0.2 0 0.3 0l6.7 3.9q0.1 0.1 0.1 0.1z" />
		<path id="Layer" class="s13" d="m41.2 34q0 0 0 0q0 0 0 0z" />
		<path id="Layer" class="s13" d="m41.2 34q0 0 0 0q0 0 0 0z" />
		<path id="Layer" class="s13" d="m57.2 32.7v0.3q0 0-0.1 0.1l-8.8 5.1c-0.1 0.1-0.2 0.1-0.3 0l-6.8-3.9q0 0 0-0.1v-0.2q0 0 0 0l6.8 3.9c0.1 0.1 0.2 0.1 0.3 0l8.8-5.1q0.1 0 0.1-0.1z" />
		<path id="Layer" class="s47" d="m57.1 32.6c0.1 0.1 0.1 0.2 0 0.2l-8.8 5.1c-0.1 0.1-0.2 0.1-0.3 0l-6.8-3.9c-0.1 0-0.1-0.1 0-0.1l8.9-5.2c0 0 0.2 0 0.3 0z" />
		<path id="Layer" class="s16" d="m56.5 32.7l-8.4 4.9l-6.3-3.6l8.4-4.9z" />
		<path id="Layer" class="s54" d="m55.7 32l-0.6 0.4l-4.7-2.8v-0.3l0.6-0.3l4.7 2.7z" />
		<path id="Layer" class="s39" d="m55.7 31.7v0.3l-0.6 0.4v-0.3z" />
		<path id="Layer" class="s25" d="m51 29l4.7 2.7l-0.6 0.4l-4.7-2.8z" />
		<path id="Layer" class="s54" d="m55.1 32.1v0.3l-4.7-2.8v-0.3z" />
		<path id="Layer" class="s17" d="m54.9 32.7l-5.2-3q0 0 0-0.1q0 0 0 0l0.7-0.5q0 0 0.1 0l0.4 0.3q0.1 0 0.1 0.1q-0.1 0-0.1 0l-0.5-0.2l-0.6 0.3l5.2 3l0.6-0.3l-0.2-0.2q-0.1 0 0-0.1q0 0 0 0l0.3 0.2q0.1 0 0.1 0.1q0 0-0.1 0l-0.7 0.4q0 0 0 0q0 0-0.1 0z" />
		<path id="Layer" class="s19" d="m53.5 32.2l1.5 0.8l-0.8 0.4l-1.4-0.8z" />
		<path id="Layer" class="s55" d="m51.6 31.1l1.4 0.8l-0.7 0.4l-1.4-0.8z" />
		<path id="Layer" class="s31" d="m49.7 29.9l1.4 0.9l-0.7 0.4l-1.4-0.8z" />
		<path id="Layer" class="s54" d="m54.8 31.5c0.1 0 0.3 0 0.4 0q0.1 0.1 0 0.2q0 0 0 0c-0.1 0.1-0.3 0.1-0.4 0q0 0 0 0q-0.1-0.1 0-0.2z" />
		<path id="Layer" class="s11" d="m54.8 31.7c0.1-0.1 0.3-0.1 0.4 0q0 0 0 0q0 0 0 0c-0.1 0.1-0.3 0.1-0.4 0q0 0 0 0q0 0 0 0z" />
		<path id="Layer" class="s54" d="m51 29.3c0.1-0.1 0.2-0.1 0.3 0q0.1 0.1 0.1 0.2q-0.1 0-0.1 0c-0.1 0.1-0.2 0.1-0.3 0q-0.1 0-0.1 0q-0.1-0.1 0.1-0.2z" />
		<path id="Layer" class="s11" d="m51 29.4c0.1 0 0.2 0 0.3 0q0 0 0.1 0.1q-0.1 0-0.1 0c-0.1 0.1-0.2 0.1-0.3 0q-0.1 0-0.1 0q0-0.1 0.1-0.1z" />
		<path id="Layer" fill-rule="evenodd" class="s17" d="m43.4 34.2q-0.1-0.1-0.2-0.1q-0.1-0.1-0.1-0.1q0 0 0 0v-0.1q0.1 0 0.1 0c0.2 0 0.3 0 0.5 0q0.1-0.1 0.2-0.1q0-0.1 0.1-0.1q0 0 0 0q0.1 0 0.1 0.1q0 0-0.1 0q0 0-0.1 0.1q0 0 0 0q-0.1 0-0.2 0q0 0 0 0q0 0 0 0q-0.1 0.1-0.1 0.1q0 0.1 0.1 0.1q0 0.1 0.2 0.1q0 0 0 0q0 0.1 0.1 0.1q0 0 0 0q0.1 0 0.1 0q0 0 0.1 0c0.1 0.1 0 0.1 0 0.1q0 0 0.1 0.1q0 0 0 0q0.1 0 0.1 0q0.1 0 0.1-0.1q0.1 0 0.1 0q0.3-0.2 0.8-0.3q-0.1 0.1-0.3 0.1q-0.2 0.2-0.2 0.4q0 0 0.1 0q0 0 0 0.1q0 0 0 0q0 0 0 0q0 0 0 0.1q0 0-0.1 0q0.1 0.2 0.4 0.3q0 0.1 0.1 0.1q-0.1 0-0.2-0.1q-0.2-0.1-0.3-0.3q-0.1 0-0.2 0q-0.1 0-0.2-0.1q-0.1 0-0.1-0.2q0 0-0.1 0q0 0 0 0q-0.1-0.1-0.1-0.1q0 0 0-0.1q-0.1 0.1-0.1 0h-0.1q0 0 0 0q0 0 0 0q-0.1 0-0.1 0q-0.1-0.1-0.1-0.1q-0.1 0-0.2 0v-0.1q-0.1 0 0-0.1q0 0 0-0.1q0 0 0 0q-0.2 0-0.4 0q0 0 0 0.1h-0.1q0 0 0 0q0.1 0 0.1 0q0.1 0.1 0.2 0.2q0.2 0.1 0.3 0.2q0.3 0.1 0.4 0.2v0.1v-0.1q-0.2-0.1-0.4-0.2q-0.1-0.1-0.3-0.2zm1.5 0.4q0-0.2 0.2-0.4q0.1 0 0.2-0.1q-0.4 0.1-0.7 0.3q0 0 0 0q-0.1 0.1-0.2 0.1q0.1 0.1 0.2 0.1q0.2 0 0.3 0zm-0.4 0.1q0.1 0.1 0.2 0.1q0.1 0 0.2 0q0-0.1 0-0.2q-0.1 0-0.3 0q-0.1 0-0.2 0q0 0 0.1 0.1zm-0.8-0.8q0.1 0 0.1 0q0.1 0 0.1 0q0 0 0 0q0.1-0.1 0.1-0.1q0 0 0 0q0-0.1 0-0.1q-0.1 0.1-0.1 0.1q-0.1 0-0.2 0.1q0 0 0 0zm1.2 0.8q0.1 0 0.1 0q0 0 0 0q0 0 0 0q-0.1 0-0.1-0.1q0 0 0 0q0 0.1 0 0.1q0 0 0 0z" />
		<path id="Layer" class="s28" d="m47.5 31.1l5.4 3.2l-0.1 0.1l-5.5-3.2z" />
		<path id="Layer" class="s28" d="m47 31.4l5.4 3.2l-0.1 0.1l-5.5-3.2z" />
		<path id="Layer" class="s28" d="m44.9 32.6l5.4 3.2l-0.1 0.1l-5.5-3.2z" />
		<path id="Layer" class="s28" d="m45.9 34.4l3.4 2l-0.2 0.1l-3.4-2z" />
		<path id="Layer" class="s28" d="m45.8 33.8l4 2.3l-0.1 0.1l-4-2.3z" />
		<path id="Layer" class="s28" d="m45.4 32.3l5.5 3.2l-0.2 0.1l-5.5-3.2z" />
		<path id="Layer" class="s28" d="m45.9 32l5.5 3.2l-0.2 0.1l-5.4-3.2z" />
		<path id="Layer" class="s28" d="m46.4 31.7l5.5 3.2l-0.2 0.1l-5.4-3.2z" />
		<path id="Layer" class="s28" d="m48 30.8l5.5 3.2l-0.2 0.1l-5.5-3.2z" />
		<path id="Layer" class="s28" d="m48.5 30.5l5.5 3.2l-0.2 0.1l-5.4-3.2z" />
		<path id="Layer" class="s19" d="m48.4 35.3c0.4 0.3 0.4 0.6 0 0.9c-0.4 0.2-1 0.2-1.4 0c-0.4-0.3-0.4-0.6 0-0.9c0.4-0.2 1-0.2 1.4 0z" />
		<path id="Layer" fill-rule="evenodd" class="s19" d="m46.6 36.2q0-0.1 0-0.1q-0.1 0-0.1 0q-0.1-0.1-0.1-0.1q0.1-0.1 0-0.2c-0.1 0-0.1-0.1 0-0.1q0 0 0 0q0.1-0.1 0-0.2q0 0 0.1-0.1q0 0 0.1 0q0 0 0 0q0.1-0.1 0.1-0.1q0-0.1 0-0.1q0.1 0 0.2 0q0.1 0 0.1-0.1q0.1 0 0.1 0q0 0 0-0.1q0.1 0 0.3 0q0.1 0.1 0.2 0q0 0 0 0q0 0 0 0c0.1-0.1 0.2-0.1 0.3 0q0.1 0.1 0.2 0c0.1 0 0.2 0 0.3 0.1q0 0.1 0.2 0.1c0.1 0 0.2 0 0.2 0.1q0 0 0 0.1q0 0 0.1 0c0.1 0 0.2 0.1 0.1 0.1q-0.1 0.1 0 0.2q0.2 0.1 0.1 0.1q0 0-0.1 0q0 0 0 0.1q-0.1 0 0 0.1q0.1 0.1 0 0.1q-0.1 0-0.1 0q-0.1 0-0.1 0.1q-0.1 0 0 0q0 0.1-0.1 0.1q-0.1 0.1-0.1 0.1q-0.1 0-0.2 0q0 0 0 0q-0.1 0.1-0.1 0.1q-0.1 0-0.2 0q-0.1 0-0.2 0q0 0-0.1 0c0 0.1-0.2 0.1-0.2 0q-0.1 0-0.3 0q-0.1 0-0.2 0q0 0 0-0.1q-0.1 0-0.2 0c-0.1 0-0.2-0.1-0.2-0.2q0 0-0.1 0zm1.9 0c0.4-0.2 0.4-0.6 0-0.9c-0.4-0.2-1.1-0.2-1.6 0c-0.4 0.3-0.4 0.7 0 0.9c0.5 0.3 1.2 0.3 1.6 0z" />
		<path id="Layer" class="s56" d="m79.4 44.2q0 0.1 0 0.1l-0.3 0.2q0 0 0 0c-0.2 0.1-2.4 1.4-2.6 1.5q0 0 0 0q0 0-0.1 0c-3.4 2-2.1 1.3-3.3 2q0 0 0 0q0 0 0 0q0 0 0 0c-0.1 0-0.1 0-0.5 0c0 0-0.2 0-0.2 0l0.1-0.2l0.2-0.3q0.1-0.1 0.1-0.1l0.5-0.3h0.1q0 0 0 0c0 0 2.9-1.7 2.7-1.6q0-0.1 0.1-0.1q0 0 0 0c0 0 0.6-0.3 0.5-0.3v-0.1l2-1.1q0.1 0 0.1 0l0.3-0.1q0-0.1 0.1 0c0.1 0.1 0.2 0.2 0.2 0.4z" />
		<path id="Layer" class="s11" d="m79 43.3q0.1 0 0.2 0.1c0.1 0 0.2 0.2 0.2 0.3q0 0.2 0 0.2l-2.3 1.3q0.1 0 0.1-0.1c0-0.2-0.1-0.4-0.2-0.4q-0.1-0.1-0.2-0.1z" />
		<path id="Layer" class="s57" d="m76.6 45.1c-0.1-0.2-0.1-0.3 0-0.4c0.1 0 0.3 0.1 0.4 0.2c0 0.2 0 0.3 0 0.4c-0.1 0-0.3 0-0.4-0.2z" />
		<path id="Layer" class="s32" d="m78.6 43.6l0.1-0.1q0.1-0.1 0.2 0c0.1 0.1 0.2 0.3 0.2 0.4q0 0.1 0 0.2l-2.4 1.4q0.1-0.1 0.1-0.2c0-0.1-0.1-0.3-0.3-0.4q-0.1-0.1-0.2 0z" />
		<path id="Layer" class="s31" d="m78.6 43.6c0.1 0.1 0.1 0.2 0.1 0.3q0 0.1 0 0.2l-1.9 1.1c-0.1-0.1-0.2-0.3-0.3-0.3q-0.1-0.1-0.2 0z" />
		<path id="Layer" class="s58" d="m76.3 45.3c-0.1-0.2-0.1-0.4 0-0.4c0.1-0.1 0.3 0 0.4 0.2c0.1 0.1 0.1 0.3 0 0.4c-0.1 0-0.3-0.1-0.4-0.2z" />
		<path id="Layer" class="s23" d="m76.7 45.4l-0.2 0.2q-0.1 0-0.2 0c-0.1-0.1-0.2-0.3-0.2-0.5q0-0.1 0-0.1q0 0 0 0l0.3-0.2q0.1 0 0.2 0.1c0.2 0.1 0.3 0.5 0.1 0.5z" />
		<path id="Layer" class="s22" d="m76.4 44.8q0.1 0 0.2 0.1c0.2 0.1 0.3 0.5 0.1 0.5l-0.2 0.2q0.1 0 0.1-0.2c0-0.2-0.3-0.5-0.5-0.4z" />
		<path id="Layer" class="s23" d="m76.1 45.4c-0.1-0.2-0.1-0.4 0-0.4c0.1-0.1 0.3 0 0.4 0.2c0.1 0.2 0.1 0.3 0 0.4c-0.1 0-0.3 0-0.4-0.2z" />
		<path id="Layer" class="s32" d="m76.1 45c0.2 0 0.4 0.2 0.4 0.4q0 0.1-0.1 0.2l-2.7 1.6q0.1-0.1 0.1-0.2c0-0.2-0.3-0.5-0.4-0.4c0.3-0.2-1.1 0.6 2.7-1.6z" />
		<path id="Layer" class="s31" d="m75.9 45.2l0.1-0.1q0.1 0.1 0.1 0.3q0 0.1-0.1 0.1l-2.3 1.3q0-0.1-0.1-0.2q-0.1 0-0.2 0z" />
		<path id="Layer" class="s22" d="m73.5 46.5q0.1 0 0.2 0.1c0.2 0.1 0.3 0.4 0.2 0.5l-0.6 0.3q0 0 0-0.1c0-0.2-0.2-0.5-0.3-0.4z" />
		<path id="Layer" class="s57" d="m73 47.2c-0.1-0.1-0.1-0.3 0-0.3c0-0.1 0.2 0 0.3 0.2c0.1 0.1 0.1 0.3 0 0.3c-0.1 0.1-0.3 0-0.3-0.2z" />
		<path id="Layer" class="s32" d="m73.2 46.7h0.1q0.1-0.1 0.2 0c0.2 0.1 0.3 0.4 0.1 0.5l-0.5 0.3c0.1 0 0-0.4-0.2-0.5q-0.1 0-0.2 0z" />
		<path id="Layer" class="s31" d="m73.2 46.7q0.1 0.2 0.2 0.3q0 0.1-0.1 0.2l-0.2 0.1q-0.1-0.2-0.2-0.3q-0.1 0-0.2 0z" />
		<path id="Layer" class="s58" d="m72.7 47.4c0-0.2 0-0.3 0-0.4c0.1 0 0.3 0 0.4 0.2c0 0.1 0 0.3 0 0.3c-0.1 0.1-0.3 0-0.4-0.1z" />
		<path id="Layer" class="s17" d="m72.5 47.4q0.1 0.1 0.1 0.2h-0.2z" />
		<path id="Layer" class="s24" d="m78.8 43.5v0.2l-0.1-0.1l-1.9 1.1l-0.1-0.1l1.9-1.2z" />
		<path id="Layer" class="s24" d="m78.8 43.7l-0.2-0.1v-0.1l0.2 0.1z" />
		<path id="Layer" class="s24" d="m76.8 44.7l-0.1-0.1l0.1 0.1z" />
		<path id="Layer" class="s11" d="m76.8 44.7l-0.1-0.1l1.9-1.2l0.2 0.1z" />
		<path id="Layer" class="s17" d="m78.8 43.5v0.2v-0.1l-2 1.1z" />
		<path id="Layer" class="s59" d="m73 47.6h-0.4q0-0.1 0-0.1h0.5q0 0.1-0.1 0.1z" />
		<path id="Layer" class="s45" d="m73 47.1c0.1 0.1 0.1 0.2 0.1 0.3q0 0 0 0.1h-0.5q0 0 0 0z" />
		<path id="Layer" class="s50" d="m72.5 47.4l0.2-0.3q0.1-0.1 0.2-0.1q0 0 0.1 0.1l-0.4 0.4q-0.1-0.1-0.1-0.1z" />
		<path id="Layer" fill-rule="evenodd" class="s21" d="m68.5 76.6q0 0 0 0q0 0 0 0zm0 0.1q0 0 0 0q0 0 0 0zm0-0.1q0 0 0 0q0 0 0 0.1q0 0 0-0.1zm0 0.1q0 0 0 0q0 0 0 0q0 0 0 0zm0 0q0 0 0 0q0 0 0 0zm1.1-6.5q0.1-0.1 0.2-0.2q0-0.1 0-0.1q0.1 0 0.1-0.1c-0.1 0.1-0.3 0.2-0.3 0.4zm-1.1 6.5q0 0 0 0q0 0 0 0q0 0 0 0z" />
		<path id="Layer" fill-rule="evenodd" class="s21" d="m78.4 65.3l-1.1 6.3c0 0.2-0.1 0.3-0.3 0.4l-8.3 4.7q-0.1 0.1-0.2 0q0 0 0 0q0 0 0 0q0 0 0 0l-0.1-0.1q0 0 0 0q0 0 0 0q-0.1-0.1 0-0.1q0 0 0 0v-0.1v-0.1l1-6.1l0.1-0.1q0-0.1 0.1-0.3q0 0 0 0q0 0 0.1 0q0 0 0-0.1l2.7-1.5l0.2-0.1l0.2-0.1l0.4-0.3h0.1l1.9-1.1l0.5-0.2l0.1-0.1l2.3-1.3q0.1 0 0.1 0l0.2 0.1q0 0 0 0q0 0 0 0q0 0 0 0q0 0 0 0q0 0 0 0q0 0.1 0 0.2zm0-0.2q0 0 0 0zm-9.9 11.6q0 0 0 0zm0 0q0 0 0 0q0 0 0 0zm1.4-6.9c-0.1 0.1-0.3 0.2-0.3 0.4q0.1-0.1 0.2-0.2q0-0.1 0-0.1q0.1 0 0.1-0.1zm8.5-4.7q0 0 0 0q-0.1 0-0.1 0q0 0-0.1 0q0.1 0 0.2 0zm-9.9 11.6q0 0 0 0q0 0 0 0q0 0 0 0z" />
		<path id="Layer" fill-rule="evenodd" class="s21" d="m68.5 76.6q0 0 0 0q0 0 0 0zm0 0.1q0 0 0 0q0 0 0 0zm0-0.1q0 0 0 0q0 0 0 0.1q0 0 0-0.1zm0 0.1q0 0 0 0q0 0 0 0q0 0 0 0zm0 0q0 0 0 0q0 0 0 0zm1.1-6.5q0.1-0.1 0.2-0.2q0-0.1 0-0.1q0.1 0 0.1-0.1c-0.1 0.1-0.3 0.2-0.3 0.4zm-1.1 6.5q0 0 0 0q0 0 0 0q0 0 0 0z" />
		<path id="Layer" class="s21" d="m78.4 65.1q0 0 0 0q0 0 0 0q0 0 0 0q-0.1 0-0.1 0q0 0-0.1 0l-1 0.6l-1 0.6h-0.1l-0.1 0.1h-0.1l-0.5 0.3v0.1l-1.9 1h-0.1l-0.6 0.4l-0.3 0.2l-0.2 0.1h-0.1l-0.8 0.5l-1.5 0.8q0 0.1-0.1 0.1q0 0 0 0.1q-0.2 0.1-0.2 0.2l-1 5.9v0.2l-0.1 0.1v0.1v0.1q0 0 0 0q0 0.1 0 0.1q0 0 0 0q0 0 0 0q0 0 0 0q0 0 0 0q0 0 0 0l-0.1-0.1q0 0 0 0q0 0 0 0q-0.1-0.1 0-0.1q0 0 0 0v-0.1v-0.1l1-6.1l0.1-0.1q0-0.1 0.1-0.3q0 0 0 0q0 0 0.1 0q0 0 0-0.1l2.7-1.5l0.2-0.1l0.2-0.1l0.4-0.3h0.1l1.9-1.1l0.5-0.2v-0.1l2.4-1.3q0.1 0 0.1 0z" />
		<path id="Layer" class="s47" d="m78.2 65.1c0.2 0 0.3 0 0.2 0.2l-1.1 6.3c0 0.2-0.1 0.3-0.3 0.4l-8.3 4.7c-0.1 0.1-0.2 0-0.2-0.1l1.1-6.4c0-0.1 0.2-0.3 0.3-0.4z" />
		<path id="Layer" class="s13" d="m70.7 70.5l-0.7 6.8q-0.5-0.8-1.3-0.7l1.1-6.6z" />
		<path id="Layer" class="s47" d="m78.9 65.4q0 0-0.1 0l-8.4 4.7c-0.1 0.1-0.2 0.3-0.2 0.5v7.1q0 0.1 0 0.1l-0.1-0.1q-0.1 0-0.1-0.1v-7.1c0-0.2 0.1-0.4 0.3-0.5l8.3-4.7q0.1 0 0.2 0z" />
		<path id="Layer" class="s21" d="m78.8 65.4c0.1-0.1 0.2 0 0.2 0.2v7.1c0 0.1-0.1 0.3-0.3 0.4l-8.3 4.7c-0.1 0.1-0.2 0-0.2-0.1v-7.1c0-0.2 0.1-0.4 0.2-0.5z" />
		<path id="Layer" class="s13" d="m70.8 71.2l1 7.1c-0.4-0.5-0.9-0.8-1.4-0.6l-0.1-7.4c0.6 0.2 0.6 0.5 0.5 0.9z" />
		<path id="Layer" class="s47" d="m70.7 70.3l8.4-4.7q0.1 0 0.1 0l0.2 0.1q-0.1-0.1-0.2 0l-8.3 4.7c-0.2 0.1-0.2 0.3-0.2 0.4l1 7.6q0 0.2 0.1 0.2h-0.1q-0.1-0.1-0.1-0.2l-1.1-7.6c0-0.2 0.1-0.4 0.2-0.5z" />
		<path id="Layer" class="s21" d="m79.2 65.7c0.1-0.1 0.3 0 0.3 0.1l1 7.7c0 0.1-0.1 0.3-0.2 0.4l-8.3 4.7c-0.2 0.1-0.3 0-0.3-0.2l-1-7.6c0-0.1 0-0.3 0.2-0.4z" />
		<path id="Layer" class="s30" d="m79.6 70.6l-7.3 4.2c-0.3 0.1-0.6-0.1-0.7-0.4l8.2-4.3c0.1 0.2 0 0.4-0.2 0.5z" />
		<path id="Layer" class="s47" d="m80.1 70.1q-0.1 0.1-0.2 0.1l-7.7 4.4q0 0-0.1 0q0 0 0 0c-0.2 0.1-0.4 0-0.5-0.2q-0.1-0.1-0.1-0.2l-0.5-3.3c0-0.1-0.1-0.3-0.2-0.4q-0.1-0.1-0.1-0.1l-0.3-0.2l-0.2-0.1l-0.4-0.2l-0.1-0.1q0 0 0-0.1l2.7-1.5l0.2-0.1l0.1-0.1l0.1-0.1l0.3-0.2h0.1l1.9-1.1h0.1l0.3-0.2l0.1-0.1l2.3-1.3c0.1 0 0.4 0 0.5 0l0.8 0.5q0.1 0.1 0.2 0.2q0 0 0.1 0.1q0.1 0.1 0.1 0.3l0.5 3.6q0.1 0.2 0 0.4z" />
		<path id="Layer" class="s21" d="m71.6 74.5h-0.1l-0.6-3.6c0-0.1-0.1-0.3-0.2-0.3q0-0.1 0-0.1q0 0 0 0q0 0 0 0h-0.1l-0.3-0.2l-0.2-0.1l-0.3-0.2l-0.1-0.1q-0.1 0-0.1 0q0 0 0-0.1q0 0 0 0q0 0 0.1 0l0.1 0.1l0.4 0.2l0.2 0.1l0.3 0.2q0 0 0.1 0.1c0.1 0.1 0.2 0.3 0.2 0.4l0.5 3.3z" />
		<path id="Layer" fill-rule="evenodd" class="s17" d="m73.7 68.3q0 0 0 0.1l-0.5 0.4q-0.1 0.2-0.4 0.2q-0.1 0-0.1-0.1q0 0-0.1 0l-0.2-0.1q-0.1-0.1-0.2-0.2q0 0 0-0.1q0 0 0 0q0.1-0.1 0.2-0.2v-0.1l0.2-0.1l0.2-0.2q0-0.1 0.1-0.2q0.2 0 0.3 0q0.1 0 0.1 0q0 0 0.1 0l0.1 0.1l0.1 0.1q0.1 0.1 0.2 0.2q0 0 0 0q0 0 0 0q0 0.1-0.1 0.2zm0 0q0-0.1 0-0.2q0 0 0 0q0 0 0 0q0-0.1-0.1-0.2l-0.2-0.1h-0.1q0 0-0.1-0.1q0 0 0 0q-0.1 0-0.1 0q-0.1 0-0.2 0.1q-0.1 0-0.1 0.1l-0.1 0.1l-0.1 0.1l-0.2 0.2q-0.1 0.1-0.1 0.2q0 0 0 0q0 0 0 0.1q0 0.1 0.1 0.1l0.1 0.1l0.2 0.1q0 0 0 0q0.1 0.1 0.2 0q0.2 0 0.3-0.1l0.4-0.4q0-0.1 0.1-0.1q0 0 0 0z" />
		<path id="Layer" fill-rule="evenodd" class="s17" d="m77 66.9q0 0-0.2 0h-0.1l-0.6 0.1q0 0 0 0q-0.1 0-0.1 0q0 0 0 0q0 0 0 0q0 0 0 0q-0.1 0-0.2-0.1q-0.2 0-0.3-0.1h-0.1l-0.2-0.2h-0.1q0 0 0 0q-0.1-0.1-0.1-0.2q0 0 0.1 0l0.5-0.1q0 0 0 0h0.1h0.2q0.1 0 0.2 0q0 0.1 0.1 0.1q0.2 0 0.3 0.1l0.2 0.1h-0.1l0.2 0.1l-0.1-0.1h-0.1l-0.1-0.1q0 0 0 0q-0.2 0-0.3-0.1q-0.1 0-0.2 0q0 0-0.1 0q0 0 0 0h-0.2q0 0 0 0h-0.2h-0.4q-0.1 0-0.1 0c0 0.1 0.1 0.1 0.2 0.2l0.2 0.1l0.1 0.1q0.1 0 0.3 0.1q0.2 0 0.3 0h0.7q0.1 0 0.1 0q0-0.1 0-0.1q0 0-0.1 0q0-0.1 0-0.1q0.1 0 0.1 0q0 0.1 0.1 0.1q0 0 0 0.1z" />
		<path id="Layer" class="s30" d="m75.8 67.1c-0.7 0.1-1.9 0.8-2.2 1.2c-0.4 0.4-0.6 0.3-0.6 0.2c-0.1 0-0.3-0.2-0.2-0.5c0 0 0.4-0.7 1.2-1.2c0.4-0.3 1-0.4 1.5-0.4c0.3 0.1 0.6 0.2 0.7 0.4c0 0 0.2 0.3-0.4 0.3z" />
		<path id="Layer" class="s30" d="m76.2 66.8v0.1l-0.1-0.1z" />
		<path id="Layer" class="s30" d="m72.9 68.1v0.1h-0.1v-0.1z" />
		<path id="Layer" class="s21" d="m75.8 67c-0.7 0.1-1.9 0.8-2.2 1.2c-0.4 0.4-0.6 0.3-0.6 0.2c-0.1 0-0.3-0.2-0.2-0.5c0 0 0.4-0.7 1.2-1.2c0.4-0.3 1-0.4 1.5-0.4c0.3 0.1 0.6 0.2 0.7 0.4c0 0 0.2 0.3-0.4 0.3z" />
		<path id="Layer" class="s23" d="m73 68.7v0.2l-1 0.6l-0.6-0.4v-0.1l1-0.6z" />
		<path id="Layer" class="s23" d="m77.8 66v0.2l-1 0.6l-0.6-0.4v-0.1l1-0.6z" />
		<path id="Layer" class="s22" d="m72 69.3v0.2l-0.6-0.4v-0.1z" />
		<path id="Layer" class="s23" d="m73 68.7v0.2l-1 0.6v-0.2z" />
		<path id="Layer" class="s16" d="m72.4 68.4l0.6 0.3l-1 0.6l-0.6-0.3z" />
		<path id="Layer" class="s22" d="m76.8 66.6v0.2l-0.6-0.4v-0.1z" />
		<path id="Layer" class="s23" d="m77.8 66v0.2l-1 0.6v-0.2z" />
		<path id="Layer" class="s16" d="m77.2 65.7l0.6 0.3l-1 0.6l-0.6-0.3z" />
		<path id="Layer" class="s21" d="m69.6 69.9l-0.2 0.3l0.1-0.1q0-0.1 0.1-0.3q0 0 0 0z" />
		<path id="Layer" class="s23" d="m74.4 72.3l0.2 1.8c0 0.1 0 0.2-0.1 0.3l-1 0.6q-0.1 0-0.1 0l-0.2-0.1q0 0-0.1-0.1l-0.2-1.8c0-0.1 0.1-0.2 0.1-0.2l1.1-0.7q0.1 0 0.1 0l0.1 0.1q0.1 0 0.1 0.1zm4.8-0.7c0 0-0.1 0.1-0.1 0.2l-1.1 0.6q-0.1 0-0.1 0l-0.2-0.1q0 0 0-0.1l-0.2-1.8c0-0.1 0-0.2 0.1-0.2l1-0.6q0.1 0 0.1 0h0.2q0 0 0 0.1z" />
		<path id="Layer" class="s23" d="m77.6 70.5l0.2 1.8q0 0.1 0.1 0.1l-0.2-0.1q0 0 0-0.1l-0.2-1.8c0-0.1 0-0.2 0.1-0.2l1-0.6q0.1 0 0.1 0h0.2q-0.1 0-0.1 0l-1.1 0.6z" />
		<path id="Layer" class="s16" d="m78.8 69.6q0.1 0 0.1 0.1l0.3 1.9c0 0-0.1 0.1-0.1 0.2l-1.1 0.6q-0.1 0-0.2-0.1l-0.2-1.8c0-0.1 0.1-0.2 0.1-0.3z" />
		<path id="Layer" class="s23" d="m78.8 70.1q-0.1 0-0.1 0l-0.7 0.4q-0.1 0.1-0.1 0.2l0.2 1.2q0 0 0 0.1l-0.1-0.1q0 0 0-0.1l-0.2-1.2q0-0.1 0.1-0.1l0.7-0.4q0 0 0 0z" />
		<path id="Layer" class="s22" d="m78.7 70.1q0.1 0 0.1 0.1l0.1 1.2q0 0.1 0 0.1l-0.7 0.4q-0.1 0.1-0.1 0l-0.2-1.2q0-0.1 0.1-0.2z" />
		<path id="Layer" class="s23" d="m74.4 72.2q-0.1 0-0.1 0l-1.1 0.6c-0.1 0.1-0.1 0.2-0.1 0.2l0.2 1.9q0 0 0.1 0.1l-0.2-0.1q0 0-0.1-0.1l-0.2-1.8c0-0.1 0.1-0.2 0.1-0.3l1.1-0.6q0.1 0 0.1 0z" />
		<path id="Layer" class="s16" d="m74.3 72.2q0.1 0 0.1 0.1l0.2 1.8c0 0.1 0 0.2-0.1 0.3l-1 0.6q-0.2 0-0.2-0.1l-0.2-1.9c0 0 0-0.1 0.1-0.2z" />
		<path id="Layer" class="s23" d="m74.2 72.7q0 0 0 0l-0.7 0.4q-0.1 0-0.1 0.1l0.1 1.3q0 0 0.1 0h-0.1q-0.1 0-0.1-0.1l-0.1-1.2q0-0.1 0-0.1l0.8-0.4q0-0.1 0-0.1z" />
		<path id="Layer" class="s22" d="m74.2 72.7q0 0 0.1 0.1l0.1 1.2q0 0.1-0.1 0.1l-0.7 0.4q-0.1 0-0.1 0l-0.1-1.3q0 0 0.1-0.1z" />
		<path id="Layer" fill-rule="evenodd" class="s49" d="m77.9 12.9v3.8q-0.1 0.1-0.1 0.1l-0.3 0.2q-0.1 0-0.2 0l-0.1-0.1v0.8l-0.3 0.2l-0.9-1.7l-4.4-2.5c-0.1-0.1-0.2-0.3-0.2-0.5v-3.7q0-0.2 0.1-0.2l0.2-0.2q0.1 0 0.2 0l5.7 3.3c0.1 0.1 0.3 0.3 0.3 0.5zm-6.4-3.6q0 0 0 0q0 0 0 0z" />
		<path id="Layer" class="s49" d="m76.9 16.7l0.3-0.1v1.1l-0.3 0.2z" />
		<path id="Layer" class="s49" d="m77.9 12.9v3.8q-0.1 0.1-0.1 0.1l-0.3 0.2q0.1-0.1 0.1-0.2v-3.8c0-0.1-0.1-0.3-0.3-0.4l-5.7-3.3q-0.1-0.1-0.1 0l0.2-0.2q0.1 0 0.2 0l5.7 3.3c0.1 0.1 0.3 0.3 0.3 0.5z" />
		<path id="Layer" class="s42" d="m77.3 12.6c0.2 0.1 0.3 0.3 0.3 0.4v3.8c0 0.2-0.1 0.3-0.3 0.2l-0.4-0.3v1.2l-0.9-1.7l-4.4-2.5c-0.1-0.1-0.2-0.3-0.2-0.5v-3.7c0-0.2 0.1-0.3 0.2-0.2z" />
		<path id="Layer" class="s60" d="m77 15.9v0.2l-5-2.9v-0.2z" />
		<path id="Layer" class="s60" d="m74.5 11.7c0.1 0 0.1 0.1 0.1 0.2q0 0.2-0.1 0.1c-0.1 0-0.2-0.1-0.2-0.2q0-0.2 0.2-0.1z" />
		<path id="Layer" class="s60" d="m77 15.2v0.2l-5-2.9v-0.1z" />
		<path id="Layer" class="s60" d="m75.4 12.2c0.1 0.1 0.1 0.2 0.1 0.3q0 0.1-0.1 0.1c-0.1-0.1-0.2-0.2-0.2-0.3q0.1-0.2 0.2-0.1z" />
		<path id="Layer" class="s60" d="m77 14.6v0.2l-5-2.9v-0.2z" />
		<path id="Layer" class="s60" d="m77 13.9v0.2l-5-2.9v-0.1z" />
		<path id="Layer" class="s60" d="m73.6 11.1c0.1 0.1 0.1 0.2 0.1 0.3q0 0.2-0.1 0.1c-0.1 0-0.2-0.2-0.2-0.3q0-0.1 0.2-0.1z" />
	</g>
</svg>