<svg width="42" height="42" viewBox="0 0 42 42" fill="none" xmlns="http://www.w3.org/2000/svg">
<path d="M18.8702 9.93578L31.8702 22.9358L31.8702 40.9358L0.870215 9.93579L18.8702 9.93578Z" fill="#FFDD66"/>
<path d="M12.6649 16.6299C12.9613 16.9264 13.2689 17.1363 13.5874 17.2597C13.9078 17.3812 14.219 17.4125 14.521 17.3536C14.823 17.2947 15.0983 17.1409 15.3469 16.8923L15.3497 16.8896C15.6369 16.6023 15.7787 16.2819 15.775 15.9284C15.7714 15.5748 15.6075 15.1439 15.2834 14.6357L14.9409 14.0943C14.7291 13.7647 14.6186 13.4866 14.6094 13.2601C14.6002 13.0336 14.6748 12.8412 14.8332 12.6828L14.8359 12.6801C14.9759 12.5401 15.1324 12.461 15.3055 12.4425C15.4823 12.4241 15.6627 12.4554 15.8469 12.5365C16.031 12.6175 16.2059 12.7409 16.3717 12.9066C16.5466 13.0778 16.6718 13.2546 16.7473 13.4369C16.8228 13.6192 16.8532 13.7951 16.8385 13.9645C16.8256 14.132 16.7694 14.284 16.67 14.4202L16.6396 14.4617L17.1368 14.9588L17.1727 14.9174C17.3587 14.7057 17.471 14.4589 17.5097 14.1772C17.5502 13.8973 17.5152 13.6082 17.4047 13.3099C17.2961 13.0097 17.1092 12.727 16.844 12.4619C16.5696 12.1875 16.2787 11.9923 15.9712 11.8763C15.6655 11.7621 15.3681 11.7299 15.079 11.7796C14.7917 11.8312 14.5367 11.9665 14.3139 12.1857L14.3111 12.1884C14.022 12.4775 13.8747 12.8053 13.8692 13.1717C13.8673 13.5382 14.022 13.9654 14.3332 14.4534L14.6785 14.992C14.8921 15.3271 15.0026 15.6126 15.0099 15.8483C15.0191 16.0821 14.9409 16.2819 14.7751 16.4476L14.7724 16.4504C14.638 16.5848 14.4787 16.6631 14.2945 16.6852C14.1104 16.7073 13.918 16.6769 13.7173 16.594C13.5202 16.5112 13.3315 16.3795 13.151 16.199C12.9595 16.0075 12.815 15.8096 12.7174 15.6052C12.6216 15.4026 12.5765 15.2084 12.582 15.0224C12.5912 14.8364 12.6557 14.6707 12.7754 14.5252L12.803 14.492L12.3058 13.9949L12.2782 14.028C12.083 14.2637 11.9642 14.528 11.9219 14.8207C11.8832 15.1135 11.9237 15.4155 12.0434 15.7267C12.1668 16.0379 12.3739 16.339 12.6649 16.6299ZM16.4699 20.4349C16.8492 20.8143 17.2608 21.0546 17.7046 21.1559C18.1502 21.259 18.6013 21.2277 19.058 21.062C19.5184 20.8962 19.9603 20.6016 20.3838 20.1781L20.3894 20.1725C20.8147 19.7472 21.1094 19.3052 21.2732 18.8467C21.439 18.3864 21.4694 17.9343 21.3644 17.4905C21.2613 17.0486 21.021 16.6389 20.6435 16.2614C20.2678 15.8857 19.8581 15.6454 19.4143 15.5404C18.9724 15.4373 18.5212 15.4668 18.0609 15.6288C17.6024 15.7927 17.1595 16.0883 16.7323 16.5155L16.7268 16.521C16.3032 16.9445 16.0077 17.3856 15.8401 17.8441C15.6744 18.3044 15.6422 18.7565 15.7434 19.2003C15.8466 19.6422 16.0887 20.0538 16.4699 20.4349ZM16.9284 19.9764C16.6522 19.7002 16.4828 19.3964 16.4202 19.0649C16.3576 18.7335 16.3953 18.3937 16.5334 18.0457C16.6734 17.6958 16.9072 17.357 17.235 17.0292L17.2405 17.0237C17.572 16.6923 17.9126 16.4584 18.2625 16.3221C18.6142 16.1877 18.9549 16.1527 19.2845 16.2172C19.6141 16.2816 19.9143 16.4492 20.185 16.7199C20.4575 16.9924 20.626 17.2935 20.6904 17.6231C20.7549 17.9527 20.719 18.2925 20.5827 18.6423C20.4464 18.9922 20.2126 19.3329 19.8811 19.6643L19.8756 19.6698C19.5478 19.9976 19.2081 20.2306 18.8564 20.3687C18.5065 20.5049 18.1658 20.5418 17.8344 20.4791C17.5029 20.4165 17.2009 20.249 16.9284 19.9764ZM20.6644 24.6294C21.0437 25.0088 21.4552 25.2491 21.899 25.3503C22.3447 25.4535 22.7958 25.4222 23.2525 25.2564C23.7128 25.0907 24.1548 24.7961 24.5783 24.3725L24.5838 24.367C25.0092 23.9416 25.3038 23.4997 25.4677 23.0412C25.6334 22.5808 25.6638 22.1288 25.5589 21.685C25.4557 21.243 25.2154 20.8333 24.8379 20.4558C24.4623 20.0802 24.0526 19.8399 23.6088 19.7349C23.1668 19.6318 22.7157 19.6613 22.2553 19.8233C21.7968 19.9872 21.354 20.2827 20.9268 20.7099L20.9212 20.7155C20.4977 21.139 20.2022 21.58 20.0346 22.0385C19.8689 22.4989 19.8366 22.951 19.9379 23.3947C20.041 23.8367 20.2832 24.2482 20.6644 24.6294ZM21.1229 24.1709C20.8467 23.8947 20.6772 23.5909 20.6146 23.2594C20.552 22.9279 20.5898 22.5882 20.7279 22.2402C20.8678 21.8903 21.1017 21.5515 21.4295 21.2237L21.435 21.2182C21.7664 20.8867 22.1071 20.6529 22.457 20.5166C22.8087 20.3822 23.1494 20.3472 23.479 20.4116C23.8086 20.4761 24.1087 20.6437 24.3794 20.9143C24.652 21.1869 24.8204 21.4879 24.8849 21.8176C24.9493 22.1472 24.9134 22.4869 24.7772 22.8368C24.6409 23.1867 24.407 23.5273 24.0756 23.8588L24.0701 23.8643C23.7423 24.1921 23.4026 24.425 23.0508 24.5631C22.701 24.6994 22.3603 24.7362 22.0288 24.6736C21.6974 24.611 21.3954 24.4434 21.1229 24.1709ZM23.2789 27.0561L23.7705 27.5478L26.8614 24.457L27.1155 24.7111L26.958 24.2056L25.9775 29.7547L26.4609 30.2381L30.4466 26.2523L29.955 25.7607L26.8531 28.8626L26.599 28.6084L26.7564 29.1139L27.748 23.5537L27.2646 23.0704L23.2789 27.0561Z" fill="#5A5A5A"/>
</svg>
