<svg version="1.2" xmlns="http://www.w3.org/2000/svg" viewBox="0 0 90 90" width="90" height="90">
	<title>New Project</title>
	<defs>
		<linearGradient id="g1" x1="41.7" y1="65.8" x2="75.3" y2="70.7" gradientUnits="userSpaceOnUse">
			<stop offset="0" stop-color="#636c9e"/>
			<stop offset=".1" stop-color="#858cb3"/>
			<stop offset=".2" stop-color="#aaafca"/>
			<stop offset=".4" stop-color="#c9ccdd"/>
			<stop offset=".5" stop-color="#e1e2ec"/>
			<stop offset=".6" stop-color="#f2f2f7"/>
			<stop offset=".8" stop-color="#fcfcfd"/>
			<stop offset="1" stop-color="#ffffff"/>
		</linearGradient>
		<linearGradient id="g2" x1="28.7" y1="62.2" x2="43.6" y2="62.5" gradientUnits="userSpaceOnUse">
			<stop offset="0" stop-color="#cfd5f7"/>
			<stop offset="1" stop-color="#bcc2e6"/>
		</linearGradient>
		<linearGradient id="g3" x1="34.8" y1="45.5" x2="24.3" y2="47.8" gradientUnits="userSpaceOnUse">
			<stop offset="0" stop-color="#ff5a72"/>
			<stop offset="1" stop-color="#feae6e"/>
		</linearGradient>
		<linearGradient id="g4" x1="21.6" y1="46.9" x2="11.1" y2="49.2" gradientUnits="userSpaceOnUse">
			<stop offset="0" stop-color="#ff5a72"/>
			<stop offset="1" stop-color="#feae6e"/>
		</linearGradient>
		<linearGradient id="g5" x1="50" y1="55.6" x2="43.3" y2="57.1" gradientUnits="userSpaceOnUse">
			<stop offset="0" stop-color="#ff5a72"/>
			<stop offset="1" stop-color="#feae6e"/>
		</linearGradient>
		<linearGradient id="g6" x1="39.9" y1="55.1" x2="25.6" y2="58.2" gradientUnits="userSpaceOnUse">
			<stop offset="0" stop-color="#ff5a72"/>
			<stop offset="1" stop-color="#feae6e"/>
		</linearGradient>
		<linearGradient id="g7" x1="73" y1="53.7" x2="78.3" y2="61.1" gradientUnits="userSpaceOnUse">
			<stop offset="0" stop-color="#636c9e"/>
			<stop offset=".2" stop-color="#9298bb"/>
			<stop offset=".4" stop-color="#b9bdd3"/>
			<stop offset=".5" stop-color="#d8dae6"/>
			<stop offset=".7" stop-color="#edeef4"/>
			<stop offset=".9" stop-color="#fbfbfc"/>
			<stop offset="1" stop-color="#ffffff"/>
		</linearGradient>
		<linearGradient id="g8" x1="73" y1="49.2" x2="75.1" y2="49.2" gradientUnits="userSpaceOnUse">
			<stop offset="0" stop-color="#e8eeff"/>
			<stop offset="1" stop-color="#d5dbff"/>
		</linearGradient>
		<linearGradient id="g9" x1="73" y1="57.3" x2="83.9" y2="55.9" gradientUnits="userSpaceOnUse">
			<stop offset="0" stop-color="#d0d4f9"/>
			<stop offset="1" stop-color="#636c9e"/>
		</linearGradient>
		<linearGradient id="g10" x1="73" y1="54.7" x2="83.9" y2="53.4" gradientUnits="userSpaceOnUse">
			<stop offset="0" stop-color="#d0d4f9"/>
			<stop offset="1" stop-color="#636c9e"/>
		</linearGradient>
		<linearGradient id="g11" x1="73" y1="52.2" x2="83.9" y2="50.8" gradientUnits="userSpaceOnUse">
			<stop offset="0" stop-color="#d0d4f9"/>
			<stop offset="1" stop-color="#636c9e"/>
		</linearGradient>
		<linearGradient id="g12" x1="73" y1="49.6" x2="83.9" y2="48.3" gradientUnits="userSpaceOnUse">
			<stop offset="0" stop-color="#d0d4f9"/>
			<stop offset="1" stop-color="#636c9e"/>
		</linearGradient>
		<linearGradient id="g13" x1="73" y1="47.1" x2="83.9" y2="45.7" gradientUnits="userSpaceOnUse">
			<stop offset="0" stop-color="#d0d4f9"/>
			<stop offset="1" stop-color="#636c9e"/>
		</linearGradient>
		<linearGradient id="g14" x1="75.6" y1="39.2" x2="65.5" y2="38.8" gradientUnits="userSpaceOnUse">
			<stop offset="0" stop-color="#636c9e"/>
			<stop offset="1" stop-color="#d0d4f9"/>
		</linearGradient>
		<linearGradient id="g15" x1="74.4" y1="38.5" x2="69.3" y2="38.5" gradientUnits="userSpaceOnUse">
			<stop offset="0" stop-color="#191468"/>
			<stop offset="1" stop-color="#383097"/>
		</linearGradient>
		<linearGradient id="g16" x1="79.3" y1="37.2" x2="70.4" y2="37.6" gradientUnits="userSpaceOnUse">
			<stop offset="0" stop-color="#191468"/>
			<stop offset="1" stop-color="#383097"/>
		</linearGradient>
		<linearGradient id="g17" x1="79.5" y1="56.8" x2="66.5" y2="57.4" gradientUnits="userSpaceOnUse">
			<stop offset="0" stop-color="#191468"/>
			<stop offset="1" stop-color="#383097"/>
		</linearGradient>
		<linearGradient id="g18" x1="66.4" y1="53.8" x2="59.1" y2="53.7" gradientUnits="userSpaceOnUse">
			<stop offset="0" stop-color="#ff5a72"/>
			<stop offset="1" stop-color="#feae6e"/>
		</linearGradient>
		<linearGradient id="g19" x1="64" y1="47.5" x2="60.5" y2="47.5" gradientUnits="userSpaceOnUse">
			<stop offset="0" stop-color="#191468"/>
			<stop offset="1" stop-color="#383097"/>
		</linearGradient>
		<linearGradient id="g20" x1="67.3" y1="46.6" x2="61.3" y2="46.9" gradientUnits="userSpaceOnUse">
			<stop offset="0" stop-color="#191468"/>
			<stop offset="1" stop-color="#383097"/>
		</linearGradient>
	</defs>
	<style>
		.s0 { opacity: .5;fill: #ffffff } 
		.s1 { opacity: .5;fill: url(#g1) } 
		.s2 { fill: #383097 } 
		.s3 { fill: #b8babc } 
		.s4 { fill: #bf394d } 
		.s5 { fill: #be7d49 } 
		.s6 { fill: #f7f9fc } 
		.s7 { fill: #feae6e } 
		.s8 { fill: #ff5a72 } 
		.s9 { fill: #636c9e } 
		.s10 { fill: url(#g2) } 
		.s11 { fill: #ffffff } 
		.s12 { fill: #eeeef6 } 
		.s13 { fill: url(#g3) } 
		.s14 { fill: url(#g4) } 
		.s15 { fill: url(#g5) } 
		.s16 { fill: url(#g6) } 
		.s17 { opacity: .5;fill: url(#g7) } 
		.s18 { fill: url(#g8) } 
		.s19 { fill: url(#g9) } 
		.s20 { fill: url(#g10) } 
		.s21 { fill: url(#g11) } 
		.s22 { fill: url(#g12) } 
		.s23 { fill: url(#g13) } 
		.s24 { fill: url(#g14) } 
		.s25 { fill: #d1d4f8 } 
		.s26 { fill: url(#g15) } 
		.s27 { fill: url(#g16) } 
		.s28 { fill: url(#g17) } 
		.s29 { fill: url(#g18) } 
		.s30 { fill: #ffd898 } 
		.s31 { fill: #ff8370 } 
		.s32 { fill: #f9e4c5 } 
		.s33 { fill: url(#g19) } 
		.s34 { fill: url(#g20) } 
	</style>
	<g id="Folder 1">
		<path id="Layer" fill-rule="evenodd" class="s0" d="m37.8 81.8c-1.7 0-3.4-0.3-4.6-1.1l-33.4-19.2c-1.3-0.8-2-1.8-2-2.9c0-1.1 0.7-2.1 2-2.8l16.3-9.5c2.6-1.5 6.7-1.5 9.3 0l33.4 19.2c1.2 0.8 1.9 1.8 2 2.9c0 1-0.8 2.1-2 2.8l-16.3 9.5c-1.3 0.8-3 1.1-4.7 1.1zm-17-36.2c-1.6 0-3.2 0.4-4.5 1.1l-16.3 9.5c-1.1 0.7-1.7 1.5-1.7 2.4c0 0.9 0.6 1.8 1.8 2.4l33.3 19.3c2.4 1.4 6.4 1.4 8.8 0l16.3-9.5c1.1-0.7 1.8-1.5 1.8-2.4c0-0.9-0.7-1.8-1.8-2.5l-33.3-19.2c-1.3-0.7-2.8-1.1-4.4-1.1z" />
		<path id="Layer" class="s1" d="m73.7 74.3l-12.8 7.4c-1.5 0.9-3.7 1.1-5.5 0.7q-0.2-0.1-0.4-0.1l-20.6-5.6q-0.3-0.1-0.7-0.2q-0.6-0.2-1-0.5l-26.1-15.1c-2-1.1-2-2.9 0-4.1l12.7-7.4c2-1.1 5.1-1.2 7.1 0l12 6.9l2.1-1.2c1.9-1.1 5.1-1.1 7.1 0l26.1 15.1q0.4 0.3 0.7 0.6c1.2 1.1 0.9 2.5-0.7 3.5z" />
		<path id="Layer" class="s2" d="m53.5 50.5c0 1-0.6 1.5-1.4 1.1l-26.6-15.4c-0.7-0.4-1.4-1.6-1.4-2.7v-24.3c0-1 0.7-1.5 1.4-1l26.6 15.3c0.8 0.4 1.4 1.7 1.4 2.7z" />
		<path id="Layer" fill-rule="evenodd" class="s3" d="m39.1 18.4c0.3 0.4 0.4 0.9 0.4 1.4q0 0.4-0.2 0.7q0 0 0 0q0 0 0 0q0 0 0 0c-0.1 0.1-0.2 0.3-0.2 0.9c0 0 0 5.2 0 5.2c0 0.6 0 0.9 0.1 1.1q0.1 0.1 0.1 0.2q0.2 0.4 0.2 0.8q0 0.5-0.3 0.7q0 0 0 0q0 0 0 0q0 0 0 0q0 0 0 0q0 0 0 0q0 0 0 0q0 0 0 0q0 0 0 0q0 0-0.1 0q0 0 0 0q0 0 0 0q0 0 0 0q0 0 0 0.1q0 0 0 0q0 0 0 0q0 0 0 0q0 0 0 0q0 0 0 0q0 0 0 0q0 0 0 0q0 0 0 0q0 0 0 0q0 0 0 0q0 0 0 0q0 0 0 0q0 0 0 0q0 0 0 0q-0.1 0-0.1 0q0 0 0 0q0 0 0 0q0 0 0 0q0 0 0 0q0 0 0 0q0 0 0 0q0 0 0 0q0 0 0 0q0 0 0 0q0 0 0 0q0 0 0 0q0 0 0 0.1q0 0 0 0q0 0 0 0q0 0 0 0q0 0 0 0q0 0 0 0q-0.1 0-0.1 0q0 0 0 0q0 0 0 0q0 0 0 0q0 0 0 0q0 0 0 0q0 0 0 0q0 0 0 0q0 0 0 0q0 0 0 0q0 0 0 0q0 0 0 0q0 0 0 0q0 0 0 0q0 0 0 0q0 0 0 0q0 0 0 0q0 0 0 0q0 0-0.1 0q0 0 0 0q0 0 0 0q0 0 0 0.1q0 0 0 0q0 0 0 0q0 0 0 0q0 0 0 0q0 0 0 0q0 0 0 0q0 0 0 0q0 0 0 0q0 0 0 0q0 0 0 0q0 0 0 0q0 0 0 0q0 0 0 0q0 0 0 0q0 0-0.1 0q0 0 0 0q0 0 0 0q0 0 0 0q0 0 0 0q0 0 0 0q0 0 0 0q0 0 0 0q0 0 0 0q0 0 0 0q0 0 0 0q0 0 0 0q-0.3 0.2-0.7 0c-0.5-0.3-0.9-1-0.9-1.7q0-0.4 0.2-0.6q0-0.1 0.1-0.1c0.1-0.1 0.2-0.4 0.2-0.9c0 0 0-5.2 0-5.2c0-0.6-0.2-1-0.2-1.1q-0.1-0.1-0.1-0.1c-0.1-0.4-0.2-0.7-0.2-1c0-0.4 0-0.8 0.2-0.9q0 0 0 0q0 0 0 0q0 0 0 0q0.1 0 0.1 0q0 0 0 0q0 0 0 0q0 0 0 0q0 0 0 0q0 0 0 0q0 0 0 0q0 0 0 0q0 0 0 0q0 0 0 0q0 0 0 0q0 0 0 0q0 0 0 0q0 0 0 0q0 0 0 0q0 0 0 0q0 0 0 0q0 0 0-0.1q0 0 0.1 0q0 0 0 0q0 0 0 0q0 0 0 0q0 0 0 0q0 0 0 0q0 0 0 0q0 0 0 0q0 0 0 0q0 0 0 0q0 0 0 0q0 0 0 0q0 0 0 0q0 0 0 0q0 0 0 0q0 0 0 0q0 0 0 0q0 0 0 0q0 0 0.1 0q0 0 0 0q0 0 0 0q0 0 0 0q0 0 0 0q0 0 0 0q0 0 0 0q0-0.1 0-0.1q0 0 0 0q0 0 0 0q0 0 0 0q0 0 0 0q0 0 0 0q0 0 0 0q0 0 0 0q0 0 0 0q0 0 0 0q0 0 0.1 0q0 0 0 0q0 0 0 0q0 0 0 0q0 0 0 0q0 0 0 0q0 0 0 0q0 0 0 0q0 0 0 0q0 0 0 0q0 0 0 0q0 0 0 0q0 0 0 0q0 0 0 0q0 0 0 0q0 0 0 0q0 0 0 0q0-0.1 0-0.1q0 0 0 0q0.1 0 0.1 0q0 0 0 0q0 0 0 0q0 0 0 0q0 0 0 0q0 0 0 0q0 0 0 0q0 0 0 0q0 0 0 0q0 0 0 0q0 0 0 0q0 0 0 0q0 0 0 0q0 0 0 0q0 0 0 0q0 0 0 0q0 0 0 0q0.1-0.1 0.2-0.1c0.1 0.1 0.1 0.2 0.1 0.3c0 0.4 0 0.9 0 0.9l0.4 0.5c0-0.2 0-0.4 0-0.5q0-0.2 0-0.2q0 0 0 0q0 0 0 0q0 0 0 0q0.1 0 0.1 0q0 0 0 0q0 0 0 0q0 0 0 0q0 0 0 0q0 0 0 0q0 0 0 0q0 0 0 0q0 0 0 0q0 0 0 0q0 0 0 0q0 0 0 0q0 0 0 0q0 0 0 0q0-0.1 0-0.1q0 0 0 0q0 0 0 0q0 0 0 0q0.1 0 0.1 0q0 0 0 0q0 0 0 0q0 0 0 0q0 0 0 0q0 0 0 0q0 0 0 0q0 0 0 0q0 0 0 0q0 0 0 0q0 0 0 0q0 0 0 0q0 0 0 0q0 0 0 0q0 0 0 0q0 0 0 0q0 0 0 0q0 0 0 0q0 0 0.1 0q0 0 0 0q0 0 0 0q0 0 0 0q0 0 0 0q0-0.1 0-0.1q0 0 0 0q0 0 0 0q0 0 0 0q0 0 0 0q0 0 0 0q0 0 0 0q0 0 0 0q0 0 0 0q0 0 0 0q0 0 0 0q0 0 0 0q0 0 0 0q0 0 0.1 0q0 0 0 0q0 0 0 0q0 0 0 0q0 0 0 0q0 0 0 0q0 0 0 0q0 0 0 0q0 0 0 0q0 0 0 0q0 0 0 0q0 0 0 0q0 0 0 0q0 0 0 0q0-0.1 0-0.1q0 0 0 0q0 0 0 0q0 0 0 0q0 0 0 0q0.1 0 0.1 0q0 0 0 0q0 0 0 0q0 0 0 0q0 0 0 0q0 0 0 0q0 0 0 0q0 0 0 0q0 0 0 0q0 0 0 0q0 0 0 0q0 0 0 0q0 0 0 0q0 0 0 0q0 0 0 0q0 0 0 0q0 0 0 0q0.1-0.1 0.1 0zm-0.5 10.5q0 0 0-0.1c0-0.4-0.3-0.8-0.6-1q0 0 0 0q0 0 0 0.1c0 0.4 0.3 0.8 0.6 1q0 0 0 0zm-5.2-4.3q0 0 0 0q0 0 0 0q0 0 0 0q0 0 0 0q0 0 0 0q0 0-0.1 0q0 0 0 0q0 0 0 0q0 0 0 0q0 0 0 0q0 0 0 0q0 0 0 0q0 0 0 0q0 0 0 0q0 0 0 0q0 0 0 0q0 0 0 0q0 0 0 0q0 0 0 0q0 0 0 0q0 0 0 0.1q0 0 0 0q0 0 0 0q0 0 0 0q-0.1 0-0.1 0q0 0 0 0q0 0 0 0q0 0 0 0q0 0 0 0q0 0 0 0q0 0 0 0q0 0 0 0q0 0 0 0q0 0 0 0q0 0 0 0q0 0 0 0q0 0 0 0q0 0 0 0q0 0 0 0q0 0 0 0q0 0 0 0q0 0 0 0q-0.1 0-0.1 0q0 0 0 0q0 0 0 0q0 0 0 0q0 0 0 0q0 0.1 0 0.1q0 0 0 0q0 0 0 0q0 0 0 0q0 0 0 0q0 0 0 0q0 0 0 0q0 0 0 0q0 0 0 0q0 0 0 0q0 0 0 0q0 0 0 0q0 0 0 0q0 0-0.1 0q0 0 0 0q0 0 0 0q0 0 0 0q0 0 0 0q0 0 0 0q0 0 0 0q0 0 0 0q0 0 0 0q0 0 0 0q0 0 0 0q0 0 0 0q0 0 0 0q0 0 0 0q0 0.1 0 0.1q0 0 0 0q0 0 0 0q0 0 0 0q0 0-0.1 0q0 0 0 0q0 0 0 0q0 0 0 0q0 0 0 0q0 0 0 0q0 0 0 0q0 0 0 0q0 0 0 0q0 0 0 0q0 0 0 0q0 0 0 0q0 0 0 0q0 0 0 0q-0.2 0.2-0.5 0c-0.3-0.2-0.6-0.7-0.6-1.2q0-0.3 0.1-0.4q0.1 0 0.1-0.1c0 0 0.1-0.2 0.1-0.6c0 0 0-4 0-4c0-0.4-0.1-0.7-0.1-0.8q-0.1 0-0.1-0.1q-0.1-0.3-0.1-0.6c0-0.3 0-0.5 0.1-0.6q0 0 0.1 0q0 0 0 0q0 0 0 0q0 0 0 0q0 0 0 0q0 0 0-0.1q0 0 0 0q0 0 0 0q0 0 0 0q0 0 0 0q0 0 0 0q0 0 0 0q0 0 0 0q0 0 0 0q0 0 0 0q0 0 0 0q0 0 0 0q0 0 0 0q0 0 0.1 0q0 0 0 0q0 0 0 0q0 0 0 0q0 0 0 0q0 0 0 0q0 0 0 0q0 0 0 0q0 0 0 0q0 0 0 0q0 0 0 0q0 0 0 0q0 0 0 0q0 0 0 0q0-0.1 0-0.1q0 0 0 0q0 0 0 0q0 0 0 0q0 0 0 0q0.1 0 0.1 0q0 0 0 0q0 0 0 0q0 0 0 0q0 0 0 0q0 0 0 0q0 0 0 0q0 0 0 0q0 0 0 0q0 0 0 0q0 0 0 0q0 0 0 0q0 0 0 0q0 0 0 0q0 0 0 0q0 0 0 0q0 0 0 0q0 0 0 0q0.1 0 0.1 0q0 0 0 0q0 0 0 0q0 0 0 0q0-0.1 0-0.1q0 0 0 0q0 0 0 0q0 0 0 0q0 0 0 0q0 0 0 0q0 0 0 0q0 0 0 0q0 0 0 0q0 0 0 0q0 0 0 0q0 0 0 0q0 0 0 0q0 0 0 0q0 0 0.1 0q0 0 0 0q0 0 0 0q0 0 0 0q0 0 0 0q0 0 0 0q0 0 0 0q0 0 0 0q0 0 0 0q0 0 0 0q0 0 0 0q0 0 0 0q0 0 0-0.1q0 0 0 0q0 0 0 0q0 0 0 0q0 0 0 0q0 0 0 0q0 0 0.1 0q0 0 0 0q0 0 0.1 0q0 0 0.1 0.2c0 0.2 0 0.6 0 0.6v0.1q0 0 0 0q0-0.1 0.1-0.1q0 0 0 0q0 0 0 0q0 0 0 0q0 0 0 0q0 0 0 0q0 0 0 0q0 0 0-0.1q0 0 0 0q0 0 0 0q0 0 0 0q0 0 0 0q0 0 0 0q0 0 0 0q0 0 0 0q0.1 0 0.1 0q0 0 0 0q0 0 0 0q0 0 0 0q0 0 0 0q0 0 0 0q0 0 0 0q0 0 0 0q0 0 0 0q0 0 0 0q0 0 0 0q0 0 0 0q0 0 0 0q0 0 0 0q0 0 0 0q0 0 0 0q0 0 0 0q0 0 0 0q0 0 0.1 0q0-0.1 0-0.1q0 0 0 0q0 0 0 0q0 0 0 0q0 0 0 0q0 0 0 0q0 0 0 0q0 0 0 0q0 0 0 0q0 0 0 0q0 0 0 0q0 0 0 0q0 0 0 0q0 0 0 0q0 0 0 0q0 0 0 0q0 0 0 0q0 0 0.1 0q0 0 0 0q0 0 0 0q0 0 0 0q0 0 0 0q0 0 0 0q0 0 0 0q0 0 0 0q0 0 0 0q0 0 0 0q0-0.1 0-0.1q0 0 0 0q0 0 0 0q0 0 0 0q0 0 0 0q0 0 0 0q0 0 0 0q0 0 0 0q0 0 0 0q0.1 0 0.1 0q0 0 0 0q0 0 0 0q0 0 0 0q0 0 0 0q0 0 0 0q0 0 0 0q0 0 0 0q0 0 0 0q0 0 0 0q0 0 0 0q0 0 0 0q0 0 0 0q0 0 0 0q0 0 0 0q0 0 0 0q0 0 0 0q0 0 0 0q0.1-0.1 0.1-0.1q0 0 0 0q0 0 0 0q0 0 0 0q0 0 0 0q0 0 0 0q0 0 0 0c0.2 0.3 0.3 0.6 0.3 1q0 0.3-0.1 0.5q0 0-0.1 0q0 0 0 0c0 0-0.1 0.2-0.1 0.6v4.1c0 0.3 0 0.6 0.1 0.7q0 0.1 0.1 0.1q0.1 0.3 0.1 0.6q0 0.3-0.2 0.5q0 0 0 0zm-0.8-0.8q0.1 0.1 0.2 0.2q-0.1-0.1-0.2-0.2zm-2.7 1.1q0 0.5-0.2 0.7q0 0-0.1 0.1c0 0-0.2 0.3-0.2 0.9v3.8v1.3c0 0.7 0.2 1 0.2 1.2q0.1 0 0.1 0.1c0.1 0.3 0.2 0.6 0.2 1c0 0.4 0 0.7-0.2 0.8q0 0 0 0q0 0 0 0q0 0 0 0q-0.1 0-0.1 0q0 0 0 0q0 0 0 0q0 0 0 0q0 0 0 0q0 0 0 0q0 0 0 0q0 0.1 0 0.1q0 0 0 0q0 0 0 0q0 0 0 0q0 0 0 0q0 0 0 0q0 0 0 0q0 0 0 0q0 0 0 0q0 0 0 0q0 0 0 0q0 0-0.1 0q0 0 0 0q0 0 0 0q0 0 0 0q0 0 0 0q0 0 0 0q0 0 0 0q0 0 0 0q0 0 0 0q0 0 0 0q0 0 0 0q0 0 0 0q0 0 0 0q0 0 0 0q0 0 0 0q0 0 0 0q0 0.1 0 0.1q0 0 0 0q0 0-0.1 0q0 0 0 0q0 0 0 0q0 0 0 0q0 0 0 0q0 0 0 0q0 0 0 0q0 0 0 0q0 0 0 0q0 0 0 0q0 0 0 0q0 0 0 0q0 0 0 0q0 0 0 0q0 0 0 0q0 0 0 0q0 0 0 0q0 0 0 0q-0.1 0-0.1 0q0 0 0 0q0 0 0 0q0 0 0 0q0 0 0 0q0 0 0 0.1q0 0 0 0q0 0 0 0q0 0 0 0q0 0 0 0q0 0 0 0q0 0 0 0q0 0 0 0q0 0 0 0q0 0 0 0q0 0 0 0q0 0 0 0q0 0 0 0q-0.1 0-0.1 0q0 0 0 0q0 0 0 0q0 0 0 0q0 0 0 0q0 0 0 0q0 0 0 0q0 0 0 0q0 0 0 0q0 0 0 0q0 0 0 0q0 0 0 0q0 0 0 0q0 0 0 0q0 0 0 0.1q0 0 0 0q0 0 0 0q-0.1 0-0.2 0c-0.1 0-0.1-0.2-0.1-0.3c0-0.3 0-0.9 0-0.9l-0.4-0.5c0 0.2 0 0.4 0 0.6q0 0.1 0 0.1q0 0 0 0q0 0 0 0q0 0 0 0q-0.1 0-0.1 0q0 0 0 0q0 0 0 0q0 0 0 0q0 0.1 0 0.1q0 0 0 0q0 0 0 0q0 0 0 0q0 0 0 0q0 0 0 0q0 0 0 0q0 0 0 0q0 0 0 0q0 0 0 0q0 0 0 0q0 0 0 0q0 0 0 0q0 0 0 0q0 0-0.1 0q0 0 0 0q0 0 0 0q0 0 0 0q0 0 0 0q0 0 0 0q0 0 0 0q0 0 0 0q0 0 0 0q0 0 0 0q0 0 0 0q0 0 0 0q0 0 0 0q0 0.1 0 0.1q0 0 0 0q0 0 0 0q0 0 0 0q0 0 0 0q0 0-0.1 0q0 0 0 0q0 0 0 0q0 0 0 0q0 0 0 0q0 0 0 0q0 0 0 0q0 0 0 0q0 0 0 0q0 0 0 0q0 0 0 0q0 0 0 0q0 0 0 0q0 0 0 0q0 0 0 0q0 0 0 0q0 0 0 0q0 0 0 0q0 0-0.1 0q0 0 0 0q0 0 0 0q0 0 0 0.1q0 0 0 0q0 0 0 0q0 0 0 0q0 0 0 0q0 0 0 0q0 0 0 0q0 0 0 0q0 0 0 0q0 0 0 0q0 0 0 0q0 0 0 0q0 0 0 0q0 0 0 0q0 0 0 0q0 0 0 0q-0.1 0-0.1 0q0 0 0 0q0 0 0 0q0 0 0 0q0 0 0 0q0 0 0 0q0 0 0 0q0 0 0 0q0 0 0 0q0 0 0 0q0 0 0 0q0 0 0 0.1q0 0 0 0q0 0 0 0q0 0 0 0q0 0 0 0q0 0 0 0q-0.1 0-0.1 0c-0.3-0.4-0.4-0.9-0.4-1.4q0-0.5 0.2-0.7q0 0 0 0q0 0 0 0q0 0 0-0.1c0.1 0 0.2-0.2 0.2-0.9v-3.4c0 0 0-1.7 0-1.7c0-0.7-0.1-1.1-0.2-1.2q0 0 0-0.1q0 0 0 0q0 0 0 0c-0.1-0.3-0.2-0.6-0.2-1c0-0.4 0-0.7 0.2-0.8q0 0 0 0q0 0 0 0q0 0 0 0q0 0 0.1 0q0 0 0 0q0 0 0 0q0 0 0 0q0 0 0 0q0 0 0-0.1q0 0 0 0q0 0 0 0q0 0 0 0q0 0 0 0q0 0 0 0q0 0 0 0q0 0 0 0q0 0 0 0q0 0 0 0q0 0 0 0q0 0 0 0q0 0 0 0q0 0 0.1 0q0 0 0 0q0 0 0 0q0 0 0 0q0 0 0 0q0 0 0 0q0 0 0 0q0 0 0 0q0 0 0 0q0 0 0 0q0 0 0 0q0 0 0 0q0 0 0 0q0 0 0 0q0 0 0-0.1q0 0 0 0q0 0 0 0q0 0 0 0q0 0 0 0q0.1 0 0.1 0q0 0 0 0q0 0 0 0q0 0 0 0q0 0 0 0q0 0 0 0q0 0 0 0q0 0 0 0q0 0 0 0q0 0 0 0q0 0 0 0q0 0 0 0q0 0 0 0q0 0 0 0q0 0 0 0q0 0 0 0q0 0 0 0q0.1 0 0.1 0q0 0 0 0q0 0 0 0q0 0 0 0q0 0 0-0.1q0 0 0 0q0 0 0 0q0 0 0 0q0 0 0 0q0 0 0 0q0 0 0 0q0 0 0 0q0 0 0 0q0 0 0 0q0 0 0 0q0 0 0 0q0 0 0 0q0 0 0 0q0 0 0.1 0q0 0 0 0q0 0 0 0q0 0 0 0q0 0 0 0q0 0 0 0q0 0 0 0q0 0 0 0q0 0 0 0q0 0 0 0q0 0 0 0q0 0 0 0q0 0 0 0q0-0.1 0-0.1q0 0 0 0q0 0 0 0q0 0 0 0q0.1 0 0.2 0c0.1 0 0.1 0.1 0.1 0.3c0 0.3 0 0.9 0 0.9l0.4 0.5c0-0.2 0-0.4 0-0.6q0-0.1 0-0.1q0 0 0 0q0 0 0 0q0 0 0 0q0 0 0.1 0q0 0 0 0q0 0 0 0q0-0.1 0-0.1q0 0 0 0q0 0 0 0q0 0 0 0q0 0 0 0q0 0 0 0q0 0 0 0q0 0 0 0q0 0 0 0q0 0 0 0q0 0 0 0q0 0 0 0q0 0 0 0q0 0 0 0q0 0 0 0q0 0 0.1 0q0 0 0 0q0 0 0 0q0 0 0 0q0 0 0 0q0 0 0 0q0 0 0 0q0 0 0 0q0 0 0 0q0 0 0 0q0 0 0 0q0 0 0-0.1q0 0 0 0q0 0 0 0q0 0 0 0q0 0 0 0q0 0 0 0q0 0 0 0q0 0 0 0q0.1 0 0.1 0q0 0 0 0q0 0 0 0q0 0 0 0q0 0 0 0q0 0 0 0q0 0 0 0q0 0 0 0q0 0 0 0q0 0 0 0q0 0 0 0q0 0 0 0q0 0 0 0q0 0 0 0q0 0 0 0q0 0 0 0q0 0 0 0q0 0 0 0q0.1 0 0.1 0q0 0 0-0.1q0 0 0 0q0 0 0 0q0 0 0 0q0 0 0 0q0 0 0 0q0 0 0 0q0 0 0 0q0 0 0 0q0 0 0 0q0 0 0 0q0 0 0 0q0 0 0 0q0 0 0 0q0 0 0 0q0 0 0 0q0 0 0 0q0.1 0 0.1 0q0 0 0 0q0 0 0 0q0 0 0 0q0 0 0 0q0 0 0 0q0 0 0 0q0 0 0 0q0 0 0 0q0 0 0 0q0-0.1 0-0.1q0 0 0 0q0 0 0 0q0 0 0 0q0 0 0 0q0 0 0 0q0 0 0 0q0.1 0 0.1 0c0.3 0.4 0.4 0.9 0.4 1.4zm2.9 2.2q0 0.4-0.2 0.6q-0.1 0-0.1 0c0 0.1-0.2 0.3-0.2 0.8v3.6c0 0 0 1 0 1c0 0.6 0.2 0.9 0.2 1q0 0.1 0.1 0.1q0.2 0.5 0.2 0.9c0 0.4-0.1 0.6-0.3 0.8q0 0 0 0q0 0 0 0q0 0 0 0q0 0 0 0q0 0 0 0q0 0 0 0q0 0 0 0q0 0 0 0q0 0 0 0q0 0 0 0q0 0 0 0q0 0 0 0q0 0 0 0q0 0 0 0q0 0 0 0q0 0 0 0q0 0-0.1 0q0 0 0 0q0 0 0 0q0 0 0 0q0 0 0 0q0 0 0 0q0 0 0 0q0 0 0 0q0 0 0 0q0 0 0 0q0 0.1 0 0.1q0 0 0 0q0 0 0 0q0 0 0 0q0 0 0 0q0 0 0 0q0 0 0 0q0 0 0 0q0 0-0.1 0q0 0 0 0q0 0 0 0q0 0 0 0q0 0 0 0q0 0 0 0q0 0 0 0q0 0 0 0q0 0 0 0q0 0 0 0q0 0 0 0q0 0 0 0q0 0 0 0q0 0 0 0q0 0 0 0q0 0 0 0q0 0 0 0q0 0 0 0q0 0 0 0q-0.1 0.1-0.1 0.1q0 0 0 0q0 0 0 0q0 0 0 0q0 0 0 0q0 0 0 0q0 0 0 0q0 0 0 0q0 0 0 0q0 0 0 0q0 0 0 0q0 0 0 0q0 0 0 0q0 0 0 0q0 0 0 0q0 0 0 0q0 0 0 0q0 0 0 0q-0.1 0-0.1 0q0 0 0 0q0 0 0 0q0 0 0 0q0 0 0 0q0 0 0 0q0 0 0 0q0 0 0 0q0 0 0 0q0 0.1 0 0.1q0 0 0 0q0 0 0 0q0 0 0 0q0 0 0 0q0 0 0 0q0 0 0 0q0 0 0 0q0 0 0 0q0 0-0.1 0q0 0 0 0q0 0 0 0q0 0 0 0q0 0-0.1 0c-0.1 0-0.1-0.1-0.1-0.2c0-0.3 0-0.8 0-0.8l-0.3-0.4q0 0.2 0 0.4q0 0.1 0 0.1q0 0 0 0q0 0 0 0q0 0 0 0q0 0 0 0q0 0-0.1 0q0 0 0 0.1q0 0 0 0q0 0 0 0q0 0 0 0q0 0 0 0q0 0 0 0q0 0 0 0q0 0 0 0q0 0 0 0q0 0 0 0q0 0 0 0q0 0 0 0q0 0 0 0q0 0 0 0q0 0 0 0q0 0 0 0q0 0 0 0q0 0-0.1 0q0 0 0 0q0 0 0 0q0 0 0 0q0 0 0 0q0 0 0 0q0 0 0 0q0 0 0 0q0 0 0 0q0 0 0 0q0 0 0 0.1q0 0 0 0q0 0 0 0q0 0 0 0q0 0 0 0q0 0 0 0q0 0 0 0q0 0 0 0q0 0 0 0q-0.1 0-0.1 0q0 0 0 0q0 0 0 0q0 0 0 0q0 0 0 0q0 0 0 0q0 0 0 0q0 0 0 0q0 0 0 0q0 0 0 0q0 0 0 0q0 0 0 0q0 0 0 0q0 0 0 0q0 0 0 0q0 0 0 0q0 0 0 0q0 0 0 0q-0.1 0.1-0.1 0.1q0 0 0 0q0 0 0 0q0 0 0 0q0 0 0 0q0 0 0 0q0 0 0 0q0 0 0 0q0 0 0 0q0 0 0 0q0 0 0 0q0 0 0 0q0 0 0 0q0 0 0 0q0 0 0 0q0 0 0 0q0 0 0 0q0 0 0 0q0 0-0.1 0q0 0 0 0q0 0 0 0q0 0 0 0q0 0 0 0q0 0 0 0q0 0 0 0q0 0 0 0q0 0 0 0q0 0.1 0 0.1q0 0 0 0q0 0 0 0q0 0 0 0q0 0 0 0q0 0 0 0q0 0 0 0q-0.1 0-0.1 0c-0.3-0.4-0.4-0.8-0.4-1.3q0-0.4 0.2-0.6q0 0 0 0q0 0 0.1 0q0 0 0 0c0-0.1 0.2-0.3 0.2-0.8v-3.1c0 0 0-1.5 0-1.5c0-0.6-0.2-0.9-0.2-1.1q0 0-0.1 0q0 0 0 0q0 0 0 0q-0.2-0.5-0.2-0.9c0-0.4 0.1-0.6 0.3-0.7q0 0 0-0.1q0 0 0 0q0 0 0 0q0 0 0 0q0 0 0 0q0 0 0 0q0 0 0 0q0 0 0 0q0 0 0 0q0 0 0 0q0 0 0 0q0 0 0 0q0 0 0 0q0 0 0 0q0 0 0 0q0 0 0.1 0q0 0 0 0q0 0 0 0q0 0 0 0q0 0 0 0q0 0 0 0q0 0 0 0q0 0 0 0q0 0 0 0q0 0 0 0q0 0 0 0q0 0 0 0q0 0 0-0.1q0 0 0 0q0 0 0 0q0 0 0 0q0 0 0 0q0 0 0 0q0 0 0 0q0.1 0 0.1 0q0 0 0 0q0 0 0 0q0 0 0 0q0 0 0 0q0 0 0 0q0 0 0 0q0 0 0 0q0 0 0 0q0 0 0 0q0 0 0 0q0 0 0 0q0 0 0 0q0 0 0 0q0 0 0 0q0 0 0 0q0 0 0 0q0 0 0 0q0.1 0 0.1 0q0 0 0 0q0-0.1 0-0.1q0 0 0 0q0 0 0 0q0 0 0 0q0 0 0 0q0 0 0 0q0 0 0 0q0 0 0 0q0 0 0 0q0 0 0 0q0 0 0 0q0 0 0 0q0 0 0 0q0 0 0 0q0 0 0 0q0 0 0 0q0 0 0.1 0q0 0 0 0q0 0 0 0q0 0 0 0q0 0 0 0q0 0 0 0q0 0 0 0q0 0 0 0q0 0 0 0q0 0 0 0q0 0 0 0q0-0.1 0-0.1q0 0 0 0q0 0 0 0q0 0 0 0q0 0 0 0q0 0 0 0q0 0 0 0q0 0 0.1 0q0 0 0 0q0 0 0 0q0 0 0 0q0 0 0 0q0 0 0.1 0c0.1 0 0.1 0.1 0.1 0.2c0 0.3 0 0.8 0 0.8l0.3 0.4q0-0.2 0-0.4q0-0.1 0-0.1q0 0 0 0q0 0 0 0q0 0 0 0q0 0 0.1 0q0 0 0 0q0 0 0 0q0 0 0-0.1q0 0 0 0q0 0 0 0q0 0 0 0q0 0 0 0q0 0 0 0q0 0 0 0q0 0 0 0q0 0 0 0q0 0 0 0q0 0 0 0q0 0 0 0q0 0 0 0q0 0 0 0q0 0 0 0q0 0 0 0q0.1 0 0.1 0q0 0 0 0q0 0 0 0q0 0 0 0q0 0 0 0q0 0 0 0q0 0 0 0q0 0 0 0q0 0 0 0q0 0 0 0q0 0 0 0q0 0 0-0.1q0 0 0 0q0 0 0 0q0 0 0 0q0 0 0 0q0 0 0 0q0 0 0 0q0.1 0 0.1 0q0 0 0 0q0 0 0 0q0 0 0 0q0 0 0 0q0 0 0 0q0 0 0 0q0 0 0 0q0 0 0 0q0 0 0 0q0 0 0 0q0 0 0 0q0 0 0 0q0 0 0 0q0 0 0 0q0 0 0 0q0 0 0 0q0 0 0 0q0 0 0.1 0q0 0 0 0q0-0.1 0-0.1q0 0 0 0q0 0 0 0q0 0 0 0q0 0 0 0q0 0 0 0q0 0 0 0q0 0 0 0q0 0 0 0q0 0 0 0q0 0 0 0q0 0 0 0q0 0 0 0q0 0 0 0q0 0 0 0q0 0 0 0q0 0 0.1 0q0 0 0 0q0 0 0 0q0 0 0 0q0 0 0 0q0 0 0 0q0 0 0 0q0 0 0 0q0 0 0 0q0 0 0 0q0 0 0 0q0-0.1 0-0.1q0 0 0 0q0 0 0 0q0 0 0 0q0 0 0 0q0 0 0 0q0.1 0 0.1 0c0.3 0.4 0.4 0.8 0.4 1.3zm2.4 2q0 0.3-0.1 0.5q0 0-0.1 0c0 0.1-0.1 0.2-0.1 0.7v3.2v0.9c0 0.4 0.1 0.6 0.1 0.7q0.1 0.1 0.1 0.1q0.1 0.3 0.1 0.7c0 0.3 0 0.5-0.1 0.6q0 0-0.1 0q0 0 0 0q0 0 0 0q0 0 0 0q0 0 0 0q0 0 0 0q0 0 0 0q0 0 0 0q0 0 0 0q0 0 0 0q0 0 0 0q0 0 0 0q0 0 0 0q0 0 0 0q0 0 0 0q0 0 0 0q0 0 0 0q0 0 0 0q0 0 0 0q-0.1 0-0.1 0q0 0 0 0q0 0 0 0.1q0 0 0 0q0 0 0 0q0 0 0 0q0 0 0 0q0 0 0 0q0 0 0 0q0 0 0 0q0 0 0 0q0 0 0 0q0 0 0 0q0 0 0 0q0 0 0 0q0 0 0 0q0 0 0 0q0 0 0 0q-0.1 0-0.1 0q0 0 0 0q0 0 0 0q0 0 0 0q0 0 0 0q0 0 0 0q0 0 0 0q0 0 0 0q0 0 0 0q0 0 0 0q0 0 0 0q0 0 0 0.1q0 0 0 0q0 0 0 0q0 0 0 0q0 0 0 0q0 0 0 0q0 0 0 0q0 0-0.1 0q0 0 0 0q0 0 0 0q0 0 0 0q0 0 0 0q0 0 0 0q0 0 0 0q0 0 0 0q0 0 0 0q0 0 0 0q0 0 0 0q0 0 0 0q0 0 0 0q0 0 0 0q0 0 0 0q0 0 0 0q0 0 0 0q0 0 0 0q0 0-0.1 0q0 0 0 0q0 0 0 0.1q0 0 0 0q0 0 0 0q0 0 0 0q0 0 0 0q0 0 0 0q0 0 0 0q0 0 0 0q0 0 0 0q0 0 0 0q0 0 0 0q0 0 0 0q0 0 0 0q0 0 0 0q0 0 0 0q0 0 0 0q0 0 0 0q-0.1 0-0.1 0q0 0-0.1 0.1q0-0.1-0.1-0.3c0-0.2 0-0.6 0-0.6v-0.1q0 0 0 0q0 0.1-0.1 0.2q0 0 0 0q0 0 0 0q0 0 0 0q0 0 0 0q0 0 0 0q0 0 0 0q0 0 0 0q0 0 0 0q0 0 0 0q0 0 0 0q0 0 0 0q0 0 0 0q0 0 0 0q0 0 0 0q0 0-0.1 0q0 0 0 0q0 0 0 0q0 0 0 0q0 0 0 0q0 0 0 0q0 0 0 0q0 0 0 0q0 0 0 0q0 0.1 0 0.1q0 0 0 0q0 0 0 0q0 0 0 0q0 0 0 0q0 0 0 0q0 0 0 0q0 0 0 0q0 0 0 0q0 0-0.1 0q0 0 0 0q0 0 0 0q0 0 0 0q0 0 0 0q0 0 0 0q0 0 0 0q0 0 0 0q0 0 0 0q0 0 0 0q0 0 0 0q0 0 0 0q0 0 0 0q0 0 0 0q0 0 0 0q0 0 0 0q0 0 0 0q0 0 0 0q0 0.1 0 0.1q-0.1 0-0.1 0q0 0 0 0q0 0 0 0q0 0 0 0q0 0 0 0q0 0 0 0q0 0 0 0q0 0 0 0q0 0 0 0q0 0 0 0q0 0 0 0q0 0 0 0q0 0 0 0q0 0 0 0q0 0 0 0q0 0 0 0q0 0 0 0q0 0 0 0q-0.1 0-0.1 0q0 0 0 0q0 0 0 0q0 0 0 0q0 0 0 0q0 0 0 0q0 0 0 0q0 0 0 0.1q0 0 0 0q0 0 0 0q0 0 0 0q0 0 0 0q0 0 0 0q0 0 0 0q0 0 0 0q0 0 0 0q0 0 0 0q0 0 0 0q0 0-0.1 0q0 0 0 0q0 0 0 0q0 0 0 0q0 0 0 0q0 0 0 0q0 0 0 0c-0.2-0.3-0.3-0.6-0.3-0.9q0-0.4 0.1-0.5q0 0 0.1 0q0 0 0 0c0-0.1 0.1-0.2 0.1-0.7v-2.8c0 0 0-1.3 0-1.3c0-0.4-0.1-0.7-0.1-0.8q0 0-0.1 0q0 0 0 0q0 0 0 0q-0.1-0.4-0.1-0.7c0-0.3 0-0.5 0.2-0.6q0 0 0 0q0 0 0 0q0 0 0 0q0 0 0 0q0 0 0 0q0 0 0 0q0 0 0 0q0 0 0 0q0 0 0 0q0 0 0 0q0 0 0 0q0 0 0 0q0 0 0 0q0 0 0 0q0 0 0-0.1q0 0 0.1 0q0 0 0 0q0 0 0 0q0 0 0 0q0 0 0 0q0 0 0 0q0 0 0 0q0 0 0 0q0 0 0 0q0 0 0 0q0 0 0 0q0 0 0 0q0 0 0 0q0 0 0 0q0 0 0 0q0 0 0 0q0 0 0 0q0 0 0 0q0 0 0 0q0.1 0 0.1 0q0 0 0 0q0 0 0 0q0 0 0 0q0 0 0 0q0 0 0 0q0 0 0 0q0-0.1 0-0.1q0 0 0 0q0 0 0 0q0 0 0 0q0 0 0 0q0 0 0 0q0 0 0 0q0 0 0 0q0 0 0 0q0 0 0 0q0 0 0 0q0.1 0 0.1 0q0 0 0 0q0 0 0 0q0 0 0 0q0 0 0 0q0 0 0 0q0 0 0 0q0 0 0 0q0 0 0 0q0 0 0 0q0 0 0 0q0 0 0 0q0 0 0 0q0 0 0 0q0 0 0 0q0 0 0 0q0-0.1 0-0.1q0 0 0 0q0 0 0.1 0q0 0 0 0q0 0 0 0q0 0 0 0q0 0 0 0q0 0 0 0q0 0 0 0q0 0 0 0q0 0 0 0q0 0 0 0q0 0 0 0q0 0 0 0q0 0 0 0q0 0 0 0q0 0 0 0q0 0 0 0q0 0 0 0q0 0 0 0q0 0 0.1 0q0 0 0 0q0 0 0 0q0 0 0 0q0 0 0 0q0-0.1 0.1-0.1q0.1 0.1 0.1 0.2c0 0.3 0 0.6 0 0.6v0.2q0-0.1 0-0.1q0-0.1 0.1-0.1q0 0 0 0q0 0 0 0q0 0 0 0q0 0 0 0q0 0 0 0q0 0 0 0q0 0 0 0q0 0 0 0q0 0 0 0q0 0 0 0q0 0 0 0q0.1 0 0.1 0q0 0 0 0q0 0 0 0q0 0 0 0q0 0 0-0.1q0 0 0 0q0 0 0 0q0 0 0 0q0 0 0 0q0 0 0 0q0 0 0 0q0 0 0 0q0 0 0 0q0 0 0 0q0 0 0 0q0 0 0 0q0 0 0 0q0 0 0 0q0 0 0.1 0q0 0 0 0q0 0 0 0q0 0 0 0q0 0 0 0q0 0 0 0q0 0 0 0q0 0 0 0q0 0 0 0q0 0 0 0q0 0 0 0q0 0 0 0q0 0 0 0q0 0 0-0.1q0 0 0 0q0 0 0 0q0 0 0 0q0 0 0 0q0 0 0.1 0q0 0 0 0q0 0 0 0q0 0 0 0q0 0 0 0q0 0 0 0q0 0 0 0q0 0 0 0q0 0 0 0q0 0 0 0q0 0 0 0q0 0 0 0q0 0 0 0q0 0 0 0q0 0 0 0q0 0 0 0q0 0 0 0q0 0 0 0q0 0 0 0q0.1 0 0.1 0q0 0 0 0q0 0 0 0q0-0.1 0-0.1q0 0 0 0q0 0 0 0q0 0 0 0q0 0 0 0q0 0 0 0q0 0 0 0q0 0 0 0q0 0 0 0q0 0 0 0q0 0 0 0q0 0 0 0q0 0 0 0q0 0 0 0q0 0 0 0q0.1 0 0.1 0q0 0 0 0q0 0 0 0q0 0 0 0q0 0 0 0q0 0 0 0q0 0 0 0q0 0 0 0q0 0 0 0q0-0.1 0 0c0.3 0.2 0.3 0.6 0.3 0.9zm2.3 2q0 0.3-0.1 0.4q0 0 0 0c-0.1 0-0.1 0.2-0.1 0.5v2.9v0.4c0 0.4 0 0.6 0.1 0.6q0 0.1 0 0.1q0.1 0.3 0.1 0.5q0 0.4-0.1 0.5q0 0 0 0q0 0 0 0q0 0 0 0q0 0 0 0q0 0 0 0q0 0 0 0q0 0 0 0q0 0 0 0q-0.1 0-0.1 0q0 0 0 0q0 0 0 0q0 0 0 0q0 0 0 0q0 0 0 0q0 0 0 0q0 0.1 0 0.1q0 0 0 0q0 0 0 0q0 0 0 0q0 0 0 0q0 0 0 0q0 0 0 0q0 0 0 0q0 0 0 0q0 0 0 0q0 0 0 0q-0.1 0-0.1 0q0 0 0 0q0 0 0 0q0 0 0 0q0 0 0 0q0 0 0 0q0 0 0 0q0 0 0 0q0 0 0 0q0 0 0 0q0 0 0 0q0 0 0 0q0 0 0 0q0 0 0 0q0 0 0 0q0 0 0 0q0 0.1 0 0.1q0 0 0 0q0 0-0.1 0q0 0 0 0q0 0 0 0q0 0 0 0q0 0 0 0q0 0 0 0q0 0 0 0q0 0 0 0q0 0 0 0q0 0 0 0q0 0 0 0q0 0 0 0q0 0 0 0q0 0 0 0q0 0 0 0q0 0 0 0q0 0 0 0q0 0 0 0q0 0-0.1 0q0 0 0 0q0 0 0 0q0 0 0 0q0 0 0 0q0 0 0 0q0 0 0 0q0 0.1 0 0.1q0 0 0 0q0 0 0 0q0 0 0 0q0 0 0 0q0 0 0 0q0 0 0 0q0 0 0 0q0 0 0 0q0 0 0 0q0 0 0 0q0 0 0 0q-0.1 0-0.1 0q0 0 0 0q0 0 0 0q0 0 0 0q0 0 0 0q0 0 0 0q0 0 0 0q0 0 0 0q0 0 0 0q0 0 0 0q0 0 0 0q0 0 0 0q-0.1 0.1-0.1 0.1q-0.1-0.1-0.1-0.2c0-0.2 0-0.5 0-0.5q0 0 0 0q0 0 0 0q0 0 0 0q0 0 0 0q0 0 0 0q0 0 0 0q0 0 0 0q-0.1 0-0.1 0q0 0 0 0q0 0 0 0q0 0 0 0q0 0 0 0q0 0 0 0q0 0 0 0q0 0.1 0 0.1q0 0 0 0q0 0 0 0q0 0 0 0q0 0 0 0q0 0 0 0q0 0 0 0q0 0 0 0q0 0 0 0q0 0 0 0q0 0 0 0q0 0-0.1 0q0 0 0 0q0 0 0 0q0 0 0 0q0 0 0 0q0 0 0 0q0 0 0 0q0 0 0 0q0 0 0 0q0 0 0 0q0 0 0 0q0 0 0 0q0 0 0 0q0 0 0 0q0 0 0 0q0 0 0 0.1q0 0 0 0q0 0 0 0q0 0-0.1 0q0 0 0 0q0 0 0 0q0 0 0 0q0 0 0 0q0 0 0 0q0 0 0 0q0 0 0 0q0 0 0 0q0 0 0 0q0 0 0 0q0 0 0 0q0 0 0 0q0 0 0 0q0 0 0 0q0 0 0 0q0 0 0 0q0 0 0 0q0 0 0 0q-0.1 0-0.1 0q0 0 0 0q0 0 0 0q0 0 0 0q0 0 0 0q0 0 0 0.1q0 0 0 0q0 0 0 0q0 0 0 0q0 0 0 0q0 0 0 0q0 0 0 0q0 0 0 0q0 0 0 0q0 0 0 0q0 0 0 0q0 0 0 0q0 0 0 0q-0.1 0-0.1 0q0 0 0 0q0 0 0 0q0 0 0 0q0 0 0 0q0 0 0 0q0 0 0 0q0 0 0 0q0 0 0 0q0 0 0 0c-0.2-0.2-0.3-0.5-0.3-0.7q0-0.3 0.2-0.4q0 0 0 0q0 0 0 0c0-0.1 0.1-0.2 0.1-0.5v-2.5v-0.9c0-0.3-0.1-0.5-0.1-0.6q0 0 0 0q0 0 0 0q-0.2-0.3-0.2-0.6q0-0.3 0.2-0.4q0 0 0 0q0 0 0 0q0 0 0 0q0 0 0 0q0 0 0 0q0-0.1 0-0.1q0 0 0 0q0 0 0 0q0 0 0 0q0 0 0 0q0 0 0 0q0 0 0 0q0 0 0 0q0 0 0 0q0 0 0 0q0 0 0 0q0 0 0 0q0.1 0 0.1 0q0 0 0 0q0 0 0 0q0 0 0 0q0 0 0 0q0 0 0 0q0 0 0 0q0 0 0 0q0 0 0 0q0 0 0 0q0 0 0 0q0 0 0 0q0 0 0 0q0 0 0 0q0 0 0 0q0-0.1 0-0.1q0 0 0 0q0 0 0 0q0 0 0.1 0q0 0 0 0q0 0 0 0q0 0 0 0q0 0 0 0q0 0 0 0q0 0 0 0q0 0 0 0q0 0 0 0q0 0 0 0q0 0 0 0q0 0 0 0q0 0 0 0q0 0 0 0q0 0 0 0q0 0 0 0q0 0 0 0q0 0 0 0q0 0 0.1 0q0 0 0 0q0 0 0 0q0 0 0 0q0 0 0 0q0 0 0 0q0-0.1 0-0.1q0 0 0 0q0 0 0 0q0 0 0 0q0 0 0 0q0 0 0 0q0 0 0 0q0 0 0 0q0 0 0 0q0 0 0 0q0 0 0 0q0 0 0 0q0 0 0.1 0q0 0 0 0q0 0 0 0q0 0 0 0q0 0 0 0q0 0 0 0q0 0 0 0q0 0 0 0q0 0 0 0q0 0 0 0q0 0 0 0q0 0 0 0q0 0 0 0q0 0 0 0q0 0 0-0.1q0 0 0 0q0 0 0 0q0 0 0 0q0 0 0 0q0.1 0 0.1 0q0 0 0 0q0 0 0 0q0 0 0.1 0q0 0 0 0.1c0 0.2 0 0.5 0 0.5q0.1 0.1 0.1 0.1q0 0 0 0q0 0 0 0q0 0 0 0q0-0.1 0-0.1q0 0 0 0q0 0 0 0q0 0 0 0q0 0 0 0q0 0 0 0q0 0 0 0q0 0 0 0q0 0 0 0q0 0 0 0q0 0 0 0q0 0 0 0q0.1 0 0.1 0q0 0 0 0q0 0 0 0q0 0 0 0q0 0 0 0q0 0 0 0q0 0 0 0q0 0 0 0q0 0 0 0q0 0 0 0q0 0 0 0q0 0 0 0q0 0 0 0q0 0 0 0q0 0 0 0q0-0.1 0-0.1q0 0 0 0q0 0 0 0q0 0 0.1 0q0 0 0 0q0 0 0 0q0 0 0 0q0 0 0 0q0 0 0 0q0 0 0 0q0 0 0 0q0 0 0 0q0 0 0 0q0 0 0 0q0 0 0 0q0 0 0 0q0 0 0 0q0 0 0 0q0 0 0 0q0 0 0 0q0 0 0 0q0 0 0.1 0q0 0 0 0q0 0 0 0q0 0 0 0q0 0 0 0q0 0 0-0.1q0 0 0 0q0 0 0 0q0 0 0 0q0 0 0 0q0 0 0 0q0 0 0 0q0 0 0 0q0 0 0 0q0 0 0 0q0 0 0 0q0 0 0 0q0 0 0 0q0 0 0 0q0.1 0 0.1 0q0 0 0 0q0 0 0 0q0 0 0 0q0 0 0 0q0 0 0 0q0 0 0 0q0 0 0 0q0 0 0 0q0 0 0 0q0 0 0 0q0 0 0 0q0 0 0 0q0 0 0-0.1q0 0 0 0q0 0 0 0q0 0 0 0q0 0 0 0q0.1 0 0.1 0c0.2 0.3 0.2 0.5 0.2 0.8zm2 1.7q0 0.2-0.1 0.3q0 0 0 0.1c0 0-0.1 0.1-0.1 0.4v2.5v0.1c0 0.2 0.1 0.4 0.1 0.5q0 0 0 0q0.1 0.2 0.1 0.4q0 0.3-0.1 0.4q0 0 0 0q0 0 0 0q0 0 0 0q0 0 0 0q0 0 0 0q0 0 0 0q0 0 0 0q0 0 0 0q0 0 0 0q0 0 0 0q0 0 0 0q0 0 0 0q0 0 0 0q0 0 0 0q0 0.1 0 0.1q0 0-0.1 0q0 0 0 0q0 0 0 0q0 0 0 0q0 0 0 0q0 0 0 0q0 0 0 0q0 0 0 0q0 0 0 0q0 0 0 0q0 0 0 0q0 0 0 0q0 0 0 0q0 0 0 0q0 0 0 0q0 0 0 0q0 0 0 0q0 0 0 0q0 0-0.1 0q0 0 0 0q0 0 0 0q0 0 0 0q0 0 0 0q0 0 0 0q0 0 0 0q0 0 0 0q0 0.1 0 0.1q0 0 0 0q0 0 0 0q0 0 0 0q0 0 0 0q0 0 0 0q0 0 0 0q0 0 0 0q0 0 0 0q0 0 0 0q0 0 0 0q-0.1 0-0.1 0q0 0 0 0q0 0 0 0q0 0 0 0q0 0 0 0q0 0 0 0q0 0 0 0q0 0 0 0q0 0 0 0q0 0 0 0q0 0 0 0q0 0 0 0q0 0 0 0q0 0 0 0q0 0 0 0q0 0 0 0q0 0.1 0 0.1q0 0 0 0q-0.1 0-0.1 0q0 0 0 0q0 0 0 0q0 0 0 0q0 0 0 0q0 0 0 0q0 0 0 0q0 0 0 0q0 0 0 0q0 0 0 0q0 0 0 0q0 0 0 0q0 0 0 0q0 0 0 0q0 0 0 0q0 0 0 0q0 0 0 0q0 0 0 0q0 0-0.1 0q0 0 0 0q0 0 0 0q0 0 0 0q0 0 0 0q0 0.1-0.1 0.1q0-0.1 0-0.2c0-0.1 0-0.4 0-0.4q0 0 0 0q0 0 0 0q0 0 0 0q0 0-0.1 0q0 0 0 0q0 0 0 0.1q0 0 0 0q0 0 0 0q0 0 0 0q0 0 0 0q0 0 0 0q0 0 0 0q0 0 0 0q0 0 0 0q0 0 0 0q0 0 0 0q0 0 0 0q0 0 0 0q0 0 0 0q0 0 0 0q0 0 0 0q0 0-0.1 0q0 0 0 0q0 0 0 0q0 0 0 0q0 0 0 0q0 0 0 0q0 0 0 0q0 0 0 0q0 0 0 0q0 0 0 0q0 0 0 0q0 0.1 0 0.1q0 0 0 0q0 0 0 0q0 0 0 0q0 0 0 0q0 0 0 0q0 0 0 0q0 0 0 0q-0.1 0-0.1 0q0 0 0 0q0 0 0 0q0 0 0 0q0 0 0 0q0 0 0 0q0 0 0 0q0 0 0 0q0 0 0 0q0 0 0 0q0 0 0 0q0 0 0 0q0 0 0 0q0 0 0 0q0 0 0 0q0 0 0 0q0 0 0 0q0 0 0 0q-0.1 0-0.1 0q0 0.1 0 0.1q0 0 0 0q0 0 0 0q0 0 0 0q0 0 0 0q0 0 0 0q0 0 0 0q0 0 0 0q0 0 0 0q0 0 0 0q0 0 0 0q0 0-0.1 0q-0.2-0.3-0.1-0.6q0-0.2 0.1-0.3q0 0 0 0c0-0.1 0.1-0.2 0.1-0.4v-2.2v-0.4c0-0.3-0.1-0.5-0.1-0.6q0 0 0 0q0 0 0 0q-0.1-0.2-0.1-0.4q0-0.3 0.1-0.4q0 0 0 0q0 0 0 0q0 0 0 0q0 0 0 0q0 0 0 0q0 0 0 0q0 0 0 0q0 0 0 0q0 0 0 0q0 0 0 0q0 0 0 0q0 0 0 0q0 0 0 0q0 0 0 0q0 0 0 0q0 0 0.1 0q0 0 0 0q0 0 0 0q0 0 0-0.1q0 0 0 0q0 0 0 0q0 0 0 0q0 0 0 0q0 0 0 0q0 0 0 0q0 0 0 0q0 0 0 0q0 0 0 0q0 0 0 0q0 0 0 0q0 0 0 0q0 0 0 0q0 0 0 0q0 0 0.1 0q0 0 0 0q0 0 0 0q0 0 0 0q0 0 0 0q0 0 0 0q0 0 0 0q0 0 0 0q0 0 0 0q0 0 0 0q0 0 0 0q0 0 0 0q0-0.1 0-0.1q0 0 0 0q0 0 0 0q0 0 0 0q0 0 0 0q0 0 0 0q0 0 0 0q0.1 0 0.1 0q0 0 0 0q0 0 0 0q0 0 0 0q0 0 0 0q0 0 0 0q0 0 0 0q0 0 0 0q0 0 0 0q0 0 0 0q0 0 0 0q0 0 0 0q0 0 0 0q0 0 0 0q0 0 0 0q0 0 0 0q0 0 0 0q0 0 0 0q0.1 0 0.1 0q0 0 0 0q0-0.1 0-0.1q0 0 0 0q0 0 0 0q0 0 0 0q0 0 0 0q0 0 0 0q0 0 0 0q0 0 0 0q0 0 0 0q0 0 0 0q0 0 0 0q0 0 0 0q0 0 0 0q0 0 0 0q0 0 0 0q0 0 0 0q0 0 0.1 0q0 0 0 0q0 0 0 0q0 0 0 0q0 0 0 0q0-0.1 0.1-0.1q0 0.1 0 0.2c0 0.1 0 0.4 0 0.4q0 0 0 0q0 0 0 0q0 0 0 0q0 0 0.1 0q0 0 0 0q0 0 0 0q0 0 0 0q0 0 0 0q0 0 0 0q0 0 0-0.1q0 0 0 0q0 0 0 0q0 0 0 0q0 0 0 0q0 0 0 0q0 0 0 0q0 0 0 0q0 0 0 0q0 0 0 0q0 0 0 0q0 0 0 0q0 0 0.1 0q0 0 0 0q0 0 0 0q0 0 0 0q0 0 0 0q0 0 0 0q0 0 0 0q0 0 0 0q0 0 0 0q0 0 0 0q0 0 0 0q0 0 0 0q0 0 0 0q0 0 0 0q0 0 0 0q0 0 0-0.1q0 0 0 0q0 0 0 0q0 0 0 0q0.1 0 0.1 0q0 0 0 0q0 0 0 0q0 0 0 0q0 0 0 0q0 0 0 0q0 0 0 0q0 0 0 0q0 0 0 0q0 0 0 0q0 0 0 0q0 0 0 0q0 0 0 0q0 0 0 0q0 0 0 0q0 0 0 0q0 0 0 0q0 0 0 0q0.1 0 0.1 0q0 0 0 0q0 0 0 0q0 0 0 0q0 0 0 0q0 0 0-0.1q0 0 0 0q0 0 0 0q0 0 0 0q0 0 0 0q0 0 0 0q0 0 0 0q0 0 0.1 0q0.2 0.3 0.1 0.6z" />
		<path id="Layer" class="s4" d="m50.7 43.6v0.6q0 0.1 0 0.1q0 0 0 0q0 0 0 0q0 0 0 0q-0.1 0-0.1 0q0 0 0 0q0 0 0 0q0 0 0 0q0 0 0 0q0 0 0 0q0 0 0 0.1q0 0 0 0q0 0 0 0q0 0 0 0q0 0 0 0q0 0 0 0q0 0 0 0q0 0 0 0q0 0 0 0q0 0 0 0q0 0 0 0q0 0 0 0q-0.1 0-0.1 0q0 0 0 0q0 0 0 0q0 0 0 0q0 0 0 0q0 0 0 0q0 0 0 0q0 0 0 0q0 0 0 0q0 0 0 0q0 0 0 0q0 0 0 0q0 0 0 0q0 0 0 0q0 0 0 0q0 0.1 0 0.1q0 0 0 0q0 0 0 0q0 0-0.1 0q0 0 0 0q0 0 0 0q0 0 0 0q0 0 0 0q0 0 0 0q0 0 0 0q0 0 0 0q0 0 0 0q0 0 0 0q0 0 0 0q0 0 0 0q0 0 0 0q0 0 0 0q0 0 0 0q0 0 0 0q0 0 0 0q0 0 0 0q0 0-0.1 0q0 0 0 0q0 0 0 0q0 0 0 0q0 0 0 0q0 0 0 0q0 0.1 0 0.1q0 0 0 0q0 0 0 0q0 0 0 0q0 0 0 0q0 0 0 0q0 0 0 0q0 0 0 0q0 0 0 0q0 0 0 0q0 0 0 0q0 0 0 0q0 0 0 0q-0.1 0-0.1 0q0 0 0 0q0 0 0 0q0 0 0 0q0 0 0 0q0 0 0 0q0 0 0 0q0 0 0 0q0 0 0 0q0 0 0 0q0 0 0 0q0 0 0 0q0 0 0 0q0 0 0 0q0 0.1 0 0.1q0 0 0 0q0 0 0 0q-0.1 0-0.1 0l-0.1-0.1h-0.1v-0.1h-0.1h-0.1v-0.1v-0.9v-0.1h0.1h0.1v-0.1v0.1v-0.1h0.1v-0.1v0.1v-0.1h0.1h0.1v-0.1v0.1v-0.1l0.4 0.3c0.1 0 0.1 0.1 0.1 0.2z" />
		<path id="Layer" class="s3" d="m50.2 44.6v0.4q0 0 0 0q0 0 0 0q0 0 0 0q0 0 0 0q0 0 0 0q0 0 0 0q0 0 0 0q-0.1 0-0.1 0q0 0 0 0q0 0 0 0q0 0 0 0q0 0 0 0q0 0 0 0q0 0 0 0q0 0 0 0.1q0 0 0 0q0 0 0 0q0 0 0 0q0 0 0 0q0 0 0 0q0 0 0 0q0 0 0 0q0 0 0 0q0 0 0 0q0 0 0 0q0 0-0.1 0q0 0 0 0q0 0 0 0q0 0 0 0q0 0 0 0q0 0 0 0q0 0 0 0q0 0 0 0q0 0 0 0q0 0 0 0q0 0 0 0q0 0 0 0q0 0 0 0q0 0 0 0q0 0 0 0q0 0 0 0.1q0-0.1 0 0q0 0 0 0q0 0-0.1 0q0 0 0 0q0 0 0 0q0 0 0 0q0 0 0 0q0 0 0 0q0 0 0 0q0 0 0 0q0 0 0 0q0 0 0 0q0 0 0 0q0 0 0 0q0 0 0 0q0 0 0 0q0 0 0 0q0 0 0 0q0 0 0 0q0 0 0 0q0 0 0 0q-0.1 0-0.1 0q0 0 0 0q0 0 0 0q0 0 0 0q0 0 0 0q0 0 0 0.1q0 0 0 0q0 0 0 0q0 0 0 0q0 0 0 0q0 0 0 0q0 0 0 0q0 0 0 0q0 0 0 0q0 0 0 0q0 0 0 0q0 0 0 0q0 0 0 0q-0.1 0-0.1 0q0 0 0 0q0 0 0 0q0 0 0 0q0 0 0 0q0 0 0 0q0 0 0 0q0 0 0 0q0 0 0 0q0 0 0 0q0 0 0 0q0 0 0 0q0 0 0 0q0 0 0 0l-0.9 0.1v-1.5v-0.9v-0.1v-0.1v-0.1v-0.1v-0.3v-0.4v-0.1v0.1v-0.1h0.1v-0.1v0.1v-0.1h0.1q0 0 0 0q0 0 0 0q0 0 0 0q0 0 0 0h0.1v-0.1v0.1v-0.1h0.1v-0.1v0.1v-0.1h0.1l0.9 0.5v1.1v0.1v-0.1v0.1h-0.1h-0.1v0.1v-0.1v0.1h-0.1v0.1v-0.1v0.1h-0.1h-0.1v0.1v-0.1v0.1v0.9v0.1h0.1h0.1v0.1h0.1l0.1 0.1q0 0 0.1 0q0 0 0 0q0 0 0 0q0 0 0 0q0 0 0-0.1q0 0 0 0q0 0 0 0zm-6.2-6.6v0.5h-0.1v0.1v-0.1v0.1h-0.1h-0.1q0 0 0 0q0 0 0 0q0 0 0 0.1v-0.1v0.1h-0.1v0.1v-0.1v0.1h-0.1l-0.9-0.5v-1.1v-1v-0.1v-0.1v-0.1v-0.2v-0.4q0 0 0 0q0 0 0 0q0 0 0 0q0 0 0 0q0 0 0 0q0 0 0 0q0 0 0 0q0 0 0 0q0 0 0 0q0 0 0 0q0 0 0 0q0 0 0 0q0 0 0 0q0.1 0 0.1 0q0 0 0 0q0 0 0 0q0 0 0 0q0 0 0 0q0 0 0-0.1q0 0 0 0q0 0 0 0q0 0 0 0q0 0 0 0q0 0 0 0q0 0 0 0q0 0 0 0q0 0 0 0q0 0 0 0q0 0 0 0q0 0 0 0q0 0 0 0q0 0 0.1 0q0 0 0 0q0 0 0 0q0 0 0 0q0 0 0 0q0 0 0 0q0 0 0 0q0 0 0 0q0 0 0 0q0 0 0 0q0 0 0 0q0 0 0 0q0 0 0 0q0 0 0 0q0 0 0-0.1q0 0 0 0q0 0 0 0q0 0 0 0q0 0 0.1 0q0 0 0 0q0 0 0 0q0 0 0 0q0 0 0 0q0 0 0 0q0 0 0 0q0 0 0 0q0 0 0 0q0 0 0 0q0 0 0 0q0 0 0 0q0 0 0 0q0 0 0 0q0 0 0 0q0 0 0 0q0 0 0 0q0 0 0 0q0 0 0 0q0.1 0 0.1 0q0 0 0 0q0 0 0 0q0 0 0 0q0 0 0-0.1q0 0 0 0q0 0 0 0q0 0 0 0q0 0 0 0q0 0 0 0q0 0 0 0q0 0 0 0q0 0 0 0q0 0 0 0q0 0 0 0q0 0 0 0q0 0 0 0q0 0 0 0q0.1 0 0.1 0q0 0 0 0q0 0 0 0q0 0 0 0q0 0 0 0q0 0 0 0q0 0 0 0q0 0 0 0l0.9-0.1v1.5h-0.1v0.1v-0.1v0.1h-0.1v0.1h-0.1v0.1v-0.1v0.1h-0.1h-0.1v0.1v-0.1v0.1v0.9h0.1v0.1h0.1v0.1h0.1z" />
		<path id="Layer" class="s4" d="m44 36.4l4.3 2.5c0.1 0 0.1 0.1 0.1 0.2v0.6q0 0.1 0 0.1q0 0 0 0q0 0 0 0q0 0 0 0q-0.1 0-0.1 0q0 0.1 0 0.1q0 0 0 0q0 0 0 0q0 0 0 0q0 0 0 0q0 0 0 0q0 0 0 0q0 0 0 0q0 0 0 0q0 0 0 0q0 0 0 0q0 0 0 0q0 0 0 0q0 0 0 0q0 0 0 0q0 0 0 0q0 0 0 0q0 0-0.1 0q0 0 0 0q0 0 0 0q0 0 0 0q0 0 0 0q0 0 0 0q0 0 0 0q0 0 0 0q0 0 0 0q0 0 0 0q0 0.1 0 0.1q0 0 0 0q0 0 0 0q0 0 0 0q0 0 0 0q0 0 0 0q0 0 0 0q0 0 0 0q0 0-0.1 0q0 0 0 0q0 0 0 0q0 0 0 0q0 0 0 0q0 0 0 0q0 0 0 0q0 0 0 0q0 0 0 0q0 0 0 0q0 0 0 0q0 0 0 0q0 0 0 0q0 0 0 0q0 0 0 0q0 0 0 0q0 0 0 0q0 0 0 0q0 0 0 0.1q-0.1 0-0.1 0q0 0 0 0q0 0 0 0q0 0 0 0q0 0 0 0q0 0 0 0q0 0 0 0q0 0 0 0q0 0 0 0q0 0 0 0q0 0 0 0q0 0 0 0q0 0 0 0q0 0 0 0q0 0 0 0q0 0 0 0q0 0 0 0q0 0 0 0q-0.1 0-0.1 0q0 0 0 0q0 0 0 0q0 0 0 0q0 0 0 0q0 0 0 0q0 0 0 0q0 0 0 0q0 0 0 0.1q0 0 0 0q0 0 0 0q0 0 0 0q0 0 0 0q0 0 0 0q0 0 0 0q0 0 0 0q0 0 0 0q-0.1 0-0.1 0l-3.8-2.2l-0.2-0.1h-0.1v-0.1h-0.1v-0.1h-0.1v-0.9v-0.1h0.1v-0.1l0.1 0.1v-0.1h0.1v-0.1v0.1v-0.1h0.1v-0.1v0.1v-0.1h0.1z" />
		<path id="Layer" fill-rule="evenodd" class="s3" d="m35.9 27.2q0 0 0 0q0 0 0 0q0 0 0 0q0 0 0 0q0 0 0 0q0 0.1 0 0.1q0 0 0 0q0 0 0 0q0 0 0 0q0 0 0 0q0 0 0 0q0 0 0 0q0 0 0 0q0 0 0 0q-0.1 0-0.1 0q0 0 0 0q0 0 0 0q0 0 0 0q0 0 0 0q0 0 0 0q0 0 0 0q0 0 0 0q0 0 0 0q0 0 0 0q0 0 0 0q0 0 0 0q0 0 0 0q0 0 0 0q0 0 0 0q0 0 0 0q0 0 0 0q0 0 0 0q0 0.1-0.1 0.1q0 0 0 0q0 0 0 0q0 0 0 0q0 0 0 0q0 0 0 0q0 0 0 0q0 0 0 0q0 0 0 0q0 0 0 0q0 0 0 0q0 0 0 0q0 0 0 0q0 0 0 0q0 0 0 0q0 0 0 0q-0.3 0.2-0.6 0c-0.5-0.3-0.8-1-0.8-1.5q0-0.4 0.1-0.6q0.1 0 0.1-0.1c0.1-0.1 0.2-0.3 0.2-0.7v-4.7c0-0.5-0.2-0.9-0.2-1q0 0-0.1-0.1q-0.2-0.4-0.2-0.9c0-0.3 0.1-0.6 0.3-0.7q0 0 0 0q0 0 0 0q0 0 0 0q0 0 0 0q0 0 0 0q0 0 0 0q0 0 0 0q0 0 0 0q0 0 0 0q0 0 0 0q0-0.1 0-0.1q0 0 0 0q0 0 0 0q0 0 0 0q0 0 0 0q0 0 0 0q0.1 0 0.1 0q0 0 0 0q0 0 0 0q0 0 0 0q0 0 0 0q0 0 0 0q0 0 0 0q0 0 0 0q0 0 0 0q0 0 0 0q0 0 0 0q0 0 0 0q0 0 0 0q0 0 0 0q0 0 0 0q0 0 0 0q0 0 0 0q0 0 0 0q0 0 0.1 0q0 0 0 0q0 0 0-0.1q0 0 0 0q0 0 0 0q0 0 0 0q0 0 0 0q0 0 0 0q0 0 0 0q0 0 0 0q0 0 0 0q0 0 0 0q0 0 0 0q0 0 0 0q0 0 0 0q0 0 0 0q0 0 0 0q0 0 0 0q0 0 0.1 0q0 0 0 0q0 0 0 0q0 0 0 0q0 0 0 0q0 0 0 0q0 0 0 0q0 0 0 0q0 0 0 0q0 0 0 0q0 0 0 0q0 0 0-0.1q0 0 0 0q0 0 0 0q0 0 0 0q0 0 0 0q0 0 0 0q0 0 0 0q0 0 0 0q0.1 0 0.1 0q0 0 0 0q0 0 0 0q0 0 0 0q0 0 0 0q0 0 0 0q0 0 0 0q0 0 0 0q0 0 0 0q0 0 0 0q0 0 0 0q0 0 0 0q0 0 0 0q0 0 0 0q0 0 0 0q0 0 0 0q0 0 0 0q0 0 0 0q0.1 0 0.1 0q0-0.1 0-0.1q0 0 0 0q0 0 0 0q0 0 0.1 0c0.1 0 0.1 0.1 0.1 0.3c0 0.3 0 0.8 0 0.8l0.3 0.3q0-0.2 0-0.3q0-0.2 0-0.2q0 0 0 0q0 0 0 0q0 0 0 0q0 0 0 0q0.1 0 0.1 0q0 0 0 0q0 0 0 0q0 0 0 0q0 0 0 0q0 0 0 0q0 0 0 0q0 0 0 0q0 0 0 0q0 0 0 0q0 0 0 0q0 0 0 0q0-0.1 0-0.1q0 0 0 0q0 0 0 0q0 0 0 0q0 0 0 0q0 0 0 0q0 0 0.1 0q0 0 0 0q0 0 0 0q0 0 0 0q0 0 0 0q0 0 0 0q0 0 0 0q0 0 0 0q0 0 0 0q0 0 0 0q0 0 0 0q0 0 0 0q0 0 0 0q0 0 0 0q0 0 0 0q0 0 0 0q0 0 0 0q0 0 0 0q0 0 0.1 0q0 0 0 0q0 0 0-0.1q0 0 0 0q0 0 0 0q0 0 0 0q0 0 0 0q0 0 0 0q0 0 0 0q0 0 0 0q0 0 0 0q0 0 0 0q0 0 0 0q0 0 0 0q0 0 0 0q0 0 0 0q0 0 0 0q0 0 0 0q0 0 0.1 0q0 0 0 0q0 0 0 0q0 0 0 0q0 0 0 0q0 0 0 0q0 0 0 0q0 0 0 0q0 0 0 0q0 0 0 0q0 0 0 0q0 0 0-0.1q0 0 0 0q0 0 0 0q0 0 0 0q0 0 0 0q0 0 0 0q0 0 0 0q0 0 0 0q0.1 0 0.1 0q0 0 0 0q0 0 0 0q0 0 0 0q0 0 0 0q0 0 0 0q0 0 0 0q0 0 0 0q0 0 0 0q0 0 0 0q0 0 0 0q0 0 0 0q0 0 0 0q0 0 0 0q0 0 0 0q0 0 0 0q0.1-0.1 0.1 0c0.3 0.3 0.4 0.8 0.4 1.2q0 0.4-0.2 0.6q0 0 0 0q0 0-0.1 0q0 0 0 0c0 0.1-0.2 0.3-0.2 0.9v4.6c0 0.5 0.1 0.8 0.2 1q0 0 0.1 0.1q0.1 0.4 0.1 0.7q0 0.5-0.2 0.7q0 0 0 0q0 0 0 0q0 0 0 0q0 0 0 0q0 0-0.1 0q0 0 0 0q0 0 0 0q0 0 0 0q0 0 0 0q0 0 0 0q0 0 0 0q0 0 0 0q0 0 0 0q0 0 0 0q0 0 0 0q0 0 0 0q0 0 0 0q0 0 0 0q0 0 0 0q0 0 0 0q0 0 0 0q0 0 0 0q0 0-0.1 0q0 0.1 0 0.1q0 0 0 0q0 0 0 0q0 0 0 0q0 0 0 0q0 0 0 0q0 0 0 0q0 0 0 0q0 0 0 0q0 0 0 0q0 0 0 0q0 0 0 0q0 0 0 0q0 0 0 0q0 0 0 0q0 0 0 0q0 0 0 0q0 0-0.1 0q0 0 0 0q0 0 0 0q0 0 0 0q0 0 0 0zm-0.3-0.6c0-0.4-0.2-0.7-0.5-0.9c0 0.3 0.2 0.7 0.5 0.9zm-5.1-4q0 0 0 0q0 0 0 0q0 0 0 0q0 0 0 0q0 0 0 0q0 0 0 0q0 0 0 0q0 0 0 0q0 0 0 0q0 0 0 0q0 0 0 0q0 0 0 0q0 0.1 0 0.1q0 0 0 0q-0.1 0-0.1 0q0 0 0 0q0 0 0 0q0 0 0 0q0 0 0 0q0 0 0 0q0 0 0 0q0 0 0 0q0 0 0 0q0 0 0 0q0 0 0 0q0 0 0 0q0 0 0 0q0 0 0 0q-0.2 0.1-0.4 0c-0.3-0.2-0.5-0.6-0.5-1q0-0.2 0.1-0.3q0 0 0.1 0c0-0.1 0-0.2 0-0.5v-3.3c0-0.3 0-0.5-0.1-0.6q0 0 0-0.1q-0.1-0.2-0.1-0.5q0-0.3 0.1-0.5q0 0 0 0q0 0 0 0q0 0 0 0q0 0 0 0q0 0 0 0q0 0 0 0q0 0 0 0q0 0 0.1 0q0 0 0 0q0 0 0 0q0 0 0 0q0 0 0 0q0 0 0 0q0 0 0 0q0 0 0 0q0 0 0 0q0 0 0 0q0 0 0 0q0 0 0 0q0 0 0 0q0 0 0 0q0 0 0 0q0 0 0 0q0 0 0 0q0 0 0 0q0 0 0 0q0.1-0.1 0.1-0.1q0 0 0 0q0 0 0 0q0 0 0 0q0 0 0 0q0 0 0 0q0 0 0 0q0 0 0 0q0 0 0 0q0 0 0 0q0 0 0 0q0 0 0 0q0 0 0 0q0 0 0 0q0 0 0 0q0 0 0 0q0 0 0 0q0 0 0 0q0.1 0 0.1 0q0 0 0 0q0 0 0 0q0 0 0 0q0 0 0 0q0 0 0 0q0 0 0 0q0 0 0 0q0 0 0-0.1q0 0 0 0q0 0 0 0q0 0 0 0q0 0 0 0q0 0 0 0q0 0 0 0q0 0 0 0q0 0 0 0q0 0 0 0q0 0 0.1 0q0 0 0 0q0 0 0 0q0 0 0 0q0 0 0 0q0 0 0 0q0 0 0 0q0 0 0 0q0 0 0 0q0 0 0 0q0 0 0 0q0 0 0 0q0 0 0 0q0 0 0 0q0 0 0 0q0 0 0 0q0 0 0 0q0 0 0-0.1q0 0 0.1 0q0 0 0 0q0 0 0 0q0 0 0 0q0 0 0 0q0 0 0 0q0 0 0 0q0 0 0 0q0 0 0 0q0 0 0 0q0 0 0 0q0 0 0 0q0 0 0 0q0.1 0 0.1 0q0.1 0 0.1 0.1c0 0.2 0 0.5 0 0.5q0 0 0 0q0 0 0 0q0 0 0 0q0 0 0 0q0 0 0 0q0 0 0 0q0 0 0 0q0.1 0 0.1 0q0 0 0 0q0 0 0 0q0 0 0 0q0 0 0 0q0 0 0 0q0 0 0 0q0 0 0 0q0 0 0 0q0 0 0 0q0 0 0 0q0 0 0 0q0 0 0 0q0 0 0 0q0 0 0 0q0 0 0 0q0 0 0 0q0 0 0-0.1q0.1 0 0.1 0q0 0 0 0q0 0 0 0q0 0 0 0q0 0 0 0q0 0 0 0q0 0 0 0q0 0 0 0q0 0 0 0q0 0 0 0q0 0 0 0q0 0 0 0q0 0 0 0q0 0 0 0q0 0 0 0q0 0 0 0q0 0 0 0q0 0 0 0q0 0 0.1 0q0 0 0 0q0 0 0 0q0 0 0 0q0 0 0 0q0 0 0 0q0 0 0 0q0 0 0 0q0-0.1 0-0.1q0 0 0 0q0 0 0 0q0 0 0 0q0 0 0 0q0 0 0 0q0 0 0 0q0 0 0 0q0 0 0 0q0 0 0 0q0 0 0.1 0q0 0 0 0q0 0 0 0q0 0 0 0q0 0 0 0q0 0 0 0q0 0 0 0q0 0 0 0q0 0 0 0q0 0 0 0q0 0 0 0q0 0 0 0q0 0 0 0q0 0 0 0q0 0 0 0q0 0 0 0q0 0 0 0q0-0.1 0-0.1q0 0 0 0q0.1 0 0.1 0q0 0 0 0q0 0 0 0q0 0 0 0q0 0 0 0q0 0 0 0q0 0 0 0q0 0 0 0q0 0 0 0q0 0 0 0c0.2 0.2 0.3 0.5 0.3 0.8q0 0.2-0.2 0.4q0 0 0 0q0 0 0 0c0 0-0.1 0.1-0.1 0.5c0 0 0 3.2 0 3.2q0 0.5 0.1 0.6q0 0.1 0 0.1q0.1 0.3 0.1 0.5q0 0.3-0.1 0.4q0 0 0 0q0 0 0 0q0 0 0 0q0 0 0 0q0 0 0 0q0 0 0 0q-0.1 0-0.1 0q0 0 0 0q0 0 0 0q0 0 0 0q0 0 0 0q0 0 0 0q0 0 0 0q0 0 0 0q0 0 0 0q0 0 0 0q0 0 0 0q0 0 0 0q0 0 0 0q0 0 0 0q0 0 0 0q0 0 0 0q0 0 0 0q0 0 0 0.1q-0.1 0-0.1 0q0 0 0 0q0 0 0 0q0 0 0 0q0 0 0 0q0 0 0 0q0 0 0 0q0 0 0 0q0 0 0 0q0 0 0 0q0 0 0 0q0 0 0 0q0 0 0 0q0 0 0 0q0 0 0 0q0 0 0 0q0 0 0 0q0 0 0 0q0 0-0.1 0q0 0 0 0q0 0 0 0q0 0 0 0q0 0 0 0q0 0 0 0q0 0 0 0q0 0 0 0q0 0.1 0 0.1q0 0 0 0q0 0 0 0q0 0 0 0q0 0 0 0q0 0 0 0q0 0 0 0q0 0 0 0q0 0 0 0q0 0 0 0q0 0-0.1 0q0 0 0 0q0 0 0 0q0 0 0 0q0 0 0 0z" />
		<path id="Layer" class="s4" d="m48.8 43v0.9l-4.3-2.5c-0.1 0-0.1-0.1-0.1-0.2v-0.6q0-0.1 0-0.1q0 0 0 0q0 0 0 0q0 0 0 0q0 0 0 0q0 0 0 0q0 0 0 0q0 0 0 0q0 0 0 0q0 0 0-0.1q0 0 0.1 0q0 0 0 0q0 0 0 0q0 0 0 0q0 0 0 0q0 0 0 0q0 0 0 0q0 0 0 0q0 0 0 0q0 0 0 0q0 0 0 0q0 0 0 0q0 0 0 0q0 0 0 0q0 0 0 0q0 0 0 0q0 0 0 0q0 0 0 0q0 0 0.1 0q0 0 0 0q0 0 0 0q0 0 0 0q0 0 0 0q0 0 0 0q0 0 0 0q0 0 0 0q0-0.1 0-0.1q0 0 0 0q0 0 0 0q0 0 0 0q0 0 0 0q0 0 0 0q0 0 0 0q0 0 0 0q0 0 0 0q0 0 0 0q0 0 0.1 0q0 0 0 0q0 0 0 0q0 0 0 0q0 0 0 0q0 0 0 0q0 0 0 0q0 0 0 0q0 0 0 0q0 0 0 0q0 0 0 0q0 0 0 0q0 0 0 0q0 0 0 0q0 0 0 0q0 0 0 0q0 0 0 0q0-0.1 0-0.1q0 0 0 0q0.1 0 0.1 0q0 0 0 0q0 0 0 0q0 0 0 0q0 0 0 0q0 0 0 0q0 0 0 0q0 0 0 0q0 0 0 0q0 0 0 0q0 0 0 0q0 0 0 0q0 0 0 0q0 0 0 0q0 0 0 0q0 0 0 0q0 0 0 0q0 0 0 0q0.1 0 0.1 0q0 0 0 0q0 0 0 0q0 0 0 0q0 0 0 0q0 0 0 0q0 0 0 0q0-0.1 0-0.1q0 0 0 0q0 0 0 0q0 0 0 0q0 0 0.1 0l3.8 2.2v0.3v0.1v0.1v0.1v0.1zm-6.2-6.8v1l-0.4-0.2c-0.1-0.1-0.1-0.2-0.1-0.3v-0.6q0-0.1 0-0.1q0 0 0 0q0 0 0 0q0 0 0 0q0 0 0 0q0 0 0 0q0 0 0 0q0 0 0 0q0 0 0 0q0 0 0.1 0q0 0 0 0q0 0 0 0q0 0 0 0q0 0 0 0q0 0 0 0q0-0.1 0-0.1q0 0 0 0q0 0 0 0q0 0 0 0q0 0 0 0q0 0 0 0q0 0 0 0q0 0 0 0q0 0 0 0q0 0 0 0q0 0 0 0q0 0 0 0q0 0 0 0q0.1 0 0.1 0q0 0 0 0q0 0 0 0q0 0 0 0q0 0 0 0q0 0 0 0q0 0 0 0q0 0 0 0q0 0 0 0q0 0 0 0q0 0 0 0q0 0 0 0q0 0 0 0q0 0 0-0.1q0 0 0 0q0 0 0 0q0 0 0 0q0 0 0 0q0.1 0 0.1 0q0 0 0 0q0 0 0 0q0 0 0 0q0 0 0 0q0 0 0 0q0 0 0 0q0 0 0 0q0 0 0 0q0 0 0 0q0 0 0 0q0 0 0 0q0 0 0 0q0 0 0 0q0 0 0 0q0 0 0 0q0 0 0 0q0 0 0 0q0 0 0.1 0q0 0 0 0q0 0 0 0q0 0 0 0q0 0 0-0.1q0 0 0 0q0 0 0 0q0 0 0 0q0 0 0 0q0 0 0 0q0 0 0 0q0 0 0 0q0 0 0 0q0 0 0 0q0 0 0 0q0 0 0 0q0 0 0 0q0 0 0 0q0 0 0.1 0q0 0 0 0q0 0 0 0q0 0 0 0q0 0 0 0q0 0 0 0v0.2v0.1v0.1v0.1z" />
		<path id="Layer" class="s3" d="m27.6 16.2q-0.1-0.2-0.1-0.4q0-0.3 0.1-0.4q0 0 0 0q0 0 0 0q0 0 0 0q0 0 0 0q0 0 0 0q0 0 0 0q0 0 0 0q0 0 0 0q0 0 0 0q0 0 0 0q0 0 0 0q0 0 0 0q0 0 0 0q0 0 0 0q0 0 0 0q0.1 0 0.1 0q0 0 0 0q0 0 0 0q0 0 0 0q0 0 0 0q0 0 0 0q0 0 0 0q0 0 0 0q0 0 0 0q0 0 0 0q0-0.1 0-0.1q0 0 0 0q0 0 0 0q0 0 0 0q0 0 0 0q0 0 0 0q0 0 0 0q0 0 0 0q0 0 0.1 0q0 0 0 0q0 0 0 0q0 0 0 0q0 0 0 0q0 0 0 0q0 0 0 0q0 0 0 0q0 0 0 0q0 0 0 0q0 0 0 0q0 0 0 0q0 0 0 0q0 0 0 0q0 0 0 0q0 0 0 0q0 0 0 0q0 0 0 0q0 0 0.1-0.1q0 0 0 0q0 0 0 0q0 0 0 0q0 0 0 0q0 0 0 0q0 0 0 0q0 0 0 0q0 0 0 0q0 0 0 0q0 0 0 0q0 0 0 0q0 0 0 0q0 0 0 0q0 0 0 0q0 0 0 0q0 0 0 0q0 0 0 0q0 0 0 0q0.1 0 0.1 0q0 0 0 0q0 0 0 0q0 0 0 0q0 0 0 0q0 0 0 0q0 0 0 0q0 0 0 0q0 0 0-0.1q0 0 0 0q0 0 0 0q0 0 0 0q0 0 0 0q0 0 0 0q0 0 0 0q0 0 0 0q0 0 0 0q0 0 0 0q0.1 0 0.1 0q0 0 0 0q0 0 0 0q0 0 0 0q0 0 0 0q0 0 0.1 0q0 0 0 0.1c0 0.1 0 0.4 0 0.4q0 0 0 0q0 0 0 0q0 0 0 0q0 0 0.1 0q0 0 0 0q0 0 0 0q0 0 0 0q0 0 0 0q0 0 0 0q0 0 0 0q0 0 0 0q0 0 0 0q0 0 0 0q0 0 0 0q0 0 0 0q0 0 0 0q0-0.1 0-0.1q0 0 0 0q0 0 0 0q0 0 0 0q0 0 0 0q0 0 0.1 0q0 0 0 0q0 0 0 0q0 0 0 0q0 0 0 0q0 0 0 0q0 0 0 0q0 0 0 0q0 0 0 0q0 0 0 0q0 0 0 0q0 0 0 0q0 0 0 0q0 0 0 0q0 0 0 0q0 0 0 0q0 0 0 0q0 0 0 0q0 0 0.1 0q0 0 0 0q0 0 0 0q0 0 0 0q0-0.1 0-0.1q0 0 0 0q0 0 0 0q0 0 0 0q0 0 0 0q0 0 0 0q0 0 0 0q0 0 0 0q0 0 0 0q0 0 0 0q0 0 0 0q0 0 0 0q0 0 0 0q0 0 0 0q0 0 0 0q0.1 0 0.1 0q0 0 0 0q0 0 0 0q0 0 0 0q0 0 0 0q0 0 0 0q0 0 0 0q0 0 0 0q0 0 0 0q0 0 0 0q0 0 0 0q0 0 0-0.1q0 0 0.1 0q0.2 0.3 0.1 0.7q0 0.2-0.1 0.3q0 0 0 0c0 0-0.1 0.1-0.1 0.4v2.6q0 0.3 0.1 0.4q0 0.1 0 0.1q0.1 0.2 0.1 0.4q0 0.2-0.1 0.3q0 0 0 0q0 0 0 0q0 0 0 0q0 0 0 0q0 0 0 0q0 0 0 0q0 0-0.1 0q0 0 0 0q0 0 0 0q0 0 0 0q0 0 0 0q0 0 0 0q0 0 0 0q0 0 0 0.1q0 0 0 0q0 0 0 0q0 0 0 0q0 0 0 0q0 0 0 0q0 0 0 0q0 0 0 0q0 0 0 0q0 0 0 0q0 0 0 0q0 0 0 0q-0.1 0-0.1 0q0 0 0 0q0 0 0 0q0 0 0 0q0 0 0 0q0 0 0 0q0 0 0 0q0 0 0 0q0 0 0 0q0 0 0 0q0 0 0 0q0 0 0 0q0 0 0 0q0 0 0 0q0 0 0 0q0 0 0 0.1q0 0 0 0q0 0 0 0q-0.1 0-0.1 0q0 0 0 0q0 0 0 0q0 0 0 0q0 0 0 0q0 0 0 0q0 0 0 0q0 0 0 0q0 0 0 0q0 0 0 0q0 0 0 0q0 0 0 0q0 0 0 0q0 0 0 0q0 0 0 0q0 0 0 0q0 0 0 0q0 0 0 0q0 0-0.1 0q0 0 0 0q0 0 0 0q0 0 0 0q0 0 0 0q0 0 0 0q0 0.1 0 0.1q0 0 0 0q0 0 0 0q0 0 0 0q0 0 0 0q0 0 0 0q0 0 0 0q0 0 0 0q0 0 0 0q0 0 0 0q0 0 0 0q0 0 0 0q0 0-0.1 0q0 0 0 0q0 0 0 0q0 0 0 0q0 0 0 0q0 0 0 0q0 0 0 0q0 0 0 0q0 0 0 0q0 0 0 0q0 0 0 0q0 0 0 0q0 0 0 0q0 0 0 0q-0.1 0.1-0.3 0c-0.2-0.1-0.4-0.4-0.4-0.7q0-0.2 0.1-0.3q0 0 0 0c0-0.1 0.1-0.2 0.1-0.4c0 0 0-2.6 0-2.6c0-0.3-0.1-0.4-0.1-0.5q0 0 0-0.1q0 0 0 0zm15.9 10.4v-0.3v-3.5l-0.2-0.5c0 0 0.2-0.5 0.2-0.5q0 0 0 0q0 0 0 0q0 0 0 0q0 0 0 0q0 0 0 0q0-0.1 0-0.1q0 0 0.1 0q0 0 0 0q0 0 0 0q0 0 0 0q0 0 0 0q0 0 0 0q0 0 0 0q0 0 0 0q0 0 0 0q0 0 0 0q0 0 0 0q0 0 0 0q0 0 0 0q0 0 0 0q0 0 0 0q0 0 0 0q0 0 0 0q0 0 0 0q0 0 0.1 0q0 0 0 0q0 0 0 0q0 0 0 0q0 0 0 0q0 0 0 0q0 0 0 0q0 0 0 0q0-0.1 0-0.1q0 0 0 0q0 0 0 0q0 0 0 0q0 0 0 0q0 0 0 0q0 0 0 0q0 0 0 0q0 0 0 0q0 0 0 0q0 0 0.1 0q0 0 0 0q0 0 0 0q0 0 0 0q0 0 0 0q0 0 0 0q0 0 0 0q0 0 0 0q0 0 0 0q0 0 0 0q0 0 0 0q0 0 0 0q0 0 0 0q0 0 0 0q0 0 0 0q0 0 0 0q0 0 0-0.1q0 0 0 0q0 0 0 0q0 0 0.1 0q0 0 0 0q0 0 0 0q0 0 0 0q0 0 0 0q0 0 0 0q0 0 0 0q0 0 0 0q0 0 0 0q0 0 0 0q0 0 0 0q0 0 0 0q0 0 0 0q0 0 0 0q0 0 0 0q0 0 0 0q0 0 0 0q0 0 0 0q0 0 0.1 0q0 0 0 0q0 0 0 0q0 0 0 0q0 0 0 0q0 0 0 0q0-0.1 0-0.1q0 0 0 0q0 0 0 0q0 0 0 0q0 0 0 0q0 0 0 0q0 0 0 0q0 0 0 0l0.1 0.1l0.2 0.1l0.2 0.8l-0.2 0.2v4.1h-0.1v0.1v-0.1v0.1h-0.1v0.1v-0.1v0.1h-0.1h-0.1v0.1v-0.1v0.1h-0.1v0.1v-0.1v0.1h-0.1l-0.2-0.2v-0.1v-0.1v-0.1z" />
		<path id="Layer" class="s5" d="m42.9 32.3v-4.9q0-0.1 0.1-0.2q0 0 0 0q0 0 0 0q0 0 0 0q0 0 0 0q0 0 0 0q0 0 0 0q0 0 0 0q0 0 0 0q0 0 0 0q0 0 0 0q0 0 0 0q0 0 0 0c0-0.1-0.1-0.2-0.1-0.3v-0.3h0.1v-0.1h0.1h0.1q0 0 0-0.1v0.1v-0.1q0 0 0 0q0 0 0 0q0 0 0 0h0.1v-0.1v0.1v-0.1h0.1h0.1v0.3v0.1v0.1v0.1l0.2 0.2h0.1v-0.1v0.1v-0.1h0.1v-0.1v0.1v-0.1h0.1h0.1v-0.1v0.1v-0.1h0.1v-0.1v0.1v-0.1h0.1l0.6 0.4v0.3q0 0.1-0.1 0.1q0 0 0 0q0 0 0 0q0 0 0 0q0 0 0 0q0 0 0 0q0 0 0 0q0 0 0 0q0 0 0 0q0 0 0 0q0 0 0 0q0 0 0 0q0 0.1-0.1 0.1c0.1 0 0.2 0.2 0.2 0.3v4.9q0 0.1-0.1 0.1q0 0 0 0q0 0 0 0q0 0 0 0q0 0 0 0q0 0 0 0q0 0 0 0q0 0.1 0 0.1q0 0 0 0q0 0 0 0q0 0 0 0q0 0 0 0q0 0-0.1 0q0 0 0 0q0 0 0 0q0 0 0 0q0 0 0 0q0 0 0 0q0 0 0 0q0 0 0 0q0 0 0 0q0 0 0 0q0 0 0 0q0 0 0 0q0 0 0 0q0 0 0 0q0 0 0 0q0 0 0 0q0 0 0 0q0 0 0 0q0 0-0.1 0q0 0 0 0q0 0 0 0q0 0 0 0q0 0.1 0 0.1q0 0 0 0q0 0 0 0q0 0 0 0q0 0 0 0q0 0 0 0q0 0 0 0q0 0 0 0q0 0 0 0q0 0 0 0q0 0 0 0q0 0 0 0q0 0 0 0q0 0 0 0q0 0 0 0q-0.1 0-0.1 0q0 0 0 0q0 0 0 0q0 0 0 0q0 0 0 0q0 0 0 0q0 0 0 0q0 0 0 0q0 0 0 0q0 0 0 0q0 0 0 0q0 0 0 0q0 0.1 0 0.1q0 0 0 0q0 0 0 0q0 0 0 0q0 0 0 0q0 0 0 0q-0.1 0-0.1 0q0 0 0 0q0 0 0 0q0 0 0 0q0 0 0 0q0 0 0 0q0 0 0 0q0 0 0 0q0 0 0 0q0 0 0 0q0 0 0 0q0 0 0 0q0 0 0 0q0 0 0 0q0 0 0 0q0 0 0 0q0 0 0 0q0 0 0 0q0 0-0.1 0q0 0 0 0q0 0 0 0.1q0 0 0 0q0 0 0 0q0 0 0 0q0 0 0 0q0 0 0 0q0 0 0 0q0 0-0.1 0l-1.1-0.6c-0.1-0.1-0.2-0.3-0.2-0.4z" />
		<path id="Layer" class="s3" d="m46.7 28.5v-0.2v-2.6l-0.2-0.3c0 0 0.2-0.5 0.2-0.5q0 0 0 0q0 0 0 0q0 0 0 0q0 0 0 0q0 0 0 0q0 0 0 0q0 0 0 0q0 0 0 0q0 0 0 0q0 0 0 0q0 0 0 0q0 0 0 0q0 0 0 0q0 0 0 0q0 0 0 0q0.1 0 0.1 0q0 0 0 0q0 0 0 0q0 0 0 0q0 0 0 0q0 0 0-0.1q0 0 0 0q0 0 0 0q0 0 0 0q0 0 0 0q0 0 0 0q0 0 0 0q0 0 0 0q0 0 0 0q0 0 0 0q0 0 0 0q0 0 0 0q0 0 0 0q0 0 0.1 0q0 0 0 0q0 0 0 0q0 0 0 0q0 0 0 0q0 0 0 0q0 0 0 0q0 0 0 0q0 0 0 0q0 0 0 0q0 0 0 0q0 0 0 0q0 0 0 0q0 0 0 0q0-0.1 0-0.1q0 0 0 0q0 0 0 0q0 0 0 0q0 0 0.1 0q0 0 0 0q0 0 0 0q0 0 0 0q0 0 0 0q0 0 0 0q0 0 0 0q0 0 0 0q0 0 0 0q0 0 0 0q0 0 0 0q0 0 0 0q0 0 0 0q0 0 0 0q0 0 0 0q0 0 0 0q0 0 0 0q0 0 0 0q0 0 0.1 0q0 0 0 0q0 0 0 0q0 0 0 0q0 0 0 0q0-0.1 0-0.1q0 0 0 0q0 0 0 0q0 0 0 0q0 0 0 0q0 0 0 0q0 0 0 0q0 0 0 0q0 0 0 0q0 0 0 0q0 0 0 0q0 0 0 0q0 0 0 0q0 0 0.1 0q0 0 0 0q0 0 0 0q0 0 0 0q0 0 0 0q0 0 0 0h0.1l0.1 0.1l0.1 0.6l-0.1 0.2v3.1h-0.1v0.1v-0.1v0.1h-0.1v0.1l-0.1-0.1v0.1h-0.1v0.1v-0.1v0.1h-0.1v0.1h-0.1l-0.1-0.1v-0.1v-0.1v-0.1v-0.1z" />
		<path id="Layer" class="s5" d="m46.2 32.9v-3.7q0-0.1 0.1-0.1q0 0 0 0q0 0 0 0q0 0 0 0q0 0 0 0q0 0 0 0q0 0 0 0q0 0 0-0.1q0 0 0 0q0 0 0 0q-0.1-0.1-0.1-0.2v-0.2h0.1v-0.1v0.1v-0.1h0.1v-0.1v0.1v-0.1h0.1q0 0 0 0q0 0 0 0q0 0 0 0h0.1v-0.1v0.1v-0.1h0.1q0 0 0 0v0.2v0.1v0.1v0.1v0.1l0.1 0.1h0.1v-0.1h0.1v-0.1h0.1v-0.1l0.1 0.1v-0.1h0.1v-0.1v0.1v-0.1h0.1l0.4 0.3v0.2q0 0.1 0 0.1q0 0 0 0q0 0 0 0q0 0 0 0q0 0 0 0q0 0-0.1 0q0 0 0 0q0 0 0 0q0 0 0 0q0 0 0 0q0.1 0.1 0.1 0.3v3.7q0 0.1 0 0.1q0 0 0 0q0 0 0 0q0 0 0 0q0 0 0 0q0 0-0.1 0q0 0 0 0q0 0 0 0q0 0 0 0q0 0 0 0.1q0 0 0 0q0 0 0 0q0 0 0 0q0 0 0 0q0 0 0 0q0 0 0 0q0 0 0 0q0 0 0 0q0 0 0 0q0 0 0 0q0 0 0 0q0 0 0 0q0 0 0 0q0 0 0 0q-0.1 0-0.1 0q0 0 0 0q0 0 0 0q0 0 0 0q0 0 0 0q0 0 0 0q0 0 0 0q0 0 0 0q0 0 0 0q0 0 0 0q0 0 0 0q0 0 0 0q0 0 0 0.1q0 0 0 0q0 0 0 0q0 0 0 0q0 0 0 0q0 0 0 0q-0.1 0-0.1 0q0 0 0 0q0 0 0 0q0 0 0 0q0 0 0 0q0 0 0 0q0 0 0 0q0 0 0 0q0 0 0 0q0 0 0 0q0 0 0 0q0 0 0 0q0 0 0 0q0 0 0 0q0 0 0 0q0 0 0 0q0 0 0 0q0 0 0 0q0 0-0.1 0q0 0 0 0q0 0 0 0q0 0.1 0 0.1q0 0 0 0q0 0 0 0q0 0 0 0q0 0 0 0q0 0 0 0q0 0 0 0q0 0 0 0q0 0 0 0q0 0 0 0q0 0 0 0q0 0 0 0q0 0 0 0q0 0 0 0q0 0 0 0q0 0-0.1 0q0 0 0 0q0 0 0 0q0 0 0 0q0 0 0 0q0 0 0 0q0 0 0 0q0 0 0 0q0 0 0 0q0 0 0 0q0 0 0 0q0 0 0 0q0 0.1 0 0.1q0 0 0 0q0 0 0 0q0 0 0 0q-0.1 0-0.1 0l-0.8-0.5c-0.1 0-0.2-0.2-0.2-0.3z" />
		<path id="Layer" class="s3" d="m49.4 30.1v-0.1v-2.1l-0.2-0.3c0 0 0.2-0.3 0.2-0.3q0 0 0 0q0 0 0 0q0 0 0 0q0 0 0 0q0 0 0 0q0 0 0 0q0 0 0 0q0 0 0 0q0 0 0 0q0 0 0-0.1q0 0 0 0q0 0 0 0q0 0 0 0q0 0 0 0q0 0 0 0q0 0 0.1 0q0 0 0 0q0 0 0 0q0 0 0 0q0 0 0 0q0 0 0 0q0 0 0 0q0 0 0 0q0 0 0 0q0 0 0 0q0 0 0 0q0 0 0 0q0 0 0 0q0 0 0 0q0 0 0 0q0 0 0 0q0 0 0 0q0 0 0 0q0 0 0 0q0 0 0.1 0q0 0 0 0q0-0.1 0-0.1q0 0 0 0q0 0 0 0q0 0 0 0q0 0 0 0q0 0 0 0q0 0 0 0q0 0 0 0q0 0 0 0q0 0 0 0q0 0 0 0q0 0 0 0q0 0 0 0q0 0 0 0q0 0 0 0q0 0 0 0q0 0 0.1 0q0 0 0 0q0 0 0 0q0 0 0 0q0 0 0 0q0 0 0 0q0 0 0 0q0 0 0 0q0 0 0 0q0 0 0 0q0 0 0 0q0-0.1 0-0.1q0 0 0 0q0 0 0 0q0 0 0 0q0 0 0 0q0 0 0 0q0 0 0 0q0 0 0.1 0q0 0 0 0q0 0 0 0q0 0 0 0q0 0 0 0q0 0 0 0q0 0 0 0q0 0 0 0q0 0 0 0q0 0 0 0q0 0 0 0q0 0 0 0q0 0 0 0q0 0 0 0q0 0 0 0q0 0 0 0q0 0 0 0q0 0 0 0q0 0 0.1 0q0 0 0 0q0-0.1 0-0.1q0 0 0 0q0 0 0 0v0.1h0.1l0.1 0.5l-0.1 0.2v2.5h-0.1v0.1v-0.1v0.1h-0.1v0.1v-0.1v0.1q0 0 0 0h-0.1v0.1l-0.1-0.1v0.1h-0.1v0.1v-0.1v0.1l-0.1-0.1v-0.1v-0.1v-0.1v-0.1z" />
		<path id="Layer" class="s5" d="m49 33.8v-3.1q0 0 0-0.1q0 0 0 0q0 0 0 0q0 0 0 0q0.1 0 0.1 0q0 0 0 0q0 0 0 0q0 0 0 0q-0.1-0.1-0.1-0.2v-0.1v-0.1v0.1v-0.1h0.1h0.1v-0.1v0.1v-0.1q0 0 0 0q0 0 0 0q0 0 0 0h0.1q0 0 0 0v-0.1v0.1v-0.1h0.1v0.1v0.1v0.1v0.1v0.1l0.1 0.1v-0.1v0.1v-0.1h0.1v-0.1l0.1 0.1v-0.1h0.1q0 0 0 0v-0.1v0.1v-0.1h0.1v-0.1v0.1v-0.1h0.1l0.4 0.2v0.2q0 0.1 0 0.1q0 0 0 0q-0.1 0-0.1 0q0 0 0 0q0 0 0 0q0 0 0 0q0 0 0 0q0 0 0 0q0.1 0.1 0.1 0.2v3q0 0.1 0 0.1q0 0 0 0q-0.1 0-0.1 0q0 0 0 0q0 0 0 0q0 0 0 0q0 0 0 0q0 0 0 0q0 0 0 0q0 0 0 0q0 0 0 0.1q0 0 0 0q0 0 0 0q0 0 0 0q0 0 0 0q0 0 0 0q0 0 0 0q0 0 0 0q0 0 0 0q0 0 0 0q0 0-0.1 0q0 0 0 0q0 0 0 0q0 0 0 0q0 0 0 0q0 0 0 0q0 0 0 0q0 0 0 0q0 0 0 0q0 0 0 0q0 0 0 0q0 0 0 0q0 0 0 0q0 0 0 0q0 0 0 0q0 0 0 0q0 0 0 0q0 0.1 0 0.1q0 0-0.1 0q0 0 0 0q0 0 0 0q0 0 0 0q0 0 0 0q0 0 0 0q0 0 0 0q0 0 0 0q0 0 0 0q0 0 0 0q0 0 0 0q0 0 0 0q0 0 0 0q0 0 0 0q0 0 0 0q0 0 0 0q0 0 0 0q0 0 0 0q0 0 0 0q-0.1 0-0.1 0q0 0 0 0q0 0 0 0q0 0 0 0q0 0 0 0q0 0 0 0q0 0 0 0q0 0.1 0 0.1q0 0 0 0q0 0 0 0q0 0 0 0q0 0 0 0q0 0 0 0q0 0 0 0q0 0 0 0q0 0 0 0q0 0 0 0q0 0 0 0q-0.1 0-0.1 0q0 0 0 0q0 0 0 0q0 0 0 0q0 0 0 0q0 0 0 0q0 0 0 0q0 0 0 0q0 0 0 0q0 0 0 0q0 0 0 0q0 0 0 0q0 0 0 0q0 0 0 0q0 0 0 0q0 0 0 0q0 0.1 0 0.1q0 0 0 0q0 0-0.1 0q0 0 0 0l-0.7-0.4c-0.1-0.1-0.1-0.2-0.1-0.2z" />
		<path id="Layer" fill-rule="evenodd" class="s6" d="m38.8 28.2q0.1 0.4 0.2 0.8c0 0.7-0.5 1-1 0.7c-0.5-0.3-0.9-1-0.9-1.7q0-0.4 0.2-0.6q0-0.1 0.1-0.1c0.1-0.1 0.2-0.3 0.2-0.9c0 0 0-5.2 0-5.2c0-0.6-0.2-1-0.2-1.1q-0.1-0.1-0.1-0.1c-0.1-0.4-0.2-0.7-0.2-1c0-0.5 0.1-0.9 0.4-0.9c0.1 0 0.1 0.1 0.1 0.3c0 0.3 0 0.9 0 0.9l0.4 0.6l0.5-0.1c0 0 0-0.6 0-0.9q0-0.2 0.1-0.2c0.3 0.4 0.4 0.9 0.4 1.4q0 0.5-0.2 0.7q0 0 0 0q0 0-0.1 0c0 0.1-0.2 0.3-0.2 1c0 0 0 5.2 0 5.2c0 0.5 0.1 0.9 0.2 1.1q0 0 0.1 0.1zm-0.2 0.6c0-0.4-0.3-0.8-0.6-1c-0.2-0.2-0.5 0-0.5 0.4c0 0.4 0.3 0.9 0.5 1c0.3 0.2 0.6 0 0.6-0.4zm-2.9-2.7q0.2 0.3 0.2 0.7c0 0.6-0.4 0.9-0.8 0.6c-0.5-0.3-0.8-1-0.8-1.5q0-0.4 0.1-0.6q0.1 0 0.1-0.1c0.1-0.1 0.2-0.3 0.2-0.7c0 0 0-4.7 0-4.7c0-0.5-0.2-0.9-0.2-1q0 0-0.1-0.1q-0.2-0.4-0.2-0.9c0-0.4 0.1-0.7 0.4-0.8c0.1 0.1 0.1 0.2 0.1 0.3c0 0.3 0 0.8 0 0.8l0.4 0.5h0.4c0 0 0-0.5 0-0.8q0-0.2 0.1-0.2c0.3 0.4 0.4 0.8 0.4 1.2q0 0.5-0.3 0.7q0 0 0 0q0 0 0 0c-0.1 0.1-0.2 0.3-0.2 0.8v4.7c0 0.4 0.1 0.7 0.2 0.9q0 0.1 0 0.2q0 0 0 0zm-0.1 0.5c0-0.4-0.2-0.8-0.5-0.9c-0.3-0.2-0.5 0-0.5 0.3c0 0.4 0.2 0.8 0.5 0.9c0.3 0.2 0.5 0 0.5-0.3zm-2.7-2.7q0.2 0.3 0.2 0.5c0 0.5-0.3 0.7-0.7 0.5c-0.3-0.2-0.6-0.7-0.6-1.2q0-0.3 0.1-0.4q0.1 0 0.1-0.1c0 0 0.1-0.2 0.1-0.6v-4c0-0.4-0.1-0.7-0.1-0.8q-0.1 0-0.1-0.1q-0.1-0.3-0.1-0.6c0-0.4 0-0.6 0.3-0.7q0 0.1 0 0.3c0 0.2 0 0.6 0 0.6l0.3 0.4l0.3-0.1c0 0 0-0.4 0-0.6q0-0.2 0.1-0.1c0.2 0.3 0.3 0.6 0.3 0.9q0 0.4-0.2 0.5q0 0 0 0q0 0 0 0c0 0.1-0.1 0.2-0.1 0.7c0 0 0 4 0 4c0 0.4 0 0.6 0.1 0.8q0 0 0 0.1zm-0.1 0.4c0-0.3-0.2-0.6-0.4-0.7c-0.2-0.1-0.3 0-0.3 0.3c0 0.2 0.1 0.5 0.3 0.7c0.2 0.1 0.4 0 0.4-0.3zm-2.4-2.4q0.1 0.2 0.1 0.4c0 0.4-0.2 0.6-0.5 0.4c-0.3-0.2-0.5-0.6-0.5-1q0-0.2 0.1-0.3q0 0 0.1 0c0-0.1 0-0.2 0-0.5v-3.3c0-0.3 0-0.5-0.1-0.6q0 0 0-0.1q-0.1-0.2-0.1-0.5c0-0.3 0-0.5 0.2-0.5q0.1 0 0.1 0.2c0 0.2 0 0.5 0 0.5l0.2 0.3l0.3-0.1c0 0 0-0.3 0-0.4q0-0.2 0-0.1c0.2 0.2 0.3 0.4 0.3 0.7q0 0.3-0.2 0.4q0 0 0 0q0 0 0 0c0 0.1-0.1 0.2-0.1 0.5c0 0 0 3.3 0 3.3q0 0.4 0.1 0.6q0 0 0 0.1q0 0 0 0zm0 0q0 0 0 0q0 0 0 0zm-0.1 0.3c0-0.2-0.1-0.5-0.3-0.6c-0.1-0.1-0.3 0-0.3 0.3c0 0.2 0.2 0.4 0.3 0.5c0.2 0.1 0.3 0 0.3-0.2zm-2.1-2q0.1 0.2 0.1 0.3c0 0.3-0.2 0.5-0.4 0.3c-0.2-0.1-0.4-0.4-0.4-0.7q0-0.2 0.1-0.3q0 0 0 0c0-0.1 0.1-0.2 0.1-0.4c0 0 0-2.6 0-2.6c0-0.3-0.1-0.4-0.1-0.5q0 0 0-0.1q-0.1-0.2-0.1-0.4c0-0.2 0-0.4 0.1-0.4q0.1 0 0.1 0.1c0 0.2 0 0.4 0 0.4l0.2 0.3h0.2c0 0 0-0.3 0-0.4q0-0.1 0-0.1q0.2 0.3 0.2 0.6q0 0.2-0.1 0.3q0 0 0 0c0 0.1-0.1 0.2-0.1 0.4v2.6q0 0.4 0.1 0.5q0 0 0 0.1zm-0.1 0.2c0-0.1-0.1-0.3-0.2-0.4c-0.1-0.1-0.2 0-0.2 0.2c0 0.1 0.1 0.3 0.2 0.4c0.1 0.1 0.2 0 0.2-0.2zm1.3 4.9q0 0.5-0.2 0.7q0 0-0.1 0c0 0.1-0.2 0.3-0.2 0.9v3.8c0 0 0 1.4 0 1.4c0 0.6 0.2 1 0.2 1.1q0.1 0.1 0.1 0.1c0.1 0.4 0.2 0.7 0.2 1c0 0.5-0.1 0.9-0.4 0.9c-0.1 0-0.1-0.1-0.1-0.3c0-0.3 0-0.9 0-0.9l-0.5-0.6l-0.4 0.1c0 0 0 0.6 0 0.9q0 0.2-0.1 0.2c-0.3-0.4-0.4-0.9-0.4-1.4q0-0.5 0.2-0.7q0 0 0 0q0 0 0 0c0.1-0.1 0.2-0.3 0.2-1v-3.4c0 0 0-1.7 0-1.7c0-0.7-0.1-1.1-0.2-1.2q0 0 0-0.1q0 0 0 0q0 0 0 0c-0.1-0.3-0.2-0.6-0.2-1c0-0.5 0.1-0.8 0.4-0.9c0.1 0.1 0.1 0.2 0.1 0.3c0 0.4 0 0.9 0 0.9l0.4 0.6l0.5-0.1c0 0 0-0.5 0-0.9q0-0.2 0.1-0.1c0.3 0.4 0.4 0.9 0.4 1.4zm2.9 2.1q0 0.4-0.3 0.6q0 0.1 0 0.1c-0.1 0-0.2 0.2-0.2 0.8v3.5c0 0 0 1.1 0 1.1c0 0.5 0.1 0.8 0.2 1q0 0 0 0.1q0.3 0.4 0.3 0.9c0 0.4-0.1 0.7-0.4 0.7c-0.1 0-0.1-0.1-0.1-0.2c0-0.3 0-0.8 0-0.8l-0.4-0.5h-0.4c0 0 0 0.5 0 0.8q0 0.2-0.1 0.2c-0.3-0.4-0.4-0.8-0.4-1.3q0-0.4 0.2-0.6q0 0 0 0q0.1 0 0.1 0c0-0.1 0.2-0.3 0.2-0.8v-3.1v-1.5c0-0.6-0.2-0.9-0.2-1.1q0 0-0.1 0q0 0 0 0q0 0 0 0q-0.2-0.5-0.2-0.9c0-0.4 0.1-0.8 0.4-0.8c0.1 0 0.1 0.2 0.1 0.3c0 0.3 0 0.8 0 0.8l0.4 0.5l0.4-0.1c0 0 0-0.5 0-0.8q0-0.2 0.1-0.1c0.3 0.3 0.4 0.8 0.4 1.2zm2.4 2.1q0 0.3-0.1 0.4q-0.1 0.1-0.1 0.1c0 0-0.1 0.2-0.1 0.6v3.3v0.8c0 0.4 0.1 0.7 0.1 0.8q0 0 0.1 0.1q0.1 0.3 0.1 0.6c0 0.4-0.1 0.6-0.3 0.7q0-0.1-0.1-0.3c0-0.2 0-0.6 0-0.6l-0.2-0.4l-0.3 0.1c0 0 0 0.4 0 0.6q-0.1 0.2-0.1 0.1c-0.2-0.3-0.3-0.6-0.3-0.9q0-0.4 0.1-0.5q0 0 0 0q0.1 0 0.1 0c0-0.1 0.1-0.2 0.1-0.7v-2.8v-1.3c0-0.4-0.1-0.7-0.1-0.8q0 0-0.1 0q0 0 0 0q0 0 0 0q-0.1-0.4-0.1-0.7c0-0.4 0.1-0.6 0.3-0.6q0 0 0.1 0.2c0 0.2 0 0.6 0 0.6l0.3 0.4l0.2-0.1c0 0 0-0.3 0-0.6q0.1-0.1 0.1-0.1c0.2 0.3 0.3 0.6 0.3 1zm2.3 1.9q0 0.3-0.1 0.4q0 0-0.1 0.1c0 0-0.1 0.1-0.1 0.5v2.8c0 0 0 0.5 0 0.5c0 0.3 0.1 0.5 0.1 0.6q0.1 0 0.1 0.1q0.1 0.2 0.1 0.5c0 0.3-0.1 0.5-0.2 0.5q-0.1-0.1-0.1-0.2c0-0.2 0-0.5 0-0.5l-0.2-0.3h-0.3c0 0 0 0.4 0 0.5q0 0.2 0 0.1c-0.2-0.2-0.3-0.5-0.3-0.7q0-0.3 0.2-0.4q0 0 0 0q0 0 0 0c0-0.1 0.1-0.2 0.1-0.5v-2.5v-0.8c0-0.4-0.1-0.6-0.1-0.7q0 0 0 0q0 0 0 0q-0.2-0.3-0.2-0.6c0-0.2 0.1-0.5 0.3-0.5q0 0.1 0 0.2c0 0.2 0 0.5 0 0.5l0.3 0.3h0.2c0 0 0-0.3 0-0.5q0-0.1 0.1-0.1c0.1 0.2 0.2 0.5 0.2 0.7zm1.9 5.7q0.1 0.2 0.1 0.4c0 0.2 0 0.4-0.2 0.4q0 0 0-0.2c0-0.1 0-0.3 0-0.3l-0.2-0.3h-0.2c0 0 0 0.3 0 0.4q0 0.1-0.1 0.1q-0.2-0.3-0.1-0.6q0-0.2 0.1-0.3q0 0 0 0c0-0.1 0.1-0.2 0.1-0.4v-2.2v-0.4c0-0.3-0.1-0.5-0.1-0.5q0-0.1 0-0.1q0 0 0 0q-0.1-0.2-0.1-0.4c0-0.2 0-0.4 0.1-0.4q0.1 0 0.1 0.1c0 0.2 0 0.4 0 0.4l0.2 0.3l0.2-0.1c0 0 0-0.2 0-0.4q0-0.1 0 0q0.2 0.2 0.2 0.6q0 0.2-0.1 0.3q0 0 0 0c0 0-0.1 0.1-0.1 0.4v2.5v0.1c0 0.3 0.1 0.4 0.1 0.5q0 0 0 0.1z" />
		<path id="Layer" class="s6" d="m43.7 27.4l-0.2-0.2v-4.8l0.2 0.1z" />
		<path id="Layer" class="s6" d="m44 22.7l-0.3 0.4l-0.1-0.1l-0.3-0.7l0.2-0.5h0.1l0.1 0.1z" />
		<path id="Layer" class="s7" d="m44.4 28.2v4.9c0 0.2-0.1 0.2-0.2 0.2l-1.1-0.6c-0.1-0.1-0.2-0.3-0.2-0.4v-4.9c0-0.2 0.1-0.2 0.2-0.2l1.1 0.7c0.1 0 0.2 0.2 0.2 0.3zm0-0.8v0.3c0 0.2-0.1 0.2-0.2 0.2l-1.1-0.7c-0.1 0-0.2-0.2-0.2-0.3v-0.3z" />
		<path id="Layer" class="s6" d="m46.8 29.2l-0.1-0.1v-3.7l0.1 0.1z" />
		<path id="Layer" class="s6" d="m47 25.7l-0.2 0.2h-0.1l-0.2-0.5l0.2-0.5v0.1h0.1z" />
		<path id="Layer" class="s7" d="m47.3 29.8v3.8q0 0.1-0.1 0.1l-0.8-0.5c-0.1 0-0.2-0.2-0.2-0.3v-3.7q0-0.2 0.2-0.1l0.8 0.4c0 0.1 0.1 0.2 0.1 0.3z" />
		<path id="Layer" class="s7" d="m47.3 29.2v0.2q0 0.2-0.1 0.1l-0.8-0.4c-0.1-0.1-0.2-0.2-0.2-0.3v-0.2z" />
		<path id="Layer" class="s6" d="m49.5 30.7l-0.1-0.1v-2.9h0.1z" />
		<path id="Layer" class="s6" d="m49.6 27.9l-0.1 0.2h-0.1v-0.1l-0.2-0.4l0.2-0.3l0.1 0.1z" />
		<path id="Layer" class="s7" d="m49.9 31.3v3q0 0.1-0.1 0.1l-0.7-0.4c-0.1-0.1-0.1-0.2-0.1-0.2v-3.1q0-0.1 0.1 0l0.7 0.3c0 0.1 0.1 0.2 0.1 0.3zm0-0.5v0.1q0 0.2-0.1 0.1l-0.7-0.3c-0.1-0.1-0.1-0.2-0.1-0.3v-0.1z" />
		<path id="Layer" class="s8" d="m50.2 44.6q0 0.1-0.1 0.1l-5.6-3.3c-0.1 0-0.1-0.1-0.1-0.2v-0.6q0-0.2 0.1-0.1l5.6 3.2c0 0.1 0.1 0.2 0.1 0.3z" />
		<path id="Layer" class="s6" d="m49.7 45.3l-0.9 0.1v-3.5l0.9 0.5z" />
		<path id="Layer" class="s8" d="m42.1 36.1q0-0.1 0.1-0.1l5.6 3.2c0 0.1 0.1 0.2 0.1 0.3v0.6q0 0.1-0.1 0.1l-5.6-3.2c-0.1-0.1-0.1-0.2-0.1-0.3z" />
		<path id="Layer" class="s6" d="m42.6 35.3h0.9v3.5l-0.9-0.5z" />
		<path id="Layer" class="s9" d="m54 57.2c0 0 0 9.4 0 9.4c-0.1 0.7-0.6 1.4-1.5 2l-12.7 7.4c-2 1.1-5.2 1.1-7.1 0l-26.1-15.1c-1-0.5-1.5-1.3-1.5-2v-9.3l11 1.7l3.2-1.9c2-1.1 5.1-1.2 7.1 0l8.3 4.8z" />
		<path id="Layer" class="s10" d="m54 56.7c0 0 0 9.4 0 9.4c-0.1 0.7-0.6 1.4-1.5 2l-12.7 7.4c-2 1.1-5.2 1.1-7.1 0l-26.1-15c-1-0.6-1.5-1.4-1.5-2.1v-9.3l11 1.7l3.2-1.9c2-1.1 5.1-1.1 7.1 0l8.3 4.8z" />
		<path id="Layer" class="s11" d="m5.1 50.4v-1.3c0 0.7 0.5 1.5 1.5 2l26.1 15.1c0.9 0.5 2.2 0.8 3.5 0.8c1.3 0 2.6-0.3 3.6-0.8l12.7-7.5c1-0.5 1.5-1.3 1.5-2v1.3q-0.5 0.6-1.3 1.1l-12.7 7.4c-1 0.6-2.4 0.9-3.8 0.9c-1.4 0-2.7-0.3-3.7-0.9l-26.1-15q-0.9-0.5-1.3-1.1z" />
		<path id="Layer" class="s12" d="m39.8 66.2c-2 1.1-5.2 1.1-7.1 0l-26.1-15.1c-2-1.1-2-3 0-4.1l12.7-7.4c2-1.2 5.1-1.2 7.1 0l26.1 15c1.9 1.1 1.9 3 0 4.1z" />
		<path id="Layer" fill-rule="evenodd" class="s2" d="m34.8 46.8c0 0-0.5 0.2-0.9 0.5l0.6 0.3l0.3-0.1c0 0 0 1 0 1q0 0 0 0l-0.5 0.7q0 0.1-0.1 0.1c0 0-1.3-0.2-1.8 0.1q-0.1 0-0.2 0.1c0 0 0 0.9 0 0.9q0 0 0 0.1l-1.3 0.3q-0.1 0-0.1-0.1c0 0-0.7-0.6-1.4-0.6c-0.7 0-1.4 0.6-1.4 0.6q0 0.1-0.1 0.1l-1.3-0.3q0-0.1 0-0.1c0 0 0.4-0.7-0.1-1c-0.6-0.3-1.8-0.1-1.8-0.1q-0.1 0-0.2 0l-0.5-0.8q0 0 0 0v-1l0.9-0.3c-0.4-0.2-0.8-0.3-0.8-0.3q-0.1-0.1-0.1-0.1v-0.9l2.1-0.4l0.5-0.6v-1l2.3 0.5h1.4l1.9-0.5v1q0 0 0 0c0 0 0 0.1-0.1 0.2l2.7 0.8v0.9q0 0 0 0zm-3.1 0.4q-0.2-0.4-0.6-0.6c-0.9-0.6-2.4-0.6-3.3 0q-0.5 0.2-0.6 0.6q0.1 0.3 0.6 0.6c0.9 0.5 2.4 0.5 3.3 0q0.4-0.3 0.6-0.6z" />
		<path id="Layer" fill-rule="evenodd" class="s13" d="m32.2 49.5l-1.3 0.3q-0.1 0-0.1 0c0 0-0.7-0.7-1.4-0.7c-0.7 0-1.4 0.7-1.4 0.7q0 0-0.1 0l-1.3-0.3q0 0 0 0c0 0 0.4-0.8-0.1-1.1c-0.6-0.3-1.8-0.1-1.8-0.1q-0.1 0-0.1 0l-0.6-0.7q0-0.1 0.1-0.1c0 0 1.1-0.4 1.1-0.8c0-0.4-1.1-0.8-1.1-0.8q-0.1 0-0.1-0.1l0.5-0.7q0.1 0 0.1 0c0 0 1.3 0.2 1.9-0.1c0.5-0.3 0.1-1.1 0.1-1.1q0 0 0 0l1.3-0.3q0.1 0 0.1 0c0 0 0.2 0.3 0.4 0.4c0.3 0.2 0.6 0.3 1 0.3c0.7 0 1.4-0.7 1.4-0.7q0 0 0.1 0l1.3 0.3q0 0 0 0c0 0-0.3 0.8 0.2 1.1c0.5 0.3 1.8 0.1 1.8 0.1q0.1 0 0.1 0l0.5 0.7q0 0.1 0 0.1c0 0-1.2 0.4-1.2 0.8c0 0.2 0.2 0.4 0.4 0.6c0.2 0.1 0.8 0.2 0.8 0.2q0 0 0 0.1l-0.5 0.7q0 0-0.1 0c0 0-1.3-0.2-1.8 0.1c-0.5 0.3-0.2 1.1-0.2 1.1q0.1 0 0 0zm-1.2-1.9c0.9-0.5 0.9-1.3 0-1.8c-0.9-0.5-2.3-0.5-3.2 0c-0.9 0.5-0.9 1.3 0 1.8c0.9 0.5 2.3 0.5 3.2 0z" />
		<path id="Layer" fill-rule="evenodd" class="s2" d="m21.6 48.2c0 0-0.5 0.2-0.9 0.4l0.6 0.4l0.4-0.1c0 0 0 0.9 0 0.9q0 0 0 0.1l-0.6 0.7q0 0-0.1 0c0 0-1.3-0.2-1.8 0.1q-0.1 0.1-0.1 0.1c0 0 0 1 0 1q0 0-0.1 0l-1.3 0.3q0 0-0.1 0c0 0-0.6-0.7-1.3-0.7c-0.8 0-1.4 0.7-1.4 0.7q-0.1 0-0.1 0l-1.3-0.3q-0.1 0-0.1 0c0 0 0.4-0.8-0.1-1.1c-0.5-0.3-1.8-0.1-1.8-0.1q-0.1 0-0.1 0l-0.5-0.7q0 0 0-0.1v-0.9l0.8-0.3c-0.3-0.2-0.8-0.4-0.8-0.4q0 0 0 0v-1l2.1-0.3l0.4-0.7v-0.9l2.4 0.5h1.4l1.9-0.5v0.9q0 0 0 0.1c0 0-0.1 0-0.1 0.2l2.7 0.7v1q0 0-0.1 0zm-3.1 0.3q-0.1-0.3-0.6-0.6c-0.9-0.5-2.4-0.5-3.3 0q-0.4 0.3-0.6 0.6q0.2 0.4 0.6 0.6c0.9 0.6 2.4 0.6 3.3 0q0.5-0.2 0.6-0.6z" />
		<path id="Layer" fill-rule="evenodd" class="s14" d="m19 50.9l-1.3 0.3q0 0-0.1 0c0 0-0.6-0.7-1.3-0.7c-0.8 0-1.4 0.7-1.4 0.7q-0.1 0-0.1 0l-1.3-0.3q-0.1 0-0.1-0.1c0 0 0.4-0.7-0.1-1c-0.5-0.3-1.8-0.1-1.8-0.1q-0.1 0-0.1 0l-0.5-0.8q-0.1 0 0 0c0 0 1.2-0.4 1.2-0.8c0-0.5-1.2-0.8-1.2-0.8q-0.1-0.1 0-0.1l0.5-0.7q0-0.1 0.1-0.1c0 0 1.3 0.3 1.8 0c0.5-0.3 0.1-1.1 0.1-1.1q0 0 0.1 0l1.3-0.4q0 0 0.1 0.1c0 0 0.1 0.3 0.3 0.4c0.3 0.2 0.7 0.2 1.1 0.2c0.7 0 1.3-0.6 1.3-0.6q0.1-0.1 0.1-0.1l1.3 0.3q0.1 0.1 0.1 0.1c0 0-0.4 0.8 0.1 1.1c0.5 0.2 1.8 0 1.8 0q0.1 0 0.1 0.1l0.6 0.7q0 0-0.1 0.1c0 0-1.2 0.3-1.2 0.8c0 0.2 0.2 0.4 0.5 0.5c0.2 0.2 0.7 0.3 0.7 0.3q0.1 0 0.1 0l-0.6 0.8q0 0-0.1 0c0 0-1.3-0.2-1.8 0.1c-0.5 0.3-0.1 1-0.1 1q0 0.1-0.1 0.1zm-1.1-1.9c0.8-0.5 0.8-1.4 0-1.9c-0.9-0.5-2.4-0.5-3.2 0c-0.9 0.5-0.9 1.4 0 1.9c0.8 0.5 2.3 0.5 3.2 0z" />
		<path id="Layer" fill-rule="evenodd" class="s2" d="m50 56.5c0 0-0.3 0.1-0.6 0.2l0.4 0.2h0.2c0 0 0 0.6 0 0.6q0 0 0 0l-0.3 0.5q0 0-0.1 0c0 0-0.8-0.1-1.1 0.1q-0.1 0-0.1 0c0 0 0 0.7 0 0.7q0 0-0.1 0l-0.8 0.2q0 0-0.1 0c0 0-0.4-0.5-0.8-0.5c-0.5 0-0.9 0.5-0.9 0.5q0 0-0.1 0l-0.8-0.2q-0.1 0 0-0.1c0 0 0.2-0.4-0.1-0.6c-0.4-0.2-1.2-0.1-1.2-0.1q0 0-0.1 0l-0.3-0.5q0 0 0 0v-0.6l0.6-0.2c-0.3-0.1-0.6-0.2-0.6-0.2q0 0 0-0.1v-0.6l1.3-0.2l0.3-0.4v-0.6l1.6 0.3h0.9l1.2-0.3c0 0 0 0.6 0 0.6q0 0 0 0q0 0-0.1 0.2l1.7 0.4v0.6q0 0.1 0 0.1zm-2 0.2q-0.1-0.2-0.4-0.4c-0.6-0.4-1.5-0.4-2.1 0q-0.3 0.2-0.4 0.4q0.1 0.2 0.4 0.4c0.6 0.3 1.5 0.3 2.1 0q0.3-0.2 0.4-0.4z" />
		<path id="Layer" fill-rule="evenodd" class="s15" d="m48.3 58.2l-0.8 0.2q0 0-0.1 0c0 0-0.4-0.5-0.8-0.5c-0.5 0-0.9 0.5-0.9 0.5q0 0-0.1 0l-0.8-0.2q-0.1 0 0-0.1c0 0 0.2-0.4-0.1-0.6c-0.4-0.2-1.2-0.1-1.2-0.1q0 0-0.1 0l-0.3-0.5q0 0 0 0c0 0 0.8-0.3 0.8-0.5c0-0.3-0.8-0.5-0.8-0.5q0-0.1 0-0.1l0.3-0.5q0.1 0 0.1 0c0 0 0.8 0.2 1.2 0c0.3-0.2 0-0.7 0-0.7q0 0 0.1 0l0.8-0.2q0 0 0.1 0c0 0 0.1 0.2 0.2 0.3q0.3 0.1 0.7 0.1c0.4 0 0.8-0.4 0.8-0.4q0.1 0 0.1 0l0.8 0.2q0.1 0 0.1 0c0 0-0.3 0.5 0.1 0.7c0.3 0.2 1.1 0 1.1 0q0.1 0 0.1 0l0.3 0.5q0 0 0 0.1c0 0-0.8 0.2-0.8 0.5q0.1 0.2 0.3 0.3c0.2 0.1 0.5 0.2 0.5 0.2q0 0 0 0l-0.3 0.5q0 0-0.1 0c0 0-0.8-0.1-1.1 0.1c-0.4 0.2-0.1 0.6-0.1 0.6q0 0.1-0.1 0.1zm-0.7-1.2c0.6-0.4 0.6-0.9 0-1.2c-0.6-0.4-1.5-0.4-2.1 0c-0.5 0.3-0.5 0.8 0 1.2c0.6 0.3 1.5 0.3 2.1 0z" />
		<path id="Layer" fill-rule="evenodd" class="s2" d="m39.9 56.9c0 0-0.7 0.2-1.2 0.5l0.8 0.5l0.5-0.1c0 0 0 1.3 0 1.3q0 0 0 0l-0.7 1q-0.1 0.1-0.2 0.1c0 0-1.8-0.3-2.5 0.1q0 0 0 0q-0.1 0.1-0.1 0.1c0 0 0 1.3 0 1.3q0 0 0 0.1q-0.1 0-0.1 0l-1.8 0.4q-0.1 0-0.1 0c0 0-0.9-0.9-1.9-0.9c-1 0-1.9 0.9-1.9 0.9q0 0-0.1 0l-1.8-0.4q-0.1 0 0-0.1c0 0 0.5-1-0.2-1.4c-0.7-0.4-2.5-0.1-2.5-0.1q-0.1 0-0.1 0l-0.8-1.1q0 0 0 0v-1.3l1.2-0.4c-0.4-0.3-1.1-0.5-1.1-0.5q-0.1 0-0.1-0.1v-1.3l2.9-0.5l0.6-0.8v-1.3l3.2 0.7h2l2.5-0.7v1.3q0 0 0 0c0 0 0 0.1-0.1 0.3l3.7 1v1.3q0 0.1-0.1 0.1zm-3.1 0.4q-0.3-0.6-1.1-1.1c-1.7-1-4.5-1-6.2 0q-0.8 0.5-1.1 1.1q0.3 0.6 1.1 1.1c1.7 1 4.5 1 6.2 0q0.8-0.5 1.1-1.1z" />
		<path id="Layer" fill-rule="evenodd" class="s16" d="m36.4 60.5l-1.8 0.4q-0.1 0-0.1 0c0 0-0.9-0.9-1.9-0.9c-1 0-1.9 0.9-1.9 0.9q0 0-0.1 0l-1.8-0.4q-0.1 0 0-0.1c0 0 0.5-1-0.2-1.4c-0.7-0.4-2.5-0.1-2.5-0.1q-0.1 0-0.1 0l-0.8-1.1q0 0 0.1 0c0 0 1.6-0.6 1.6-1.1c0-0.6-1.6-1.1-1.6-1.1q-0.1 0-0.1-0.1l0.7-1q0.1-0.1 0.2 0c0 0 1.8 0.2 2.5-0.2c0.7-0.4 0.1-1.4 0.1-1.4q0 0 0.1-0.1l1.8-0.4q0.1 0 0.1 0.1c0 0 0.2 0.4 0.5 0.5c0.4 0.2 0.9 0.4 1.4 0.4c1 0 1.9-1 1.9-1q0 0 0.1 0l1.8 0.4q0.1 0.1 0 0.1c0 0-0.5 1 0.2 1.4c0.7 0.4 2.5 0.1 2.5 0.1q0.1 0 0.1 0.1l0.8 1q0 0-0.1 0.1c0 0-1.6 0.5-1.6 1.1c0 0.3 0.2 0.6 0.6 0.8c0.3 0.1 1 0.3 1 0.3q0.1 0 0.1 0l-0.7 1.1q-0.1 0-0.2 0c0 0-1.8-0.3-2.5 0.1q0 0 0 0c-0.7 0.4-0.2 1.4-0.2 1.4q0.1 0.1 0 0.1zm-0.7-2.1c1.7-0.9 1.7-2.5 0-3.5c-1.7-1-4.5-1-6.2 0c-1.7 1-1.7 2.6 0 3.5c1.7 1 4.5 1 6.2 0z" />
		<path id="Layer" class="s17" d="m90 53.3c0 0.8-0.2 1.9-1 2.3l-12.7 7.5q-0.6 0.3-1 0.3c-0.9 0.1-1.8 0.1-2.7-0.1l-10.1-2.7q-0.7-0.1-1.3-0.4q0 0 0 0q-0.4-0.1-0.7-0.3q-0.7-0.4-1-0.9c-0.1-0.8 0.3-2 1.7-3.6c2.9-3.3 10.7-5.3 10.7-5.3c0 0 1.3-1.4 4-0.6c1.4 0.4 2.6 0.6 3.4 0.8l9.7 2.6c0.5 0.2 0.6 0.2 1 0.4z" />
		<path id="Layer" class="s18" d="m80 43.1c0 4.1 0 14.3 0 14.3c0 0.3-0.2 0.6-0.6 0.9l-3.4 1.9c-0.7 0.5-2 0.5-2.8 0l-7.5-4.3c-0.4-0.3-0.6-0.5-0.6-0.8c0 0 0-12.2 0-13.1c0.1-0.9 5.5-4 5.5-4l4.3 0.3c0 0 3.8 2.5 5.1 4.8z" />
		<path id="Layer" class="s9" d="m79.3 55.8c0 0.4-0.3 0.8-0.6 1l-2 1.1c-0.3 0.2-0.6 0.1-0.6-0.2c0-0.4 0.3-0.8 0.6-1l2-1.1c0.3-0.2 0.6-0.1 0.6 0.2z" />
		<path id="Layer" class="s19" d="m79.2 55.8c0 0.3-0.3 0.7-0.6 0.9l-2 1.2c-0.3 0.2-0.6 0.1-0.6-0.3c0-0.3 0.3-0.7 0.6-0.9l2-1.2c0.3-0.1 0.6 0 0.6 0.3z" />
		<path id="Layer" class="s9" d="m79.3 53.3c0 0.3-0.3 0.7-0.6 0.9l-2 1.2c-0.3 0.2-0.6 0-0.6-0.3c0-0.3 0.3-0.7 0.6-0.9l2-1.2c0.3-0.2 0.6 0 0.6 0.3z" />
		<path id="Layer" class="s20" d="m79.2 53.2c0 0.4-0.3 0.8-0.6 1l-2 1.1c-0.3 0.2-0.6 0.1-0.6-0.2c0-0.4 0.3-0.8 0.6-1l2-1.1c0.3-0.2 0.6-0.1 0.6 0.2z" />
		<path id="Layer" class="s9" d="m79.3 50.7c0 0.4-0.3 0.8-0.6 1l-2 1.1c-0.3 0.2-0.6 0.1-0.6-0.2c0-0.4 0.3-0.8 0.6-1l2-1.1c0.3-0.2 0.6-0.1 0.6 0.2z" />
		<path id="Layer" class="s21" d="m79.2 50.7c0 0.3-0.3 0.7-0.6 0.9l-2 1.2c-0.3 0.2-0.6 0-0.6-0.3c0-0.3 0.3-0.7 0.6-0.9l2-1.2c0.3-0.2 0.6 0 0.6 0.3z" />
		<path id="Layer" class="s9" d="m79.3 48.2c0 0.3-0.3 0.7-0.6 0.9l-2 1.2c-0.3 0.1-0.6 0-0.6-0.3c0-0.3 0.3-0.7 0.6-0.9l2-1.2c0.3-0.2 0.6-0.1 0.6 0.3z" />
		<path id="Layer" class="s22" d="m79.2 48.1c0 0.4-0.3 0.8-0.6 1l-2 1.1c-0.3 0.2-0.6 0.1-0.6-0.2c0-0.4 0.3-0.8 0.6-1l2-1.1c0.3-0.2 0.6-0.1 0.6 0.2z" />
		<path id="Layer" class="s9" d="m79.3 45.6c0 0.3-0.3 0.8-0.6 1l-2 1.1c-0.3 0.2-0.6 0.1-0.6-0.3c0-0.3 0.3-0.7 0.6-0.9l2-1.1c0.3-0.2 0.6-0.1 0.6 0.2z" />
		<path id="Layer" class="s23" d="m79.2 45.6c0 0.3-0.3 0.7-0.6 0.9l-2 1.2c-0.3 0.2-0.6 0-0.6-0.3c0-0.3 0.3-0.7 0.6-0.9l2-1.2c0.3-0.2 0.6 0 0.6 0.3z" />
		<path id="Layer" class="s24" d="m74.5 40.2c-1 0.6-2.8 0.6-3.9 0c-1-0.6-1.1-1.6 0-2.2c1.1-0.7 2.8-0.7 3.9 0c1.1 0.6 1.1 1.6 0 2.2z" />
		<path id="Layer" class="s25" d="m74.3 40c-0.9 0.6-2.5 0.6-3.5 0c-0.5-0.3-0.8-0.7-0.8-1q0 0 0 0v-0.3h1c0.9-0.4 2.1-0.4 3 0h1.1v0.3c0 0.3-0.3 0.7-0.8 1z" />
		<path id="Layer" class="s6" d="m74.3 39.7c-0.9 0.6-2.5 0.6-3.5 0c-1-0.6-1-1.5 0-2c0.9-0.6 2.5-0.6 3.5 0c1 0.5 1 1.5 0 2z" />
		<path id="Layer" class="s26" d="m74.1 39.4c-0.8 0.5-2.2 0.5-3.1 0c-0.5-0.2-0.7-0.6-0.7-0.9q0 0 0 0v-1h0.9c0.8-0.4 1.9-0.4 2.7 0h0.9v1c0 0.3-0.2 0.7-0.7 0.9z" />
		<path id="Layer" class="s27" d="m74.1 38.4c-0.8 0.5-2.2 0.5-3.1 0c-0.9-0.5-0.9-1.3 0-1.8c0.8-0.5 2.3-0.5 3.1 0c0.9 0.5 0.9 1.3 0 1.8z" />
		<path id="Layer" class="s28" d="m72.6 56.7c0 0.7-0.6 1.1-1.3 0.7l-3.9-2.3c-0.7-0.4-1.3-1.4-1.3-2.2v-6.7c0-0.7 0.6-1.1 1.3-0.7l3.9 2.3c0.7 0.4 1.3 1.4 1.3 2.2z" />
		<path id="Layer" class="s29" d="m65.5 59.7c-1.5 0.9-4 0.9-5.6 0c-0.7-0.5-1.1-1.1-1.1-1.6q0 0 0-0.1v-10.3h1.5c1.4-0.7 3.3-0.7 4.8-0.1h1.6v10.5c0 0.6-0.4 1.1-1.2 1.6z" />
		<path id="Layer" class="s30" d="m65.5 49.3c-1.5 0.9-4 0.9-5.6 0c-1.5-0.9-1.5-2.4 0-3.2c1.6-0.9 4.1-0.9 5.6 0c1.6 0.9 1.6 2.3 0 3.2z" />
		<path id="Layer" class="s31" d="m58.8 47.5q0.3-0.6 1.1-1.1c0.8-0.5 1.8-0.7 2.8-0.7c1 0 2 0.2 2.8 0.7c0.6 0.3 1 0.8 1.1 1.2q0 0.2-0.1 0.4q0 0.1-0.2 0.2q0-0.1 0-0.2c0-0.5-0.3-1-1-1.3c-0.7-0.4-1.6-0.7-2.6-0.7c-1 0-1.9 0.3-2.6 0.7c-0.6 0.3-1 0.8-1 1.2q-0.1-0.1-0.2-0.3q0 0-0.1-0.1z" />
		<path id="Layer" fill-rule="evenodd" class="s32" d="m65.5 46.1c1.6 0.9 1.6 2.3 0 3.2c-0.7 0.4-1.8 0.7-2.8 0.7c-1 0-2-0.3-2.8-0.7c-1.5-0.9-1.5-2.4 0-3.2c0.8-0.5 1.8-0.7 2.8-0.7c1 0 2 0.2 2.8 0.7zm-5.4 0.2c-0.7 0.4-1 0.9-1 1.4c0 0.5 0.3 0.9 1 1.3c0.7 0.4 1.6 0.6 2.6 0.6c1 0 2-0.2 2.7-0.6c0.6-0.4 0.9-0.8 0.9-1.3c0-0.5-0.3-1-1-1.4c-0.7-0.4-1.6-0.6-2.6-0.6c-1 0-1.9 0.2-2.6 0.6z" />
		<path id="Layer" class="s25" d="m64 48.5c-0.7 0.4-1.8 0.4-2.5 0q-0.5-0.3-0.5-0.7q0 0 0 0v-0.2h0.7c0.6-0.3 1.4-0.3 2 0h0.8v0.2q0 0.4-0.5 0.7z" />
		<path id="Layer" class="s6" d="m64 48.3c-0.7 0.4-1.8 0.4-2.5 0c-0.7-0.4-0.7-1 0-1.4c0.7-0.4 1.8-0.4 2.4 0c0.7 0.4 0.7 1 0.1 1.4z" />
		<path id="Layer" class="s33" d="m63.8 48.1c-0.6 0.4-1.6 0.4-2.2 0q-0.4-0.3-0.4-0.6q0 0 0 0v-0.7h0.6c0.5-0.3 1.3-0.3 1.8 0h0.7v0.7q0 0.3-0.5 0.6z" />
		<path id="Layer" class="s34" d="m63.8 47.4c-0.6 0.4-1.6 0.4-2.2 0c-0.6-0.3-0.6-0.9 0-1.2c0.6-0.4 1.6-0.4 2.2 0c0.6 0.3 0.6 0.9 0 1.2z" />
		<path id="Layer" fill-rule="evenodd" class="s7" d="m66.8 49.7v-0.1q0 0.1 0 0.1zm-6.7 1.6q-0.4-0.2-0.6-0.5v6.1q0.2 0.3 0.6 0.5c1.4 0.8 3.5 0.9 5 0.3v-6.1c-1.5 0.6-3.6 0.5-5-0.3z" />
	</g>
</svg>