<svg version="1.2" xmlns="http://www.w3.org/2000/svg" viewBox="0 0 90 90" width="90" height="90">
	<title>New Project</title>
	<defs>
		<linearGradient id="g1" x1="25359.4" y1="12867.8" x2="38407.2" y2="12867.8" gradientUnits="userSpaceOnUse">
			<stop offset="0" stop-color="#f5f6f9"/>
			<stop offset="1" stop-color="#bec1ec"/>
		</linearGradient>
		<linearGradient id="g2" x1="18394.4" y1="12367.9" x2="24533.7" y2="12367.9" gradientUnits="userSpaceOnUse">
			<stop offset="0" stop-color="#df3d0f"/>
			<stop offset="1" stop-color="#f77307"/>
		</linearGradient>
		<linearGradient id="g3" x1="331.3" y1="39.5" x2="332.3" y2="39.5" gradientUnits="userSpaceOnUse">
			<stop offset="0" stop-color="#df3d0f"/>
			<stop offset="1" stop-color="#f77307"/>
		</linearGradient>
		<linearGradient id="g4" x1="431.9" y1="49.6" x2="433.8" y2="49.6" gradientUnits="userSpaceOnUse">
			<stop offset="0" stop-color="#df3d0f"/>
			<stop offset="1" stop-color="#f77307"/>
		</linearGradient>
		<linearGradient id="g5" x1="156.4" y1="42.9" x2="156.5" y2="42.9" gradientUnits="userSpaceOnUse">
			<stop offset="0" stop-color="#df3d0f"/>
			<stop offset="1" stop-color="#f77307"/>
		</linearGradient>
		<linearGradient id="g6" x1="251.3" y1="51.3" x2="251.8" y2="51.3" gradientUnits="userSpaceOnUse">
			<stop offset="0" stop-color="#df3d0f"/>
			<stop offset="1" stop-color="#f77307"/>
		</linearGradient>
		<linearGradient id="g7" x1="342.8" y1="54.6" x2="344" y2="54.6" gradientUnits="userSpaceOnUse">
			<stop offset="0" stop-color="#df3d0f"/>
			<stop offset="1" stop-color="#f77307"/>
		</linearGradient>
		<linearGradient id="g8" x1="544.2" y1="147.4" x2="547.1" y2="147.4" gradientUnits="userSpaceOnUse">
			<stop offset="0" stop-color="#df3d0f"/>
			<stop offset="1" stop-color="#f77307"/>
		</linearGradient>
		<linearGradient id="g9" x1="1513.4" y1="295.2" x2="1539.8" y2="295.2" gradientUnits="userSpaceOnUse">
			<stop offset="0" stop-color="#df3d0f"/>
			<stop offset="1" stop-color="#f77307"/>
		</linearGradient>
		<linearGradient id="g10" x1="522.6" y1="120.9" x2="525.1" y2="120.9" gradientUnits="userSpaceOnUse">
			<stop offset="0" stop-color="#df3d0f"/>
			<stop offset="1" stop-color="#f77307"/>
		</linearGradient>
		<linearGradient id="g11" x1="3265.8" y1="428" x2="3423.8" y2="428" gradientUnits="userSpaceOnUse">
			<stop offset="0" stop-color="#df3d0f"/>
			<stop offset="1" stop-color="#f77307"/>
		</linearGradient>
		<linearGradient id="g12" x1="2159.4" y1="362.2" x2="2221.7" y2="362.2" gradientUnits="userSpaceOnUse">
			<stop offset="0" stop-color="#df3d0f"/>
			<stop offset="1" stop-color="#f77307"/>
		</linearGradient>
		<linearGradient id="g13" x1="828.6" y1="145" x2="836.5" y2="145" gradientUnits="userSpaceOnUse">
			<stop offset="0" stop-color="#df3d0f"/>
			<stop offset="1" stop-color="#f77307"/>
		</linearGradient>
		<linearGradient id="g14" x1="560.9" y1="221.5" x2="564.6" y2="221.5" gradientUnits="userSpaceOnUse">
			<stop offset="0" stop-color="#df3d0f"/>
			<stop offset="1" stop-color="#f77307"/>
		</linearGradient>
		<linearGradient id="g15" x1="5422.4" y1="374.6" x2="5802" y2="374.6" gradientUnits="userSpaceOnUse">
			<stop offset="0" stop-color="#df3d0f"/>
			<stop offset="1" stop-color="#f77307"/>
		</linearGradient>
		<linearGradient id="g16" x1="950.5" y1="109.3" x2="959.4" y2="109.3" gradientUnits="userSpaceOnUse">
			<stop offset="0" stop-color="#df3d0f"/>
			<stop offset="1" stop-color="#f77307"/>
		</linearGradient>
		<linearGradient id="g17" x1="1351" y1="228.9" x2="1368.2" y2="228.9" gradientUnits="userSpaceOnUse">
			<stop offset="0" stop-color="#df3d0f"/>
			<stop offset="1" stop-color="#f77307"/>
		</linearGradient>
		<linearGradient id="g18" x1="2858.5" y1="883.6" x2="2937" y2="883.6" gradientUnits="userSpaceOnUse">
			<stop offset="0" stop-color="#df3d0f"/>
			<stop offset="1" stop-color="#f77307"/>
		</linearGradient>
		<linearGradient id="g19" x1="4411.4" y1="3171.1" x2="4592.8" y2="3171.1" gradientUnits="userSpaceOnUse">
			<stop offset="0" stop-color="#df3d0f"/>
			<stop offset="1" stop-color="#f77307"/>
		</linearGradient>
		<linearGradient id="g20" x1="1283" y1="321.9" x2="1302" y2="321.9" gradientUnits="userSpaceOnUse">
			<stop offset="0" stop-color="#df3d0f"/>
			<stop offset="1" stop-color="#f77307"/>
		</linearGradient>
		<linearGradient id="g21" x1="629.9" y1="279.8" x2="633.5" y2="279.8" gradientUnits="userSpaceOnUse">
			<stop offset="0" stop-color="#df3d0f"/>
			<stop offset="1" stop-color="#f77307"/>
		</linearGradient>
		<linearGradient id="g22" x1="321.2" y1="124.5" x2="321.8" y2="124.5" gradientUnits="userSpaceOnUse">
			<stop offset="0" stop-color="#df3d0f"/>
			<stop offset="1" stop-color="#f77307"/>
		</linearGradient>
		<linearGradient id="g23" x1="309.6" y1="98.7" x2="310.2" y2="98.7" gradientUnits="userSpaceOnUse">
			<stop offset="0" stop-color="#df3d0f"/>
			<stop offset="1" stop-color="#f77307"/>
		</linearGradient>
		<linearGradient id="g24" x1="255.8" y1="112.4" x2="256.1" y2="112.4" gradientUnits="userSpaceOnUse">
			<stop offset="0" stop-color="#df3d0f"/>
			<stop offset="1" stop-color="#f77307"/>
		</linearGradient>
		<linearGradient id="g25" x1="222.5" y1="90.4" x2="222.8" y2="90.4" gradientUnits="userSpaceOnUse">
			<stop offset="0" stop-color="#df3d0f"/>
			<stop offset="1" stop-color="#f77307"/>
		</linearGradient>
		<linearGradient id="g26" x1="216.7" y1="83.8" x2="216.9" y2="83.8" gradientUnits="userSpaceOnUse">
			<stop offset="0" stop-color="#df3d0f"/>
			<stop offset="1" stop-color="#f77307"/>
		</linearGradient>
		<linearGradient id="g27" x1="273.8" y1="81.4" x2="274.2" y2="81.4" gradientUnits="userSpaceOnUse">
			<stop offset="0" stop-color="#df3d0f"/>
			<stop offset="1" stop-color="#f77307"/>
		</linearGradient>
		<linearGradient id="g28" x1="323.6" y1="105.9" x2="324.2" y2="105.9" gradientUnits="userSpaceOnUse">
			<stop offset="0" stop-color="#df3d0f"/>
			<stop offset="1" stop-color="#f77307"/>
		</linearGradient>
		<linearGradient id="g29" x1="27218" y1="8883.6" x2="44424.5" y2="8883.6" gradientUnits="userSpaceOnUse">
			<stop offset="0" stop-color="#423fb0"/>
			<stop offset="1" stop-color="#362e95"/>
		</linearGradient>
		<linearGradient id="g30" x1="29908.4" y1="8829.2" x2="50913.8" y2="8829.2" gradientUnits="userSpaceOnUse">
			<stop offset="0" stop-color="#423fb0"/>
			<stop offset="1" stop-color="#362e95"/>
		</linearGradient>
		<linearGradient id="g31" x1="1767.4" y1="715.9" x2="1822.3" y2="715.9" gradientUnits="userSpaceOnUse">
			<stop offset="0" stop-color="#f5f6f9"/>
			<stop offset="1" stop-color="#bec1ec"/>
		</linearGradient>
		<linearGradient id="g32" x1="3898.7" y1="3093.4" x2="4229.1" y2="3131.5" gradientUnits="userSpaceOnUse">
			<stop offset="0" stop-color="#f5f6f9"/>
			<stop offset="1" stop-color="#bec1ec"/>
		</linearGradient>
		<linearGradient id="g33" x1="1463.1" y1="1079.4" x2="1518.7" y2="1085.8" gradientUnits="userSpaceOnUse">
			<stop offset="0" stop-color="#f5f6f9"/>
			<stop offset="1" stop-color="#bec1ec"/>
		</linearGradient>
		<linearGradient id="g34" x1="8007.7" y1="5473.4" x2="10117.5" y2="5716.8" gradientUnits="userSpaceOnUse">
			<stop offset="0" stop-color="#f5f6f9"/>
			<stop offset="1" stop-color="#bec1ec"/>
		</linearGradient>
		<linearGradient id="g35" x1="7210.2" y1="2047.5" x2="8835.1" y2="2235" gradientUnits="userSpaceOnUse">
			<stop offset="0" stop-color="#f5f6f9"/>
			<stop offset="1" stop-color="#bec1ec"/>
		</linearGradient>
		<linearGradient id="g36" x1="1991.6" y1="612.6" x2="2105.9" y2="625.8" gradientUnits="userSpaceOnUse">
			<stop offset="0" stop-color="#f5f6f9"/>
			<stop offset="1" stop-color="#bec1ec"/>
		</linearGradient>
		<linearGradient id="g37" x1="752.6" y1="1276.1" x2="777.1" y2="1278.9" gradientUnits="userSpaceOnUse">
			<stop offset="0" stop-color="#cfd4fa"/>
			<stop offset="1" stop-color="#f5f6f9"/>
		</linearGradient>
		<linearGradient id="g38" x1="5658.6" y1="5158.6" x2="5867.8" y2="5782.8" gradientUnits="userSpaceOnUse">
			<stop offset="0" stop-color="#252245"/>
			<stop offset="1" stop-color="#252245" stop-opacity="0"/>
		</linearGradient>
		<linearGradient id="g39" x1="3818.9" y1="4313.5" x2="5788.8" y2="4313.5" gradientUnits="userSpaceOnUse">
			<stop offset="0" stop-color="#f5f6f9"/>
			<stop offset="1" stop-color="#bec1ec"/>
		</linearGradient>
		<linearGradient id="g40" x1="683.2" y1="1747.5" x2="729.4" y2="1747.5" gradientUnits="userSpaceOnUse">
			<stop offset="0" stop-color="#f5f6f9"/>
			<stop offset="1" stop-color="#bec1ec"/>
		</linearGradient>
		<linearGradient id="g41" x1="817.4" y1="891" x2="879.9" y2="891" gradientUnits="userSpaceOnUse">
			<stop offset="0" stop-color="#f5f6f9"/>
			<stop offset="1" stop-color="#bec1ec"/>
		</linearGradient>
		<linearGradient id="g42" x1="27.2" y1="65.7" x2="29.6" y2="65.7" gradientUnits="userSpaceOnUse">
			<stop offset="0" stop-color="#423aab"/>
			<stop offset="1" stop-color="#020064"/>
		</linearGradient>
		<linearGradient id="g43" x1="837.1" y1="3149.6" x2="905" y2="3149.6" gradientUnits="userSpaceOnUse">
			<stop offset="0" stop-color="#423aab"/>
			<stop offset="1" stop-color="#020064"/>
		</linearGradient>
		<linearGradient id="g44" x1="864" y1="906.8" x2="926.5" y2="906.8" gradientUnits="userSpaceOnUse">
			<stop offset="0" stop-color="#f5f6f9"/>
			<stop offset="1" stop-color="#bec1ec"/>
		</linearGradient>
		<linearGradient id="g45" x1="640.9" y1="2972.6" x2="674.9" y2="2972.6" gradientUnits="userSpaceOnUse">
			<stop offset="0" stop-color="#423aab"/>
			<stop offset="1" stop-color="#020064"/>
		</linearGradient>
		<linearGradient id="g46" x1="898.4" y1="3281.1" x2="969.8" y2="3281.1" gradientUnits="userSpaceOnUse">
			<stop offset="0" stop-color="#423aab"/>
			<stop offset="1" stop-color="#020064"/>
		</linearGradient>
		<linearGradient id="g47" x1="11876.2" y1="2807.8" x2="11694.4" y2="2807.8" gradientUnits="userSpaceOnUse">
			<stop offset="0" stop-color="#423fb0"/>
			<stop offset="1" stop-color="#362e95"/>
		</linearGradient>
		<linearGradient id="g48" x1="2696" y1="3972" x2="3311.4" y2="3972" gradientUnits="userSpaceOnUse">
			<stop offset="0" stop-color="#df3d0f"/>
			<stop offset="1" stop-color="#f77307"/>
		</linearGradient>
		<linearGradient id="g49" x1="377.1" y1="505.2" x2="384.3" y2="505.2" gradientUnits="userSpaceOnUse">
			<stop offset="0" stop-color="#423fb0"/>
			<stop offset="1" stop-color="#362e95"/>
		</linearGradient>
		<linearGradient id="g50" x1="344.8" y1="555.5" x2="351" y2="555.5" gradientUnits="userSpaceOnUse">
			<stop offset="0" stop-color="#f5f6f9"/>
			<stop offset="1" stop-color="#bec1ec"/>
		</linearGradient>
		<linearGradient id="g51" x1="634" y1="775.8" x2="660.9" y2="775.8" gradientUnits="userSpaceOnUse">
			<stop offset="0" stop-color="#423aab"/>
			<stop offset="1" stop-color="#020064"/>
		</linearGradient>
		<linearGradient id="g52" x1="556.2" y1="360.5" x2="582.5" y2="360.5" gradientUnits="userSpaceOnUse">
			<stop offset="0" stop-color="#f5f6f9"/>
			<stop offset="1" stop-color="#bec1ec"/>
		</linearGradient>
		<linearGradient id="g53" x1="789.1" y1="1817.9" x2="840.1" y2="1817.9" gradientUnits="userSpaceOnUse">
			<stop offset="0" stop-color="#f5f6f9"/>
			<stop offset="1" stop-color="#bec1ec"/>
		</linearGradient>
		<linearGradient id="g54" x1="1126.2" y1="416.7" x2="1188.4" y2="401.3" gradientUnits="userSpaceOnUse">
			<stop offset="0" stop-color="#423aab"/>
			<stop offset="1" stop-color="#020064"/>
		</linearGradient>
		<linearGradient id="g55" x1="939.2" y1="319.7" x2="980.5" y2="309.5" gradientUnits="userSpaceOnUse">
			<stop offset="0" stop-color="#423fb0"/>
			<stop offset="1" stop-color="#362e95"/>
		</linearGradient>
		<linearGradient id="g56" x1="728.3" y1="300.5" x2="754.7" y2="294" gradientUnits="userSpaceOnUse">
			<stop offset="0" stop-color="#f5f6f9"/>
			<stop offset="1" stop-color="#bec1ec"/>
		</linearGradient>
		<linearGradient id="g57" x1="6932" y1="7159.8" x2="7082.6" y2="7670.6" gradientUnits="userSpaceOnUse">
			<stop offset="0" stop-color="#252245"/>
			<stop offset="1" stop-color="#252245" stop-opacity="0"/>
		</linearGradient>
		<linearGradient id="g58" x1="-18437" y1="6830.1" x2="-21678.7" y2="6830.1" gradientUnits="userSpaceOnUse">
			<stop offset="0" stop-color="#f5f6f9"/>
			<stop offset="1" stop-color="#bec1ec"/>
		</linearGradient>
		<linearGradient id="g59" x1="-11672.3" y1="3999.9" x2="-11818.3" y2="4406.2" gradientUnits="userSpaceOnUse">
			<stop offset="0" stop-color="#252245"/>
			<stop offset="1" stop-color="#252245" stop-opacity="0"/>
		</linearGradient>
		<linearGradient id="g60" x1="-1437.7" y1="1138.3" x2="-1437.7" y2="1114.3" gradientUnits="userSpaceOnUse">
			<stop offset="0" stop-color="#423fb0"/>
			<stop offset="1" stop-color="#362e95"/>
		</linearGradient>
		<linearGradient id="g61" x1="-697.7" y1="627.1" x2="-703.2" y2="627.1" gradientUnits="userSpaceOnUse">
			<stop offset="0" stop-color="#423aab"/>
			<stop offset="1" stop-color="#020064"/>
		</linearGradient>
		<linearGradient id="g62" x1="-1369.9" y1="1084.8" x2="-1369.9" y2="1060.8" gradientUnits="userSpaceOnUse">
			<stop offset="0" stop-color="#423fb0"/>
			<stop offset="1" stop-color="#362e95"/>
		</linearGradient>
		<linearGradient id="g63" x1="-665.5" y1="596.7" x2="-670.9" y2="596.7" gradientUnits="userSpaceOnUse">
			<stop offset="0" stop-color="#423aab"/>
			<stop offset="1" stop-color="#020064"/>
		</linearGradient>
		<linearGradient id="g64" x1="-8568.7" y1="8757.3" x2="-9449.7" y2="9702.4" gradientUnits="userSpaceOnUse">
			<stop offset="0" stop-color="#423fb0"/>
			<stop offset="1" stop-color="#362e95"/>
		</linearGradient>
		<linearGradient id="g65" x1="-540.2" y1="5158" x2="-543.8" y2="5158" gradientUnits="userSpaceOnUse">
			<stop offset="0" stop-color="#df3d0f"/>
			<stop offset="1" stop-color="#f77307"/>
		</linearGradient>
		<linearGradient id="g66" x1="-532.7" y1="5070.1" x2="-536.2" y2="5070.1" gradientUnits="userSpaceOnUse">
			<stop offset="0" stop-color="#df3d0f"/>
			<stop offset="1" stop-color="#f77307"/>
		</linearGradient>
		<linearGradient id="g67" x1="-524.6" y1="4982.4" x2="-528.1" y2="4982.4" gradientUnits="userSpaceOnUse">
			<stop offset="0" stop-color="#df3d0f"/>
			<stop offset="1" stop-color="#f77307"/>
		</linearGradient>
		<linearGradient id="g68" x1="-517.2" y1="4894.7" x2="-520.8" y2="4894.7" gradientUnits="userSpaceOnUse">
			<stop offset="0" stop-color="#df3d0f"/>
			<stop offset="1" stop-color="#f77307"/>
		</linearGradient>
		<linearGradient id="g69" x1="16.1" y1="39.5" x2="10.3" y2="41.7" gradientUnits="userSpaceOnUse">
			<stop offset="0" stop-color="#f5f6f9"/>
			<stop offset="1" stop-color="#cfd4fa"/>
		</linearGradient>
		<linearGradient id="g70" x1="13278.9" y1="5908.7" x2="13434.1" y2="6395.8" gradientUnits="userSpaceOnUse">
			<stop offset="0" stop-color="#252245"/>
			<stop offset="1" stop-color="#252245" stop-opacity="0"/>
		</linearGradient>
		<linearGradient id="g71" x1="-1819.1" y1="4750" x2="-1857.9" y2="4750" gradientUnits="userSpaceOnUse">
			<stop offset="0" stop-color="#423aab"/>
			<stop offset="1" stop-color="#020064"/>
		</linearGradient>
		<linearGradient id="g72" x1="-1556.5" y1="4804.8" x2="-1586.4" y2="4804.8" gradientUnits="userSpaceOnUse">
			<stop offset="0" stop-color="#423aab"/>
			<stop offset="1" stop-color="#020064"/>
		</linearGradient>
		<linearGradient id="g73" x1="-2672.8" y1="2591.2" x2="-2755.6" y2="2591.2" gradientUnits="userSpaceOnUse">
			<stop offset="0" stop-color="#f5f6f9"/>
			<stop offset="1" stop-color="#bec1ec"/>
		</linearGradient>
		<linearGradient id="g74" x1="-2163.9" y1="5117.9" x2="-2219.4" y2="5117.9" gradientUnits="userSpaceOnUse">
			<stop offset="0" stop-color="#423aab"/>
			<stop offset="1" stop-color="#020064"/>
		</linearGradient>
		<linearGradient id="g75" x1="-2070.9" y1="5030.2" x2="-2123.5" y2="5030.2" gradientUnits="userSpaceOnUse">
			<stop offset="0" stop-color="#423aab"/>
			<stop offset="1" stop-color="#020064"/>
		</linearGradient>
		<linearGradient id="g76" x1="3190.8" y1="5737" x2="3406.9" y2="5737" gradientUnits="userSpaceOnUse">
			<stop offset="0" stop-color="#423fb0"/>
			<stop offset="1" stop-color="#362e95"/>
		</linearGradient>
		<linearGradient id="g77" x1="-764.6" y1="1265.6" x2="-771.9" y2="1265.6" gradientUnits="userSpaceOnUse">
			<stop offset="0" stop-color="#f5f6f9"/>
			<stop offset="1" stop-color="#bec1ec"/>
		</linearGradient>
		<linearGradient id="g78" x1="1692.2" y1="194.9" x2="1728.3" y2="175.2" gradientUnits="userSpaceOnUse">
			<stop offset="0" stop-color="#423aab"/>
			<stop offset="1" stop-color="#020064"/>
		</linearGradient>
		<linearGradient id="g79" x1="8123.6" y1="6260.3" x2="8626.9" y2="6260.3" gradientUnits="userSpaceOnUse">
			<stop offset="0" stop-color="#df3d0f"/>
			<stop offset="1" stop-color="#f77307"/>
		</linearGradient>
		<linearGradient id="g80" x1="-427.9" y1="714.7" x2="-430.3" y2="714.7" gradientUnits="userSpaceOnUse">
			<stop offset="0" stop-color="#f5f6f9"/>
			<stop offset="1" stop-color="#bec1ec"/>
		</linearGradient>
		<linearGradient id="g81" x1="-1501.1" y1="831.3" x2="-1529.1" y2="831.3" gradientUnits="userSpaceOnUse">
			<stop offset="0" stop-color="#f5f6f9"/>
			<stop offset="1" stop-color="#bec1ec"/>
		</linearGradient>
		<linearGradient id="g82" x1="675.6" y1="781.5" x2="681.4" y2="781.5" gradientUnits="userSpaceOnUse">
			<stop offset="0" stop-color="#423aab"/>
			<stop offset="1" stop-color="#020064"/>
		</linearGradient>
		<linearGradient id="g83" x1="996.4" y1="-31.2" x2="1000.3" y2="-35.1" gradientUnits="userSpaceOnUse">
			<stop offset="0" stop-color="#423aab"/>
			<stop offset="1" stop-color="#020064"/>
		</linearGradient>
		<linearGradient id="g84" x1="-1335" y1="1185" x2="-1357.1" y2="1185" gradientUnits="userSpaceOnUse">
			<stop offset="0" stop-color="#423aab"/>
			<stop offset="1" stop-color="#020064"/>
		</linearGradient>
		<linearGradient id="g85" x1="-1390.2" y1="842.2" x2="-1413.6" y2="842.2" gradientUnits="userSpaceOnUse">
			<stop offset="0" stop-color="#423aab"/>
			<stop offset="1" stop-color="#020064"/>
		</linearGradient>
		<linearGradient id="g86" x1="-1352.1" y1="2953.8" x2="-1375.4" y2="2953.8" gradientUnits="userSpaceOnUse">
			<stop offset="0" stop-color="#f5f6f9"/>
			<stop offset="1" stop-color="#bec1ec"/>
		</linearGradient>
		<linearGradient id="g87" x1="-294.4" y1="628.7" x2="-295.6" y2="628.7" gradientUnits="userSpaceOnUse">
			<stop offset="0" stop-color="#423aab"/>
			<stop offset="1" stop-color="#020064"/>
		</linearGradient>
		<linearGradient id="g88" x1="9399.5" y1="6077.1" x2="9603" y2="6524.9" gradientUnits="userSpaceOnUse">
			<stop offset="0" stop-color="#252245"/>
			<stop offset="1" stop-color="#252245" stop-opacity="0"/>
		</linearGradient>
		<linearGradient id="g89" x1="67.3" y1="48.6" x2="71" y2="48.6" gradientUnits="userSpaceOnUse">
			<stop offset="0" stop-color="#ffd55d"/>
			<stop offset="1" stop-color="#f9a71e"/>
		</linearGradient>
		<linearGradient id="g90" x1="-2087.5" y1="2013.4" x2="-2157.2" y2="2013.4" gradientUnits="userSpaceOnUse">
			<stop offset="0" stop-color="#ffd55d"/>
			<stop offset="1" stop-color="#f9a71e"/>
		</linearGradient>
		<linearGradient id="g91" x1="69.2" y1="66.5" x2="77.4" y2="66.5" gradientUnits="userSpaceOnUse">
			<stop offset="0" stop-color="#ffad00"/>
			<stop offset="1" stop-color="#ff7700"/>
		</linearGradient>
		<linearGradient id="g92" x1="3049.6" y1="10280.3" x2="3338.8" y2="10280.3" gradientUnits="userSpaceOnUse">
			<stop offset="0" stop-color="#423aab"/>
			<stop offset="1" stop-color="#020064"/>
		</linearGradient>
	</defs>
	<style>
		.s0 { fill: url(#g1) } 
		.s1 { opacity: .5;fill: #020064 } 
		.s2 { fill: url(#g2) } 
		.s3 { fill: url(#g3) } 
		.s4 { fill: url(#g4) } 
		.s5 { fill: url(#g5) } 
		.s6 { fill: url(#g6) } 
		.s7 { fill: url(#g7) } 
		.s8 { fill: url(#g8) } 
		.s9 { fill: url(#g9) } 
		.s10 { fill: url(#g10) } 
		.s11 { fill: url(#g11) } 
		.s12 { fill: url(#g12) } 
		.s13 { fill: url(#g13) } 
		.s14 { fill: url(#g14) } 
		.s15 { fill: url(#g15) } 
		.s16 { fill: url(#g16) } 
		.s17 { fill: url(#g17) } 
		.s18 { fill: url(#g18) } 
		.s19 { fill: url(#g19) } 
		.s20 { fill: url(#g20) } 
		.s21 { fill: url(#g21) } 
		.s22 { fill: url(#g22) } 
		.s23 { fill: url(#g23) } 
		.s24 { fill: url(#g24) } 
		.s25 { fill: url(#g25) } 
		.s26 { fill: url(#g26) } 
		.s27 { fill: url(#g27) } 
		.s28 { fill: url(#g28) } 
		.s29 { opacity: .1;fill: #020064 } 
		.s30 { opacity: .6;fill: url(#g29) } 
		.s31 { opacity: .5;fill: url(#g30) } 
		.s32 { fill: #3b2f9e } 
		.s33 { fill: url(#g31) } 
		.s34 { fill: url(#g32) } 
		.s35 { fill: url(#g33) } 
		.s36 { fill: url(#g34) } 
		.s37 { fill: url(#g35) } 
		.s38 { fill: url(#g36) } 
		.s39 { fill: url(#g37) } 
		.s40 { fill: #383097 } 
		.s41 { fill: #7c7df3 } 
		.s42 { opacity: .3;fill: url(#g38) } 
		.s43 { mix-blend-mode: multiply;fill: #ffffff } 
		.s44 { mix-blend-mode: multiply;fill: #fcfcfd } 
		.s45 { mix-blend-mode: multiply;fill: #fafafa } 
		.s46 { mix-blend-mode: multiply;fill: #f7f7f8 } 
		.s47 { mix-blend-mode: multiply;fill: #f4f4f5 } 
		.s48 { mix-blend-mode: multiply;fill: #f2f2f3 } 
		.s49 { mix-blend-mode: multiply;fill: #efeff0 } 
		.s50 { mix-blend-mode: multiply;fill: #ececee } 
		.s51 { mix-blend-mode: multiply;fill: #e9eaec } 
		.s52 { mix-blend-mode: multiply;fill: #e7e7e9 } 
		.s53 { mix-blend-mode: multiply;fill: #e4e4e7 } 
		.s54 { mix-blend-mode: multiply;fill: #e1e2e4 } 
		.s55 { mix-blend-mode: multiply;fill: #dfdfe2 } 
		.s56 { mix-blend-mode: multiply;fill: #dcdddf } 
		.s57 { mix-blend-mode: multiply;fill: #d9dadd } 
		.s58 { mix-blend-mode: multiply;fill: #d7d7da } 
		.s59 { mix-blend-mode: multiply;fill: #d4d5d8 } 
		.s60 { mix-blend-mode: multiply;fill: #d1d2d6 } 
		.s61 { mix-blend-mode: multiply;fill: #cecfd3 } 
		.s62 { mix-blend-mode: multiply;fill: #cccdd1 } 
		.s63 { mix-blend-mode: multiply;fill: #c9cace } 
		.s64 { mix-blend-mode: multiply;fill: #c6c7cc } 
		.s65 { mix-blend-mode: multiply;fill: #c4c5c9 } 
		.s66 { mix-blend-mode: multiply;fill: #c1c2c7 } 
		.s67 { fill: #c2c8ec } 
		.s68 { fill: #ffffff } 
		.s69 { fill: url(#g39) } 
		.s70 { fill: #facfc8 } 
		.s71 { fill: #dbb5b0 } 
		.s72 { fill: url(#g40) } 
		.s73 { fill: #f5f6f9 } 
		.s74 { fill: url(#g41) } 
		.s75 { fill: #020064 } 
		.s76 { fill: url(#g42) } 
		.s77 { fill: url(#g43) } 
		.s78 { fill: url(#g44) } 
		.s79 { fill: url(#g45) } 
		.s80 { fill: url(#g46) } 
		.s81 { fill: url(#g47) } 
		.s82 { fill: #1b1370 } 
		.s83 { fill: url(#g48) } 
		.s84 { fill: #ffad03 } 
		.s85 { fill: #efeff4 } 
		.s86 { fill: #c4c6d0 } 
		.s87 { fill: url(#g49) } 
		.s88 { fill: url(#g50) } 
		.s89 { fill: url(#g51) } 
		.s90 { fill: url(#g52) } 
		.s91 { fill: url(#g53) } 
		.s92 { fill: url(#g54) } 
		.s93 { fill: url(#g55) } 
		.s94 { fill: url(#g56) } 
		.s95 { opacity: .3;fill: url(#g57) } 
		.s96 { fill: url(#g58) } 
		.s97 { opacity: .2;fill: url(#g59) } 
		.s98 { fill: #362e95 } 
		.s99 { fill: url(#g60) } 
		.s100 { fill: url(#g61) } 
		.s101 { fill: url(#g62) } 
		.s102 { fill: url(#g63) } 
		.s103 { fill: #c2cbef } 
		.s104 { fill: url(#g64) } 
		.s105 { fill: url(#g65) } 
		.s106 { fill: url(#g66) } 
		.s107 { fill: url(#g67) } 
		.s108 { fill: url(#g68) } 
		.s109 { fill: url(#g69) } 
		.s110 { opacity: .3;fill: url(#g70) } 
		.s111 { fill: url(#g71) } 
		.s112 { fill: url(#g72) } 
		.s113 { fill: url(#g73) } 
		.s114 { fill: url(#g74) } 
		.s115 { fill: url(#g75) } 
		.s116 { fill: #1c2e89 } 
		.s117 { fill: url(#g76) } 
		.s118 { fill: url(#g77) } 
		.s119 { fill: url(#g78) } 
		.s120 { fill: url(#g79) } 
		.s121 { fill: #5d5d77 } 
		.s122 { fill: url(#g80) } 
		.s123 { fill: url(#g81) } 
		.s124 { fill: #c2c4ce } 
		.s125 { fill: url(#g82) } 
		.s126 { fill: url(#g83) } 
		.s127 { fill: url(#g84) } 
		.s128 { fill: url(#g85) } 
		.s129 { fill: url(#g86) } 
		.s130 { fill: url(#g87) } 
		.s131 { opacity: .3;fill: url(#g88) } 
		.s132 { fill: #10417c } 
		.s133 { fill: #4258a7 } 
		.s134 { fill: #f9a71e } 
		.s135 { fill: url(#g89) } 
		.s136 { fill: url(#g90) } 
		.s137 { fill: #ba5700 } 
		.s138 { fill: url(#g91) } 
		.s139 { fill: #ffad00 } 
		.s140 { fill: url(#g92) } 
	</style>
	<g id="Folder 1">
		<path id="Layer" class="s0" d="m82.6 41.4v0.1c0 5.1-1.8 10.1-5 14c-3.2 4-7.7 6.7-12.7 7.7c-5 1-10.2 0.3-14.7-2.1c-4.6-2.4-8.1-6.2-10.1-10.9c-2-4.7-2.4-9.9-1-14.8c1.4-4.9 4.5-9.2 8.6-12.1c4.2-3 9.3-4.3 14.4-4c5.1 0.4 9.9 2.5 13.6 6q1.6 1.5 2.9 3.3q0 0.1 0 0.1q0.2 0.2 0.3 0.5c2.5 3.6 3.7 7.9 3.7 12.2z" />
		<g id="Layer" style="opacity: .5">
			<path id="Layer" class="s1" d="m74.2 47.4c-0.4 2.5-3.5 4.2-3.9 5.4c-0.5 1.2-2.2 1.5-2.6 3c-0.4 1.5-1.9 1.5-1.7 1.1c0.3-0.3 0.5-0.6 0.1-0.4c-0.4 0.3-0.2 0.4-0.7 0.9c-0.6 0.5-0.6 0.7-1.1 0.6c-0.6-0.1-0.7-0.3-0.5 0.1c0.2 0.3 0.4 0.6 0.2 0.6c-0.2 0.1-1.2 0.7-1.7 0.7c-0.5 0-0.1 0.1-0.3 0.4c-0.3 0.2-0.7 0.1-0.7 0.4c0 0.3-0.3 0.6-0.7 0.8c-0.3 0.2 0.2 0.3 0 0.6c-0.2 0.2-1.2 0.5-1 0.8c0.2 0.2 1 0.7 0.9 0.8c-0.2 0.1-1.3 0.2-2-0.1c-0.7-0.3-0.6-0.4-0.6-0.5c0.1-0.1 0.1-0.2 0-0.2c-0.1 0-0.3-0.1-0.3-0.2c0 0 0-0.1-0.1-0.2c-0.1-0.2 0-0.1-0.1-0.2c-0.1 0-0.1-0.2 0-0.2c0.2 0 0.1 0 0.1-0.1c0 0 0.2-0.1 0.1-0.1c-0.1 0-0.1 0-0.2 0c-0.1 0-0.4 0-0.4-0.1c0-0.1 0.2 0 0.3-0.1c0.2-0.1 0.2-0.3 0.3-0.2c0.1 0 0.2 0.3 0.3 0.1c0-0.2-0.1-0.5 0-0.7c0.1-0.2 0-0.5-0.1-0.2c-0.1 0.2-0.1 0.4-0.3 0.4c-0.2 0-0.2-0.2 0-0.3q0-0.1 0.1-0.2q0-0.1-0.1-0.2q0-0.1 0-0.2q0-0.1 0.1-0.2c0.1-0.1 0.1-0.1 0.1-0.2c0-0.1-0.2-0.6-0.2-0.6c0.1-0.1 0.2 0 0.2-0.1c0-0.1 0-0.1 0.1-0.2c0 0 0.4-0.9 0.3-1.3c-0.1-0.4 0-0.9-0.1-1.2c0-0.3 0.4-2.8 0.1-3.6c-0.3-0.9-2.3-1.4-3-2.4c-0.7-0.9-1.9-2-2-2.9c0-0.8-0.3-1.4-0.1-1.6c0.3-0.2 0.4-1.4 0.5-1.8c0.2-0.5 1-0.6 1.1-1.2c0.1-0.5 0.3-1.4-0.1-1.7c-0.4-0.2-0.3-0.2-0.7 0.2c-0.3 0.4-0.5 0-0.8-0.1c-0.3-0.2-0.6-0.1-0.9-0.4c-0.3-0.2-0.1-0.6-0.5-0.7q-0.1-0.1-0.2-0.2q-0.1-0.2-0.1-0.4c0.1-0.2 0.2-0.1-0.1-0.2c-0.3-0.1-0.5-0.7-0.8-0.7c-0.3 0-0.3-0.2-0.6-0.3c-0.4-0.1-1-0.9-1.3-1c-0.3-0.1-0.4 0.5-0.7 0.4c-0.3-0.2-2.7-0.9-2.7-1.7c-0.1-0.8 0.1-1.4 0-1.8c-0.2-0.5-0.5-1.5-0.5-1.8c0.1-0.2 0-0.6-0.1-0.4c-0.1 0.2 0.3 2.3 0.2 2.5c-0.2 0.2-0.9 0.1-0.8-0.4q0.1-0.5-0.1-0.9c-0.1-0.3 0.3-0.6 0.2-0.8c-0.1-0.3 0.2-1.4 0.1-1.8c-0.2-0.4 0.1-1.6 0.5-2c0.4-0.5 0.8-1.4 1.3-1.8c0.5-0.3 0.5-0.8 1.1-1.3c0 0 2.7-2.3 6-3.6c0 0 0 0 0.1 0.1c0.1 0.1 0.2-0.2 0.4-0.1c0.3 0.1 0.5 0.1 0.5 0c0-0.2 0-0.2 0.3-0.3c0.4-0.2 0.8-0.1 0.4 0q-0.5 0.1-0.3 0.2c0.1 0 0.5 0 0.7-0.1c0.3-0.1 0.6 0 0.7-0.1c0.2-0.1 0.5-0.5 0.5-0.4c0.1 0.2-0.1 0.3 0 0.3c0.2 0 0.4-0.3 0.6-0.3c0.2 0.1 0.2 0.2 0.1 0.3c-0.1 0.1 0.1 0.1 0.1 0.1c0.1-0.1 0.6-0.2 0.5-0.3c-0.2-0.1-0.4-0.2-0.2-0.3c0.2-0.1 0.4-0.2 0.4 0c0.1 0.1 0.5-0.3 0.8-0.2c0.3 0.1 0.3 0 0.5 0c0.2-0.1 0.6-0.2 0.5-0.1c-0.1 0.2 0 0.3 0.2 0.3c0.3 0 0.7 0 0.7 0.1c-0.1 0.1-0.3 0.1 0.1 0.2c0.4 0.1 0.7 0.1 0.6 0.2c0 0.1 0.1 0.2-0.2 0.1c-0.3-0.1-0.9-0.1-0.7 0c0.2 0.2 0.5 0.2 0.4 0.3c-0.1 0.1-0.7-0.1-0.7 0c0 0.1 0.7 0.1 0.6 0.2c-0.1 0.2-0.9 0.1-1.1 0q-0.4-0.2-0.9-0.2c-0.4 0-0.5-0.1-0.4-0.2c0.2 0 1.4-0.2 1.3-0.4c-0.1-0.1-0.7 0.3-0.8 0.2c-0.1-0.2 0.5-0.1 0.3-0.2c-0.2-0.1-0.2-0.4-0.3-0.3c-0.1 0.2 0 0.3-0.2 0.3c-0.2-0.1-0.4-0.3-0.5-0.1c-0.1 0.1 0.1 0.2 0 0.3c-0.1 0.1-0.5 0-0.7 0.1c-0.1 0.1-0.3 0-0.4 0.1c-0.1 0-0.4 0.2-0.5 0.3c-0.1 0.1-0.4-0.1-0.7 0.1q-0.3 0.1-0.6 0.2c-0.4 0.1-0.9 0.3-1 0.4c-0.1 0.2 0.1 0.1 0 0.4c-0.1 0.2 0 0.2 0.2 0.1c0.2-0.1 0.5-0.2 0.7 0.1c0.1 0.2 0.2 0.1 0.4 0.2q0.2 0.1 0.5 0.1c0.3 0 0.3 0.1 0.3 0.4c-0.1 0.3 0.1 0.9 0.2 0.9q0.1 0 0.2 0q0.1 0 0.1-0.1q0.1 0 0.1-0.1q0-0.1 0.1-0.1c0-0.2-0.1-1 0.3-1c0.4 0 0.8-0.3 0.7-0.4c0-0.2-0.3-0.2-0.2-0.4c0.1-0.3 0.2-0.2 0.2-0.4c0-0.3 0.2-0.4 0.3-0.4c0.1 0.1 0.8 0 1 0.1c0.1 0.1 0.3 0.4 0.5 0.3c0.1-0.1 0.2-0.2 0.2 0q-0.1 0.1 0 0.2q0 0.1 0 0.2c0.2 0.1 0.3 0.2 0.4 0.1c0.1-0.1 0.4-0.1 0.5-0.2c0-0.2 0-0.4 0.3-0.2c0.3 0.3 0.9 0.5 0.8 0.6c-0.1 0.1-0.2 0.3 0 0.2q0 0 0.1 0q0.1 0 0.2 0.1c0.1 0.1 0.5 0 0.7 0.2c0.2 0.1 0 0.2 0.1 0.2c0.1 0 0.2-0.1 0.3 0c0 0.1 0.2 0.2 0.3 0.3c0 0 0.1 0.3-0.3 0.4c-0.4 0.1-0.5 0-0.8 0.3c-0.4 0.2-1 0.1-1.6 0.1c-0.6-0.1-0.5 0.1-0.6 0.2c-0.1 0-0.2 0.1-0.4 0c-0.2 0-0.6 0.2-0.6 0.3c0 0.1 0.1 0.1 0.4-0.1q0.4-0.1 0.9-0.2c0.4 0 0.9 0 0.7 0.2c-0.1 0.1-0.3 0.1-0.3 0.2c0 0.2-0.1 0.2 0.1 0.3c0.1 0.1 0 0.2 0.2 0.3c0.2 0 0.1 0.1 0.3 0.1c0.2 0 0.6 0 0.6 0.2c0 0.2-0.3 0.1-0.5 0.2q-0.4 0.2-0.9 0.4c-0.3 0.1-0.7-0.1-0.4-0.3c0.2-0.2 0.4-0.3 0.2-0.3c-0.2 0-0.3 0-0.3 0.2c-0.1 0.2-0.4 0-1.1 0.2c-0.8 0.2-0.1 0.8-0.4 0.8c-0.4 0.1-0.6 0-0.9 0.1c-0.2 0.1-0.1 0.4-0.4 0.5c-0.3 0.1-0.5 0.3-0.6 0.3c-0.1-0.1-0.1 0-0.1 0.1c0 0.1-0.1 0.5 0 0.7c0.1 0.2-0.1 0.5-0.8 0.7c-0.7 0.1-1.6 0.7-1.7 1.1c0 0.3 0.1 0.5 0.2 0.8q0.1 0.4 0.1 0.8c0 0.2 0 0.9-0.4 0.8q-0.4-0.2-0.6-0.7c-0.1-0.1 0.1-0.8-0.1-0.9c-0.3-0.2-0.3-0.1-0.7-0.2c-0.4-0.2-0.2-0.4-0.7-0.3c-0.5 0.1-0.4 0-0.7 0.2c-0.3 0.3-0.2 0.4-0.6 0.3c-0.4-0.1-0.5-0.2-1 0c-0.6 0.2-0.8 0.2-1 0.3c-0.1 0.1-0.9 1.8-0.9 2.2c0 0 0 0.6 0.1 0.9c0.2 0.2 0.3 0.6 0.8 0.6c0.5 0 0.4 0.4 0.9 0c0.5-0.3 0.6-1.1 0.9-1.1c0.3-0.1 0.7 0.1 0.8 0c0.2 0 0.7-0.4 0.4 0.1c-0.2 0.4-0.3 0.7-0.5 1.1c-0.2 0.4-0.4 0.9-0.6 1.1c-0.2 0.2-0.2 0.2 0.2 0.2c0.4 0 0.9-0.2 1.2 0c0.3 0.1 0.9 0.1 0.8 0.3c-0.2 0.2-0.1 0.1-0.1 0.3c-0.1 0.3-0.2 0.4-0.2 0.7c0 0.3-0.3 0.5-0.2 0.9c0.1 0.3 0.3 0.7 0.6 0.8c0.3 0.1 0.5 0.1 0.7 0c0.3-0.1 0.6-0.3 0.9-0.1c0.4 0.1 0.7 0.7 0.7 0.5q0-0.2 0.2-0.3q0.1-0.1 0.2-0.1c0.2 0 0.2-0.1 0.2-0.4q0-0.1 0-0.2q0.1-0.1 0.1-0.1q0.1-0.1 0.2-0.1q0.1-0.1 0.2-0.1q0.2 0.1 0.5 0c0.1 0 0.4 0 0.6-0.2c0.1-0.2 0.5-0.4 0.5-0.2c-0.1 0.2-0.5 0.3-0.4 0.5c0.1 0.3 0.2 0.3 0 0.6c-0.2 0.3 0.3 0.6 0.3 0.4c0.1-0.2-0.1-0.8 0-0.9q0.5-0.2 0.9-0.2c0.3 0.1 0.6 0.1 0.5 0.3c0 0.3-0.1 0.3 0.3 0.3c0.4-0.1 0.4-0.4 0.6-0.1c0.2 0.2 0.5 0.4 0.8 0.2c0.2-0.1 0-0.4 0.5-0.3c0.6 0 0.4 0.4 0.9 0.5c0.5 0.1 0.6 0.1 0.7 0.4c0 0.2 0 0.2 0.3 0.3c0.3 0.1 0.5 0.2 0.5 0.4c0.1 0.3 0 0.2 0.3 0.3c0.3 0 0.3 0 0.3 0.1c0.1 0.2 0.7 0.3 0.9 0.1c0.2-0.1 0.3-0.2 0.6 0c0.4 0.2 0.9 0.3 1 0.6c0.1 0.2 0.2 0 0.3 0.2c0.2 0.2 0.1 0.6 0.4 0.8c0.2 0.2 0.4 0.2 0.3 0.4q-0.3 0.3-0.6 0.6c-0.3 0.4-0.4 0.7-0.1 0.3c0.3-0.3 0.4-0.7 0.6-0.5c0.2 0.1 0.7 0.1 0.8 0.2c0.1 0.1-0.3 0.6-0.1 0.6c0.2-0.1 0.3-0.5 0.4-0.5c0.2 0 0.3 0.1 0.6 0.2c0.4 0.1 0.5 0.1 0.6 0.2c0.1 0.2 0.5 0.2 0.4 0.4c-0.1 0.2 0.1 0.3 0.2 0.1c0.1-0.1 0.3 0 0.5 0.1c0.1 0.1 0.2-0.1 0.4 0c0.1 0.1 2.9-0.3 2.5 2.2z" />
			<path id="Layer" fill-rule="evenodd" class="s1" d="m56.9 21.7c0.1 0.1 0 0.1-0.1 0.1c-0.1 0-0.2 0-0.3 0c0-0.1 0.3-0.1 0.3-0.1c0 0 0.1 0 0.1 0zm0.4 0c-0.1 0-0.2 0-0.3 0c-0.1 0 0-0.1 0-0.1c0.3-0.1 0.4 0 0.5 0.1c0 0-0.1 0-0.2 0zm0.3 0c0 0-0.1 0-0.1-0.1c0.1 0 0.1 0 0.1 0c0.1 0 0.1 0.1 0 0.1zm0.1 0.2c0.1 0 0 0.1-0.1 0.1q-0.1 0-0.1-0.1q0 0 0-0.1q0 0 0.1 0c0.1 0 0.1 0 0.1 0.1zm-0.5-0.1q0 0 0.1 0c0 0.1 0 0.1-0.1 0.1c0 0.1-0.1 0.1-0.2 0.1q-0.1 0-0.1-0.1c0-0.1 0.1-0.1 0.2-0.1q0 0 0.1 0zm5.5 3.9c0 0.1-0.1 0.1-0.2 0.2c-0.1 0-0.1-0.1-0.2-0.1c0-0.1 0 0-0.1 0c0 0-0.2-0.2-0.2-0.2q0.1-0.2 0.3-0.3c0.1-0.1 0-0.1 0.1-0.1c0.1 0 0.1 0.2 0.1 0.4c0.1 0.1 0.1 0 0.2 0.1zm1.8-0.9c-0.1 0.1-0.1 0.1 0 0.2c0.1 0.1-0.1 0.2-0.1 0.3c-0.1 0.1-0.3 0.1-0.5 0.2c-0.1 0.1-0.1 0-0.2 0c0-0.1 0.2-0.2 0.2-0.2c0.1-0.1 0 0-0.1 0q-0.2 0-0.3 0c0-0.1-0.1-0.2-0.3-0.1c-0.3 0-0.5 0-0.6 0c0-0.1 0.2-0.1 0.3-0.2c0-0.1-0.3 0-0.3 0c0-0.1 0.2-0.1 0.3-0.2c0.1 0 0.1-0.2 0.2-0.3c0.1-0.1 0-0.3 0.1-0.3c0.2 0 0.3-0.2 0.5-0.2c0.2 0-0.1 0.3-0.2 0.5c-0.1 0.1 0.2 0.1 0.3 0.1q0.4 0 0.7 0.1c0.2 0.1 0.1 0.1 0 0.1zm0.5 0.3c-0.1 0.1-0.1 0.5-0.2 0.5c-0.1 0-0.3 0.1-0.3 0c-0.1-0.1-0.2-0.1-0.1-0.2c0-0.1 0.2-0.3 0.3-0.2c0.1 0 0.3-0.2 0.3-0.1zm-8.3 10.3c-0.5 0.1-1.4 0-1.6 0c-0.1 0 0.1-0.2-0.1-0.3c-0.2-0.2-0.1-0.4-0.4-0.5q-0.4 0-0.9-0.2c-0.4-0.1-1.2 0.2-1.3 0.2c-0.2-0.1-0.4-0.3 0-0.5c0.3-0.2 0.1-0.3 0.7-0.3q0.7-0.1 1.4 0.1c0.3 0 0.5 0.2 0.9 0.3c0.3 0.2 0.4 0.4 0.7 0.4c0.3 0 0.6 0.4 0.7 0.4c0.1 0.1 0.5 0.3-0.1 0.4zm2.7 0.6c-0.1 0.2-0.1 0.4-0.3 0.2q-0.2 0-0.4 0q-0.2 0-0.3 0c-0.3 0.1-0.5 0.5-0.7 0.3c-0.1-0.2-0.6-0.2-1-0.3c-0.3 0-0.5-0.3-0.3-0.3c0.2-0.1 0.8-0.1 0.8-0.3c0-0.1 0.3-0.4 0.6-0.4q0.5 0.1 0.9 0.3c0.3 0.1 0.8 0.2 0.7 0.5zm1.4 0.2q-0.2 0.2-0.4 0.2c-0.1 0.1-0.1 0-0.3 0c-0.2 0-0.5-0.2-0.4-0.3q0.2-0.1 0.5-0.1c0.3 0.1 0.7 0.2 0.6 0.2zm-5.2-3.1c0 0.1 0.2 0.5-0.1 0.5c-0.3 0-0.4 0-0.5-0.3c-0.1-0.2-0.2-0.6 0.2-0.5c0.2 0.1 0.3 0.1 0.4 0.3zm11.7-12c-0.3 0.1-0.7-0.1-0.6 0.1c0 0.2-0.6 0.1-0.6 0.3c0.1 0.2 0.4 1 0.1 0.9c-0.4-0.1-0.7-0.2-1.1-0.3c-0.4-0.1-0.4 0-1.2-0.3c-0.7-0.4-0.8-0.7-1-0.7c-0.1-0.1 0-0.2-0.1-0.2c-0.2-0.1 0.1-0.1-0.2-0.2c-0.3-0.1-0.4-0.3-0.8-0.3c-0.5 0-1 0.1-1.4 0c-0.4-0.1-0.8-0.2-0.6-0.2q0.4-0.1 0.8-0.1c0.2 0 0.5 0 0.9 0q1-0.1 2 0.1c1 0.2 1.5 0.3 2.1 0.4c0.7 0.1 2 0.3 1.7 0.5zm1.9 0.7c0 0.2-0.3 0.1-0.9 0c-0.2 0-0.2-0.2-0.2-0.4c-0.1-0.2 0.6 0 0.8 0.1c0.2 0.1 0.3 0.2 0.3 0.3zm5 3c0.1 0.5-0.3 0.4-0.6 0.3c-0.3-0.1-0.5-0.3-0.8-0.7c-0.5-0.6 0.2-0.4 0.8-0.4c0.5 0 0.5 0.4 0.6 0.8zm4.1 4.5c0 0.4-0.1 0.2-0.3 0.1c-0.3-0.1-0.2 0.1-0.5 0c-0.3-0.2-0.6-0.4-0.7-1c-0.1-0.5-0.6-0.6-0.9-1c-0.4-0.4-0.2-0.6 0.1-0.6c0.4 0-0.8-0.9-1-1.2c-0.3-0.6-0.2-0.7 0.1-0.4q1.7 1.5 2.9 3.3q0 0 0 0c0.4 0.5 0.3 0.4 0.3 0.8z" />
			<path id="Layer" fill-rule="evenodd" class="s1" d="m82.1 41.3v0.1q0-0.1-0.1-0.1c-0.3-0.5-0.4 0-1 0.3c-0.6 0.3-1.1-0.8-1.8-1.8c-0.6-1.1-1-2-1-2.6c0-0.5-0.1-1.2-0.3-2c-0.2-0.8 0.1-0.7 0.5-0.7c0.4 0-0.1-0.5-0.1-0.7c-0.1-0.3 0.2-0.4 0.1-0.7c-0.2-0.3 0-0.2 0.4-0.2c0.3 0.1 0.2-0.1-0.3-0.3c-0.6-0.1-0.5-0.1-0.5-0.2c-0.1 0 0-0.4 0.1-0.9c0-0.4-0.3-1.2-0.2-1.7c0-0.1 0-0.1 0.5-0.1c0.2 0 0-0.4 0-0.7c2.4 3.7 3.7 7.9 3.7 12.3zm-18.9 21c-0.2 0 0 0.3-0.2 0.2q-0.4 0-0.8 0.1c0 0.1-0.2 0.1-0.2 0c0 0-0.2 0-0.2 0c-0.1 0-0.3-0.2-0.2-0.2c0.1 0 0.1 0 0.2-0.1c0-0.2 0-0.3 0.1-0.2q0.1 0.1 0.4 0.1c0.1 0 0.2 0 0.4 0c0.2-0.1 0.7 0 0.5 0.1zm13.3-25.7c-0.1 0.1-0.2 0.1-0.3 0c-0.1-0.1 0.1-0.2 0.2-0.3c0 0 0.1 0.2 0.1 0.3zm0.1 0.4c0.1 0.1 0 0.2-0.1 0.2c0 0.1-0.1 0-0.2-0.1c0-0.1 0.2-0.1 0.3-0.1zm0.3 0.2c0 0.1 0 0.2-0.2 0.1c0 0 0.1-0.2 0.1-0.3c0 0 0.1 0.1 0.1 0.2zm0.3-0.2c0 0.1 0 0.2-0.1 0.2c0-0.1-0.1-0.1-0.1-0.2c0-0.1 0.1 0 0.2 0zm-0.1-0.2c-0.1 0.1-0.1 0-0.1 0c-0.1-0.1-0.1-0.1 0-0.1c0-0.1 0.2 0 0.1 0.1zm-0.1-0.4q0 0 0 0.1q0 0 0 0q0 0.1 0 0.1q0 0-0.1 0q0 0-0.1-0.1c0 0 0.1-0.1 0.1-0.1q0 0 0.1 0zm-0.2 0.3q0 0-0.1 0.1c0 0.1-0.1 0-0.1-0.1c-0.1-0.1-0.1-0.1 0-0.1c0.1-0.1 0.2 0 0.2 0.1z" />
		</g>
		<path id="Layer" class="s2" d="m73.5 46.7c-0.3 2.5-3.4 4.2-3.9 5.4c-0.4 1.2-2.1 1.5-2.5 3c-0.5 1.5-1.9 1.5-1.7 1.1c0.2-0.3 0.5-0.6 0.1-0.4c-0.4 0.3-0.2 0.4-0.8 0.9c-0.5 0.5-0.5 0.7-1.1 0.6c-0.6-0.1-0.7-0.3-0.5 0.1c0.2 0.4 0.4 0.6 0.2 0.6c-0.2 0.1-1.2 0.7-1.7 0.7c-0.5 0 0 0.1-0.3 0.4c-0.3 0.2-0.6 0.2-0.6 0.4c0 0.3-0.4 0.6-0.7 0.8c-0.4 0.2 0.2 0.3-0.1 0.6c-0.2 0.2-1.2 0.5-1 0.8c0.3 0.2 1.1 0.7 0.9 0.8c-0.2 0.1-1.3 0.2-2-0.1c-0.7-0.3-0.6-0.4-0.5-0.5c0-0.1 0-0.2-0.1-0.2c-0.1 0-0.3-0.1-0.3-0.2c0.1 0 0.1-0.1 0-0.2c-0.1-0.2-0.1-0.1-0.2-0.2c-0.1 0-0.1-0.2 0.1-0.2c0.1 0 0.1 0 0.1-0.1c0 0 0.1-0.1 0-0.1c0 0-0.1 0-0.2 0c-0.1 0-0.4 0-0.4-0.1c0-0.1 0.3 0 0.4-0.1c0.1-0.1 0.2-0.3 0.2-0.2c0.1 0 0.3 0.3 0.3 0.1c0-0.2 0-0.5 0.1-0.7c0-0.2 0-0.5-0.1-0.2c-0.1 0.2-0.1 0.4-0.3 0.4c-0.3 0-0.2-0.2-0.1-0.3q0.1-0.1 0.1-0.2q0-0.1 0-0.2q-0.1-0.1 0-0.2q0-0.1 0-0.2c0.2-0.1 0.2-0.1 0.2-0.2c-0.1-0.1-0.3-0.6-0.2-0.6c0.1-0.1 0.1 0 0.1-0.1c0.1-0.1 0-0.1 0.1-0.1c0.1-0.1 0.4-1 0.3-1.4c-0.1-0.4 0-0.9 0-1.2c0-0.3 0.4-2.8 0.1-3.6c-0.4-0.9-2.4-1.4-3-2.4c-0.7-0.9-2-2-2-2.9c-0.1-0.8-0.4-1.4-0.1-1.6c0.2-0.2 0.3-1.4 0.5-1.8c0.1-0.5 1-0.6 1-1.2c0.1-0.5 0.4-1.4 0-1.7c-0.4-0.2-0.3-0.2-0.7 0.2c-0.4 0.4-0.5 0-0.9-0.1c-0.3-0.2-0.5-0.1-0.8-0.4c-0.3-0.2-0.2-0.6-0.5-0.7q-0.2-0.1-0.3-0.2q-0.1-0.2-0.1-0.4c0.1-0.1 0.2-0.1-0.1-0.2c-0.3-0.1-0.4-0.7-0.7-0.7c-0.3 0-0.3-0.2-0.7-0.3c-0.4-0.1-1-0.9-1.3-1c-0.3-0.1-0.3 0.5-0.6 0.4c-0.4-0.2-2.7-0.9-2.8-1.7c0-0.8 0.2-1.4 0-1.8c-0.1-0.5-0.4-1.5-0.4-1.8c0-0.2-0.1-0.6-0.2-0.4c-0.1 0.2 0.4 2.3 0.2 2.5c-0.1 0.2-0.8 0.1-0.8-0.4q0.1-0.5 0-0.9c-0.1-0.3 0.2-0.6 0.1-0.8c-0.1-0.3 0.3-1.4 0.1-1.8c-0.2-0.4 0.1-1.6 0.5-2c0.4-0.5 0.8-1.4 1.3-1.8c0.5-0.3 0.5-0.8 1.1-1.3c0 0 2.7-2.3 6-3.6c0 0 0.1 0 0.1 0.1c0.1 0.1 0.3-0.2 0.5-0.1c0.2 0.1 0.4 0.1 0.4 0c0-0.2 0-0.2 0.4-0.3c0.3-0.2 0.7-0.1 0.4 0q-0.6 0.1-0.4 0.2c0.1 0 0.5 0 0.8-0.1c0.2-0.1 0.5 0 0.7-0.1c0.1-0.1 0.5-0.5 0.5-0.4c0 0.2-0.1 0.3 0 0.3c0.1 0 0.3-0.3 0.5-0.2c0.2 0 0.3 0.1 0.2 0.2c-0.2 0.1 0 0.1 0.1 0.1c0-0.1 0.5-0.2 0.4-0.3c-0.1-0.1-0.4-0.2-0.2-0.3c0.2-0.1 0.4-0.2 0.5 0c0.1 0.1 0.5-0.3 0.8-0.2c0.2 0.1 0.3 0 0.4 0c0.2-0.1 0.7-0.2 0.6-0.1c-0.1 0.2-0.1 0.3 0.2 0.3c0.3 0 0.7 0 0.6 0.1c0 0.1-0.3 0.1 0.1 0.2c0.4 0.1 0.7 0.1 0.7 0.2c-0.1 0.1 0 0.2-0.3 0.1c-0.3-0.1-0.8-0.1-0.7 0c0.2 0.2 0.6 0.2 0.4 0.3c-0.1 0.1-0.6-0.1-0.7 0c0 0.1 0.8 0.1 0.6 0.2c-0.1 0.2-0.9 0.1-1.1 0q-0.4-0.2-0.8-0.2c-0.5 0-0.6-0.1-0.4-0.2c0.2 0 1.4-0.2 1.2-0.4c-0.1-0.1-0.6 0.3-0.8 0.2c-0.1-0.2 0.6-0.1 0.4-0.2c-0.2-0.1-0.3-0.4-0.3-0.2c-0.1 0.1-0.1 0.2-0.3 0.2c-0.1-0.1-0.4-0.3-0.5-0.1c-0.1 0.1 0.2 0.2 0 0.3c-0.1 0.1-0.5 0.1-0.6 0.1c-0.2 0.1-0.3 0-0.4 0.1c-0.1 0-0.4 0.2-0.5 0.3c-0.2 0.1-0.5-0.1-0.7 0.1q-0.3 0.1-0.7 0.2c-0.3 0.1-0.9 0.3-1 0.4c-0.1 0.2 0.1 0.1 0 0.4c0 0.2 0 0.2 0.2 0.1c0.2-0.1 0.5-0.2 0.7 0.1c0.2 0.2 0.2 0.1 0.4 0.2q0.3 0.1 0.6 0.1c0.2 0 0.2 0.1 0.2 0.4c0 0.3 0.1 0.9 0.3 0.9q0.1 0 0.1 0q0.1 0 0.2-0.1q0 0 0.1-0.1q0 0 0-0.1c0-0.2-0.1-1 0.3-1c0.4 0 0.8-0.3 0.8-0.4c0-0.2-0.4-0.2-0.3-0.4c0.1-0.3 0.3-0.2 0.3-0.4c0-0.3 0.1-0.4 0.2-0.3c0.2 0 0.9-0.1 1 0c0.2 0.1 0.4 0.4 0.5 0.3c0.1-0.1 0.3-0.2 0.2 0q0 0.1 0 0.2q0 0.1 0.1 0.2c0.1 0.1 0.2 0.2 0.4 0.1c0.1-0.1 0.4-0.1 0.4-0.2c0-0.2 0-0.4 0.3-0.2c0.3 0.3 0.9 0.5 0.8 0.6c-0.1 0.1-0.1 0.3 0 0.2q0.1 0 0.2 0q0 0 0.1 0.1c0.1 0.1 0.5 0 0.7 0.2c0.2 0.1 0 0.2 0.1 0.2c0.2 0 0.2-0.1 0.3 0c0.1 0.1 0.3 0.2 0.3 0.3c0 0.1 0.1 0.3-0.3 0.4c-0.4 0.1-0.4 0-0.8 0.3c-0.4 0.2-1 0.1-1.5 0.1c-0.6-0.1-0.5 0.1-0.6 0.2c-0.2 0.1-0.2 0.1-0.4 0c-0.2 0-0.6 0.3-0.6 0.3c0 0.1 0.1 0.1 0.3 0q0.5-0.2 1-0.3c0.3 0 0.8 0 0.7 0.2c-0.2 0.1-0.3 0.1-0.3 0.2c0 0.2-0.1 0.2 0 0.3c0.1 0.1 0.1 0.2 0.3 0.3c0.1 0 0.1 0.1 0.2 0.1c0.2 0 0.6 0 0.6 0.2c0 0.2-0.2 0.1-0.4 0.2q-0.5 0.2-0.9 0.4c-0.4 0.1-0.7-0.1-0.5-0.3c0.3-0.2 0.5-0.3 0.3-0.3c-0.3 0-0.3 0-0.4 0.2c0 0.2-0.3 0-1.1 0.2c-0.8 0.2 0 0.8-0.4 0.8c-0.3 0.1-0.6 0-0.8 0.1c-0.3 0.1-0.2 0.4-0.5 0.5c-0.2 0.1-0.4 0.3-0.5 0.3c-0.1-0.1-0.2 0-0.2 0.1c0 0.1-0.1 0.5 0 0.7c0.1 0.2 0 0.5-0.7 0.7c-0.7 0.1-1.7 0.7-1.7 1.1c-0.1 0.3 0 0.5 0.1 0.8q0.2 0.4 0.2 0.8c-0.1 0.2-0.1 0.9-0.5 0.8q-0.4-0.2-0.6-0.7c-0.1-0.1 0.1-0.8-0.1-0.9c-0.2-0.2-0.3-0.1-0.6-0.2c-0.4-0.2-0.3-0.4-0.8-0.3c-0.5 0.1-0.4 0-0.7 0.3c-0.3 0.2-0.1 0.3-0.6 0.2c-0.4-0.1-0.4-0.2-1 0c-0.5 0.2-0.8 0.2-0.9 0.3c-0.2 0.1-0.9 1.8-0.9 2.2c0 0-0.1 0.6 0.1 0.9c0.1 0.2 0.3 0.7 0.7 0.6c0.5 0 0.4 0.4 0.9 0c0.5-0.3 0.6-1.1 0.9-1.1c0.3-0.1 0.7 0.1 0.9 0c0.1 0 0.6-0.4 0.4 0.1c-0.3 0.4-0.4 0.7-0.6 1.1c-0.1 0.4-0.3 0.9-0.5 1.1c-0.2 0.2-0.3 0.2 0.1 0.2c0.4 0 1-0.1 1.3 0c0.3 0.1 0.8 0.1 0.7 0.3c-0.1 0.2-0.1 0.1-0.1 0.3c0 0.3-0.2 0.4-0.2 0.7c0.1 0.3-0.2 0.5-0.2 0.9c0.1 0.3 0.3 0.7 0.6 0.8c0.3 0.1 0.5 0.1 0.8 0c0.3-0.1 0.5-0.3 0.9-0.1c0.3 0.1 0.6 0.7 0.7 0.5q0-0.2 0.1-0.3q0.1-0.1 0.3-0.1c0.1 0 0.2-0.1 0.2-0.4q0-0.1 0-0.2q0-0.1 0.1-0.1q0.1-0.1 0.1-0.1q0.1-0.1 0.2 0q0.3 0 0.6-0.1c0.1 0 0.3 0 0.5-0.2c0.2-0.2 0.6-0.4 0.5-0.2c0 0.2-0.4 0.3-0.3 0.5c0.1 0.3 0.1 0.4-0.1 0.6c-0.2 0.3 0.4 0.6 0.4 0.4c0-0.2-0.2-0.8 0-0.9q0.4-0.2 0.9-0.2c0.3 0.1 0.6 0.1 0.5 0.3c-0.1 0.3-0.2 0.3 0.2 0.3c0.4-0.1 0.5-0.4 0.7-0.1c0.2 0.2 0.5 0.4 0.7 0.2c0.3-0.1 0-0.4 0.6-0.3c0.5 0 0.3 0.4 0.9 0.5c0.5 0.1 0.5 0.1 0.6 0.4c0.1 0.2 0.1 0.2 0.3 0.3c0.3 0.1 0.6 0.2 0.6 0.4c0 0.3-0.1 0.2 0.2 0.3c0.3 0 0.3 0 0.4 0.1c0 0.2 0.6 0.3 0.8 0.1c0.2-0.1 0.3-0.2 0.7 0c0.3 0.2 0.8 0.3 0.9 0.6c0.1 0.2 0.2 0 0.4 0.2c0.1 0.3 0.1 0.6 0.3 0.8c0.2 0.2 0.5 0.2 0.3 0.4q-0.2 0.3-0.5 0.6c-0.3 0.4-0.4 0.7-0.1 0.3c0.3-0.3 0.4-0.7 0.6-0.5c0.2 0.2 0.7 0.1 0.8 0.2c0 0.1-0.3 0.7-0.1 0.6c0.1-0.1 0.2-0.5 0.4-0.5c0.1 0 0.2 0.1 0.6 0.2c0.3 0.1 0.4 0.1 0.6 0.2c0.1 0.2 0.4 0.2 0.3 0.4c0 0.3 0.1 0.3 0.2 0.1c0.1-0.1 0.4 0 0.5 0.1c0.2 0.1 0.3-0.1 0.4 0c0.2 0.1 2.9-0.3 2.5 2.2z" />
		<path id="Layer" class="s3" d="m56.3 21c0 0.1-0.1 0.1-0.2 0.1c0 0-0.2 0-0.2 0c-0.1-0.1 0.2-0.1 0.2-0.1c0 0 0.1 0 0.2 0z" />
		<path id="Layer" class="s4" d="m56.6 21c-0.1 0-0.1 0-0.3 0c-0.1 0 0-0.1 0.1-0.1c0.2-0.1 0.3 0 0.4 0.1c0.1 0 0 0-0.2 0z" />
		<path id="Layer" class="s5" d="m57 21c-0.1 0-0.1 0-0.1-0.1c0 0 0 0 0.1 0c0 0 0 0.1 0 0.1z" />
		<path id="Layer" class="s6" d="m57.1 21.2c0 0-0.1 0.1-0.2 0.1q-0.1 0-0.1-0.1q0 0 0-0.1q0.1 0 0.1 0c0.2 0 0.2 0 0.2 0.1z" />
		<path id="Layer" class="s7" d="m56.5 21.1q0.1 0 0.1 0c0.1 0.1 0 0.1 0 0.1c-0.1 0.1-0.1 0.1-0.2 0.1q-0.2 0-0.2-0.1c0-0.1 0.2-0.1 0.2-0.1q0.1 0 0.1 0z" />
		<path id="Layer" class="s8" d="m62 25c0.1 0.1 0 0.1-0.2 0.2c-0.1 0-0.1-0.1-0.1-0.1c-0.1-0.1-0.1 0-0.1 0c-0.1 0-0.3-0.2-0.2-0.2q0.1-0.2 0.2-0.3c0.1-0.1 0.1-0.1 0.2-0.1c0.1 0 0 0.2 0.1 0.4c0 0.1 0 0 0.1 0.1z" />
		<path id="Layer" class="s9" d="m63.8 24.1c0 0.1-0.1 0.1 0 0.2c0.2 0.1 0 0.2-0.1 0.3c0 0.1-0.3 0.1-0.4 0.2c-0.1 0.1-0.2 0-0.2 0c-0.1-0.1 0.1-0.2 0.2-0.2c0.1-0.1-0.1 0-0.2 0q-0.1 0-0.2 0c-0.1-0.1-0.2-0.2-0.4-0.1c-0.2 0-0.5 0-0.5 0c-0.1-0.1 0.2-0.1 0.2-0.2c0-0.1-0.2 0-0.2 0c-0.1-0.1 0.2-0.1 0.3-0.2c0 0 0-0.2 0.1-0.3c0.1-0.1 0-0.3 0.2-0.3c0.1 0 0.3-0.2 0.4-0.2c0.2 0 0 0.3-0.2 0.5c-0.1 0.1 0.2 0.1 0.4 0.1q0.3 0 0.6 0.1c0.2 0.1 0.1 0.1 0 0.1z" />
		<path id="Layer" class="s10" d="m64.3 24.4c0 0.2 0 0.5-0.1 0.5c-0.1 0-0.4 0.1-0.4 0c0-0.1-0.1-0.1-0.1-0.2c0.1-0.1 0.2-0.3 0.4-0.2c0 0 0.2-0.2 0.2-0.1z" />
		<path id="Layer" class="s11" d="m56.1 34.7c-0.6 0.1-1.5 0-1.6 0c-0.1 0 0.1-0.2-0.1-0.3c-0.2-0.2-0.2-0.4-0.4-0.5q-0.5 0-1-0.2c-0.4-0.1-1.1 0.2-1.3 0.2c-0.2-0.1-0.4-0.3 0-0.5c0.3-0.2 0.2-0.2 0.7-0.3q0.8-0.1 1.5 0.1c0.3 0 0.5 0.2 0.8 0.3c0.4 0.2 0.5 0.4 0.8 0.4c0.2 0 0.5 0.4 0.6 0.4c0.1 0.1 0.5 0.3 0 0.4z" />
		<path id="Layer" class="s12" d="m58.7 35.3c-0.1 0.2 0 0.4-0.3 0.2q-0.2 0-0.3 0q-0.2 0-0.4 0c-0.2 0.1-0.5 0.5-0.6 0.3c-0.2-0.2-0.6-0.2-1-0.3c-0.4 0-0.5-0.3-0.3-0.3c0.2-0.1 0.7-0.1 0.7-0.3c0-0.1 0.3-0.4 0.6-0.4q0.5 0.1 1 0.3c0.2 0.1 0.7 0.2 0.6 0.5z" />
		<path id="Layer" class="s13" d="m60.1 35.5q-0.1 0.2-0.3 0.2c-0.2 0.1-0.2 0-0.4 0c-0.1 0-0.4-0.2-0.3-0.3q0.2-0.1 0.4-0.1c0.3 0.1 0.7 0.2 0.6 0.2z" />
		<path id="Layer" class="s14" d="m54.9 32.4c0.1 0.1 0.2 0.5-0.1 0.5c-0.3 0-0.4 0-0.5-0.3c-0.1-0.2-0.1-0.6 0.3-0.5c0.1 0.1 0.3 0.1 0.3 0.3z" />
		<path id="Layer" class="s15" d="m66.6 20.4c-0.3 0.1-0.6-0.1-0.6 0.1c0.1 0.2-0.6 0.1-0.5 0.3c0 0.2 0.3 1 0 0.9c-0.3-0.1-0.7-0.2-1.1-0.3c-0.4-0.1-0.3 0-1.1-0.3c-0.8-0.4-0.9-0.7-1-0.7c-0.2-0.1 0-0.2-0.2-0.2c-0.2 0 0.2-0.1-0.1-0.2c-0.4-0.1-0.4-0.3-0.9-0.3c-0.5 0-1 0.1-1.3 0c-0.4-0.1-0.9-0.1-0.6-0.2q0.4-0.1 0.8-0.1c0.1 0 0.5 0 0.8 0q1-0.1 2 0.1c1.1 0.2 1.6 0.3 2.2 0.4c0.6 0.1 1.9 0.3 1.6 0.5z" />
		<path id="Layer" class="s16" d="m68.6 21.1c0 0.2-0.4 0.1-1 0c-0.1 0-0.2-0.2-0.2-0.4c0-0.2 0.6 0 0.9 0.1c0.2 0.1 0.3 0.2 0.3 0.3z" />
		<path id="Layer" class="s17" d="m73.5 24.1c0.2 0.5-0.2 0.4-0.5 0.3c-0.3-0.1-0.5-0.3-0.9-0.7c-0.5-0.6 0.3-0.4 0.8-0.4c0.5 0 0.5 0.4 0.6 0.8z" />
		<path id="Layer" class="s18" d="m77.6 28.6c0 0.4-0.1 0.3-0.3 0.1c-0.2-0.1-0.1 0.1-0.4 0q-0.3-0.2-0.5-0.4q-0.2-0.2-0.2-0.5c-0.2-0.6-0.6-0.7-1-1.1c-0.3-0.4-0.2-0.5 0.2-0.6c0.3 0-0.9-0.9-1-1.2c-1-1.8 1.9 1.3 2.3 1.6c0.4 0.3 0.3 0.7 0.7 1.3c0.3 0.5 0.2 0.4 0.2 0.8z" />
		<path id="Layer" class="s19" d="m82.1 36.9c0.4 2 0.2 2.8 0.2 3.6c-0.1 0.8-0.6 0.5-0.9 0.1c-0.4-0.5-0.5 0-1.1 0.3c-0.6 0.3-1.1-0.8-1.7-1.8c-0.6-1.1-1-2-1-2.6c0-0.5-0.2-1.2-0.4-2c-0.2-0.8 0.1-0.7 0.6-0.7c0.4 0-0.1-0.5-0.2-0.7c0-0.3 0.2-0.4 0.1-0.7c-0.1-0.3 0.1-0.2 0.4-0.2c0.3 0.1 0.3-0.1-0.3-0.3c-0.5-0.1-0.5-0.1-0.5-0.2c0 0 0-0.4 0.1-0.9c0.1-0.4-0.2-1.2-0.2-1.7c0-0.1 0.1-0.1 0.5-0.1c0.4 0-0.6-1.9 0.9 0c1.6 1.8 3 5.9 3.5 7.9z" />
		<path id="Layer" class="s20" d="m62.5 61.6c-0.1 0 0.1 0.3-0.1 0.2q-0.4 0-0.8 0.1c-0.1 0.1-0.2 0.1-0.2 0c0 0-0.2 0-0.3 0c-0.1 0-0.3-0.2-0.2-0.2c0.1 0 0.2 0 0.2-0.1c0-0.2 0-0.3 0.1-0.2q0.2 0.1 0.4 0.1c0.2 0 0.2 0 0.4 0c0.3-0.1 0.7 0 0.5 0.1z" />
		<path id="Layer" class="s21" d="m67.8 62c0.1 0.1-0.2 0.2-0.3 0.2q-0.3 0-0.4-0.2q0 0 0-0.1q0 0 0-0.1q0 0 0.1 0q0-0.1 0.1-0.1q0.1 0 0.3 0c0.2 0 0.1 0.1 0.2 0.3z" />
		<path id="Layer" class="s22" d="m75.8 35.9c0 0.1-0.2 0.1-0.2 0c-0.1-0.1 0-0.2 0.1-0.3c0.1 0 0.2 0.2 0.1 0.3z" />
		<path id="Layer" class="s23" d="m75.9 36.3c0.1 0.1 0 0.2 0 0.2c-0.1 0.1-0.2 0-0.2-0.1c0-0.1 0.2-0.1 0.2-0.1z" />
		<path id="Layer" class="s24" d="m76.3 36.5c0 0.1-0.1 0.2-0.2 0.1c-0.1 0 0-0.2 0-0.2c0.1-0.1 0.2 0 0.2 0.1z" />
		<path id="Layer" class="s25" d="m76.5 36.3c0.1 0.1 0 0.2 0 0.2c-0.1-0.1-0.2-0.1-0.1-0.2c0-0.1 0.1 0 0.1 0z" />
		<path id="Layer" class="s26" d="m76.5 36.1c-0.1 0.1-0.2 0-0.2 0c0-0.1 0-0.1 0-0.1c0.1-0.1 0.2 0 0.2 0.1z" />
		<path id="Layer" class="s27" d="m76.3 35.7q0.1 0 0.1 0.1q0 0 0 0q0 0.1 0 0.1q-0.1 0-0.1 0q-0.1 0-0.1-0.1c-0.1 0 0-0.1 0.1-0.1q0 0 0 0z" />
		<path id="Layer" class="s28" d="m76.2 36q0 0-0.1 0.1c-0.1 0.1-0.1 0-0.2-0.1c-0.1-0.1 0-0.1 0.1-0.1c0-0.1 0.1 0 0.2 0.1z" />
		<path id="Layer" class="s29" d="m69.3 21.1c3.6 1.6 6.7 4.1 9.1 7.3c2.3 3.1 3.7 6.9 4.1 10.8c0.4 3.9-0.2 7.8-1.8 11.4c-1.6 3.6-4.2 6.7-7.4 8.9c-3.2 2.3-6.9 3.7-10.8 4c-3.9 0.4-7.9-0.3-11.4-2c-3.6-1.6-6.6-4.2-8.9-7.4q0.5 0.5 1 1.1c2.7 2.3 5.9 3.8 9.4 4.5q2.6 0.2 5.2 0.4c3.6-0.3 7.1-1.5 10.1-3.5c2.4-1.5 6.8-5.3 8.7-13c1.5-6.2-1.1-21-16.2-24c-0.8-0.2-1.7-0.1-2.5-0.2c3.9-0.4 7.8 0.2 11.4 1.7z" />
		<path id="Layer" class="s30" d="m82.2 45.8q0.3 0.4 0.5 0.8q0.4 0.8 0.6 1.6q0.1 0.3 0.1 0.6q0.3 1.4 0.1 2.9c-0.2 1.2-0.6 2.3-1.3 3.2q-1 1.5-2.4 2.6c-1.8 1.4-3.9 2.3-6.1 3q-1.7 0.5-3.4 0.8q-1.6 0.3-3.2 0.5q-1.7 0.1-3.3 0.1q-0.9 0-1.7 0q-0.9 0-1.7-0.1q-1.7-0.1-3.3-0.3q-1.7-0.3-3.3-0.6q-3.8-0.9-7.4-2.3q-2.7-1.1-5.1-2.6c-2-1.2-3.8-2.6-5.3-4.3q-1.2-1.2-2-2.7q-0.9-1.6-1.2-3.3c-0.3-1.8 0-3.6 0.9-5.2q0.4-0.7 0.9-1.4q0.2-0.2 0.4-0.4q0.5-0.6 1.2-1.1q1.3-1 2.8-1.8q-0.1 0.5-0.2 1q-1.1 0.7-2.1 1.5q-0.6 0.6-1.2 1.2q0 0.1-0.1 0.2q-1 1.2-1.4 2.7c-0.3 1-0.3 2.1-0.1 3.1q0.3 1.5 1.1 2.9q0.8 1.3 1.9 2.5c1.5 1.5 3.2 2.8 5.1 3.9q0.7 0.4 1.4 0.8c3.3 1.8 7 3 10.7 3.8q1.6 0.4 3.2 0.6q1.6 0.3 3.2 0.4q3.3 0.2 6.5 0q3.2-0.2 6.4-1.1q0.2-0.1 0.4-0.2c1.9-0.6 3.8-1.4 5.3-2.5q1.3-1 2.2-2.2c0.6-0.9 1.1-1.8 1.3-2.9q0-0.2 0.1-0.5q0.1-0.9-0.1-1.7q0-0.4-0.1-0.9q-0.2-0.7-0.5-1.4q0-0.1 0-0.1z" />
		<path id="Layer" class="s31" d="m53.7 20.3q-0.4 0-0.7 0q-1.9 0-3.7 0.2c-2.5 0.2-4.9 0.6-7.2 1.3q-1.7 0.6-3.3 1.5q-1.5 0.9-2.8 2.1q-0.6 0.7-1.1 1.4c-0.9 1.4-1.4 3.1-1.2 4.8q0.2 1.8 0.9 3.4q0.6 1.4 1.6 2.6q0.1 0.2 0.2 0.4q0.1 0.1 0.3 0.3q0.7 1 1.6 1.8q1.5 1.6 3.3 2.8c3.8 2.9 8.2 5.1 12.8 6.6q1.8 0.6 3.5 1c1.2 0.3 2.4 0.6 3.6 0.8q3.6 0.7 7.2 0.8q3.6 0.1 7.2-0.5q2.6-0.4 4.9-1.4q1-0.4 1.8-0.9q0 0 0 0q0.5-0.2 0.8-0.5q1.1-0.7 1.9-1.7c0.8-0.8 1.4-1.8 1.7-2.9c0.4-1.1 0.5-2.3 0.3-3.4q-0.1-0.9-0.4-1.8q-0.2-0.8-0.6-1.6q-0.4-0.8-0.9-1.6q-0.5-0.8-1-1.5q-1.1-1.5-2.4-2.7q-1.4-1.3-2.8-2.5q-0.3-0.2-0.6-0.4q0 0 0 0q0 0 0-0.1q-0.2-0.2-0.4-0.4q0.6 0.4 1.1 0.7q1.6 1.1 3 2.3c1.9 1.6 3.6 3.5 4.8 5.8q0.5 0.8 0.8 1.7q0.3 0.9 0.5 1.9c0.2 1.3 0.2 2.6-0.2 3.9c-0.3 1.3-1 2.5-1.8 3.5q-1.2 1.4-2.8 2.4q-0.1 0.1-0.2 0.1q-0.4 0.3-0.7 0.5q-1.4 0.7-2.9 1.3q-1.7 0.6-3.6 0.9q-3.7 0.7-7.5 0.7q-1.9-0.1-3.8-0.3q-0.9-0.1-1.9-0.2q-0.9-0.1-1.8-0.3q-1.9-0.3-3.7-0.8q-1.8-0.4-3.6-1q-3.6-1.2-7-2.9q-3.4-1.7-6.4-4.1q-1.1-0.8-2.2-1.8q-1.5-1.4-2.8-3q-0.2-0.3-0.4-0.6q-0.1-0.1-0.1-0.2q-1.1-1.5-1.8-3.1q-0.8-1.9-1-3.9c-0.1-2 0.5-4 1.7-5.6q0.5-0.9 1.2-1.5q1.5-1.4 3.2-2.2q1.7-0.9 3.6-1.4q3.6-1 7.4-1.1q1.8 0 3.7 0.1q0.6 0.1 1.2 0.2q0 0 0 0z" />
		<path id="Layer" class="s32" d="m33.7 31.9q0 0.1 0 0.2l-0.5 2.3l-1.1-0.8l1.1-1.9q0-0.1 0-0.1q0 0 0.1 0q0 0 0 0q0 0 0.1 0l0.2 0.2q0 0 0.1 0.1z" />
		<path id="Layer" class="s33" d="m45.3 37.9q0 0.1 0 0.2q0 0.3-0.2 0.6q-0.2 0.3-0.5 0.4q-0.1 0.1-0.2 0.1q-0.1 0-0.2-0.1v0.1l-1.6-1.3q0 0 0 0q-0.1-0.1-0.1-0.2q-0.1-0.1-0.1-0.2q0-0.3 0.2-0.5q0.1-0.2 0.4-0.3q0.1 0 0.2 0q0.1 0 0.2 0q0 0 0 0l1.7 1q0 0 0.1 0q0 0.1 0.1 0.2z" />
		<path id="Layer" class="s32" d="m45.2 38.2q0 0.2-0.2 0.4q-0.1 0.3-0.4 0.4c-0.3 0.1-0.5 0-0.5-0.3q0.1-0.3 0.2-0.5q0.2-0.2 0.4-0.4c0.3-0.1 0.5 0 0.5 0.4z" />
		<path id="Layer" class="s34" d="m46 32l-3.7 8.1l-0.3 0.6l-3.4-2.6l0.7-0.6l3.7-3.1l2-2.7l0.3-0.3q0 0 0-0.1q0.1 0 0.1 0q0 0 0.1 0q0 0 0.1 0.1l0.3 0.2q0.1 0.1 0.2 0.2q0 0.1-0.1 0.2z" />
		<path id="Layer" class="s35" d="m36.8 44.7q-0.1 0.3-0.2 0.5q-0.2 0.3-0.5 0.4q0 0.1 0 0.1q-0.1 0-0.3 0q-0.1 0-0.2 0l-1.4-1.1l-0.1-0.2q-0.1 0-0.1 0q-0.1 0-0.1-0.2q0-0.1 0-0.2q0-0.2 0.1-0.4q0.2-0.3 0.4-0.3q0.2-0.1 0.3-0.1q0.1 0 0.2 0q0 0 0 0q0 0 0 0l1 0.6l0.2 0.1l0.5 0.3q0 0 0 0q0.1 0.1 0.1 0.2q0.1 0.1 0.1 0.3z" />
		<path id="Layer" class="s32" d="m36.6 44.7q0 0.3-0.1 0.5q-0.2 0.2-0.4 0.3c-0.3 0.2-0.5 0-0.5-0.3q0-0.3 0.2-0.5q0.1-0.2 0.3-0.3c0.3-0.1 0.5 0 0.5 0.3z" />
		<path id="Layer" class="s36" d="m46.9 46.4c-0.2 0.4-0.5 0.4-1 0.2q-0.2 0-0.5-0.1c-1.5-0.5-5.8-3.5-8.5-5.4c-2.6-1.9-3.8-2.7-4.4-3.2q-0.6-0.6-1-1.4q-0.5-1-1-2q-0.4-0.9-0.7-1.9c-0.2-0.8 0.6-0.6 1.3-0.3c0.1 0.1 0.6 0.3 1.1 0.7c1.6 1.1 4.6 3.1 7.1 4.9c3.5 2.4 4.9 3.2 6.2 4.7c1.1 1.1 1.6 3.3 1.4 3.8z" />
		<path id="Layer" class="s32" d="m46.9 46.4c-0.2 0.4-0.5 0.4-1 0.2c1.5 0 0-1.5 0-1.5c0 0-1.6-0.3-0.3-0.5c1.4-0.2-1-2.5-2.1-3.4c-1.1-0.8-11.2-7.9-11.2-7.9l-0.1-0.3c1.6 1.1 4.6 3.1 7.1 4.9c3.5 2.4 4.9 3.2 6.2 4.7c1.1 1.1 1.6 3.3 1.4 3.8z" />
		<path id="Layer" fill-rule="evenodd" class="s32" d="m46.5 44.2q0.2 0.5 0.3 0.9c-0.1 0.2-0.3 0.3-0.5 0.3c-0.6 0-1.8-0.7-2.4-1.1q-0.2-0.2-0.2-0.4v-0.2c0-0.1 0.1-0.2 0.1-0.1q0.9 0.5 1.7 1c0.4 0.1 0.7 0.2 0.9 0c0.1 0 0.1-0.2 0.1-0.4zm-13.8-8.2c-0.6-0.4-0.7-1.1-0.7-1.1l-1.5-0.4q0.5 1 1 2c0 0 0.2-0.3 0.7-0.1c0.5 0.1 1-0.1 0.5-0.4z" />
		<path id="Layer" class="s37" d="m39.2 43.4q-0.5 0.2-1.1 0.2l-12.6-0.1q-0.5 0-0.9-0.3l-0.4-0.3q-0.1-0.1-0.1-0.1q0-0.1 0-0.1q0-0.1 0.1-0.1q0 0 0-0.1l6.6-1.1l5-1.3q0.2-0.1 0.3-0.1q0.2 0.1 0.3 0.1c0.5 0.4 1.5 1.1 2.3 1.7c0.6 0.5 1.1 0.9 1.1 1c0.1 0.4-0.3 0.5-0.6 0.6z" />
		<path id="Layer" class="s38" d="m32 34.9q0 0 0 0q0 0.1-0.1 0.1q0 0 0 0q0 0.1-0.1 0.1l-3.3-0.3q-0.2 0-0.4-0.2l-0.2-0.2q-0.1 0-0.1 0q0 0 0 0q0-0.1 0.1-0.1q0 0 0 0l2.5-0.5c0 0 0.4-0.1 0.5 0c0.1 0.1 0.9 0.7 1.1 1.1z" />
		<path id="Layer" class="s39" d="m32.4 33.5c0 0.2-0.2 0.1-0.2 0.1l-1.4-1q0 0-0.1-0.1q0-0.1 0-0.2v-3.1q0 0 0 0q0 0 0 0q0.1-0.1 0.1-0.1q0 0 0 0.1q0.4 0.2 0.7 0.5c0.1 0.1 0.9 3.8 0.9 3.8z" />
		<path id="Layer" fill-rule="evenodd" class="s32" d="m41.9 43.6q0.1 0 0.1 0.1l-0.1 0.2q0 0.1-0.1 0h-0.1q0-0.1 0-0.1q-0.1-0.1 0-0.1v-0.2q0-0.2 0.1-0.1l0.1 0.1q0 0 0 0.1zm-0.5-0.4q0 0 0 0.1v0.2q0 0.1-0.1 0h-0.1q-0.1 0-0.1-0.1q0-0.1 0-0.1v-0.2q0-0.1 0.1-0.1l0.1 0.1q0.1 0 0.1 0.1zm-0.4-0.3q0 0 0 0.1v0.2q0 0.1-0.1 0.1l-0.1-0.1q-0.1 0-0.1-0.1q0-0.1 0-0.1v-0.2q0-0.1 0.1-0.1l0.1 0.1q0.1 0 0.1 0.1zm-0.4-0.3q0 0 0 0.1v0.2q-0.1 0.1-0.2 0.1v-0.1q-0.1 0-0.1-0.1q0-0.1 0-0.1v-0.2q0-0.1 0.1-0.1l0.1 0.1q0 0 0.1 0.1zm-0.5-0.3q0.1 0 0.1 0.1l-0.1 0.2q0 0.1-0.1 0.1v-0.1q-0.1 0-0.1-0.1q0-0.1 0-0.1v-0.2q0-0.1 0.1-0.1l0.1 0.1q0 0 0 0.1zm-0.4-0.3q0 0 0 0.1v0.2q0 0.1-0.1 0.1l-0.1-0.1q0 0 0-0.1q-0.1-0.1-0.1-0.1l0.1-0.2q0-0.1 0.1-0.1v0.1q0.1 0 0.1 0.1zm-0.4-0.3q0 0 0 0.1v0.2q0 0.1-0.1 0.1l-0.1-0.1q0 0-0.1-0.1q0-0.1 0-0.1v-0.2q0.1-0.1 0.2-0.1v0.1q0.1 0 0.1 0.1zm-0.4-0.3q0 0 0 0.1v0.2q0 0.1-0.1 0.1l-0.1-0.1q-0.1 0-0.1-0.1q0-0.1 0-0.1v-0.2q0-0.1 0.1-0.1l0.1 0.1q0.1 0 0.1 0.1zm-0.4-0.3q0 0 0 0.1v0.2q-0.1 0.1-0.2 0.1v-0.1q-0.1 0-0.1-0.1q0-0.1 0-0.1v-0.2q0-0.1 0.1-0.1l0.1 0.1q0 0 0.1 0.1zm-0.5-0.3q0.1 0 0.1 0.1v0.2q-0.1 0.1-0.2 0.1v-0.1q-0.1 0-0.1-0.1q0-0.1 0-0.1v-0.2q0-0.1 0.1-0.1l0.1 0.1q0 0 0 0.1zm-0.4-0.3q0.1 0 0.1 0.1l-0.1 0.2q0 0.1-0.1 0.1l-0.1-0.1q0 0 0-0.1q-0.1-0.1 0-0.1v-0.2q0-0.1 0.1-0.1l0.1 0.1q0 0 0 0.1zm-0.4-0.3q0 0 0 0.1v0.2q0 0.1-0.1 0.1l-0.1-0.1q0 0-0.1-0.1q0-0.1 0-0.1v-0.2q0.1-0.1 0.2-0.1v0.1q0.1 0 0.1 0.1zm-0.4-0.3q0 0 0 0.1v0.2q0 0.1-0.1 0.1l-0.1-0.1q0 0-0.1-0.1q0-0.1 0-0.1v-0.2q0.1-0.1 0.2-0.1v0.1q0.1 0 0.1 0.1zm-0.4-0.3q0 0 0 0.1v0.2q0 0.1-0.1 0.1l-0.1-0.1q-0.1 0-0.1-0.1q0-0.1 0-0.1v-0.2q0-0.1 0.1-0.1l0.1 0.1q0.1 0 0.1 0.1zm-0.4-0.3q0 0 0 0.1v0.2q-0.1 0.1-0.2 0.1v-0.1q-0.1 0-0.1-0.1q0-0.1 0-0.1v-0.2q0-0.1 0.1-0.1l0.1 0.1q0 0 0.1 0.1zm-0.5-0.3q0.1 0 0.1 0.1l-0.1 0.2q0 0.1-0.1 0.1v-0.1q-0.1 0-0.1-0.1q0-0.1 0-0.1v-0.2q0-0.1 0.1-0.1l0.1 0.1q0 0 0 0.1zm-0.4-0.3q0.1 0 0.1 0.1l-0.1 0.2q0 0.1-0.1 0.1l-0.1-0.1q0 0 0-0.1q-0.1-0.1-0.1-0.1l0.1-0.2q0-0.1 0.1-0.1l0.1 0.1q0 0 0 0.1zm-0.4-0.3q0 0 0 0.1v0.2q0 0.1-0.1 0.1l-0.1-0.1q0 0-0.1-0.1q0-0.1 0-0.1v-0.2q0.1-0.1 0.2-0.1v0.1q0.1 0 0.1 0.1zm-0.4-0.3q0 0 0 0.1v0.2q0 0.1-0.1 0.1l-0.1-0.1q0 0-0.1-0.1q0 0 0-0.1v-0.2q0.1-0.1 0.2-0.1v0.1q0.1 0 0.1 0.1zm-0.4-0.3q0 0 0 0.1v0.2q0 0.1-0.2 0.1v-0.1q-0.1 0-0.1-0.1q0 0 0-0.1v-0.2q0-0.1 0.1-0.1l0.1 0.1q0 0 0.1 0.1zm-0.4-0.3q0 0.1 0 0.1v0.2q-0.1 0.1-0.2 0.1v-0.1q-0.1 0-0.1-0.1q0 0 0-0.1v-0.2q0-0.1 0.1-0.1l0.1 0.1q0 0 0.1 0.1zm-0.5-0.3q0.1 0 0.1 0.1l-0.1 0.2q0 0.1-0.1 0.1l-0.1-0.1q0 0 0-0.1q-0.1 0 0-0.1v-0.2q0-0.1 0.1-0.1l0.1 0.1q0 0 0 0.1zm13-5.2l-3.7 8.1l-2.4-1.6l-0.6-0.6c0.1 0 1.6 0.7 2.8-0.3c1.2-1.1 3.4-5.1 3.4-5.6c0.1-0.3-0.2-0.3-0.5-0.3l0.3-0.3q0 0 0-0.1q0.1 0 0.1 0q0 0 0.1 0q0 0 0.1 0.1l0.3 0.2q0.1 0.1 0.2 0.2q0 0.1-0.1 0.2zm-6.8 11.4q-0.5 0.2-1.1 0.2l-12.6-0.1q-0.5 0-0.9-0.3l-0.4-0.3q-0.1-0.1-0.1-0.1q0-0.1 0-0.1q0-0.1 0.1-0.1q0 0 0-0.1c1 0.8 2.6 0.5 3.9 0.5c1.6 0 9.1-0.2 10-0.3c0.8-0.2 0.6-0.9 0.6-0.9c0.6 0.5 1.1 0.9 1.1 1c0.1 0.4-0.3 0.5-0.6 0.6zm-3.1 2.2q0 0.1 0 0.1q-0.1 0-0.3 0q-0.1 0-0.2 0l-1.4-1.1q0.3-0.2 0.5-0.4c0.3-0.3 0.9-0.3 1.2-0.4l0.2 0.1c0 0-0.6-0.1-0.9 0.6c-0.2 0.7 0.3 1.2 0.7 1.1q0-0.1 0.1 0q0.1 0 0.1 0q0 0 0 0z" />
		<path id="Layer" class="s40" d="m69.7 19.3c0.3 1.7 0.3 3.8-0.7 5.3c-0.4 0.7-5.8 6.7-5.8 6.7l-2.1 1.3c0 0 2.3-3.8 5.1-6.5c1.1-1.1 1.6-6.1 1.2-7.4c-0.9-2.8-2.4-5.4-4.5-7.3c-3.8-3.5-6.6-2.6-7.4-2.2l1.9-1.1c2.8-1.5 6 0.6 7.9 2.6c2.3 2.3 3.9 5.4 4.4 8.6z" />
		<path id="Layer" fill-rule="evenodd" class="s41" d="m66.9 26c-0.6 0.8-5.8 6.6-5.8 6.6c0 0-7.8-13.4-7.8-18.7c0-1.4 0.3-3 1.3-4c0.8-0.9 2-1.3 3.2-1.2c2.8 0.3 5.3 2.5 6.9 4.7c1.8 2.3 3.1 5.3 3.2 8.3c0.1 1.5-0.1 3.1-1 4.3zm-2.1-5.7c0.1-3-2.3-7.6-5.7-8c-2.2-0.2-3.3 2.1-2.5 5.1c0.7 3.1 3.1 5.8 5.3 6c1.8 0.2 2.8-1.4 2.9-3.1z" />
		<path id="Layer" class="s40" d="m64.3 22.2q-0.4 0.6-0.9 0.9q-0.4 0.2-0.9 0.3q-0.3 0-0.5 0c-2.3-0.2-4.7-2.9-5.5-6c-0.7-2.9 0.4-5.2 2.5-5.1c-0.6 0.9-1 2.1-1 3.2c0.1 3.4 2.6 6.7 6.3 6.7z" />
		<path id="Layer" class="s42" d="m36.3 70.4l12.2 7l-9.9 5.4l-9.9-5.6z" />
		<g id="Layer">
			<g id="Layer">
				<path id="Layer" class="s43" d="m21.1 71.4l8.9-5q0.4-0.3 0.8-0.3q0.5 0 0.9 0.3l8.8 4.8q0.4 0.2 0.7 0.7q0.2 0.4 0.2 0.8q0 0.5-0.3 0.9q-0.2 0.4-0.6 0.6l-8.9 5q-0.4 0.2-0.8 0.2q-0.4 0-0.8-0.2l-8.9-4.7q-0.4-0.3-0.6-0.7q-0.2-0.4-0.2-0.8q0-0.5 0.2-0.9q0.2-0.4 0.6-0.7z" />
			</g>
			<g id="Layer">
				<path id="Layer" class="s44" d="m30.1 66.4q0.2-0.1 0.5-0.2q0.1 0 0.3 0q0.4 0 0.8 0.2l8.8 4.8q0.3 0.2 0.5 0.4c0.2 0.4 0.3 0.7 0.3 1.1q0 0.5-0.2 0.9q-0.3 0.4-0.7 0.6l-8.8 5q-0.4 0.2-0.8 0.2q-0.1 0-0.2 0q-0.3-0.1-0.6-0.2l-8.8-4.8q-0.3-0.2-0.6-0.5q-0.3-0.4-0.3-1q0.1-0.4 0.3-0.8q0.2-0.4 0.6-0.6z" />
			</g>
			<g id="Layer">
				<path id="Layer" class="s45" d="m30.1 66.4q0.2-0.1 0.5-0.1q0.1 0 0.3 0q0.4 0 0.8 0.2l8.7 4.8q0.3 0.1 0.5 0.4c0.3 0.3 0.4 0.7 0.4 1.1q-0.1 0.4-0.3 0.8q-0.3 0.4-0.6 0.6l-8.8 4.9q-0.3 0.2-0.8 0.2q-0.1 0-0.2 0q-0.3 0-0.5-0.2l-8.9-4.7q-0.3-0.2-0.5-0.5c-0.2-0.3-0.3-0.6-0.3-1c0-0.6 0.4-1.1 0.9-1.4z" />
			</g>
			<g id="Layer">
				<path id="Layer" class="s46" d="m30.1 66.5q0.2-0.1 0.5-0.2q0.2 0 0.3 0q0.4 0.1 0.8 0.3l8.7 4.7q0.3 0.2 0.5 0.4q0.2 0.2 0.2 0.5q0.1 0.3 0.1 0.6c0 0.5-0.5 1.1-0.9 1.4l-8.7 4.8q-0.3 0.2-0.7 0.3q-0.2 0-0.3 0q-0.3-0.1-0.5-0.2l-8.8-4.7q-0.3-0.2-0.6-0.5c-0.2-0.3-0.3-0.6-0.2-1c0-0.5 0.4-1.1 0.9-1.4z" />
			</g>
			<g id="Layer">
				<path id="Layer" class="s47" d="m30.1 66.5q0.3-0.1 0.5-0.1q0.2 0 0.3 0q0.4 0 0.8 0.2l8.6 4.7q0.3 0.2 0.5 0.4q0.2 0.3 0.3 0.5q0.1 0.3 0 0.6c0 0.5-0.5 1.1-0.9 1.3l-8.6 4.9q-0.3 0.2-0.7 0.2q-0.1 0-0.3 0q-0.2 0-0.5-0.2l-8.8-4.7q-0.3-0.2-0.5-0.4q-0.2-0.2-0.2-0.5q-0.1-0.3-0.1-0.5c0-0.5 0.5-1.1 1-1.4z" />
			</g>
			<g id="Layer">
				<path id="Layer" class="s48" d="m30.2 66.6q0.2-0.1 0.5-0.2q0.1 0 0.2 0q0.5 0.1 0.8 0.3l8.6 4.7q0.3 0.1 0.5 0.4q0.2 0.2 0.2 0.5q0.1 0.2 0.1 0.5c0 0.5-0.6 1.1-1 1.3l-8.5 4.8q-0.3 0.2-0.7 0.2q-0.1 0-0.2 0q-0.3 0-0.6-0.1l-8.7-4.7q-0.3-0.2-0.6-0.5q-0.1-0.2-0.2-0.4q-0.1-0.3 0-0.5c0-0.5 0.5-1.1 1-1.4z" />
			</g>
			<g id="Layer">
				<path id="Layer" class="s49" d="m30.2 66.6q0.2-0.1 0.5-0.1q0.1 0 0.3 0q0.4 0.1 0.7 0.3l8.6 4.6q0.2 0.2 0.4 0.4q0.2 0.2 0.3 0.5q0.1 0.2 0 0.5c0 0.5-0.6 1.1-1 1.3l-8.3 4.7q-0.4 0.2-0.8 0.3q-0.1 0-0.2 0q-0.3 0-0.5-0.2l-8.8-4.6q-0.3-0.2-0.5-0.5q-0.2-0.2-0.2-0.4q-0.1-0.3 0-0.6c0-0.4 0.5-1 0.9-1.3z" />
			</g>
			<g id="Layer">
				<path id="Layer" class="s50" d="m30.2 66.7q0.2-0.1 0.5-0.1q0.1 0 0.3 0q0.4 0 0.7 0.2l8.5 4.7q0.3 0.1 0.5 0.3q0.2 0.2 0.2 0.5q0.1 0.3 0 0.5c0 0.5-0.6 1.1-0.9 1.3l-8.3 4.7q-0.4 0.2-0.8 0.2q-0.1 0-0.2 0q-0.3 0-0.5-0.1l-8.7-4.7q-0.3-0.1-0.6-0.4q-0.1-0.2-0.2-0.5q-0.1-0.2 0-0.5c0-0.4 0.6-1 1-1.3z" />
			</g>
			<g id="Layer">
				<path id="Layer" class="s51" d="m30.2 66.7q0.3-0.1 0.5-0.1q0.2 0 0.3 0q0.4 0.1 0.7 0.3l8.5 4.6q0.2 0.1 0.4 0.4q0.2 0.2 0.3 0.4q0.1 0.3 0 0.6c0 0.4-0.7 1-1 1.2l-8.2 4.6q-0.4 0.2-0.7 0.3q-0.2 0-0.3 0q-0.3 0-0.5-0.2l-8.7-4.6q-0.3-0.2-0.5-0.4q-0.2-0.2-0.2-0.5q-0.1-0.2 0-0.5c0-0.4 0.7-1 1-1.2z" />
			</g>
			<g id="Layer">
				<path id="Layer" class="s52" d="m30.3 66.8q0.2-0.1 0.5-0.1q0.1 0 0.2 0q0.4 0.1 0.8 0.3l8.3 4.5q0.3 0.2 0.5 0.4q0.2 0.2 0.2 0.4q0.1 0.3 0 0.6c0 0.4-0.7 1-1 1.2l-8.1 4.5q-0.4 0.2-0.7 0.3q-0.1 0-0.3 0q-0.2 0-0.5-0.1l-8.6-4.6q-0.3-0.2-0.6-0.5q-0.1-0.2-0.2-0.4q-0.1-0.3 0-0.5c0-0.4 0.8-1 1.1-1.2z" />
			</g>
			<g id="Layer">
				<path id="Layer" class="s53" d="m30.3 66.8q0.2-0.1 0.5-0.1q0.1 0 0.2 0.1q0.4 0 0.8 0.2l8.3 4.6q0.2 0.1 0.4 0.3q0.2 0.2 0.3 0.5q0.1 0.2-0.1 0.5c0 0.3-0.7 1-1 1.1l-8 4.6q-0.3 0.2-0.7 0.2q-0.1 0.1-0.2 0.1q-0.3 0-0.5-0.1l-8.7-4.7q-0.3-0.1-0.5-0.4q-0.2-0.2-0.3-0.4q0-0.3 0.1-0.5c0-0.4 0.8-1 1.1-1.2z" />
			</g>
			<g id="Layer">
				<path id="Layer" class="s54" d="m30.3 66.9q0.2-0.2 0.5-0.1q0.1 0 0.2 0q0.4 0.1 0.8 0.3l8.2 4.5q0.3 0.1 0.5 0.3q0.2 0.2 0.2 0.5q0.1 0.3 0 0.5c0 0.3-0.8 1-1.1 1.1l-7.9 4.5q-0.3 0.2-0.7 0.3c0 0-0.2 0-0.2 0q-0.3 0-0.5-0.1l-8.6-4.6q-0.3-0.2-0.6-0.4q-0.2-0.2-0.2-0.5q0-0.2 0.1-0.4c0-0.4 0.8-1 1.1-1.2z" />
			</g>
			<g id="Layer">
				<path id="Layer" class="s55" d="m30.3 66.9q0.3-0.1 0.5-0.1c0.1 0 0.2 0.1 0.3 0.1q0.3 0.1 0.7 0.3l8.2 4.4q0.2 0.2 0.4 0.4q0.2 0.2 0.3 0.4q0 0.3-0.1 0.5c0 0.3-0.8 1-1 1.1l-7.9 4.4q-0.3 0.2-0.7 0.3c0 0-0.2 0.1-0.2 0.1q-0.3 0-0.5-0.1l-8.6-4.6q-0.3-0.2-0.5-0.4q-0.2-0.2-0.3-0.5q0-0.2 0.1-0.5c0-0.3 0.9-0.9 1.1-1.1z" />
			</g>
			<g id="Layer">
				<path id="Layer" class="s56" d="m30.4 67q0.2-0.2 0.4-0.1c0.1 0 0.2 0 0.3 0q0.4 0.1 0.7 0.3l8.1 4.5q0.3 0.1 0.5 0.3q0.2 0.2 0.3 0.4q0 0.3-0.1 0.5c0 0.3-0.9 1-1.1 1.1l-7.8 4.4q-0.3 0.2-0.7 0.2c0 0-0.1 0.1-0.2 0.1q-0.2 0-0.5-0.1l-8.5-4.6q-0.3-0.1-0.6-0.4q-0.2-0.1-0.2-0.4q0-0.3 0.1-0.5c0-0.3 0.9-0.9 1.1-1.1z" />
			</g>
			<g id="Layer">
				<path id="Layer" class="s57" d="m30.4 67q0.2-0.1 0.5-0.1c0 0 0.2 0.1 0.2 0.1q0.4 0.1 0.7 0.3l8.1 4.4q0.2 0.1 0.5 0.3q0.2 0.2 0.2 0.5q0 0.2-0.1 0.5c0 0.2-0.9 0.9-1.1 1l-7.7 4.3q-0.3 0.2-0.6 0.3c-0.1 0-0.2 0-0.3 0q-0.2 0.1-0.4 0l-8.5-4.6q-0.4-0.2-0.6-0.4q-0.2-0.2-0.3-0.4q0-0.3 0.2-0.5c0-0.2 0.9-0.9 1.1-1.1z" />
			</g>
			<g id="Layer">
				<path id="Layer" class="s58" d="m30.4 67.1q0.2-0.2 0.5-0.1c0 0 0.2 0.1 0.2 0.1q0.4 0.1 0.7 0.3l8 4.3q0.3 0.2 0.5 0.4q0.2 0.1 0.3 0.4q0 0.3-0.2 0.5c0 0.2-0.9 0.9-1.1 1l-7.6 4.2q-0.3 0.2-0.6 0.3c-0.1 0-0.2 0.1-0.2 0.1q-0.3 0-0.5-0.1l-8.5-4.5q-0.3-0.2-0.6-0.4q-0.2-0.2-0.2-0.4q0-0.3 0.1-0.5c0-0.2 1-0.9 1.2-1z" />
			</g>
			<g id="Layer">
				<path id="Layer" class="s59" d="m30.4 67.1q0.1 0 0.3-0.1q0.1 0 0.2 0.1c0 0 0.2 0 0.2 0q0.4 0.2 0.7 0.3l8 4.4q0.2 0.1 0.5 0.3q0.1 0.1 0.1 0.2q0.1 0.1 0.1 0.2q0 0.1 0 0.3q0 0.1-0.1 0.2c0 0.2-1 0.8-1.1 0.9l-7.6 4.3q-0.3 0.2-0.6 0.3c0 0-0.2 0-0.2 0q-0.1 0.1-0.3 0q-0.1 0-0.2 0l-8.4-4.6q-0.3-0.1-0.6-0.3q-0.1-0.1-0.2-0.2q0-0.1-0.1-0.3q0-0.1 0.1-0.2q0-0.1 0.1-0.2c0-0.2 1-0.9 1.2-1z" />
			</g>
			<g id="Layer">
				<path id="Layer" class="s60" d="m30.5 67.2q0.1-0.1 0.2-0.1q0.1 0 0.2 0c0.1 0 0.2 0.1 0.3 0.1q0.3 0.1 0.6 0.3l7.9 4.3q0.3 0.2 0.5 0.3q0.1 0.1 0.2 0.2q0 0.1 0.1 0.2q0 0.2-0.1 0.3q0 0.1-0.1 0.2c0 0.2-1 0.8-1.1 0.9l-7.5 4.2q-0.3 0.2-0.6 0.3c0 0-0.2 0.1-0.2 0.1q-0.1 0-0.2 0q-0.2 0-0.3-0.1l-8.4-4.5q-0.3-0.2-0.6-0.4q-0.1 0-0.1-0.2q-0.1-0.1-0.1-0.2q0-0.1 0-0.2q0.1-0.2 0.1-0.3c0-0.1 1.1-0.8 1.3-0.9z" />
			</g>
			<g id="Layer">
				<path id="Layer" class="s61" d="m30.5 67.2q0.1-0.1 0.2-0.1q0.1 0 0.3 0.1c0 0 0.2 0.1 0.2 0.1q0.3 0.1 0.7 0.3l7.8 4.3c0 0 0.4 0.2 0.5 0.2q0.1 0.1 0.1 0.2q0.1 0.1 0.1 0.3q0 0.1 0 0.2q-0.1 0.1-0.2 0.2c0 0.2-1 0.8-1.1 0.9l-7.4 4.2q-0.3 0.1-0.6 0.2c0 0-0.2 0.1-0.2 0.1q-0.1 0.1-0.2 0q-0.1 0-0.2 0l-8.4-4.5c-0.1-0.1-0.6-0.4-0.6-0.4q-0.1-0.1-0.2-0.2q-0.1-0.1-0.1-0.2q0-0.1 0.1-0.3q0-0.1 0.1-0.2c0-0.1 1.1-0.8 1.2-0.9z" />
			</g>
			<g id="Layer">
				<path id="Layer" class="s62" d="m30.5 67.3q0.1-0.1 0.2-0.1q0.2 0 0.3 0c0 0 0.2 0.1 0.2 0.1q0.3 0.2 0.7 0.3l7.8 4.3c0 0 0.4 0.2 0.4 0.3q0.1 0 0.2 0.2q0.1 0.1 0.1 0.2q0 0.1-0.1 0.2q0 0.2-0.1 0.3c0 0.1-1.1 0.7-1.2 0.8l-7.3 4.1q-0.3 0.2-0.6 0.3c0 0-0.1 0.1-0.1 0.1q-0.2 0-0.3 0q-0.1 0-0.2-0.1l-8.4-4.5c0 0-0.6-0.3-0.6-0.3q-0.1-0.1-0.1-0.2q-0.1-0.1-0.1-0.2q0-0.2 0-0.3q0.1-0.1 0.2-0.2c0-0.1 1.1-0.8 1.2-0.9z" />
			</g>
			<g id="Layer">
				<path id="Layer" class="s63" d="m30.5 67.3q0.1-0.1 0.3-0.1q0.1 0 0.2 0.1c0 0 0.2 0.1 0.2 0.1c0.1 0 0.6 0.3 0.7 0.3l7.7 4.2c0 0 0.5 0.3 0.5 0.3q0.1 0.1 0.1 0.2q0.1 0.1 0.1 0.2q0 0.2 0 0.3q-0.1 0.1-0.2 0.2c0 0.1-1.1 0.7-1.2 0.8l-7.2 4c0 0-0.5 0.3-0.5 0.3c-0.1 0-0.2 0.1-0.2 0.1q-0.1 0.1-0.3 0q-0.1 0-0.2 0l-8.3-4.5c-0.1 0-0.6-0.3-0.6-0.4q-0.1 0-0.2-0.1q-0.1-0.1-0.1-0.3q0-0.1 0.1-0.2q0-0.1 0.1-0.2c0-0.1 1.2-0.8 1.3-0.9z" />
			</g>
			<g id="Layer">
				<path id="Layer" class="s64" d="m30.6 67.4q0.1-0.1 0.2-0.1q0.1 0 0.2 0c0 0 0.2 0.1 0.2 0.1c0.1 0 0.7 0.4 0.7 0.4l7.7 4.2c0 0 0.4 0.2 0.4 0.2q0.1 0.1 0.2 0.2q0.1 0.1 0.1 0.3q0 0.1-0.1 0.2q0 0.1-0.1 0.2c0 0-1.2 0.7-1.2 0.7l-7.1 4.1c-0.1 0-0.6 0.3-0.6 0.3c0 0-0.2 0-0.2 0q-0.1 0.1-0.2 0.1q-0.2 0-0.3-0.1l-8.3-4.4c0-0.1-0.6-0.4-0.6-0.4q-0.1 0-0.2-0.2q0-0.1 0-0.2q0-0.1 0-0.2q0.1-0.2 0.2-0.2c0-0.1 1.2-0.8 1.3-0.9z" />
			</g>
			<g id="Layer">
				<path id="Layer" class="s65" d="m30.6 67.4q0.1-0.1 0.2-0.1q0.1 0 0.2 0.1c0 0 0.2 0.1 0.3 0.1c0 0 0.6 0.3 0.6 0.3l7.6 4.2c0 0 0.5 0.3 0.5 0.3q0.1 0 0.2 0.1q0 0.2 0 0.3q0 0.1 0 0.2q-0.1 0.1-0.2 0.2c0 0-1.2 0.7-1.2 0.7l-7 4c0 0-0.6 0.3-0.6 0.3c0 0-0.2 0.1-0.2 0.1q-0.1 0-0.2 0q-0.1 0-0.2 0l-8.3-4.5c0 0-0.6-0.3-0.6-0.3q-0.1-0.1-0.2-0.2q-0.1-0.1-0.1-0.2q0-0.1 0.1-0.3q0-0.1 0.2-0.1c0-0.1 1.2-0.8 1.3-0.8z" />
			</g>
			<g id="Layer">
				<path id="Layer" class="s66" d="m30.6 67.4q0.1 0 0.2 0q0.2 0 0.3 0l8.8 4.9q0.1 0.1 0.2 0.2q0.1 0.1 0.1 0.2q0 0.1-0.1 0.2q-0.1 0.2-0.2 0.2l-8.9 5q-0.1 0.1-0.2 0.1q-0.1 0-0.2-0.1l-8.9-4.7q-0.1-0.1-0.2-0.2q0-0.1 0-0.2q0-0.2 0-0.3q0.1-0.1 0.2-0.2z" />
			</g>
		</g>
		<path id="Layer" class="s67" d="m40.2 72.7q0 0.2-0.1 0.3q-0.1 0.2-0.3 0.2l-8.4 4.6q-0.4 0.2-0.8 0.2q-0.5 0-0.8-0.2l-8.3-4.6q-0.1 0-0.2-0.2q-0.1-0.1-0.1-0.3v-1.2h1.5l7.1-3.9q0.3-0.3 0.8-0.3q0.4 0 0.8 0.2l7.3 4h1.5z" />
		<path id="Layer" class="s68" d="m40.1 71.1q0.1 0.2 0.1 0.3q0 0.2-0.1 0.4q-0.1 0.1-0.3 0.2l-8.4 4.6q-0.4 0.2-0.8 0.2q-0.5 0-0.8-0.2l-8.3-4.6q-0.1-0.1-0.2-0.2q-0.1-0.2-0.1-0.4q0-0.1 0.1-0.3q0.1-0.1 0.2-0.2l8.3-4.6q0.3-0.2 0.8-0.2q0.4 0 0.8 0.2l8.4 4.6q0.2 0.1 0.3 0.2z" />
		<path id="Layer" class="s69" d="m21.3 71.6q-0.1-0.1-0.1-0.3q0-0.2 0.1-0.3q0.1-0.2 0.2-0.3l2.9-1.6l5.4-2.9q0.3-0.3 0.8-0.3q0.4 0 0.8 0.2l8.4 4.6q0.2 0.1 0.3 0.3q0.1 0.1 0.1 0.3q0 0.2-0.1 0.3q-0.1 0.2-0.3 0.2l-0.6 0.4l-2.4 1.3l-5.4 2.9q-0.4 0.2-0.8 0.2q-0.5 0-0.8-0.2l-5.2-2.9l-3.1-1.7q-0.1 0-0.2-0.2z" />
		<path id="Layer" class="s70" d="m26.4 54.1l1.1-0.6c0 0 0.7 2.8 1.1 3.4c0.2 0.2 0.5 0.6 0.4 0.7c-0.1 0.1-0.2 0.7-0.4 0.8c-0.1 0.1-0.4-0.2 0 0.2c0.3 0.3 0.4 0.8 0.3 0.7c-0.2-0.2-0.7-0.6-0.8-0.9c-0.1-0.4-0.2-0.8-0.3-0.6c0 0.2-0.3 0.6-0.3 0.5c-0.1-0.1 0-0.4 0.1-0.7c0.1-0.3 0.2-0.4 0.2-0.5c-0.2-0.8-1.4-3-1.4-3z" />
		<path id="Layer" class="s71" d="m26.9 53.8l0.6-0.3c0 0 0.7 2.8 1.1 3.4c0.2 0.2 0.5 0.6 0.4 0.7c-0.1 0.1-0.2 0.7-0.4 0.8c-0.1 0.1-0.4-0.2 0 0.2c0.3 0.3 0.4 0.8 0.3 0.7c-0.2-0.2-0.7-0.6-0.8-0.9q-0.1-0.2-0.1-0.3c0 0 0.3 0.2 0.3 0.2c0.3 0.1 0.4-0.5 0.4-0.8c0-0.2-0.3-0.4-0.5-0.6c-0.1-0.2 0-0.5 0-0.6c-0.2-0.5-0.8-2.2-1.3-2.5z" />
		<path id="Layer" class="s72" d="m28.3 48.7c0.7 0.4 0.7 1.3 0.2 2.7q-0.4 1.2-0.6 2.4c-0.1 0.4-1.6 1.1-1.8 0.5c-0.4-1.6 0-3 0.4-4c0.5-1.2 1-1.9 1.8-1.6z" />
		<path id="Layer" class="s73" d="m28.5 51.4q-0.4 1.2-0.6 2.4c-0.1 0.2-0.3 0.3-0.5 0.5c0.1-0.5 0.1-1 0.1-1.4c0-0.4 0.4-1.6 0.4-1.9q0.1-0.3 0.1-0.5q0.2-0.3 0.3-0.7q0.3-0.7-0.2-1.1q0.1 0 0.2 0c0.7 0.4 0.7 1.3 0.2 2.7z" />
		<path id="Layer" class="s74" d="m30.7 69c0.1 0.3-0.1 0.7-0.3 0.9c-0.3 0.2-1.7 1.5-2.7 1.1q-0.2-0.1-0.3-0.2c-0.1-0.1 0.1-1 0.2-1.2c0.2-0.2 3-0.8 3.1-0.6z" />
		<path id="Layer" class="s75" d="m29 68.9c0.7-0.3 1.6-0.3 1.7 0c0.1 0.2-0.3 0.7-0.5 0.9c-0.6 0.5-1.9 1.1-2.4 1q-0.2-0.1-0.4-0.2c-0.1-0.2 0-0.8 0.2-0.9q0.6-0.5 1.4-0.8z" />
		<path id="Layer" class="s68" d="m28.7 70.1q0-0.1 0.1 0q0 0 0.1 0q0 0.1 0 0.1q0 0.1 0 0.1q-0.1 0.1-0.1 0.1q-0.1 0-0.1 0q-0.1 0-0.1-0.1q0 0 0-0.1q-0.1 0 0-0.1q0 0 0.1 0zm-0.9-0.6l0.2 0.4v0.1c-0.2 0.2-0.1 0.8-0.1 0.8q-0.2 0-0.3-0.1q-0.1 0-0.2-0.1c0-0.6 0.2-0.9 0.2-0.9z" />
		<path id="Layer" class="s70" d="m29.3 69.2c0 0.1-0.1 0.4-0.6 0.7q-0.4 0.1-0.7 0.1q0-0.1 0-0.2q-0.1 0-0.1-0.1q-0.1 0-0.2 0q0 0-0.1 0q0.1-0.2 0.1-0.4c0-0.4 1.4-0.5 1.6-0.1z" />
		<path id="Layer" class="s76" d="m29.6 62.8c0 1.6-0.4 6.5-0.4 6.5c0 0-0.6 0.5-1.6 0.1c0 0-0.3-3.5-0.4-4.6c-0.1-1.1 0.1-2 0.1-2.2c0.3-0.5 2.4-1.3 2.3 0.2z" />
		<path id="Layer" class="s77" d="m27.7 54.8c0.3-0.2 1.1-0.3 1.9 0.4c1.4 1.2 0 7.1 0 8.1c0 1-2.1 0.9-2.3-0.5c-0.2-0.9-0.5-4.1-0.6-4.7c-0.1-0.6-0.1-2.5 1-3.3z" />
		<path id="Layer" class="s78" d="m33.1 70.3c0.1 0.2-0.1 0.7-0.3 0.9c-0.3 0.2-1.7 1.4-2.7 1.1q-0.2-0.1-0.3-0.2c-0.1-0.2 0.1-1 0.2-1.2c0.2-0.2 3-0.9 3.1-0.6z" />
		<path id="Layer" class="s75" d="m31.4 70.1c0.7-0.2 1.5-0.2 1.6 0c0.2 0.3-0.2 0.8-0.4 0.9c-0.7 0.6-1.9 1.2-2.4 1q-0.2 0-0.4-0.2c-0.1-0.1 0-0.7 0.2-0.8q0.6-0.5 1.4-0.9z" />
		<path id="Layer" class="s68" d="m31.1 71.3q0 0 0.1 0q0 0.1 0.1 0.1q0 0 0 0.1q0 0.1 0 0.1q-0.1 0.1-0.1 0.1q-0.1 0-0.1 0q-0.1-0.1-0.1-0.1q-0.1 0-0.1-0.1q0-0.1 0.1-0.1q0-0.1 0.1-0.1zm-0.9-0.5l0.2 0.3v0.1c-0.2 0.2-0.2 0.9-0.2 0.9q-0.1 0-0.2-0.1q-0.1 0-0.2-0.1c0-0.7 0.2-0.9 0.2-0.9z" />
		<path id="Layer" class="s70" d="m31.7 70.4c0 0.1-0.1 0.5-0.7 0.7q-0.3 0.2-0.6 0.1q0 0 0-0.1q-0.1-0.1-0.1-0.1q-0.1 0-0.2 0q0 0-0.1 0q0.1-0.2 0.1-0.5c0.2 0.1 1.4-0.5 1.6-0.1z" />
		<path id="Layer" class="s79" d="m31.9 64.1c0 1.5-0.4 6.3-0.4 6.3c0 0-0.6 0.8-1.6 0.4c0 0-0.3-3.7-0.4-4.7c-0.1-1.1-0.1-2.2 0-2.4c0.3-0.5 2.5-1.1 2.4 0.4z" />
		<path id="Layer" class="s80" d="m29.6 56.1c0.3-0.2 1.3-0.8 2.1-0.1c1.1 0.9 0.2 7.5 0.2 8.5c0 1.1-2.2 1-2.4-0.4c-0.2-0.9-0.9-4.7-0.9-5.7c0-0.6 0-1.5 1-2.3z" />
		<path id="Layer" class="s81" d="m27 52.3c-0.2-1.5-0.1-3.6 1.3-3.7c0.8 0 3.8 0.7 3.8 2.5c0 1.5-0.2 4.6 0.2 6.5c0 0-4.6 1.1-5.7-0.9c0 0 0.6-2.8 0.4-4.4z" />
		<path id="Layer" class="s70" d="m28.9 45.6q0.2-0.2 0.6-0.2q0.3-0.1 0.6 0.1c0.2 0.1 0.4-0.1 0.5 0.1c0.1 0.2-0.1 0.3 0 0.5q0.1 0.1 0.2 0.3q0 0.1 0 0.3c-0.2 0.7-0.4 1.3-0.8 1.3c0 0.5 0.5 0.9 0.5 0.9q-0.8 0-1.6-0.2c-0.1-1-0.5-1.6-0.2-2.7q0-0.2 0.2-0.4z" />
		<path id="Layer" class="s82" d="m28.5 45c-0.3-0.7 0.9-0.9 1-0.4c0.5-0.4 1.6 0 1.3 1.2c0 0-0.2-0.3-0.4-0.1c0.1 0.5-0.3 0.3-0.3 0.9c0 0.4 0 0.9-0.3 1.2c-0.2 0.2-1 0.2-1 0.2c0 0-0.2-0.3-0.2-0.3c-0.3-0.3-1-0.8-0.8-1.4c-0.5-0.6 0.1-1.3 0.7-1.3z" />
		<path id="Layer" class="s83" d="m38.9 56.2q0.1 0 0.2 0.1l1.8 1q0.1 0.1 0.2 0.2q0.1 0.1 0.1 0.2v4.8q0 0.2-0.1 0.3q-0.1 0.1-0.2 0.1l-7.8 4.6q-0.1 0-0.3 0q-0.1 0-0.2 0l-1.8-1.1q-0.1 0-0.2-0.1q0-0.2 0-0.3v-4.8q0-0.1 0-0.2q0.1-0.1 0.2-0.2l7.9-4.5q0.1-0.1 0.2-0.1z" />
		<path id="Layer" class="s75" d="m40 56.8l-8 4.6q-0.1 0.1-0.2 0.2q-0.1 0.2-0.1 0.4v4.9h-0.1v-5q0-0.2 0.1-0.3q0.1-0.2 0.2-0.3l8-4.6z" />
		<path id="Layer" class="s84" d="m41 62.9l-7.8 4.5q0 0-0.1 0q-0.1 0-0.1 0q-0.1-0.1-0.1-0.1q-0.1-0.1-0.1-0.1v-4.8q0-0.1 0.1-0.1q0-0.1 0.1-0.1l7.8-4.5q0-0.1 0.1-0.1q0.1 0 0.1 0.1q0.1 0 0.1 0.1q0.1 0 0.1 0.1v4.8q0 0-0.1 0.1q0 0-0.1 0.1z" />
		<path id="Layer" class="s85" d="m34.8 59.1l-0.3 1.1l-0.5-0.3l0.5-0.9z" />
		<path id="Layer" class="s85" d="m37.4 58.5l-0.4-0.3l-0.3-0.5l0.4 0.3z" />
		<path id="Layer" class="s85" d="m37 57.9l-2.2 1.2l-0.3-0.1l2.2-1.3z" />
		<path id="Layer" class="s86" d="m37.6 58.4l-0.2 0.1l-0.5-0.4l-2 1.1l-0.2 0.9l-0.2 0.1l0.3-1.1l2.2-1.2z" />
		<path id="Layer" class="s87" d="m39.2 59.5l0.6 0.4l-0.4 1l-0.7-0.3z" />
		<path id="Layer" class="s88" d="m37.5 62.5l0.7-0.4l0.4 1.1l-0.7 0.4z" />
		<path id="Layer" class="s89" d="m36.2 63.4l-0.5 1.1l-1.7-0.8l0.5-1.2z" />
		<path id="Layer" class="s90" d="m29 48.2c0.4 0 0.7 0.1 1.4 0.4q0.1 0.2 0.2 0.3q0.1 0.2 0.1 0.4l-2.1-0.7l0.2-0.3q0 0 0.1-0.1q0 0 0.1 0z" />
		<path id="Layer" class="s70" d="m35.3 57.1c0.1 0.1 0.4 0 0.5 0.1q0.4 0.2 0.8 0.4c0.1 0-0.1 0.1-0.4 0.1c-0.2-0.1-0.2-0.1 0.1 0.2c0.3 0.2 0.5 0.9 0.6 1.1c0 0.1-0.4-0.2-0.5-0.6c-0.2-0.4-0.1 0.3-0.2 0.4c-0.1 0-0.6 0.1-0.8 0.2c-0.1 0-0.3-0.6-0.5-0.8c-0.3-0.6-2.8-2.6-2.8-2.6l0.9-0.9c0 0 1.6 2 2.3 2.4z" />
		<path id="Layer" class="s71" d="m34.4 57.2q0.4 0.3 0.7 0.7c0.1 0.1 0.2 0.6 0.4 0.7c0.2 0.1 0.6-0.2 0.7-0.5c0-0.1-0.1-0.4-0.1-0.4q0.1 0.1 0.2 0.2c0.3 0.2 0.5 0.9 0.6 1.1c0 0.1-0.4-0.2-0.5-0.6c-0.2-0.4-0.1 0.3-0.2 0.4c-0.1 0-0.6 0.1-0.8 0.2c-0.1 0-0.3-0.6-0.5-0.8c-0.3-0.6-2.8-2.6-2.8-2.6l0.5-0.5c0 0.6 1.4 1.8 1.8 2.1z" />
		<path id="Layer" class="s91" d="m30.9 49.9c0.8 0 1.2 0.7 1.5 2.2q0.3 1.3 0.7 2.5c0.1 0.3-0.8 1.7-1.3 1.2c-1.1-1.1-1.5-2.6-1.6-3.6c-0.2-1.3-0.2-2.2 0.7-2.3z" />
		<path id="Layer" class="s73" d="m32.4 52.1q0.3 1.3 0.7 2.5c0.1 0.1 0 0.3-0.2 0.6c-0.1-0.5-0.4-0.9-0.6-1.3c-0.2-0.3-0.5-1.5-0.6-1.8q-0.1-0.3-0.1-0.5q0-0.4-0.1-0.7q-0.2-0.7-0.8-0.9q0.1-0.1 0.2-0.1c0.8 0 1.2 0.7 1.5 2.2z" />
		<path id="Layer" class="s92" d="m29.2 44c0.8-0.4 1.5 0.1 1.3 1.1c-0.1 0.9-0.9 2-1.8 2.3c-0.8 0.4-1.5 0-1.3-1c0.1-0.9 0.9-2 1.8-2.4z" />
		<path id="Layer" class="s93" d="m29.5 44.2q0.3 0.2 0.3 0.8q-0.1 0.6-0.5 1q-0.3 0.5-0.8 0.8c-0.5 0.1-0.8 0-1-0.2q-0.1-0.3-0.3-0.6q-0.1-0.2-0.1-0.5q0.1-0.5 0.4-0.9q0.3-0.4 0.7-0.6q0.3-0.1 0.6 0q0.4 0.1 0.7 0.2z" />
		<path id="Layer" class="s94" d="m27.8 46.5q-0.1 0-0.3 0c-0.1-0.1-0.1-0.1-0.1-0.2q0.3 0.1 0.6 0q0.5-0.2 0.8-0.7q0.3-0.4 0.4-1q0.1-0.3-0.1-0.5c0-0.1 0.1 0 0.1 0q0.2 0.2 0.2 0.3q0.1 0.2 0 0.4q0 0.5-0.4 1q-0.3 0.4-0.8 0.7q-0.2 0-0.4 0z" />
		<path id="Layer" class="s95" d="m26 57.5l9 4.9l-16 8.8l-8.8-5z" />
		<g id="Layer">
			<g id="Layer">
				<path id="Layer" class="s43" d="m26.9 56.9q0.2 0.3 0.2 0.7q0 0.5-0.2 0.8q-0.2 0.4-0.6 0.6l-15.4 8.4q-0.3 0.1-0.7 0.1q-0.4 0-0.7-0.1l-7.9-4.5q-0.3-0.2-0.6-0.6q-0.2-0.3-0.2-0.7q0-0.4 0.2-0.8q0.2-0.3 0.6-0.6l15.4-8.4q0.3-0.2 0.7-0.2q0.4 0 0.7 0.2l7.9 4.5q0.4 0.2 0.6 0.6z" />
			</g>
			<g id="Layer">
				<path id="Layer" class="s44" d="m17.4 51.7q0.2 0 0.3 0q0.4 0 0.7 0.2l7.9 4.4q0.3 0.3 0.5 0.6q0.2 0.3 0.2 0.7q0 0.4-0.2 0.8q-0.2 0.3-0.5 0.5l-15.4 8.4q-0.1 0.1-0.3 0.1q-0.2 0.1-0.4 0.1q-0.4 0-0.7-0.2l-7.9-4.4q-0.3-0.2-0.5-0.6q-0.2-0.3-0.2-0.7q0-0.4 0.2-0.8q0.2-0.3 0.5-0.5l15.4-8.5q0.2-0.1 0.4-0.1z" />
			</g>
			<g id="Layer">
				<path id="Layer" class="s45" d="m17.4 51.7q0.2 0 0.3 0q0.4 0 0.7 0.2l7.9 4.5q0.3 0.2 0.5 0.5q0.2 0.4 0.2 0.7q0 0.4-0.2 0.8q-0.2 0.3-0.5 0.5l-15.4 8.4q-0.1 0-0.3 0.1q-0.2 0.1-0.4 0q-0.4 0-0.7-0.2l-7.8-4.4q-0.4-0.2-0.6-0.5q-0.2-0.3-0.2-0.7q0-0.4 0.2-0.7q0.2-0.4 0.5-0.6l15.4-8.4q0.2-0.1 0.4-0.2z" />
			</g>
			<g id="Layer">
				<path id="Layer" class="s46" d="m17.5 51.8q0.1 0 0.3 0q0.3 0 0.6 0.2l7.8 4.4q0.4 0.2 0.5 0.5q0.2 0.4 0.2 0.7q0 0.4-0.2 0.7q-0.1 0.4-0.5 0.6l-15.3 8.3q-0.2 0.1-0.3 0.1q-0.2 0.1-0.4 0.1q-0.4 0-0.7-0.2l-7.8-4.4q-0.3-0.2-0.5-0.5q-0.2-0.3-0.2-0.7q0-0.4 0.2-0.7q0.1-0.3 0.5-0.5l15.3-8.5q0.2-0.1 0.5-0.1z" />
			</g>
			<g id="Layer">
				<path id="Layer" class="s47" d="m17.5 51.8q0.1 0 0.3 0q0.3 0.1 0.7 0.2l7.7 4.5q0.3 0.2 0.5 0.5q0.2 0.3 0.2 0.6q0 0.4-0.2 0.7q-0.2 0.3-0.5 0.5l-15.3 8.4q-0.2 0-0.3 0.1q-0.2 0.1-0.4 0q-0.4 0-0.7-0.2l-7.8-4.4q-0.3-0.1-0.5-0.4q-0.2-0.4-0.2-0.7q0-0.4 0.2-0.7q0.2-0.3 0.5-0.5l15.4-8.4q0.2-0.2 0.4-0.2z" />
			</g>
			<g id="Layer">
				<path id="Layer" class="s48" d="m17.5 51.9q0.1 0 0.3 0q0.4 0 0.7 0.2l7.7 4.4q0.3 0.2 0.5 0.5q0.1 0.3 0.1 0.6q0 0.4-0.1 0.7q-0.2 0.3-0.5 0.5l-15.3 8.3q-0.2 0.1-0.3 0.1q-0.2 0.1-0.4 0.1q-0.4 0-0.7-0.2l-7.8-4.4q-0.3-0.2-0.5-0.5q-0.1-0.3-0.1-0.6q0-0.4 0.1-0.7q0.2-0.3 0.5-0.5l15.4-8.4q0.2-0.1 0.4-0.1z" />
			</g>
			<g id="Layer">
				<path id="Layer" class="s49" d="m17.5 51.9q0.2 0 0.3 0q0.4 0.1 0.7 0.3l7.7 4.4q0.2 0.1 0.4 0.4q0.2 0.3 0.2 0.6q0 0.4-0.2 0.7q-0.1 0.3-0.4 0.4l-15.3 8.4q-0.2 0-0.3 0.1q-0.2 0.1-0.4 0q-0.4 0-0.7-0.2l-7.8-4.3q-0.2-0.2-0.4-0.5q-0.2-0.3-0.2-0.6q0-0.4 0.2-0.6q0.1-0.3 0.4-0.5l15.4-8.4q0.2-0.2 0.4-0.2z" />
			</g>
			<g id="Layer">
				<path id="Layer" class="s50" d="m17.6 52q0.1 0 0.2 0q0.4 0 0.7 0.2l7.6 4.4q0.3 0.2 0.5 0.4q0.1 0.3 0.1 0.6q0 0.4-0.1 0.6q-0.2 0.3-0.5 0.5l-15.2 8.3q-0.2 0.1-0.3 0.1q-0.2 0.1-0.5 0.1q-0.3-0.1-0.6-0.2l-7.7-4.4q-0.3-0.1-0.5-0.4q-0.1-0.3-0.1-0.6q0-0.3 0.1-0.6q0.2-0.3 0.4-0.5l15.4-8.4q0.2-0.1 0.5-0.1z" />
			</g>
			<g id="Layer">
				<path id="Layer" class="s51" d="m17.6 52q0.1 0 0.2 0q0.4 0.1 0.7 0.3l7.6 4.3q0.3 0.2 0.4 0.5q0.2 0.2 0.2 0.5q0 0.3-0.2 0.6q-0.1 0.3-0.4 0.4l-15.3 8.4q-0.1 0-0.3 0.1q-0.2 0.1-0.4 0q-0.3 0-0.6-0.2l-7.7-4.3q-0.3-0.2-0.4-0.4q-0.2-0.3-0.2-0.6q0-0.3 0.2-0.6q0.1-0.3 0.4-0.4l15.3-8.5q0.2-0.1 0.5-0.1z" />
			</g>
			<g id="Layer">
				<path id="Layer" class="s52" d="m17.6 52.1q0.1 0 0.3 0q0.3 0.1 0.6 0.3l7.6 4.3q0.2 0.1 0.4 0.4q0.1 0.2 0.1 0.5q0 0.3-0.1 0.6q-0.1 0.2-0.4 0.4l-15.3 8.3q-0.1 0.1-0.3 0.2q-0.2 0-0.4 0q-0.3-0.1-0.6-0.3l-7.7-4.3q-0.2-0.1-0.4-0.4q-0.1-0.2-0.1-0.5q0-0.3 0.1-0.6q0.1-0.2 0.4-0.4l15.4-8.4q0.2-0.1 0.4-0.1z" />
			</g>
			<g id="Layer">
				<path id="Layer" class="s53" d="m17.6 52.1q0.1 0 0.3 0.1q0.3 0 0.6 0.2l7.6 4.3q0.2 0.2 0.4 0.4q0.1 0.3 0.1 0.5q0 0.3-0.1 0.6q-0.2 0.2-0.4 0.4l-15.3 8.3q-0.1 0-0.3 0.1q-0.2 0.1-0.4 0q-0.3 0-0.6-0.2l-7.7-4.3q-0.2-0.2-0.4-0.4q-0.1-0.2-0.1-0.5q0-0.3 0.1-0.5q0.2-0.3 0.4-0.4l15.4-8.5q0.2-0.1 0.4-0.1z" />
			</g>
			<g id="Layer">
				<path id="Layer" class="s54" d="m17.6 52.2q0.2 0 0.3 0q0.3 0.1 0.7 0.3l7.5 4.3q0.2 0.1 0.3 0.3q0.1 0.3 0.1 0.5q0 0.3-0.1 0.5q-0.1 0.3-0.3 0.4l-15.3 8.3q-0.1 0.1-0.3 0.2q-0.2 0-0.4 0q-0.3-0.1-0.6-0.3l-7.6-4.3q-0.3-0.1-0.4-0.3q-0.1-0.3-0.1-0.5q-0.1-0.3 0.1-0.5q0.1-0.3 0.3-0.4l15.4-8.4q0.2-0.2 0.4-0.1z" />
			</g>
			<g id="Layer">
				<path id="Layer" class="s55" d="m17.7 52.2q0.1 0 0.2 0.1q0.4 0.1 0.7 0.2l7.4 4.3q0.2 0.1 0.4 0.4q0.1 0.2 0.1 0.4q0 0.3-0.1 0.5q-0.1 0.2-0.4 0.4l-15.2 8.3q-0.1 0-0.3 0.1q-0.2 0.1-0.4 0q-0.3 0-0.6-0.2l-7.6-4.3q-0.2-0.1-0.4-0.3q-0.1-0.3-0.1-0.5q0-0.3 0.1-0.5q0.1-0.2 0.4-0.4l15.3-8.4q0.2-0.1 0.5-0.1z" />
			</g>
			<g id="Layer">
				<path id="Layer" class="s56" d="m17.7 52.3c0 0 0.2 0 0.2 0q0.4 0.1 0.7 0.3l7.4 4.3q0.2 0.1 0.3 0.3q0.2 0.2 0.2 0.4q0 0.3-0.2 0.5q-0.1 0.2-0.3 0.3l-15.2 8.3q-0.2 0.1-0.3 0.2q-0.2 0-0.4 0q-0.3-0.1-0.6-0.3l-7.6-4.2q-0.2-0.2-0.3-0.4q-0.2-0.2-0.2-0.4q0-0.3 0.2-0.5q0.1-0.2 0.3-0.3l15.4-8.5q0.2-0.1 0.4 0z" />
			</g>
			<g id="Layer">
				<path id="Layer" class="s57" d="m17.7 52.3c0 0 0.2 0.1 0.3 0.1q0.3 0.1 0.6 0.3l7.4 4.2q0.2 0.1 0.3 0.3q0.1 0.2 0.1 0.4q0 0.3-0.1 0.5q-0.1 0.2-0.3 0.3l-15.2 8.3c-0.1 0-0.3 0.1-0.3 0.1q-0.2 0.1-0.4 0q-0.3-0.1-0.6-0.2l-7.6-4.3q-0.2-0.1-0.3-0.3q-0.1-0.2-0.1-0.4q0-0.3 0.1-0.5q0.1-0.2 0.3-0.3l15.4-8.4q0.2-0.1 0.4-0.1z" />
			</g>
			<g id="Layer">
				<path id="Layer" class="s58" d="m17.7 52.4c0.1 0 0.2 0 0.3 0q0.3 0.2 0.6 0.3l7.4 4.2q0.1 0.1 0.3 0.3q0.1 0.2 0.1 0.4q0 0.3-0.1 0.4q-0.2 0.2-0.3 0.3l-15.2 8.3c-0.1 0-0.3 0.2-0.3 0.2q-0.2 0.1-0.4 0q-0.3-0.1-0.7-0.3l-7.5-4.2q-0.1-0.1-0.3-0.3q-0.1-0.2-0.1-0.4q0-0.2 0.1-0.4q0.1-0.2 0.3-0.3l15.4-8.5q0.2-0.1 0.4 0z" />
			</g>
			<g id="Layer">
				<path id="Layer" class="s59" d="m17.5 52.4q0.1 0 0.2 0c0.1 0 0.3 0.1 0.3 0.1q0.3 0.1 0.6 0.3l7.3 4.2q0.2 0.1 0.3 0.3q0.1 0.1 0.1 0.3q0 0.2-0.1 0.4q-0.1 0.2-0.3 0.3l-15.1 8.3c-0.1 0-0.3 0.1-0.3 0.1q-0.1 0.1-0.2 0.1q-0.1 0-0.2-0.1q-0.4-0.1-0.7-0.2l-7.4-4.3q-0.2-0.1-0.3-0.2q-0.1-0.2-0.1-0.4q0-0.2 0.1-0.4q0.1-0.2 0.3-0.3l15.3-8.4q0.1-0.1 0.2-0.1z" />
			</g>
			<g id="Layer">
				<path id="Layer" class="s60" d="m17.6 52.4q0.1 0 0.2 0.1c0 0 0.2 0.1 0.2 0.1q0.3 0.1 0.6 0.2l7.3 4.2q0.2 0.1 0.3 0.3q0.1 0.2 0.1 0.3q0 0.2-0.1 0.4q-0.1 0.2-0.3 0.3l-15.2 8.2c0 0-0.2 0.2-0.2 0.2q-0.1 0-0.2 0q-0.1 0-0.2 0q-0.4-0.1-0.7-0.3l-7.4-4.2q-0.2-0.1-0.3-0.3q-0.1-0.1-0.1-0.3q0-0.2 0.1-0.4q0.1-0.1 0.3-0.2l15.4-8.5q0 0 0.2-0.1z" />
			</g>
			<g id="Layer">
				<path id="Layer" class="s61" d="m17.6 52.5q0.1 0 0.2 0c0 0 0.2 0.1 0.2 0.1q0.3 0.1 0.6 0.3l7.3 4.2q0.1 0.1 0.2 0.2q0.1 0.2 0.1 0.3q0 0.2-0.1 0.4q-0.1 0.1-0.2 0.2l-15.2 8.3c0 0-0.2 0.1-0.2 0.1q-0.1 0.1-0.2 0.1q-0.1 0-0.2-0.1q-0.4-0.1-0.7-0.3l-7.4-4.1q-0.1-0.1-0.2-0.3q-0.1-0.1-0.1-0.3q0-0.2 0.1-0.4q0-0.1 0.2-0.2l15.4-8.4q0.1-0.1 0.2-0.1z" />
			</g>
			<g id="Layer">
				<path id="Layer" class="s62" d="m17.6 52.5q0.1 0 0.2 0.1c0 0 0.2 0.1 0.2 0.1c0.1 0 0.6 0.3 0.7 0.3l7.2 4.1q0.1 0.1 0.2 0.2q0.1 0.2 0.1 0.3q0 0.2-0.1 0.4q-0.1 0.1-0.2 0.2l-15.2 8.2c0 0-0.2 0.2-0.3 0.2q0 0-0.2 0q-0.1 0-0.2 0c0 0-0.5-0.3-0.6-0.3l-7.4-4.2q-0.1-0.1-0.2-0.2q-0.1-0.2-0.1-0.3q0-0.2 0.1-0.3q0.1-0.2 0.2-0.3l15.4-8.4q0.1-0.1 0.2-0.1z" />
			</g>
			<g id="Layer">
				<path id="Layer" class="s63" d="m17.6 52.6q0.1 0 0.2 0c0 0 0.3 0.1 0.3 0.1c0 0 0.5 0.3 0.6 0.3l7.1 4.1q0.2 0.1 0.3 0.3q0 0.1 0 0.2q0 0.2 0 0.3q-0.1 0.2-0.3 0.2l-15.1 8.3c0 0-0.3 0.1-0.3 0.1q-0.1 0.1-0.2 0.1q-0.1 0-0.2-0.1c0 0-0.5-0.3-0.6-0.3l-7.3-4.1q-0.2-0.1-0.3-0.2q0-0.2 0-0.3q0-0.2 0-0.3q0.1-0.1 0.2-0.2l15.4-8.5q0.1 0 0.2 0z" />
			</g>
			<g id="Layer">
				<path id="Layer" class="s64" d="m17.6 52.6q0.2 0 0.3 0.1c0 0 0.2 0.1 0.2 0.1c0 0 0.6 0.3 0.6 0.3l7.1 4.1q0.1 0.1 0.2 0.2q0.1 0.1 0.1 0.2q0 0.2-0.1 0.3q-0.1 0.1-0.2 0.2l-15.1 8.2c0 0-0.3 0.2-0.3 0.2q-0.1 0-0.2 0q-0.1 0-0.2 0c0 0-0.6-0.3-0.6-0.3l-7.3-4.2q-0.1 0-0.2-0.2q-0.1-0.1-0.1-0.2q0-0.2 0.1-0.3q0.1-0.1 0.2-0.2l15.3-8.4q0.1-0.1 0.2-0.1z" />
			</g>
			<g id="Layer">
				<path id="Layer" class="s65" d="m17.7 52.7q0.1 0 0.2 0c0 0 0.2 0.1 0.2 0.1c0 0 0.6 0.4 0.6 0.4l7.1 4q0.1 0.1 0.2 0.2q0 0.1 0 0.2q0 0.2 0 0.3q-0.1 0.1-0.2 0.2l-15.1 8.2c0 0-0.3 0.1-0.3 0.1q-0.1 0.1-0.2 0.1q-0.1 0-0.2-0.1c0 0-0.6-0.3-0.6-0.3l-7.3-4.1q-0.1-0.1-0.2-0.2q0-0.1 0-0.2q0-0.2 0-0.3q0.1-0.1 0.2-0.1l15.4-8.5q0.1 0 0.2 0z" />
			</g>
			<g id="Layer">
				<path id="Layer" class="s66" d="m25.8 57.3q0.1 0 0.1 0.1q0.1 0.1 0.1 0.2q0 0.2-0.1 0.3q0 0.1-0.1 0.1l-15.4 8.4q-0.1 0-0.2 0q-0.1 0-0.2 0l-7.9-4.5q-0.1 0-0.1-0.1q-0.1-0.1-0.1-0.2q0-0.1 0.1-0.2q0-0.1 0.1-0.2l15.4-8.4q0.1-0.1 0.2-0.1q0.1 0 0.2 0.1z" />
			</g>
		</g>
		<path id="Layer" class="s67" d="m1.9 60.5h1.3l14-7.7q0.3-0.1 0.7-0.1q0.4 0 0.8 0.2l6.2 3.4h1.3v1.1q0 0.2-0.1 0.3q0 0.1-0.2 0.2l-14.8 8.2q-0.3 0.2-0.7 0.2q-0.4 0-0.7-0.2l-7.5-4.1q-0.1 0-0.2-0.1q-0.1-0.2-0.1-0.3z" />
		<path id="Layer" class="s68" d="m2.2 60l15-8.3q0.3-0.1 0.7-0.1q0.4 0 0.8 0.1l7.2 4.1q0.2 0.1 0.2 0.2q0.1 0.1 0.1 0.3q0 0.2-0.1 0.3q0 0.1-0.2 0.2l-14.8 8.2q-0.3 0.2-0.7 0.2q-0.4 0-0.7-0.2l-7.5-4.1q-0.1 0-0.2-0.2q-0.1-0.1-0.1-0.2q0-0.2 0.1-0.3q0.1-0.2 0.2-0.2z" />
		<path id="Layer" class="s96" d="m25.9 56.7l-2.6 1.5l-12.2 6.7q-0.3 0.2-0.7 0.2q-0.4 0-0.7-0.2l-4.8-2.6l-2.1-1.2l-0.6-0.3q-0.1-0.1-0.2-0.2q-0.1-0.1-0.1-0.3q0-0.1 0.1-0.3q0.1-0.1 0.2-0.2l15-8.2q0.3-0.2 0.7-0.2q0.4 0 0.8 0.2l4.7 2.7l2.5 1.4q0.2 0.1 0.2 0.2q0.1 0.1 0.1 0.3q0 0.1-0.1 0.3q0 0.1-0.2 0.2z" />
		<path id="Layer" class="s97" d="m20.3 57l-9.2 5.3l-5.2-3.2l8.9-5.1z" />
		<path id="Layer" class="s67" d="m9.2 32.2q0-0.5 0.2-1q0.3-0.4 0.7-0.6l2.7-1.6q0.2-0.1 0.5-0.1q0.3 0 0.5 0.1q0.2 0.1 0.4 0.3q0.1 0.3 0.1 0.5v11.6h-0.6v-11.6q0-0.1 0-0.2q-0.1-0.1-0.2-0.1q-0.1-0.1-0.2-0.1q-0.1 0-0.2 0.1l-2.7 1.5q-0.4 0.2-0.5 0.5q-0.2 0.3-0.2 0.7v10.3h-0.5z" />
		<path id="Layer" class="s98" d="m9.2 33.8q-0.1 0-0.2-0.1q0-0.1-0.1-0.2q0-0.1 0-0.2v-1.1q0-0.6 0.3-1.1q0.3-0.5 0.7-0.8l2.8-1.5q0.3-0.2 0.6-0.2q0.3 0 0.6 0.2q0.3 0.1 0.5 0.4q0.2 0.3 0.2 0.6v1.1q0 0.1-0.1 0.2q0 0.1-0.1 0.2q-0.1 0.1-0.2 0.1q-0.1 0.1-0.2 0.1q-0.1 0-0.2-0.1q-0.1 0-0.2-0.1q0-0.1-0.1-0.2q0-0.1 0-0.2v-1.1q0 0 0 0q-0.1-0.1-0.1-0.1q0 0-0.1 0q0 0-0.1 0l-2.7 1.6q-0.3 0.1-0.4 0.3q-0.1 0.3-0.1 0.6v1.1q0 0.1-0.1 0.2q0 0.1-0.1 0.2q-0.1 0.1-0.2 0.1q-0.1 0.1-0.2 0.1q-0.1 0-0.2-0.1zm3.6 25.4c0.5 0.3 0.9 0.9 0.9 1.4q0 0.2 0 0.4q-0.1 0.1-0.3 0.2l-0.6 0.3q0 0 0 0q-0.1 0-0.1 0c-0.2-0.2-1-1.2-1-1.7c0-0.5 0.6-0.8 1.1-0.6z" />
		<path id="Layer" class="s99" d="m12.2 59.6c0.5 0.3 0.9 0.9 0.9 1.4c0 0.5-0.4 0.7-0.9 0.5c-0.6-0.3-1-0.9-1-1.4c0-0.5 0.4-0.8 1-0.5z" />
		<path id="Layer" class="s100" d="m12.2 60q0.2 0.1 0.3 0.3q0.1 0.2 0.2 0.5c0 0.3-0.3 0.4-0.5 0.2q-0.2-0.1-0.4-0.3q-0.1-0.2-0.1-0.4c0-0.3 0.2-0.4 0.5-0.3z" />
		<path id="Layer" class="s67" d="m11.8 60.6q0-0.1 0-0.1l-0.4-2.4l1.4 0.4l-0.2 2.2q0 0-0.1 0.1q0 0-0.1 0q0 0 0 0q-0.1 0-0.1 0l-0.4-0.2q-0.1 0-0.1 0z" />
		<path id="Layer" class="s98" d="m20.1 54.9c0.5 0.3 0.9 0.9 0.9 1.4q0.1 0.2 0 0.4q-0.1 0.1-0.3 0.2l-0.6 0.3q0 0.1 0 0q0 0-0.1 0c-0.1-0.2-1-1.2-1-1.7c0-0.5 0.6-0.8 1.1-0.6z" />
		<path id="Layer" class="s101" d="m19.5 55.3c0.5 0.3 0.9 0.9 0.9 1.4c0 0.5-0.4 0.7-0.9 0.5c-0.5-0.3-1-0.9-1-1.4c0-0.5 0.5-0.7 1-0.5z" />
		<path id="Layer" class="s102" d="m19.5 55.7q0.2 0.2 0.3 0.4q0.1 0.2 0.2 0.4c0 0.3-0.3 0.4-0.5 0.2q-0.2-0.1-0.4-0.3q-0.1-0.2-0.1-0.4c0-0.3 0.2-0.4 0.5-0.3z" />
		<path id="Layer" class="s67" d="m19.1 56.3q0-0.1 0-0.1l-0.4-2.4l1.5 0.2l-0.3 2.4q0 0.1-0.1 0.1q0 0 0 0q-0.1 0.1-0.1 0.1q-0.1-0.1-0.1-0.1l-0.4-0.2q0 0-0.1 0z" />
		<path id="Layer" class="s75" d="m8.9 41.1l6.4-3.6c0.6-0.4 1.2-0.5 1.6-0.2c0.4 0.2 3.4 1.9 3.9 2.2c0.3 0.2 0.5 0.6 0.5 1.1v11.6c0 1.2-1 2.7-2.2 3.4l-6.3 3.7c-0.6 0.4-1.2 0.4-1.6 0.3c-0.4-0.2-3.4-2-3.9-2.3c-0.4-0.2-0.6-0.5-0.6-1.1v-11.6c0-1.2 1-2.8 2.2-3.5z" />
		<path id="Layer" class="s103" d="m9.9 58.8q-0.2 0-0.3-0.1v-12.3c0-1.3 1.1-3 2.4-3.8l6.8-3.9q0.2-0.1 0.3-0.2q0.2 0.1 0.3 0.2q-0.3 0.1-0.5 0.2l-6.8 3.9c-1.2 0.7-2.2 2.3-2.2 3.6v12.3q0 0.1 0 0.1z" />
		<path id="Layer" class="s103" d="m7.6 57.5q-0.1 0-0.2-0.1v-12.3c0-1.3 1.1-3 2.4-3.8l6.7-3.9q0.2-0.1 0.4-0.1q0.1 0 0.2 0.1q-0.2 0.1-0.5 0.2l-6.7 3.9c-1.3 0.8-2.3 2.4-2.3 3.6v12.3q0 0.1 0 0.1z" />
		<path id="Layer" class="s104" d="m10.6 58.4v-11.6c0-1.2 1-2.8 2.2-3.4l6.3-3.7c1.2-0.7 2.2-0.3 2.2 0.9v11.6c0 1.2-1 2.7-2.2 3.4l-6.3 3.7c-1.2 0.7-2.2 0.3-2.2-0.9z" />
		<path id="Layer" class="s105" d="m12 57.1v-10.5q0 0 0-0.1q0.1-0.1 0.1-0.1l0.5-0.3q0.2-0.1 0.2 0.1v10.4q0 0.1-0.1 0.2q0 0-0.1 0.1l-0.5 0.2q-0.1 0.1-0.1 0z" />
		<path id="Layer" class="s106" d="m14.2 55.7v-10.5q0-0.1 0.1-0.1q0-0.1 0.1-0.1l0.5-0.3q0.1-0.1 0.1 0.1v10.4q0 0.1 0 0.1q-0.1 0.1-0.1 0.2l-0.5 0.2q-0.2 0.1-0.2 0z" />
		<path id="Layer" class="s107" d="m16.5 54.2v-10.4q0-0.1 0-0.1q0.1-0.1 0.2-0.2l0.4-0.2q0.2-0.1 0.2 0v10.5q0 0.1-0.1 0.1q0 0.1-0.1 0.1l-0.4 0.3q-0.2 0.1-0.2-0.1z" />
		<path id="Layer" class="s108" d="m18.7 52.8v-10.4q0.1-0.1 0.1-0.2q0 0 0.1-0.1l0.5-0.3q0.1 0 0.2 0.1v10.5q-0.1 0-0.1 0.1q0 0.1-0.1 0.1l-0.5 0.3q-0.1 0.1-0.2-0.1z" />
		<path id="Layer" class="s75" d="m16.6 39.2q0 0 0.1 0q-0.1 0.1-0.1 0.1q0 0 0 0l-4.3 2.5q0 0 0 0q-0.1 0-0.1 0l-0.6-0.3q0 0 0-0.1q0 0 0 0q0 0 0-0.1q0 0 0 0l4.3-2.5q0 0 0.1 0q0 0 0 0l0.6 0.4q0 0 0 0z" />
		<path id="Layer" class="s109" d="m12.3 41.7q-0.1 0-0.2-0.1l-0.2-0.1c-0.1-0.1-0.1-0.4 0-0.5l0.2 0.2c2.1-2.4 4.1-2.2 4.1-2.2c0.1 0.1 0.2 0.3 0.1 0.4q-0.1 0-0.1 0c-1.3 0.3-2.4 0.8-3.7 2.1l-0.1 0.1q-0.1 0.1-0.1 0.1z" />
		<path id="Layer" class="s67" d="m12.3 41.4q-0.1 0-0.2 0l-0.2-0.2q0 0 0 0q-0.1 0-0.1-0.1q0 0 0.1-0.1q0 0 0 0l0.2-0.1c1.1-1.2 2.1-2.1 3.5-2.1q0 0 0 0h0.2q0 0 0 0q0.1 0 0.1 0l0.3 0.2q0 0 0.1 0q0 0 0 0.1q0 0 0 0q-0.1 0.1-0.1 0.1c-1.8 0.3-2.7 1-3.7 2.1l-0.1 0.1q-0.1 0-0.1 0z" />
		<path id="Layer" class="s110" d="m57.6 74.2l12.9 7.4l-3.8 1.7l-11.5-6.6z" />
		<path id="Layer" class="s75" d="m56.7 75l1.2 0.3c0 0 0 0.5 0 0.7c0 0.1-0.1 0.5-0.5 0.4q-0.6-0.1-1.2 0.1q-0.5 0.1-0.9 0c-0.4-0.1-0.8-0.4-0.5-0.7c0.3-0.3 1.4-0.2 1.8-0.4c0.2 0 0.1-0.4 0.1-0.4z" />
		<path id="Layer" class="s111" d="m59.3 69c0 0.3-0.4 3.5-0.9 6.1c-0.1 0.8-1.8 0.2-1.8-0.2c0-0.6 0.4-5.2 0.6-6.5c0.2-0.9 2.1-0.5 2.1 0.6z" />
		<path id="Layer" class="s75" d="m59.3 69c0 0.3-0.4 3.5-0.9 6.1c0 0.4-0.4 0.4-0.8 0.4q0.1-0.1 0.2-0.1q0.1-0.1 0.1-0.3c0.5-2.6 0.9-5.8 0.9-6.1c0-0.6-0.5-1-1.1-1.1c0.6-0.1 1.6 0.3 1.6 1.1zm3.1 9.3q0 0.3 0 0.5q-0.1 0.2-0.2 0.3c-0.3 0.4-0.5 0.5-0.9 0.4c-0.3-0.2-0.3-0.7-0.3-1q0.1-0.5 0.1-1q0-0.1 0.1-0.2l1-0.2q0.1 0.2 0.1 0.4c0.1 0.2 0.1 0.7 0.1 0.8z" />
		<path id="Layer" class="s112" d="m62.3 70.8c0.1 0.3 0.3 3.5 0.3 6.2c0 0.8-1.8 0.5-1.8 0.2c-0.2-0.6-0.6-5.2-0.6-6.6c0-0.8 1.9-0.9 2.1 0.2z" />
		<path id="Layer" class="s75" d="m62.3 70.8c0.1 0.3 0.3 3.5 0.3 6.2c0 0.4-0.4 0.5-0.8 0.5q0.1 0 0.1-0.1q0.1-0.1 0.1-0.2c0-2.8-0.2-6.1-0.3-6.4q-0.1-0.3-0.3-0.5q-0.2-0.2-0.5-0.3c0.6-0.1 1.3 0.2 1.4 0.8z" />
		<path id="Layer" class="s113" d="m59.2 55.8c0.2 0.7-0.1 1.6-1.3 2.8c-1.2 1.2-1.6 1.5-2.1 1.4c-0.4 0-0.8-0.6 0.1-1.7c0.8-1.2 1.5-2.3 1.6-2.5c0.7-0.8 1.5-0.5 1.7 0z" />
		<path id="Layer" class="s114" d="m60.3 63.5c0 0.8-0.2 1.8-0.4 2.5c-0.1 0.8-0.5 2.9-0.7 3.6c-0.2 0.9-2.1 0.6-2.1-0.6c0-0.4-0.1-4.3 0.4-7.4c0.2-0.8 2.8 1.5 2.8 1.9z" />
		<path id="Layer" class="s75" d="m59.6 66c0.2-0.3 0.4-0.7 0.5-1q-0.1 0.6-0.2 1c-0.1 0.8-0.5 2.9-0.7 3.6q0 0.1-0.2 0.3q-0.1 0.1-0.3 0.2c0.1-1 0.3-2.3 0.3-2.9q0.1-0.2 0.1-0.6q0.3-0.3 0.5-0.6z" />
		<path id="Layer" class="s115" d="m62.5 64.3c0.1 0.7 0.1 2.9 0 3.6c0 0.7 0 2.8-0.1 3.5c-0.1 0.9-2 1-2.2-0.1c0-0.4-0.7-4.1-0.7-7c0-0.9 2.9-0.4 3 0z" />
		<path id="Layer" class="s116" d="m62.5 64.3c0.1 0.7 0.1 2.9 0 3.6c0 0.7 0 2.8-0.1 3.5q-0.1 0.2-0.2 0.4q-0.2 0.2-0.4 0.2c0 0 0.1-3.5 0.1-4.2c0.1-0.7 0.1-2.9 0-3.7q0 0 0 0c0.3 0 0.6 0.1 0.6 0.2zm-1.1-0.2q0.3 0 0.5 0c0 0-0.2 0-0.5 0zm0 0q-0.7 0-1.4-0.1c0.5 0.2 1.1 0.2 1.4 0.1z" />
		<path id="Layer" class="s117" d="m62.3 55.9l1.2 1l-0.9 8.2c0 0-1.9 0-3.2-0.2l-0.4-1l-0.3 0.7q-0.8-0.2-1.5-0.6c-0.1-0.1 1-8.4 1.3-8.6c0.3-0.2 1.2-0.2 1.2-0.2l1.6-0.4q0.2 0 0.3 0.1q0.2 0.2 0.3 0.5q0.1 0.3 0.4 0.5z" />
		<path id="Layer" class="s103" d="m61.4 55.8q-0.4 0.5-0.8 1.1c-0.1 0.3-1 1.7-1.1 2c0 0 0-0.3 0-0.9c0-0.1 0-1.6 0.1-2c0.2-0.9 1.3-1.7 1.9-1.2c0.2 0.2 0.3 0.4-0.1 1z" />
		<path id="Layer" class="s118" d="m60.1 56.3l0.5 0.6q-0.2 0.4-0.4 0.8c-0.1 0.1-0.5 0.8-0.5 0.8l-0.2-0.5q0-0.1 0-0.4q0-0.6 0-1.2z" />
		<path id="Layer" class="s70" d="m61.5 55q0 0.1 0 0.1q0 0.1 0 0.1c-0.2 0.3-0.7 0.8-1.1 0.8c0 0-0.4-0.3-0.4-0.6c0-0.4 1.3-1.1 1.3-1.1q0.1 0.4 0.2 0.7z" />
		<path id="Layer" class="s71" d="m61.5 55q0 0.1 0 0.1q0 0.1 0 0.1q-0.2 0.3-0.5 0.5q-0.3-0.2-0.7-0.2q-0.1 0-0.3 0q0 0 0-0.1c0-0.4 1.3-1.1 1.3-1.1q0.1 0.4 0.2 0.7z" />
		<path id="Layer" class="s70" d="m61.4 53.4c0 0.3 0 0.3 0 0.4c0.1 0.1 0.1 0.3 0 0.4c0 0 0 0.6-0.7 1.4q-0.1 0.1-0.2 0.1q-0.1 0-0.3-0.1c-0.1-0.1-0.6-0.4-0.8-0.7c-0.2-0.3-0.1-0.3-0.2-0.4c-0.2-0.1-1.2-1.6 0.2-2.3c1.4-0.7 1.8 1 1.8 1c0 0 0.1 0 0.2 0.2z" />
		<path id="Layer" class="s71" d="m61.4 53.4c0 0.3 0 0.3 0 0.4c0.1 0.1 0.1 0.3 0 0.4c0 0 0 0.6-0.7 1.4q-0.1 0-0.2 0.1q-0.1 0-0.2 0q0.1 0 0.2-0.1q0.3-0.2 0.5-0.6c0.2-0.5-0.3-1.2-0.5-1.3c0.1-0.3-0.2-0.8-0.4-1.1q-0.1-0.3-0.5-0.5c1.2-0.4 1.6 1.1 1.6 1.1c0 0 0.1 0 0.2 0.2z" />
		<path id="Layer" class="s119" d="m61.3 53.3c-0.3-0.1-0.3 0.3-0.3 0.4c0 0 0.1 0.3 0 0.3c0 0.1-0.2-0.1-0.2-0.1c-0.3-0.7-0.2-0.9-0.6-0.9c-0.3 0-0.5 0.8-1 1.1c-0.5 0.3-1.1-1.3 0.1-1.9c0.9-0.5 1.9-0.2 2 1.1z" />
		<path id="Layer" class="s120" d="m64.6 64.1q0.1 0 0.2 0.1l1.7 0.9q0.1 0.1 0.1 0.2q0.1 0.1 0.1 0.2v4.4q0 0.1-0.1 0.2q0 0.1-0.1 0.1l-7.2 4.1q-0.1 0.1-0.2 0.1q-0.1 0-0.2-0.1l-1.6-0.9q-0.1-0.1-0.2-0.2q0-0.1 0-0.2v-4.4q0-0.1 0-0.2q0.1-0.1 0.2-0.1l7.1-4.1q0.1-0.1 0.2-0.1z" />
		<path id="Layer" class="s121" d="m65.6 64.7l-7.2 4.1q-0.1 0.1-0.2 0.2q-0.1 0.2-0.1 0.3v4.5h-0.1v-4.5q0-0.2 0.1-0.3q0.1-0.1 0.2-0.2l7.2-4.2z" />
		<path id="Layer" class="s84" d="m66.5 70.2l-7 4q-0.1 0.1-0.1 0.1q-0.1 0-0.2-0.1q0 0 0 0q-0.1-0.1-0.1-0.2v-4.3q0 0 0.1-0.1q0 0 0-0.1l7.1-4q0.1-0.1 0.1-0.1q0.1 0 0.1 0.1q0.1 0 0.1 0q0.1 0.1 0.1 0.2v4.3q0 0-0.1 0.1q0 0-0.1 0.1z" />
		<path id="Layer" class="s122" d="m60.9 66.8l-0.2 0.9l-0.5-0.2l0.4-0.9z" />
		<path id="Layer" class="s121" d="m63.3 66.2l-0.4-0.3l-0.3-0.4l0.4 0.3z" />
		<path id="Layer" class="s123" d="m62.9 65.6l-2 1.2l-0.3-0.2l2-1.1z" />
		<path id="Layer" class="s124" d="m63.4 66.1l-0.1 0.1l-0.4-0.4l-1.9 1.1l-0.1 0.7l-0.2 0.1l0.2-0.9l2-1.2z" />
		<path id="Layer" class="s125" d="m64.9 67.2l0.5 0.2l-0.4 0.9l-0.6-0.2z" />
		<path id="Layer" class="s126" d="m63.4 69.8l0.6-0.3l0.3 0.9l-0.6 0.4z" />
		<path id="Layer" class="s127" d="m62.2 70.6l-0.5 1l-1.5-0.7l0.5-1.1z" />
		<path id="Layer" class="s70" d="m63 65.1q-0.2 0.3-0.3 0.7q-0.1 0.5-0.3 1c-0.2 0.3-0.5 0.2-0.8 0.4c0 0-0.1 0.1-0.1 0.1c-0.1-0.1 0.3-1.1 0.2-1.3c0-0.1-0.1 0-0.1 0c-0.1 0.1-0.2 0.3-0.4 0.2c-0.1 0 0.2-0.2 0.3-0.5q0.2-0.3 0.4-0.5c0.2-0.1 0.4-0.4 0.4-0.5c0 0 0.7 0.4 0.7 0.4z" />
		<path id="Layer" class="s71" d="m62.2 65.4c0.1-0.1 0.5-0.3 0.6-0.5c0.1 0.1 0.2 0.2 0.2 0.2q-0.2 0.3-0.3 0.7q-0.1 0.5-0.3 1c-0.2 0.3-0.5 0.2-0.8 0.4c0 0-0.1 0.1-0.1 0.1c-0.1-0.1 0.3-1.1 0.2-1.3c0-0.1 0 0-0.1 0q0.1-0.1 0.1-0.2c0-0.1 0.1-0.1 0.1-0.1c0.1 0.2-0.2 1.2-0.2 1.2c0.1 0.1 0.2 0 0.2-0.1c0.2-0.2 0.6-0.1 0.7-0.4c0.2-0.8-0.4-0.8-0.3-1z" />
		<path id="Layer" class="s70" d="m64.1 62c-0.2 1.4-1.3 3.5-1.3 3.5c-0.9 0.1-0.7-0.5-0.7-0.5q0.6-1.6 0.8-3.2c0.1-0.9 1.4-1.2 1.2 0.2z" />
		<path id="Layer" class="s75" d="m60.4 51.7c0.6 0 0.8 0.4 0.3 0.9c-0.5 0.6-1.2 0.9-1.9 0.9c-0.6 0-0.8-0.4-0.4-0.9c0.6-0.5 1.2-0.8 2-0.9z" />
		<path id="Layer" class="s128" d="m60.5 52q0.1 0.1-0.1 0.4c-0.4 0.4-0.9 0.6-1.5 0.7c-0.3 0-0.5-0.2-0.4-0.4q0-0.1 0-0.3q0-0.2 0.2-0.3c0.3-0.3 0.7-0.5 1.2-0.6q0.1 0 0.1 0q0.1 0.1 0.2 0.1q0.2 0.2 0.3 0.4z" />
		<path id="Layer" class="s75" d="m58.7 52.8q-0.1 0-0.2-0.1c0 0 0-0.1 0-0.1q0.1 0.1 0.3 0.1q0.4 0 0.8-0.2q0.3-0.1 0.6-0.4q0.1-0.2 0.1-0.3c0.1-0.1 0.1 0 0.1 0q0 0.1 0 0.2q-0.1 0.1-0.2 0.2q-0.2 0.3-0.6 0.5q-0.3 0.1-0.7 0.1q-0.1 0.1-0.2 0z" />
		<path id="Layer" class="s129" d="m64.3 59.7c-0.1 1.7 0 1.8-0.4 2.1c-0.3 0.2-1.2 0.5-1.3-0.9c-0.2-1.5-0.4-2.7-0.4-3c0-1 0.7-1.4 1.2-1.1c0.6 0.3 0.9 1.1 0.9 2.9z" />
		<path id="Layer" class="s70" d="m58.6 60.6c0 0 0.3-0.7 0.3-0.7c0 0 0.6 0.3 0.8 0.3q0.5 0.1 1 0.2c0.4 0.2 0.2 0.5 0.5 0.8c0 0 0.1 0 0 0.1c-0.1 0.1-1.1-0.3-1.3-0.2c-0.1 0.1 0 0.1 0.1 0.1c0.1 0.1 0.3 0.3 0.2 0.4c-0.1 0.2-0.3-0.1-0.6-0.2q-0.3-0.2-0.4-0.4c-0.1-0.2-0.5-0.3-0.6-0.4z" />
		<path id="Layer" class="s70" d="m56.6 58.9q1.1 0.8 2.5 1.1c0 0 0.7 0.1 0.1 0.8c0 0-2.3 0.1-3.5-0.6c-0.9-0.6 0.1-1.8 0.9-1.3z" />
		<path id="Layer" class="s130" d="m59 59.9q0 0.5-0.2 0.9h-0.3q0.3-0.5 0.2-1z" />
		<path id="Layer" class="s131" d="m88.5 75.6l-3.4 1.9h-11.1l-6.4-3.6l8.4-5z" />
		<path id="Layer" class="s132" d="m67.2 73.5q0.1-0.2 0.2-0.3q0.2-0.2 0.4-0.3q0.1 0 0.3 0q0.4 0 0.6 0.1q0.3 0.2 0.4 0.5q0.1 0.3 0 0.6q0 0.3-0.2 0.5q-0.3 0.2-0.6 0.3q-0.3 0-0.5-0.1q-0.3-0.1-0.5-0.4q-0.2-0.2-0.2-0.5q0-0.2 0.1-0.4z" />
		<path id="Layer" class="s133" d="m70.6 48.3h0.6v10.3h-0.6z" />
		<path id="Layer" class="s133" d="m67.6 50h0.5v10.3h-0.5z" />
		<path id="Layer" class="s134" d="m70.9 48.2v0.5l-0.5-0.3v-0.5q0-0.1 0-0.2c0.3-0.1 0.5 0.1 0.5 0.5z" />
		<path id="Layer" class="s135" d="m71 47.1q-0.2-0.1-0.4 0q-0.2 0-0.4 0.1l-1.2 0.7q-0.5 0.4-0.8 0.9q-0.3 0.5-0.4 1.1v0.6l-0.5-0.4v-0.5q0.1-0.6 0.4-1.1q0.3-0.6 0.8-0.9l1.2-0.7q0.2-0.1 0.4-0.1q0.2-0.1 0.4 0q0.1 0 0.1 0z" />
		<path id="Layer" class="s136" d="m67.8 49.9q0.1-0.6 0.4-1.1q0.3-0.5 0.8-0.9l1.2-0.7c0.7-0.4 1.2-0.1 1.2 0.7v0.5l-0.5 0.3v-0.5c0-0.4-0.3-0.6-0.7-0.4l-1.2 0.7q-0.3 0.2-0.5 0.5q-0.1 0.3-0.1 0.6v0.6l-0.6 0.3z" />
		<path id="Layer" class="s137" d="m66.6 59.7l5.8-3.3q0.3-0.1 0.6-0.1q0.4 0 0.7 0.1l2.9 1.7l-3 7v2.6c0 0.6-0.3 1.2-0.8 1.5l-1.3 0.8l-2.1 4.8l-3.3-2q0 0 0 0q-0.1-0.1-0.2-0.3q-0.1-0.1-0.1-0.3v-11c0-0.6 0.4-1.2 0.8-1.5z" />
		<path id="Layer" class="s138" d="m77.4 60.9c-0.1-0.4-0.3-0.5-0.7-0.4l-5.2 3.1c-0.4 0.2-0.7 0.7-0.7 1.2v9.3c0 0.5 0.3 0.7 0.6 0.5q0 0.1-0.1 0.1c-0.6 0.3-1.6 0.2-1.7 0.1c-0.3 0-0.4-0.2-0.4-0.6v-11c0-0.6 0.3-1.3 0.7-1.5l6.3-3.6c0.2-0.2 0.5-0.1 0.6 0.1q0 0.1 0.1 0.2c0.3 0.7 0.5 2.5 0.5 2.5z" />
		<path id="Layer" class="s139" d="m70.8 74.1v-9.3c0-0.5 0.3-1 0.7-1.2l5.2-3.1c0.4-0.2 0.7 0.1 0.7 0.5v9.3c0 0.5-0.3 1.1-0.7 1.3l-5.2 3c-0.4 0.2-0.7 0-0.7-0.5z" />
		<path id="Layer" class="s68" d="m76.3 62.9v0.5l-4 2.2v-0.4z" />
		<path id="Layer" class="s140" d="m67.7 72.3q0 0 0 0q-0.1-0.1-0.1-0.1v-9.4q0-0.9 0.5-1.7q0.5-0.8 1.2-1.2l5.4-3q0.1 0 0.1 0q0 0 0 0q0 0 0.1 0q0 0.1 0 0.1q0 0 0 0q0 0 0 0.1q0 0 0 0q0 0-0.1 0l-5.3 3q-0.8 0.4-1.2 1.1q-0.4 0.7-0.4 1.6v9.4q0 0-0.1 0.1q0 0-0.1 0z" />
	</g>
</svg>