<svg version="1.2" xmlns="http://www.w3.org/2000/svg" viewBox="0 0 90 90" width="90" height="90">
	<title>New Project</title>
	<defs>
		<linearGradient id="g1" x1="17.1" y1="52.9" x2="87.8" y2="62.2" gradientUnits="userSpaceOnUse">
			<stop offset="0" stop-color="#d3d8f2"/>
			<stop offset=".1" stop-color="#d6daf3"/>
			<stop offset="1" stop-color="#ffffff"/>
		</linearGradient>
		<linearGradient id="g2" x1="36.2" y1="74.7" x2="41.6" y2="65.4" gradientUnits="userSpaceOnUse">
			<stop offset="0" stop-color="#f6f6fb"/>
			<stop offset="1" stop-color="#ced3f8"/>
		</linearGradient>
		<linearGradient id="g3" x1="39.8" y1="71.6" x2="35.1" y2="66.9" gradientUnits="userSpaceOnUse">
			<stop offset="0" stop-color="#bdc1e4"/>
			<stop offset=".9" stop-color="#6364ca"/>
			<stop offset="1" stop-color="#5555c6"/>
		</linearGradient>
		<linearGradient id="g4" x1="4065.7" y1="3755.1" x2="4286.5" y2="3459" gradientUnits="userSpaceOnUse">
			<stop offset="0" stop-color="#f6f6fb"/>
			<stop offset="1" stop-color="#ced3f8"/>
		</linearGradient>
		<linearGradient id="g5" x1="4168.1" y1="3639.2" x2="4000" y2="3509.1" gradientUnits="userSpaceOnUse">
			<stop offset="0" stop-color="#bdc1e4"/>
			<stop offset=".9" stop-color="#6364ca"/>
			<stop offset="1" stop-color="#5555c6"/>
		</linearGradient>
		<linearGradient id="g6" x1="1.4" y1="71.7" x2="32.6" y2="71.7" gradientUnits="userSpaceOnUse">
			<stop offset=".4" stop-color="#d67747"/>
			<stop offset=".8" stop-color="#c5693e"/>
			<stop offset="1" stop-color="#ba6038"/>
		</linearGradient>
		<linearGradient id="g7" x1="20.6" y1="61.4" x2="39" y2="61.4" gradientUnits="userSpaceOnUse">
			<stop offset="0" stop-color="#f3b378"/>
			<stop offset=".4" stop-color="#f1ab6f"/>
			<stop offset="1" stop-color="#ed995a"/>
		</linearGradient>
		<linearGradient id="g8" x1="2629" y1="4689.8" x2="3029.2" y2="4689.8" gradientUnits="userSpaceOnUse">
			<stop offset="0" stop-color="#f3b378"/>
			<stop offset=".4" stop-color="#f1ab6f"/>
			<stop offset="1" stop-color="#ed995a"/>
		</linearGradient>
		<linearGradient id="g9" x1="45.7" y1="62.4" x2="77.7" y2="21.4" gradientUnits="userSpaceOnUse">
			<stop offset=".9" stop-color="#34318f"/>
			<stop offset="1" stop-color="#383696"/>
			<stop offset="1" stop-color="#4543a9"/>
			<stop offset="1" stop-color="#5958c7"/>
			<stop offset="1" stop-color="#6a6ae2"/>
		</linearGradient>
		<linearGradient id="g10" x1="44" y1="50" x2="20.1" y2="37.8" gradientUnits="userSpaceOnUse">
			<stop offset="0" stop-color="#1e1c6b"/>
			<stop offset=".1" stop-color="#34318f"/>
		</linearGradient>
		<linearGradient id="g11" x1="16" y1="43.1" x2="46.2" y2="43.1" gradientUnits="userSpaceOnUse">
			<stop offset="0" stop-color="#6a6ae2"/>
			<stop offset="1" stop-color="#4141aa"/>
		</linearGradient>
		<linearGradient id="g12" x1="18.9" y1="39.8" x2="45.5" y2="39.8" gradientUnits="userSpaceOnUse">
			<stop offset="0" stop-color="#000000"/>
			<stop offset="1" stop-color="#34318f"/>
		</linearGradient>
		<linearGradient id="g13" x1="27.7" y1="43.1" x2="20.3" y2="33.3" gradientUnits="userSpaceOnUse">
			<stop offset="0" stop-color="#000000"/>
			<stop offset="1" stop-color="#4141aa"/>
		</linearGradient>
		<linearGradient id="g14" x1="3736.6" y1="4105.8" x2="4298.4" y2="3711" gradientUnits="userSpaceOnUse">
			<stop offset="0" stop-color="#000000"/>
			<stop offset="1" stop-color="#34318f"/>
		</linearGradient>
		<linearGradient id="g15" x1="41.6" y1="54.7" x2="48.8" y2="54.7" gradientUnits="userSpaceOnUse">
			<stop offset="0" stop-color="#34318f"/>
			<stop offset="1" stop-color="#1e1c6b"/>
		</linearGradient>
		<linearGradient id="g16" x1="87.1" y1="34.4" x2="87.1" y2="31.6" gradientUnits="userSpaceOnUse">
			<stop offset="0" stop-color="#ec6675"/>
			<stop offset="0" stop-color="#ed6975"/>
			<stop offset=".3" stop-color="#f17b73"/>
			<stop offset=".7" stop-color="#f38671"/>
			<stop offset="1" stop-color="#f48a71"/>
		</linearGradient>
		<linearGradient id="g17" x1="3.9" y1="73.8" x2="12.4" y2="73.8" gradientUnits="userSpaceOnUse">
			<stop offset="0" stop-color="#9b4c2d"/>
			<stop offset="1" stop-color="#ba6038"/>
		</linearGradient>
		<linearGradient id="g18" x1="1290" y1="1208.3" x2="1362.8" y2="1208.3" gradientUnits="userSpaceOnUse">
			<stop offset="0" stop-color="#9b4c2d"/>
			<stop offset="1" stop-color="#ba6038"/>
		</linearGradient>
		<linearGradient id="g19" x1="16" y1="76.4" x2="15.3" y2="77" gradientUnits="userSpaceOnUse">
			<stop offset="0" stop-color="#1e1c6b"/>
			<stop offset="1" stop-color="#5555c6"/>
		</linearGradient>
		<linearGradient id="g20" x1="17" y1="76.6" x2="16.3" y2="77.2" gradientUnits="userSpaceOnUse">
			<stop offset="0" stop-color="#1e1c6b"/>
			<stop offset=".1" stop-color="#211f70"/>
			<stop offset=".5" stop-color="#3d3c9f"/>
			<stop offset=".8" stop-color="#4f4ebb"/>
			<stop offset="1" stop-color="#5555c6"/>
		</linearGradient>
		<linearGradient id="g21" x1="18.1" y1="76.8" x2="17.3" y2="77.3" gradientUnits="userSpaceOnUse">
			<stop offset="0" stop-color="#1e1c6b"/>
			<stop offset=".2" stop-color="#222071"/>
			<stop offset=".4" stop-color="#2c2b82"/>
			<stop offset=".7" stop-color="#3d3c9f"/>
			<stop offset="1" stop-color="#5555c6"/>
		</linearGradient>
		<linearGradient id="g22" x1="1.3" y1="65.3" x2="29.3" y2="65.3" gradientUnits="userSpaceOnUse">
			<stop offset="0" stop-color="#d1d5f6"/>
			<stop offset="0" stop-color="#e2e4f9"/>
			<stop offset="0" stop-color="#eeeffb"/>
			<stop offset=".1" stop-color="#f5f5fc"/>
			<stop offset=".1" stop-color="#f7f7fc"/>
			<stop offset=".5" stop-color="#f5f5fc"/>
			<stop offset=".6" stop-color="#f2f2fb"/>
			<stop offset=".8" stop-color="#d9dcf7"/>
			<stop offset="1" stop-color="#d0d4f6"/>
		</linearGradient>
		<linearGradient id="g23" x1="14.9" y1="74.6" x2="14.9" y2="69" gradientUnits="userSpaceOnUse">
			<stop offset="0" stop-color="#ffffff"/>
			<stop offset=".1" stop-color="#f4f4f4"/>
			<stop offset=".2" stop-color="#d7d7d7"/>
			<stop offset=".4" stop-color="#a7a7a7"/>
			<stop offset=".7" stop-color="#656565"/>
			<stop offset=".9" stop-color="#121212"/>
			<stop offset="1" stop-color="#000000"/>
		</linearGradient>
		<linearGradient id="g24" x1="620.7" y1="2465.8" x2="620.7" y2="2366" gradientUnits="userSpaceOnUse">
			<stop offset="0" stop-color="#ffffff"/>
			<stop offset=".1" stop-color="#f4f4f4"/>
			<stop offset=".2" stop-color="#d7d7d7"/>
			<stop offset=".4" stop-color="#a7a7a7"/>
			<stop offset=".7" stop-color="#656565"/>
			<stop offset=".9" stop-color="#121212"/>
			<stop offset="1" stop-color="#000000"/>
		</linearGradient>
		<linearGradient id="g25" x1="583.8" y1="1551.2" x2="583.8" y2="1507.1" gradientUnits="userSpaceOnUse">
			<stop offset="0" stop-color="#ffffff"/>
			<stop offset=".1" stop-color="#f4f4f4"/>
			<stop offset=".2" stop-color="#d7d7d7"/>
			<stop offset=".4" stop-color="#a7a7a7"/>
			<stop offset=".7" stop-color="#656565"/>
			<stop offset=".9" stop-color="#121212"/>
			<stop offset="1" stop-color="#000000"/>
		</linearGradient>
		<linearGradient id="g26" x1="366.9" y1="1227.9" x2="366.9" y2="1199.7" gradientUnits="userSpaceOnUse">
			<stop offset="0" stop-color="#ffffff"/>
			<stop offset=".1" stop-color="#f4f4f4"/>
			<stop offset=".2" stop-color="#d7d7d7"/>
			<stop offset=".4" stop-color="#a7a7a7"/>
			<stop offset=".7" stop-color="#656565"/>
			<stop offset=".9" stop-color="#121212"/>
			<stop offset="1" stop-color="#000000"/>
		</linearGradient>
		<linearGradient id="g27" x1="628.2" y1="2458.8" x2="628.2" y2="2359.3" gradientUnits="userSpaceOnUse">
			<stop offset="0" stop-color="#ffffff"/>
			<stop offset=".1" stop-color="#f4f4f4"/>
			<stop offset=".2" stop-color="#d7d7d7"/>
			<stop offset=".4" stop-color="#a7a7a7"/>
			<stop offset=".7" stop-color="#656565"/>
			<stop offset=".9" stop-color="#121212"/>
			<stop offset="1" stop-color="#000000"/>
		</linearGradient>
		<linearGradient id="g28" x1="1.6" y1="63" x2="29.2" y2="63" gradientUnits="userSpaceOnUse">
			<stop offset="0" stop-color="#f7f7fc"/>
			<stop offset=".1" stop-color="#fdfdfe"/>
			<stop offset=".5" stop-color="#ffffff"/>
			<stop offset="1" stop-color="#f7f7fc"/>
		</linearGradient>
		<linearGradient id="g29" x1="2459.4" y1="399.6" x2="2555.7" y2="399.6" gradientUnits="userSpaceOnUse">
			<stop offset="0" stop-color="#d3d8f2"/>
			<stop offset=".1" stop-color="#d6daf3"/>
			<stop offset="1" stop-color="#ffffff"/>
		</linearGradient>
	</defs>
	<style>
		.s0 { mix-blend-mode: multiply;fill: url(#g1) } 
		.s1 { fill: #0b0b33 } 
		.s2 { fill: #1e1c6b } 
		.s3 { fill: #5555c6 } 
		.s4 { fill: #bbc0e6 } 
		.s5 { fill: url(#g2) } 
		.s6 { fill: #362e94 } 
		.s7 { fill: #20196f } 
		.s8 { fill: url(#g3) } 
		.s9 { fill: url(#g4) } 
		.s10 { fill: url(#g5) } 
		.s11 { fill: url(#g6) } 
		.s12 { fill: #d67747 } 
		.s13 { fill: #ba6038 } 
		.s14 { fill: #f3b378 } 
		.s15 { fill: url(#g7) } 
		.s16 { fill: url(#g8) } 
		.s17 { fill: #ec6675 } 
		.s18 { fill: #f48a71 } 
		.s19 { fill: url(#g9) } 
		.s20 { fill: url(#g10) } 
		.s21 { fill: url(#g11) } 
		.s22 { mix-blend-mode: screen;fill: url(#g12) } 
		.s23 { mix-blend-mode: screen;fill: url(#g13) } 
		.s24 { mix-blend-mode: screen;fill: url(#g14) } 
		.s25 { fill: url(#g15) } 
		.s26 { fill: url(#g16) } 
		.s27 { fill: url(#g17) } 
		.s28 { fill: url(#g18) } 
		.s29 { fill: url(#g19) } 
		.s30 { fill: #7f7ff4 } 
		.s31 { fill: #f7f7fc } 
		.s32 { fill: url(#g20) } 
		.s33 { fill: url(#g21) } 
		.s34 { fill: url(#g22) } 
		.s35 { mix-blend-mode: screen;fill: url(#g23) } 
		.s36 { mix-blend-mode: screen;fill: url(#g24) } 
		.s37 { mix-blend-mode: screen;fill: url(#g25) } 
		.s38 { mix-blend-mode: screen;fill: url(#g26) } 
		.s39 { mix-blend-mode: screen;fill: url(#g27) } 
		.s40 { fill: url(#g28) } 
		.s41 { fill: #eaeef9 } 
		.s42 { mix-blend-mode: multiply;fill: url(#g29) } 
		.s43 { fill: #ffcd8a } 
	</style>
	<g id="Folder 1">
		<path id="Layer" class="s0" d="m86.1 75.1l-66.6-8.8c-3.7-0.5-5-1.7-3-2.8l32.2-17.2c2-1 6.6-1.5 10.3-1l30.5 4z" />
		<path id="Layer" class="s1" d="m43.7 69.2l-8.6-4.9l0.9-6.5l10.4 6z" />
		<path id="Layer" class="s1" d="m83.9 46l-8.6-5l1-6.5l10.3 6z" />
		<path id="Layer" class="s2" d="m20.1 39.4c0 1.1-1.1 2.3-2.5 1.6c-1.9-0.9-3.3-3.1-2.7-3.9q0.1-0.1 0.3-0.2c-0.3 0.2 0.2 1.2 1.6 2.1c1.5 0.9 2.9 0.7 3.3 0.4z" />
		<path id="Layer" class="s3" d="m19.6 38.3c0.3 0.3 0.5 0.7 0.5 1.1c-0.4 0.3-1.8 0.5-3.3-0.4c-1.4-0.9-1.9-1.8-1.6-2.1c1-0.5 3.2 0.2 4.4 1.4z" />
		<path id="Layer" fill-rule="evenodd" class="s4" d="m43.1 67.3c0 2.8-2 6.3-4.5 7.7c-2.5 1.5-4.5 0.3-4.5-2.6c0-2.8 2-6.3 4.5-7.7c2.5-1.5 4.5-0.3 4.5 2.6zm-0.7 0.3c0-2.4-1.7-3.4-3.8-2.2c-2.1 1.3-3.8 4.2-3.8 6.6c0 2.5 1.7 3.5 3.8 2.2c2.1-1.2 3.8-4.1 3.8-6.6z" />
		<path id="Layer" class="s5" d="m34.8 72q0-0.1 0-0.3c1.9-1.5 3.1-3.7 3.5-6.1q0.1-0.1 0.3-0.2c2.1-1.2 3.8-0.2 3.8 2.2c0 2.5-1.7 5.4-3.8 6.6c-2.1 1.3-3.8 0.3-3.8-2.2z" />
		<path id="Layer" fill-rule="evenodd" class="s6" d="m43.9 66.8c0 3.4-2.4 7.5-5.3 9.2c-2.9 1.7-5.3 0.3-5.3-3.1c0-3.4 2.3-7.5 5.3-9.2c2.9-1.7 5.3-0.3 5.3 3.1zm-0.8 0.5c0-2.9-2-4.1-4.5-2.6c-2.5 1.4-4.5 4.9-4.5 7.7c0 2.9 2 4.1 4.5 2.6c2.5-1.4 4.5-4.9 4.5-7.7z" />
		<path id="Layer" class="s7" d="m38.6 63.7c-3 1.7-5.3 5.8-5.3 9.2c0 1.7 0.5 2.9 1.5 3.4l-4.3-2.4c-1-0.6-1.6-1.8-1.6-3.5c0-3.4 2.4-7.5 5.3-9.2c1.6-0.9 2.9-0.9 3.9-0.3l4.1 2.4c-1-0.5-2.2-0.4-3.6 0.4z" />
		<path id="Layer" class="s8" d="m33.7 71.4c0-2.4 1.7-5.4 3.8-6.6c2.1-1.2 3.8-0.2 3.8 2.2c0 2.4-1.7 5.4-3.8 6.6c-2.1 1.2-3.8 0.2-3.8-2.2z" />
		<path id="Layer" class="s2" d="m37.5 65.3c1.7-1 1 1.6 0.4 3.1q-0.1-0.1-0.2-0.1c0.5-2.1-0.4-2.9-0.2-3zm1.7-0.5c1.4 0.1-0.1 2.6-1.1 3.8q0-0.1-0.1-0.2c1.2-2 1-3.6 1.2-3.6zm1.2 0.7c0.9 1.2-1.1 2.9-2.2 3.5q0-0.2 0-0.3c1.6-1.4 2.1-3.3 2.2-3.2zm0.5 1.8c0 1.9-2 2.3-2.9 2.2q0.1-0.2 0.1-0.4c1.6-0.4 2.8-2.1 2.8-1.8zm-0.5 2.2c-0.8 2.2-2.2 1.2-2.7 0.3q0.1-0.1 0.2-0.2c1.2 0.7 2.6-0.4 2.5-0.1zm-1.2 2.1c-1.5 1.9-1.9-0.2-1.9-1.5q0.2-0.1 0.3-0.2c0.4 1.7 1.8 1.5 1.6 1.7zm-1.7 1.6c-1.7 0.9-1.1-1.7-0.5-3.1q0.1 0 0.2 0c-0.4 2.1 0.5 2.9 0.3 3.1zm-1.7 0.4c-1.5-0.1 0-2.6 1-3.8q0.1 0.1 0.1 0.2c-1.2 2-0.9 3.6-1.1 3.6zm-1.3-0.7c-0.8-1.2 1.2-2.9 2.3-3.5q0 0.2 0 0.3c-1.6 1.4-2.2 3.3-2.3 3.2zm-0.5-1.7c0-2 2-2.4 3-2.2q-0.1 0.1-0.2 0.3c-1.6 0.4-2.7 2.1-2.8 1.9zm0.5-2.3c0.9-2.1 2.2-1.2 2.8-0.3q-0.2 0.1-0.3 0.2c-1.1-0.7-2.6 0.4-2.5 0.1zm1.3-2.1c1.4-1.8 1.9 0.3 1.8 1.6q-0.1 0-0.2 0.1c-0.4-1.6-1.8-1.5-1.6-1.7z" />
		<path id="Layer" fill-rule="evenodd" class="s4" d="m83.3 44c0 2.9-2 6.4-4.5 7.8c-2.5 1.4-4.5 0.3-4.5-2.6c0-2.9 2-6.3 4.5-7.8c2.5-1.4 4.5-0.2 4.5 2.6zm-0.7 0.4c0-2.4-1.7-3.4-3.8-2.2c-2.1 1.2-3.8 4.2-3.8 6.6c0 2.4 1.7 3.4 3.8 2.2c2.1-1.2 3.8-4.2 3.8-6.6z" />
		<path id="Layer" class="s9" d="m75 48.8q0-0.2 0-0.4c1.9-1.4 3.2-3.6 3.5-6q0.2-0.1 0.3-0.2c2.1-1.2 3.8-0.2 3.8 2.2c0 2.4-1.7 5.4-3.8 6.6c-2.1 1.2-3.8 0.2-3.8-2.2z" />
		<path id="Layer" fill-rule="evenodd" class="s6" d="m84.1 43.5c0 3.4-2.4 7.6-5.3 9.3c-2.9 1.6-5.3 0.3-5.3-3.1c0-3.4 2.4-7.5 5.3-9.2c3-1.7 5.3-0.3 5.3 3zm-0.8 0.5c0-2.8-2-4-4.5-2.6c-2.5 1.5-4.5 4.9-4.5 7.8c0 2.9 2 4 4.5 2.6c2.5-1.4 4.5-4.9 4.5-7.8z" />
		<path id="Layer" class="s7" d="m78.8 40.5c-2.9 1.7-5.3 5.8-5.3 9.2c0 1.7 0.6 2.8 1.5 3.4l-4.3-2.5c-0.9-0.5-1.5-1.7-1.5-3.4c0-3.4 2.3-7.5 5.3-9.2c1.5-0.9 2.9-1 3.9-0.3l4 2.3c-0.9-0.4-2.2-0.3-3.6 0.5z" />
		<path id="Layer" class="s10" d="m73.9 48.2c0-2.5 1.7-5.4 3.8-6.6c2.1-1.2 3.8-0.2 3.8 2.2c0 2.4-1.7 5.4-3.8 6.6c-2.1 1.2-3.8 0.2-3.8-2.2z" />
		<path id="Layer" class="s2" d="m77.7 42c1.7-0.9 1.1 1.7 0.5 3.1q-0.1 0-0.2 0c0.4-2.1-0.5-2.9-0.3-3.1zm1.7-0.4c1.5 0.1-0.1 2.6-1 3.8q-0.1-0.1-0.2-0.2c1.2-2.1 1-3.6 1.2-3.6zm1.3 0.7c0.8 1.2-1.2 2.9-2.3 3.5q0-0.2 0-0.3c1.6-1.4 2.2-3.4 2.3-3.2zm0.4 1.7c0 2-1.9 2.3-2.9 2.2q0.1-0.1 0.1-0.3c1.7-0.4 2.8-2.1 2.8-1.9zm-0.4 2.2c-0.9 2.2-2.2 1.2-2.8 0.4q0.1-0.1 0.2-0.3c1.2 0.8 2.7-0.3 2.6-0.1zm-1.3 2.2c-1.4 1.8-1.9-0.3-1.8-1.6q0.1 0 0.2-0.1c0.4 1.6 1.8 1.5 1.6 1.7zm-1.7 1.5c-1.7 1-1-1.6-0.4-3.1q0.1 0.1 0.2 0.1c-0.5 2.1 0.4 2.9 0.2 3zm-1.7 0.5c-1.5-0.1 0.1-2.6 1.1-3.8q0 0.1 0.1 0.2c-1.2 2-1 3.6-1.2 3.6zm-1.3-0.8c-0.8-1.1 1.2-2.8 2.3-3.4q0 0.1 0 0.3c-1.6 1.4-2.1 3.3-2.3 3.1zm-0.4-1.6c0-2 2-2.4 2.9-2.3q-0.1 0.2-0.1 0.4c-1.6 0.4-2.8 2.1-2.8 1.9zm0.4-2.3c0.9-2.2 2.3-1.2 2.8-0.4q-0.1 0.2-0.2 0.3c-1.2-0.7-2.7 0.4-2.6 0.1zm1.3-2.2c1.5-1.8 1.9 0.3 1.9 1.6q-0.2 0.1-0.3 0.2c-0.4-1.7-1.8-1.5-1.6-1.8z" />
		<path id="Layer" class="s11" d="m32 72.9c-0.1 0.9 0.1 1.9 0.6 2.7l-1.9 1.1c-1.5 0.9-10.2 4.1-18.8 0.9l-7.5-4.4c-1.9-1.9-2.8-6.4-3-8.6c0.2 2.1 1 4.2 2.4 5c2.6 1.5 4 2.3 4 2.3l4.1 2.3c4.5 2.6 13.3 1.4 18.8-1.8l1.4-0.8q-0.1 0.6-0.1 1.3z" />
		<path id="Layer" class="s12" d="m87.7 31.6v7.9l-3.4 1.9c-0.5-2.7-2.9-3.7-5.8-2.1c-3 1.6-5.6 5.5-6.2 9l-28.2 16.3c-0.5-2.2-2.1-3.2-4.3-2.7v-2.7z" />
		<path id="Layer" class="s13" d="m87.7 39.5c0 1.4-1.4 5.1-2.7 5.8l-1.1 0.7q0.5-1.5 0.6-3.1q0-0.8-0.2-1.5l2.4-1.4c0.9-0.5 1-1.1 1-1.1zm-44 29.7q0.5-1.4 0.5-3q0.1-0.8-0.1-1.5l28.3-16.3q-0.2 0.6-0.2 1.3c0 0.9 0.2 1.9 0.6 2.7z" />
		<path id="Layer" fill-rule="evenodd" class="s14" d="m87.7 31.6l-47.9 27.6l-0.8-2.1l45.9-26.5c1.1-0.7 1.1-2 0.6-2.5c2.2 1.8 2.2 3.5 2.2 3.5zm-48.7 25.5l-23.8-13.8c-14.8 8.6-14.2 18.5-11.5 20.1c2.7 1.6 4.1 2.4 4.1 2.4l4.1 2.3c2.1 1.3 5.1 1.6 8.3 0.9c7.8-1.8 17.2-8.4 19.6-9.8z" />
		<path id="Layer" class="s15" d="m39 57.1c-2.6 1.4-13.8 8.7-18.3 8.7c-1 0 6-1.9 14.9-8.9c0.6 0.2 3.4 0.2 3.4 0.2z" />
		<path id="Layer" class="s16" d="m15.1 44.7c-6 4.2-11.4 13.7-10 10.6c3.2-7.2 7.9-10 10.1-12c0 0-0.1 0.7-0.1 1.4z" />
		<path id="Layer" class="s17" d="m87.7 31.6v3.6c-1.7 0.7-2.4-1.1-2.6-2.1l1.4-0.8q0.5-0.3 0.7-0.8q0.3-0.4 0.2-1c0.3 0.1 0.3 0.8 0.3 1.1z" />
		<path id="Layer" class="s18" d="m43.9 60l-1.1 0.7v-0.6l1.1-0.7z" />
		<path id="Layer" class="s14" d="m76.1 24.9l-28.4 16.4c-4.6-1.2-9-3-13.1-5.3c-3.7-2.2-6.7-4.6-8.8-7.3q1.1-1 2.3-1.7l25.8-14.9c2.2-1.3 5.4-1.4 7.3-0.3l15.4 8.9c1.9 1.1 1.7 2.9-0.5 4.2z" />
		<path id="Layer" class="s19" d="m84.9 30.6l-45.9 26.5l8.7-15.8l28.4-16.4c2.2-1.3 2.4-3.1 0.5-4.2c2 1.1 7 5.5 8.9 7.4c0.5 0.5 0.5 1.8-0.6 2.5z" />
		<path id="Layer" class="s2" d="m84.9 30.6l-45.9 26.5l0.6-1l44.9-25.9c1.1-0.7 1.1-2 0.6-2.5l0.4 0.4c0.5 0.5 0.5 1.8-0.6 2.5z" />
		<path id="Layer" class="s20" d="m41.5 55.7l-2.5 1.4c-2 1.2-10.2-2.7-14.8-5.4c-4.6-2.6-10.4-6.4-9-8.4l8.6-12.3q0.9-1.2 2-2.3c2.1 2.7 5.1 5.1 8.8 7.3c3.9 2.2 8 3.9 12.3 5q0.5 0.1 1 0q0.5-0.1 0.9-0.4z" />
		<path id="Layer" class="s21" d="m46.2 42l-7.7 14c-2.4 0.7-9.6-2.8-13.7-5.2c-4.4-2.5-9.8-6-8.6-7.9l7.3-10.6q0.8-1.1 1.9-2.2c2 2.5 4.8 4.9 8.4 6.9c3.9 2.2 8.1 3.9 12.4 5z" />
		<path id="Layer" class="s22" d="m30 47.8c-2.8-4.1-8-8.6-11.1-8.9l4.6-6.6q0.8-1.1 1.9-2.2c2 2.5 4.8 4.9 8.4 6.9c3.7 2.1 7.6 3.7 11.7 4.8c-5.4 5.7-12.6 10.4-15.5 6z" />
		<path id="Layer" class="s23" d="m34.7 37.5c-5.7 1.6-11 4.3-15.6 8.1c-1.4-1.1-2.4-2.1-2.7-3l7.1-10.3q0.8-1.1 1.9-2.2c2 2.5 4.8 4.9 8.4 6.9q0.4 0.3 0.9 0.5z" />
		<path id="Layer" class="s24" d="m16.6 42.3l6.9-10q0.8-1.1 1.9-2.2q1.7 2.2 3.9 3.9c-3.7 2.3-9.1 5.8-12.7 8.3z" />
		<path id="Layer" class="s2" d="m58.3 46l-0.9-10.3l2.5-1.5l0.8 10.4z" />
		<path id="Layer" class="s2" d="m73.3 37.3l-5.7-7.5l3.5-2l5.7 7.5z" />
		<path id="Layer" class="s25" d="m48.5 54.7c0.6 1 0.5 1.9-2.3 1.7c-5.2-0.5-4.8-2.3-4.2-3.1q0.2-0.2 0.3-0.4c-0.3 0.6 0.3 1.5 1.8 1.8c1.5 0.4 3.3 1.1 4.4 0z" />
		<path id="Layer" class="s3" d="m48.6 54.7c-1.2 1.1-3 0.4-4.5 0c-1.5-0.3-2.1-1.2-1.8-1.8c1.5-1.6 3.3-0.7 4.3-0.2q1.2 0.8 2 2z" />
		<path id="Layer" class="s26" d="m87.7 34.4c-0.7 0-1.9-1.1-0.9-1.5c0.7-0.3 0.9-0.8 0.9-1.3z" />
		<path id="Layer" class="s2" d="m47.4 41.9l0.3-0.6l28.4-16.4c2.2-1.3 2.4-3.1 0.5-4.2q0.8 0.5 1.5 1c0.9 1.1 0.4 2.5-1.3 3.5l-29 16.8q-0.2 0-0.4-0.1z" />
		<path id="Layer" class="s27" d="m6.3 73.3l6.1 3.6q0.1 0.4-0.3 0.2l-6.9-4c-0.4-0.2-0.7-0.6-0.9-1.1q-0.2-0.5-0.4-1c-0.1-0.5 0.1-0.7 0.5-0.5q-0.1 0.2 0 0.3q0.1 0.5 0.3 1c0.2 0.5 1.3 1.3 1.6 1.5z" />
		<path id="Layer" class="s2" d="m12.4 76.6q0 0.1 0.1 0.3c-2-1.2-4.7-2.7-6.7-3.9q-0.7-0.4-1.1-1.2q-0.2-0.5-0.3-1q0-0.1 0-0.3l6.8 4c0.4 0.2 0.7 0.6 0.9 1.1c0.1 0.4 0.2 0.6 0.3 1z" />
		<path id="Layer" class="s28" d="m15.8 77.7c0.5 0.2 1.9 0.3 2.9 0.3c0 0.2-0.1 0.3-0.3 0.3c-1-0.1-2.6-0.2-3.2-0.4c-0.5-0.2-0.7-0.7-0.9-1.2c-0.1-0.5-0.1-0.9 0.3-0.8h0.2q0 0.3 0.1 0.6c0.1 0.5 0.3 1 0.9 1.2z" />
		<path id="Layer" class="s2" d="m18.6 78c-1-0.1-2.3-0.2-2.9-0.3c-0.5-0.2-0.7-0.7-0.8-1.2q-0.1-0.3-0.1-0.6q0.8 0.2 1.7 0.3c0.7 0 2 1.3 2.1 1.8z" />
		<path id="Layer" class="s29" d="m16.6 76.6l-1.3 0.8l-0.4-0.8l0.8-0.4z" />
		<path id="Layer" class="s30" d="m14.8 76.8c0-0.2 0.1-0.2 0.3-0.2q0.1 0.1 0.2 0.3q0.1 0.1 0.1 0.3c0 0.2-0.1 0.2-0.3 0.2q-0.1-0.1-0.2-0.3q-0.1-0.1-0.1-0.3z" />
		<path id="Layer" class="s31" d="m14.9 76.9q0.1-0.2 0.2-0.1q0.1 0.1 0.1 0.1q0.1 0.1 0.1 0.2c0 0.1-0.1 0.1-0.2 0.1q-0.1-0.1-0.1-0.1q0-0.1-0.1-0.2z" />
		<path id="Layer" class="s32" d="m17.6 76.9l-1.4 0.7l-0.4-0.7l1-0.6z" />
		<path id="Layer" class="s30" d="m15.7 77.1c0-0.2 0.2-0.3 0.3-0.2q0.2 0.1 0.3 0.2q0 0.2 0 0.3c0 0.2-0.1 0.3-0.3 0.2q-0.1-0.1-0.2-0.2q-0.1-0.2-0.1-0.3z" />
		<path id="Layer" class="s31" d="m15.9 77.2q0-0.2 0.1-0.1q0.1 0 0.1 0.1q0.1 0.1 0.1 0.1q0 0.2-0.2 0.1q0 0-0.1-0.1q0-0.1 0-0.1z" />
		<path id="Layer" class="s33" d="m17.3 77.8l-0.4-0.8l0.6-0.3q0.3 0.3 0.6 0.6z" />
		<path id="Layer" class="s30" d="m16.8 77.2c0-0.2 0.1-0.2 0.3-0.1q0.1 0 0.2 0.2q0.1 0.1 0.1 0.3c0 0.2-0.2 0.2-0.3 0.2q-0.2-0.1-0.2-0.3q-0.1-0.1-0.1-0.3z" />
		<path id="Layer" class="s31" d="m16.9 77.3c0-0.1 0.1-0.1 0.2-0.1q0.1 0.1 0.1 0.1q0 0.1 0 0.2q0 0.1-0.1 0.1q-0.1-0.1-0.1-0.1q-0.1-0.1-0.1-0.2z" />
		<path id="Layer" class="s34" d="m1.4 63.1c0 0-0.1-2.9 0.5-5.3q0.3-1.1 1.1-2c-1.5 3.8-0.6 6.8 0.7 7.6c2.7 1.6 4.1 2.4 4.1 2.4l4.1 2.3c2.1 1.2 4.8 1.9 8.4 1.4c2.4-0.3 5.5-1.1 7.6-2.1c0.7-0.3 1.5-0.2 1.4 0.6c-0.5 2-2.7 4.7-5 5.7q-1.8 0.6-3.6 0.9c-3.9 0.5-6.8-0.2-9-1.5c-0.3-0.1-0.5-0.6-0.7-0.7l-3.7-2.1c0 0-0.7-0.5-3.1-1.8c-0.2-0.1-0.4 0.1-0.6 0c-1.4-0.9-2.3-4-2.2-5.4z" />
		<g id="Layer">
			<path id="Layer" class="s35" d="m13.9 69q0.6 0.2 1.1 0.4l1 5.2q-0.6-0.1-1.1-0.2z" />
			<path id="Layer" class="s36" d="m17.6 74.8l-1-5.2q0.6 0.1 1.1 0.1l0.9 5.1q-0.5 0-1 0z" />
			<path id="Layer" class="s37" d="m2.2 66.6q-0.2-0.4-0.4-0.9l1.7-2.5q0.1 0.1 0.2 0.2l0.5 0.3z" />
			<path id="Layer" class="s38" d="m1.4 63.6l1.2-1.8q0.1 0.3 0.3 0.7l-1.4 2q-0.1-0.4-0.1-0.9z" />
			<path id="Layer" class="s39" d="m20.3 69.5h0.1l0.9 5q-0.3 0-0.6 0.1h-0.4l-0.9-5q0.4 0 0.9-0.1z" />
		</g>
		<path id="Layer" class="s40" d="m29.2 67.5c-0.1-0.1-0.7 0.3-1.5 0.6q-3.5 1.5-7.3 2c-3.6 0.5-7-0.3-9.1-1.5c-2.5-1.5-5.5-3.2-8.1-4.7c-1.1-0.7-1.9-2.7-1.4-5.5q0.1-0.3 0.1-0.6q0.3-1.1 1.1-2c-1.5 3.8-0.7 6.8 0.7 7.6c2.7 1.6 5.7 3.3 8.2 4.7c2.1 1.3 4.8 1.9 8.4 1.4c2.4-0.3 5.5-1.1 7.6-2.1q0.1 0 0.2 0c0.5-0.3 1-0.2 1.1 0.1z" />
		<path id="Layer" class="s41" d="m6.6 65.8l2.3 1.4l-0.5 3.7l-2.6-1.5z" />
		<path id="Layer" class="s42" d="m63.7 19.6l-0.6-0.3c0 0 1.1-0.7 1.7-1c1.4 0 1.9-0.2 2.8-0.2q0.2 0.2 0.5 0.3c-1 0.6-4.4 1.2-4.4 1.2z" />
		<path id="Layer" class="s12" d="m63.7 19.6c0 0 1-2 2-2.6c0 0.5-0.3 0.8-0.4 1.6z" />
		<path id="Layer" class="s43" d="m63.7 19.6l-0.6-0.3c0 0 1-2 2-2.6l0.6 0.3c-1 0.6-2 2.6-2 2.6z" />
	</g>
</svg>