<svg width="95" height="15" viewBox="0 0 95 15" fill="none" xmlns="http://www.w3.org/2000/svg">
<path d="M9.90094 0.75H2.02594C1.28765 0.75 0.713436 1.35156 0.713436 2.0625V14.75L5.96344 11.6875L11.2134 14.75V2.0625C11.2134 1.35156 10.6119 0.75 9.90094 0.75ZM9.90094 12.4805L5.96344 10.1836L2.02594 12.4805V2.22656C2.02594 2.14453 2.08062 2.0625 2.19 2.0625H9.73687C9.8189 2.0625 9.90094 2.14453 9.90094 2.22656V12.4805ZM20.6934 13.2324C22.8946 13.2324 24.337 12.084 24.337 10.2383V10.2314C24.337 8.80957 23.5235 7.98242 21.4659 7.52441L20.3721 7.27832C19.0323 6.98438 18.4922 6.45117 18.4922 5.66504V5.6582C18.4922 4.62598 19.4424 4.04492 20.6729 4.03809C21.958 4.03125 22.7784 4.67383 22.9151 5.54199L22.9287 5.63086H24.1592L24.1524 5.53516C24.0498 4.06543 22.6758 2.90332 20.7071 2.90332C18.67 2.90332 17.2412 4.05859 17.2344 5.69238V5.69922C17.2344 7.12793 18.0889 8.03711 20.0645 8.47461L21.1582 8.71387C22.5118 9.01465 23.0791 9.5752 23.0791 10.3955V10.4023C23.0791 11.4072 22.1016 12.0977 20.7618 12.0977C19.3399 12.0977 18.3145 11.4756 18.2256 10.4912L18.2188 10.416H16.9883L16.9952 10.4912C17.1387 12.0977 18.5332 13.2324 20.6934 13.2324ZM28.0208 13.1299C29.012 13.1299 29.7845 12.6992 30.2493 11.9131H30.3587V13H31.5481V7.95508C31.5481 6.42383 30.5432 5.50098 28.7454 5.50098C27.1731 5.50098 26.052 6.28027 25.8606 7.43555L25.8538 7.47656H27.0432L27.0501 7.45605C27.2415 6.88184 27.8225 6.55371 28.7044 6.55371C29.805 6.55371 30.3587 7.0459 30.3587 7.95508V8.625L28.2464 8.75488C26.5305 8.85742 25.5598 9.61621 25.5598 10.9287V10.9424C25.5598 12.2822 26.6194 13.1299 28.0208 13.1299ZM26.7766 10.915V10.9014C26.7766 10.1699 27.2688 9.77344 28.3899 9.70508L30.3587 9.58203V10.252C30.3587 11.3047 29.4768 12.0977 28.2669 12.0977C27.4124 12.0977 26.7766 11.6602 26.7766 10.915ZM35.2935 13H36.4966L39.2241 5.63086H37.9663L35.9497 11.7012H35.8404L33.8237 5.63086H32.5659L35.2935 13ZM43.2908 13.1299C45.0271 13.1299 46.0798 12.1455 46.3328 11.1475L46.3464 11.0928H45.157L45.1296 11.1543C44.9314 11.5986 44.3162 12.0703 43.3181 12.0703C42.0056 12.0703 41.1648 11.1816 41.1306 9.65723H46.4353V9.19238C46.4353 6.99121 45.2185 5.50098 43.2156 5.50098C41.2127 5.50098 39.9138 7.05957 39.9138 9.33594V9.34277C39.9138 11.6533 41.1853 13.1299 43.2908 13.1299ZM43.2087 6.56055C44.2957 6.56055 45.1023 7.25098 45.2253 8.70703H41.1511C41.281 7.30566 42.115 6.56055 43.2087 6.56055ZM55.1223 13.2324C57.3235 13.2324 58.7659 12.084 58.7659 10.2383V10.2314C58.7659 8.80957 57.9524 7.98242 55.8948 7.52441L54.801 7.27832C53.4612 6.98438 52.9211 6.45117 52.9211 5.66504V5.6582C52.9211 4.62598 53.8713 4.04492 55.1018 4.03809C56.3869 4.03125 57.2073 4.67383 57.344 5.54199L57.3577 5.63086H58.5881L58.5813 5.53516C58.4787 4.06543 57.1047 2.90332 55.136 2.90332C53.0989 2.90332 51.6702 4.05859 51.6633 5.69238V5.69922C51.6633 7.12793 52.5178 8.03711 54.4934 8.47461L55.5871 8.71387C56.9407 9.01465 57.508 9.5752 57.508 10.3955V10.4023C57.508 11.4072 56.5305 12.0977 55.1907 12.0977C53.7688 12.0977 52.7434 11.4756 52.6545 10.4912L52.6477 10.416H51.4172L51.4241 10.4912C51.5676 12.0977 52.9621 13.2324 55.1223 13.2324ZM63.4341 13.1299C65.1704 13.1299 66.2231 12.1455 66.4761 11.1475L66.4897 11.0928H65.3003L65.2729 11.1543C65.0747 11.5986 64.4595 12.0703 63.4614 12.0703C62.1489 12.0703 61.3081 11.1816 61.2739 9.65723H66.5786V9.19238C66.5786 6.99121 65.3618 5.50098 63.3589 5.50098C61.3559 5.50098 60.0571 7.05957 60.0571 9.33594V9.34277C60.0571 11.6533 61.3286 13.1299 63.4341 13.1299ZM63.352 6.56055C64.4389 6.56055 65.2456 7.25098 65.3686 8.70703H61.2944C61.4243 7.30566 62.2583 6.56055 63.352 6.56055ZM70.2077 13.1299C71.1989 13.1299 71.9714 12.6992 72.4362 11.9131H72.5456V13H73.7351V7.95508C73.7351 6.42383 72.7302 5.50098 70.9323 5.50098C69.3601 5.50098 68.239 6.28027 68.0476 7.43555L68.0407 7.47656H69.2302L69.237 7.45605C69.4284 6.88184 70.0095 6.55371 70.8913 6.55371C71.9919 6.55371 72.5456 7.0459 72.5456 7.95508V8.625L70.4333 8.75488C68.7175 8.85742 67.7468 9.61621 67.7468 10.9287V10.9424C67.7468 12.2822 68.8064 13.1299 70.2077 13.1299ZM68.9636 10.915V10.9014C68.9636 10.1699 69.4558 9.77344 70.5769 9.70508L72.5456 9.58203V10.252C72.5456 11.3047 71.6638 12.0977 70.4538 12.0977C69.5993 12.0977 68.9636 11.6602 68.9636 10.915ZM75.6689 13H76.8584V8.43359C76.8584 7.35352 77.665 6.63574 78.7998 6.63574C79.0595 6.63574 79.2851 6.66309 79.5312 6.7041V5.54883C79.415 5.52832 79.1621 5.50098 78.9365 5.50098C77.9384 5.50098 77.248 5.95215 76.9677 6.72461H76.8584V5.63086H75.6689V13ZM83.5705 13.1299C85.341 13.1299 86.3322 12.1797 86.633 10.8467L86.6467 10.7715L85.4709 10.7783L85.4572 10.8193C85.1838 11.6396 84.5549 12.0771 83.5637 12.0771C82.2512 12.0771 81.4035 10.9902 81.4035 9.29492V9.28125C81.4035 7.62012 82.2375 6.55371 83.5637 6.55371C84.6232 6.55371 85.2795 7.1416 85.4641 7.86621L85.4709 7.88672H86.6535L86.6467 7.8457C86.4279 6.5332 85.3547 5.50098 83.5637 5.50098C81.4992 5.50098 80.1867 6.99121 80.1867 9.28125V9.29492C80.1867 11.6328 81.5061 13.1299 83.5705 13.1299ZM88.2182 13H89.4077V8.63867C89.4077 7.34668 90.1528 6.55371 91.3286 6.55371C92.5043 6.55371 93.0512 7.18945 93.0512 8.51562V13H94.2407V8.22852C94.2407 6.47852 93.3178 5.50098 91.6635 5.50098C90.5766 5.50098 89.8862 5.95898 89.517 6.73828H89.4077V2.70508H88.2182V13Z" fill="url(#paint0_linear_188_535)"/>
<defs>
<linearGradient id="paint0_linear_188_535" x1="117" y1="-18" x2="82.684" y2="73.0693" gradientUnits="userSpaceOnUse">
<stop offset="0.0677083" stop-color="#00B5DD"/>
<stop offset="0.510417" stop-color="#0091E2"/>
<stop offset="0.90625" stop-color="#0084E4"/>
</linearGradient>
</defs>
</svg>
