<svg width="14" height="18" viewBox="0 0 14 18" fill="none" xmlns="http://www.w3.org/2000/svg">
<path d="M11.6858 10.7316C9.95671 14.1385 6.94783 17.7325 6.82064 17.8837C6.75822 17.9578 6.67159 18 6.58102 18C6.49045 18 6.40402 17.9578 6.34141 17.8837C6.0947 17.5901 0.294117 10.649 0.294117 6.92455C0.294117 3.10636 3.11437 0 6.58102 0C8.77891 0 10.7803 1.2313 11.9356 3.2938C12.0335 3.46852 11.9876 3.70037 11.8335 3.81127C11.8305 3.81328 11.8274 3.8144 11.8244 3.8164C11.6718 3.91905 11.4726 3.86728 11.3765 3.69546C10.3438 1.85119 8.55111 0.750205 6.58102 0.750205C3.47921 0.750205 0.955865 3.51985 0.955865 6.92455C0.955865 9.94969 5.47883 15.715 6.58102 17.0746C7.33649 16.1428 9.70055 13.1393 11.1121 10.3576C11.2024 10.1793 11.4017 10.1175 11.5604 10.2177C11.5616 10.2184 11.5629 10.2188 11.5641 10.2195C11.7222 10.3228 11.777 10.5522 11.6858 10.7316ZM6.58102 2.41083C6.58141 2.41083 6.58161 2.41083 6.58201 2.41083C7.15594 2.41083 7.70743 2.55186 8.22072 2.83034C8.38139 2.91803 8.57139 2.84395 8.65447 2.66811C8.65684 2.6632 8.65999 2.65919 8.66215 2.65406C8.74091 2.46729 8.67121 2.24347 8.50641 2.15399C7.90314 1.82687 7.25557 1.66107 6.58201 1.66107C6.58161 1.66107 6.58122 1.66107 6.58082 1.66107C4.11773 1.66107 2.11378 3.93199 2.11378 6.72372C2.11378 9.51501 4.11773 11.7862 6.58082 11.7862C7.27289 11.7862 7.93622 11.6117 8.55248 11.2676C8.7163 11.1761 8.78383 10.9512 8.70271 10.7653C8.70074 10.7606 8.69779 10.7568 8.69562 10.7521C8.61155 10.5767 8.42017 10.5058 8.25971 10.5948C7.73559 10.8878 7.17051 11.0362 6.58082 11.0362C4.48256 11.0362 2.77572 9.10175 2.77572 6.72372C2.77572 4.34525 4.48276 2.41083 6.58102 2.41083ZM13.1987 6.91072V8.03558C13.1987 8.44929 12.9018 8.78556 12.537 8.78556H12.1627H11.762C11.5755 9.22828 11.178 9.53554 10.7173 9.53554C10.4657 9.53554 10.2329 9.44294 10.0427 9.28785C9.88484 9.1591 9.75706 8.98639 9.67259 8.78556H7.46033C7.27388 9.22828 6.87636 9.53554 6.41563 9.53554C5.95491 9.53554 5.55719 9.22828 5.37093 8.78556H4.59597C4.23094 8.78556 3.93403 8.44929 3.93403 8.03558V6.16074C3.93403 5.74703 4.23094 5.41053 4.59597 5.41053H5.36975L5.79484 4.27675C5.92104 3.84452 6.29947 3.53547 6.72731 3.53547H9.61254H9.74406C10.1719 3.53547 10.5503 3.84452 10.6856 4.30464L11.1012 5.41031H11.5444C11.8138 5.41031 12.1392 5.51184 12.4304 5.69214C12.5125 5.74301 12.5915 5.79992 12.6659 5.86307C12.6815 5.87623 12.6972 5.8894 12.7126 5.90323C12.9953 6.15962 13.1987 6.50371 13.1987 6.91072ZM12.3869 8.03558H12.5373L12.537 6.91072C12.537 6.90916 12.5366 6.90782 12.5366 6.90626C12.5318 6.54521 11.9528 6.16074 11.5442 6.16074H10.8825H10.6864H5.5883H4.59578V8.03558H5.27072C5.35144 7.40074 5.83343 6.91072 6.41563 6.91072C6.99784 6.91072 7.47983 7.40074 7.56055 8.03558H9.57237C9.6529 7.40208 10.1327 6.91317 10.7132 6.91094C10.7145 6.91094 10.7159 6.91072 10.7173 6.91072C11.2995 6.91072 11.7815 7.40074 11.8622 8.03558H12.3869ZM11.1829 8.41068C11.2014 8.35177 11.2135 8.28907 11.2135 8.22324C11.2135 8.15741 11.2014 8.09471 11.1829 8.0358C11.1144 7.81802 10.9325 7.66092 10.7171 7.66092C10.6882 7.66092 10.6602 7.66516 10.6326 7.67052C10.4548 7.70533 10.3105 7.84725 10.2513 8.0358C10.2327 8.09493 10.2207 8.15741 10.2207 8.22324C10.2207 8.28907 10.2327 8.35177 10.2513 8.41068C10.2759 8.48878 10.3137 8.55996 10.3641 8.61776C10.4542 8.72107 10.5791 8.78556 10.7171 8.78556C10.9323 8.78556 11.1144 8.62847 11.1829 8.41068ZM6.88148 8.41068C6.89998 8.35177 6.9118 8.28907 6.9118 8.22324C6.9118 8.15741 6.89979 8.09471 6.88148 8.0358C6.81296 7.81802 6.63103 7.66092 6.41563 7.66092C6.20023 7.66092 6.01831 7.81802 5.94979 8.0358C5.93128 8.09493 5.91927 8.15741 5.91927 8.22324C5.91927 8.28907 5.93109 8.35177 5.94979 8.41068C6.01831 8.62847 6.20023 8.78556 6.41563 8.78556C6.63083 8.78556 6.81276 8.62847 6.88148 8.41068ZM6.41307 4.54206L6.08801 5.41053H10.3822L10.067 4.57018C10.0124 4.38876 9.88622 4.28567 9.74367 4.28567H6.72711C6.58437 4.28567 6.45816 4.38876 6.41307 4.54206Z" fill="url(#paint0_linear_1296_6697)"/>
<defs>
<linearGradient id="paint0_linear_1296_6697" x1="13.1987" y1="0" x2="-3.84857" y2="12.2216" gradientUnits="userSpaceOnUse">
<stop offset="0.0677083" stop-color="#00B5DD"/>
<stop offset="0.510417" stop-color="#0091E2"/>
<stop offset="0.90625" stop-color="#0084E4"/>
</linearGradient>
</defs>
</svg>
