<svg width="16" height="16" viewBox="0 0 16 16" fill="none" xmlns="http://www.w3.org/2000/svg">
<path d="M15.6806 6.10729C15.631 5.96389 15.541 5.83794 15.4213 5.74471C15.3017 5.65148 15.1575 5.59497 15.0064 5.58204L10.5456 4.93135L8.54652 0.878275C8.48232 0.74573 8.38209 0.633947 8.25731 0.555733C8.13252 0.477518 7.98823 0.436035 7.84096 0.436035C7.69368 0.436035 7.54939 0.477518 7.4246 0.555733C7.29982 0.633947 7.19959 0.74573 7.13539 0.878275L5.13629 4.92351L0.675559 5.58204C0.530466 5.60266 0.394058 5.66354 0.281816 5.75777C0.169573 5.852 0.0859899 5.9758 0.0405517 6.11513C-0.00104136 6.25128 -0.00477384 6.39619 0.0297548 6.53431C0.0642834 6.67242 0.13577 6.79853 0.236542 6.89909L3.4743 10.0349L2.69034 14.4878C2.65869 14.6355 2.67039 14.7893 2.72404 14.9305C2.77768 15.0717 2.87099 15.1944 2.99273 15.2839C3.11448 15.3733 3.25947 15.4257 3.41027 15.4346C3.56107 15.4436 3.71126 15.4089 3.84276 15.3345L7.84096 13.2413L11.8392 15.3345C11.9492 15.3966 12.0734 15.429 12.1998 15.4286C12.3658 15.4292 12.5278 15.377 12.6623 15.2796C12.7839 15.1925 12.8781 15.0724 12.9337 14.9335C12.9892 14.7946 13.0039 14.6426 12.9759 14.4957L12.1919 10.0428L15.4297 6.90693C15.5429 6.81103 15.6265 6.68499 15.6709 6.54344C15.7154 6.4019 15.7187 6.25066 15.6806 6.10729ZM10.8592 9.24313C10.7685 9.33125 10.7004 9.44002 10.6608 9.56015C10.6212 9.68028 10.6113 9.80821 10.6319 9.93301L11.1963 13.2256L8.24861 11.6577C8.13405 11.6011 8.00796 11.5716 7.88015 11.5716C7.75234 11.5716 7.62625 11.6011 7.51169 11.6577L4.564 13.2256L5.12845 9.93301C5.14902 9.80821 5.13909 9.68028 5.0995 9.56015C5.05991 9.44002 4.99184 9.33125 4.9011 9.24313L2.54922 6.89125L5.8497 6.41303C5.9767 6.39537 6.09743 6.34682 6.2013 6.27165C6.30518 6.19647 6.38903 6.09697 6.44551 5.98186L7.84096 2.99497L9.3148 5.9897C9.37128 6.10481 9.45513 6.20431 9.55901 6.27949C9.66288 6.35466 9.78361 6.40321 9.91061 6.42087L13.2111 6.89909L10.8592 9.24313Z" fill="url(#paint0_linear_1827_6210)"/>
<defs>
<linearGradient id="paint0_linear_1827_6210" x1="15.7069" y1="0.436035" x2="0.722505" y2="16.1202" gradientUnits="userSpaceOnUse">
<stop offset="0.0677083" stop-color="#00B5DD"/>
<stop offset="0.510417" stop-color="#0091E2"/>
<stop offset="0.90625" stop-color="#0084E4"/>
</linearGradient>
</defs>
</svg>
