<svg width="107" height="15" viewBox="0 0 107 15" fill="none" xmlns="http://www.w3.org/2000/svg">
<path d="M14.2307 0.75H1.57051C0.968945 0.75 0.668163 1.46094 1.10566 1.87109L6.16426 6.92969V12.5625C6.16426 12.7812 6.24629 13 6.43769 13.1094L8.62519 14.6406C9.06269 14.9414 9.66426 14.6406 9.66426 14.0938V6.92969L14.6955 1.87109C15.133 1.46094 14.8322 0.75 14.2307 0.75ZM24.3942 13.2324C26.5954 13.2324 28.0378 12.084 28.0378 10.2383V10.2314C28.0378 8.80957 27.2243 7.98242 25.1667 7.52441L24.0729 7.27832C22.7331 6.98438 22.193 6.45117 22.193 5.66504V5.6582C22.193 4.62598 23.1432 4.04492 24.3737 4.03809C25.6589 4.03125 26.4792 4.67383 26.6159 5.54199L26.6296 5.63086H27.86L27.8532 5.53516C27.7507 4.06543 26.3766 2.90332 24.4079 2.90332C22.3708 2.90332 20.9421 4.05859 20.9352 5.69238V5.69922C20.9352 7.12793 21.7897 8.03711 23.7653 8.47461L24.8591 8.71387C26.2126 9.01465 26.78 9.5752 26.78 10.3955V10.4023C26.78 11.4072 25.8024 12.0977 24.4626 12.0977C23.0407 12.0977 22.0153 11.4756 21.9264 10.4912L21.9196 10.416H20.6891L20.696 10.4912C20.8395 12.0977 22.2341 13.2324 24.3942 13.2324ZM32.706 13.1299C34.4423 13.1299 35.495 12.1455 35.748 11.1475L35.7616 11.0928H34.5722L34.5448 11.1543C34.3466 11.5986 33.7314 12.0703 32.7333 12.0703C31.4208 12.0703 30.58 11.1816 30.5458 9.65723H35.8505V9.19238C35.8505 6.99121 34.6337 5.50098 32.6308 5.50098C30.6279 5.50098 29.329 7.05957 29.329 9.33594V9.34277C29.329 11.6533 30.6005 13.1299 32.706 13.1299ZM32.6239 6.56055C33.7109 6.56055 34.5175 7.25098 34.6405 8.70703H30.5663C30.6962 7.30566 31.5302 6.56055 32.6239 6.56055ZM39.4796 13.1299C40.4709 13.1299 41.2433 12.6992 41.7082 11.9131H41.8175V13H43.007V7.95508C43.007 6.42383 42.0021 5.50098 40.2043 5.50098C38.632 5.50098 37.5109 6.28027 37.3195 7.43555L37.3127 7.47656H38.5021L38.5089 7.45605C38.7004 6.88184 39.2814 6.55371 40.1632 6.55371C41.2638 6.55371 41.8175 7.0459 41.8175 7.95508V8.625L39.7052 8.75488C37.9894 8.85742 37.0187 9.61621 37.0187 10.9287V10.9424C37.0187 12.2822 38.0783 13.1299 39.4796 13.1299ZM38.2355 10.915V10.9014C38.2355 10.1699 38.7277 9.77344 39.8488 9.70508L41.8175 9.58203V10.252C41.8175 11.3047 40.9357 12.0977 39.7257 12.0977C38.8713 12.0977 38.2355 11.6602 38.2355 10.915ZM44.9408 13H46.1303V8.43359C46.1303 7.35352 46.9369 6.63574 48.0717 6.63574C48.3314 6.63574 48.557 6.66309 48.8031 6.7041V5.54883C48.6869 5.52832 48.434 5.50098 48.2084 5.50098C47.2104 5.50098 46.5199 5.95215 46.2396 6.72461H46.1303V5.63086H44.9408V13ZM52.8424 13.1299C54.6129 13.1299 55.6041 12.1797 55.9049 10.8467L55.9186 10.7715L54.7428 10.7783L54.7291 10.8193C54.4557 11.6396 53.8268 12.0771 52.8356 12.0771C51.5231 12.0771 50.6754 10.9902 50.6754 9.29492V9.28125C50.6754 7.62012 51.5094 6.55371 52.8356 6.55371C53.8952 6.55371 54.5514 7.1416 54.736 7.86621L54.7428 7.88672H55.9254L55.9186 7.8457C55.6998 6.5332 54.6266 5.50098 52.8356 5.50098C50.7711 5.50098 49.4586 6.99121 49.4586 9.28125V9.29492C49.4586 11.6328 50.778 13.1299 52.8424 13.1299ZM57.4901 13H58.6796V8.63867C58.6796 7.34668 59.4247 6.55371 60.6005 6.55371C61.7762 6.55371 62.3231 7.18945 62.3231 8.51562V13H63.5126V8.22852C63.5126 6.47852 62.5897 5.50098 60.9354 5.50098C59.8485 5.50098 59.1581 5.95898 58.7889 6.73828H58.6796V2.70508H57.4901V13ZM69.2738 13H70.5043V8.72754H74.8724V7.63379H70.5043V4.24316H75.2621V3.13574H69.2738V13ZM77.524 4.20898C77.9752 4.20898 78.3443 3.83984 78.3443 3.38867C78.3443 2.9375 77.9752 2.56836 77.524 2.56836C77.0728 2.56836 76.7037 2.9375 76.7037 3.38867C76.7037 3.83984 77.0728 4.20898 77.524 4.20898ZM76.9225 13H78.1119V5.63086H76.9225V13ZM80.1825 13H81.3719V2.70508H80.1825V13ZM86.0333 13.0547C86.2657 13.0547 86.4913 13.0273 86.7237 12.9863V11.9746C86.505 11.9951 86.3887 12.002 86.1768 12.002C85.4112 12.002 85.1104 11.6533 85.1104 10.7852V6.61523H86.7237V5.63086H85.1104V3.72363H83.88V5.63086H82.7178V6.61523H83.88V11.0859C83.88 12.4941 84.5157 13.0547 86.0333 13.0547ZM91.1595 13.1299C92.8958 13.1299 93.9485 12.1455 94.2015 11.1475L94.2151 11.0928H93.0257L92.9984 11.1543C92.8001 11.5986 92.1849 12.0703 91.1868 12.0703C89.8743 12.0703 89.0335 11.1816 88.9993 9.65723H94.304V9.19238C94.304 6.99121 93.0872 5.50098 91.0843 5.50098C89.0814 5.50098 87.7825 7.05957 87.7825 9.33594V9.34277C87.7825 11.6533 89.054 13.1299 91.1595 13.1299ZM91.0775 6.56055C92.1644 6.56055 92.971 7.25098 93.0941 8.70703H89.0198C89.1497 7.30566 89.9837 6.56055 91.0775 6.56055ZM95.9097 13H97.0992V8.43359C97.0992 7.35352 97.9058 6.63574 99.0406 6.63574C99.3004 6.63574 99.5259 6.66309 99.772 6.7041V5.54883C99.6558 5.52832 99.4029 5.50098 99.1773 5.50098C98.1793 5.50098 97.4888 5.95215 97.2086 6.72461H97.0992V5.63086H95.9097V13ZM103.394 13.1299C105.069 13.1299 106.347 12.2207 106.347 10.9082V10.8945C106.347 9.8418 105.678 9.24023 104.29 8.90527L103.155 8.63184C102.287 8.41992 101.918 8.10547 101.918 7.60645V7.59277C101.918 6.94336 102.56 6.49219 103.435 6.49219C104.324 6.49219 104.898 6.89551 105.055 7.47656H106.224C106.06 6.27344 104.987 5.50098 103.442 5.50098C101.877 5.50098 100.701 6.42383 100.701 7.64746V7.6543C100.701 8.71387 101.323 9.31543 102.704 9.64355L103.846 9.91699C104.755 10.1357 105.131 10.4844 105.131 10.9834V10.9971C105.131 11.667 104.427 12.1387 103.435 12.1387C102.492 12.1387 101.904 11.7354 101.706 11.1201H100.489C100.626 12.3369 101.754 13.1299 103.394 13.1299Z" fill="url(#paint0_linear_188_533)"/>
<defs>
<linearGradient id="paint0_linear_188_533" x1="123" y1="-18" x2="88.684" y2="73.0693" gradientUnits="userSpaceOnUse">
<stop offset="0.0677083" stop-color="#00B5DD"/>
<stop offset="0.510417" stop-color="#0091E2"/>
<stop offset="0.90625" stop-color="#0084E4"/>
</linearGradient>
</defs>
</svg>
