<svg width="20" height="20" viewBox="0 0 20 20" fill="none" xmlns="http://www.w3.org/2000/svg">
<g clip-path="url(#clip0_1296_6648)">
<path d="M19.1196 12.0612C18.9457 12.0612 18.8009 11.9183 18.8009 11.7347C18.5884 6.82651 14.9283 2.98978 10.4666 2.98978C6.00485 2.98978 2.33505 6.83671 2.13224 11.7347C2.12259 11.9183 1.96807 12.0714 1.79423 12.0612C1.6204 12.051 1.47554 11.8979 1.4852 11.7041C1.69766 6.42855 5.64753 2.2959 10.4569 2.2959C15.2663 2.2959 19.2162 6.42855 19.4383 11.6939C19.4479 11.8775 19.3127 12.0408 19.1292 12.051C19.1292 12.0612 19.1196 12.0612 19.1196 12.0612Z" fill="url(#paint0_linear_1296_6648)"/>
<path d="M19.1196 12.0612H1.79425C1.65904 12.0612 1.55281 11.949 1.55281 11.8061C1.55281 11.6633 1.65904 11.551 1.79425 11.551H19.1196C19.2548 11.551 19.361 11.6633 19.361 11.8061C19.361 11.949 19.2548 12.0612 19.1196 12.0612ZM12.2435 15.4592C11.6255 15.6531 10.9784 15.7551 10.3217 15.7551C9.80987 15.7551 9.29803 15.6939 8.8055 15.5714L8.25503 17.4796C8.89242 17.6225 9.53947 17.6939 10.1962 17.6939C11.075 17.6939 11.9442 17.5918 12.7747 17.3367L12.2435 15.4592ZM8.11983 15.3572C6.9706 14.9286 5.96623 14.1837 5.18399 13.1837L3.66778 14.5C4.72043 15.7755 6.06281 16.7245 7.56936 17.2755L8.11983 15.3572ZM15.8264 13.0408C15.0538 14.0306 14.0688 14.8163 12.9389 15.2449L13.4797 17.1225C14.9669 16.5612 16.2996 15.6123 17.3426 14.3571L15.8264 13.0408Z" fill="url(#paint1_linear_1296_6648)"/>
<path d="M10.9881 10.4693L9.79056 9.20397L13.2189 6.82642L10.9881 10.4693Z" fill="url(#paint2_linear_1296_6648)"/>
<path d="M10.9881 10.5102C10.9784 10.5102 10.9687 10.5102 10.9591 10.5L9.76157 9.23467C9.75192 9.22446 9.75192 9.21426 9.75192 9.20405C9.75192 9.19385 9.76157 9.18365 9.77123 9.17344L13.1996 6.79589C13.2189 6.78569 13.2382 6.78569 13.2479 6.8061C13.2575 6.8163 13.2672 6.84691 13.2575 6.85712L11.0267 10.5C11.017 10.5102 11.0074 10.5102 10.9881 10.5102ZM9.84849 9.21426L10.9784 10.4081L13.0741 6.97957L9.84849 9.21426ZM16.8791 11.1326C16.8501 10.8571 16.8115 10.5918 16.7632 10.3265L17.4006 10.1836C17.4585 10.4694 17.4971 10.7653 17.5261 11.0612L16.8791 11.1326ZM4.07337 11.0612L3.42633 10.9898C3.4553 10.6939 3.50359 10.3979 3.56153 10.1122L4.18926 10.2551C4.14098 10.5204 4.09269 10.7959 4.07337 11.0612ZM15.9133 8.0612C15.7781 7.8265 15.6333 7.60201 15.4787 7.38773L15.9906 6.96936C16.1644 7.20406 16.3189 7.44895 16.4735 7.70406L15.9133 8.0612ZM5.05843 7.99997L4.50796 7.64283C4.65282 7.38773 4.81699 7.14283 4.99083 6.90814L5.50267 7.33671C5.33849 7.54079 5.19363 7.76528 5.05843 7.99997ZM13.779 5.75508C13.5666 5.61222 13.3348 5.47957 13.103 5.36732L13.3734 4.74487C13.6245 4.86732 13.8756 5.01018 14.1171 5.17344L13.779 5.75508ZM7.21202 5.72446L6.87402 5.14283C7.11545 4.98977 7.36654 4.84691 7.61763 4.72446L7.88804 5.34691C7.66592 5.44895 7.43414 5.58161 7.21202 5.72446ZM10.8818 4.76528C10.6307 4.74487 10.37 4.74487 10.1092 4.76528L10.0706 4.08161C10.3507 4.0612 10.6404 4.0714 10.9205 4.08161L10.8818 4.76528ZM6.15937 11.8469C6.96093 13.4387 8.58337 14.5204 10.4569 14.5204C12.3304 14.5204 13.9529 13.4387 14.7544 11.8469H6.15937Z" fill="url(#paint3_linear_1296_6648)"/>
</g>
<defs>
<linearGradient id="paint0_linear_1296_6648" x1="19.4388" y1="2.2959" x2="11.2405" y2="17.3681" gradientUnits="userSpaceOnUse">
<stop offset="0.0677083" stop-color="#00B5DD"/>
<stop offset="0.510417" stop-color="#0091E2"/>
<stop offset="0.90625" stop-color="#0084E4"/>
</linearGradient>
<linearGradient id="paint1_linear_1296_6648" x1="19.361" y1="11.551" x2="15.5738" y2="22.5303" gradientUnits="userSpaceOnUse">
<stop offset="0.0677083" stop-color="#00B5DD"/>
<stop offset="0.510417" stop-color="#0091E2"/>
<stop offset="0.90625" stop-color="#0084E4"/>
</linearGradient>
<linearGradient id="paint2_linear_1296_6648" x1="13.2189" y1="6.82642" x2="9.58277" y2="10.2485" gradientUnits="userSpaceOnUse">
<stop offset="0.0677083" stop-color="#00B5DD"/>
<stop offset="0.510417" stop-color="#0091E2"/>
<stop offset="0.90625" stop-color="#0084E4"/>
</linearGradient>
<linearGradient id="paint3_linear_1296_6648" x1="17.5261" y1="4.06982" x2="7.52737" y2="17.56" gradientUnits="userSpaceOnUse">
<stop offset="0.0677083" stop-color="#00B5DD"/>
<stop offset="0.510417" stop-color="#0091E2"/>
<stop offset="0.90625" stop-color="#0084E4"/>
</linearGradient>
<clipPath id="clip0_1296_6648">
<rect width="18.9285" height="20" fill="white" transform="translate(0.992676)"/>
</clipPath>
</defs>
</svg>
