<svg width="48" height="42" viewBox="0 0 48 42" fill="none" xmlns="http://www.w3.org/2000/svg">
<path d="M40.263 41.6309C40.0653 41.6309 39.872 41.5722 39.7075 41.4623C39.5431 41.3524 39.415 41.1963 39.3393 41.0136C39.2637 40.8309 39.2438 40.6298 39.2824 40.4359C39.321 40.2419 39.4162 40.0638 39.556 39.9239C41.6054 37.8859 43.2301 35.4616 44.3362 32.7914C45.4424 30.1212 46.0079 27.2581 46 24.3679C46 18.4919 43.711 12.9679 39.556 8.81192C35.401 4.65592 29.876 2.36792 24 2.36792C18.124 2.36792 12.599 4.65692 8.443 8.81192C4.287 12.9669 2 18.4919 2 24.3679C1.99207 27.2581 2.55743 30.1211 3.66337 32.7913C4.76931 35.4615 6.39386 37.8858 8.443 39.9239C8.53851 40.0162 8.61469 40.1265 8.6671 40.2485C8.71951 40.3705 8.7471 40.5017 8.74825 40.6345C8.7494 40.7673 8.7241 40.899 8.67382 41.0219C8.62354 41.1448 8.54929 41.2564 8.45539 41.3503C8.3615 41.4442 8.24985 41.5185 8.12695 41.5687C8.00406 41.619 7.87238 41.6443 7.7396 41.6432C7.60682 41.642 7.4756 41.6144 7.3536 41.562C7.23159 41.5096 7.12125 41.4334 7.029 41.3379C4.79342 39.1146 3.02106 36.47 1.81453 33.5571C0.607991 30.6441 -0.0087528 27.5208 3.27243e-07 24.3679C-0.00862184 21.215 0.608279 18.0916 1.81499 15.1787C3.0217 12.2657 4.79424 9.62113 7.03 7.39792C11.563 2.86492 17.59 0.36792 24 0.36792C30.41 0.36792 36.438 2.86492 40.971 7.39792C43.2066 9.62121 44.9789 12.2659 46.1855 15.1788C47.392 18.0917 48.0088 21.215 48 24.3679C48 30.7779 45.503 36.8059 40.97 41.3379C40.8773 41.4309 40.7671 41.5047 40.6457 41.555C40.5244 41.6052 40.3943 41.6311 40.263 41.6309Z" fill="#0096E6"/>
</svg>
