<svg width="17" height="15" viewBox="0 0 17 15" fill="none" xmlns="http://www.w3.org/2000/svg">
<path d="M16.4225 6.91077L9.75584 0.244095C9.63931 0.127551 9.49084 0.0481795 9.3292 0.0160192C9.16756 -0.0161412 9.00001 0.000353866 8.84775 0.0634184C8.69548 0.126483 8.56534 0.233284 8.47377 0.370316C8.38221 0.507347 8.33334 0.668454 8.33334 0.833262V3.78736C6.05692 3.99807 3.94105 5.05065 2.39978 6.73913C0.858501 8.42761 0.00275709 10.6305 2.44503e-09 12.9166V14.1666C-1.32511e-05 14.3397 0.0538553 14.5084 0.154127 14.6495C0.254399 14.7905 0.396099 14.8969 0.559556 14.9537C0.723013 15.0106 0.900117 15.0152 1.06628 14.9668C1.23245 14.9184 1.37943 14.8195 1.48682 14.6838C2.30319 13.7129 3.30486 12.9144 4.43331 12.335C5.56176 11.7557 6.79435 11.407 8.05909 11.3093C8.10059 11.3041 8.20475 11.2959 8.33334 11.2878V14.1666C8.33334 14.3314 8.38221 14.4925 8.47377 14.6295C8.56534 14.7666 8.69548 14.8734 8.84775 14.9364C9.00001 14.9995 9.16756 15.016 9.3292 14.9838C9.49084 14.9517 9.63931 14.8723 9.75584 14.7558L16.4225 8.0891C16.4999 8.01174 16.5613 7.91989 16.6032 7.8188C16.6451 7.71771 16.6666 7.60936 16.6666 7.49993C16.6666 7.39051 16.6451 7.28215 16.6032 7.18106C16.5613 7.07997 16.4999 6.98812 16.4225 6.91077ZM10 12.1549V10.4166C10 10.3072 9.9785 10.1988 9.93663 10.0977C9.89476 9.99655 9.83338 9.90467 9.75599 9.82728C9.6786 9.74989 9.58673 9.68851 9.48561 9.64664C9.38449 9.60477 9.27611 9.58324 9.16667 9.58327C8.95427 9.58327 8.08675 9.62437 7.8654 9.6541C5.61923 9.86098 3.48113 10.7143 1.7098 12.1109C1.91074 10.2729 2.78265 8.57353 4.15856 7.33832C5.53446 6.10312 7.31766 5.41886 9.16667 5.4166C9.27611 5.41663 9.38449 5.39509 9.48561 5.35322C9.58673 5.31135 9.6786 5.24997 9.75599 5.17258C9.83338 5.0952 9.89476 5.00332 9.93663 4.9022C9.9785 4.80108 10 4.69271 10 4.58326V2.84498L14.655 7.49993L10 12.1549Z" fill="url(#paint0_linear_1827_6205)"/>
<defs>
<linearGradient id="paint0_linear_1827_6205" x1="16.6666" y1="0" x2="1.7495" y2="16.5746" gradientUnits="userSpaceOnUse">
<stop offset="0.0677083" stop-color="#00B5DD"/>
<stop offset="0.510417" stop-color="#0091E2"/>
<stop offset="0.90625" stop-color="#0084E4"/>
</linearGradient>
</defs>
</svg>
