<svg width="126" height="15" viewBox="0 0 126 15" fill="none" xmlns="http://www.w3.org/2000/svg">
<path d="M1.49996 7.625C0.898399 7.625 0.597618 8.33594 1.03512 8.74609L4.28902 12C4.53512 12.2734 4.94527 12.2734 5.21871 12L8.47262 8.74609C8.88277 8.33594 8.58199 7.625 8.00777 7.625H1.49996ZM8.47262 4.75391L5.21871 1.5C4.94527 1.25391 4.53512 1.25391 4.28902 1.5L1.03512 4.75391C0.597618 5.19141 0.898399 5.875 1.49996 5.875H8.00777C8.58199 5.875 8.88277 5.19141 8.47262 4.75391ZM18.6088 12.2324C20.81 12.2324 22.2524 11.084 22.2524 9.23828V9.23145C22.2524 7.80957 21.4389 6.98242 19.3813 6.52441L18.2875 6.27832C16.9477 5.98438 16.4077 5.45117 16.4077 4.66504V4.6582C16.4077 3.62598 17.3579 3.04492 18.5883 3.03809C19.8735 3.03125 20.6938 3.67383 20.8305 4.54199L20.8442 4.63086H22.0746L22.0678 4.53516C21.9653 3.06543 20.5913 1.90332 18.6225 1.90332C16.5854 1.90332 15.1567 3.05859 15.1498 4.69238V4.69922C15.1498 6.12793 16.0043 7.03711 17.9799 7.47461L19.0737 7.71387C20.4272 8.01465 20.9946 8.5752 20.9946 9.39551V9.40234C20.9946 10.4072 20.017 11.0977 18.6772 11.0977C17.2553 11.0977 16.2299 10.4756 16.1411 9.49121L16.1342 9.41602H14.9038L14.9106 9.49121C15.0541 11.0977 16.4487 12.2324 18.6088 12.2324ZM26.9411 12.1299C29.0397 12.1299 30.3386 10.6807 30.3386 8.32227V8.30859C30.3386 5.94336 29.0397 4.50098 26.9411 4.50098C24.8425 4.50098 23.5436 5.94336 23.5436 8.30859V8.32227C23.5436 10.6807 24.8425 12.1299 26.9411 12.1299ZM26.9411 11.0771C25.5466 11.0771 24.7604 10.0586 24.7604 8.32227V8.30859C24.7604 6.56543 25.5466 5.55371 26.9411 5.55371C28.3356 5.55371 29.1218 6.56543 29.1218 8.30859V8.32227C29.1218 10.0586 28.3356 11.0771 26.9411 11.0771ZM31.9443 12H33.1337V7.43359C33.1337 6.35352 33.9404 5.63574 35.0751 5.63574C35.3349 5.63574 35.5605 5.66309 35.8066 5.7041V4.54883C35.6904 4.52832 35.4374 4.50098 35.2118 4.50098C34.2138 4.50098 33.5234 4.95215 33.2431 5.72461H33.1337V4.63086H31.9443V12ZM39.7912 12.0547C40.0236 12.0547 40.2492 12.0273 40.4816 11.9863V10.9746C40.2629 10.9951 40.1466 11.002 39.9347 11.002C39.1691 11.002 38.8683 10.6533 38.8683 9.78516V5.61523H40.4816V4.63086H38.8683V2.72363H37.6379V4.63086H36.4757V5.61523H37.6379V10.0859C37.6379 11.4941 38.2736 12.0547 39.7912 12.0547ZM44.9174 12.1299C46.6537 12.1299 47.7064 11.1455 47.9594 10.1475L47.973 10.0928H46.7836L46.7563 10.1543C46.558 10.5986 45.9428 11.0703 44.9447 11.0703C43.6322 11.0703 42.7914 10.1816 42.7572 8.65723H48.0619V8.19238C48.0619 5.99121 46.8451 4.50098 44.8422 4.50098C42.8393 4.50098 41.5404 6.05957 41.5404 8.33594V8.34277C41.5404 10.6533 42.8119 12.1299 44.9174 12.1299ZM44.8354 5.56055C45.9223 5.56055 46.7289 6.25098 46.852 7.70703H42.7777C42.9076 6.30566 43.7416 5.56055 44.8354 5.56055ZM52.3883 12.1299C53.4137 12.1299 54.234 11.6445 54.6852 10.8242H54.7946V12H55.984V1.70508H54.7946V5.79297H54.6852C54.2819 5.00684 53.4 4.50098 52.3883 4.50098C50.5153 4.50098 49.2985 5.99805 49.2985 8.30859V8.32227C49.2985 10.6191 50.5221 12.1299 52.3883 12.1299ZM52.6618 11.0771C51.3151 11.0771 50.5153 10.0381 50.5153 8.32227V8.30859C50.5153 6.59277 51.3151 5.55371 52.6618 5.55371C54.0016 5.55371 54.8219 6.60645 54.8219 8.30859V8.32227C54.8219 10.0244 54.0016 11.0771 52.6618 11.0771ZM65.3888 12.1299C67.255 12.1299 68.4786 10.6191 68.4786 8.32227V8.30859C68.4786 5.99805 67.2618 4.50098 65.3888 4.50098C64.3771 4.50098 63.4952 5.00684 63.0919 5.79297H62.9825V1.70508H61.7931V12H62.9825V10.8242H63.0919C63.5431 11.6445 64.3634 12.1299 65.3888 12.1299ZM65.1154 11.0771C63.7755 11.0771 62.9552 10.0244 62.9552 8.32227V8.30859C62.9552 6.60645 63.7755 5.55371 65.1154 5.55371C66.462 5.55371 67.2618 6.59277 67.2618 8.30859V8.32227C67.2618 10.0381 66.462 11.0771 65.1154 11.0771ZM70.4398 14.584C71.7455 14.584 72.3539 14.1055 72.9623 12.4512L75.8402 4.63086H74.5892L72.5726 10.6943H72.4632L70.4398 4.63086H69.1683L71.8959 12.0068L71.7591 12.4443C71.4925 13.292 71.0824 13.5996 70.4056 13.5996C70.2416 13.5996 70.057 13.5928 69.9134 13.5654V14.543C70.0775 14.5703 70.2826 14.584 70.4398 14.584ZM81.0204 12H84.4041C87.3368 12 89.0594 10.1748 89.0594 7.07129V7.05762C89.0594 3.96094 87.3299 2.13574 84.4041 2.13574H81.0204V12ZM82.2508 10.8926V3.24316H84.3221C86.5096 3.24316 87.8016 4.66504 87.8016 7.07129V7.08496C87.8016 9.48438 86.5233 10.8926 84.3221 10.8926H82.2508ZM92.8253 12.1299C93.8165 12.1299 94.5889 11.6992 95.0538 10.9131H95.1632V12H96.3526V6.95508C96.3526 5.42383 95.3477 4.50098 93.5499 4.50098C91.9776 4.50098 90.8565 5.28027 90.6651 6.43555L90.6583 6.47656H91.8477L91.8546 6.45605C92.046 5.88184 92.627 5.55371 93.5089 5.55371C94.6095 5.55371 95.1632 6.0459 95.1632 6.95508V7.625L93.0509 7.75488C91.335 7.85742 90.3643 8.61621 90.3643 9.92871V9.94238C90.3643 11.2822 91.4239 12.1299 92.8253 12.1299ZM91.5811 9.91504V9.90137C91.5811 9.16992 92.0733 8.77344 93.1944 8.70508L95.1632 8.58203V9.25195C95.1632 10.3047 94.2813 11.0977 93.0714 11.0977C92.2169 11.0977 91.5811 10.6602 91.5811 9.91504ZM100.905 12.0547C101.137 12.0547 101.363 12.0273 101.595 11.9863V10.9746C101.376 10.9951 101.26 11.002 101.048 11.002C100.283 11.002 99.9818 10.6533 99.9818 9.78516V5.61523H101.595V4.63086H99.9818V2.72363H98.7513V4.63086H97.5892V5.61523H98.7513V10.0859C98.7513 11.4941 99.387 12.0547 100.905 12.0547ZM106.031 12.1299C107.767 12.1299 108.82 11.1455 109.073 10.1475L109.086 10.0928H107.897L107.87 10.1543C107.671 10.5986 107.056 11.0703 106.058 11.0703C104.746 11.0703 103.905 10.1816 103.871 8.65723H109.175V8.19238C109.175 5.99121 107.959 4.50098 105.956 4.50098C103.953 4.50098 102.654 6.05957 102.654 8.33594V8.34277C102.654 10.6533 103.925 12.1299 106.031 12.1299ZM105.949 5.56055C107.036 5.56055 107.842 6.25098 107.965 7.70703H103.891C104.021 6.30566 104.855 5.56055 105.949 5.56055ZM124.664 5.84766C124.391 5.57422 123.981 5.60156 123.707 5.84766L120.59 9.15625V1.28125C120.59 0.925781 120.289 0.625 119.934 0.625H119.059C118.676 0.625 118.402 0.925781 118.402 1.28125V9.15625L115.258 5.84766C114.984 5.60156 114.574 5.57422 114.301 5.84766L113.699 6.44922C113.453 6.69531 113.453 7.13281 113.699 7.37891L119.031 12.6836C119.277 12.957 119.688 12.957 119.961 12.6836L125.266 7.37891C125.512 7.13281 125.512 6.72266 125.266 6.44922L124.664 5.84766Z" fill="url(#paint0_linear_188_536)"/>
<defs>
<linearGradient id="paint0_linear_188_536" x1="131" y1="-2" x2="126.35" y2="33.3891" gradientUnits="userSpaceOnUse">
<stop offset="0.0677083" stop-color="#00B5DD"/>
<stop offset="0.510417" stop-color="#0091E2"/>
<stop offset="0.90625" stop-color="#0084E4"/>
</linearGradient>
</defs>
</svg>
